<svg xmlns="http://www.w3.org/2000/svg" width="54" height="62" viewBox="0 0 54 62"><defs><style>.cls-1{isolation:isolate;}.cls-2{opacity:0.15;mix-blend-mode:multiply;}.cls-3,.cls-6{opacity:0.13;}.cls-4{fill:#fffdfd;}.cls-5{fill:#b23231;}.cls-6{fill:#040000;}.cls-7{fill:#b9b9b9;}</style></defs><title>アセット 3</title><g class="cls-1"><g id="レイヤー_2" data-name="レイヤー 2"><g id="text"><g class="cls-2"><polygon points="54 17.35 54 62 5.28 62 5.28 4 40.58 4 46.83 10.22 54 17.35"/><rect x="4" y="7.88" width="23.37" height="10.4"/><path d="M12.38,11.29a1.89,1.89,0,0,0-.43-.65,2,2,0,0,0-.68-.45,2.52,2.52,0,0,0-.93-.16H7.77v6.59h1.3V14.14h1.27a2.33,2.33,0,0,0,.93-.17,2,2,0,0,0,.68-.44,1.84,1.84,0,0,0,.43-.66,2,2,0,0,0,.15-.78A2.15,2.15,0,0,0,12.38,11.29ZM11,12.74a1,1,0,0,1-.7.24H9.07V11.17h1.21a1,1,0,0,1,.7.26.9.9,0,0,1,.25.66A.92.92,0,0,1,11,12.74Z"/><path d="M18.58,12.58a5.7,5.7,0,0,0,0-.62,2.64,2.64,0,0,0-.13-.52,2,2,0,0,0-.24-.45,2.2,2.2,0,0,0-.83-.73A2.81,2.81,0,0,0,16.17,10H13.78v6.59h2.39a2.81,2.81,0,0,0,1.17-.23,2.2,2.2,0,0,0,.83-.73,2,2,0,0,0,.24-.45,2.64,2.64,0,0,0,.13-.52,5.7,5.7,0,0,0,0-.62c0-.22,0-.47,0-.74S18.59,12.8,18.58,12.58ZM17.29,14a3.23,3.23,0,0,1,0,.49,1.23,1.23,0,0,1-.08.33.82.82,0,0,1-.14.26,1.17,1.17,0,0,1-1,.4h-1v-4.3h1a1.18,1.18,0,0,1,1,.41.89.89,0,0,1,.14.25,1.42,1.42,0,0,1,.08.34,3.08,3.08,0,0,1,0,.48V14Z"/><path d="M24.12,11.17V10H19.75v6.59h1.3V14h2.62V12.8H21.05V11.17Z"/><path d="M12.38,11.29a1.89,1.89,0,0,0-.43-.65,2,2,0,0,0-.68-.45,2.52,2.52,0,0,0-.93-.16H7.77v6.59h1.3V14.14h1.27a2.33,2.33,0,0,0,.93-.17,2,2,0,0,0,.68-.44,1.84,1.84,0,0,0,.43-.66,2,2,0,0,0,.15-.78A2.15,2.15,0,0,0,12.38,11.29ZM11,12.74a1,1,0,0,1-.7.24H9.07V11.17h1.21a1,1,0,0,1,.7.26.9.9,0,0,1,.25.66A.92.92,0,0,1,11,12.74Z"/><polygon class="cls-3" points="54 17.35 54 62 5.28 62 5.28 51.53 28.05 28.88 29.4 27.54 30.15 26.8 31.4 25.56 32.87 24.09 46.83 10.22 54 17.35"/><polygon points="54 17.35 40.58 17.35 40.58 4 54 17.35"/><path d="M47,46a5.32,5.32,0,0,0-1.15-1.39,7.77,7.77,0,0,0-1.38-1c-2.11-1.24-5.13-1.84-9.22-1.84h-.42l-.69-.62a18.18,18.18,0,0,1-3.75-4.59c1.88-4.14,2.79-7.83,2.67-11a5.47,5.47,0,0,0-.23-1.49,4.68,4.68,0,0,0-1-1.93v0a3.93,3.93,0,0,0-2.92-1.34,3.65,3.65,0,0,0-2.82,1.33A5.29,5.29,0,0,0,25,25.53a29.34,29.34,0,0,0,.51,5.92l.09.44a23.07,23.07,0,0,0,1.58,4.71c-.8,1.63-1.62,3-2.19,4-.42.73-.9,1.49-1.39,2.25a34.49,34.49,0,0,0-5.71,1.46,14.87,14.87,0,0,0-5.25,3A6,6,0,0,0,11,49.85a3.65,3.65,0,0,0,1.61,4.39,3.36,3.36,0,0,0,.54.26,4.78,4.78,0,0,0,1.78.34,6.44,6.44,0,0,0,4.21-1.74,44,44,0,0,0,6.22-7.58c1.17-.18,2.45-.33,3.9-.49,1.7-.17,3.2-.27,4.56-.32L35,45.78A47.56,47.56,0,0,0,40.24,50h0A12.2,12.2,0,0,0,42,51a4.53,4.53,0,0,0,1.91.45,3.92,3.92,0,0,0,2.25-.7,3.6,3.6,0,0,0,1.34-1.91A3.79,3.79,0,0,0,47,46Zm-19-17.11a23.76,23.76,0,0,1-.16-3.32c0-1.1.42-1.84,1-1.84s.92.4,1.14,1.17a3.58,3.58,0,0,1,.11.79,10.51,10.51,0,0,1,0,1.12,16.57,16.57,0,0,1-.57,3.48,21.74,21.74,0,0,1-.77,2.48A20.21,20.21,0,0,1,28.06,28.88ZM13.73,51.36c-.15-.36,0-1,.91-1.9a14.65,14.65,0,0,1,6.48-3.1c-.56.76-1.12,1.46-1.66,2.11a23.54,23.54,0,0,1-2.33,2.45,3.73,3.73,0,0,1-1.91,1l-.34,0A1.19,1.19,0,0,1,13.73,51.36Zm13.72-9.08.06-.09-.09,0a.35.35,0,0,1,.07-.12c.36-.61.81-1.39,1.3-2.28l.05.09.11-.23a18.36,18.36,0,0,0,1.17,1.5c.19.23.4.45.61.68h-.14l.12.11-1.09.09-.71.07Zm14.46,5.33a31.23,31.23,0,0,1-3.57-2.78A11.7,11.7,0,0,1,43,46.12a4.45,4.45,0,0,1,1.11.85c.41.44.56.83.48,1.09a.71.71,0,0,1-.74.45,1.59,1.59,0,0,1-.67-.16,12.55,12.55,0,0,1-1.24-.7A.07.07,0,0,1,41.91,47.61Z"/></g><polygon class="cls-4" points="50 13.35 50 58 1.28 58 1.28 0 36.58 0 42.83 6.22 50 13.35"/><rect class="cls-5" y="3.88" width="23.37" height="10.4"/><path class="cls-4" d="M8.38,7.29A1.89,1.89,0,0,0,8,6.64a2,2,0,0,0-.68-.45A2.52,2.52,0,0,0,6.34,6H3.77v6.59h1.3V10.14H6.34A2.33,2.33,0,0,0,7.27,10,2,2,0,0,0,8,9.53a1.84,1.84,0,0,0,.43-.66,2,2,0,0,0,.15-.78A2.15,2.15,0,0,0,8.38,7.29ZM7,8.74a1,1,0,0,1-.7.24H5.07V7.17H6.28a1,1,0,0,1,.7.26.9.9,0,0,1,.25.66A.92.92,0,0,1,7,8.74Z"/><path class="cls-4" d="M14.58,8.58a5.7,5.7,0,0,0,0-.62,2.64,2.64,0,0,0-.13-.52A2,2,0,0,0,14.17,7a2.2,2.2,0,0,0-.83-.73A2.81,2.81,0,0,0,12.17,6H9.78v6.59h2.39a2.81,2.81,0,0,0,1.17-.23,2.2,2.2,0,0,0,.83-.73,2,2,0,0,0,.24-.45,2.64,2.64,0,0,0,.13-.52,5.7,5.7,0,0,0,0-.62c0-.22,0-.47,0-.74S14.59,8.8,14.58,8.58ZM13.29,10a3.23,3.23,0,0,1,0,.49,1.23,1.23,0,0,1-.08.33.82.82,0,0,1-.14.26,1.17,1.17,0,0,1-1,.4h-1V7.17h1a1.18,1.18,0,0,1,1,.41.89.89,0,0,1,.14.25,1.42,1.42,0,0,1,.08.34,3.08,3.08,0,0,1,0,.48V10Z"/><path class="cls-4" d="M20.12,7.17V6H15.75v6.59h1.3V10h2.62V8.8H17.05V7.17Z"/><path class="cls-4" d="M8.38,7.29A1.89,1.89,0,0,0,8,6.64a2,2,0,0,0-.68-.45A2.52,2.52,0,0,0,6.34,6H3.77v6.59h1.3V10.14H6.34A2.33,2.33,0,0,0,7.27,10,2,2,0,0,0,8,9.53a1.84,1.84,0,0,0,.43-.66,2,2,0,0,0,.15-.78A2.15,2.15,0,0,0,8.38,7.29ZM7,8.74a1,1,0,0,1-.7.24H5.07V7.17H6.28a1,1,0,0,1,.7.26.9.9,0,0,1,.25.66A.92.92,0,0,1,7,8.74Z"/><polygon class="cls-6" points="50 13.35 50 58 1.28 58 1.28 47.53 24.05 24.88 25.4 23.54 26.15 22.8 27.4 21.56 28.87 20.09 42.83 6.22 50 13.35"/><polygon class="cls-7" points="50 13.35 36.58 13.35 36.58 0 50 13.35"/><path class="cls-5" d="M43,42a5.32,5.32,0,0,0-1.15-1.39,7.77,7.77,0,0,0-1.38-1c-2.11-1.24-5.13-1.84-9.22-1.84h-.42l-.69-.62a18.18,18.18,0,0,1-3.75-4.59c1.88-4.14,2.79-7.83,2.67-11a5.47,5.47,0,0,0-.23-1.49,4.68,4.68,0,0,0-1-1.93v0a3.93,3.93,0,0,0-2.92-1.34,3.65,3.65,0,0,0-2.82,1.33A5.29,5.29,0,0,0,21,21.53a29.34,29.34,0,0,0,.51,5.92l.09.44a23.07,23.07,0,0,0,1.58,4.71c-.8,1.63-1.62,3-2.19,4-.42.73-.9,1.49-1.39,2.25a34.49,34.49,0,0,0-5.71,1.46,14.87,14.87,0,0,0-5.25,3A6,6,0,0,0,7,45.85a3.65,3.65,0,0,0,1.61,4.39,3.36,3.36,0,0,0,.54.26,4.78,4.78,0,0,0,1.78.34,6.44,6.44,0,0,0,4.21-1.74,44,44,0,0,0,6.22-7.58c1.17-.18,2.45-.33,3.9-.49,1.7-.17,3.2-.27,4.56-.32L31,41.78A47.56,47.56,0,0,0,36.24,46h0A12.2,12.2,0,0,0,38,47a4.53,4.53,0,0,0,1.91.45,3.92,3.92,0,0,0,2.25-.7,3.6,3.6,0,0,0,1.34-1.91A3.79,3.79,0,0,0,43,42Zm-19-17.11a23.76,23.76,0,0,1-.16-3.32c0-1.1.42-1.84,1-1.84s.92.4,1.14,1.17a3.58,3.58,0,0,1,.11.79,10.51,10.51,0,0,1,0,1.12,16.57,16.57,0,0,1-.57,3.48,21.74,21.74,0,0,1-.77,2.48A20.21,20.21,0,0,1,24.06,24.88ZM9.73,47.36c-.15-.36,0-1,.91-1.9a14.65,14.65,0,0,1,6.48-3.1c-.56.76-1.12,1.46-1.66,2.11a23.54,23.54,0,0,1-2.33,2.45,3.73,3.73,0,0,1-1.91,1l-.34,0A1.19,1.19,0,0,1,9.73,47.36Zm13.72-9.08.06-.09-.09,0a.35.35,0,0,1,.07-.12c.36-.61.81-1.39,1.3-2.28l.05.09.11-.23a18.36,18.36,0,0,0,1.17,1.5c.19.23.4.45.61.68h-.14l.12.11-1.09.09-.71.07Zm14.46,5.33a31.23,31.23,0,0,1-3.57-2.78A11.7,11.7,0,0,1,39,42.12a4.45,4.45,0,0,1,1.11.85c.41.44.56.83.48,1.09a.71.71,0,0,1-.74.45,1.59,1.59,0,0,1-.67-.16,12.55,12.55,0,0,1-1.24-.7A.07.07,0,0,1,37.91,43.61Z"/></g></g></g></svg>