<svg xmlns="http://www.w3.org/2000/svg" width="24.84" height="20.07" viewBox="0 0 24.84 20.07"><title>アセット 4</title><g id="レイヤー_2" data-name="レイヤー 2"><g id="text"><path d="M22.48,1.91C19.42.16,15.37,0,12.42,0S5.42.16,2.36,1.91A4.87,4.87,0,0,0,.12,7.26c.06.33.66,1.48,1.7,1.37A19.45,19.45,0,0,0,6.09,7.32a1.47,1.47,0,0,0,.27-1.91c-.38-.66-.05-.88-.05-.88H18.54s.33.22-.06.88a1.46,1.46,0,0,0,.28,1.91A19.11,19.11,0,0,0,23,8.63c1,.11,1.64-1,1.69-1.37A4.84,4.84,0,0,0,22.48,1.91Z"/><path d="M17.12,5.61a.49.49,0,0,0-.43-.26H15.28a.32.32,0,0,0-.32.32v1a.31.31,0,0,1-.32.31H10.2a.32.32,0,0,1-.32-.31v-1a.32.32,0,0,0-.32-.32H8.15a.47.47,0,0,0-.42.26L4.25,12.26A8.19,8.19,0,0,0,3.33,16v1.55a1.6,1.6,0,0,0,1.59,1.6h.4v.9H6.94v-.9h11v.9h1.62v-.9h.4a1.6,1.6,0,0,0,1.6-1.6V16a8.08,8.08,0,0,0-.93-3.76Zm-.74,9.14v1.79H14.59V14.75Zm0-2.83v1.79H14.59V11.92Zm-1.79-1V9.09h1.79v1.79Zm-1.27,3.87v1.79H11.53V14.75Zm0-2.83v1.79H11.53V11.92Zm0-2.83v1.79H11.53V9.09Zm-3.07,5.66v1.79H8.47V14.75Zm0-2.83v1.79H8.47V11.92Zm-1.78-1V9.09h1.78v1.79Z"/></g></g></svg>