<svg xmlns="http://www.w3.org/2000/svg" width="92" height="92" viewBox="0 0 92 92"><defs><style>.cls-1{fill:#9489d8;}.cls-2{fill:#8477d2;}.cls-3{fill:#fff;}.cls-4{fill:none;}</style></defs><g id="レイヤー_2" data-name="レイヤー 2"><g id="text"><circle class="cls-1" cx="46" cy="46" r="45.5"/><path class="cls-2" d="M77.77,13.44,14.23,78.56A45.49,45.49,0,1,0,77.77,13.44Z"/><path class="cls-3" d="M27.29,43.92a.68.68,0,0,1-.71-.63c-.14-2-.31-7.87-.31-7.87,0-.24-.07-.35-.15-.35s-.19.11-.24.31c-.41,1.41-1.82,5.91-2.44,7.53a1.14,1.14,0,0,1-1,.75,1,1,0,0,1-.94-.73c-.45-1.11-1.78-5.83-2.31-7.5-.06-.18-.16-.29-.23-.29s-.15.13-.18.39c-.1,1.25-.32,5.84-.39,7.79a.66.66,0,0,1-.72.6.58.58,0,0,1-.64-.56v0c.1-2.46.42-6.49.53-8.54a1.3,1.3,0,0,1,1.25-1.37,1.4,1.4,0,0,1,1.29,1.06c.6,1.84,1.78,6.05,2.23,7.12q.06.15.15.15c.07,0,.13,0,.17-.15.56-1.44,1.72-5.38,2.31-7.15a1.41,1.41,0,0,1,1.32-1.06,1.31,1.31,0,0,1,1.27,1.39c0,1.82.35,6.45.46,8.46v0A.65.65,0,0,1,27.29,43.92Z"/><path class="cls-3" d="M33.8,44a3.26,3.26,0,0,1-3.29-3.46A3.34,3.34,0,0,1,33.76,37a2.79,2.79,0,0,1,2.94,2.43,1.11,1.11,0,0,1-1.22,1.13h-3.6c-.11,0-.13.09-.13.26a2,2,0,0,0,2.06,2.06A2.39,2.39,0,0,0,35.7,42a.55.55,0,0,1,.41-.2.66.66,0,0,1,.63.63.65.65,0,0,1-.18.42A3.48,3.48,0,0,1,33.8,44Zm0-6a2,2,0,0,0-1.89,1.4c0,.1.1.11,1.55.11h1.68c.23,0,.34-.14.34-.33S35,38.07,33.77,38.07Z"/><path class="cls-3" d="M41.08,44c-1.7,0-2.38-.93-2.38-1.36a.61.61,0,0,1,.61-.6.58.58,0,0,1,.49.26,1.64,1.64,0,0,0,1.28.58c.42,0,1.13-.21,1.13-.83a1.06,1.06,0,0,0-.66-.88c-.39-.21-.91-.49-1.37-.69A1.79,1.79,0,0,1,41,37c1.36,0,2.09.67,2.09,1.11a.62.62,0,0,1-.6.6.69.69,0,0,1-.51-.25,1.29,1.29,0,0,0-1-.38c-.56,0-.87.31-.87.66a.87.87,0,0,0,.55.73c.37.18,1,.45,1.42.67a2,2,0,0,1-1,3.84Z"/><path class="cls-3" d="M47.78,44c-1.69,0-2.38-.93-2.38-1.36a.62.62,0,0,1,.62-.6.59.59,0,0,1,.49.26,1.63,1.63,0,0,0,1.27.58c.42,0,1.14-.21,1.14-.83a1.06,1.06,0,0,0-.66-.88c-.39-.21-.91-.49-1.37-.69A1.78,1.78,0,0,1,47.73,37c1.36,0,2.08.67,2.08,1.11a.62.62,0,0,1-.6.6.67.67,0,0,1-.5-.25,1.32,1.32,0,0,0-1-.38c-.56,0-.87.31-.87.66a.89.89,0,0,0,.55.73c.38.18,1,.45,1.43.67a2,2,0,0,1-1,3.84Z"/><path class="cls-3" d="M57,43.08A.06.06,0,0,0,57,43a.07.07,0,0,0-.07,0,2.84,2.84,0,0,1-2.19,1,2.24,2.24,0,0,1-2.39-2.11,1.83,1.83,0,0,1,1.4-1.75,17.22,17.22,0,0,1,2.46-.61c.24,0,.24-.24.24-.45a1,1,0,0,0-1.13-1,2,2,0,0,0-1.47.61.6.6,0,0,1-.45.23.59.59,0,0,1-.59-.56c0-.66,1.18-1.33,2.58-1.33a2,2,0,0,1,2.31,2.29,4.32,4.32,0,0,1,0,.5c0,.29-.07.84-.07,1.27,0,.14,0,.27,0,.38a1.3,1.3,0,0,0,.78,1.26.45.45,0,0,1,.19.39.73.73,0,0,1-.64.72C57.52,43.83,57.16,43.38,57,43.08Zm-.75-2.5c-2.51.33-2.8.82-2.8,1.34a1.1,1.1,0,0,0,1.23,1c1.18,0,1.76-.64,1.76-1.86,0-.41-.09-.46-.18-.46Z"/><path class="cls-3" d="M63.59,47.55c-1.92,0-3.32-.85-3.32-2.14a1.8,1.8,0,0,1,1.26-1.63c.06,0,.1,0,.1-.05s-.06,0-.16-.07a1.08,1.08,0,0,1-.79-1,1.43,1.43,0,0,1,.86-1.24c.12-.06.17-.09.17-.12s-.05-.07-.17-.15a2.21,2.21,0,0,1-.89-1.74,2.45,2.45,0,0,1,2.69-2.36h0A3.39,3.39,0,0,1,65,37.4a.51.51,0,0,0,.22.07.39.39,0,0,0,.2-.06,1.92,1.92,0,0,1,1-.32c.53,0,.86.15.86.61a.51.51,0,0,1-.51.56h-.33a.49.49,0,0,0-.47.22.38.38,0,0,0,0,.1,2.39,2.39,0,0,1,.15.85c0,1.31-.92,2.22-2.61,2.29-.72,0-1.64.25-1.64.81,0,.29.33.36,2.15.36a6.46,6.46,0,0,1,1.36.1,2.08,2.08,0,0,1,1.88,2C67.26,46.67,65.56,47.55,63.59,47.55ZM64.93,44c-.26,0-.75-.05-1.21-.05h-.49c-.89.06-1.77.63-1.77,1.37,0,.17.11,1.19,2.12,1.19,1.73,0,2.43-.74,2.43-1.45A1.09,1.09,0,0,0,64.93,44Zm-1.51-5.9a1.47,1.47,0,0,0-1.6,1.35c0,1,.82,1.3,1.53,1.3S65,40.31,65,39.38C65,38.05,63.58,38.05,63.42,38.05Z"/><path class="cls-3" d="M72.34,44a3.26,3.26,0,0,1-3.29-3.46A3.34,3.34,0,0,1,72.3,37a2.79,2.79,0,0,1,2.94,2.43A1.11,1.11,0,0,1,74,40.58h-3.6c-.11,0-.13.09-.13.26a2,2,0,0,0,2.06,2.06A2.39,2.39,0,0,0,74.24,42a.55.55,0,0,1,.41-.2.66.66,0,0,1,.63.63.6.6,0,0,1-.18.42A3.48,3.48,0,0,1,72.34,44Zm0-6a2,2,0,0,0-1.89,1.4c0,.1.1.11,1.56.11h1.68a.31.31,0,0,0,.33-.33C74,38.92,73.59,38.07,72.31,38.07Z"/><path class="cls-3" d="M32.76,52.32c-.14,0-.18,0-.18.21,0,0,0,2.91,0,4.22v.49a.63.63,0,0,1-.65.66.58.58,0,0,1-.6-.62v0c0-.28,0-.9,0-1.6,0-1.4,0-3.11,0-3.11,0-.18,0-.21-.22-.21h-.63a.53.53,0,0,1-.55-.57.55.55,0,0,1,.55-.59h.64c.18,0,.21-.06.21-.17s0-.38,0-.77V49.9a2.46,2.46,0,0,1,2.43-2.5c.59,0,.8.28.8.58a.58.58,0,0,1-.59.59h-.15c-1.27,0-1.27,1.36-1.27,1.8,0,.28,0,.47,0,.65s0,.14.2.14H34a.53.53,0,0,1,.53.57.54.54,0,0,1-.53.59Z"/><path class="cls-3" d="M38.09,57.35a.58.58,0,0,1-.61.59.6.6,0,0,1-.65-.59v0c.05-1.39.06-2.48.06-3.5,0-.73,0-1.42,0-2.16v0c0-.35.34-.51.65-.51a.56.56,0,0,1,.61.56c0,.11,0,.16,0,.26V52l.07-.06a2.64,2.64,0,0,1,1.88-.88.56.56,0,0,1,.6.57.66.66,0,0,1-.67.65A2,2,0,0,0,38.08,54c0,.28,0,.65,0,1.12s0,1.32,0,2.24Z"/><path class="cls-3" d="M42.45,54.52a3.43,3.43,0,1,1,6.86,0,3.43,3.43,0,1,1-6.86,0Zm5.64,0a2.21,2.21,0,1,0-2.21,2.35A2.21,2.21,0,0,0,48.09,54.52Z"/><path class="cls-3" d="M60,57.33c0-.54,0-1.56,0-2.45,0-.63,0-1.19,0-1.43-.06-.91-.55-1.27-1.12-1.27a1.81,1.81,0,0,0-1.74,1.65c0,.28,0,.7,0,1.24s0,1.44,0,2.26a.59.59,0,0,1-.6.64.57.57,0,0,1-.57-.62v0c0-.54,0-1.56,0-2.45,0-.63,0-1.19,0-1.43-.06-.92-.55-1.3-1.11-1.3a1.86,1.86,0,0,0-1.74,1.71c0,.23,0,.53,0,.91,0,.7,0,1.61,0,2.56a.56.56,0,0,1-.59.65.6.6,0,0,1-.61-.63v0c0-1.41.05-2.55.05-3.6,0-.7,0-1.36,0-2v0a.56.56,0,0,1,.6-.57.57.57,0,0,1,.59.57v.14c0,.06,0,.07,0,.07s0,0,0,0A2.37,2.37,0,0,1,55,51.05a2,2,0,0,1,1.88,1.26A2.52,2.52,0,0,1,59,51.06a2.17,2.17,0,0,1,2.15,2.27c0,.57,0,2.2,0,3.29v.67a.62.62,0,0,1-.6.69.59.59,0,0,1-.6-.63Z"/><rect class="cls-4" width="92" height="92"/></g></g></svg>