<svg xmlns="http://www.w3.org/2000/svg" width="25.26" height="25.26" viewBox="0 0 25.26 25.26"><defs><style>.cls-1{fill:#3cab4c;}.cls-2{fill:#fff;}</style></defs><title>アセット 5</title><g id="レイヤー_2" data-name="レイヤー 2"><g id="text"><path class="cls-1" d="M12.63,0A12.63,12.63,0,1,0,25.26,12.63,12.65,12.65,0,0,0,12.63,0Z"/><path class="cls-2" d="M6.35,14.91h5.18a.87.87,0,0,1,.87.87V17.6c0,.49.25.66.49.66a.79.79,0,0,0,.47-.18l6.28-4.77a.82.82,0,0,0,0-1.36L13.36,7.19A.81.81,0,0,0,12.89,7c-.24,0-.49.17-.49.66V9.49a.87.87,0,0,1-.87.87H6.35a1.09,1.09,0,0,0-1.09,1.09v2.37A1.09,1.09,0,0,0,6.35,14.91Z"/></g></g></svg>