<svg xmlns="http://www.w3.org/2000/svg" width="27.1" height="30" viewBox="0 0 27.1 30"><defs><style>.cls-1{fill:#e45998;}</style></defs><title>アセット 2</title><g id="レイヤー_2" data-name="レイヤー 2"><g id="text"><path class="cls-1" d="M13.55,0A13.55,13.55,0,0,0,6.62,25.2V30a32.67,32.67,0,0,0,13.31-4.49,14.2,14.2,0,0,0,1.54-1A13.55,13.55,0,0,0,13.55,0Zm9.51,18.52a10.89,10.89,0,0,1-3.24,3.74A11.82,11.82,0,0,1,18.6,23l-.05,0-.05,0a32.22,32.22,0,0,1-8.38,3.45l-.67.16V23.59l-1.38-.82a10.92,10.92,0,0,1-3.8-3.84,10.78,10.78,0,0,1-1.44-5.38A10.73,10.73,0,0,1,21.14,6a10.72,10.72,0,0,1,1.92,12.55Z"/><path class="cls-1" d="M10,13.57a1.16,1.16,0,1,0-1.15-1.16A1.16,1.16,0,0,0,10,13.57Z"/><path class="cls-1" d="M17.38,13.57a1.16,1.16,0,1,0-1.15-1.16A1.15,1.15,0,0,0,17.38,13.57Z"/><path class="cls-1" d="M13.55,19.45a6.66,6.66,0,0,0,3.93-1.27,6.88,6.88,0,0,0,1.6-1.63H8A6.73,6.73,0,0,0,13.55,19.45Z"/></g></g></svg>