<svg xmlns="http://www.w3.org/2000/svg" width="490" height="72" viewBox="0 0 490 72"><defs><style>.cls-1{fill:#ff0;}.cls-2{fill:#231815;}.cls-3{fill:none;}</style></defs><g id="レイヤー_2" data-name="レイヤー 2"><g id="レイヤー_1-2" data-name="レイヤー 1"><rect class="cls-1" x="103.05" y="48.27" width="302.46" height="11.41"/><path d="M121.82,39.29c-1.82,0-3.6,0-5.16-.1-2.66-.1-4.06-1.43-4.12-4.16V29.35a1.52,1.52,0,0,1,1.52-1.52h.1a1.54,1.54,0,0,1,1.65,1.42v.1c0,.95-.06,2-.06,3v1.92c.07,2.14.68,2.17,6,2.17v-9.7a1.5,1.5,0,0,1,1.58-1.43h.07a1.53,1.53,0,0,1,1.71,1.33s0,.07,0,.1v9.7l4.18-.1c2-.06,2.15-1.33,2.15-3.76,0-1.07-.07-2.18-.1-3.12V29.4A1.46,1.46,0,0,1,132.86,28H133a1.58,1.58,0,0,1,1.72,1.43v.06c0,.81.06,1.75.06,2.7s0,1.91-.06,2.82c-.1,2.79-2,4.12-4.41,4.22-1.63.06-3.38.1-5.13.1V49.8c2,0,4,0,5.42-.1,1.91-.09,2.14-1.16,2.14-3.92,0-1.24-.06-2.53-.1-3.48v-.06a1.46,1.46,0,0,1,1.48-1.44h.11A1.58,1.58,0,0,1,136,42.24v.06c0,.82.07,1.89.07,3s0,2.17-.07,3.08a4.2,4.2,0,0,1-4.12,4.29h-.29c-2.24.09-5.26.13-8.21.13s-5.84,0-7.86-.13c-2.66-.1-4-1.5-4.12-4.22v-6.2a1.51,1.51,0,0,1,1.51-1.53H113a1.54,1.54,0,0,1,1.66,1.41v.12c0,.94-.06,2.17-.06,3.31,0,3.34,0,4.09,2,4.18,1.47.07,3.35.1,5.33.1Z"/><path d="M153.1,43.18v7.21c0,1.29-.95,2.69-3.12,2.69-1.27,0-2.43-.26-2.43-1.49,0-.65.35-1.27,1-1.27h.23a3.39,3.39,0,0,0,.84.1c.49,0,.88-.16.91-.78V43.18c-2.76,0-3.37-1.13-3.44-2.5V34.26a2.3,2.3,0,0,1,2.25-2.37h.57a22.94,22.94,0,0,0,.43-2.34,1,1,0,0,1,.09-.42h-3.31c-1.07,0-1.33.58-1.33,1.43,0,8.5,0,13.69-1.13,18.27a.92.92,0,0,1,.22-.26,8.33,8.33,0,0,0,2.18-3.44,1.18,1.18,0,0,1,1.13-.81,1.38,1.38,0,0,1,1.4,1.27c0,.81-2,5.25-3.83,5.25a1.33,1.33,0,0,1-1.36-1c-.46,1.53-.94,2.73-2.08,2.73a1.44,1.44,0,0,1-1.49-1.27,1,1,0,0,1,.13-.51c1.88-3.64,2.24-9.64,2.24-14.8,0-2.08-.07-4-.1-5.62v-.1c0-2.33,1.07-3.47,3.57-3.5h8.76a1.23,1.23,0,0,1,0,2.46h-2.5a1.16,1.16,0,0,1,.1.49,8.29,8.29,0,0,1-.62,2.24h1.33a2.32,2.32,0,0,1,2.5,2.13v0c.07.75.07,2,.07,3.28s0,2.53-.07,3.31c-.1,1.66-1,2.37-2.63,2.47Zm.88-6.75V34.87c0-.74-.52-.78-2.34-.78h-1.43c-.71,0-.87.61-.87,2.3Zm-4.67,2a15.87,15.87,0,0,0,.06,1.82c.07.78.65.81,2.4.81,1.43,0,2.11-.06,2.18-.9V38.43ZM156,49.22a1.06,1.06,0,0,1-1-.81,6.3,6.3,0,0,0-1.34-2.18,1,1,0,0,1-.22-.61,1.22,1.22,0,0,1,1.26-1.08c1.24,0,2.83,2.54,2.83,3.25A1.52,1.52,0,0,1,156,49.22Zm10.42-1a8,8,0,0,0,3.64,2.3,1.43,1.43,0,0,1,1.13,1.4,1.67,1.67,0,0,1-1.65,1.69h0c-1.69,0-5.62-3.25-5.62-4.42a1.41,1.41,0,0,1,.62-1.1h-3a1.45,1.45,0,0,1,.75,1.23c0,1.59-5.45,4.41-6.95,4.41a1.46,1.46,0,0,1-1.49-1.43v-.06a1.55,1.55,0,0,1,1.27-1.52,10,10,0,0,0,4.51-2.41,1.46,1.46,0,0,1,.42-.32,2.71,2.71,0,0,1-2.21-2.82c0-1.43-.06-3.35-.06-5.29s0-4,.06-5.55a2.8,2.8,0,0,1,2.8-2.8h.84c.13-.65.26-1.26.39-2.11h-3.38a1.36,1.36,0,0,1,0-2.72h10.62a1.36,1.36,0,0,1,0,2.72h-4.26c-.16.68-.39,1.46-.55,2.08a17.46,17.46,0,0,1,1.82.06,2.91,2.91,0,0,1,2.95,2.76c.07,1.53.1,3.51.1,5.49s0,3.89-.1,5.35A3,3,0,0,1,166.25,48Zm.13-9.77h-6.23v2.47h6.23Zm0-2.3V34.91c-.07-1.2-.39-1.23-3.22-1.23-2.46,0-2.82.1-2.88,1.26v1.21Zm-6.17,7v1.46c.06,1.2.61,1.23,2.72,1.23,2.83,0,3.31,0,3.38-1.26V43.15Z"/><path d="M180,52.2a1.73,1.73,0,0,1-1.59-1.39,23.9,23.9,0,0,1-1-7.08,37.17,37.17,0,0,1,.23-4.22c.39-3.63,1.13-6.84,1.36-8.86a1.48,1.48,0,0,1,1.44-1.52h.05a1.65,1.65,0,0,1,1.69,1.59V31c-.23,1.39-.81,3.67-1.27,6a31.9,31.9,0,0,0-.71,5.59c0,1.2.19,1.46.26,1.46s.26-.2.45-.59c.91-2,1.43-2.33,2-2.33a1.42,1.42,0,0,1,1.36,1.36,1.33,1.33,0,0,1-.16.62,19.71,19.71,0,0,0-2.56,6.39c0,.39.09.78.09,1.17a1.57,1.57,0,0,1-1.59,1.55Zm10.55-.06c-2.66,0-5-2-5-4.06,0-2.46,3-3.47,6-3.47a15.92,15.92,0,0,1,3,.32,6.91,6.91,0,0,0,0-.91,11.8,11.8,0,0,0-.1-1.81c-.13-1.4-.29-3.8-.39-6.33-3.38.71-4.93,1.52-5.84,2.37a1.47,1.47,0,0,1-2.08,0,1.49,1.49,0,0,1-.45-1.16c0-.71.45-2.37,8.3-4.12,0-1.36,0-2.66.1-3.7a1.53,1.53,0,0,1,3-.06v.16c-.1.91-.19,1.95-.23,3,.56-.1,1.14-.2,1.76-.29a2,2,0,0,1,2.06,1.3.34.34,0,0,1,0,.1c0,.68-.55,1.39-1.75,1.56-.75.09-1.46.19-2.11.29,0,2.4.13,4.77.29,6.49a33.33,33.33,0,0,1,.26,3.6v.36a12.79,12.79,0,0,1,3.74,2.27,1.83,1.83,0,0,1,.61,1.33,1.73,1.73,0,0,1-1.64,1.82h0a1.57,1.57,0,0,1-1.17-.58,10.9,10.9,0,0,0-2.34-1.89,7.51,7.51,0,0,1-6,3.36Zm.46-5c-2.53,0-2.66.81-2.66,1.1s.42,1.2,1.85,1.2a4.72,4.72,0,0,0,3.6-1.88,10.24,10.24,0,0,0-2.8-.45Z"/><path d="M222.88,52c-6.72,0-10.32-3.11-10.32-5a1.76,1.76,0,0,1,1.69-1.76,2,2,0,0,1,1.46.81,7.63,7.63,0,0,0,6.16,2.47,22.39,22.39,0,0,0,5.52-.81,2.71,2.71,0,0,1,.75-.1,1.63,1.63,0,0,1,1.75,1.51v.15a2.19,2.19,0,0,1-1.82,2A21.17,21.17,0,0,1,222.88,52Zm2.37-16.88a20.67,20.67,0,0,1-8.8-2.07,1.84,1.84,0,0,1-1.07-1.66,1.42,1.42,0,0,1,1.35-1.49h.11a2.76,2.76,0,0,1,.94.19,21,21,0,0,0,7.82,1.69,1.67,1.67,0,0,1,1.69,1.65h0c0,.88-.65,1.72-2,1.72Z"/><path d="M252.41,30.23a2.74,2.74,0,0,1,1.59-.65,1.33,1.33,0,0,1,1.4,1.24v.09c0,1-1,2.05-4,3.64-.42,2.92-1.11,6.75-1.14,8.7,2-2.28,5.26-4.35,8.25-4.35,2.27,0,5.93,1.3,5.93,4.7a7.67,7.67,0,0,1-2.3,5.13,17,17,0,0,1-9.64,4.61,1.64,1.64,0,0,1-1.81-1.45.41.41,0,0,1,0-.11,1.58,1.58,0,0,1,1.5-1.52c6.68-1,9-4.87,9-6.43s-1.72-2.14-3-2.14c-2.59,0-5.87,2.63-7.46,5.09-.42.69-.36,1.11-1.24,1.46a2,2,0,0,1-.68.13,1.55,1.55,0,0,1-1.65-1.44v-.21c0-.91.29-4,1.2-11a8.55,8.55,0,0,1-1.95.26c-.94,0-3.24-.2-3.24-1.79a1.49,1.49,0,0,1,1.46-1.52h.06a2.07,2.07,0,0,1,.85.16,2.83,2.83,0,0,0,1,.16,5.6,5.6,0,0,0,2.24-.55c.58-4.84.78-5.94,2.37-5.94a1.41,1.41,0,0,1,1.52,1.29v.07a21.25,21.25,0,0,1-.58,2.63Z"/><path d="M283,53.6c-1.23,0-1.78-.71-1.78-1.46a1.57,1.57,0,0,1,1.49-1.53c5.74-.45,10.42-3.83,10.42-6.42a2.28,2.28,0,0,0-2.46-2.08h0c-2.5,0-7.11,4.09-7.6,4.67a2.36,2.36,0,0,1-1.78,1.14c-.71,0-2.69-.71-2.69-5.32a14.34,14.34,0,0,1,.58-4.22,14.74,14.74,0,0,0,.32-2.73V35.1c0-2.11,1-3.18,3.22-4.41.78-.43,1.72-.82,1.72-1.21s-.36-.51-1.24-.81a1.46,1.46,0,0,1-1.2-1.33,1.62,1.62,0,0,1,1.76-1.46c1.16,0,5.22,1.92,5.22,4.16,0,1.52-1.2,1.75-2.82,2a6.68,6.68,0,0,0-1.56.65c-2,.94-2.4,1.78-2.4,2.79v.91a9.36,9.36,0,0,1-.1,1.3,30.74,30.74,0,0,0-.55,4.28c0,.1,0,1.4.39,1.4a.77.77,0,0,0,.29-.1c.65-.39,1.89-1.24,3.31-2.05a11,11,0,0,1,5.23-1.75c2.82,0,5.61,1.82,5.61,4.74,0,2.08-1.42,4.58-4.86,6.82C288.21,53.18,283.11,53.6,283,53.6Z"/><path d="M312.32,38.41a18.29,18.29,0,0,1-3.67.62,1.41,1.41,0,0,1-1.52-1.29v-.17a1.56,1.56,0,0,1,1.49-1.63h.13a24.81,24.81,0,0,0,5.36-.74,14,14,0,0,0,1.59-5A1.37,1.37,0,0,1,317.16,29a1.63,1.63,0,0,1,1.75,1.5,11,11,0,0,1-1.17,3.92H318c3.7,0,3.8,4,3.8,5.49,0,2.89-.13,11-6.14,11-1.85,0-4.25-.84-4.25-2.4a1.75,1.75,0,0,1,1.69-1.69,1.78,1.78,0,0,1,.68.16,4.26,4.26,0,0,0,1.82.49c2.11,0,3.08-2.27,3.08-8,0-1.33-.19-2.31-1.23-2.31a2,2,0,0,0-.59.07c-.13,0-.32.1-.52.13-2.43,4.57-5.84,9.9-7.91,13.44a2,2,0,0,1-1.69.94,1.52,1.52,0,0,1-1.66-1.37v0a2,2,0,0,1,.39-1.14c1.43-2.17,4.81-6.91,7.11-11Zm18,4.48a10.33,10.33,0,0,0-5.58-5.16,1.17,1.17,0,0,1-.88-1.11,1.51,1.51,0,0,1,1.56-1.42c1.65,0,8,4,8,7a1.73,1.73,0,0,1-1.72,1.72,1.52,1.52,0,0,1-1.4-1Z"/><path d="M347.89,53.6c-1.23,0-1.79-.71-1.79-1.46a1.58,1.58,0,0,1,1.5-1.53c5.74-.45,10.42-3.83,10.42-6.42a2.28,2.28,0,0,0-2.46-2.08h0c-2.5,0-7.11,4.09-7.6,4.67a2.36,2.36,0,0,1-1.78,1.14c-.72,0-2.7-.71-2.7-5.32a14,14,0,0,1,.59-4.22,14.74,14.74,0,0,0,.32-2.73V35.1c0-2.11,1-3.18,3.22-4.41.77-.43,1.71-.82,1.71-1.21s-.35-.51-1.23-.81a1.46,1.46,0,0,1-1.2-1.33,1.63,1.63,0,0,1,1.75-1.46c1.17,0,5.23,1.92,5.23,4.16,0,1.52-1.2,1.75-2.82,2a6.68,6.68,0,0,0-1.56.65c-2.05.94-2.4,1.78-2.4,2.79v.91a9.36,9.36,0,0,1-.1,1.3A30.74,30.74,0,0,0,346.4,42c0,.1,0,1.4.39,1.4a1,1,0,0,0,.29-.1c.65-.39,1.88-1.24,3.31-2.05a11,11,0,0,1,5.23-1.75c2.82,0,5.61,1.82,5.61,4.74,0,2.08-1.43,4.58-4.87,6.82C353.12,53.18,348,53.6,347.89,53.6Z"/><path d="M383.26,52.76A2.24,2.24,0,0,1,381,50.61a2.36,2.36,0,0,1,2.24-2.24,2.09,2.09,0,0,1,2.24,1.93,1.61,1.61,0,0,1,0,.31,2.16,2.16,0,0,1-2.17,2.15Zm-1.39-8.25v-.68c0-3.15-.33-10.71-.52-15.81v-.09a1.76,1.76,0,0,1,1.73-1.79h.15a1.84,1.84,0,0,1,1.95,1.73V28c0,3.83-.52,12.76-.52,15.91,0,.78,0,2.14-1.43,2.14a1.41,1.41,0,0,1-1.37-1.43.38.38,0,0,0,0-.1Z"/><path class="cls-2" d="M45.51,59.84a.34.34,0,0,0-.28,0h-.1l-.28-.06h-.31a.49.49,0,0,0,0-.17h-.2c-.07,0-.19-.26-.43-.24l-.36.11c-.1,0-.08.24-.36.12a.49.49,0,0,0-.24,0h0l-.3-.1a.31.31,0,0,0-.24-.16h-.12a2.73,2.73,0,0,0-1-.4H41c-.43-.08-.83-.08-1.21-.18-.11,0-.13-.09-.21-.12a1,1,0,0,0-.3,0c-.33-.13-.57-.39-.72-.2s-.14-.11-.11-.11c-.89-.17-1.6.18-2.29,0-.1,0-.09-.06-.11-.1-.19-.19-.48-.14-.72-.2s-.08.11-.16.15-.37,0-.35.11,0,0-.07.07a.76.76,0,0,0-.07.59c0,.2.2.18.25.29s0,.13.13.19,0,.16,0,.18.28,0,.24.21h.08c.08.2.16.39.25.59h.47a14.83,14.83,0,0,1,1.87.29c.16,0,.33.14.51.18,1,.19,2,.34,3,.46h.68c.48.07,1.52.46,1.67.25,0,0,.15.11.12.11h.77a.34.34,0,0,1,.2,0s.15.11.12.1a.25.25,0,0,0,.17,0c.19-.59.37-1.19.58-1.79Z"/><path class="cls-2" d="M59.35,49.93c-.1-.08-.07.08-.09.13l-.56-.41a1.7,1.7,0,0,1-.45,0,.93.93,0,0,0-.46-.18c-.29,0,0-.33-.34-.34a.14.14,0,0,0-.09,0h0c-.09,0-.11.12-.2.11s-.12-.07-.18-.09a1.75,1.75,0,0,1-.32-.12,3.39,3.39,0,0,0-.67-.31c-.11-.16-.16-.34-.45-.39s-.18.06-.28,0a.38.38,0,0,1-.15,0,.39.39,0,0,0-.1-.08h-.07l-.14-.11c-.13-.09-.2-.1-.27-.08L54.44,48l-.25-.13h0l-.29-.13v-.16s-.12,0-.18-.08-.12-.29-.35-.34a.93.93,0,0,0-.38,0c-.12,0-.15.21-.37,0a.94.94,0,0,0-.23-.1h0a2.11,2.11,0,0,1-.27-.18c0-.08,0-.16-.18-.2l-.12-.06a3.42,3.42,0,0,0-.86-.65l-.34-.07c-.39-.18-.77-.29-1.12-.49-.09,0-.1-.12-.18-.17s-.19-.06-.27-.12c-.29-.21-.45-.52-.64-.37s-.11-.15-.09-.14c-.8-.39-1.58-.25-2.2-.61-.1,0-.07-.08-.08-.13-.13-.23-.43-.26-.64-.38s-.11.09-.2.11-.34-.13-.36,0,0,0-.09,0a.8.8,0,0,0-.22.55c0,.21.14.22.17.35s0,.13.08.22,0,.15,0,.18.26.11.17.27H45a3.69,3.69,0,0,0,.1.64l.44.16a12.22,12.22,0,0,1,1.74.76c.14.09.28.21.44.3.88.42,1.86.86,2.73,1.21.26.1.41.09.65.19.44.2,1.35.84,1.55.68,0,0,.11.14.08.14.21.08.45.13.65.19h.09a.61.61,0,0,1,.18.09s.12.14.09.13c.13.07.19,0,.28,0,.64.27,1.23.54,1.82.81l.18.08a1.39,1.39,0,0,0,.28.12c.26.19.12-.26.46,0s.38.43.81.53h.34a3.37,3.37,0,0,0,.38.28h0c.4-.54.82-1.08,1.25-1.62A.22.22,0,0,0,59.35,49.93Z"/><path class="cls-2" d="M54.13,67c-.17,0-.29.1-.39.1s-.1.08-.14.08a1.62,1.62,0,0,0-.27-.06c-.11,0-.2.07-.39.1-.46,0-1,.06-1.48.06a3.75,3.75,0,0,1-.67,0c-.29,0-.46.12-.67.11s-.52-.2-.81-.13a.72.72,0,0,1-.66.19c-.41.09-.18-.28-.69-.13-.16,0-.07.15-.12.17a2.66,2.66,0,0,1-.4,0c-.73.11-2,0-2.82.13-.52,0-.2.38-.79.29-.27.06-.26-.14-.41-.15a38.68,38.68,0,0,0-3.89.17,7.48,7.48,0,0,0-1.34.06h-.54c-.17,0-.52-.34-.67-.21a2.09,2.09,0,0,0-1.21-.13,3.6,3.6,0,0,0-.4.28c-.06,0,0,.55-.11.58S34.88,68,35.1,68s.15-.07.13-.17c-.56-.07-.51.19-.93.21-.21,0-.11-.21-.41-.15s-.1.1-.12.15a5.76,5.76,0,0,1-.82-.11c-.22.07-.44.13-.67.18a1.83,1.83,0,0,0-.66,0c-.43.12-.12-.28-.54-.15h-.15c-.12,0-.14.16-.26.18h-.74a5.57,5.57,0,0,0-1,0,.76.76,0,0,0-.68-.13c-.27,0-.25.14-.4.18a.74.74,0,0,1-.21,0h-.46a.65.65,0,0,0-.39,0,.33.33,0,0,1-.14,0h-.81V68h-.27c-.29,0-.19-.2-.54-.14l-.53.19c-.15.06-.19.26-.52.19a1.93,1.93,0,0,0-.34,0h-.46c-.06-.06-.09-.12-.29-.1h-.18A4.32,4.32,0,0,0,21.42,68a4,4,0,0,0-.5.09c-.57,0-1.13.09-1.65.08-.14,0-.16-.07-.27-.08h-.41c-.42,0-.69-.25-.94,0-.07.06-.17-.08-.14-.08-1.2,0-2.28.51-3.2.47-.14,0-.09,0-.14-.08s-.63,0-.95,0c-.15,0-.13.13-.26.18s-.52,0-.53.19-.08,0-.13.09a.75.75,0,0,0-.24.61c0,.17.23.12.28.24s0,.1.15.15,0,.15,0,.17.39,0,.28.16h.1c.08.19.14.36.22.54l.64-.06c.82-.06,1.7-.13,2.55-.11a2.58,2.58,0,0,0,.68,0c1.29,0,2.72-.08,4-.17.37,0,.57-.11.93-.13.65,0,2,.15,2.28-.1.06,0,.17.08.14.08l1-.12h.39s.18.08.13.08c.2,0,.29-.1.41-.11.94,0,1.8-.07,2.67-.11a1.22,1.22,0,0,0,.27,0h.41c.41,0,.14-.31.66-.21.55-.06.59.22,1.21.11a4,4,0,0,0,.5-.11,3.43,3.43,0,0,0,.56.07,11.15,11.15,0,0,0,1.62-.07c.38-.07.37-.14.53,0a1.22,1.22,0,0,0,.27,0h0a2.09,2.09,0,0,0-.08-.23,9.26,9.26,0,0,0,1.68-.1c.54-.1.1-.29.53-.19.17,0,.09.14.14.16a2.67,2.67,0,0,0,.4,0,13.33,13.33,0,0,0,2-.09c.36,0,.6-.18.93-.21a2.61,2.61,0,0,1,1.21.11c-.12-.26.43-.17.52-.18a13.33,13.33,0,0,1,2-.09c.1,0,0,.17.15.16s.09-.17.12-.18h.4a6.13,6.13,0,0,1,1.48-.07c1.47,0,3.23-.24,4.15-.18,0-.11.17,0,.27-.1a.83.83,0,0,1,.26-.17A4.47,4.47,0,0,0,53,68.5a4.92,4.92,0,0,0,.94,0,1.71,1.71,0,0,0,.32,0c0-.52.06-1,.1-1.58Z"/><path class="cls-2" d="M44,51h-.44c-.11,0-.13,0-.17,0a.55.55,0,0,0-.24-.15,2,2,0,0,0-.43,0c-.47-.12-1-.3-1.5-.47a3.93,3.93,0,0,1-.66-.3c-.29-.09-.5,0-.71-.12s-.45-.39-.76-.43a.81.81,0,0,1-.74,0c-.43-.07-.07-.35-.63-.39-.15-.09-.12.12-.19.13a1.87,1.87,0,0,1-.4-.13c-.77-.16-2-.7-2.86-.9-.51-.23-.35.31-.91,0-.29,0-.21-.23-.36-.3-.91-.45-3-.9-3.94-1.24a8.22,8.22,0,0,0-1.36-.42,2.81,2.81,0,0,1-.56-.18c-.18,0-.4-.53-.6-.45A2.13,2.13,0,0,0,25.41,45a2.85,2.85,0,0,0-.5.14c-.07,0-.23.54-.32.53s-.22-.59,0-.53.18,0,.2-.13c-.55-.27-.59,0-1-.13-.22-.08,0-.26-.36-.3-.13-.09-.13.06-.18.1-.28-.12-.49-.25-.78-.4s-.49,0-.73-.06a2,2,0,0,0-.68-.19c-.47,0,0-.32-.49-.34h-.13c-.14,0-.19.11-.32.08s-.18-.07-.27-.08l-.5-.13a6.93,6.93,0,0,0-1-.34.75.75,0,0,0-.63-.38c-.26-.12-.3,0-.46,0H17l-.13-.08h-.12c-.1,0-.16-.09-.21-.1a.63.63,0,0,0-.4-.1L16,42.42l-.37-.13h0l-.43-.14s.09-.13.06-.15L15,41.92c-.27-.14-.12-.28-.49-.35h-.6c-.2,0-.28.2-.59,0a1.42,1.42,0,0,0-.35-.11h-.06a2.64,2.64,0,0,1-.38-.18.27.27,0,0,0-.25-.2L12.08,41a4.4,4.4,0,0,0-1.23-.65c-.12,0-.31-.06-.53-.08-.58-.2-1.17-.32-1.68-.53-.15,0-.14-.12-.24-.17s-.3-.06-.42-.12c-.4-.2-.6-.51-.92-.38-.1,0-.14-.15-.12-.14-1.21-.4-2.47-.31-3.38-.69-.15,0-.07-.07-.1-.12-.15-.23-.62-.26-.93-.39s-.2.08-.33.09c-.29,0-.54-.14-.6,0s-.09,0-.15,0a.8.8,0,0,0-.48.52c0,.19.19.21.2.34s0,.11.08.21-.09.13-.06.17.4.12.22.25h.11v.62l.67.16a26.68,26.68,0,0,1,2.6.91c.22.09.41.21.66.3,1.31.45,2.76.9,4.09,1.28.38.11.62.1,1,.21.66.21,2,.86,2.32.72.08,0,.15.14.12.13.3.09.68.15,1,.22h.12a.79.79,0,0,1,.27.1s.16.14.1.12a1,1,0,0,0,.45,0c1,.28,1.84.57,2.72.85a.92.92,0,0,0,.27.08h0l.4.13c.4.19.26-.24.74,0s.52.44,1.18.56a1.66,1.66,0,0,1,.53.06,3.45,3.45,0,0,0,.54.28c.56.2,1.26.41,1.64.51s.42,0,.55.18l.27.08h0v-.25c.59.17,1.17.36,1.72.51s.2-.26.6,0c.18,0,0,.17.08.2a2.83,2.83,0,0,0,.41.14,12.15,12.15,0,0,0,2.05.63,6,6,0,0,1,1,.14,2.89,2.89,0,0,1,1.18.54c0-.3.49,0,.59,0a13.51,13.51,0,0,1,2,.64c.08.07-.1.16.09.21,0,0,.15-.13.19-.12a1.87,1.87,0,0,1,.4.13,6.06,6.06,0,0,1,1.5.46c1.48.53,3.33.93,4.23,1.32,0-.11.18,0,.3,0a2.14,2.14,0,0,0,.32-.08c.39.44,1.19.52,1.86.77.31.11.6.27.93.38a8.59,8.59,0,0,0,.92.21c.27-.49.55-1,.83-1.47Z"/><path class="cls-2" d="M52.15,37.13c-.17-.1-.31-.11-.4-.18s-.14,0-.18,0-.09-.16-.18-.23-.22-.06-.4-.16c-.41-.26-.85-.59-1.29-.9a4.1,4.1,0,0,1-.53-.49c-.25-.17-.47-.18-.64-.33s-.31-.5-.6-.63a.79.79,0,0,1-.69-.27c-.4-.19,0-.35-.49-.56-.11-.13-.15.08-.21.07a1.48,1.48,0,0,1-.35-.25c-.68-.38-1.72-1.27-2.46-1.71-.41-.38-.42.19-.87-.27-.26-.12-.12-.28-.24-.39-.74-.71-2.56-1.75-3.4-2.37a9.45,9.45,0,0,0-1.17-.82c-.17-.07-.31-.24-.47-.32s-.22-.63-.44-.61a2.21,2.21,0,0,0-.94-.9h-.51c-.08,0-.39.45-.47.42s0-.64.18-.51.18,0,.23-.06c-.44-.43-.57-.17-.93-.43-.18-.14,0-.25-.24-.39s-.16,0-.21.05c-.23-.21-.39-.4-.63-.63A5.58,5.58,0,0,1,33,24a1.93,1.93,0,0,0-.59-.38c-.44-.18.07-.31-.37-.47l-.11-.08h0c-.12-.05-.21,0-.33,0s-.15-.12-.23-.16-.3-.18-.44-.28A5.78,5.78,0,0,0,30,22a.74.74,0,0,0-.48-.55c-.22-.2-.31-.05-.46-.11a.78.78,0,0,1-.21-.09l-.1-.12h-.11L28.5,21a.8.8,0,0,0-.35-.22.29.29,0,0,1-.11-.11c-.1-.09-.2-.15-.3-.23h0l-.42-.4s.13-.1.1-.13-.17-.1-.24-.16c-.22-.21,0-.3-.36-.47a5.58,5.58,0,0,0-.58-.18c-.16,0-.33.1-.56-.18a1.21,1.21,0,0,0-.3-.2l-.05-.05a2.13,2.13,0,0,1-.31-.29.27.27,0,0,0-.18-.26L24.69,18a4.31,4.31,0,0,0-1-1,4.44,4.44,0,0,0-.49-.24c-.48-.36-1-.65-1.44-1-.12-.1-.09-.16-.18-.24s-.25-.16-.35-.25c-.33-.31-.43-.66-.77-.64-.1,0-.1-.17-.07-.16-1-.75-2.26-1-3-1.67-.14-.06,0-.1-.07-.15-.07-.26-.51-.43-.77-.65s-.21,0-.34,0-.47-.3-.57-.18-.09,0-.16,0a.77.77,0,0,0-.6.36c-.09.17.11.26.08.38s-.05.11,0,.23-.12.1-.1.14.34.24.13.31l.1.06c-.06.2-.12.39-.17.59l.58.36a24.72,24.72,0,0,1,2.23,1.56c.18.15.33.32.54.48,1.11.82,2.36,1.69,3.51,2.45.33.22.56.29.88.49.56.4,1.6,1.42,2,1.39.08,0,.09.18.07.16.26.17.61.35.88.51l.1.07h0a.76.76,0,0,1,.23.17s.11.19.07.16c.17.13.3.11.41.17.83.57,1.57,1.1,2.33,1.63a.81.81,0,0,0,.24.17h0c.12.08.24.16.35.25.33.3.32-.16.69.25s.36.58,1,.89l.5.22a2.78,2.78,0,0,0,.42.42c.48.37,1.07.78,1.41,1s.41.12.47.33a1.88,1.88,0,0,0,.23.16h0a.88.88,0,0,1,.07-.23c.51.33,1,.69,1.49,1,.32.36.26-.18.57.18.17.07,0,.17,0,.23s.29.18.36.25a11.76,11.76,0,0,0,1.76,1.22c.33.19.62.23.91.43a2.79,2.79,0,0,1,1,.87c.07-.29.47.13.57.18a16.33,16.33,0,0,1,1.76,1.23c0,.1-.15.12,0,.23s.19-.08.22-.06.24.18.35.24a5.75,5.75,0,0,1,1.29.9c1.25.95,2.89,1.89,3.63,2.53.06-.1.18.06.29.09a1.29,1.29,0,0,0,.34,0c.23.53,1,.86,1.54,1.29.26.2.48.44.76.64s.55.32.82.48L53,37.68C52.7,37.48,52.4,37.28,52.15,37.13Z"/><path class="cls-2" d="M36.17,40.26c-.05,0,0-.09,0-.11a2.42,2.42,0,0,0-1-.56.17.17,0,0,0-.14,0,.11.11,0,0,0-.07-.1h-.55a.21.21,0,0,0-.16-.08h0L34,39.33a1.54,1.54,0,0,1-.19-.17c-.12,0-.24,0-.32,0s-.12-.3-.25-.3-.2.16-.34,0l-.12.1h0c0-.14-.24-.16-.36-.23s-.11,0-.17,0-.21-.09-.26,0-.05,0-.08,0a.59.59,0,0,0-.28.32c0,.11.05.13,0,.21s0,.07,0,.13-.06.09-.05.11.16.07.06.15h0a.67.67,0,0,1-.08.38l.27.1a1.27,1.27,0,0,1,.32.13.37.37,0,0,0,0,.22h0a1,1,0,0,0,.17.1,2.63,2.63,0,0,0,.93.43s.1.07.11,0,.07,0,.22.11a2.63,2.63,0,0,0,.66.3,3.53,3.53,0,0,0,.46,0,2.18,2.18,0,0,1,.77.36s.14,0,.17.07-.11.19,0,.18c.2.14.16-.06.35,0,.37.06.72.41,1.11.51.11,0,.15.1.08.23l.23.11c.17.2.25-.09.4,0a22.53,22.53,0,0,1,2.16,1c0-.09.07-.17.1-.26h.06s.11-.14.17-.11.16-.15.23-.18.15.08.18-.1c.19-.27-.11-.28.14-.58a.54.54,0,0,1,.09-.34c.09-.15-.12-.12,0-.27-.23-.07-.36-.23-.55-.26a1,1,0,0,0-.33.06.47.47,0,0,0-.24-.24s-.12-.1-.17-.08,0,.13-.12.13l-.34-.16h0c-.26-.14-.52-.26-.78-.38,0-.08-.09-.15-.13-.22s-.15,0-.27,0c-.35-.17-.72-.33-1.12-.5h0a.15.15,0,0,0-.14-.07h0c-.08-.09-.14,0-.21.07a1.19,1.19,0,0,0-.26-.11Z"/><path class="cls-2" d="M54.9,28.09c0-.12-.1.05-.13.08-.12-.2-.24-.4-.34-.61a1.87,1.87,0,0,1-.39-.22A1.1,1.1,0,0,0,53.7,27c-.26-.14.09-.31-.17-.45a.27.27,0,0,0-.07-.08h0c-.08,0-.16.06-.22,0a1,1,0,0,0-.13-.16,3,3,0,0,1-.25-.25,2.8,2.8,0,0,0-.47-.56.57.57,0,0,0-.24-.55c-.24-.18-.19,0-.28-.06a.57.57,0,0,1-.13-.08.37.37,0,0,0-.05-.11h-.07a.8.8,0,0,1-.08-.16c-.08-.14-.14-.18-.21-.19v-.1a1.84,1.84,0,0,0-.17-.22h0L51,23.79s.09-.11.08-.14-.09-.09-.13-.15,0-.31-.17-.45l-.35-.15c-.11,0-.23.13-.35-.14a.93.93,0,0,0-.16-.18v0a1,1,0,0,1-.17-.27.31.31,0,0,0-.09-.26.44.44,0,0,0-.08-.11,2.82,2.82,0,0,0-.51-.95,1.86,1.86,0,0,0-.28-.21c-.27-.33-.57-.59-.8-.91-.06-.09,0-.15-.08-.23a1,1,0,0,1-.21-.24c-.17-.3-.18-.65-.42-.6-.06,0,0-.18,0-.16-.56-.7-1.33-.9-1.74-1.48-.08-.06,0-.1,0-.16,0-.26-.27-.41-.42-.61s-.14,0-.22,0-.25-.26-.33-.13,0,0-.11,0a.75.75,0,0,0-.43.41c-.09.19,0,.26,0,.38a.49.49,0,0,0,0,.24s-.09.11-.09.16.2.2,0,.31l0,.05c0,.22-.12.42-.18.63l.34.33a12.19,12.19,0,0,1,1.25,1.43c.09.14.16.31.27.45.62.76,1.33,1.57,2,2.25.18.2.33.26.5.45.33.37.87,1.33,1.12,1.27.06,0,0,.18,0,.16.16.16.35.31.51.46v.06h0a.57.57,0,0,1,.12.15v.16s.18.08.25.15c.46.51.88,1,1.31,1.49a.48.48,0,0,0,.12.16c.07.07.13.15.2.23.16.27.23-.19.41.21s.16.56.51.82a1.87,1.87,0,0,0,.29.2,3.23,3.23,0,0,0,.22.41h0c.59-.32,1.2-.63,1.81-.94A.22.22,0,0,0,54.9,28.09Z"/><path class="cls-2" d="M38,9.53v-.1a2.32,2.32,0,0,0-.67-.94.17.17,0,0,0-.12-.05V8.32l-.4-.22a.22.22,0,0,1-.09-.1.19.19,0,0,0-.12-.14h0l-.17-.17c-.06-.06-.06-.18-.1-.23s-.22-.09-.26-.18,0-.32-.1-.38-.25.06-.32-.11h-.16c0-.15-.16-.25-.24-.37s-.11,0-.17,0-.16-.17-.24-.1,0,0-.08,0a.59.59,0,0,0-.4.16c-.09.09,0,.15,0,.21s-.06,0-.06.12-.08,0-.08.07.11.13,0,.17h0s-.15.2-.22.32l.2.2.23.25V8l.12.16a2.49,2.49,0,0,0,.6.84s.06.1.08.1.06,0,.15.18a2.54,2.54,0,0,0,.47.56c.11.1.29.13.4.22a2.18,2.18,0,0,1,.56.65s.11.09.11.14-.18.12-.09.15c.12.21.16,0,.32.13s.47.67.79.93c.09.07.1.15,0,.24l.16.19c.07.26.26,0,.36.18.58.58,1,1.21,1.55,1.79a1.8,1.8,0,0,1,.2-.19h0s.15-.07.2,0,.2-.06.28-.06.1.13.21,0c.28-.17,0-.3.36-.47.08-.09.08-.17.23-.27s0-.16.11-.25c-.18-.16-.23-.36-.39-.46a.9.9,0,0,0-.33-.09.52.52,0,0,0-.11-.32s-.08-.14-.12-.14-.09.11-.16.07L40.2,12v-.06c-.18-.23-.37-.44-.55-.66V11c-.06-.15-.15,0-.26-.08l-.8-.92h0a.12.12,0,0,0-.1-.12h0c0-.12-.15,0-.23,0A.93.93,0,0,0,38,9.56Z"/><path class="cls-2" d="M21.28,58h.33a1.18,1.18,0,0,0,.11.19h.19a2.85,2.85,0,0,0,1,.18h.36a2.85,2.85,0,0,0,.71.12l.45-.09a2.39,2.39,0,0,1,.84.14h.18s0,.22,0,.19.14-.1.33-.12c.37,0,.8.21,1.2.21.12,0,.18,0,.14.2h.25c.21.16.21-.14.38-.1.81.07,1.58.26,2.34.38a1.31,1.31,0,0,0,0-.28h.06c.05,0,.07-.15.14-.14s.12-.18.17-.23.16,0,.15-.15-.17-.24,0-.6c0-.12-.06-.17,0-.35s-.15-.09-.08-.26c-.24,0-.41-.12-.6-.1a.87.87,0,0,0-.31.14.46.46,0,0,0-.29-.17s-.14-.06-.18,0,0,.14-.08.15l-.37-.06h-.06l-.85-.16a1.07,1.07,0,0,0-.19-.18c-.14-.08-.14.07-.25.1H26.22a.22.22,0,0,0-.16,0h0c-.11-.06-.13.08-.19.13a.66.66,0,0,0-.28,0h0c-.06,0,0-.08-.05-.09a2.31,2.31,0,0,0-1.12-.29h-.13a.39.39,0,0,0-.1-.08,3.13,3.13,0,0,1-.44.1h-.1a.19.19,0,0,0-.18,0H23.3a1,1,0,0,0-.24,0l-.23-.11c-.12,0-.22.07-.31,0s-.19-.27-.33-.23-.15.2-.32.11l-.09.13h0c-.07-.12-.27-.09-.41-.13s-.09.07-.14.09-.23,0-.26.08,0,0-.07,0a.58.58,0,0,0-.19.39c0,.12.08.12.09.19a.56.56,0,0,1,0,.13v.11s.17,0,.1.13h0V58Z"/><path class="cls-2" d="M444.48,54.79a.37.37,0,0,1,.29,0h.1l.28-.06h0l.31,0a.43.43,0,0,1,0-.16h.2c.22-.09.19-.25.43-.24l.36.12c.1,0,.08.24.36.12a.49.49,0,0,1,.24,0h.05a1.82,1.82,0,0,0,.3-.11.3.3,0,0,1,.24-.15h.12a3.06,3.06,0,0,1,1-.39h.34c.43-.08.83-.08,1.21-.18.11,0,.13-.09.21-.12a1,1,0,0,1,.3,0c.33-.12.57-.38.72-.19s.14-.12.11-.11c.89-.17,1.6.17,2.29,0,.1,0,.09-.06.11-.1.19-.19.48-.14.72-.21s.08.12.16.16.37,0,.35.11,0,0,.07.07a.76.76,0,0,1,.07.59c-.05.2-.2.18-.25.29s0,.13-.13.19,0,.15,0,.18-.28,0-.24.21h-.08c-.08.2-.16.39-.25.59H454a14.83,14.83,0,0,0-1.87.29c-.16,0-.33.14-.51.18-1,.18-2,.34-2.95.45H448c-.48.08-1.52.47-1.67.26,0,0-.15.11-.12.11h-1s-.15.12-.12.11a.25.25,0,0,1-.17,0c-.19-.59-.37-1.19-.58-1.79Z"/><path class="cls-2" d="M430.65,44.89c.1-.09.07.08.09.12l.56-.41a1.7,1.7,0,0,0,.45,0,.93.93,0,0,1,.46-.18c.29,0,.05-.33.34-.34h.09c.09,0,.11.12.2.1S433,44,433,44l.33-.12a3.35,3.35,0,0,1,.66-.32c.11-.15.16-.33.45-.39s.18.07.28.06a.38.38,0,0,0,.15,0l.1-.07H435l.14-.11a.33.33,0,0,1,.27-.09l.09-.07.25-.12h0l.29-.13v-.16s.12,0,.18-.08.12-.29.35-.34H437c.11,0,.15.21.37,0a.92.92,0,0,1,.23-.09h0a2.11,2.11,0,0,0,.27-.18.28.28,0,0,1,.18-.2l.12-.07a3,3,0,0,1,.86-.64l.34-.07c.39-.19.77-.29,1.12-.49.09,0,.1-.12.18-.17s.19-.06.27-.13c.29-.2.45-.51.64-.37s.11-.15.09-.13c.8-.4,1.58-.25,2.2-.61.1,0,.06-.08.08-.13.13-.23.43-.26.64-.38s.11.09.2.1.33-.13.36,0,0,0,.09,0a.8.8,0,0,1,.22.55c0,.21-.14.22-.16.35s0,.13-.09.22,0,.14,0,.18-.26.11-.17.26H445a3.41,3.41,0,0,1-.1.64l-.44.16a12.27,12.27,0,0,0-1.74.77c-.14.08-.28.21-.44.3-.88.42-1.86.85-2.73,1.2-.26.1-.41.09-.65.19-.44.2-1.35.85-1.54.69s-.12.14-.09.14c-.21.07-.45.12-.65.19h-.09a.51.51,0,0,0-.18.09s-.12.14-.09.13c-.13.07-.19,0-.28,0-.64.26-1.23.54-1.82.8a.66.66,0,0,1-.19.09l-.27.12c-.26.19-.12-.26-.46,0s-.38.44-.8.54h-.35a3.28,3.28,0,0,1-.38.27h0c-.4-.55-.82-1.08-1.25-1.62A.17.17,0,0,1,430.65,44.89Z"/><path class="cls-2" d="M435.87,61.92c.17,0,.29.11.39.11s.1.08.14.08a1.62,1.62,0,0,1,.27-.06c.11,0,.2.07.39.1.46,0,1,.05,1.48.06a3.79,3.79,0,0,0,.67-.06c.29,0,.46.13.67.12s.52-.2.81-.13a.72.72,0,0,0,.66.19c.41.09.18-.29.69-.13.16,0,.07.14.12.17a1.77,1.77,0,0,0,.4,0c.73.1,2,0,2.82.13.52-.06.21.38.79.29.27.05.26-.14.41-.15.95-.11,2.91.15,3.89.16a9.94,9.94,0,0,1,1.34.06h.54c.17,0,.52-.35.67-.21a2.09,2.09,0,0,1,1.21-.13,3.6,3.6,0,0,1,.4.28c.06,0,0,.55.11.58s.38-.46.16-.49-.15-.07-.13-.17c.56-.07.51.19.93.2.21,0,.11-.21.41-.14.15,0,.1.09.12.15a5.76,5.76,0,0,0,.82-.11c.3,0,.42.13.67.18a1.83,1.83,0,0,1,.66,0c.43.13.12-.27.54-.14h.13c.12,0,.14.15.25.18h.75a8.34,8.34,0,0,1,1,0,.73.73,0,0,1,.68-.14c.27,0,.25.15.4.19h.67a.86.86,0,0,1,.39,0h.14a2.16,2.16,0,0,1,.36,0h.42v-.16h.28c.29,0,.19-.21.54-.15.19.07.36.12.53.2s.18.26.52.19a1.93,1.93,0,0,1,.34,0h.46a.24.24,0,0,1,.29-.1h.18A2.94,2.94,0,0,1,469,63c.57,0,1.13.09,1.65.08.14,0,.16-.07.27-.08s.28,0,.41,0c.42,0,.69-.26.94,0,.07.06.17-.08.14-.08,1.2,0,2.28.5,3.2.47.14,0,.09,0,.14-.08s.63,0,.95,0c.15,0,.13.13.26.18s.52,0,.53.19.08,0,.13.08a.75.75,0,0,1,.24.61c0,.18-.24.13-.28.24s0,.11-.15.16,0,.14,0,.17-.39,0-.27.15h-.11c-.08.19-.14.36-.22.54l-.64-.06a24.17,24.17,0,0,0-2.55-.11c-.23,0-.45,0-.68,0-1.29,0-2.72-.08-4-.17-.37,0-.57-.11-.93-.13-.65,0-2,.15-2.28-.1-.07,0-.17.08-.14.08a7.74,7.74,0,0,1-.95-.13h-.39s-.18.07-.13.08c-.2,0-.29-.1-.41-.11-.94,0-1.8-.07-2.67-.12a.62.62,0,0,1-.27,0h-.4c-.41,0-.14-.3-.66-.2-.55-.06-.59.22-1.21.11a4.05,4.05,0,0,1-.5-.12,3.43,3.43,0,0,1-.56.08,11.15,11.15,0,0,1-1.62-.07c-.38-.07-.37-.14-.53,0h-.27a2.09,2.09,0,0,1,.08-.23,9.26,9.26,0,0,1-1.68-.1c-.54-.1-.1-.29-.53-.19-.17,0-.09.14-.14.16h-.4a12.13,12.13,0,0,1-2-.08,7.77,7.77,0,0,0-.93-.21,2.61,2.61,0,0,0-1.21.11c.12-.26-.43-.17-.52-.18a13.34,13.34,0,0,0-2-.1c-.1,0,0,.18-.15.16,0,0-.09-.16-.12-.17h-.4a6.13,6.13,0,0,0-1.48-.07c-1.47,0-3.23-.24-4.15-.18,0-.11-.17,0-.27-.1a.69.69,0,0,0-.26-.17,4.47,4.47,0,0,1-1.89.08h-1.26c0-.52-.06-1-.1-1.58Z"/><path class="cls-2" d="M446,45.94h.61s.14-.12.24-.15.23,0,.43,0c.47-.12,1-.3,1.5-.47a3.93,3.93,0,0,0,.66-.3c.29-.1.5,0,.71-.13a2,2,0,0,1,.76-.42.81.81,0,0,0,.74,0c.43-.07.07-.35.63-.38.15-.1.12.12.19.13a1.9,1.9,0,0,0,.4-.14c.77-.16,2-.69,2.86-.89.51-.24.35.31.91,0,.29,0,.21-.23.35-.3.92-.45,3-.89,4-1.23a9.33,9.33,0,0,1,1.36-.43,3.62,3.62,0,0,0,.56-.17c.28,0,.4-.53.6-.45a2,2,0,0,1,1.16-.57,4.07,4.07,0,0,1,.5.13c.07,0,.23.54.32.54s.22-.59,0-.54a.14.14,0,0,1-.19-.09.06.06,0,0,1,0,0c.55-.27.59,0,1-.13.22-.07,0-.25.36-.3.13-.08.13.07.18.11.28-.13.49-.26.78-.4s.47,0,.73-.06A2.23,2.23,0,0,1,469,39c.47,0,0-.31.49-.33h.13c.14,0,.19.1.32.08s.18-.07.27-.08l.5-.13a5.13,5.13,0,0,1,1-.34.72.72,0,0,1,.63-.38c.26-.13.3.05.46,0a.89.89,0,0,0,.23,0l.13-.09h.12c.1,0,.16-.09.21-.11a.7.7,0,0,1,.4-.09.35.35,0,0,0,.13-.08l.37-.12h0l.43-.13s-.09-.14-.06-.15l.28-.08c.27-.15.12-.29.49-.35h.59c.19,0,.29.2.6,0a1.4,1.4,0,0,1,.35-.1h.06a1.93,1.93,0,0,0,.38-.19.29.29,0,0,1,.25-.19l.18-.07a4.4,4.4,0,0,1,1.23-.65l.53-.09c.58-.19,1.17-.31,1.68-.52.15,0,.14-.12.25-.17s.29-.07.41-.13c.4-.2.6-.5.92-.38.1,0,.14-.14.12-.13,1.21-.4,2.47-.32,3.38-.69.14,0,.07-.07.1-.12.15-.23.62-.26.93-.39s.2.08.33.09c.29,0,.54-.15.6,0s.09,0,.15,0a.8.8,0,0,1,.48.52c0,.18-.19.21-.2.34s0,.11-.08.21.08.13,0,.17-.39.12-.21.25h-.11V35l-.67.17a25.77,25.77,0,0,0-2.58.82c-.22.08-.41.21-.66.3-1.31.45-2.76.9-4.09,1.28-.38.1-.62.1-1,.21-.66.21-2,.86-2.33.72-.08,0-.14.14-.11.13-.3.08-.68.15-1,.22H476a1.48,1.48,0,0,0-.27.1s-.15.15-.11.13a.92.92,0,0,1-.44,0c-1,.29-1.84.58-2.72.86a.92.92,0,0,1-.27.08h0l-.4.13c-.4.19-.26-.25-.74,0s-.52.44-1.18.56l-.53.06a3.45,3.45,0,0,1-.54.28c-.56.2-1.26.41-1.64.51s-.42,0-.55.17a1.43,1.43,0,0,1-.27.09h0v-.26c-.59.18-1.17.37-1.72.51s-.2-.25-.6,0c-.18,0,0,.17-.08.21a2,2,0,0,1-.41.13,12.18,12.18,0,0,1-2.05.64,6.05,6.05,0,0,0-1,.13,2.91,2.91,0,0,0-1.18.55c0-.3-.49,0-.59,0a16.23,16.23,0,0,0-2.05.64c-.08.08.1.16-.09.22.05,0-.15-.13-.18-.13s-.29.11-.41.13a6.08,6.08,0,0,0-1.5.47c-1.48.53-3.33.93-4.23,1.32,0-.11-.18,0-.3,0l-.32-.08c-.39.43-1.19.52-1.86.77-.31.11-.6.27-.93.38s-.61.13-.92.21c-.27-.49-.55-1-.83-1.47C445.35,46.11,445.69,46,446,45.94Z"/><path class="cls-2" d="M437.85,32.08c.17-.1.31-.11.4-.17s.14,0,.18,0,.09-.16.18-.23.22-.06.4-.17c.41-.25.85-.58,1.29-.9a3.43,3.43,0,0,0,.53-.48c.25-.17.47-.18.64-.33s.31-.51.6-.64a.76.76,0,0,0,.69-.26c.4-.2,0-.36.49-.56.11-.13.15.08.21.07a2.94,2.94,0,0,0,.35-.25c.68-.38,1.72-1.27,2.46-1.71.41-.38.42.18.87-.27.26-.12.12-.28.24-.4.74-.7,2.56-1.74,3.39-2.36A10.79,10.79,0,0,1,452,22.6c.17-.08.31-.24.47-.32s.22-.64.44-.62a2.08,2.08,0,0,1,.94-.89,2.17,2.17,0,0,1,.51,0c.08,0,.39.44.47.41s0-.63-.18-.5-.18,0-.23-.07c.44-.42.57-.17.92-.43.19-.13,0-.25.25-.39s.16,0,.21.05c.23-.21.39-.39.63-.62a5.58,5.58,0,0,0,.67-.28,1.93,1.93,0,0,1,.59-.38c.44-.18-.07-.31.37-.47a.21.21,0,0,1,.11-.08h0c.13-.06.21,0,.33,0s.15-.12.23-.15.3-.18.44-.28A5.78,5.78,0,0,1,460,17a.71.71,0,0,1,.48-.55c.22-.2.31,0,.46-.11a1,1,0,0,0,.21-.09l.1-.12h.11c.08-.07.13-.14.17-.17a.7.7,0,0,1,.35-.21.57.57,0,0,0,.11-.11l.3-.23h0c.12-.08.24-.18.37-.26s-.13-.1-.1-.13.17-.1.24-.16c.22-.22,0-.31.36-.48l.57-.18c.17,0,.34.11.57-.17a1.21,1.21,0,0,1,.3-.2l.05,0,.31-.29a.27.27,0,0,1,.18-.26l.15-.12a4,4,0,0,1,1-1l.49-.25c.48-.35,1-.65,1.44-1,.12-.1.09-.16.18-.24s.25-.16.35-.26c.33-.3.43-.65.77-.63.1,0,.1-.18.07-.17,1-.74,2.26-1,3-1.66.14-.06,0-.1.07-.16.07-.26.51-.43.77-.64s.21,0,.34,0,.47-.3.57-.18.09,0,.16,0a.8.8,0,0,1,.6.35c.09.18-.11.26-.08.39s.05.1,0,.22.12.1.1.15-.34.23-.13.31l-.1.06c.06.2.12.39.17.59l-.58.36a24.72,24.72,0,0,0-2.23,1.56c-.18.14-.33.32-.54.48-1.11.82-2.36,1.69-3.51,2.45-.33.21-.56.28-.88.49-.56.4-1.6,1.42-2,1.39-.08,0-.09.18-.07.16-.26.17-.61.35-.88.51l-.1.07h0a.66.66,0,0,0-.23.17s-.11.19-.07.16c-.17.12-.3.1-.41.17-.83.56-1.57,1.09-2.33,1.63a1,1,0,0,1-.24.16h0l-.35.24c-.32.31-.32-.15-.69.26s-.36.57-1,.89l-.5.21a2.44,2.44,0,0,1-.42.43c-.48.36-1.07.78-1.41,1s-.41.12-.47.32l-.23.17h0a.31.31,0,0,0-.07-.24c-.51.34-1,.7-1.49,1-.32.35-.26-.18-.57.18-.17.06,0,.17,0,.23s-.29.18-.36.24a12.61,12.61,0,0,1-1.76,1.23,8.27,8.27,0,0,0-.91.42,2.82,2.82,0,0,0-1,.88c-.07-.3-.47.13-.57.18a15.4,15.4,0,0,0-1.76,1.23c0,.09.16.12,0,.23a1,1,0,0,0-.22-.07s-.24.19-.35.25a5.75,5.75,0,0,0-1.29.9c-1.25,1-2.89,1.88-3.64,2.52,0-.09-.17.07-.28.1a1.29,1.29,0,0,1-.34,0c-.23.53-1,.85-1.54,1.29-.26.2-.48.44-.76.64s-.55.31-.82.48c-.41-.39-.82-.78-1.24-1.15A6.55,6.55,0,0,1,437.85,32.08Z"/><path class="cls-2" d="M453.83,35.21c.05,0,0-.08,0-.1a2.26,2.26,0,0,1,1-.56.17.17,0,0,1,.14,0,.61.61,0,0,1,.07-.1h.55a.15.15,0,0,1,.16-.08h.05a0,0,0,0,0,0,0l.22-.08a1.54,1.54,0,0,0,.19-.17c.12-.06.24,0,.32,0s.11-.3.25-.31.2.16.34,0l.12.09h0c0-.13.24-.15.36-.23s.11.05.17.06.21-.09.26,0,.05,0,.08,0a.65.65,0,0,1,.29.32c0,.11-.06.13,0,.21s0,.07,0,.13v.1s-.16.07-.06.16h0a2.74,2.74,0,0,0,.08.37l-.27.11a1.27,1.27,0,0,0-.32.13l-.06.21h0l-.17.1a2.63,2.63,0,0,1-.93.43s-.1.06-.11,0-.07,0-.22.11a2.8,2.8,0,0,1-.66.3,3.53,3.53,0,0,1-.46,0,2,2,0,0,0-.77.35s-.14,0-.16.08.1.19,0,.18-.16-.06-.35,0c-.37.07-.72.42-1.11.52-.11,0-.15.1-.08.22l-.23.11c-.17.21-.25-.08-.4,0a20.34,20.34,0,0,0-2.16,1c0-.09-.07-.17-.1-.26h-.06c-.05,0-.11-.13-.17-.1s-.16-.15-.23-.18-.15.08-.18-.1c-.19-.27.1-.28-.14-.59a.52.52,0,0,0-.09-.33c-.09-.15.12-.13,0-.28.23-.06.36-.22.55-.25a1,1,0,0,1,.33,0,.45.45,0,0,1,.24-.23s.12-.1.17-.08,0,.13.12.13l.34-.17h.05c.26-.14.52-.26.78-.38,0-.08.09-.15.13-.22s.15,0,.27,0c.35-.17.72-.33,1.12-.5h0a.15.15,0,0,1,.14-.07h0a.35.35,0,0,1,.21.07.85.85,0,0,1,.26-.11Z"/><path class="cls-2" d="M435.1,23.05c0-.12.1.05.13.08.13-.2.22-.39.34-.61a1.87,1.87,0,0,0,.39-.22,1.17,1.17,0,0,1,.34-.36c.26-.14-.09-.32.17-.45a.09.09,0,0,1,.07-.08h0c.08,0,.16.06.22,0s.08-.11.13-.15a3,3,0,0,0,.25-.25,3.24,3.24,0,0,1,.47-.57.56.56,0,0,1,.24-.54c.24-.18.19,0,.28-.07a.22.22,0,0,0,.13-.08.37.37,0,0,1,.05-.11h.07a1.09,1.09,0,0,0,.08-.15c.08-.15.14-.18.21-.2l.05-.1c0-.08.12-.15.17-.22h0l.21-.23s-.09-.11-.08-.14.09-.09.13-.15,0-.31.18-.46l.34-.14c.11,0,.22.13.35-.14a.93.93,0,0,1,.16-.18v-.05a1.17,1.17,0,0,0,.17-.28.32.32,0,0,1,.08-.25.31.31,0,0,1,.09-.11,2.65,2.65,0,0,1,.51-.95,1.86,1.86,0,0,1,.28-.21c.27-.33.57-.6.8-.92.06-.08,0-.15.08-.23a.91.91,0,0,0,.21-.23c.17-.3.18-.65.42-.6.06,0,0-.18,0-.16.56-.7,1.33-.9,1.74-1.48.08-.07,0-.11,0-.16,0-.26.27-.41.42-.61s.13,0,.22,0,.25-.26.33-.14.05,0,.11,0a.75.75,0,0,1,.43.41c.09.18,0,.26,0,.38a.45.45,0,0,1,0,.23.52.52,0,0,1,.09.17c0,.05-.2.2-.05.31l-.06,0,.18.62c-.11.11-.21.23-.33.34a12.19,12.19,0,0,0-1.25,1.43c-.09.13-.16.3-.27.45-.62.76-1.33,1.56-2,2.25-.18.2-.33.25-.5.45-.33.37-.87,1.33-1.12,1.27-.06,0,0,.17,0,.16-.16.16-.35.31-.51.45l-.06.07h0a.44.44,0,0,0-.12.15v.16s-.18.07-.25.15c-.46.5-.88,1-1.31,1.49a.44.44,0,0,1-.12.15c-.07.08-.13.16-.2.23-.16.28-.23-.18-.41.22s-.16.56-.51.82a1.87,1.87,0,0,1-.29.2c-.07.14-.14.28-.22.41h0c-.59-.32-1.2-.64-1.81-.94A.23.23,0,0,1,435.1,23.05Z"/><path class="cls-2" d="M452,4.49V4.38a2.29,2.29,0,0,1,.67-.93.27.27,0,0,1,.12-.06V3.27a3.17,3.17,0,0,0,.41-.21.16.16,0,0,0,.06-.08.23.23,0,0,1,.12-.15h0l.17-.17c.06-.11.06-.18.1-.23s.22-.09.26-.18,0-.32.1-.39.25.06.32-.11h.15c0-.14.16-.24.24-.36s.11,0,.17,0,.16-.17.24-.11.05,0,.08,0a.66.66,0,0,1,.4.17c.09.08,0,.14,0,.2s.06.06.06.12.08.06.08.08-.11.13,0,.17h0s.15.2.22.31l-.2.21a2.73,2.73,0,0,0-.23.25.81.81,0,0,1,0,.22h0l-.12.15a2.51,2.51,0,0,1-.66.79s-.06.1-.08.1-.06,0-.15.18a2.8,2.8,0,0,1-.47.56c-.11.1-.29.13-.4.22a2,2,0,0,0-.56.64s-.11.1-.11.14.18.13.09.16c-.12.2-.16,0-.32.12s-.47.68-.79.93c-.09.08-.1.16,0,.24l-.16.2c-.07.26-.26,0-.36.17-.58.58-1,1.21-1.54,1.79l-.21-.18h-.05s-.15-.07-.2,0-.2-.07-.28-.06-.1.13-.21,0c-.28-.17,0-.3-.36-.48-.08-.08-.08-.16-.23-.26s.05-.16-.11-.25c.18-.16.23-.36.39-.47a.94.94,0,0,1,.33-.08.52.52,0,0,1,.11-.32s.08-.14.12-.14.09.1.16.06l.24-.29h0c.18-.23.37-.44.54-.66V6c0-.09.15,0,.26-.08l.8-.93h0a.17.17,0,0,1,.1-.13h0c0-.12.15,0,.23,0a.91.91,0,0,1,.18-.21Z"/><path class="cls-2" d="M468.72,53l-.33,0c0,.06-.06.12-.11.19h-.19a2.86,2.86,0,0,1-1,.19H467a1,1,0,0,0-.24,0,2.85,2.85,0,0,1-.71.12l-.45-.09a2.18,2.18,0,0,0-.84.14h-.18s.05.21,0,.18a.7.7,0,0,0-.33-.11c-.37,0-.8.21-1.2.21-.12,0-.18,0-.14.19l-.25.05c-.21.15-.21-.14-.38-.1-.81.07-1.58.26-2.34.38v-.28h-.06s-.07-.15-.14-.15-.12-.18-.17-.22-.17,0-.15-.15.17-.24,0-.6c0-.12.06-.17,0-.35s.15-.09.08-.26c.24,0,.41-.13.6-.1a.84.84,0,0,1,.31.13.43.43,0,0,1,.29-.16s.14-.07.18,0,0,.14.08.16l.37-.07h.06l.85-.17.19-.17c.14-.08.14.06.25.1l1.2-.2h0a.15.15,0,0,1,.16,0h0c.11-.06.13.08.19.13a.65.65,0,0,1,.27-.05h0c.05,0,0-.08,0-.09a2.31,2.31,0,0,1,1.12-.29.15.15,0,0,1,.13,0l.09-.08a3.58,3.58,0,0,0,.45.09h.1a.19.19,0,0,1,.18,0h.33c.12,0,.17-.1.23-.11s.22.07.31,0,.19-.26.33-.22.15.2.32.11l.09.13h0c.07-.12.27-.09.41-.13s.09.07.15.09.22,0,.25.07,0,0,.07,0a.58.58,0,0,1,.19.39c0,.12-.08.11-.09.19a.47.47,0,0,0,0,.12v.12s-.17,0-.1.13h0V53Z"/><rect class="cls-3" width="490" height="72"/></g></g></svg>