<svg xmlns="http://www.w3.org/2000/svg" width="230" height="160" viewBox="0 0 230 160"><defs><style>.cls-1{fill:#fff;}.cls-2{fill:#bc549b;}.cls-3{fill:#666;}.cls-4{fill:none;}</style></defs><g id="レイヤー_2" data-name="レイヤー 2"><g id="text"><rect class="cls-1" x="6.32" y="46.82" width="216" height="111.68" rx="6.86"/><rect class="cls-2" x="1" y="1.5" width="228" height="36"/><path class="cls-1" d="M94.33,25.34a6.69,6.69,0,0,1-5.2-1.88l1.8-1.8a4.66,4.66,0,0,0,3.44,1.2c1.64,0,2.52-.62,2.52-1.76a1.59,1.59,0,0,0-.44-1.2,2.12,2.12,0,0,0-1.26-.5l-1.72-.24A4.83,4.83,0,0,1,90.71,18a3.76,3.76,0,0,1-1-2.8c0-2.54,1.88-4.32,5-4.32a6.1,6.1,0,0,1,4.6,1.66l-1.76,1.74a4,4,0,0,0-2.92-1c-1.48,0-2.2.82-2.2,1.8a1.37,1.37,0,0,0,.42,1,2.45,2.45,0,0,0,1.32.56l1.68.24A4.71,4.71,0,0,1,98.51,18a4,4,0,0,1,1.1,3C99.61,23.78,97.31,25.34,94.33,25.34Z"/><path class="cls-1" d="M105.29,25.22a2.83,2.83,0,0,1-3-3V17.08h-1.1v-2h1.1V12h2.6V15.1h1.84v2h-1.84v5c0,.6.28.94.9.94h.94v2.2Z"/><path class="cls-1" d="M111.11,20.82a2.15,2.15,0,0,0,2.28,2.32,2.88,2.88,0,0,0,2.36-1l1.58,1.54a5,5,0,0,1-4,1.64c-2.46,0-4.82-1.12-4.82-5.34,0-3.4,1.84-5.32,4.54-5.32,2.9,0,4.54,2.12,4.54,5v1.16Zm3.72-2.9a1.94,1.94,0,0,0-3.48,0,2.87,2.87,0,0,0-.24,1.12h4A2.87,2.87,0,0,0,114.83,17.92Z"/><path class="cls-1" d="M127.69,24.4a3.63,3.63,0,0,1-2.54.94,3.08,3.08,0,0,1-2.52-1V29H120V14.8h2.52v1a3.17,3.17,0,0,1,2.6-1.1,3.63,3.63,0,0,1,2.54.94c1,1,1.06,2.82,1.06,4.38S128.73,23.36,127.69,24.4ZM124.39,17c-1.56,0-1.76,1.28-1.76,3s.2,3,1.76,3,1.76-1.3,1.76-3S126,17,124.39,17Z"/><path class="cls-1" d="M138.71,23.2v2h-2.5v-2h-5.82V20.74L135.27,11h2.84l-4.88,9.76h3V18.08h2.5v2.66H140V23.2Z"/><path class="cls-3" d="M91.54,121.17h0v11.76a2.28,2.28,0,0,0,2.28,2.28h39.7a2.28,2.28,0,0,0,2.28-2.28V121.17H91.54Z"/><rect class="cls-3" x="96.11" y="83.24" width="35.01" height="2.34"/><polygon class="cls-3" points="96.14 90.26 96.14 90.26 96.11 90.26 96.11 92.69 131.11 92.69 131.11 90.26 96.28 90.26 96.14 90.26"/><path class="cls-3" d="M139.38,97.75V74.36H87.9V97.75H76.17v28.1H87.92v-9.36h51.44v9.36h11.75V97.75Zm-37.45,8.81A2.93,2.93,0,1,1,99,103.63,2.93,2.93,0,0,1,101.93,106.56Zm-9.37,0a2.93,2.93,0,1,1-2.92-2.93A2.93,2.93,0,0,1,92.56,106.56Zm0-9.28V79H134.7V97.28H92.58Z"/><rect class="cls-4" width="230" height="160"/></g></g></svg>