<svg xmlns="http://www.w3.org/2000/svg" width="230" height="160" viewBox="0 0 230 160"><defs><style>.cls-1{fill:#fff;}.cls-2{fill:#bc549b;}.cls-3{fill:#666;}.cls-4{fill:none;}</style></defs><g id="レイヤー_2" data-name="レイヤー 2"><g id="text"><rect class="cls-1" x="6.32" y="46.82" width="216" height="111.68" rx="6.86"/><rect class="cls-2" x="1" y="1.5" width="228" height="36"/><path class="cls-1" d="M94.33,25.34a6.69,6.69,0,0,1-5.2-1.88l1.8-1.8a4.66,4.66,0,0,0,3.44,1.2c1.64,0,2.52-.62,2.52-1.76a1.59,1.59,0,0,0-.44-1.2,2.12,2.12,0,0,0-1.26-.5l-1.72-.24A4.83,4.83,0,0,1,90.71,18a3.76,3.76,0,0,1-1-2.8c0-2.54,1.88-4.32,5-4.32a6.1,6.1,0,0,1,4.6,1.66l-1.76,1.74a4,4,0,0,0-2.92-1c-1.48,0-2.2.82-2.2,1.8a1.37,1.37,0,0,0,.42,1,2.45,2.45,0,0,0,1.32.56l1.68.24A4.71,4.71,0,0,1,98.51,18a4,4,0,0,1,1.1,3C99.61,23.78,97.31,25.34,94.33,25.34Z"/><path class="cls-1" d="M105.29,25.22a2.83,2.83,0,0,1-3-3V17.08h-1.1v-2h1.1V12h2.6V15.1h1.84v2h-1.84v5c0,.6.28.94.9.94h.94v2.2Z"/><path class="cls-1" d="M111.11,20.82a2.15,2.15,0,0,0,2.28,2.32,2.88,2.88,0,0,0,2.36-1l1.58,1.54a5,5,0,0,1-4,1.64c-2.46,0-4.82-1.12-4.82-5.34,0-3.4,1.84-5.32,4.54-5.32,2.9,0,4.54,2.12,4.54,5v1.16Zm3.72-2.9a1.94,1.94,0,0,0-3.48,0,2.87,2.87,0,0,0-.24,1.12h4A2.87,2.87,0,0,0,114.83,17.92Z"/><path class="cls-1" d="M127.69,24.4a3.63,3.63,0,0,1-2.54.94,3.08,3.08,0,0,1-2.52-1V29H120V14.8h2.52v1a3.17,3.17,0,0,1,2.6-1.1,3.63,3.63,0,0,1,2.54.94c1,1,1.06,2.82,1.06,4.38S128.73,23.36,127.69,24.4ZM124.39,17c-1.56,0-1.76,1.28-1.76,3s.2,3,1.76,3,1.76-1.3,1.76-3S126,17,124.39,17Z"/><path class="cls-1" d="M131,25.22V22.88l5.32-6.18A2.45,2.45,0,0,0,137,15a1.73,1.73,0,1,0-3.46,0H131a4,4,0,0,1,4.34-4.16A4,4,0,0,1,139.61,15a4.54,4.54,0,0,1-1.52,3.26l-4,4.62h5.5v2.34Z"/><path class="cls-3" d="M105.86,84.33a1.78,1.78,0,1,0-1.78,1.78A1.78,1.78,0,0,0,105.86,84.33Z"/><path class="cls-3" d="M138,82.55a1.78,1.78,0,1,0,1.78,1.78A1.78,1.78,0,0,0,138,82.55Z"/><path class="cls-3" d="M100.69,88.66a3.81,3.81,0,0,0-4.81,2.44l-7,15H84.42V79.35l-4.31,2.87a4.85,4.85,0,0,0-1.87,2.41l-4.6,18.49a9.61,9.61,0,0,0,.5,7.54l7.63,15a8,8,0,0,1,.55,5.85L79,142.78H96.28s3.1-18.55,4.34-23.73c1.69-7.09,2.21-11.07.57-17.14l1.94-8.45A3.8,3.8,0,0,0,100.69,88.66Z"/><path class="cls-3" d="M87.88,66.72V100.9l4.23-9.06-.09,0v-15a6.77,6.77,0,0,0,5.6-6h17.21c-3.89,2.64-6.51,7.67-6.51,13.47s2.62,10.83,6.51,13.47h-9.5l-1,4.14h49.8V66.72ZM122.59,92h-3.12V88.28h-5V85.55h5V83.73L119,83h-4.55V80.21h2.77l-2.3-3.58h3L121,81.49l3.13-4.86h3l-2.3,3.58h2.77V83h-4.55l-.49.76v1.82h5v2.73h-5V92ZM150,91.82a6.75,6.75,0,0,0-5.6,6H127.23c3.89-2.64,6.52-7.68,6.52-13.47s-2.63-10.83-6.52-13.47h17.21a6.76,6.76,0,0,0,5.6,6Z"/><rect class="cls-4" width="230" height="160"/></g></g></svg>