<svg xmlns="http://www.w3.org/2000/svg" width="230" height="160" viewBox="0 0 230 160"><defs><style>.cls-1{fill:#fff;}.cls-2{fill:#bc549b;}.cls-3{fill:#666;}.cls-4{fill:none;}</style></defs><g id="レイヤー_2" data-name="レイヤー 2"><g id="text"><rect class="cls-1" x="6.32" y="46.82" width="216" height="111.68" rx="6.86"/><rect class="cls-2" x="1" y="1.5" width="228" height="36"/><path class="cls-1" d="M94.33,25.34a6.69,6.69,0,0,1-5.2-1.88l1.8-1.8a4.66,4.66,0,0,0,3.44,1.2c1.64,0,2.52-.62,2.52-1.76a1.59,1.59,0,0,0-.44-1.2,2.12,2.12,0,0,0-1.26-.5l-1.72-.24A4.83,4.83,0,0,1,90.71,18a3.76,3.76,0,0,1-1-2.8c0-2.54,1.88-4.32,5-4.32a6.1,6.1,0,0,1,4.6,1.66l-1.76,1.74a4,4,0,0,0-2.92-1c-1.48,0-2.2.82-2.2,1.8a1.37,1.37,0,0,0,.42,1,2.45,2.45,0,0,0,1.32.56l1.68.24A4.71,4.71,0,0,1,98.51,18a4,4,0,0,1,1.1,3C99.61,23.78,97.31,25.34,94.33,25.34Z"/><path class="cls-1" d="M105.29,25.22a2.83,2.83,0,0,1-3-3V17.08h-1.1v-2h1.1V12h2.6V15.1h1.84v2h-1.84v5c0,.6.28.94.9.94h.94v2.2Z"/><path class="cls-1" d="M111.11,20.82a2.15,2.15,0,0,0,2.28,2.32,2.88,2.88,0,0,0,2.36-1l1.58,1.54a5,5,0,0,1-4,1.64c-2.46,0-4.82-1.12-4.82-5.34,0-3.4,1.84-5.32,4.54-5.32,2.9,0,4.54,2.12,4.54,5v1.16Zm3.72-2.9a1.94,1.94,0,0,0-3.48,0,2.87,2.87,0,0,0-.24,1.12h4A2.87,2.87,0,0,0,114.83,17.92Z"/><path class="cls-1" d="M127.69,24.4a3.63,3.63,0,0,1-2.54.94,3.08,3.08,0,0,1-2.52-1V29H120V14.8h2.52v1a3.17,3.17,0,0,1,2.6-1.1,3.63,3.63,0,0,1,2.54.94c1,1,1.06,2.82,1.06,4.38S128.73,23.36,127.69,24.4ZM124.39,17c-1.56,0-1.76,1.28-1.76,3s.2,3,1.76,3,1.76-1.3,1.76-3S126,17,124.39,17Z"/><path class="cls-1" d="M135.15,25.34c-2.32,0-4.5-1.22-4.54-4.2h2.6a1.93,1.93,0,0,0,3.86-.12,1.83,1.83,0,0,0-2-2h-.38V16.8h.38a1.63,1.63,0,0,0,1.8-1.78,1.75,1.75,0,1,0-3.5-.1h-2.6a4.36,4.36,0,0,1,8.7,0,3,3,0,0,1-1.64,2.92,3.4,3.4,0,0,1,1.84,3.24C139.67,23.94,137.59,25.34,135.15,25.34Z"/><rect class="cls-3" x="100.97" y="138.71" width="18.93" height="12.02"/><path class="cls-3" d="M100.41,122H99.13a.05.05,0,0,0-.06.06v1.89a.05.05,0,0,0,.06.06h1.28a1,1,0,1,0,0-2Z"/><path class="cls-3" d="M138.1,67.53H82.76a6.19,6.19,0,0,0-6.19,6.19v55.71a6.19,6.19,0,0,0,6.19,6.19H138.1a6.19,6.19,0,0,0,6.2-6.19V73.72A6.19,6.19,0,0,0,138.1,67.53ZM86,82h20.39v6.8H86Zm15.5,28V106.2h17.79V110h-7v6.67h-3.81V110Zm0-7V99.21h17.79V103Zm-1.06,22H99.13a.05.05,0,0,0-.06.06v2.31a.08.08,0,0,1-.09.09H98c-.06,0-.1,0-.1-.09v-6.32A.09.09,0,0,1,98,121h2.44a2,2,0,1,1,0,4Zm8.72,1a2.47,2.47,0,0,1-4.6,0,9.51,9.51,0,0,1,0-3.58,2.47,2.47,0,0,1,4.6,0,9.51,9.51,0,0,1,0,3.58Zm4.41,1.57a3.65,3.65,0,0,1-2.39-.86.11.11,0,0,1,0-.15l.59-.68a.1.1,0,0,1,.14,0,2.87,2.87,0,0,0,1.77.69c.77,0,1.22-.39,1.22-.93s-.29-.78-1.18-.9l-.35,0c-1.25-.17-2-.77-2-1.86a2,2,0,0,1,2.2-2,3.62,3.62,0,0,1,2.11.65.1.1,0,0,1,0,.14l-.46.71a.11.11,0,0,1-.13,0,2.71,2.71,0,0,0-1.56-.51c-.66,0-1,.36-1,.87s.31.75,1.19.88l.35,0c1.25.17,1.94.76,1.94,1.88S115.23,127.57,113.61,127.57Zm8.85-5.69a.09.09,0,0,1-.1.09h-1.7a.05.05,0,0,0-.06.06v5.34a.08.08,0,0,1-.09.09h-.94c-.06,0-.1,0-.1-.09V122s0-.06,0-.06h-1.71a.09.09,0,0,1-.09-.09v-.83a.09.09,0,0,1,.09-.09h4.65a.09.09,0,0,1,.1.09Zm12.37-33.11H114.44V82h20.39Z"/><path class="cls-3" d="M106.9,121.87a1.17,1.17,0,0,0-1.21.85,10.15,10.15,0,0,0,0,3,1.29,1.29,0,0,0,2.42,0,9.31,9.31,0,0,0,0-3A1.17,1.17,0,0,0,106.9,121.87Z"/><rect class="cls-4" width="230" height="160"/></g></g></svg>