<svg xmlns="http://www.w3.org/2000/svg" width="230" height="160" viewBox="0 0 230 160"><defs><style>.cls-1{fill:#fff;}.cls-2{fill:#bc549b;}.cls-3{fill:#666;}.cls-4{fill:none;}</style></defs><g id="レイヤー_2" data-name="レイヤー 2"><g id="text"><rect class="cls-1" x="6.32" y="46.82" width="216" height="111.68" rx="6.86"/><rect class="cls-2" x="1" y="1.5" width="228" height="36"/><path class="cls-1" d="M94.33,25.34a6.69,6.69,0,0,1-5.2-1.88l1.8-1.8a4.66,4.66,0,0,0,3.44,1.2c1.64,0,2.52-.62,2.52-1.76a1.59,1.59,0,0,0-.44-1.2,2.12,2.12,0,0,0-1.26-.5l-1.72-.24A4.83,4.83,0,0,1,90.71,18a3.76,3.76,0,0,1-1-2.8c0-2.54,1.88-4.32,5-4.32a6.1,6.1,0,0,1,4.6,1.66l-1.76,1.74a4,4,0,0,0-2.92-1c-1.48,0-2.2.82-2.2,1.8a1.37,1.37,0,0,0,.42,1,2.45,2.45,0,0,0,1.32.56l1.68.24A4.71,4.71,0,0,1,98.51,18a4,4,0,0,1,1.1,3C99.61,23.78,97.31,25.34,94.33,25.34Z"/><path class="cls-1" d="M105.29,25.22a2.83,2.83,0,0,1-3-3V17.08h-1.1v-2h1.1V12h2.6V15.1h1.84v2h-1.84v5c0,.6.28.94.9.94h.94v2.2Z"/><path class="cls-1" d="M111.11,20.82a2.15,2.15,0,0,0,2.28,2.32,2.88,2.88,0,0,0,2.36-1l1.58,1.54a5,5,0,0,1-4,1.64c-2.46,0-4.82-1.12-4.82-5.34,0-3.4,1.84-5.32,4.54-5.32,2.9,0,4.54,2.12,4.54,5v1.16Zm3.72-2.9a1.94,1.94,0,0,0-3.48,0,2.87,2.87,0,0,0-.24,1.12h4A2.87,2.87,0,0,0,114.83,17.92Z"/><path class="cls-1" d="M127.69,24.4a3.63,3.63,0,0,1-2.54.94,3.08,3.08,0,0,1-2.52-1V29H120V14.8h2.52v1a3.17,3.17,0,0,1,2.6-1.1,3.63,3.63,0,0,1,2.54.94c1,1,1.06,2.82,1.06,4.38S128.73,23.36,127.69,24.4ZM124.39,17c-1.56,0-1.76,1.28-1.76,3s.2,3,1.76,3,1.76-1.3,1.76-3S126,17,124.39,17Z"/><path class="cls-1" d="M134.73,25.22V13.78l-2.9,2.52V13.5l2.9-2.52h2.6V25.22Z"/><path class="cls-3" d="M153.79,65.91H75.45a2.75,2.75,0,0,0-2.75,2.75v54.47a2.75,2.75,0,0,0,2.75,2.75h78.34a2.75,2.75,0,0,0,2.74-2.75V68.66A2.75,2.75,0,0,0,153.79,65.91ZM78.63,112.3V72.74h72V112.3Z"/><path class="cls-3" d="M125.38,137.62a1,1,0,0,1-1-1v-6.26H104.87V137a.64.64,0,0,1-.64.63H97.38a1.16,1.16,0,0,0-1.08.76l-1.37,3.76H134.3l-1.64-4.52Z"/><rect class="cls-4" width="230" height="160"/></g></g></svg>