<svg xmlns="http://www.w3.org/2000/svg" width="368" height="424" viewBox="0 0 368 424"><defs><style>.cls-1{isolation:isolate;}.cls-2{fill:#e9e7f4;}.cls-3{fill:#fff;}.cls-4{fill:#333;}.cls-5{fill:#9489d8;}.cls-6{fill:#857db4;}.cls-12,.cls-7{fill:#b3b3b3;}.cls-8{fill:#a6afb5;}.cls-9{fill:#c7e8fa;}.cls-10{fill:#00101d;}.cls-11{fill:#231815;}.cls-12{mix-blend-mode:multiply;}.cls-13{fill:none;}</style></defs><g class="cls-1"><g id="レイヤー_2" data-name="レイヤー 2"><g id="text"><rect class="cls-2" x="1" y="43" width="366" height="380"/><rect class="cls-3" x="11" y="54" width="346" height="359" rx="9.99"/><path class="cls-4" d="M34.9,306.28a9.58,9.58,0,0,0-.1-1.74,7.88,7.88,0,0,1,.94.08c.1,0,.17.06.17.12a2,2,0,0,1-.07.25,5,5,0,0,0-.09,1.31V308c0,.8,0,1.12,0,1.19s0,.11-.1.11H35c-.1,0-.11,0-.11-.11v-.77H26.37v.81c0,.1,0,.11-.11.11H25.6c-.1,0-.12,0-.12-.11s0-.38,0-1.15v-1.68a9.79,9.79,0,0,0-.09-1.74c.35,0,.67.05.93.09.1,0,.19.05.19.12a1.91,1.91,0,0,1-.07.24,4.27,4.27,0,0,0-.1,1.26v1.25h3.7v-4.76h-3.3v.7c0,.1,0,.11-.11.11H26c-.09,0-.11,0-.11-.11s0-.41,0-1.25v-1.9a8.85,8.85,0,0,0-.1-1.75,7.69,7.69,0,0,1,.94.08c.1,0,.15.05.15.13a.72.72,0,0,1-.05.25,4.35,4.35,0,0,0-.09,1.27V302h3.3v-3.4a9.81,9.81,0,0,0-.1-1.79,8.44,8.44,0,0,1,1,.08c.1,0,.17,0,.17.11a1.22,1.22,0,0,1-.07.25,6,6,0,0,0-.08,1.34V302h3.56v-1.75a9.78,9.78,0,0,0-.1-1.75,6.25,6.25,0,0,1,.94.09c.09,0,.16.05.16.12a.8.8,0,0,1-.07.24,6.29,6.29,0,0,0-.08,1.33v1.89c0,.86,0,1.21,0,1.29s0,.11-.11.11h-.66c-.1,0-.11,0-.11-.11v-.67H31v4.76H34.9Z"/><path class="cls-4" d="M45.12,298.11c0,.1,0,.11-.12.11s-.43,0-1.44,0a12.63,12.63,0,0,1-.46,1.55h.43c.87,0,1.12,0,1.21,0s.11,0,.11.12,0,.4,0,1.32v2c0,.92,0,1.24,0,1.33s0,.11-.11.11-.34,0-1.22,0h-.16v1.63c0,.7,0,1.34,0,1.85s-.08.74-.31.93a1.66,1.66,0,0,1-1.07.21c-.27,0-.3,0-.34-.23a2.1,2.1,0,0,0-.21-.58c.32,0,.55.06.66.06.39,0,.5-.1.5-.48v-3.39h-.24c-.86,0-1.13,0-1.2,0s-.13,0-.13-.11,0-.41,0-1.33v-2c0-.92,0-1.25,0-1.32s0-.12.13-.12.32,0,1.12,0a8.87,8.87,0,0,0,.45-1.55H40.27v1.9a45.19,45.19,0,0,1-.16,4.67,9.78,9.78,0,0,1-1,3.7c-.05.11-.1.17-.14.17s-.08,0-.17-.13a1.59,1.59,0,0,0-.47-.35,9.18,9.18,0,0,0,1-3.75c.11-1.12.12-2.42.12-4.37,0-1.72,0-2.44,0-2.52s0-.11.11-.11.46,0,1.65,0h2.17c1.17,0,1.54,0,1.61,0s.12,0,.12.11Zm-3.28,7.68a1.5,1.5,0,0,0-.14.36,7.22,7.22,0,0,1-.87,1.89c-.07.11-.11.16-.17.16a.5.5,0,0,1-.2-.09,1.84,1.84,0,0,0-.43-.17A6,6,0,0,0,41,306a3,3,0,0,0,.14-.74,5.32,5.32,0,0,1,.68.16c.11.05.15.08.15.13S41.91,305.7,41.84,305.79Zm2.28-5.41H41.78v1.37h2.34Zm0,2H41.78v1.5h2.34Zm.25,3c.14,0,.17-.06.21,0a13,13,0,0,1,.73,1.76c0,.1,0,.13-.15.2l-.3.11c-.16.07-.19.06-.22-.06a7.91,7.91,0,0,0-.67-1.79c0-.08,0-.11.15-.17Zm3,2.39a1.06,1.06,0,0,0-.31.23,9.47,9.47,0,0,1-2.13,1.41.43.43,0,0,1-.21.09c-.07,0-.11-.07-.21-.23a1.61,1.61,0,0,0-.35-.38,7,7,0,0,0,2.29-1.37,2.73,2.73,0,0,0,.36-.46,4.4,4.4,0,0,1,.56.39c.1.09.14.11.14.18S47.47,307.69,47.37,307.73Zm3.89-9.61c0,.1,0,.12-.11.12s-.47,0-1.71,0h-.91c-.18.5-.35,1-.53,1.39h.91c1.09,0,1.46,0,1.53,0s.11,0,.11.11,0,.5,0,1.67v3.58c0,1.14,0,1.57,0,1.64s0,.13-.11.13-.44,0-1.53,0H47.43c-1.1,0-1.46,0-1.53,0s-.13,0-.13-.13,0-.5,0-1.64v-3.57c0-1.18,0-1.6,0-1.68s0-.11.13-.11.39,0,1.29,0c.19-.47.36-.92.52-1.39H47.3c-1.23,0-1.62,0-1.71,0s-.1,0-.1-.12v-.57c0-.1,0-.11.1-.11s.48,0,1.71,0h2.14c1.24,0,1.64,0,1.71,0s.11,0,.11.11Zm-1.51,2.18H46.59v1.4h3.16Zm0,2.07H46.59v1.4h3.16Zm0,2.06H46.59V306h3.16Zm-.63,2.76c.14-.11.17-.1.24,0a7.22,7.22,0,0,0,2.28,1.52,1.92,1.92,0,0,0-.36.42c-.09.14-.13.2-.18.2a.53.53,0,0,1-.2-.08,10.4,10.4,0,0,1-2.13-1.57c-.07-.09-.07-.12.1-.24Z"/><path class="cls-4" d="M55,302.8l2-2c.33-.34.53-.45.82-.45a1.22,1.22,0,0,1,.86.38,53.13,53.13,0,0,0,6.43,4.59.18.18,0,0,1,.08.27,4.76,4.76,0,0,1-.43.7.15.15,0,0,1-.25,0c-2.23-1.53-4.37-3.12-6.35-4.76a.47.47,0,0,0-.28-.16.35.35,0,0,0-.27.13c-.63.63-1.4,1.44-2.35,2.46a4.72,4.72,0,0,0-.6.76.2.2,0,0,1-.32.06,6.58,6.58,0,0,1-.82-.75A9.71,9.71,0,0,0,55,302.8Zm9.2-2.87a1.42,1.42,0,1,1-1.41-1.41A1.41,1.41,0,0,1,64.17,299.93Zm-2.3,0a.89.89,0,1,0,.89-.88A.88.88,0,0,0,61.87,299.93Z"/><path class="cls-4" d="M70.55,303.71a11.36,11.36,0,0,0-1.89.14.22.22,0,0,1-.24-.19,8,8,0,0,1-.14-1.07,24,24,0,0,0,3.1.13h4.3c1,0,2,0,3.06,0,.17,0,.21,0,.21.17a4.33,4.33,0,0,1,0,.72c0,.16,0,.19-.21.17-1,0-2.08,0-3,0Z"/><path class="cls-4" d="M83.13,301.51a.19.19,0,0,1,.24-.09,10.87,10.87,0,0,1,2.47,1.27c.14.1.12.18.07.3a4.6,4.6,0,0,1-.37.6c-.08.11-.15.12-.26,0a9.69,9.69,0,0,0-2.58-1.42C82.88,301.93,83,301.65,83.13,301.51Zm2.18,5.37a25.78,25.78,0,0,0,3.85-2.41,24.73,24.73,0,0,0,4-3.88,3.43,3.43,0,0,0,.27.91.31.31,0,0,1-.07.38,23.61,23.61,0,0,1-3.7,3.43,33.28,33.28,0,0,1-4.09,2.62,2.47,2.47,0,0,0-.67.48c-.13.12-.27.09-.4-.05a9.59,9.59,0,0,1-.66-.93A6.28,6.28,0,0,0,85.31,306.88Zm-.52-8.56c.08-.13.12-.13.25-.07a11.43,11.43,0,0,1,2.44,1.46c.12.1.11.15,0,.28a4.23,4.23,0,0,1-.41.6c-.08.1-.14.07-.25,0A9.21,9.21,0,0,0,84.35,299Zm6.09-.6a.11.11,0,0,1,.15,0,6.76,6.76,0,0,1,1.59,1.69.11.11,0,0,1,0,.16l-.41.33c-.07.06-.14.05-.18,0a6,6,0,0,0-1.62-1.8Zm1.18-.93a.11.11,0,0,1,.15,0,8,8,0,0,1,1.6,1.64c0,.07,0,.11,0,.17l-.38.33c-.06.06-.11.06-.17,0a6.59,6.59,0,0,0-1.61-1.76Z"/><path class="cls-4" d="M99.07,298.39c.14.08.19.14.19.23a.42.42,0,0,1-.09.23,2,2,0,0,0-.29.75,23,23,0,0,0-.65,4.83,10.36,10.36,0,0,0,.21,2.41c.33-.79.63-1.39,1-2.37a4.15,4.15,0,0,0,.34.56.23.23,0,0,1,.07.14.47.47,0,0,1-.07.22c-.31.72-.6,1.4-.9,2.23a.89.89,0,0,0,0,.35c0,.13,0,.21,0,.31a.12.12,0,0,1-.09.13,3.77,3.77,0,0,1-.63.14.19.19,0,0,1-.16-.14,12.52,12.52,0,0,1-.63-4.07,24.91,24.91,0,0,1,.58-4.77,8.5,8.5,0,0,0,.19-1.56A5.17,5.17,0,0,1,99.07,298.39Zm2.9,6.67c.07,0,.09,0,.09.14,0,1.06.9,1.54,2.55,1.54a19.55,19.55,0,0,0,2.76-.2c.12,0,.14,0,.16.14s0,.47,0,.66,0,.14-.18.17a20.64,20.64,0,0,1-2.51.15c-1.57,0-2.47-.22-3.08-.88a2.27,2.27,0,0,1-.59-1.67Zm-.26-5.21c0-.13,0-.17.17-.2a23.17,23.17,0,0,1,3-.25c.81,0,1.61,0,2,.07.18,0,.21,0,.21.14s0,.45,0,.66,0,.14-.16.12c-.54-.05-1.45-.07-2.25-.07a17.38,17.38,0,0,0-2.93.3C101.7,300.24,101.7,300,101.71,299.85Z"/><path class="cls-4" d="M113.58,306.47v1c0,.16,0,.19-.19.21h-.66c-.15,0-.2-.05-.2-.19,0-.88.06-1.8.06-3V301.7c0-.75,0-1.49,0-2.24,0-.13,0-.16.16-.16.71,0,1.47,0,2.25,0h3.08c.84,0,1.75,0,2.48,0,.14,0,.17,0,.17.2,0,.71,0,1.45,0,2.21v2.82c0,1.07,0,2,.07,2.76,0,.15,0,.19-.18.19h-.73c-.12,0-.14,0-.14-.18v-.83Zm6.11-6.24h-6.12v5.35h6.12Z"/><path class="cls-4" d="M133.31,299.74c.42,0,.55-.05.7-.16s.21,0,.37.06a3.78,3.78,0,0,1,.56.46c.17.17.14.31,0,.42a1.4,1.4,0,0,0-.37.49,18.72,18.72,0,0,1-2.7,4.37,17.58,17.58,0,0,1-4.37,3.63.25.25,0,0,1-.31,0,1.93,1.93,0,0,0-.78-.41,16,16,0,0,0,7.27-8l-4,.11a20.65,20.65,0,0,1-2.77,3,.31.31,0,0,1-.44,0,1.81,1.81,0,0,0-.71-.29,15,15,0,0,0,3.65-4.08,4,4,0,0,0,.7-1.75,3.28,3.28,0,0,1,1.06.49.2.2,0,0,1,0,.36,1.52,1.52,0,0,0-.42.48c-.21.34-.37.6-.56.88Zm1.56-1.95a.11.11,0,0,1,.15,0,6.73,6.73,0,0,1,1.58,1.69.1.1,0,0,1,0,.16l-.41.33c-.07.06-.14,0-.18,0a6.12,6.12,0,0,0-1.63-1.8Zm1.17-.93a.12.12,0,0,1,.16,0,8,8,0,0,1,1.6,1.64c0,.07,0,.11-.05.17l-.37.33c-.06.06-.12.06-.17,0a6.89,6.89,0,0,0-1.61-1.75Z"/><path class="cls-4" d="M146.53,306c0,.84,0,1.64,0,2.54,0,.12,0,.16-.14.16a5.48,5.48,0,0,1-.81,0c-.12,0-.14,0-.14-.16,0-.84.05-1.68.05-2.5v-4.14a26.55,26.55,0,0,1-4.4,3.16.25.25,0,0,1-.32-.05,2.16,2.16,0,0,0-.7-.45,25.18,25.18,0,0,0,4.36-3,24,24,0,0,0,2.72-2.7,4.48,4.48,0,0,0,1-1.58,4.07,4.07,0,0,1,1,.63.22.22,0,0,1-.06.39,3.34,3.34,0,0,0-.78.74,22.9,22.9,0,0,1-1.75,1.93Z"/><path class="cls-4" d="M155.54,298.94c.1-.1.17-.09.25,0a12.51,12.51,0,0,1,2.52,1.86c.1.1.12.16.05.27a6.62,6.62,0,0,1-.48.6c-.09.1-.13.11-.23,0a14.58,14.58,0,0,0-2.66-2.07Zm1.26,7.42a23.9,23.9,0,0,0,4-2.6,22.09,22.09,0,0,0,3.78-3.77,4.19,4.19,0,0,0,.24.92.39.39,0,0,1-.1.49,25.55,25.55,0,0,1-3.4,3.22,28.67,28.67,0,0,1-4.21,2.74,5.92,5.92,0,0,0-.77.54c-.14.13-.25.13-.37,0a5.32,5.32,0,0,1-.69-.95A8.17,8.17,0,0,0,156.8,306.36Z"/><path class="cls-4" d="M179.83,300.13c0,.12,0,.14-.18.14-1.5,0-2.87-.06-4.45,0,0,.88,0,1.85,0,2.79a6,6,0,0,1,.17,1.47,4.63,4.63,0,0,1-2.73,4.32.68.68,0,0,1-.32.13.42.42,0,0,1-.26-.11,1.92,1.92,0,0,0-.64-.39c2-.83,2.93-2.12,3-3.53a1.73,1.73,0,0,1-1.54.8,1.81,1.81,0,0,1-1.85-2,1.88,1.88,0,0,1,1.92-1.95,1.78,1.78,0,0,1,1.32.48c0-.69,0-1.32,0-2-2,.12-3.89.26-5.22.42-.34.05-.51.14-.62.14a.17.17,0,0,1-.17-.14,4.75,4.75,0,0,1-.22-.89,12.35,12.35,0,0,0,1.76-.09c1.14-.08,2.58-.18,4.44-.29,0-.57,0-.85,0-1.3a4.45,4.45,0,0,0-.14-.94,8.37,8.37,0,0,1,1.06.15c.15,0,.25.11.25.21a.44.44,0,0,1-.1.25.88.88,0,0,0-.09.38c0,.31,0,.58,0,1.19,1.55,0,2.93,0,4.48,0,.13,0,.15,0,.15.16Zm-7.91,3.61a1.11,1.11,0,0,0,1.13,1.21,1.24,1.24,0,0,0,1.28-1.24,1.21,1.21,0,1,0-2.41,0Z"/><path class="cls-4" d="M186.54,303.15a5.5,5.5,0,0,1,3-1,3,3,0,0,1,3.26,3.07c0,2.08-1.65,3.6-4.62,3.6-1.68,0-2.44-.76-2.44-1.66a1.53,1.53,0,0,1,1.64-1.42,2.36,2.36,0,0,1,2.38,2,2.58,2.58,0,0,0,2-2.55,2.28,2.28,0,0,0-2.43-2.3,6.52,6.52,0,0,0-3.85,1.58,13.21,13.21,0,0,0-1.23,1.15c-.11.12-.18.13-.28,0a6.77,6.77,0,0,1-.52-.56c-.06-.07,0-.13.06-.21a39.39,39.39,0,0,0,3.16-3.12c.81-.89,1.65-1.78,2.73-3.06-1.16.19-2.25.4-3.5.63a2.19,2.19,0,0,0-.49.13.92.92,0,0,1-.26.07.26.26,0,0,1-.23-.17,4.2,4.2,0,0,1-.33-1,5.65,5.65,0,0,0,1.23,0c1.1-.11,2.25-.27,3.49-.5a1.84,1.84,0,0,0,.43-.13.47.47,0,0,1,.2-.1.43.43,0,0,1,.25.11,3.74,3.74,0,0,1,.6.59.38.38,0,0,1,.1.24.3.3,0,0,1-.21.27,1.44,1.44,0,0,0-.66.49c-1.25,1.31-2.19,2.29-3.59,3.72Zm.88,3.35c-.45,0-.86.23-.86.66s.51.85,1.45.85a4.83,4.83,0,0,0,.91-.07A1.64,1.64,0,0,0,187.42,306.5Z"/><path class="cls-4" d="M199.51,304.13c.09.05.1.1,0,.19a2.22,2.22,0,0,0-.37,1.09c0,1.15,1.28,1.71,3.58,1.71a17.51,17.51,0,0,0,4-.41c.13,0,.17,0,.2.1a5.55,5.55,0,0,1,.12.73c0,.11,0,.15-.18.18a20.49,20.49,0,0,1-4.24.36c-2.72,0-4.36-.82-4.36-2.63a2.92,2.92,0,0,1,.58-1.65Zm3.28-5.23c1,0,2.13,0,3.1-.13.12,0,.18,0,.19.13a3.77,3.77,0,0,1,0,.63c0,.15-.05.19-.19.21a9.18,9.18,0,0,0-3.63,1.59.32.32,0,0,1-.39,0,1.57,1.57,0,0,0-.58-.28,19,19,0,0,1,2.41-1.4c-.46,0-1.08.06-1.51.06a14,14,0,0,1-2.84-.26c-.09,0-.13-.05-.13-.19s0-.48,0-.72A16.64,16.64,0,0,0,202.79,298.9Z"/><path class="cls-4" d="M215.75,297.56a.21.21,0,0,1,.17.19c0,.14-.07.26-.07.49a8.94,8.94,0,0,0,.09.89,18.21,18.21,0,0,0,.54,2.83c.83-.4,1.67-.8,2.49-1.26a2.33,2.33,0,0,0,.82-.64,5.51,5.51,0,0,1,.71.78c.11.17.09.37-.17.39a5.83,5.83,0,0,0-1.23.45c-1,.48-2.23,1.05-3.18,1.6-1.41.83-2.07,1.55-2.07,2.53,0,1.25,1.17,1.56,3.29,1.55a27,27,0,0,0,3.6-.3c.13,0,.17,0,.2.13a5.62,5.62,0,0,1,.08.73c0,.12,0,.18-.2.19a30.07,30.07,0,0,1-3.72.2c-2.43,0-4.18-.53-4.18-2.45,0-1.35,1-2.38,2.73-3.46a26.25,26.25,0,0,1-.74-3.59,4.81,4.81,0,0,0-.31-1.37A6.07,6.07,0,0,1,215.75,297.56Z"/><path class="cls-4" d="M233.06,299.74c-2.1.33-3.92.63-5.69,1a2.92,2.92,0,0,0-.84.24.82.82,0,0,1-.27.1.23.23,0,0,1-.19-.13,7.3,7.3,0,0,1-.39-1,11.79,11.79,0,0,0,1.73-.17c2.09-.34,4.93-.76,8.69-1.22.14,0,.21,0,.24.11a4.17,4.17,0,0,1,.08.7c0,.13,0,.16-.18.17a5.86,5.86,0,0,0-2.05.42c-2,.81-3.61,2.54-3.61,4.41,0,2.33,2,3,4.07,3.18.19,0,.23,0,.23.16a3.55,3.55,0,0,1-.09.67c0,.15-.07.21-.22.19-2.37-.21-4.92-1.21-4.92-4,0-2,1.22-3.6,3.42-4.77Zm1.71,2s.08,0,.14,0a7,7,0,0,1,1.58,1.7.1.1,0,0,1,0,.15l-.4.34a.12.12,0,0,1-.19,0,6,6,0,0,0-1.62-1.79Zm1.16-.91c.06,0,.1-.06.15,0a8.24,8.24,0,0,1,1.6,1.63c0,.08,0,.12,0,.17l-.38.34c-.06.06-.11.06-.17,0a6.71,6.71,0,0,0-1.61-1.75Z"/><path class="cls-4" d="M239.81,306.28a.26.26,0,0,1,.16-.09s.08,0,.15.09a9.54,9.54,0,0,1,2.69,2.52.25.25,0,0,1,.07.17s0,.09-.1.16l-.5.42c-.07.06-.11.09-.14.09s-.1,0-.15-.11a10.22,10.22,0,0,0-2.58-2.62c-.07,0-.1-.07-.1-.1s0-.07.07-.14Z"/><path class="cls-4" d="M249.64,306.56a2.28,2.28,0,0,0,1.25,1.36,8.09,8.09,0,0,0,2.82.35c1.79,0,3.79-.09,5.88-.28a1.4,1.4,0,0,0-.27.61c0,.28,0,.28-.32.31-1.82.11-3.54.17-5,.17a9.6,9.6,0,0,1-3.45-.46,2.64,2.64,0,0,1-1.33-1.38,13.9,13.9,0,0,1-1.48,1.35,1.5,1.5,0,0,0-.31.29c-.06.09-.1.13-.17.13s-.1,0-.17-.13a5.14,5.14,0,0,1-.39-.71,5.72,5.72,0,0,0,.87-.52,7.91,7.91,0,0,0,1.23-1.11V303h-1c-.73,0-.9,0-1,0s-.12,0-.12-.13v-.6c0-.1,0-.11.12-.11s.23,0,1,0h.73c.72,0,.92,0,1,0s.11,0,.11.11,0,.44,0,1.32Zm-1.89-9.15c.14-.1.17-.1.25,0a12.62,12.62,0,0,1,1.6,2c.06.1,0,.12-.1.23l-.33.26c-.17.12-.2.13-.27,0a10,10,0,0,0-1.51-2,.2.2,0,0,1-.07-.11s0-.06.12-.13Zm10.8,6.88c0,.85,0,1.34,0,1.95a.93.93,0,0,1-.31.84c-.25.19-.52.25-1.38.25-.27,0-.27,0-.31-.23a1.81,1.81,0,0,0-.25-.61,9.33,9.33,0,0,0,1,.05c.28,0,.45-.11.45-.49v-3.79h-6.1v3.25c0,1.2,0,1.59,0,1.66s0,.12-.11.12H251c-.09,0-.11,0-.11-.12s0-.42,0-1.65v-2.4c0-1,0-1.41,0-1.48s0-.11.11-.11.31,0,1,0v-2.65c0-.88,0-1.28,0-1.36s0-.11.12-.11.47,0,1.63,0h2.18c1.18,0,1.56,0,1.64,0s.12,0,.12.11,0,.48,0,1.36v2.65l.91,0c.1,0,.11,0,.11.11s0,.5,0,1.51Zm-1.76-6.1h-4.08v3.37h1.54v-1.22c0-.62,0-.88,0-.95s0-.12.12-.12.36,0,1,0h1.43Zm-.41,6.8c0,.63,0,.84,0,.92s0,.12-.11.12-.31,0-1.12,0h-1c-.82,0-1,0-1.12,0s-.12,0-.12-.12,0-.29,0-.92v-.79c0-.64,0-.85,0-.92s0-.13.12-.13.3,0,1.12,0h1c.81,0,1.05,0,1.12,0s.11,0,.11.13,0,.28,0,.92Zm-.71-1.19h-2v1.58h2Zm1.12-3.81H255v1.57h1.78Z"/><path class="cls-4" d="M273.38,303.67c0,.1,0,.11-.11.11s-.52,0-1.85,0H267a29.4,29.4,0,0,1-1.88,4c1.91-.19,3.85-.44,5.41-.7a18,18,0,0,0-1.43-1.62c-.08-.07-.08-.13.08-.24l.38-.24c.11-.07.16-.05.21,0a19.3,19.3,0,0,1,2.85,3.55c.05.08.07.14-.09.23l-.4.26c-.19.11-.23.12-.28,0-.26-.42-.52-.85-.82-1.27-2.38.42-5.1.78-7.35,1a3.23,3.23,0,0,0-1.07.19.29.29,0,0,1-.18.05c-.05,0-.12-.07-.17-.18-.08-.27-.16-.59-.22-.88a10.75,10.75,0,0,0,1.43,0l.64,0a25.06,25.06,0,0,0,1.94-4.07h-2.83c-1.33,0-1.78,0-1.85,0s-.11,0-.11-.11v-.61c0-.1,0-.12.11-.12s.52,0,1.85,0h3.58v-2.58h-2.1c-1.43,0-1.9,0-2,0s-.1,0-.1-.11v-.62c0-.09,0-.11.1-.11s.56,0,2,0h2.1v-.93a8.51,8.51,0,0,0-.1-1.77,6.11,6.11,0,0,1,1,.07q.15,0,.15.12a.8.8,0,0,1-.07.25,5.47,5.47,0,0,0-.08,1.28v1H270c1.43,0,1.9,0,2,0s.09,0,.09.11v.62c0,.1,0,.11-.09.11s-.56,0-2,0h-2.34V303h3.74c1.33,0,1.76,0,1.85,0s.11,0,.11.12Z"/><path class="cls-4" d="M278.43,298.39c.14.08.19.14.19.23a.38.38,0,0,1-.1.23,2.22,2.22,0,0,0-.28.75,23,23,0,0,0-.65,4.83,10.36,10.36,0,0,0,.21,2.41c.33-.79.63-1.39,1-2.37a4.15,4.15,0,0,0,.34.56.23.23,0,0,1,.07.14.47.47,0,0,1-.07.22c-.31.72-.6,1.4-.9,2.23a.89.89,0,0,0,0,.35c0,.13,0,.21,0,.31a.12.12,0,0,1-.09.13,3.77,3.77,0,0,1-.63.14.19.19,0,0,1-.16-.14,12.52,12.52,0,0,1-.63-4.07,24.91,24.91,0,0,1,.58-4.77,8.5,8.5,0,0,0,.19-1.56A5.17,5.17,0,0,1,278.43,298.39Zm2.9,6.67c.07,0,.09,0,.09.14.05,1.06.9,1.54,2.55,1.54a19.55,19.55,0,0,0,2.76-.2c.12,0,.14,0,.16.14s0,.47,0,.66,0,.14-.18.17a20.64,20.64,0,0,1-2.51.15c-1.57,0-2.47-.22-3.08-.88a2.27,2.27,0,0,1-.59-1.67Zm-.26-5.21c0-.13,0-.17.17-.2a23.17,23.17,0,0,1,3-.25c.81,0,1.61,0,2,.07.18,0,.21,0,.21.14s0,.45,0,.66,0,.14-.16.12c-.54-.05-1.45-.07-2.25-.07a17.38,17.38,0,0,0-2.93.3C281.06,300.24,281.06,300,281.07,299.85Z"/><path class="cls-4" d="M295.14,297.8c1,0,1.24,0,1.32,0s.13,0,.13.13a12.21,12.21,0,0,0,.12,1.71,11.33,11.33,0,0,0,5.56,8.7,2.15,2.15,0,0,0-.5.56c-.08.14-.13.19-.18.19a.36.36,0,0,1-.2-.09,11.82,11.82,0,0,1-5.17-8.07,11.33,11.33,0,0,1-5.41,8.07c-.11,0-.16.09-.22.09s-.1-.05-.19-.19a1.75,1.75,0,0,0-.54-.48c3.62-1.82,5.66-5.4,5.86-9.76h-2c-1,0-1.25,0-1.32,0s-.11,0-.11-.12v-.65c0-.1,0-.12.11-.12s.35,0,1.32,0Z"/><path class="cls-4" d="M313.27,300c1.43,0,1.9,0,2,0s.13,0,.13.12c0,.41,0,.83,0,1.22a38.3,38.3,0,0,1-.48,6.07c-.27,1.24-.71,1.65-1.83,1.65a8.35,8.35,0,0,1-1.66-.1c-.28,0-.28,0-.32-.32a2,2,0,0,0-.24-.66,10,10,0,0,0,2.17.21c.51,0,.86-.19,1-1.06a36.55,36.55,0,0,0,.45-6.28H310.3a12.1,12.1,0,0,1-.74,3.67,8.58,8.58,0,0,1-4.31,4.53.56.56,0,0,1-.21.08c-.07,0-.11-.06-.21-.17a1.8,1.8,0,0,0-.56-.47,7.88,7.88,0,0,0,4.48-4.32,11.78,11.78,0,0,0,.64-3.32H307c-1.42,0-1.89,0-2,0s-.11,0-.11-.11V300c0-.1,0-.11.11-.11s.54,0,2,0h2.44c0-.51,0-1,0-1.54a10.46,10.46,0,0,0-.1-1.67,6.28,6.28,0,0,1,1,.1c.14,0,.21.07.21.14a.65.65,0,0,1-.11.32,3.54,3.54,0,0,0-.08,1.12c0,.5,0,1,0,1.53Z"/><path class="cls-4" d="M322.71,297.75c.15,0,.22.11.22.21a1,1,0,0,1-.11.36,7.88,7.88,0,0,0-.17,1.44c-.12,2.12-.21,4-.21,6,0,1.57.44,2,1.65,2a7.22,7.22,0,0,0,5.05-2.68,3,3,0,0,0,.24.81,1.15,1.15,0,0,1,.05.2c0,.08,0,.15-.17.27a7.8,7.8,0,0,1-5.33,2.35c-1.59,0-2.44-.76-2.44-2.82s.12-4.27.19-6.24a7.44,7.44,0,0,0-.11-2.12A5.34,5.34,0,0,1,322.71,297.75Z"/><path class="cls-4" d="M339.93,299.48c.11,0,.15,0,.17.1l.07.58c0,.14,0,.18-.14.21a23.44,23.44,0,0,1-2.54.57,62.54,62.54,0,0,1-2.69,7.55c-.05.13-.11.13-.21.08l-.66-.3a.15.15,0,0,1-.05-.19,43.64,43.64,0,0,0,2.62-7c-.91.1-1.88.16-2.83.17-.17,0-.2,0-.23-.14s-.07-.49-.11-.77a7.6,7.6,0,0,0,.88,0,22.46,22.46,0,0,0,2.52-.17c.2-.74.31-1.25.41-1.76a5.6,5.6,0,0,0,.11-1.32,5.77,5.77,0,0,1,1.12.32.18.18,0,0,1,.12.16.37.37,0,0,1-.12.22,1.4,1.4,0,0,0-.22.55c-.17.57-.3,1.15-.45,1.68A15.72,15.72,0,0,0,339.93,299.48Zm-.7,6.42c.11,0,.14,0,.15.14.1,1.26.88,1.68,2.65,1.68a15.65,15.65,0,0,0,2.07-.18c.11,0,.16,0,.17.1a4.51,4.51,0,0,1,.06.67c0,.14-.05.17-.16.18a12.64,12.64,0,0,1-1.83.14,4.39,4.39,0,0,1-3.08-.77,2.36,2.36,0,0,1-.69-1.89A4.65,4.65,0,0,1,339.23,305.9Zm.35-3.6c0-.13,0-.17.18-.21a11.32,11.32,0,0,1,2.45-.3,14.08,14.08,0,0,1,1.74.14c.17,0,.19.07.21.16a4.15,4.15,0,0,1,0,.62c0,.16-.05.21-.18.18a10.92,10.92,0,0,0-1.79-.16,12.38,12.38,0,0,0-2.58.31A7,7,0,0,1,339.58,302.3Z"/><path class="cls-4" d="M25.4,322c.16,0,.17.05.16.15A10.43,10.43,0,0,1,25,325c0,.1-.07.09-.21,0l-.34-.14c-.2-.08-.21-.07-.15-.23a8.38,8.38,0,0,0,.56-2.71c0-.1,0-.1.21-.06Zm.73-1.24a9.61,9.61,0,0,0-.11-1.92c.36,0,.66,0,.92.09.1,0,.17,0,.17.11a1.09,1.09,0,0,1-.06.25,6.12,6.12,0,0,0-.09,1.44v8.14c0,1.67,0,2.4,0,2.47s0,.11-.11.11h-.66c-.09,0-.11,0-.11-.11s0-.8,0-2.45Zm1.62.87c.12,0,.16,0,.19,0a14.76,14.76,0,0,1,.56,1.92c0,.1,0,.13-.14.18l-.34.12c-.18.05-.22.05-.24,0a8.28,8.28,0,0,0-.5-1.93c0-.11,0-.12.15-.18Zm9.1,2.5c0,.09,0,.09-.1.09s-.54,0-1.91,0H30.57c-1.37,0-1.84,0-1.9,0s-.12,0-.12-.09v-.51c0-.1,0-.11.12-.11s.53,0,1.9,0H32v-1h-.95c-1.21,0-1.6,0-1.68,0s-.12,0-.12-.11V322c0-.1,0-.12.12-.12s.47,0,1.68,0H32v-.94H30.82c-1.29,0-1.72,0-1.79,0s-.11,0-.11-.11v-.49c0-.1,0-.11.11-.11s.5,0,1.79,0H32a8.88,8.88,0,0,0-.1-1.54c.35,0,.63,0,.9.07.1,0,.17.07.17.13a.68.68,0,0,1-.09.28,3.18,3.18,0,0,0-.08,1.06h1.61c1.29,0,1.72,0,1.8,0s.12,0,.12.11v.49c0,.1,0,.11-.12.11s-.51,0-1.8,0H32.8v.94H34c1.21,0,1.59,0,1.66,0s.13,0,.13.12v.46c0,.1,0,.11-.13.11s-.45,0-1.66,0H32.8v1h2c1.37,0,1.84,0,1.91,0s.1,0,.1.11Zm-3,.92c1.17,0,1.56,0,1.63,0s.12,0,.12.11,0,.56,0,1.64v1.5c0,.74,0,1.47,0,1.88s0,.74-.29.92a2.1,2.1,0,0,1-1.39.25c-.26,0-.28,0-.36-.28a1.75,1.75,0,0,0-.3-.54c.33,0,.63,0,1,0,.53,0,.58-.15.58-.52v-1H30.16v.53c0,1.27,0,1.71,0,1.78s0,.1-.11.1h-.62c-.09,0-.11,0-.11-.1s0-.45,0-1.75v-2.89c0-1.08,0-1.48,0-1.57s0-.11.11-.11.48,0,1.94,0Zm.93.67H30.16v1h4.58Zm0,1.65H30.16v1h4.58Z"/><path class="cls-4" d="M44.54,326.33c0,.1,0,.11-.11.11s-.48,0-1.71,0H42V328h.63c1.15,0,1.5,0,1.58,0s.11,0,.11.11v.52c0,.1,0,.11-.11.11s-.43,0-1.58,0H42v1.15c0,1,0,1.42,0,1.49s0,.1-.11.1h-.63c-.1,0-.11,0-.11-.1s0-.49,0-1.49v-1.15h-.74c-1.15,0-1.53,0-1.6,0s-.11,0-.11-.11v-.52c0-.1,0-.11.11-.11s.45,0,1.6,0h.74v-1.59h-1c-1.23,0-1.64,0-1.71,0s-.1,0-.1-.11v-.52c0-.1,0-.11.1-.11s.48,0,1.71,0h1.85a10.91,10.91,0,0,0,.63-1.53,4,4,0,0,0,.14-.59,4.12,4.12,0,0,1,.73.21c.1,0,.14.09.14.14s0,.1-.1.14a.8.8,0,0,0-.18.3c-.21.47-.39.87-.63,1.33,1.15,0,1.54,0,1.61,0s.11,0,.11.11Zm0-3c0,.1,0,.11-.11.11s-.48,0-1.71,0H40.26c-1.24,0-1.64,0-1.71,0s-.1,0-.1-.11v-.52c0-.1,0-.11.1-.11s.47,0,1.71,0h1v-1.47h-.65c-1.13,0-1.48,0-1.57,0s-.11,0-.11-.11v-.53c0-.09,0-.1.11-.1s.44,0,1.57,0h.65v-.38a7,7,0,0,0-.1-1.4,6.65,6.65,0,0,1,.88.08c.11,0,.18.06.18.12a.66.66,0,0,1-.08.25A1.88,1.88,0,0,0,42,320v.52h.5c1.14,0,1.49,0,1.56,0s.11,0,.11.1v.53c0,.1,0,.11-.11.11s-.42,0-1.56,0H42v1.47h.7c1.23,0,1.62,0,1.71,0s.11,0,.11.11Zm-4.51.36c.11,0,.14,0,.19.06a8.73,8.73,0,0,1,.59,1.46c0,.09,0,.12-.14.18l-.32.11c-.17.06-.21.06-.24,0a9.37,9.37,0,0,0-.54-1.47c-.06-.12,0-.13.09-.17Zm9.13.32a.66.66,0,0,0,.32-.05.38.38,0,0,1,.17,0c.08,0,.15,0,.38.25s.25.28.25.36a.21.21,0,0,1-.08.17c-.1.09-.14.18-.24.53a15.31,15.31,0,0,1-1.26,3.34,10.09,10.09,0,0,0,2.44,2.07,1.75,1.75,0,0,0-.38.53c-.07.13-.11.18-.17.18a.37.37,0,0,1-.17-.08,12.92,12.92,0,0,1-2.16-2,10.73,10.73,0,0,1-1.52,1.85c-.1.1-.14.14-.19.14s-.09-.05-.16-.18a1.83,1.83,0,0,0-.41-.45,10.24,10.24,0,0,0,1.78-2,11.14,11.14,0,0,1-1.61-3.88h-.39v3.7c0,1.92,0,2.79,0,2.86s0,.11-.09.11h-.63c-.12,0-.13,0-.13-.11s0-.87,0-2.79v-6c0-1.93,0-2.76,0-2.84s0-.11.13-.11.56,0,1.69,0h2c1.14,0,1.5,0,1.58,0s.15,0,.15.12-.06.49-.08.73a8.51,8.51,0,0,1-.26,1.78c-.2.6-.59.81-1.32.81-.31,0-.59,0-.92,0s-.25,0-.3-.25a2,2,0,0,0-.15-.53,9.51,9.51,0,0,0,1.27.08c.44,0,.59-.12.72-.58a5.75,5.75,0,0,0,.15-1.36H45.75V324Zm-2.3.73a10.24,10.24,0,0,0,1.33,3.14,13.1,13.1,0,0,0,1.08-3.14Z"/><path class="cls-4" d="M59.86,328.38c0,.11,0,.15-.16.16a3.58,3.58,0,0,1-.6.06c-.08,0-.12-.07-.12-.17,0-.62,0-1.3,0-2-1.54.77-2.3,1.49-2.3,2.33s.77,1.16,2.4,1.16a24.62,24.62,0,0,0,3.33-.28.12.12,0,0,1,.16.1,4.17,4.17,0,0,1,.08.69c0,.12-.06.18-.11.19a27,27,0,0,1-3.46.2c-2,0-3.24-.51-3.24-2,0-1.17.77-2.12,3.1-3.26,0-.95-.35-1.33-1.18-1.32a4.06,4.06,0,0,0-2.3,1.14c-.5.48-.84.84-1.33,1.36-.08.1-.14.1-.21,0a6.41,6.41,0,0,1-.49-.55c0-.08,0-.11,0-.2a15.07,15.07,0,0,0,3.25-3.89,25,25,0,0,1-2.6,0c-.12,0-.14,0-.16-.14a6.47,6.47,0,0,1-.08-.7,29.52,29.52,0,0,0,3.25,0,14,14,0,0,0,.5-1.4,2,2,0,0,0,.11-.75,4.48,4.48,0,0,1,1,.3.18.18,0,0,1,0,.31,1.6,1.6,0,0,0-.25.39c-.17.35-.29.65-.48,1.07a27.16,27.16,0,0,0,3-.46c.11,0,.14,0,.17,0a5.5,5.5,0,0,1,.08.62c0,.1,0,.14-.18.17-1.11.19-2.3.35-3.42.46a11.52,11.52,0,0,1-1.43,2.09l0,0a3,3,0,0,1,1.75-.6,1.62,1.62,0,0,1,1.76,1.64c.69-.31,1.49-.67,2.19-1a3.79,3.79,0,0,0,1.06-.71,3.56,3.56,0,0,1,.69.81c.11.21,0,.3-.14.32a4,4,0,0,0-.77.23c-1.07.45-1.95.77-3,1.2Z"/><path class="cls-4" d="M70.9,320.54c0,.1,0,.12-.12.12s-.38,0-1.4,0h-.19a13.64,13.64,0,0,1-1.09,3.5h1.37c.65,0,.91,0,1,0s.12,0,.12.11,0,.44,0,1.66v1.29c0,2.1,0,2.38,0,2.46s0,.1-.12.1h-.53c-.1,0-.11,0-.11-.1v-.56H68.27v1.25c0,.1,0,.11-.11.11h-.55c-.1,0-.11,0-.11-.11s0-.48,0-2.64v-2.43c-.27.46-.55.88-.84,1.29-.06.08-.12.14-.16.14s-.08-.06-.14-.17a2,2,0,0,0-.32-.51,11.17,11.17,0,0,0,2.33-5.36h-.35c-1,0-1.34,0-1.42,0s-.11,0-.11-.12V320c0-.1,0-.11.11-.11s.39,0,1.42,0h1.33c1,0,1.33,0,1.4,0s.12,0,.12.11Zm-1.09,4.31H68.27v3.5h1.54Zm9,5.65c0,.1,0,.12-.12.12s-.46,0-1.69,0H72.88v.68c0,.1,0,.12-.11.12h-.56c-.1,0-.12,0-.12-.12s0-.36,0-1.37v-3.5c0-.55,0-1,0-1.41-.28.35-.59.68-.91,1-.06.06-.1.1-.14.1s-.08,0-.13-.14a1.41,1.41,0,0,0-.3-.46,11.14,11.14,0,0,0,2.81-4.19H71.83v1.23c0,.1,0,.11-.11.11h-.56c-.1,0-.12,0-.12-.11s0-.17,0-1.06v-.28c0-.3,0-.44,0-.51s0-.11.12-.11.53,0,1.9,0h.66c.07-.21.12-.41.18-.62a5.46,5.46,0,0,0,.18-1.22l.8.16c.16,0,.2.08.2.15s0,.13-.13.23a1.85,1.85,0,0,0-.22.65c-.06.21-.13.43-.2.65h2.2c1.37,0,1.85,0,1.92,0s.11,0,.11.11,0,.21,0,.45v.32a10.34,10.34,0,0,0,0,1c0,.1,0,.12-.11.12h-.58c-.09,0-.11,0-.11-.12v-1.2H74.28a13.26,13.26,0,0,1-1.07,2.13H75a10.26,10.26,0,0,0,.42-.94,3.25,3.25,0,0,0,.18-.73c.28.07.51.14.69.2s.17.08.17.17a.22.22,0,0,1-.11.16,1,1,0,0,0-.21.35c-.1.23-.21.49-.35.79h.82c1.14,0,1.52,0,1.58,0s.12,0,.12.11v.51c0,.09,0,.11-.12.11s-.44,0-1.58,0h-.95v1.44h.55c1.27,0,1.68,0,1.75,0s.11,0,.11.11v.47c0,.12,0,.13-.11.13s-.48,0-1.75,0h-.55v1.47h.55c1.27,0,1.68,0,1.76,0s.11,0,.11.12v.49c0,.1,0,.11-.11.11s-.49,0-1.76,0h-.55v1.54H77c1.23,0,1.62,0,1.69,0s.12,0,.12.12Zm-3.84-6.37H72.88v1.44h2.06Zm0,2.1H72.88v1.47h2.06Zm0,2.13H72.88v1.54h2.06Z"/><path class="cls-4" d="M85.18,322c0,.09,0,.11-.11.11s-.39,0-1.46,0H82c-1,0-1.39,0-1.46,0s-.1,0-.1-.11v-.59c0-.1,0-.11.1-.11s.41,0,1.46,0h1.62c1.07,0,1.38,0,1.46,0s.11,0,.11.11Zm-.42-1.91c0,.1,0,.11-.11.11s-.32,0-1.22,0H82.34c-.88,0-1.13,0-1.22,0s-.11,0-.11-.11v-.56c0-.1,0-.11.11-.11s.34,0,1.22,0h1.09c.9,0,1.15,0,1.22,0s.11,0,.11.11ZM84.68,329c0,1.61,0,1.92,0,2s0,.11-.12.11H84c-.09,0-.11,0-.11-.11v-.45H81.84v.73c0,.09,0,.11-.12.11h-.56c-.11,0-.12,0-.12-.11s0-.34,0-2.05v-.84c0-.84,0-1.16,0-1.25s0-.09.12-.09.34,0,1.19,0h1c.87,0,1.13,0,1.2,0s.12,0,.12.09,0,.38,0,1Zm-.14-5.1c0,.1,0,.11-.11.11s-.31,0-1.14,0h-.88c-.83,0-1.06,0-1.14,0s-.11,0-.11-.11v-.55c0-.1,0-.11.11-.11s.31,0,1.14,0h.88c.83,0,1.07,0,1.14,0s.11,0,.11.11Zm0,1.88c0,.09,0,.11-.11.11s-.31,0-1.14,0h-.88c-.83,0-1.06,0-1.14,0s-.11,0-.11-.11v-.55c0-.1,0-.11.11-.11s.31,0,1.14,0h.88c.83,0,1.07,0,1.14,0s.11,0,.11.11Zm-.62,2H81.84v2.1h2.08Zm6.53-8.25c1.29,0,1.72,0,1.79,0s.13,0,.13.13c0,.32,0,.6-.06.89a16.12,16.12,0,0,1-.43,3.84,1.25,1.25,0,0,1-1.26.79c-.38,0-.67,0-.94,0s-.22,0-.27-.31a1.47,1.47,0,0,0-.19-.58,5.64,5.64,0,0,0,1.2.13.68.68,0,0,0,.69-.38,14.8,14.8,0,0,0,.38-3.71H89a7.46,7.46,0,0,1-.42,2.06c.45.22.88.45,1.29.67.1,0,.07.07,0,.21l-.18.38c-.09.17-.13.17-.23.11-.35-.21-.75-.43-1.17-.66a5.86,5.86,0,0,1-2.55,2.57.69.69,0,0,1-.23.08c-.07,0-.11,0-.19-.18a1.27,1.27,0,0,0-.42-.41,5.11,5.11,0,0,0,2.69-2.39A17.57,17.57,0,0,0,86,322c-.1,0-.09-.06,0-.2l.17-.36c.06-.11.1-.13.2-.09.49.17,1,.37,1.57.61a6.64,6.64,0,0,0,.32-1.74h-.59c-1.27,0-1.68,0-1.76,0s-.12,0-.12-.12v-.56c0-.09,0-.11.12-.11s.49,0,1.76,0Zm-4,7.75c.14,0,.16,0,.14.15a9,9,0,0,1-.78,2.63c-.06.1-.07.1-.24,0l-.34-.17c-.18-.09-.18-.12-.14-.21a7.42,7.42,0,0,0,.76-2.48c0-.11,0-.12.22-.07Zm1.67,2.5c0,.38,0,.47.26.56a2.1,2.1,0,0,0,.79.09,1.82,1.82,0,0,0,1-.14c.31-.23.36-.72.38-1.47a2,2,0,0,0,.52.28c.23.08.23.11.22.35-.11.85-.22,1.26-.69,1.51a2.69,2.69,0,0,1-1.44.24A3.48,3.48,0,0,1,87.8,331c-.28-.11-.5-.32-.5-.92v-2.44a9.64,9.64,0,0,0-.06-1.08c.27,0,.56.05.79.09s.16.05.16.11a.41.41,0,0,1,0,.17,1.8,1.8,0,0,0-.07.66Zm.17-4.52c.11-.11.12-.13.22-.06a10.6,10.6,0,0,1,1.72,1.38c.09.08.09.11-.05.25l-.27.26c-.14.14-.17.17-.24.09a6.91,6.91,0,0,0-1.69-1.47c-.1-.07-.09-.07,0-.2ZM91.56,327c.15-.08.16-.08.23,0a9.92,9.92,0,0,1,1.29,2.32c0,.1,0,.1-.15.2l-.34.17c-.18.1-.19.1-.24,0a8.72,8.72,0,0,0-1.24-2.4c-.06-.07,0-.08.14-.17Z"/><path class="cls-4" d="M102.36,321.74c-2.1.33-3.92.63-5.68,1a2.71,2.71,0,0,0-.84.24.9.9,0,0,1-.27.1.25.25,0,0,1-.2-.13,8.9,8.9,0,0,1-.39-1,11.9,11.9,0,0,0,1.74-.17c2.08-.34,4.93-.76,8.68-1.22.14,0,.21,0,.24.11a4.17,4.17,0,0,1,.08.7c0,.13,0,.16-.18.17a5.86,5.86,0,0,0-2,.42c-2,.81-3.62,2.54-3.62,4.41,0,2.33,2,3,4.08,3.18.18,0,.22,0,.22.16a4.48,4.48,0,0,1-.08.67c0,.15-.07.21-.22.19-2.37-.21-4.92-1.21-4.92-4,0-2,1.22-3.6,3.42-4.77Zm1.71,2a.11.11,0,0,1,.14,0,6.77,6.77,0,0,1,1.58,1.7.09.09,0,0,1,0,.15l-.41.34a.11.11,0,0,1-.18,0,6.21,6.21,0,0,0-1.63-1.79Zm1.16-.91c.06,0,.1-.06.16,0a8.24,8.24,0,0,1,1.6,1.63c0,.08,0,.12,0,.17l-.38.34c0,.06-.11.06-.16,0a6.89,6.89,0,0,0-1.61-1.75Z"/><path class="cls-4" d="M113.56,320.29a2.42,2.42,0,0,0-.46-.89,7.06,7.06,0,0,1,1.09-.1c.14,0,.24.07.24.17s0,.14,0,.22a2.77,2.77,0,0,0,.11.59c.1.36.19.62.27.91a28.63,28.63,0,0,0,3.1-.81c.08,0,.12-.05.15.05a4,4,0,0,1,.13.52.17.17,0,0,1-.13.2c-1,.32-2,.56-3,.78a12.11,12.11,0,0,0,.66,1.58,16.92,16.92,0,0,0,2.78-.79c.12-.05.16,0,.2.07a3.41,3.41,0,0,1,.13.53c0,.1,0,.15-.12.19a26.06,26.06,0,0,1-2.66.73,10,10,0,0,0,2.19,2.86c.08.08.11.13,0,.24a2.23,2.23,0,0,1-.33.54c-.11.13-.18.15-.31,0a5.19,5.19,0,0,0-1-.5,7.29,7.29,0,0,0-2.67-.42c-1.46,0-2.4.42-2.4,1.39s1.32,1.47,3.55,1.47c.5,0,1-.05,1.43-.09.11,0,.12.06.11.16a4.62,4.62,0,0,1-.16.67c0,.11,0,.15-.18.17-.36,0-.7.05-1.23.05-2.8,0-4.41-.75-4.41-2.36,0-1.38,1.19-2.22,3.23-2.22a6.75,6.75,0,0,1,2.9.52,12.06,12.06,0,0,1-1.58-2.33,26.94,26.94,0,0,1-4,.47c-.11,0-.12,0-.17-.14a3.23,3.23,0,0,1-.12-.66,24.78,24.78,0,0,0,4-.42c-.22-.48-.46-1-.69-1.58a25.12,25.12,0,0,1-3.68.4c-.11,0-.15,0-.18-.14s-.09-.39-.13-.64a28.48,28.48,0,0,0,3.76-.34C113.81,321.05,113.72,320.74,113.56,320.29Z"/><path class="cls-4" d="M128.28,325.43a24.71,24.71,0,0,1-3.23,0c-.11,0-.14,0-.15-.17a5.43,5.43,0,0,1,0-.71,22.36,22.36,0,0,0,3.39.1c0-.69,0-1.42,0-2.09a26.41,26.41,0,0,1-3.71-.07c-.08,0-.11,0-.12-.14a4.66,4.66,0,0,1-.06-.73,22.67,22.67,0,0,0,3.89.11c0-.57,0-1,0-1.48a3,3,0,0,0-.13-.93,5.7,5.7,0,0,1,1.11.19.22.22,0,0,1,.13.32,1.22,1.22,0,0,0-.17.64c0,.45,0,.76,0,1.24a30.93,30.93,0,0,0,3.41-.47c.12,0,.14,0,.16.1a4.91,4.91,0,0,1,0,.62c0,.11-.06.14-.1.14a34.39,34.39,0,0,1-3.51.4c0,.69,0,1.42,0,2.08a23.51,23.51,0,0,0,3.1-.41c.09,0,.14,0,.15.07s0,.43,0,.67c0,.09,0,.13-.14.14a23.94,23.94,0,0,1-3.09.38c0,.87,0,1.6.1,2.44a11.43,11.43,0,0,1,3.74,1.81c.07.05.09.11.05.23a1.79,1.79,0,0,1-.35.61.14.14,0,0,1-.21,0,10.36,10.36,0,0,0-3.19-1.78c0,1.57-.81,2.18-2.51,2.18s-2.48-.63-2.48-1.66,1-1.71,2.58-1.71a8.91,8.91,0,0,1,1.47.11C128.32,326.86,128.29,326.25,128.28,325.43Zm-1.39,2.89c-1.18,0-1.77.38-1.77.88s.55.87,1.57.87a1.93,1.93,0,0,0,1.43-.43,1.54,1.54,0,0,0,.25-1.14A6.73,6.73,0,0,0,126.89,328.32Z"/><path class="cls-4" d="M148.48,322.13c0,.12,0,.14-.18.14-1.5,0-2.87-.06-4.46,0,0,.88,0,1.85,0,2.79a6,6,0,0,1,.17,1.47,4.63,4.63,0,0,1-2.74,4.32.64.64,0,0,1-.32.13.4.4,0,0,1-.25-.11,2,2,0,0,0-.64-.39c2-.83,2.92-2.12,3-3.53a1.74,1.74,0,0,1-1.54.8,1.81,1.81,0,0,1-1.85-2,1.88,1.88,0,0,1,1.92-1.95,1.8,1.8,0,0,1,1.32.48c0-.69,0-1.32,0-2-2,.12-3.9.26-5.23.42-.33.05-.5.14-.61.14s-.14,0-.17-.14a4,4,0,0,1-.23-.89,12.48,12.48,0,0,0,1.77-.09c1.13-.08,2.58-.18,4.44-.29,0-.57,0-.85,0-1.3a3.45,3.45,0,0,0-.14-.94,8.57,8.57,0,0,1,1.07.15c.15,0,.25.11.25.21a.44.44,0,0,1-.1.25.87.87,0,0,0-.1.38c0,.31,0,.58,0,1.19,1.56,0,2.93,0,4.49,0,.12,0,.15,0,.15.16Zm-7.91,3.61A1.11,1.11,0,0,0,141.7,327a1.24,1.24,0,0,0,1.28-1.24,1.17,1.17,0,0,0-1.25-1.19A1.16,1.16,0,0,0,140.57,325.74Z"/><path class="cls-4" d="M154.27,329.68a2,2,0,1,1-2-1.95A2,2,0,0,1,154.27,329.68Zm-3.22,0a1.25,1.25,0,0,0,1.25,1.24,1.25,1.25,0,0,0,0-2.49A1.25,1.25,0,0,0,151.05,329.68Z"/><circle class="cls-5" cx="186.5" cy="46.5" r="45.5"/><path class="cls-6" d="M218.27,13.94,154.73,79.06a45.49,45.49,0,1,0,63.54-65.12Z"/><path class="cls-3" d="M170.2,33.4a.64.64,0,0,1-.69-.61v0c.05-1.12.05-2.39.05-3.61s0-2.65,0-3.62c0-.39,0-.71,0-1,.05-1.69,1.57-1.71,2.65-1.71.28,0,.56,0,.77,0a3.07,3.07,0,0,1,3.14,3.07,3.19,3.19,0,0,1-2.94,3.22c-.32,0-.66.06-1,.06a5,5,0,0,1-1.14-.12h-.1c-.09,0-.09.06-.09.18,0,.89.05,1.95.05,2.9v.56A.66.66,0,0,1,170.2,33.4Zm4.58-7.5a1.79,1.79,0,0,0-1.94-1.81h-.74c-1.15,0-1.29.22-1.29,1.44,0,.58,0,1.29,0,1.84s0,.61,1.26.61a8.71,8.71,0,0,0,.87,0A2,2,0,0,0,174.78,25.9Z"/><path class="cls-3" d="M177.71,30a3.44,3.44,0,1,1,6.87,0,3.44,3.44,0,1,1-6.87,0Zm5.65,0a2.22,2.22,0,1,0-4.43,0,2.22,2.22,0,1,0,4.43,0Z"/><path class="cls-3" d="M187.13,23.69a.89.89,0,0,1,1.77,0,.88.88,0,0,1-.88.89A.81.81,0,0,1,187.13,23.69Zm1.53,9.14a.65.65,0,0,1-1.29,0c0-1.17,0-2.77,0-4.06,0-.63,0-1.19,0-1.58a.61.61,0,0,1,.65-.62.59.59,0,0,1,.64.58v0c0,.57,0,1.7,0,2.88,0,1,0,2,0,2.76Z"/><path class="cls-3" d="M196.49,32.83c0-.57,0-1.65,0-2.52,0-.57,0-1,0-1.27a1.27,1.27,0,0,0-1.28-1.35,2,2,0,0,0-2,1.76c0,.28,0,.65,0,1.13s0,1.33,0,2.25v0a.58.58,0,0,1-.62.59.59.59,0,0,1-.63-.59v0c0-1.39.06-2.48.06-3.49,0-.73,0-1.41,0-2.15v0a.58.58,0,0,1,.63-.54.57.57,0,0,1,.62.56v.28s0,.07,0,.07l.06-.06a2.7,2.7,0,0,1,2-.9,2.26,2.26,0,0,1,2.35,2.3c0,.45,0,1.46,0,2.41,0,.59,0,1.15,0,1.53a.62.62,0,0,1-.63.63.59.59,0,0,1-.62-.59Z"/><path class="cls-3" d="M202.63,27.79c-.21,0-.21.06-.21.17,0,.52,0,1.81,0,2.76s0,1.64.93,1.64l.33,0h.09a.5.5,0,0,1,.51.52c0,.64-.75.64-1.09.64-2,0-2-1.71-2-2.32,0-.83,0-2.34,0-3V28c0-.16-.07-.18-.19-.18h-.55a.54.54,0,0,1-.54-.57.51.51,0,0,1,.54-.55H201c.2,0,.21,0,.21-.21s0-.45,0-.85c0-.14,0-.28,0-.4v0a.54.54,0,0,1,.59-.53c.64,0,.64.52.64.77,0,.42,0,1.05,0,1.05,0,.2.05.21.2.21h1a.56.56,0,0,1,0,1.12Z"/><path class="cls-3" d="M183.53,50.55a1.61,1.61,0,0,1,1.66-1.7h1.31a3.9,3.9,0,0,0,4-4.24c0-1.69-1.46-3.81-4.43-3.81a5.67,5.67,0,0,0-4.62,2.2,1.76,1.76,0,0,1-1.28.61,1.89,1.89,0,0,1-1.77-1.85c0-1.69,3.55-4.31,7.75-4.31,4.66,0,7.94,2.77,7.94,7.13a6,6,0,0,1-3.59,5.78,7.54,7.54,0,0,1,5.13,7.44c0,5.28-4.16,9.09-9.94,9.09-6.52,0-9.25-3.93-9.25-5.2a2,2,0,0,1,1.92-2,1.79,1.79,0,0,1,1.39.7,6.92,6.92,0,0,0,6.13,2.93c3.24,0,6.05-2.24,6.05-5.59,0-3-1.54-5.48-5.74-5.48h-1A1.67,1.67,0,0,1,183.53,50.55Z"/><path class="cls-4" d="M32.94,263.89c1.23,0,1.6,0,1.7,0s.22,0,.22.2A9.32,9.32,0,0,0,35,266a13.27,13.27,0,0,0,6.61,10.5,4.84,4.84,0,0,0-1,1.3c-.14.27-.21.39-.31.39s-.2-.09-.39-.22a14.63,14.63,0,0,1-5.83-8.44A14.29,14.29,0,0,1,27.79,278c-.2.12-.3.2-.39.2s-.18-.13-.35-.4a4.32,4.32,0,0,0-1-1.13,12.4,12.4,0,0,0,6.84-11H30.77c-1.23,0-1.6,0-1.7,0s-.21,0-.21-.19V264c0-.17,0-.18.21-.18s.47,0,1.7,0Z"/><path class="cls-4" d="M50.93,268.43a14.93,14.93,0,0,1-.85,4.1A10.28,10.28,0,0,1,45,278.08a1.65,1.65,0,0,1-.41.16c-.14,0-.22-.1-.41-.36a3.7,3.7,0,0,0-1.07-1c2.77-1.21,4.49-2.83,5.29-5a13.42,13.42,0,0,0,.71-3.42H46.41c-1.63,0-2.19,0-2.28,0s-.2,0-.2-.18v-1.4c0-.17,0-.18.2-.18s.65,0,2.28,0h2.73c0-.49,0-1,0-1.48A13.84,13.84,0,0,0,49,263a17.2,17.2,0,0,1,2,.19c.26,0,.34.12.34.24a.69.69,0,0,1-.15.42,5.09,5.09,0,0,0-.13,1.45c0,.45,0,.95,0,1.44h3.57c1.65,0,2.21,0,2.33,0s.2,0,.2.2c0,.51,0,1.09,0,1.53a50,50,0,0,1-.53,7.46c-.31,1.63-1.14,2.23-2.84,2.25a13.51,13.51,0,0,1-1.63-.07c-.53-.05-.53-.07-.63-.61a4.33,4.33,0,0,0-.49-1.35,13,13,0,0,0,2.55.22c.63,0,1.07-.23,1.24-1.13a41.14,41.14,0,0,0,.44-6.77Z"/><path class="cls-4" d="M65.92,264c.29.07.41.16.41.33a1.65,1.65,0,0,1-.17.56,10.93,10.93,0,0,0-.24,2.07c-.17,2.62-.25,4.35-.25,6.58,0,1.72.2,2.11,1.56,2.11a9,9,0,0,0,6-3.13,6,6,0,0,0,.39,1.62,1,1,0,0,1,.14.4c0,.16-.07.29-.34.53a9.73,9.73,0,0,1-6.44,2.55c-2.18,0-3.2-.87-3.2-3.47,0-2.85.15-5.3.24-7.34a11.66,11.66,0,0,0-.17-3.11A17.66,17.66,0,0,1,65.92,264Z"/><path class="cls-4" d="M86.14,266c.18-.05.25,0,.27.17,0,.37.1.87.12,1.22s0,.27-.26.33a29,29,0,0,1-3,.64c-1.15,3.77-2,6.38-3.11,9.2-.08.24-.18.22-.37.17s-1-.43-1.36-.63a.27.27,0,0,1-.14-.34,62.37,62.37,0,0,0,2.94-8.06c-1,.1-2.17.19-3,.19-.25,0-.32,0-.36-.27s-.15-.94-.23-1.55a7.89,7.89,0,0,0,1.25.05,22.91,22.91,0,0,0,2.76-.17c.17-.68.3-1.43.42-2.12a11.4,11.4,0,0,0,.1-1.57,10.38,10.38,0,0,1,2.15.48.28.28,0,0,1,.18.27.42.42,0,0,1-.08.27,3.4,3.4,0,0,0-.36.68c-.17.61-.29,1.19-.41,1.62C84.39,266.41,85.3,266.19,86.14,266Zm-.67,8.12c.17,0,.24.07.26.24.13,1.24,1,1.6,2.6,1.6a24.56,24.56,0,0,0,2.86-.24c.13,0,.18,0,.2.15a10.43,10.43,0,0,1,.13,1.48c0,.21,0,.26-.27.28a21.41,21.41,0,0,1-2.31.18c-2.23,0-3.38-.3-4.15-1.1a3.34,3.34,0,0,1-.76-2.33A8.4,8.4,0,0,1,85.47,274.07Zm-.18-4.5c0-.24,0-.29.3-.34a17.84,17.84,0,0,1,3.32-.39,12.71,12.71,0,0,1,2,.17c.23,0,.29.05.29.25a12.28,12.28,0,0,1,0,1.36c0,.29-.08.36-.32.31a11.33,11.33,0,0,0-2.11-.21,18.16,18.16,0,0,0-3.42.4C85.32,270.52,85.29,269.91,85.29,269.57Z"/><path class="cls-4" d="M95.45,266.65c.22.05.26.08.24.27a14.81,14.81,0,0,1-.58,3.72c0,.17-.08.15-.27.07l-.81-.34c-.23-.09-.24-.17-.19-.34a14.19,14.19,0,0,0,.54-3.45c0-.17,0-.16.27-.1Zm.68-1.18a15.52,15.52,0,0,0-.13-2.56c.64,0,1.19,0,1.75.11.17,0,.27.09.27.17a.81.81,0,0,1-.08.34,6.59,6.59,0,0,0-.12,1.89v9.88c0,1.92,0,2.89,0,3s0,.21-.19.21H96.29c-.17,0-.19,0-.19-.21s0-1,0-3Zm2.57.44c.19-.06.24-.05.31.11a13,13,0,0,1,.69,2c0,.17,0,.2-.18.29l-.72.25c-.22.09-.27.09-.3-.1a13.51,13.51,0,0,0-.63-2.06c-.07-.18-.05-.22.17-.28Zm3.11,3.88c-1.65,0-2.21,0-2.31,0s-.19,0-.19-.19v-1c0-.17,0-.19.19-.19s.66,0,2.31,0h1.43v-.78h-.85c-1.53,0-2,0-2.14,0s-.19,0-.19-.2v-.85c0-.17,0-.19.19-.19s.61,0,2.14,0h.85v-.76h-1.12c-1.6,0-2.15,0-2.25,0s-.18,0-.18-.18v-.92c0-.19,0-.21.18-.21s.65,0,2.25,0h1.12c0-.6,0-1.07-.12-1.67.63,0,1.1.05,1.68.12.19,0,.27.1.27.17a1.77,1.77,0,0,1-.11.44,3.3,3.3,0,0,0-.07.94h1.63c1.58,0,2.12,0,2.23,0s.2,0,.2.21v.92c0,.17,0,.18-.2.18s-.65,0-2.23,0h-1.63v.76H106c1.52,0,2,0,2.13,0s.18,0,.18.19v.85c0,.18,0,.2-.18.2s-.61,0-2.13,0h-1.15v.78H107c1.63,0,2.21,0,2.29,0s.19,0,.19.19v1c0,.19,0,.19-.19.19s-.66,0-2.29,0Zm6.27,4.39c0,.85,0,1.83,0,2.36a1.77,1.77,0,0,1-.45,1.43c-.28.25-.69.39-1.93.42-.53,0-.55,0-.67-.53a3.7,3.7,0,0,0-.39-1.05c.39,0,.85.05,1.16.05.49,0,.59-.17.59-.51v-.68h-4.6v.78c0,1.19,0,1.75,0,1.84s0,.2-.2.2h-1.33c-.19,0-.2,0-.2-.2s0-.6,0-1.8v-4c0-1.19,0-1.73,0-1.84s0-.2.2-.2.61,0,2.11,0h3.38c1.5,0,2,0,2.11,0s.19,0,.19.2,0,.73,0,2Zm-6.25-2.38v.79h4.6v-.79Zm4.6,2.75v-.83h-4.6v.83Z"/><path class="cls-4" d="M114.14,267.53v-1.34h-.46c-1.31,0-1.74,0-1.84,0s-.19,0-.19-.19V265c0-.15,0-.17.19-.17s.53,0,1.84,0h.46v0a11,11,0,0,0-.12-1.87,15.75,15.75,0,0,1,1.68.12c.19,0,.27.09.27.17a.67.67,0,0,1-.1.31,1.93,1.93,0,0,0-.1.85v.46h.37c1.31,0,1.74,0,1.84,0s.17,0,.17.17V266c0,.17,0,.19-.17.19s-.53,0-1.84,0h-.37v1.34h.58c1.46,0,1.92,0,2,0s.19,0,.19.2v1.05c0,.17,0,.19-.19.19s-.56,0-2,0h-3.06c-1.43,0-1.91,0-2,0s-.21,0-.21-.19V267.7c0-.19,0-.2.21-.2s.56,0,2,0Zm0,6.54v-1.39h-.87c-1.43,0-1.9,0-2,0s-.19,0-.19-.2v-1.05c0-.17,0-.19.19-.19s.56,0,2,0h2a15,15,0,0,0,.55-1.49,5.49,5.49,0,0,0,.17-.8,11.44,11.44,0,0,1,1.43.34c.17,0,.23.1.23.18a.27.27,0,0,1-.11.21,1,1,0,0,0-.23.32,11.59,11.59,0,0,1-.54,1.24c1.12,0,1.53,0,1.63,0s.19,0,.19.19v1.05c0,.19,0,.2-.19.2s-.56,0-2,0h-.63v1.39h.46c1.32,0,1.75,0,1.85,0s.19,0,.19.19v1c0,.17,0,.19-.19.19s-.53,0-1.85,0h-.46v1.11c0,1.14,0,1.68,0,1.77s0,.18-.18.18h-1.33c-.17,0-.19,0-.19-.18s0-.63,0-1.77v-1.11h-.56c-1.33,0-1.77,0-1.87,0s-.19,0-.19-.19v-1c0-.17,0-.19.19-.19s.54,0,1.87,0Zm-.94-2.82c-.22.07-.25.05-.3-.12a9.7,9.7,0,0,0-.57-1.49c-.08-.19,0-.21.16-.28l.93-.28c.19-.06.24,0,.31.11a9.47,9.47,0,0,1,.58,1.48c0,.17,0,.22-.17.29Zm11-2.17a1,1,0,0,0,.48-.07.43.43,0,0,1,.25-.07c.1,0,.24.05.65.46s.47.54.47.66a.39.39,0,0,1-.12.29,1.27,1.27,0,0,0-.29.65,15.7,15.7,0,0,1-1.37,3.92,11.46,11.46,0,0,0,2.43,2,3.59,3.59,0,0,0-.66,1.15c-.12.26-.19.38-.29.38s-.17-.07-.34-.19a14.49,14.49,0,0,1-2-1.84,14.37,14.37,0,0,1-1.45,1.72c-.17.15-.25.24-.34.24s-.17-.12-.3-.36a4.62,4.62,0,0,0-.73-1c0,.8,0,1.24,0,1.31s0,.17-.19.17h-1.31c-.18,0-.2,0-.2-.17s0-1.24,0-3.56v-7.32c0-2.33,0-3.49,0-3.61s0-.18.2-.18.77,0,2.11,0H124c1.36,0,1.82,0,1.92,0s.24.05.22.22,0,.58-.05.86a6.88,6.88,0,0,1-.38,2.55c-.32.67-.79.91-1.85.91-.29,0-.59,0-.9,0s-.41,0-.47-.44a5.88,5.88,0,0,0-.28-1.09,9.39,9.39,0,0,0,1.33.1c.44,0,.61-.1.71-.44a3.73,3.73,0,0,0,.12-1.06H120.6v3.85ZM120.6,277a12.1,12.1,0,0,0,1.78-1.92,12.56,12.56,0,0,1-1.67-4.42h-.11Zm1.54-6.34a11.39,11.39,0,0,0,1.14,2.9,13.52,13.52,0,0,0,.92-2.9Z"/><path class="cls-4" d="M133.23,265.51a12.25,12.25,0,0,0,.17-1.89,13.43,13.43,0,0,1,2,.56.36.36,0,0,1,.27.34.39.39,0,0,1-.12.26,2,2,0,0,0-.34.64c-.22.7-.39,1.33-.61,2a13.33,13.33,0,0,1,1.36-.07c1.58,0,2.43,1.11,2.43,3.28a14.4,14.4,0,0,1-.92,5.32,2.43,2.43,0,0,1-2.29,1.6,4.51,4.51,0,0,1-1.77-.25.46.46,0,0,1-.31-.48,4.78,4.78,0,0,0-.32-1.58,4.46,4.46,0,0,0,2,.44c.56,0,.82-.2,1.09-.9a13.06,13.06,0,0,0,.66-4.23c0-1.19-.22-1.57-1-1.57a12.91,12.91,0,0,0-1.43.12,46.26,46.26,0,0,1-3.42,8,.28.28,0,0,1-.44.16,7.61,7.61,0,0,1-1.17-.75.34.34,0,0,1-.14-.26.29.29,0,0,1,.07-.18,36.27,36.27,0,0,0,3.11-6.67c-.66.1-1.21.21-1.67.29a5.89,5.89,0,0,0-.93.27.38.38,0,0,1-.55-.22,14.75,14.75,0,0,1-.52-1.75c.75,0,1.49,0,2.24-.12s1.34-.15,2-.25C133,266.68,133.11,266.08,133.23,265.51Zm6.73,1.14c.12-.07.2,0,.32.08a11.37,11.37,0,0,1,2.82,4.13.25.25,0,0,1-.06.34,7.11,7.11,0,0,1-1.28.85c-.17.09-.34.07-.39-.14a11.5,11.5,0,0,0-2.79-4.4A13.21,13.21,0,0,1,140,266.65Zm.46-2.38c.08-.07.15-.06.25,0a7.93,7.93,0,0,1,1.62,1.82.18.18,0,0,1,0,.27l-.72.53a.18.18,0,0,1-.29-.05,8.48,8.48,0,0,0-1.71-2Zm1.51-1.11c.1-.07.15-.05.26,0A7.19,7.19,0,0,1,143.8,265a.19.19,0,0,1-.05.3l-.68.53a.18.18,0,0,1-.29,0,8.08,8.08,0,0,0-1.7-2Z"/><path class="cls-4" d="M148.41,265.9c.15.07.27.18.27.3a1.34,1.34,0,0,1-.14.48,8.16,8.16,0,0,0-.15,1.66,20.76,20.76,0,0,0,.31,3.88c.24,1.34.68,2.5,1.39,2.5.54,0,1-.6,1.63-2.36a7.1,7.1,0,0,0,1.09,1.31.52.52,0,0,1,.12.62c-.65,1.74-1.7,2.66-2.89,2.66s-2.72-1.57-3.18-4.44a31.08,31.08,0,0,1-.41-4.95,9.08,9.08,0,0,0-.2-2.22A7.12,7.12,0,0,1,148.41,265.9ZM156.3,267a.37.37,0,0,1,.18-.07.26.26,0,0,1,.19.1,11.17,11.17,0,0,1,3.33,5.82c.05.22-.05.28-.19.37a5.52,5.52,0,0,1-1.32.68c-.21.07-.32,0-.36-.19a11.41,11.41,0,0,0-3.18-5.93A13.45,13.45,0,0,1,156.3,267Z"/><path class="cls-4" d="M165.63,267.38a21.81,21.81,0,0,1,6.12-1.41c3,0,5,1.83,5,4.5a4.93,4.93,0,0,1-3,4.73,14.63,14.63,0,0,1-4.31,1.41c-.34.06-.48.05-.6-.28a3.18,3.18,0,0,0-1.19-1.34,15.87,15.87,0,0,0,4.61-1.26,3.71,3.71,0,0,0,2.34-3.38c0-1.6-1-2.58-2.92-2.58a16.61,16.61,0,0,0-6.14,1.75,12.09,12.09,0,0,0-1.17.61c-.24.2-.37.25-.46.25s-.3-.1-.49-.35a10.11,10.11,0,0,1-1.09-1.77A15,15,0,0,0,165.63,267.38Z"/><path class="cls-4" d="M187.8,267c-2.08.39-3.9.75-5.72,1.12-.64.16-.81.19-1.07.27a.79.79,0,0,1-.37.14.39.39,0,0,1-.32-.25,12,12,0,0,1-.63-1.84,21.8,21.8,0,0,0,2.7-.29c2.09-.3,5.83-.87,10.22-1.44.25,0,.34.06.35.18a9.44,9.44,0,0,1,.19,1.5c0,.2-.1.25-.32.25a8,8,0,0,0-2.08.38c-2.89,1-4.33,3-4.33,5,0,2.2,1.56,3.39,4.52,3.57.27,0,.38.07.38.26a6,6,0,0,1-.19,1.46c0,.25-.12.36-.32.36-3,0-6.28-1.72-6.28-5.26,0-2.41,1.21-4,3.27-5.38Zm3.36,1.84c.09-.07.16-.05.26,0a7.9,7.9,0,0,1,1.61,1.82.17.17,0,0,1-.05.27l-.71.53a.18.18,0,0,1-.29-.05,8.46,8.46,0,0,0-1.72-2Zm1.51-1.11c.11-.07.16-.05.26,0a6.8,6.8,0,0,1,1.61,1.75.19.19,0,0,1,0,.3l-.68.53a.18.18,0,0,1-.29-.05,8,8,0,0,0-1.69-2Z"/><path class="cls-4" d="M202.16,274.11c0,1.56.68,2.17,2.26,2.17,2,0,3.1-.76,3.1-2.29,0-.95-.24-1.74-1.53-3.1a5.31,5.31,0,0,0,1.73-.1.42.42,0,0,1,.36.07,4.44,4.44,0,0,1,1.44,3.2c0,2.41-2,4-4.89,4s-4.29-1.36-4.29-3.84c0-.35,0-.83.12-1.6a12.53,12.53,0,0,1-2.31-.51c-.12,0-.17-.11-.19-.32a10.42,10.42,0,0,1,0-1.58,10.66,10.66,0,0,0,2.75.66c.09-.63.22-1.73.29-2.43a11.91,11.91,0,0,1-2.45-.47c-.2-.05-.27-.14-.27-.29,0-.41-.05-1-.05-1.58a14.1,14.1,0,0,0,3.08.64c.13-1,.18-1.44.22-1.95a8.51,8.51,0,0,0,0-1.43,9.46,9.46,0,0,1,2,.48c.24.08.38.23.38.39a.51.51,0,0,1-.14.32,1.75,1.75,0,0,0-.31.73c-.08.39-.18,1-.27,1.6a9.86,9.86,0,0,0,2.09-.1c.12,0,.17.08.17.2a7.8,7.8,0,0,1,0,1.28c0,.18-.07.23-.27.25a17.15,17.15,0,0,1-2.26.09c-.11.59-.28,1.75-.38,2.43.9,0,1.6,0,2.42-.05.22,0,.27,0,.27.18a11.83,11.83,0,0,1-.09,1.28c0,.2-.07.27-.24.27a25,25,0,0,1-2.6.05A11.29,11.29,0,0,0,202.16,274.11Z"/><path class="cls-4" d="M225.88,264.81c1.63,0,2.19,0,2.29,0s.19,0,.19.18,0,.33,0,.63v.48c0,1.14,0,1.32,0,1.43s0,.18-.19.18H227c-.17,0-.19,0-.19-.18v-1.26h-3.58a16.28,16.28,0,0,1-1.16,2.33h1.67c.13-.26.24-.53.35-.79a5,5,0,0,0,.28-1,13.19,13.19,0,0,1,1.37.3c.21.07.29.14.29.26s-.07.19-.17.29a1.53,1.53,0,0,0-.3.51l-.22.46h.61c1.31,0,1.73,0,1.83,0s.19,0,.19.19v1c0,.17,0,.19-.19.19s-.52,0-1.83,0h-.87v1.29h0c1.69,0,2.26,0,2.37,0s.18,0,.18.19v.91c0,.19,0,.21-.18.21s-.7,0-2.4,0v1.26h0c1.69,0,2.26,0,2.37,0s.2,0,.2.19v1c0,.15,0,.17-.2.17s-.7,0-2.4,0v1.36h1.21c1.41,0,1.85,0,1.95,0s.19,0,.19.19v1.05c0,.17,0,.19-.19.19s-.54,0-1.95,0h-4.69v.65c0,.17,0,.19-.19.19h-1.21c-.17,0-.19,0-.19-.19s0-.46,0-1.65v-4c0-.45,0-.89,0-1.31l-.68.74a.24.24,0,0,1-.2.12c-.07,0-.14-.06-.17-.23a6.19,6.19,0,0,0-.51-1.13v2.76c0,2.41,0,2.73,0,2.85s0,.17-.2.17h-1.09c-.17,0-.19,0-.19-.17v-.64h-1.3v1.36c0,.17,0,.18-.19.18H214.4c-.17,0-.18,0-.18-.18s0-.61,0-3v-2.31l-.66.95c-.12.15-.21.24-.29.24s-.14-.1-.17-.31a5.61,5.61,0,0,0-.46-1.51,11.46,11.46,0,0,0,2.5-5.66h-.12c-1.21,0-1.58,0-1.7,0s-.19,0-.19-.18v-1.24c0-.17,0-.19.19-.19s.49,0,1.7,0H217c1.22,0,1.59,0,1.7,0s.2,0,.2.19v.63c.19,0,.78,0,2.24,0H222a7.4,7.4,0,0,0,.35-1.94l1.57.26c.24.05.32.12.32.25s-.07.19-.19.32a3.9,3.9,0,0,0-.34,1l0,.14Zm-9.08.73a16.68,16.68,0,0,1-1.09,3.55h1.43c.76,0,1.09,0,1.19,0s.2,0,.2.19,0,.42,0,1.44a11.82,11.82,0,0,0,3-4.45h-1.37v1.34c0,.17,0,.19-.19.19h-1.16c-.17,0-.19,0-.19-.19s0-.29,0-1.46v-.55c-.12,0-.51,0-1.68,0Zm-1.05,5v3.78h1.3v-3.78Zm7.81.61v-1.29h-2v1.29Zm0,2.5v-1.26h-2v1.26Zm0,2.6v-1.36h-2v1.36Z"/><path class="cls-4" d="M234,265.91c1.3,0,1.71,0,1.81,0s.19,0,.19.19v1.2c0,.19,0,.21-.19.21s-.51,0-1.81,0h-2c-1.29,0-1.7,0-1.8,0s-.19,0-.19-.21v-1.2c0-.17,0-.19.19-.19s.51,0,1.8,0Zm1.46,9.66c0,2,0,2.29,0,2.4s0,.18-.17.18h-1.22c-.17,0-.19,0-.19-.18v-.46h-1.6v.78c0,.17,0,.19-.18.19h-1.21c-.19,0-.2,0-.2-.19s0-.46,0-2.52v-1.08c0-1.08,0-1.48,0-1.6s0-.19.2-.19.46,0,1.55,0h1.27c1.11,0,1.46,0,1.58,0s.17,0,.17.19,0,.51,0,1.31Zm-1.67-12c1.11,0,1.45,0,1.55,0s.19,0,.19.19v1.14c0,.17,0,.18-.19.18s-.44,0-1.55,0h-1.29c-1.1,0-1.44,0-1.55,0s-.18,0-.18-.18v-1.14c0-.17,0-.19.18-.19s.45,0,1.55,0Zm-.1,4.75c1,0,1.33,0,1.43,0s.2,0,.2.17v1.11c0,.17,0,.18-.2.18s-.41,0-1.43,0h-1.12c-1,0-1.34,0-1.45,0s-.18,0-.18-.18v-1.11c0-.15,0-.17.18-.17s.41,0,1.45,0Zm0,2.28c1,0,1.33,0,1.43,0s.2,0,.2.19v1.08c0,.17,0,.19-.2.19s-.41,0-1.43,0h-1.12c-1,0-1.34,0-1.45,0s-.18,0-.18-.19v-1.08c0-.17,0-.19.18-.19s.41,0,1.45,0Zm-1.38,3.73v1.75h1.6v-1.75Zm4.83-8.1c.09-.15.12-.18.29-.11.51.18,1,.39,1.56.62a7.13,7.13,0,0,0,.31-1.64h-2.53c-.17,0-.19,0-.19-.17v-1.17c0-.17,0-.19.19-.19s.61,0,2.14,0h3.77c1.53,0,2.06,0,2.16,0s.21,0,.21.21c0,.44,0,.85-.06,1.27a21.37,21.37,0,0,1-.47,4.74,1.73,1.73,0,0,1-1.92,1.28,6.22,6.22,0,0,1-.8-.05c-.34,0-.34,0-.43-.58a5.73,5.73,0,0,0-.3-1c-.09.14-.16.16-.29,0l-1-.66a7.08,7.08,0,0,1-2.68,2.48,1.1,1.1,0,0,1-.43.17c-.12,0-.19-.1-.36-.39a3.07,3.07,0,0,0-.76-.9,6.39,6.39,0,0,0,2.82-2.11,17.05,17.05,0,0,0-1.6-.71c-.15-.05-.15-.1-.05-.29Zm.63,7.14c.2.07.24.11.2.28a12.24,12.24,0,0,1-.88,3.36c-.07.17-.12.17-.32.07l-1-.48c-.2-.1-.19-.18-.12-.34a11.63,11.63,0,0,0,.87-3.09c0-.19.08-.17.3-.1Zm2.29,2.66c0,.35,0,.44.23.54s.23.1.62.1.62,0,.75-.2.27-.73.29-1.63a4.23,4.23,0,0,0,1.09.47c.42.15.42.15.39.6-.14,1.12-.32,1.63-.83,2a3,3,0,0,1-1.87.37A3.16,3.16,0,0,1,239,278c-.31-.19-.54-.51-.54-1.31v-2.82a12,12,0,0,0-.07-1.36c.54,0,1.1,0,1.56.1.26,0,.32.08.32.17a.85.85,0,0,1-.08.24,1.65,1.65,0,0,0-.09.71Zm-.05-5.39c.17-.14.21-.16.38,0a17.47,17.47,0,0,1,2,1.74.24.24,0,0,1,.09.15c0,.05-.06.1-.16.2l-.69.68c-.19.16-.23.19-.34.05a9.47,9.47,0,0,0-2-1.87c-.08-.05-.12-.08-.12-.13s.07-.1.16-.17Zm.94-5.54a9.91,9.91,0,0,1-.53,2.36c.39.2.78.42,1.16.64.15.09.13.14,0,.34l-.48.9a5.83,5.83,0,0,0,1.08.09.72.72,0,0,0,.73-.41,16.15,16.15,0,0,0,.35-3.92Zm3,7.78c.2-.1.24-.08.34.09a12.86,12.86,0,0,1,1.46,3.09c.05.17.05.2-.19.32l-.95.48c-.22.1-.25.1-.3-.07a12,12,0,0,0-1.43-3.25c-.09-.13-.05-.17.17-.27Z"/><path class="cls-4" d="M255.8,267c-2.08.39-3.9.75-5.72,1.12-.64.16-.81.19-1.07.27a.79.79,0,0,1-.37.14.39.39,0,0,1-.32-.25,12,12,0,0,1-.63-1.84,21.8,21.8,0,0,0,2.7-.29c2.09-.3,5.83-.87,10.22-1.44.25,0,.34.06.35.18a9.44,9.44,0,0,1,.19,1.5c0,.2-.1.25-.32.25a8,8,0,0,0-2.08.38c-2.89,1-4.33,3-4.33,5,0,2.2,1.56,3.39,4.52,3.57.27,0,.38.07.38.26a6,6,0,0,1-.19,1.46c-.05.25-.12.36-.32.36-3,0-6.28-1.72-6.28-5.26,0-2.41,1.21-4,3.27-5.38Zm3.36,1.84c.09-.07.16-.05.26,0a7.9,7.9,0,0,1,1.61,1.82.17.17,0,0,1,0,.27l-.71.53a.18.18,0,0,1-.29-.05,8.46,8.46,0,0,0-1.72-2Zm1.51-1.11c.11-.07.16-.05.26,0a6.8,6.8,0,0,1,1.61,1.75.19.19,0,0,1-.05.3l-.68.53a.18.18,0,0,1-.29-.05,8,8,0,0,0-1.69-2Z"/><path class="cls-4" d="M270,264.76a4.07,4.07,0,0,0-.6-1.09,12,12,0,0,1,2.06-.19c.24,0,.37.14.37.31s0,.22,0,.32a2.4,2.4,0,0,0,.07.51c.12.44.17.6.27.89a27.49,27.49,0,0,0,3.47-.9c.15-.07.24-.06.29.08.1.32.22.8.29,1.14a.27.27,0,0,1-.21.31c-1.14.35-2.17.61-3.33.86a14.72,14.72,0,0,0,.6,1.43,21.18,21.18,0,0,0,3.09-.88c.17-.09.25-.05.31.1a6.17,6.17,0,0,1,.3,1.12c0,.15,0,.24-.13.31a22.47,22.47,0,0,1-2.88.83,12.93,12.93,0,0,0,2.23,2.94c.17.15.17.22.08.41a4.65,4.65,0,0,1-.69,1.05c-.1.12-.17.17-.27.17a.42.42,0,0,1-.24-.1,4.15,4.15,0,0,0-1-.54,8.1,8.1,0,0,0-3.19-.55c-1.6,0-2.53.49-2.53,1.29,0,1.11,1.44,1.47,4,1.47.63,0,1.26-.07,1.87-.11.17,0,.22.09.21.22a11.71,11.71,0,0,1-.34,1.55c-.06.17-.12.24-.36.26s-.8,0-1.23,0c-3.9,0-6-1.11-6-3.2,0-1.82,1.56-3,4.22-3a7.82,7.82,0,0,1,2.92.43,20.44,20.44,0,0,1-1.41-2,39.75,39.75,0,0,1-4.66.51c-.19,0-.25-.07-.3-.24a7.58,7.58,0,0,1-.31-1.39,29.71,29.71,0,0,0,4.57-.42c-.17-.36-.42-.94-.64-1.41a29.7,29.7,0,0,1-4.13.4c-.21,0-.31-.06-.34-.23s-.17-.82-.28-1.36a30,30,0,0,0,4.24-.28C270.28,265.47,270.18,265.18,270,264.76Z"/><path class="cls-4" d="M288,271.39a31.41,31.41,0,0,1-3.5-.07c-.19,0-.26-.07-.28-.29a11.35,11.35,0,0,1-.1-1.44,24.45,24.45,0,0,0,3.83.13c0-.64,0-1.31,0-2a27.46,27.46,0,0,1-4.06-.09c-.19,0-.27-.07-.29-.24-.05-.42-.08-.83-.12-1.53a39,39,0,0,0,4.46.17c0-.62,0-1.07,0-1.64a4.89,4.89,0,0,0-.2-1.14,10,10,0,0,1,2.14.3.35.35,0,0,1,.19.51,2.25,2.25,0,0,0-.26.82c0,.34,0,.58,0,1.09a29.39,29.39,0,0,0,3.72-.51c.2-.05.27,0,.29.2a8.74,8.74,0,0,1,.08,1.24c0,.22,0,.26-.18.27a35.27,35.27,0,0,1-3.93.45c0,.67,0,1.3,0,1.92,1.29-.09,2.11-.26,3.33-.45.2-.05.25,0,.27.14,0,.32.05.88.05,1.39,0,.17-.07.22-.25.24a29.69,29.69,0,0,1-3.33.41c0,.78.06,1.61.11,2.4a15.26,15.26,0,0,1,4.51,2c.17.16.17.21.12.41a5.37,5.37,0,0,1-.75,1.26.27.27,0,0,1-.22.14.27.27,0,0,1-.19-.09,13.36,13.36,0,0,0-3.38-1.94c0,1.84-1.12,2.59-3.45,2.59s-3.47-1-3.47-2.38,1.34-2.42,3.4-2.42a15.94,15.94,0,0,1,1.63.07C288,272.66,288,272,288,271.39Zm-1.46,3.43c-1.25,0-1.84.36-1.84.9s.51.77,1.68.77a2.14,2.14,0,0,0,1.55-.51,1.61,1.61,0,0,0,.19-1A7.38,7.38,0,0,0,286.52,274.82Z"/><path class="cls-4" d="M305.67,264.61a5,5,0,0,0-.2-1.25c.77.06,1.58.16,2,.24s.48.17.48.33a.77.77,0,0,1-.16.39,1.67,1.67,0,0,0-.13.49c0,.22,0,.44,0,1.09,1.84-.07,3.59-.09,5.22-.09.21,0,.24,0,.26.26,0,.42,0,.86,0,1.29,0,.19-.09.24-.29.22-1.77-.05-3.42-.05-5.19,0,0,1,0,2.12,0,3.16a5.29,5.29,0,0,1,.25,1.68,6.33,6.33,0,0,1-3,5.49,1.58,1.58,0,0,1-.66.32,1,1,0,0,1-.51-.25,4,4,0,0,0-1.3-.68,5.68,5.68,0,0,0,3.49-3.74,2,2,0,0,1-1.6.68,2.35,2.35,0,0,1-2.36-2.6,2.48,2.48,0,0,1,2.56-2.55,2.11,2.11,0,0,1,1.3.34c0-.6,0-1.17,0-1.73-2.14.11-4.54.32-5.88.51-.38.05-.65.2-.8.2s-.24-.07-.29-.24a10.77,10.77,0,0,1-.42-1.72,11.63,11.63,0,0,0,2.07-.06c1-.09,3.23-.22,5.27-.34C305.69,265.49,305.69,265.06,305.67,264.61Zm-2.17,6.88a1.05,1.05,0,0,0,1.09,1.16,1.09,1.09,0,0,0,1.15-1.18,1,1,0,0,0-1.12-1.09A1.08,1.08,0,0,0,303.5,271.49Z"/><path class="cls-4" d="M319.87,276.39a2.47,2.47,0,1,1-2.46-2.45A2.44,2.44,0,0,1,319.87,276.39Zm-3.88,0a1.42,1.42,0,1,0,1.42-1.42A1.4,1.4,0,0,0,316,276.39Z"/><path d="M258.3,177.44c4.75,7.57,8.23,15.88,13.31,23.25.24.35,1,0,1.29-.15,1.36-.8,3-1,4.35-1.83.3-.18.1-.28-.09-.35s-.79.13-1,.27c-1.36.79-3,1-4.35,1.83l1.28-.15c-5.08-7.38-8.56-15.69-13.31-23.26-.24-.38-1.59.17-1.45.39Z"/><path d="M261.54,174.6c5.3,7.7,9,16.34,13.94,24.24.27.42,1.68-.05,1.35-.58-5-7.9-8.65-16.54-13.94-24.24-.29-.42-1.7.07-1.35.58Z"/><path d="M264.62,182.33a2.19,2.19,0,0,1,.16-.3l-.08.14a4.32,4.32,0,0,1,.78-1l-.15.14a3.9,3.9,0,0,1,.51-.4c.11-.07.29-.25.25-.41s-.29-.22-.42-.23a2.14,2.14,0,0,0-.83.08l-.29.09a2.34,2.34,0,0,0-.47.25,4.87,4.87,0,0,0-1.62,1.81s0,.09-.08.14.09.27.21.32a.89.89,0,0,0,.32,0,1.88,1.88,0,0,0,.41,0,2.58,2.58,0,0,0,.85-.28,1,1,0,0,0,.45-.41Z"/><path d="M258.54,177.54a22.79,22.79,0,0,0,4.94-2.58c.07,0,.31-.17.27-.3s-.31-.12-.38-.12a3.15,3.15,0,0,0-1.59.42c-.69.44-1.38.87-2.09,1.27l-.56.3-.14.07h0l-.28.14-.56.25.05,0-.14.05-.28.1c-.11,0-1,.37-.68.58.13.1.41.06.56,0a3.87,3.87,0,0,0,.88-.2Z"/><path class="cls-7" d="M258.28,176.79c-21.84,8.3-32.87-25.13-12.39-34.86,8.7-3.66,22.26,1.09,25.47,10.53,3.51,10.64-3.9,18.53-12.1,23.71"/><path d="M258,176.44c-6.11,2.27-12.65,1.12-17.1-3.77A20.55,20.55,0,0,1,236,156.26c.87-6.36,5.28-12.63,11.65-14.47,7.6-2.2,17.26,1.24,21.58,7.9a15.51,15.51,0,0,1,.73,15c-2.35,4.83-6.68,8.4-11.13,11.23-.83.53.4.88.93.54,4.25-2.71,8.35-6.06,10.92-10.47a16.43,16.43,0,0,0,1.23-14.26c-3.15-8.07-13.07-12.2-21.27-11.38a18.47,18.47,0,0,0-15.5,13.27A21.3,21.3,0,0,0,238.49,172a16.46,16.46,0,0,0,8.35,5.92,18.55,18.55,0,0,0,11.74-.78c.94-.35.1-1-.6-.71Z"/><path class="cls-3" d="M259.49,171.44c-13.28,10.23-27.38-12.08-15-22.22,6.27-5.34,18-2.68,21.41,4.83,3.58,7.84-3.38,15-9.61,18.93"/><path d="M258.91,171.35a10,10,0,0,1-7.18,2.28,11.2,11.2,0,0,1-6-2.82,15.74,15.74,0,0,1-5.22-12.69A12.17,12.17,0,0,1,250.28,147c5.48-.9,12,1.62,14.63,6.65,4.16,7.82-2.82,15.22-9,19.18-.82.52.45.63.88.36,5.88-3.76,13-10.51,10.31-18.25-2.09-6.14-9-9.26-15.14-8.83a13.74,13.74,0,0,0-12.6,10.33A15.85,15.85,0,0,0,244,171a12,12,0,0,0,7.41,3.45,13.06,13.06,0,0,0,8.7-2.88c.63-.48-.81-.44-1.15-.18Z"/><path d="M242.73,157.89c.67,3.17,2.06,7.08,5.6,7.92a1.11,1.11,0,0,0,1-.27c.2-.23.16-.55-.17-.62-3.22-.77-4.41-4.57-5-7.42-.12-.59-1.57-.22-1.45.39Z"/><path d="M252.42,167.32a.93.93,0,0,0-.24.53.43.43,0,0,0,.21.33,1.64,1.64,0,0,0,.56.2,7.08,7.08,0,0,0,.79.09c.31,0,.63,0,.94,0a2.33,2.33,0,0,0,.53-.07,2.1,2.1,0,0,0,.49-.2c.06,0,.2-.12.18-.21s-.2-.09-.26-.1l-.69,0-.32,0h-.15c-.08,0,0,0,0,0h-.09a4.26,4.26,0,0,1-.49-.1h0l-.05,0-.08,0a.45.45,0,0,1-.14-.1l0,0a.3.3,0,0,1-.06-.26v.07a1,1,0,0,1,.21-.41c.07-.08-.07-.13-.11-.14a1,1,0,0,0-.46,0,1.39,1.39,0,0,0-.85.38Z"/><path class="cls-3" d="M251,209.47a120.05,120.05,0,0,1-10-6.73,32.13,32.13,0,0,0-3.67-2c-3.54-1.94-6.93-4.06-10.52-5.94-1.11-.57-3.55-2-4.66-2.5-.22-.09-.47-.15-.7-.23a1.54,1.54,0,0,0,.09-1.16c-.14-.7-.29-1.4-.44-2.1a44.35,44.35,0,0,0-1.46-6.07c-.72-1.92-.72-4.08-1.3-6a55.89,55.89,0,0,1-2-8.08c-.39-2.83-.58-6-1.62-8.64a17.24,17.24,0,0,1-1.66-5.93c0-1-.33-1.93-.42-2.92s-.09-1.92-.11-2.89a20.14,20.14,0,0,0-.6-3.32c-.19-1-.58-1.81-1.68-1.71a54.8,54.8,0,0,0-8.31,1.75c-2.11.54-4.16,1.24-6.25,1.85-4.43,1.3-9,2-13.5,3.25-3.61,1-7.23,1.93-10.88,2.74-4.26.95-8.59,1.6-12.76,2.9-4.77,1.49-9.68,2.45-14.45,4a29.4,29.4,0,0,0-4.09,1.4c-.78.37-2.62.49-2.7,1.62a8,8,0,0,0,.44,1.61c.14.71.26,1.42.41,2.13.23,1.08.43,2.2.65,3.29a83.74,83.74,0,0,1,1.42,8.81c.31,3.49,1.32,6.83,1.61,10.34.13,1.49.08,3,.3,4.47.37,2.43,1.11,4.83,1.6,7.24.42,2.09.88,4.08,1.44,6.12.18.66.32,1.34.51,2a25.29,25.29,0,0,1,.49,2.57,3,3,0,0,0,.75,1.64,1.58,1.58,0,0,0,1,.44c-.8.74-1.4,1.48-1.21,2.16a4.81,4.81,0,0,0,2.42,3.29c3.32,2.08,6.63,4.1,9.88,6.34a.06.06,0,0,1-.07,0,30.14,30.14,0,0,1,3.5,1.88c1.08.83,2.11,1.56,3.27,2.29,2.28,1.44,4.79,2.49,7.11,3.86.92.54,1.86.93,2.74,1.54a27.81,27.81,0,0,1,4.1,2.94,15.18,15.18,0,0,0,1.94,1.53,11,11,0,0,0,2.33,1.21,10.72,10.72,0,0,0,3.4.87c1.06,0,2.27-.93,3.26-1.32s2.36-.42,3.45-.91,2.45-.89,3.69-1.3c.76-.24.79-.54,1.29-1a4.72,4.72,0,0,1,1.6-.8c1.07-.4,2.19-.63,3.28-1a31.58,31.58,0,0,0,3.77-1.4c1.31-.58,2.48-1.42,3.73-2.1s2.54-1,3.77-1.65A27.51,27.51,0,0,1,220,228c1.22-.42,2.39-1,3.61-1.38,5-1.68,10-3.58,14.87-5.72a54.53,54.53,0,0,1,6.52-2.25c1.59-.47,3.09-1,4.65-1.57a15.24,15.24,0,0,0,3.33-1.22,3.59,3.59,0,0,0,1-2.16,12.33,12.33,0,0,0,.21-1.84C253.06,211.47,252.06,210.09,251,209.47Z"/><path class="cls-8" d="M139,162c.4-.41.93-.41,1.77-.53,1.61-.22,3.09-.91,4.7-1.15a36.12,36.12,0,0,0,8.06-2.18,40.56,40.56,0,0,1,6.64-1.66c3.39-.67,6.51-2.2,9.94-2.72,12.15-1.83,24.28-5.21,36.15-8.35,1-.26,2.57-.86,3.5-.36,1.91,1,2,4.43,2.51,6.24a58.81,58.81,0,0,1,1.11,6.36c1,6.6,2.69,12.73,4.2,19.17.3,1.27-.05,2.7.24,4.06s.84,2.88,1.13,4.35a15.16,15.16,0,0,0,.92,2.71c.69,1.69,1.27,4,2.7,5.25s3.92,2.24,5.71,3.08c2.07,1,3.59,2.66,5.59,3.76,2.3,1.26,4.35,2.71,6.64,4,3.38,1.9,6.2,4.76,9.79,6.29.8.33,2.93,1.13,3.41,1.9s0,2.36-.17,3.22c0-.07-4.94.95-5.38,1.08-1.91.59-3.77,1.33-5.66,2-3.05,1.08-6.5,1.59-9.43,2.91-4.71,2.11-9.1,4.86-13.8,7a38.2,38.2,0,0,1-7.25,2.52,32.55,32.55,0,0,0-6.91,2.75,96.87,96.87,0,0,1-10.69,3.87c-2.35.79-4.87,3.54-7.48,3.48-1.71,0-3.42-1.68-4.53-2.86-2-2.13-5.6-4-8.32-5.06a69.67,69.67,0,0,1-6.66-3.16c-2.38-1.25-4.34-3-6.67-4.31-2-1.13-4.15-2.18-6-3.46-3.11-2.14-6.41-4.24-6.92-8.21s-2-7.93-3.05-12a53.69,53.69,0,0,1-1.81-7.93c-.41-4.1-1.35-8.32-1.53-12.42-.16-3.69-1.22-7.08-2-10.7-.53-2.42-1.82-5.43-1-7.91A2.46,2.46,0,0,1,139,162Z"/><path class="cls-3" d="M143.2,165.9c.77-.37,2.27-.23,3.07-.49,1.23-.39,2.37-1,3.59-1.42,2.51-.83,5-1.71,7.53-2.51,7.72-2.46,15.66-4,23.51-6,4.4-1.1,8.83-2,13.27-3,1.91-.4,3.9-.68,5.77-1.25s3.4-1.7,5.27-2c2.78-.42,3.16,3.25,3.95,5.07,2.42,5.6,1.51,11.72,3.51,17.4a54.13,54.13,0,0,1,2.17,7.9c.45,2.24,1.85,4.93,1.73,7.22-.1,2-3.06,2.37-4.85,2.94A146.24,146.24,0,0,1,193.16,195,94.3,94.3,0,0,0,183,197c-3.62,1.1-7.12,2.79-10.75,3.94-3.32,1-6.33,2.28-9.78,2.83-3.23.51-6.39,2.12-9.68,2.76-.58.12-1.51.34-2,0-.7-.53-1.24-3.5-1.37-4.43-.21-1.59,0-3.3-.4-4.86s-1.17-3.29-1.67-4.95c-.39-1.28-.43-2.72-.8-4-.67-2.38-1.38-4.83-2-7.3-.63-2.72-1.43-5.44-1.79-8.23-.21-1.66-1.57-5.51.27-6.69Z"/><path class="cls-9" d="M187.4,162.9c-.05,1.66.72,3.86,1,5.56.44,2.57,1.06,5.13,1.42,7.71s1.49,5.07,1.89,7.71c.36,2.38.33,3.15,3.05,2.5a51.94,51.94,0,0,0,7.64-2.75,62.73,62.73,0,0,1,6.22-1.86c.33-2.76-1.1-6.07-1.94-8.66-1.12-3.46-1.93-6.73-2.76-10.25-.27-1.16-.73-3.94-1.73-4.41-1.93-.91-5.92.85-7.85,1.26S190.41,161.56,187.4,162.9Z"/><path class="cls-10" d="M148.05,214h0a2.26,2.26,0,0,1-1.61-.63,3.57,3.57,0,0,1-.93-2c0-.23-.07-.46-.11-.7a15.92,15.92,0,0,0-.36-1.8c-.11-.38-.2-.75-.29-1.13s-.15-.6-.23-.89c-.53-1.94-1-3.9-1.45-6.16-.19-1-.43-1.92-.66-2.88-.35-1.43-.72-2.91-.94-4.39a26.57,26.57,0,0,1-.21-2.8c0-.57,0-1.14-.09-1.71a52.53,52.53,0,0,0-.81-5.22c-.32-1.66-.65-3.37-.81-5.11a86.23,86.23,0,0,0-1.4-8.75l-.24-1.23c-.14-.69-.27-1.38-.41-2q-.13-.61-.24-1.23c-.06-.3-.11-.6-.17-.9a3.38,3.38,0,0,0-.17-.51,3.32,3.32,0,0,1-.28-1.27c.08-1.27,1.44-1.66,2.35-1.91a4.64,4.64,0,0,0,.7-.24,21.5,21.5,0,0,1,3.15-1.12l1-.31c2.44-.77,4.94-1.41,7.36-2s4.76-1.21,7.09-1.94a86.91,86.91,0,0,1,8.83-2.09c1.33-.26,2.66-.53,4-.82,3.15-.7,6.5-1.55,10.85-2.73,2.07-.57,4.2-1,6.26-1.49,2.39-.53,4.86-1.07,7.23-1.76l2.21-.68c1.32-.4,2.68-.83,4.05-1.17l1.15-.3a45.8,45.8,0,0,1,7.26-1.47c1.24-.12,2.05.63,2.36,2.21.06.31.13.62.2.94a11.77,11.77,0,0,1,.41,2.49v.49c0,.8,0,1.56.1,2.35a9.51,9.51,0,0,0,.19,1.19,9.94,9.94,0,0,1,.23,1.78,14.27,14.27,0,0,0,1.32,5l.29.73a29,29,0,0,1,1.44,7c.07.6.14,1.19.22,1.76a47.28,47.28,0,0,0,1.67,6.83l.35,1.16a23.17,23.17,0,0,1,.57,2.8,16,16,0,0,0,.71,3.21,31,31,0,0,1,1.22,4.78l.27,1.38.45,2.1c.36,1.73-.63,2.27-1.77,2.72l-.35.13a7.81,7.81,0,0,0-.84.35,14.37,14.37,0,0,1-2.77,1l-1,.29a53.74,53.74,0,0,1-6,1.41,50.19,50.19,0,0,0-6.27,1.51c-1.17.4-2.37.75-3.52,1.08s-2.35.68-3.5,1.07a28.6,28.6,0,0,1-2.85.75l-.75.17c-.8.19-1.56.45-2.37.72s-1.63.55-2.48.75l-2.59.64c-1.9.47-3.87,1-5.86,1.3a64.17,64.17,0,0,0-8.19,2.09c-2,.6-4,1.11-5.92,1.61-2.37.6-4.82,1.22-7.16,2l-1.21.38a19.91,19.91,0,0,0-2.1.71c-.33.14-.64.31-1,.48a10,10,0,0,1-1.48.69c-.37.13-.76.24-1.15.35s-.75.2-1.11.33c-.16.06-.32.14-.49.22A3.37,3.37,0,0,1,148.05,214Zm62.33-70.16h-.13a45.44,45.44,0,0,0-7.07,1.43l-1.15.3c-1.34.34-2.68.76-4,1.16l-2.23.68c-2.41.71-4.9,1.25-7.31,1.78-2,.45-4.16.92-6.2,1.47-4.37,1.2-7.74,2-10.91,2.75-1.33.3-2.68.56-4,.83a85.77,85.77,0,0,0-8.7,2.06c-2.36.74-4.8,1.36-7.15,1.95s-4.89,1.24-7.29,2l-1,.32a19.36,19.36,0,0,0-3,1.06,5.93,5.93,0,0,1-.9.3c-.6.17-1.42.41-1.44.79a2.84,2.84,0,0,0,.21.76,5.37,5.37,0,0,1,.22.69c.06.31.11.62.17.92s.15.8.23,1.19c.15.69.28,1.39.42,2.09l.24,1.22a84.54,84.54,0,0,1,1.42,8.87c.15,1.68.48,3.37.79,5a51.2,51.2,0,0,1,.83,5.36c.05.59.07,1.18.09,1.77a25.38,25.38,0,0,0,.2,2.66c.22,1.42.57,2.87.92,4.27.24,1,.48,2,.67,2.93.45,2.24.91,4.17,1.43,6.08.09.31.16.62.23.93s.18.71.28,1.06a18.11,18.11,0,0,1,.4,2c0,.22.07.45.11.68a2.35,2.35,0,0,0,.56,1.29h0a1,1,0,0,0,.75.29h0a2.47,2.47,0,0,0,.92-.32,6.34,6.34,0,0,1,.61-.27c.39-.14.79-.25,1.2-.36s.72-.2,1.07-.32a10.86,10.86,0,0,0,1.3-.61c.35-.19.7-.37,1.06-.53a20.21,20.21,0,0,1,2.23-.76l1.17-.37c2.39-.8,4.86-1.43,7.25-2,1.93-.49,3.93-1,5.86-1.59a63.75,63.75,0,0,1,8.35-2.12c1.94-.33,3.89-.82,5.77-1.29l2.6-.64a23.51,23.51,0,0,0,2.36-.71,25,25,0,0,1,2.5-.76l.75-.17a23.74,23.74,0,0,0,2.73-.72c1.18-.39,2.38-.74,3.55-1.08s2.32-.68,3.47-1.06a47.38,47.38,0,0,1,6.43-1.56,54.13,54.13,0,0,0,5.83-1.37c.33-.11.67-.2,1-.3a13.58,13.58,0,0,0,2.54-.91,8.44,8.44,0,0,1,1-.41l.34-.13c1.12-.44,1.13-.62,1-1.29l-.44-2.1c-.1-.46-.19-.93-.28-1.39A30.23,30.23,0,0,0,219,183a17.37,17.37,0,0,1-.78-3.45,20.89,20.89,0,0,0-.53-2.64l-.35-1.16a48.79,48.79,0,0,1-1.71-7c-.08-.59-.15-1.19-.22-1.79a28.33,28.33,0,0,0-1.37-6.72l-.28-.72a15.14,15.14,0,0,1-1.41-5.42,9.68,9.68,0,0,0-.21-1.57,11.35,11.35,0,0,1-.21-1.3c-.08-.84-.09-1.66-.11-2.45v-.49a11.44,11.44,0,0,0-.38-2.23c-.07-.33-.15-.66-.21-1C211.05,144,210.72,143.87,210.38,143.87Z"/><path class="cls-10" d="M187.32,241.9a11,11,0,0,1-3.62-.92,11.29,11.29,0,0,1-2.46-1.28l-.23-.17a13,13,0,0,1-1.8-1.43,14.73,14.73,0,0,0-2.68-2c-.45-.28-.89-.56-1.33-.86a13.54,13.54,0,0,0-1.58-.91c-.37-.19-.75-.39-1.12-.61-1-.61-2.14-1.17-3.21-1.72-1.3-.66-2.64-1.35-3.91-2.15a39.18,39.18,0,0,1-3.32-2.32,10.4,10.4,0,0,0-2.05-1.14c-.46-.22-.93-.44-1.38-.7h0l-.14-.11c-2.68-1.83-5.45-3.57-8.13-5.24l-1.57-1a5.41,5.41,0,0,1-2.69-3.65,1.89,1.89,0,0,1,.31-2,1.29,1.29,0,0,1,1.47-.06,5.23,5.23,0,0,1,.67.41l.25.17,8.72,5.57c.5.32,1,.7,1.56,1.09a15.5,15.5,0,0,0,3.46,2.08,3.72,3.72,0,0,0,.51.12,2.72,2.72,0,0,1,1.25.48l.61.48a9.83,9.83,0,0,0,1.5,1.05l.62.33a17.57,17.57,0,0,1,2.21,1.28,3.1,3.1,0,0,1,.58.55,2.18,2.18,0,0,0,.25.28,2,2,0,0,0,.68.31l.43.15a8.2,8.2,0,0,1,1.76,1c.41.3.78.54,1.15.78s.92.59,1.37.93a8.27,8.27,0,0,0,.69.46,6.85,6.85,0,0,1,1.07.76,17,17,0,0,0,2.25,1.72l.6.39c2,1.3,3.91,2.53,6.12,2.82a4,4,0,0,0,2.54-1,12.11,12.11,0,0,1,3.09-1.38c.35-.11.69-.23,1-.35l15-5.6c.72-.27,1.4-.59,2.11-.93s1.44-.69,2.21-1a33.4,33.4,0,0,1,3.35-1l1.51-.4a33,33,0,0,0,6.23-2.53,13,13,0,0,1,2.51-.89,10.12,10.12,0,0,0,2.63-1,10.1,10.1,0,0,1,3.24-1.15c.35-.08.69-.15,1.05-.25a61.31,61.31,0,0,0,8-2.92,59,59,0,0,1,8.57-3.08c1.16-.29,3.83-1.43,4.08-2,0,0-.09-.07-.23-.14-.35-.17-.68-.36-1-.54a11.3,11.3,0,0,0-1.55-.79,13.85,13.85,0,0,1-3.38-2.22l-.17-.14a18.59,18.59,0,0,0-2.29-1.79c-1.36-.86-2.82-1.65-4.23-2.42l-1.91-1c-1.76-1-3.6-2.1-5.48-3.31-.77-.5-1.58-1-2.37-1.42s-1.79-1-2.67-1.61a18.41,18.41,0,0,0-3.43-1.64,21.81,21.81,0,0,1-3.12-1.43.62.62,0,0,1-.23-.85.64.64,0,0,1,.86-.23,22.08,22.08,0,0,0,3,1.35,19,19,0,0,1,3.67,1.76c.84.56,1.73,1.07,2.6,1.57s1.62.93,2.43,1.45c1.85,1.2,3.67,2.3,5.4,3.27l1.89,1c1.44.77,2.91,1.57,4.31,2.46a20.55,20.55,0,0,1,2.44,1.9l.17.14a12.09,12.09,0,0,0,3,2,12.4,12.4,0,0,1,1.71.87c.31.17.61.35.94.52a1.38,1.38,0,0,1,.93,1.32.67.67,0,0,1,.15.42,10.69,10.69,0,0,1-.22,2,3.76,3.76,0,0,1-1.24,2.56,8.93,8.93,0,0,1-2.58,1c-.32.09-.63.18-.9.28-.43.14-.86.3-1.29.45-1.09.38-2.22.78-3.39,1.12a52,52,0,0,0-6.44,2.23c-4.7,2.07-9.72,4-14.92,5.74-.6.2-1.2.44-1.79.68s-1.2.48-1.82.69L219,229a18.67,18.67,0,0,0-3.51,1.36,14.15,14.15,0,0,1-2,.89,15.38,15.38,0,0,0-1.75.76c-.46.25-.91.52-1.36.8a23.19,23.19,0,0,1-2.41,1.32,31.89,31.89,0,0,1-3.85,1.43c-.39.12-.79.22-1.18.33a20.65,20.65,0,0,0-2.06.62l-.18.06a3.52,3.52,0,0,0-1.21.61,4,4,0,0,0-.3.32,2.29,2.29,0,0,1-1.22.84l-.75.24a27.12,27.12,0,0,0-2.88,1,8.88,8.88,0,0,1-2,.54,8,8,0,0,0-1.53.38,9.92,9.92,0,0,0-1,.49,5.82,5.82,0,0,1-2.51.88ZM159.4,224.68c.37.21.76.39,1.15.57a12.32,12.32,0,0,1,2.27,1.29c1.17.89,2.16,1.59,3.22,2.25,1.23.77,2.55,1.44,3.82,2.1,1.09.55,2.21,1.12,3.27,1.75.36.21.72.39,1.07.58a13.78,13.78,0,0,1,1.72,1c.42.29.85.56,1.28.84a15.34,15.34,0,0,1,2.9,2.17,12.69,12.69,0,0,0,1.63,1.29l.24.17a10.12,10.12,0,0,0,2.19,1.13,10.29,10.29,0,0,0,3.16.83h0a4.77,4.77,0,0,0,1.91-.73c.37-.2.76-.4,1.12-.55a9.69,9.69,0,0,1,1.76-.45,7.71,7.71,0,0,0,1.67-.44,26.5,26.5,0,0,1,3-1.09l.74-.23a1.07,1.07,0,0,0,.65-.46c.11-.12.23-.26.39-.42a4.9,4.9,0,0,1,1.65-.88l.17-.06a20,20,0,0,1,2.18-.65l1.14-.32a29.53,29.53,0,0,0,3.7-1.38,20.27,20.27,0,0,0,2.27-1.24c.47-.29.93-.57,1.41-.83a16.36,16.36,0,0,1,1.9-.83,14.12,14.12,0,0,0,1.86-.81,19.13,19.13,0,0,1,3.74-1.47l1.16-.37c.6-.2,1.18-.43,1.76-.67s1.22-.49,1.85-.7c5.17-1.73,10.15-3.65,14.82-5.7a52.29,52.29,0,0,1,6.59-2.28c1.13-.34,2.2-.71,3.32-1.11l1.31-.45c.29-.1.61-.19,1-.29a8.49,8.49,0,0,0,2.21-.86,2.9,2.9,0,0,0,.72-1.75c0-.23.08-.44.11-.65a15.32,15.32,0,0,1-3.85,1.66,56.94,56.94,0,0,0-8.38,3,61.74,61.74,0,0,1-8.15,3c-.37.1-.74.18-1.09.26a8.61,8.61,0,0,0-2.86,1,11.28,11.28,0,0,1-3,1.15,11.48,11.48,0,0,0-2.27.8,34.5,34.5,0,0,1-6.47,2.61c-.51.15-1,.28-1.53.41a32.42,32.42,0,0,0-3.23,1,23,23,0,0,0-2.11.93c-.71.34-1.44.69-2.21,1l-15,5.6-1.06.36a10.85,10.85,0,0,0-2.7,1.17,5.1,5.1,0,0,1-3.49,1.28c-2.49-.32-4.6-1.69-6.64-3l-.6-.39a18.55,18.55,0,0,1-2.41-1.84,6.45,6.45,0,0,0-.89-.63,7.67,7.67,0,0,1-.79-.52c-.42-.32-.85-.6-1.29-.88s-.77-.5-1.16-.78a6.6,6.6,0,0,0-1.53-.93l-.36-.13a3,3,0,0,1-1.1-.55,5.14,5.14,0,0,1-.4-.41,1.62,1.62,0,0,0-.34-.35,18.25,18.25,0,0,0-2.07-1.19l-.64-.34a10.37,10.37,0,0,1-1.68-1.17l-.59-.46a1.66,1.66,0,0,0-.72-.25,5.07,5.07,0,0,1-.7-.17,16,16,0,0,1-3.77-2.25c-.52-.37-1-.73-1.51-1l-8.72-5.57-.29-.2a4.32,4.32,0,0,0-.48-.31l-.12,0a1.66,1.66,0,0,0,.07.64,4.25,4.25,0,0,0,2.16,2.93l1.56,1c2.75,1.71,5.58,3.48,8.33,5.38Z"/><path class="cls-10" d="M151.34,208a2.06,2.06,0,0,1-1.23-.35h0a.8.8,0,0,1-.23-.22,3.92,3.92,0,0,1-.59-1.88l0-.34c-.14-.84-.24-1.69-.35-2.54-.14-1.16-.29-2.37-.53-3.52s-.51-2.05-.79-3.05c-.36-1.3-.73-2.64-1-4-.71-4.15-1.53-8.34-2.32-12.41-.44-2.26-.88-4.53-1.3-6.8-.19-1-.4-2-.62-2.92s-.38-1.75-.55-2.63a2.32,2.32,0,0,1,1.16-2.82,4.2,4.2,0,0,1,1.46-.4l.44-.08c1-.19,2-.46,2.92-.72l.6-.17c2.42-.65,4.87-1.41,7.24-2.15l4.26-1.31c1.1-.32,2.2-.68,3.29-1,.87-.28,1.73-.56,2.6-.82l.87-.28c.65-.22,1.32-.44,2-.6a13.91,13.91,0,0,1,2.29-.24,13,13,0,0,0,1.56-.12,31.22,31.22,0,0,0,4.44-1.08,36.85,36.85,0,0,1,4.14-1c1.16-.2,2.33-.46,3.47-.71l2.33-.49,3-.56c2.92-.54,5.94-1.11,8.81-1.94l1.56-.46c1-.31,2-.61,3.07-.89.2-.06.47-.16.77-.27,1.39-.51,3.29-1.22,4.28-.14a6.5,6.5,0,0,1,1.25,3.76,13.3,13.3,0,0,0,.22,1.44c.23,1,.43,1.91.63,2.9.34,1.65.79,3.3,1.23,4.9q.3,1.09.6,2.22c.63,2.46,1.17,5.06,1.62,8,.18,1.07.44,2.16.7,3.21a37.2,37.2,0,0,1,.8,3.89c.17,1.37.47,2.78.76,4.14l.2,1c.07.3.14.59.2.87a6.09,6.09,0,0,1,.1,3.65.62.62,0,0,1-.49.42,1.19,1.19,0,0,0-.41.19l-.21.13a12.68,12.68,0,0,1-3,1.24,18.16,18.16,0,0,1-1.87.37,15,15,0,0,0-1.93.39l-1.15.34a20.77,20.77,0,0,1-2.87.75c-1.34.24-2.66.59-3.95.94s-2.55.69-3.87.92c-.49.1-1,.16-1.49.22a15.64,15.64,0,0,0-2.54.48c-.63.19-1.26.44-1.87.68s-1.34.53-2.05.75c-2.64.8-5.31,1.66-7.89,2.49l-1.78.58c-1.18.38-2.37.72-3.56,1.07-1.79.51-3.63,1-5.38,1.69-1.59.58-3.25,1-4.86,1.43-1.12.28-2.27.58-3.38.93a9.21,9.21,0,0,1-1.61.3l-.67.08a5.55,5.55,0,0,0-1.11.37,8.06,8.06,0,0,1-1.14.4,7.25,7.25,0,0,0-1.14.38c-.34.13-.69.26-1,.36a10,10,0,0,0-.94.35A9.28,9.28,0,0,1,151.34,208Zm-.49-1.36c.59.36,2.24-.3,3.14-.66.41-.16.78-.3,1-.38s.63-.21.94-.33a10.6,10.6,0,0,1,1.31-.44,5.9,5.9,0,0,0,.94-.33,6.27,6.27,0,0,1,1.39-.44l.72-.1a7.23,7.23,0,0,0,1.39-.25c1.14-.35,2.31-.66,3.44-.95a48.56,48.56,0,0,0,4.74-1.39c1.79-.65,3.65-1.19,5.46-1.72,1.18-.34,2.36-.68,3.52-1.06l1.78-.57c2.59-.83,5.26-1.7,7.92-2.5.65-.2,1.28-.45,1.95-.71s1.29-.51,2-.72a16.83,16.83,0,0,1,2.75-.52c.48-.06.95-.12,1.43-.21,1.27-.23,2.54-.57,3.76-.9s2.67-.72,4.06-1a20.6,20.6,0,0,0,2.72-.72l1.17-.35a18,18,0,0,1,2.09-.42c.6-.1,1.18-.19,1.74-.34a11.74,11.74,0,0,0,2.7-1.13l.17-.1a3.13,3.13,0,0,1,.45-.24,5.5,5.5,0,0,0-.21-2.65c-.08-.3-.15-.6-.21-.92l-.21-1c-.29-1.39-.6-2.82-.78-4.24a33.67,33.67,0,0,0-.77-3.75c-.26-1.08-.53-2.19-.71-3.32-.45-2.85-1-5.42-1.61-7.84-.19-.74-.39-1.47-.59-2.2-.44-1.62-.9-3.29-1.25-5-.19-1-.39-1.91-.62-2.86a13.21,13.21,0,0,1-.24-1.59,5.52,5.52,0,0,0-.94-3c-.42-.46-2.1.16-2.91.46-.35.13-.65.24-.88.31-1,.27-2,.57-3,.88L199,152a90.85,90.85,0,0,1-8.93,2l-2.94.56c-.77.15-1.54.32-2.31.49-1.14.25-2.33.51-3.52.71a37.16,37.16,0,0,0-4,1,33.34,33.34,0,0,1-4.61,1.12A16.44,16.44,0,0,1,171,158a12.38,12.38,0,0,0-2.06.22,18.7,18.7,0,0,0-1.9.56l-.89.28-2.58.83c-1.11.36-2.21.71-3.32,1-1.42.42-2.83.86-4.25,1.3-2.38.74-4.84,1.5-7.29,2.16l-.59.16c-1,.27-2,.55-3,.75l-.5.08a3.23,3.23,0,0,0-1,.27c-.6.33-.71.63-.54,1.48s.36,1.74.55,2.6.43,2,.62,3c.42,2.27.86,4.53,1.3,6.79.79,4.07,1.61,8.28,2.32,12.44.23,1.32.6,2.63.95,3.9.29,1,.58,2.07.81,3.13s.4,2.44.55,3.63c.1.83.2,1.66.34,2.48,0,.12,0,.24.05.38A3.69,3.69,0,0,0,150.85,206.68Z"/><path class="cls-10" d="M191.63,188.54a1.82,1.82,0,0,1-1.31-.42,3.84,3.84,0,0,1-.68-1.88l0-.24c-.11-.48-.18-1-.25-1.47s-.14-1-.24-1.44a24,24,0,0,1-.42-4.33c0-1-.08-2-.21-3a9.56,9.56,0,0,0-.61-2.12,12.83,12.83,0,0,1-.62-2.08,7.2,7.2,0,0,1-.11-1,6.88,6.88,0,0,0-.1-.9c-.11-.59-.16-1.18-.21-1.76a12.08,12.08,0,0,0-.34-2.26q-.12-.5-.21-1a6.44,6.44,0,0,0-.27-1.13c0-.11-.07-.21-.09-.3-.34-1.21.43-1.59,1.18-2,1.44-.71,3-1.31,4.55-1.89l.36-.14a16.09,16.09,0,0,1,1.73-.5c.44-.11.88-.21,1.32-.36s.75-.26,1.11-.39a30.24,30.24,0,0,1,2.92-.9l.68-.16a10.65,10.65,0,0,1,1.9-.37,4.13,4.13,0,0,1,.5,0,1.44,1.44,0,0,0,.53,0,.86.86,0,0,1,.63,0c.44.25.82.82,1.72,6,0,.3.08.51.1.58a52.4,52.4,0,0,0,2.37,7.67,29.55,29.55,0,0,1,2.21,8.23c.06.64.17,1.3.29,2a3,3,0,0,0,.13.39,2.42,2.42,0,0,1,.23,1c-.09,1.22-1.31,1.32-2,1.38a3.37,3.37,0,0,0-.48.05l-.28.06a47.07,47.07,0,0,0-6.7,1.83l-1.36.55a30.24,30.24,0,0,1-4.14,1.45l-.6.16A12.77,12.77,0,0,1,191.63,188.54Zm-4.55-25.89a1,1,0,0,1,0,.17h0c0,.06,0,.14.07.22a9.19,9.19,0,0,1,.31,1.31c.06.3.11.59.19.88a13.2,13.2,0,0,1,.38,2.49c0,.57.1,1.11.2,1.64.06.35.08.7.11,1a8.75,8.75,0,0,0,.09.88,10.61,10.61,0,0,0,.57,1.88,11,11,0,0,1,.67,2.39c.14,1.06.18,2.12.22,3.15a23.16,23.16,0,0,0,.39,4.1c.11.51.19,1,.26,1.53s.14.93.23,1.38l.06.28a4.63,4.63,0,0,0,.33,1.23c.27.18,1.39,0,3.3-.55l.65-.18a30.15,30.15,0,0,0,4-1.39l1.38-.56a47.45,47.45,0,0,1,6.88-1.88l.28-.06a5.58,5.58,0,0,1,.64-.08c.69-.06.81-.12.82-.23a2.24,2.24,0,0,0-.15-.5,4.12,4.12,0,0,1-.19-.61c-.13-.71-.25-1.4-.31-2.09a28.83,28.83,0,0,0-2.13-7.89,53.58,53.58,0,0,1-2.42-7.85c0-.08-.06-.31-.12-.63a32.88,32.88,0,0,0-1.08-5,4.1,4.1,0,0,1-.6,0,2.16,2.16,0,0,0-.36,0,10,10,0,0,0-1.7.33l-.7.17a24.09,24.09,0,0,0-2.78.87l-1.13.39c-.47.16-1,.27-1.43.39s-1.08.27-1.58.45l-.36.14c-1.5.57-3.05,1.16-4.44,1.84A3.53,3.53,0,0,0,187.08,162.65Z"/><path class="cls-10" d="M187.94,229.86a3.16,3.16,0,0,1-1.25-.24l-1-.38A15.26,15.26,0,0,1,183,228c-.48-.3-1-.54-1.47-.8s-.83-.42-1.23-.66a6.92,6.92,0,0,1-1.12-.83,8.8,8.8,0,0,0-.8-.63c-.77-.49-1.54-1-2.32-1.41-1.09-.66-2.22-1.33-3.31-2.08-.75-.52-1.52-1-2.29-1.5l-.93-.6a6.62,6.62,0,0,0-.8-.39,5.19,5.19,0,0,1-1.1-.56,6,6,0,0,1-.81-.72,3.91,3.91,0,0,0-.82-.68l-.23-.13c-.89-.51-2-1.15-1.9-2.06h0c.09-.75.93-1.05,1.2-1.15l3.48-1.18c1.56-.52,3.12-1,4.68-1.61l3.28-1.18,4.1-1.48a34.84,34.84,0,0,1,3.93-1.1c.72-.17,1.43-.34,2.13-.54,2.51-.69,5-1.41,7.52-2.13l.55-.16c1.11-.32,2.22-.69,3.31-1.05,1.27-.43,2.58-.86,3.9-1.22s2.64-.67,3.93-1l2.64-.64c1.11-.28,2.25-.54,3.39-.79,2-.44,4-.89,5.95-1.51.23-.07.48-.17.74-.27a5.06,5.06,0,0,1,3.33-.48,4.14,4.14,0,0,1,1.35.92,5.15,5.15,0,0,0,.52.43c1.11.81,2.23,1.5,3.42,2.23l.33.2a15.87,15.87,0,0,1,1.82,1.39,12.44,12.44,0,0,0,1.9,1.41,37.85,37.85,0,0,1,4.81,3.34c.22.17.41.35.61.53a5,5,0,0,0,.9.71,2.75,2.75,0,0,0,.34.16c.48.21,1.15.49,1.35,1.12a1.14,1.14,0,0,1-.07.94c-.34.66-1.24.92-1.9,1.11l-.3.09a24.68,24.68,0,0,0-2.72,1.21c-.74.36-1.5.74-2.29,1.05a99.21,99.21,0,0,1-10,3.54,33,33,0,0,0-3.6,1.32c-.81.33-1.65.68-2.51,1l-2.68.91c-2,.66-4,1.35-5.95,2.12a80.81,80.81,0,0,1-9.85,3.37l-.85.21c-.58.13-1.13.26-1.68.44a6.74,6.74,0,0,0-1.28.6c-.35.19-.7.38-1.08.54l-.74.32A10,10,0,0,1,187.94,229.86Zm-22.73-14.71a7,7,0,0,0,1.2.81l.25.14a5.29,5.29,0,0,1,1.07.88,4.41,4.41,0,0,0,.64.57,4.72,4.72,0,0,0,.87.44,7,7,0,0,1,1,.49l.92.59c.78.5,1.56,1,2.33,1.53,1.05.72,2.17,1.39,3.24,2,.79.47,1.58.94,2.36,1.44a9.94,9.94,0,0,1,.93.72,6.56,6.56,0,0,0,.93.71c.39.22.78.42,1.18.62s1,.53,1.56.85a13.13,13.13,0,0,0,2.44,1.09l1,.4c1.1.45,2.76-.29,4.09-.88.27-.13.53-.24.77-.34a10.56,10.56,0,0,0,.95-.48,9.12,9.12,0,0,1,1.51-.7c.59-.18,1.19-.33,1.78-.46l.82-.2a82.5,82.5,0,0,0,9.7-3.32c2-.79,4-1.48,6-2.15l2.67-.91c.82-.28,1.65-.62,2.44-1a32.75,32.75,0,0,1,3.75-1.37,96.83,96.83,0,0,0,9.91-3.5c.74-.29,1.48-.65,2.2-1a25.28,25.28,0,0,1,2.86-1.26l.36-.11c.25-.08,1-.3,1.15-.5-.08-.06-.48-.23-.67-.32a4.45,4.45,0,0,1-.48-.22,6.42,6.42,0,0,1-1.12-.88,5.82,5.82,0,0,0-.53-.46,35.85,35.85,0,0,0-4.65-3.23,13.79,13.79,0,0,1-2.1-1.56,14.74,14.74,0,0,0-1.67-1.27l-.33-.2c-1.21-.75-2.35-1.45-3.5-2.28a5.8,5.8,0,0,1-.61-.52,3.31,3.31,0,0,0-.94-.66,4,4,0,0,0-2.46.46c-.28.11-.55.21-.8.29-2,.64-4.05,1.1-6.07,1.55-1.13.25-2.25.5-3.35.77-.89.23-1.78.44-2.67.65-1.28.3-2.6.61-3.88,1s-2.58.78-3.84,1.2c-1.09.36-2.22.74-3.35,1.06l-.55.16c-2.51.72-5,1.45-7.53,2.14-.72.2-1.44.37-2.17.55a31.8,31.8,0,0,0-3.8,1.06l-4.1,1.48-3.28,1.18c-1.57.57-3.14,1.1-4.72,1.62-1.15.39-2.3.77-3.45,1.18Z"/><path class="cls-10" d="M171.87,220.5a.63.63,0,0,1-.23-1.21,7.41,7.41,0,0,1,.8-.25,6.24,6.24,0,0,0,.8-.26,4.79,4.79,0,0,0,.58-.33,4.4,4.4,0,0,1,1-.52,3.64,3.64,0,0,1,.8-.14,2.52,2.52,0,0,0,.47-.06,20.52,20.52,0,0,0,3.68-1.4c.83-.38,1.68-.77,2.56-1.08l1.8-.65c1.35-.49,2.74-1,4.13-1.43,2.49-.8,5-1.51,7.52-2.2,1.79-.5,3.58-1,5.35-1.53,3.13-.93,6.24-2.07,9.25-3.17,2.78-1,5.65-2.07,8.56-3,1.92-.59,3.89-1.36,5.8-2.1l.29-.11a.63.63,0,0,1,.45,1.17l-.29.11c-1.93.75-3.92,1.52-5.88,2.13-2.87.89-5.74,1.93-8.5,2.95-3,1.1-6.16,2.25-9.32,3.2-1.78.53-3.58,1-5.37,1.53-2.46.68-5,1.39-7.48,2.18-1.36.43-2.74.93-4.08,1.42l-1.82.65c-.82.29-1.65.67-2.45,1a21.14,21.14,0,0,1-3.91,1.48,4.84,4.84,0,0,1-.65.09,2.58,2.58,0,0,0-.53.08,3.5,3.5,0,0,0-.76.4,5.8,5.8,0,0,1-.73.4,7.06,7.06,0,0,1-1,.33,5.89,5.89,0,0,0-.68.21A.57.57,0,0,1,171.87,220.5Z"/><path class="cls-10" d="M179,226.08a.62.62,0,0,1-.54-.27.71.71,0,0,1,.18-.88h0a.12.12,0,0,0,0,0,.6.6,0,0,1,.47-.23c1-.47,2.06-.85,3.07-1.23l.9-.33c.56-.21,1.1-.45,1.64-.68a18.28,18.28,0,0,1,3.54-1.24,21.31,21.31,0,0,0,3.55-1.22c.76-.32,1.55-.64,2.34-.9,1.23-.4,2.45-.85,3.64-1.29,1.93-.71,3.94-1.44,6-2,3-.78,6-1.8,8.9-2.78,1.33-.46,2.66-.91,4-1.34,1.07-.34,2.12-.72,3.17-1.1,1.55-.56,3.16-1.14,4.8-1.6a11,11,0,0,0,1.86-.78c.45-.22.92-.45,1.41-.64.67-.26,1.37-.48,2.06-.7a23.51,23.51,0,0,0,2.65-1,.63.63,0,0,1,.52,1.15,25.78,25.78,0,0,1-2.79,1c-.67.21-1.34.43-2,.68-.44.17-.86.37-1.3.59a11.68,11.68,0,0,1-2.08.87c-1.6.45-3.18,1-4.72,1.57-1.06.38-2.12.76-3.2,1.11-1.33.43-2.65.88-4,1.33-2.92,1-5.94,2-9,2.82-2,.52-4,1.25-5.9,1.95-1.19.44-2.43.89-3.68,1.3-.74.24-1.48.55-2.26.87a21.68,21.68,0,0,1-3.76,1.29,16.2,16.2,0,0,0-3.3,1.16c-.56.24-1.12.48-1.7.7l-.9.34c-1.15.42-2.23.82-3.3,1.33A.71.71,0,0,1,179,226.08Zm-.44-1.05Zm0,0Z"/><path class="cls-10" d="M197.78,226.45a.54.54,0,0,1-.3-.08c-.69-.39-1.35-.84-2-1.27s-1.1-.76-1.66-1.09a59.17,59.17,0,0,0-5.28-2.7l-1.09-.5c-1.92-.89-3.73-1.72-5.66-2.49a21.93,21.93,0,0,1-3.1-1.66l-.33-.21a11,11,0,0,1-2.33-1.74,4.53,4.53,0,0,0-1.76-1l-.41-.16-1.61-.61a.6.6,0,0,1-.38-.3.63.63,0,0,1,.24-.86c.28-.15.28-.15,2.21.61l.39.14a5.64,5.64,0,0,1,2.22,1.26,9.71,9.71,0,0,0,2.08,1.55l.34.21a21,21,0,0,0,2.9,1.57c2,.78,3.87,1.66,5.72,2.51l1.09.5a58,58,0,0,1,5.4,2.76c.6.36,1.17.75,1.73,1.13s1.24.86,1.88,1.22a.62.62,0,0,1-.31,1.17Z"/><path class="cls-10" d="M209.32,222.42a.62.62,0,0,1-.29-.07,1.39,1.39,0,0,0-.43-.09,2.65,2.65,0,0,1-.83-.18,4.65,4.65,0,0,1-.92-.58l-.34-.24a20.71,20.71,0,0,0-3.29-1.67,26.17,26.17,0,0,1-2.87-1.4c-.87-.51-1.73-.95-2.65-1.41l-1.14-.58a12.23,12.23,0,0,1-1.31-.84,9.61,9.61,0,0,0-1.22-.78c-1.12-.57-2.32-1.09-3.47-1.59s-2-.88-3.05-1.37a17.49,17.49,0,0,0-1.81-.72,17.78,17.78,0,0,1-1.92-.76,10.07,10.07,0,0,0-1.92-.71.62.62,0,0,1-.45-.76.63.63,0,0,1,.77-.45,11.83,11.83,0,0,1,2.15.79,15.88,15.88,0,0,0,1.79.71,19.54,19.54,0,0,1,1.94.77c1,.48,2,.92,3,1.35,1.17.51,2.38,1,3.54,1.63a11,11,0,0,1,1.37.86,8.86,8.86,0,0,0,1.17.75l1.13.58c.89.45,1.81.92,2.71,1.45a25.73,25.73,0,0,0,2.74,1.33,22.34,22.34,0,0,1,3.48,1.77l.39.28a3.88,3.88,0,0,0,.68.44,1.89,1.89,0,0,0,.45.09,2.29,2.29,0,0,1,.89.21.63.63,0,0,1-.29,1.19Z"/><path class="cls-10" d="M218.7,219.6a.59.59,0,0,1-.34-.1c-2.1-1.34-4.17-2.56-6.17-3.61-.79-.42-1.58-.8-2.37-1.19l-.9-.43a12.45,12.45,0,0,1-1.68-1,13.32,13.32,0,0,0-1.78-1l-.13-.07-.76-.39a15.62,15.62,0,0,0-1.66-.78,30.61,30.61,0,0,1-6.48-3.57,21.49,21.49,0,0,0-2.27-1.38.63.63,0,1,1,.59-1.11,22.17,22.17,0,0,1,2.39,1.46,30,30,0,0,0,6.2,3.43,16,16,0,0,1,1.81.84c.24.13.48.26.73.38l.14.06a14.39,14.39,0,0,1,1.94,1.1,10.59,10.59,0,0,0,1.52.93l.88.44c.81.39,1.61.78,2.41,1.2,2,1.07,4.14,2.3,6.27,3.66a.64.64,0,0,1,.19.87A.63.63,0,0,1,218.7,219.6Z"/><path class="cls-10" d="M226.86,216.43c-.43,0-1-.4-1.82-1a5.25,5.25,0,0,0-.58-.39c-.32-.17-.66-.32-1-.47a10.65,10.65,0,0,1-1.66-.82c-1.18-.76-2.29-1.64-3.37-2.49a38.59,38.59,0,0,0-3.73-2.71,36.08,36.08,0,0,1-3.6-2.58,34.1,34.1,0,0,0-3.81-2.69c-.23-.13-.47-.29-.72-.46a4.81,4.81,0,0,0-.94-.57.62.62,0,0,1-.37-.8.63.63,0,0,1,.8-.38,6.5,6.5,0,0,1,1.22.71c.22.15.43.3.63.41a35.66,35.66,0,0,1,4,2.79,35.6,35.6,0,0,0,3.48,2.5,39.25,39.25,0,0,1,3.86,2.8,40.47,40.47,0,0,0,3.27,2.41,8.76,8.76,0,0,0,1.47.73c.37.16.74.32,1.09.5.14.07.41.27.73.49a13,13,0,0,0,1.09.73.66.66,0,0,1,.46.16.64.64,0,0,1,0,.89A.65.65,0,0,1,226.86,216.43Z"/><path class="cls-10" d="M234.84,213.49a.61.61,0,0,1-.34-.1c-.46-.29-.91-.61-1.35-.93s-1-.67-1.45-1a6.4,6.4,0,0,0-1.27-.58,9.57,9.57,0,0,1-1.1-.47,14.64,14.64,0,0,1-3.63-2.71c-.94-.9-1.93-1.76-2.69-2.41a20.23,20.23,0,0,0-3.92-2.34l-.26-.13-1.32-.68c-.62-.32-1.23-.64-1.86-.94l-.49-.27a11.08,11.08,0,0,0-1-.53.63.63,0,0,1-.49-.14.62.62,0,0,1-.09-.88c.44-.54,1.11-.17,2.21.46l.42.23c.64.3,1.27.63,1.9,1,.44.23.87.46,1.31.67l.25.13a20.44,20.44,0,0,1,4.17,2.51c.77.66,1.78,1.53,2.74,2.45a13.55,13.55,0,0,0,3.34,2.51c.32.16.65.28,1,.41a7.64,7.64,0,0,1,1.49.69c.51.32,1,.67,1.5,1s.87.61,1.31.9a.64.64,0,0,1,.19.87A.63.63,0,0,1,234.84,213.49ZM214.53,200.2Zm0,0h0Z"/><path class="cls-10" d="M177.07,223.55a.63.63,0,0,1-.22-1.22,20.84,20.84,0,0,0,2.7-1.3l.87-.48a31,31,0,0,1,3.62-1.69c.93-.33,1.89-.59,2.82-.83s1.85-.49,2.75-.81c2.11-.77,4.28-1.46,6.37-2.13,1.18-.38,2.37-.76,3.55-1.16.77-.25,1.55-.48,2.34-.71a30.11,30.11,0,0,0,4.08-1.38l.77-.34a42.75,42.75,0,0,1,5.44-2.15l1.71-.5a45.64,45.64,0,0,0,4.73-1.51l1.54-.62c1.35-.55,2.75-1.12,4.17-1.61a19,19,0,0,0,2.5-1.12c.71-.36,1.45-.73,2.22-1a.63.63,0,0,1,.81.36.61.61,0,0,1-.36.81c-.71.28-1.39.62-2.11,1a22,22,0,0,1-2.65,1.19c-1.38.47-2.77,1-4.11,1.58l-1.54.63a48.06,48.06,0,0,1-4.86,1.55l-1.69.49a40.13,40.13,0,0,0-5.29,2.1l-.77.34a33.09,33.09,0,0,1-4.24,1.44c-.77.22-1.54.44-2.29.69-1.19.4-2.38.78-3.57,1.16-2.08.67-4.23,1.36-6.33,2.12-.94.34-1.91.59-2.85.84s-1.83.48-2.71.8a27.5,27.5,0,0,0-3.46,1.62l-.86.47a23.05,23.05,0,0,1-2.87,1.38A.78.78,0,0,1,177.07,223.55Z"/><path class="cls-10" d="M167.36,217.87a.63.63,0,0,1-.19-1.23c.87-.28,1.72-.58,2.57-.88l.7-.24c.45-.16.91-.3,1.37-.45.72-.22,1.41-.44,2.08-.71,1.24-.51,2.52-1,3.76-1.38.66-.23,1.32-.45,2-.69,2-.73,4.09-1.27,6.11-1.8,1.32-.35,2.69-.71,4-1.11l2.76-.86c2-.63,4-1.27,6.09-1.83l1.06-.28a72.41,72.41,0,0,0,8-2.49c2.47-1,5.06-1.83,7.55-2.65,1.12-.37,2.23-.73,3.34-1.11a8.42,8.42,0,0,0,1.15-.53,10.56,10.56,0,0,1,1.12-.53,5.76,5.76,0,0,1,.93-.26,3,3,0,0,0,1.08-.39.63.63,0,1,1,.71,1,4.07,4.07,0,0,1-1.52.58,5.65,5.65,0,0,0-.75.21,9,9,0,0,0-1,.47,10.14,10.14,0,0,1-1.33.61c-1.11.38-2.23.74-3.35,1.11-2.48.81-5,1.65-7.47,2.63a73.32,73.32,0,0,1-8.09,2.53l-1.06.28c-2,.55-4.07,1.19-6.05,1.81l-2.77.87c-1.35.41-2.73.77-4.06,1.12-2,.52-4.05,1.06-6,1.77l-2,.7c-1.23.42-2.49.85-3.7,1.35-.72.29-1.46.53-2.18.75l-1.33.43-.69.25c-.87.3-1.73.61-2.61.89A.63.63,0,0,1,167.36,217.87Z"/><path class="cls-10" d="M184.33,227.8a.63.63,0,0,1-.2-1.22c.49-.17,1-.31,1.5-.45s.93-.25,1.38-.4c1.05-.36,2.09-.83,3.09-1.28a31.8,31.8,0,0,1,3.89-1.54l1.76-.51a67.8,67.8,0,0,0,7.18-2.37c1-.43,2.11-.83,3.17-1.23,1.21-.45,2.46-.91,3.66-1.43,3-1.29,6.14-2.62,9.3-3.68,1.12-.37,2.59-.85,4.12-1.24a26.8,26.8,0,0,0,3.46-1.24c.79-.33,1.62-.68,2.51-1l1.18-.38a24.68,24.68,0,0,0,3.66-1.39l1.72-.89a.63.63,0,0,1,.84.28.62.62,0,0,1-.27.84l-1.71.88a25.1,25.1,0,0,1-3.86,1.47l-1.16.38c-.85.29-1.66.62-2.43.94a27.45,27.45,0,0,1-3.62,1.3c-1.5.38-2.94.85-4,1.22-3.12,1.05-6.21,2.37-9.2,3.64-1.23.53-2.5,1-3.72,1.46-1,.39-2.09.78-3.13,1.21a69.36,69.36,0,0,1-7.31,2.41l-1.75.51a30.93,30.93,0,0,0-3.74,1.48c-1,.47-2.09.94-3.19,1.32-.48.17-1,.3-1.46.43s-1,.26-1.42.42A.52.52,0,0,1,184.33,227.8Z"/><path class="cls-10" d="M198,183.86a.6.6,0,0,1-.27-.06c-.45-.2-.53-.75-.65-1.71l-.06-.49c-.2-1.43-.4-2.78-.5-4.21a22.15,22.15,0,0,1,.55-6c.06-.33.15-.67.25-1,.18-.67.51-1.91.28-2.25a7,7,0,0,0-.61-.74,4.48,4.48,0,0,1-1.27-2.17,5.67,5.67,0,0,1,.1-2.61c.27-1,.65-1.21,1.52-1.47a3,3,0,0,1,2.54.24c.91.58,1.47,1.74,1.74,3.56l.06.44c.11.85.11.9.78,1.38a8.27,8.27,0,0,1,2.23,2.35.63.63,0,1,1-1.07.66,6.84,6.84,0,0,0-1.89-2,2.54,2.54,0,0,1-1.3-2.23l0-.43c-.21-1.42-.6-2.32-1.17-2.69a1.8,1.8,0,0,0-1.52-.08c-.55.15-.55.15-.65.57a4.21,4.21,0,0,0-.09,2,3.26,3.26,0,0,0,1,1.58,9.42,9.42,0,0,1,.72.88c.55.81.2,2.13-.11,3.28-.09.32-.17.62-.22.87a21.4,21.4,0,0,0-.54,5.69c.1,1.4.29,2.73.49,4.13l.07.53c0,.17.07.57.12.79a.69.69,0,0,1,.11.13.62.62,0,0,1-.16.87A.7.7,0,0,1,198,183.86Z"/><path class="cls-10" d="M189.6,172.74a.62.62,0,0,1-.62-.57,3,3,0,0,1,.76-2,2,2,0,0,0,.42-.76c0-.11-.28-.59-.4-.82s-.17-.33-.21-.42-.15-.32-.23-.48a5.91,5.91,0,0,1-.52-1.28,3,3,0,0,1,1.73-3.33c1.71-.65,2.8,1.56,3.16,2.28a5.1,5.1,0,0,1,.53,2.93l.37.09a2.81,2.81,0,0,1,1.55.73,4.29,4.29,0,0,1,1,1.6.62.62,0,1,1-1.23.22,4.07,4.07,0,0,0-.68-.93,1.64,1.64,0,0,0-.92-.4,3.14,3.14,0,0,1-1.17-.42.63.63,0,0,1-.26-.71,3.62,3.62,0,0,0-.33-2.55c-.79-1.58-1.3-1.78-1.6-1.67a1.72,1.72,0,0,0-1,1.85,6,6,0,0,0,.43,1c.09.17.17.34.25.52l.18.35a4,4,0,0,1,.54,1.31,2.49,2.49,0,0,1-.65,1.58,2.05,2.05,0,0,0-.54,1.18.64.64,0,0,1-.56.69Z"/><path class="cls-10" d="M149.8,172.81a.64.64,0,0,1-.49-.23.62.62,0,0,1,.09-.88,2.72,2.72,0,0,1,1.78-.49.64.64,0,0,1,.34.09,22.48,22.48,0,0,0,3.65-1.05c.41-.15.72-.25.86-.29a16.93,16.93,0,0,1,3.33-.48,19.63,19.63,0,0,0,2.47-.28,9.17,9.17,0,0,0,2-.77,9.73,9.73,0,0,1,2.21-.84,8.65,8.65,0,0,1,1.14-.13,3.41,3.41,0,0,0,1.45-.27.62.62,0,0,1,.85.23.63.63,0,0,1-.23.86,4.52,4.52,0,0,1-2,.43,8.22,8.22,0,0,0-1,.11,9.07,9.07,0,0,0-1.94.74,9.52,9.52,0,0,1-2.31.87,22.07,22.07,0,0,1-2.63.3,15.56,15.56,0,0,0-3.08.44c-.13,0-.42.13-.79.26-2.91,1-4.06,1.31-4.61,1a1.4,1.4,0,0,0-.78.19A.58.58,0,0,1,149.8,172.81Zm1.93-1.29Z"/><path class="cls-10" d="M172.3,167.32a.61.61,0,0,1-.58-.4.62.62,0,0,1,.36-.81,17.69,17.69,0,0,1,2.55-.71,16.48,16.48,0,0,0,2.53-.71,9.1,9.1,0,0,1,1.77-.47,10,10,0,0,0,1.17-.28.63.63,0,1,1,.38,1.2c-.43.13-.88.22-1.31.31a7.78,7.78,0,0,0-1.53.4,17.44,17.44,0,0,1-2.73.77,17.69,17.69,0,0,0-2.38.66A.62.62,0,0,1,172.3,167.32Z"/><path class="cls-10" d="M150.63,180.31a.64.64,0,0,1-.58-.38.63.63,0,0,1,.33-.82,12.5,12.5,0,0,1,1.3-.45l.5-.15c.57-.18,1.16-.4,1.74-.61a18.85,18.85,0,0,1,4.3-1.22,6.13,6.13,0,0,1,1.49,0,6,6,0,0,0,1.18,0,4,4,0,0,0,1.65-.68l.12-.07a25.7,25.7,0,0,1,7.31-2.48,30.37,30.37,0,0,0,7.14-2.27,11.86,11.86,0,0,1,3.36-1,.63.63,0,1,1,.19,1.24,10.54,10.54,0,0,0-3,.85,32.06,32.06,0,0,1-7.43,2.37,24.43,24.43,0,0,0-6.93,2.33l-.12.07A5.32,5.32,0,0,1,161,178a6.85,6.85,0,0,1-1.44-.05,5.63,5.63,0,0,0-1.22,0,17.76,17.76,0,0,0-4,1.14c-.61.23-1.21.45-1.8.64l-.52.16a8.29,8.29,0,0,0-1.16.39A.74.74,0,0,1,150.63,180.31Z"/><path class="cls-10" d="M182.58,170.93a.65.65,0,0,1-.49-.23.63.63,0,0,1,.1-.88,3.51,3.51,0,0,1,1.47-.59c.12,0,.24,0,.36-.09a.63.63,0,0,1,.77.45.62.62,0,0,1-.45.76l-.4.1a3,3,0,0,0-1,.34A.57.57,0,0,1,182.58,170.93Z"/><path class="cls-10" d="M152.57,185.67l-.23,0a.62.62,0,0,1-.52-.71.62.62,0,0,1,.71-.53,1.17,1.17,0,0,0,.58-.22,2.87,2.87,0,0,1,.66-.3,9.83,9.83,0,0,1,2.09-.32.62.62,0,0,1,.67.58.61.61,0,0,1-.58.67,9.21,9.21,0,0,0-1.82.27,3,3,0,0,0-.41.2A2.45,2.45,0,0,1,152.57,185.67Z"/><path class="cls-10" d="M159,184.27A.63.63,0,0,1,159,183a17,17,0,0,0,4.08-1.26c.5-.2,1-.4,1.47-.57a28.94,28.94,0,0,1,3-.85c.61-.15,1.22-.3,1.82-.47,1.32-.38,2.65-.84,3.94-1.29s2.55-.88,3.86-1.26l1.65-.46a25.77,25.77,0,0,0,6-2.17.63.63,0,0,1,.63,1.09,27.09,27.09,0,0,1-6.28,2.29l-1.63.45c-1.28.38-2.56.82-3.8,1.25s-2.65.91-4,1.3c-.62.18-1.25.33-1.87.49a26.71,26.71,0,0,0-2.89.81l-1.43.55a17.46,17.46,0,0,1-4.39,1.34Z"/><path class="cls-10" d="M153.55,192.12a.63.63,0,0,1-.31-1.18,4.45,4.45,0,0,1,1.38-.39,3.76,3.76,0,0,0,1-.24,10.58,10.58,0,0,1,3.91-1.14,20.63,20.63,0,0,0,3.85-.9,22.25,22.25,0,0,1,4.06-1,17.68,17.68,0,0,0,5.06-1.56c.89-.36,1.81-.75,2.73-1s2-.55,3-.79a28,28,0,0,0,3.76-1.09c.22-.09.51-.18.82-.28a5.82,5.82,0,0,0,1.59-.65.62.62,0,0,1,.88,0,.63.63,0,0,1,0,.89,5.09,5.09,0,0,1-2.13,1l-.74.26a28.86,28.86,0,0,1-3.93,1.14c-.95.23-1.93.47-2.85.77s-1.77.65-2.64,1a19,19,0,0,1-5.42,1.65,19.32,19.32,0,0,0-3.81.9,22.48,22.48,0,0,1-4.1.95,9.35,9.35,0,0,0-3.5,1,5.11,5.11,0,0,1-1.33.34,3.17,3.17,0,0,0-1,.25A.67.67,0,0,1,153.55,192.12Z"/><path class="cls-10" d="M154.73,198.3a.63.63,0,0,1,0-1.25,2.62,2.62,0,0,0,1.11-.48c.19-.12.39-.24.59-.34a7.06,7.06,0,0,1,2.31-.69,18.72,18.72,0,0,0,4.05-1,21,21,0,0,1,3-.77c.45-.09.9-.18,1.34-.29a.63.63,0,1,1,.28,1.22c-.45.11-.91.2-1.38.29a21,21,0,0,0-2.86.73,20.46,20.46,0,0,1-4.3,1,6.11,6.11,0,0,0-1.93.57,5.32,5.32,0,0,0-.5.29,3.53,3.53,0,0,1-1.73.66Z"/><path class="cls-10" d="M171.05,193.51a.63.63,0,0,1,0-1.26,8.52,8.52,0,0,0,3-.86c.48-.2.95-.4,1.4-.55l.92-.31a30.17,30.17,0,0,1,4.66-1.31,27.1,27.1,0,0,0,6.05-1.57.63.63,0,0,1,.5,1.15,29,29,0,0,1-6.34,1.66,28.17,28.17,0,0,0-4.47,1.26l-.93.31c-.41.14-.85.32-1.3.51a9.3,9.3,0,0,1-3.47,1Z"/><path class="cls-11" d="M117,161.24c-.07,0-.1-.05-.13,0l0,0-.12-.07h0l-.14-.06s0-.07,0-.08-.06,0-.09,0-.06-.14-.17-.17h-.18c-.06,0-.07.1-.19,0l-.1-.05h0l-.13-.09s0-.08-.09-.1l0,0a1.59,1.59,0,0,0-.43-.31l-.16,0a5.48,5.48,0,0,1-.54-.23s0-.06-.09-.09a.69.69,0,0,1-.13,0c-.14-.1-.22-.26-.32-.19s0-.07,0-.06c-.4-.19-.78-.12-1.08-.3,0,0,0,0,0-.06s-.2-.12-.31-.19,0,.05-.09.06-.17-.07-.18,0,0,0,0,0a.35.35,0,0,0-.11.27c0,.1.07.1.08.16a.18.18,0,0,0,0,.11s0,.07,0,.09.12.05.08.13h0c0,.11,0,.21,0,.31l.22.08a6.73,6.73,0,0,1,.84.37,2.1,2.1,0,0,0,.22.15c.42.21.9.41,1.32.58.13.05.2.05.32.1s.65.41.75.33.06.07,0,.07.22.06.32.09l0,0h0a.19.19,0,0,1,.09,0s.06.07,0,.06a.16.16,0,0,0,.09,0c.16-.26.32-.52.5-.77Z"/><path class="cls-11" d="M124.69,158.33c0-.05,0,0-.06,0l-.21-.26-.21-.08a.46.46,0,0,0-.19-.14c-.13-.05,0-.16-.12-.2l0,0h0s-.07,0-.1,0l-.08-.07-.14-.1a1.25,1.25,0,0,0-.27-.23c0-.08,0-.17-.16-.24s-.09,0-.14,0l-.07,0a.13.13,0,0,0,0-.05h0l0-.07c0-.06-.08-.07-.12-.07l0,0-.1-.09h0l-.12-.1s0-.06,0-.07-.05,0-.07-.06,0-.16-.13-.21l-.17,0c-.06,0-.1.08-.18,0l-.1-.07,0,0a.63.63,0,0,1-.1-.12s0-.08-.06-.11l0-.05a1.58,1.58,0,0,0-.32-.41l-.15-.08a5.9,5.9,0,0,1-.47-.37s0-.07-.06-.1-.08-.05-.11-.09-.15-.3-.26-.26,0-.08,0-.07c-.33-.29-.71-.32-1-.56,0,0,0,0,0-.08s-.17-.17-.25-.25-.06,0-.11,0-.14-.1-.17,0,0,0-.05,0a.32.32,0,0,0-.17.23c0,.09,0,.12,0,.18s0,.06,0,.11,0,.07,0,.09.11.08,0,.14l0,0,0,.32.19.13a7.24,7.24,0,0,1,.71.58c.06.05.11.13.18.19.36.31.76.64,1.13.91.1.08.18.1.28.17s.52.57.64.52,0,.08,0,.08.2.11.28.17l0,0h0a.16.16,0,0,1,.07.07s0,.08,0,.07.09,0,.13,0c.26.2.5.41.75.61l.08.06.11.09c.1.12.09-.11.21.07s.13.25.31.35l.16.07c0,.06.09.13.14.18h0l.79-.61S124.73,158.35,124.69,158.33Z"/><path class="cls-11" d="M120.1,165.67c-.09,0-.15,0-.2,0s-.06,0-.08,0-.07,0-.11-.07-.11,0-.2,0-.47-.1-.7-.16a1.57,1.57,0,0,1-.31-.11c-.14,0-.23,0-.33,0s-.22-.16-.37-.16a.39.39,0,0,1-.33,0c-.2,0,0-.16-.31-.15-.07,0,0,.06-.08.06s-.14,0-.19,0c-.35-.05-.94-.24-1.33-.3s-.15.15-.41,0-.11-.1-.18-.13c-.43-.16-1.38-.29-1.84-.4a3.28,3.28,0,0,0-.64-.14c-.09,0-.17-.05-.25-.06s-.21-.23-.3-.19a1.06,1.06,0,0,0-.55-.21l-.22.08s-.08.26-.12.26-.13-.26,0-.25a.07.07,0,0,0,.09-.06c-.26-.11-.27,0-.47,0s0-.12-.17-.12-.06,0-.08,0l-.37-.15c-.11,0-.21,0-.33,0a.88.88,0,0,0-.32-.06c-.22,0,0-.15-.24-.14h-.07c-.06,0-.08,0-.14,0l-.12,0-.24,0a3.54,3.54,0,0,0-.47-.12.36.36,0,0,0-.3-.15c-.12,0-.13,0-.21,0h-.1l-.06,0h-.06l-.1,0a.34.34,0,0,0-.18,0s0,0-.07,0l-.17,0h0l-.2,0s0-.07,0-.07a.61.61,0,0,0-.13,0c-.13,0-.07-.12-.24-.14a2.23,2.23,0,0,0-.27,0c-.08,0-.12.1-.27,0a.45.45,0,0,0-.16,0h0l-.18-.07s0-.07-.13-.08l-.08,0a2.22,2.22,0,0,0-.59-.24l-.24,0c-.27-.07-.54-.1-.79-.17-.06,0-.07-.05-.12-.07a1.33,1.33,0,0,1-.19-.05c-.19-.07-.29-.2-.44-.13s-.06-.06,0-.06c-.57-.13-1.14-.05-1.56-.18-.07,0,0,0-.06-.06s-.29-.09-.44-.13-.08,0-.14.05-.25,0-.27,0,0,0-.08,0a.36.36,0,0,0-.19.25c0,.09.1.09.1.15s0,.05,0,.09,0,.06,0,.08.19,0,.11.11h0c0,.09,0,.18,0,.28l.31.05a11,11,0,0,1,1.21.27c.1,0,.19.08.31.11.61.15,1.29.3,1.91.42.18,0,.28,0,.45.06s.93.32,1.08.24.08.06.06.05c.15,0,.32,0,.46.06l.06,0h0l.13,0s.08.06.05.05a1.31,1.31,0,0,0,.2,0l1.28.28.12,0h0l.18,0c.19.07.11-.13.34,0s.25.18.56.21h.25l.25.11c.27.07.59.13.77.17s.19,0,.25,0l.13,0h0a.37.37,0,0,0,0-.11l.8.16c.2.09.08-.12.28,0s0,.07,0,.09a1.06,1.06,0,0,0,.19,0,4.8,4.8,0,0,0,1,.21c.17,0,.3,0,.46,0a1.37,1.37,0,0,1,.56.21c0-.14.22,0,.27,0a6.33,6.33,0,0,1,1,.21s0,.08,0,.09.07-.06.08-.06.14,0,.19,0a3.45,3.45,0,0,1,.7.15c.7.19,1.55.3,2,.44,0-.05.08,0,.14,0s.08,0,.14,0a2.13,2.13,0,0,0,.87.28c.15,0,.29.1.44.13a.9.9,0,0,0,.16,0c.07-.25.16-.49.25-.74Z"/><path class="cls-11" d="M117.36,156.9a2.05,2.05,0,0,0-.2-.08s-.07,0-.08,0,0-.08-.1-.11-.1,0-.19-.07-.43-.27-.65-.41-.21-.19-.27-.23-.23-.08-.32-.15-.16-.23-.3-.29a.42.42,0,0,1-.34-.11c-.2-.09,0-.18-.25-.26-.06-.07-.07,0-.1,0s-.13-.09-.18-.11c-.34-.17-.86-.58-1.23-.78-.21-.18-.2.1-.42-.11-.13-.06-.07-.14-.13-.19-.38-.33-1.28-.79-1.7-1.08a4.34,4.34,0,0,0-.59-.37,1.82,1.82,0,0,1-.23-.15c-.13-.06-.13-.3-.23-.29a1.07,1.07,0,0,0-.48-.41h-.24s-.18.23-.22.21,0-.3.07-.25.09,0,.11,0c-.22-.2-.28-.07-.46-.19s0-.12-.12-.19-.08,0-.1,0a4.2,4.2,0,0,1-.32-.29,1.46,1.46,0,0,1-.33-.12,1.05,1.05,0,0,0-.3-.17c-.22-.08,0-.15-.19-.22l0,0h0c-.06,0-.11,0-.16,0a.75.75,0,0,1-.12-.07l-.22-.12a3.05,3.05,0,0,0-.42-.29.4.4,0,0,0-.25-.26c-.11-.09-.15,0-.22,0l-.11,0,0,0,0,0-.09-.07a.33.33,0,0,0-.18-.1l0-.05-.15-.1,0,0-.18-.11s.06-.06,0-.07-.08-.05-.12-.07,0-.15-.18-.23l-.28-.07c-.09,0-.16.06-.28-.07a.78.78,0,0,0-.15-.1l0,0-.16-.13s0-.08-.09-.13l-.07,0a2.35,2.35,0,0,0-.5-.46l-.24-.11c-.24-.16-.5-.29-.72-.45-.06,0,0-.08-.09-.11s-.13-.07-.18-.12-.22-.31-.39-.29,0-.09,0-.08c-.52-.34-1.13-.46-1.5-.75-.07,0,0,0,0-.07s-.26-.2-.39-.3-.1,0-.16,0-.24-.13-.28-.07,0,0-.08,0a.37.37,0,0,0-.29.18c0,.08.06.12,0,.19s0,0,0,.1-.05,0-.05.08.17.1.08.14l0,0c0,.1,0,.19-.07.29l.3.16c.36.22.76.45,1.11.71.09.07.16.15.27.23.56.37,1.18.77,1.76,1.11.16.1.28.13.43.22s.81.66,1,.63,0,.09,0,.08.3.16.44.23l0,0h0l.12.09s0,.08,0,.07.15,0,.2.07l1.17.75.12.07h0l.18.11c.16.15.15-.08.34.12s.18.27.48.41l.25.09a2,2,0,0,0,.21.2c.24.17.54.35.71.45s.2.05.23.15l.12.07h0a.53.53,0,0,0,0-.12c.26.16.5.32.75.46s.12-.1.28.07,0,.09,0,.11.14.09.18.12a5.47,5.47,0,0,0,.88.55c.16.09.31.1.45.19a1.32,1.32,0,0,1,.48.41c0-.15.24,0,.28.07a7.59,7.59,0,0,1,.88.56s-.07.06,0,.11.09,0,.1,0,.12.08.18.11a2.71,2.71,0,0,1,.64.41c.63.43,1.45.85,1.82,1.15,0-.05.09,0,.14,0h.17c.12.25.49.39.77.59s.25.21.39.3a3.93,3.93,0,0,0,.41.21c.18-.19.37-.39.57-.58Z"/><path class="cls-11" d="M122.92,151.41c-.07-.07-.13-.09-.17-.13s-.06,0-.08,0,0-.09,0-.13-.1-.06-.17-.13-.33-.38-.49-.59a2.13,2.13,0,0,1-.19-.29c-.1-.11-.2-.15-.26-.24s-.08-.27-.2-.37a.37.37,0,0,1-.29-.21c-.16-.14.06-.16-.16-.32,0-.08-.08,0-.11,0a.7.7,0,0,1-.13-.16c-.27-.27-.65-.81-.94-1.11s-.22,0-.38-.24c-.1-.09,0-.15-.06-.22-.26-.42-1-1.14-1.3-1.53a3.22,3.22,0,0,0-.45-.53c-.07-.06-.11-.16-.18-.22s0-.32-.12-.34a1.12,1.12,0,0,0-.33-.54,1.84,1.84,0,0,0-.24-.07s-.24.16-.27.13.06-.3.14-.21.08,0,.12,0c-.15-.26-.25-.15-.38-.32s0-.11-.07-.22-.07,0-.1,0l-.22-.37c-.09-.07-.18-.13-.28-.22a1,1,0,0,0-.23-.25c-.18-.14.08-.13-.11-.27l0-.05h0s-.11,0-.15-.05a.9.9,0,0,1-.09-.1l-.17-.18a2.66,2.66,0,0,0-.32-.4.37.37,0,0,0-.16-.32c-.08-.13-.14-.07-.2-.11A.35.35,0,0,1,114,141l0-.07,0,0s0-.08-.06-.1a.26.26,0,0,0-.14-.14l0-.07-.12-.14v0l-.14-.16s.07,0,.06,0-.06-.08-.09-.11,0-.15-.11-.27-.16-.11-.24-.15-.17,0-.25-.16a.69.69,0,0,0-.11-.13l0,0a1,1,0,0,1-.11-.17.15.15,0,0,0-.05-.15l-.06-.07a1.94,1.94,0,0,0-.33-.59,2.11,2.11,0,0,0-.2-.18c-.18-.23-.39-.43-.55-.65,0-.06,0-.09-.06-.13s-.1-.11-.13-.17-.12-.36-.28-.39,0-.1,0-.09c-.39-.48-.93-.77-1.21-1.16,0,0,0-.05,0-.08s-.18-.27-.28-.4-.1,0-.16,0-.18-.2-.24-.16,0,0-.08,0a.35.35,0,0,0-.32.09c-.07.07,0,.13,0,.19s0,0,0,.1-.07,0-.06.06.13.15,0,.16l0,0-.16.26.23.24a11.93,11.93,0,0,1,.85,1c.07.09.12.2.19.3.42.52.9,1.09,1.35,1.59.12.14.22.21.35.34s.57.87.76.9,0,.1,0,.09l.35.35,0,0h0a.44.44,0,0,1,.09.11s0,.1,0,.08.13.09.17.13c.32.37.6.72.89,1.06a.35.35,0,0,0,.09.11h0a1.83,1.83,0,0,1,.13.16c.12.18.17,0,.3.21s.09.31.33.53c.06.06.14.11.21.17a1,1,0,0,0,.15.25c.17.23.4.5.53.64s.18.11.18.22l.09.1h0a.36.36,0,0,0,.07-.1l.57.66c.11.2.15-.05.25.15s0,.08,0,.11.12.12.14.16a6.18,6.18,0,0,0,.67.8,4.23,4.23,0,0,1,.38.31,1.47,1.47,0,0,1,.34.54c.07-.13.2.12.24.15a6.92,6.92,0,0,1,.67.8c0,.05-.08,0,0,.11s.1,0,.11,0,.09.12.14.16a2.9,2.9,0,0,1,.49.58c.46.61,1.12,1.25,1.39,1.64,0,0,.07.06.12.08s.1,0,.15.06c.05.27.36.52.57.8.09.12.17.26.27.39l.33.33.72-.38C123.13,151.64,123,151.52,122.92,151.41Z"/><path class="cls-11" d="M115,150.87s0,0,0-.05a1.15,1.15,0,0,0-.4-.39.1.1,0,0,0-.07,0s0,0,0,0l-.21-.07a.08.08,0,0,1,0,0,.07.07,0,0,0-.07-.05h0a0,0,0,0,1,0,0l-.1-.06c0-.05,0-.09-.07-.11s-.11,0-.14-.06,0-.15-.08-.17-.11.05-.16,0l-.07,0h0c0-.06-.09-.1-.14-.15s0,0-.08,0-.09-.07-.13,0,0,0,0,0a.28.28,0,0,0-.17.11s0,.07,0,.1a.11.11,0,0,0,0,.07s0,0,0,0,.06.05,0,.08h0a1.3,1.3,0,0,1-.08.17l.12.08.13.1a.41.41,0,0,0,0,.11h0l.07.07a1.48,1.48,0,0,0,.39.32l0,0c.07,0,0,0,.09.07a1.61,1.61,0,0,0,.27.23,1.72,1.72,0,0,0,.21.07,1,1,0,0,1,.32.26s.07,0,.07.06-.07.08,0,.08.08,0,.16,0,.29.29.46.38.06.07,0,.12l.09.08c.06.12.13,0,.19.05.33.23.6.49.89.73a.76.76,0,0,0,.08-.11l0,0s.07,0,.09,0,.1,0,.13-.06.06.06.1,0,0-.14.14-.26a.25.25,0,0,1,.08-.14c0-.05,0-.08,0-.13-.1-.06-.14-.16-.22-.19a.32.32,0,0,0-.17,0,.22.22,0,0,0-.08-.14s0-.06-.07-.06,0,.06-.07,0a.81.81,0,0,0-.14-.12,0,0,0,0,0,0,0l-.32-.28,0-.12c0-.06-.08,0-.13,0l-.46-.38h0a.06.06,0,0,0-.06-.05h0c0-.05-.08,0-.11,0a.44.44,0,0,0-.11-.09Z"/><path class="cls-11" d="M125.35,147.51c0-.06,0,0-.07,0a3,3,0,0,1-.09-.32,1.17,1.17,0,0,1-.15-.16.47.47,0,0,0-.12-.21c-.1-.1.09-.14,0-.23a.08.08,0,0,0,0-.05h0s-.08,0-.11,0a.25.25,0,0,0,0-.09s-.06-.1-.08-.15a1.61,1.61,0,0,0-.15-.33c0-.09,0-.17,0-.28s-.08,0-.12-.07a.12.12,0,0,1,0-.05.15.15,0,0,0,0-.06l0,0s0-.07,0-.08,0-.11-.07-.12a.13.13,0,0,1,0-.06l-.06-.12h0A.91.91,0,0,0,124,145l.06-.05s0-.06,0-.09,0-.14,0-.24l-.14-.11s-.12,0-.15-.11a.31.31,0,0,0,0-.1s0,0,0,0,0-.1-.05-.15,0-.08,0-.13l0-.06a1.24,1.24,0,0,0-.12-.51.63.63,0,0,0-.1-.14,5.16,5.16,0,0,1-.26-.53s0-.07,0-.12a.54.54,0,0,1-.07-.13c0-.16,0-.33-.12-.34s0-.09,0-.07c-.18-.4-.51-.59-.63-.92,0,0,0,0,0-.07s-.08-.23-.12-.34-.07,0-.11,0-.08-.15-.14-.1,0,0,0,0a.36.36,0,0,0-.25.13c-.07.08,0,.13,0,.18a.25.25,0,0,0,0,.11s0,0-.06.07.07.12,0,.15v0l-.16.27.12.2a5.81,5.81,0,0,1,.4.83c0,.07,0,.16.07.25.2.43.43.89.65,1.3.06.11.12.16.17.27s.24.74.37.74,0,.09,0,.08.13.19.18.27l0,0h0a.18.18,0,0,1,0,.09s0,.09,0,.08.08.06.1.1l.43.86a.16.16,0,0,0,0,.09l.06.14c0,.15.13-.06.16.15s0,.28.14.45a.69.69,0,0,0,.11.13,1.8,1.8,0,0,0,.06.22h0l1-.22A.13.13,0,0,0,125.35,147.51Z"/><path class="cls-11" d="M119.74,136.67s0,0,0,0a1.08,1.08,0,0,0-.2-.52.07.07,0,0,0,0,0s0,0,0-.06l-.17-.15,0,0a.08.08,0,0,0,0-.08h0v0h0a.53.53,0,0,0-.06-.1c0-.06,0-.1,0-.12s-.1-.07-.11-.12.06-.15,0-.19-.13,0-.14-.1h-.07c0-.06,0-.13-.07-.2s0,0-.07,0-.06-.1-.1-.08,0,0,0,0a.37.37,0,0,0-.21,0s0,.07,0,.09,0,0,0,0,0,0,0,0,0,.07,0,.07v0l-.14.12.07.12a1,1,0,0,1,.07.15,1,1,0,0,0,0,.1h0a.36.36,0,0,0,0,.09,1.16,1.16,0,0,0,.21.46s0,.05,0,.05,0,0,0,.11a2.87,2.87,0,0,0,.15.32c0,.06.12.1.16.15a1.15,1.15,0,0,1,.18.37s0,.06,0,.08-.1,0-.07.06.08,0,.14.1.14.38.25.54,0,.09,0,.11l0,.11c0,.13.12.05.15.13.2.34.34.7.5,1l.12-.06s0,0,0,0,.08,0,.1,0,.1,0,.14,0,0,.07.1,0,0-.13.23-.17,0-.07.14-.1,0-.08.08-.1c-.06-.1-.06-.2-.12-.27a.44.44,0,0,0-.15-.08.2.2,0,0,0,0-.17s0-.07,0-.08-.05,0-.08,0,0-.11-.08-.16a0,0,0,0,0,0,0,3.34,3.34,0,0,0-.17-.38s0-.09,0-.13-.07,0-.11-.07l-.26-.53h0s0-.05,0-.07a0,0,0,0,0,0,0c0-.06-.06,0-.1,0a.67.67,0,0,0-.06-.12A0,0,0,0,1,119.74,136.67Z"/><path class="cls-11" d="M105.79,157.34a.94.94,0,0,1,.15.06l0,.1h0l.08.05a1.41,1.41,0,0,0,.46.21s0,0,0,0,0,0,.11.05a1.06,1.06,0,0,0,.32.15c.07,0,.15,0,.22,0a1,1,0,0,1,.38.17s.07,0,.08,0,0,.09,0,.08.08,0,.17,0,.35.2.53.25.08.05,0,.11l.11,0c.08.1.12,0,.19,0,.37.14.71.33,1.05.48a1.12,1.12,0,0,0,0-.13h0s0-.07.08-.05.08-.07.11-.09.07,0,.09,0-.05-.13.07-.28,0-.09,0-.17,0-.06,0-.13c-.11,0-.18-.11-.27-.12s-.11,0-.16,0a.25.25,0,0,0-.12-.11s-.05-.05-.08,0,0,.07,0,.06l-.17-.08h0l-.37-.18-.07-.11c-.06-.05-.07,0-.13,0l-.54-.25h0a.07.07,0,0,0-.07,0h0s-.07,0-.1,0l-.13-.05h0s0,0,0-.05a1.31,1.31,0,0,0-.49-.28h-.07l0-.05h-.22l0,0a.07.07,0,0,0-.08,0h0v0l-.11,0s-.06-.07-.09-.08-.11,0-.15,0-.06-.15-.12-.15-.1.08-.17,0l-.06.05h0c0-.07-.12-.08-.17-.12s-.05,0-.08,0-.11,0-.13,0,0,0,0,0a.31.31,0,0,0-.14.16c0,.06,0,.07,0,.1a.08.08,0,0,0,0,.07s0,0,0,.05.08,0,0,.07h0c0,.06,0,.12,0,.18Z"/><polygon class="cls-12" points="264 175 261 178 274 200 278 197 264 175"/><rect class="cls-13" width="368" height="424"/></g></g></g></svg>