<?xml version="1.0" encoding="utf-8"?>
<!-- Generator: Adobe Illustrator 24.2.3, SVG Export Plug-In . SVG Version: 6.00 Build 0)  -->
<svg version="1.1" id="レイヤー_1" xmlns="http://www.w3.org/2000/svg" xmlns:xlink="http://www.w3.org/1999/xlink" x="0px"
	 y="0px" viewBox="0 0 368 424" style="enable-background:new 0 0 368 424;" xml:space="preserve">
<style type="text/css">
	.st0{fill:#E9E7F4;}
	.st1{fill:#FFFFFF;}
	.st2{fill:#333333;}
	.st3{fill:#9489D8;}
	.st4{fill:#857DB4;}
	.st5{fill:#9EB6DE;}
	.st6{fill:#231815;}
	.st7{fill:none;}
</style>
<rect x="1" y="43.5" class="st0" width="366" height="380"/>
<path class="st1" d="M21,53.5h326c5.5,0,10,4.5,10,10v339c0,5.5-4.5,10-10,10H21c-5.5,0-10-4.5-10-10v-339C11,58,15.5,53.5,21,53.5z
	"/>
<path class="st2" d="M33.3,299.1c0.4,0,0.5,0,0.7-0.1s0.2,0,0.4,0c0.2,0.1,0.4,0.3,0.6,0.5c0.1,0.1,0.1,0.2,0.1,0.4c0,0,0,0-0.1,0.1
	c-0.2,0.1-0.3,0.3-0.4,0.5c-0.7,1.6-1.6,3-2.7,4.4c-1.2,1.4-2.7,2.7-4.4,3.6c-0.1,0.1-0.2,0.1-0.3,0c-0.2-0.2-0.5-0.3-0.8-0.4
	c3.3-1.7,5.8-4.6,7.3-8l-4,0.1c-0.8,1.1-1.7,2.1-2.8,3c-0.1,0.1-0.3,0.1-0.4,0l0,0c-0.2-0.1-0.5-0.3-0.7-0.3
	c1.5-1.1,2.7-2.5,3.6-4.1c0.4-0.5,0.6-1.1,0.7-1.8c0.4,0.1,0.7,0.3,1,0.5c0.1,0,0.1,0.2,0.1,0.3l-0.1,0.1c-0.2,0.1-0.3,0.3-0.4,0.5
	c-0.2,0.3-0.4,0.6-0.6,0.9L33.3,299.1z"/>
<path class="st2" d="M42,306c1.3-0.5,2.6-1.1,3.8-1.8c1.4-0.7,2.6-1.7,3.7-2.8c0,0.3,0.1,0.7,0.1,1c0.1,0.1,0,0.3-0.1,0.3
	c-1.1,0.9-2.3,1.8-3.5,2.5c-1.1,0.6-2.2,1.1-3.4,1.7c-0.3,0.1-0.5,0.2-0.7,0.4c-0.1,0.1-0.3,0.1-0.4,0l0,0c-0.2-0.2-0.4-0.4-0.5-0.6
	c-0.1-0.1-0.1-0.2,0-0.3c0.1-0.2,0.1-0.5,0.1-0.7v-4.5c0.1-1.1,0-2.1-0.1-3.2c0.4,0,0.8,0.1,1.2,0.2c0.2,0,0.2,0.2,0.1,0.4
	c-0.1,0.8-0.2,1.7-0.2,2.5L42,306z"/>
<path class="st2" d="M53.8,301c0-0.1,0.1-0.1,0.2-0.1c0.9,0.3,1.7,0.7,2.5,1.3c0.1,0,0.1,0.2,0.1,0.3l0,0c-0.1,0.2-0.2,0.4-0.4,0.6
	c-0.1,0.1-0.2,0.1-0.3,0c-0.8-0.6-1.7-1.1-2.6-1.4C53.6,301.4,53.7,301.1,53.8,301z M56,306.4c1.4-0.7,2.6-1.5,3.8-2.4
	c1.5-1.1,2.8-2.4,4-3.9c0,0.3,0.1,0.6,0.3,0.9c0.1,0.1,0,0.3-0.1,0.4c-1.1,1.3-2.3,2.4-3.7,3.4c-1.3,1-2.7,1.8-4.1,2.6
	c-0.2,0.1-0.5,0.3-0.7,0.5c-0.1,0.1-0.3,0.1-0.4,0c-0.2-0.3-0.5-0.6-0.7-0.9C55,306.8,55.5,306.6,56,306.4z M55.5,297.8
	c0.1-0.1,0.1-0.1,0.3-0.1c0.9,0.4,1.7,0.9,2.4,1.5c0.1,0.1,0.1,0.1,0,0.3c-0.1,0.2-0.2,0.4-0.4,0.6c-0.1,0.1-0.1,0.1-0.3,0
	c-0.7-0.7-1.6-1.2-2.5-1.6C55.2,298.3,55.3,298,55.5,297.8z M61.6,297.2c0,0,0.1,0,0.2,0c0.6,0.5,1.2,1,1.6,1.7c0,0,0,0.1,0,0.2l0,0
	l-0.4,0.3c0,0.1-0.1,0.1-0.2,0l0,0c-0.4-0.7-1-1.3-1.6-1.8L61.6,297.2z M62.8,296.3c0.1,0,0.1,0,0.2,0c0.6,0.5,1.1,1,1.6,1.6
	c0,0.1,0,0.1,0,0.2l-0.4,0.3c-0.1,0.1-0.1,0.1-0.2,0c-0.4-0.7-1-1.3-1.6-1.8L62.8,296.3z"/>
<path class="st2" d="M69.2,301c0.1-0.1,0.2,0,0.3,0.1c0.5,0.6,0.9,1.3,1.1,2c0.1,0.1,0.1,0.2-0.1,0.3c-0.2,0.1-0.3,0.2-0.5,0.3
	c-0.1,0.1-0.2,0-0.2-0.1c-0.3-0.7-0.7-1.5-1.2-2.1L69.2,301z M76.7,301c0.1,0.1,0.1,0.2,0.1,0.3c0,0,0,0-0.1,0.1
	c-0.2,0.2-0.3,0.4-0.4,0.7c-0.5,1.3-1.2,2.5-2.1,3.6c-0.8,1-1.7,1.9-2.8,2.7c-0.1,0.1-0.2,0.1-0.3,0c-0.2-0.2-0.5-0.3-0.7-0.4
	c1.2-0.7,2.3-1.7,3.1-2.8c0.8-1,1.4-2.2,1.9-3.5c0.1-0.4,0.2-0.8,0.2-1.1C76,300.6,76.4,300.8,76.7,301z M72,300.3
	c0.1,0,0.2,0,0.2,0.1c0.4,0.6,0.7,1.3,1,1.9c0,0.1,0,0.2-0.1,0.2c-0.2,0.1-0.4,0.2-0.6,0.3c-0.1,0-0.1,0-0.2-0.1
	c-0.3-0.7-0.6-1.4-1.1-2.1C71.6,300.5,71.8,300.4,72,300.3z"/>
<path class="st2" d="M86,301c1.6,0.5,3.1,1.1,4.6,2c0.1,0,0.1,0.1,0.1,0.2c-0.1,0.2-0.2,0.5-0.3,0.7c-0.1,0.1-0.1,0.1-0.3,0
	c-1.3-0.8-2.6-1.5-4.1-2v3.3c0,0.9,0,1.9,0.1,2.9c0,0.1,0,0.2-0.2,0.2h-0.7c-0.2,0-0.2,0-0.2-0.2c0-0.9,0.1-2,0.1-2.8V299
	c0-0.7,0-1.5-0.2-2.2c0.4,0,0.8,0.1,1.1,0.2c0.2,0.1,0.2,0.2,0.1,0.4c-0.1,0.5-0.1,1-0.1,1.6V301z"/>
<path class="st2" d="M99.9,300c0-0.5,0.1-0.9,0.1-1.5c0-0.5,0-1-0.1-1.5c0.4,0,0.8,0.1,1.1,0.2c0.2,0.1,0.2,0.2,0.1,0.4
	c-0.1,0.3-0.2,0.6-0.2,0.9c0,0.5-0.1,0.9-0.1,1.4h2.4c0.6,0,1.2,0,1.8,0c0.2,0,0.2,0,0.2,0.2c0,0.3,0,0.8,0,1.3c0,1.5-0.2,3-0.5,4.4
	c-0.3,1-0.6,1.5-1.3,1.7c-0.5,0.1-1,0.2-1.5,0.2c-0.1,0-0.2-0.1-0.2-0.2c-0.1-0.3-0.3-0.6-0.5-0.8c0.6,0.1,1.2,0,1.8-0.1
	c0.4-0.1,0.5-0.3,0.7-1.1c0.3-1.5,0.5-3,0.5-4.6h-3.4c-0.2,1.4-0.6,2.7-1.3,3.9c-0.8,1.2-1.8,2.2-3,2.9c-0.1,0.1-0.2,0.1-0.3,0
	c-0.2-0.2-0.5-0.4-0.8-0.5c1.3-0.6,2.4-1.6,3.2-2.8c0.6-1.1,1-2.3,1.2-3.5h-1.7c-0.6,0-1.3,0-1.9,0.1c-0.1,0-0.1,0-0.2-0.2
	s0-0.5,0-0.8c0.8,0,1.4,0.1,2.2,0.1L99.9,300z"/>
<path class="st2" d="M111.7,303.2c-0.6,0-1.3,0-1.9,0.1c-0.1,0-0.2-0.1-0.2-0.2c-0.1-0.4-0.1-0.7-0.1-1.1c1,0.1,2.1,0.2,3.1,0.1h4.3
	c1,0,2,0,3.1,0c0.2,0,0.2,0,0.2,0.2s0,0.5,0,0.7s0,0.2-0.2,0.2c-1,0-2.1,0-3,0L111.7,303.2z"/>
<path class="st2" d="M127.8,301c1.6,0.5,3.1,1.1,4.6,2c0.1,0,0.1,0.1,0.1,0.2c-0.1,0.2-0.2,0.5-0.3,0.7c-0.1,0.1-0.1,0.1-0.3,0
	c-1.3-0.8-2.6-1.4-4.1-1.9v3.3c0,0.9,0,1.9,0,2.9c0,0.1,0,0.2-0.2,0.2H127c-0.2,0-0.2,0-0.2-0.2c0-0.9,0-2,0-2.8v-6.2
	c0-0.7,0-1.5-0.2-2.2c0.4,0,0.8,0.1,1.2,0.2c0.2,0.1,0.2,0.2,0.1,0.4c-0.1,0.5-0.1,1-0.1,1.5V301z M131.3,297.3c0,0,0.1,0,0.2,0
	c0.6,0.5,1.2,1,1.6,1.7v0.1l0,0l-0.4,0.3c0,0.1-0.1,0.1-0.2,0l0,0c-0.4-0.7-1-1.3-1.6-1.8L131.3,297.3z M132.5,296.4
	c0.1,0,0.1-0.1,0.1,0c0.6,0.5,1.1,1,1.6,1.6c0,0.1,0,0.1,0,0.2l-0.4,0.3c-0.1,0.1-0.1,0.1-0.2,0c-0.4-0.7-1-1.3-1.6-1.8L132.5,296.4
	z"/>
<path class="st2" d="M143.3,299.7c0.8-0.3,1.7-0.5,2.7-0.5c1.6,0,2.6,0.9,2.6,2.3c0,1.7-1.4,2.6-3.4,2.6c-0.2,0-0.4,0-0.7,0
	s-0.2-0.1-0.2-0.1c-0.1-0.3-0.2-0.6-0.4-0.8c0.4,0.1,0.8,0.1,1.3,0.1c1.4,0,2.5-0.5,2.5-1.8s-0.9-1.4-1.6-1.4
	c-0.8,0-1.5,0.1-2.2,0.4c-0.9,0.3-1.8,0.7-2.6,1c0.8,2.2,1.5,4.3,2.3,6.5c0,0.1,0,0.2-0.1,0.3c-0.2,0.1-0.4,0.2-0.7,0.3
	c-0.1,0-0.1,0-0.1-0.1c-0.7-2.3-1.4-4.3-2.2-6.5l-1.7,0.7c-0.3,0.1-0.5,0.3-0.8,0.4c-0.1,0.1-0.1,0.1-0.2,0.1
	c-0.1,0-0.2-0.1-0.2-0.1c-0.2-0.3-0.4-0.6-0.6-0.9c0.5-0.1,1-0.2,1.4-0.4c0.5-0.2,1-0.4,1.7-0.7c-0.2-0.5-0.3-1-0.5-1.5
	s-0.4-0.9-0.7-1.3c0.4-0.1,0.8-0.1,1.2-0.1c0.2,0,0.2,0.1,0.2,0.2s0,0.3,0,0.4c0,0.2,0.1,0.4,0.3,0.9s0.3,0.7,0.4,1
	C141.6,300.3,142.4,300,143.3,299.7z M143.1,296.9c0.1,0,0.1,0,0.2,0c0.6,0.4,1.1,0.8,1.5,1.3c0.1,0.1,0.1,0.2,0,0.2
	c-0.2,0.2-0.3,0.3-0.5,0.5c-0.1,0-0.1,0-0.2,0l0,0c-0.5-0.6-1-1.1-1.7-1.5C142.6,297.2,142.8,297,143.1,296.9z"/>
<path class="st2" d="M157.3,305.9c0,1,0,1.9,0,2.5c0,0.1-0.1,0.2-0.2,0.2h-0.7c-0.1,0-0.2-0.1-0.2-0.2c0-0.6,0.1-1.5,0.1-2.5v-2.3
	c-1.4,1-2.9,1.9-4.4,2.7c-0.1,0.1-0.3,0.1-0.4,0c-0.2-0.2-0.4-0.4-0.7-0.5c1.8-0.8,3.4-1.8,5-2.9c1-0.7,1.9-1.5,2.7-2.4h-4
	c-0.7,0-1.3,0.1-1.8,0.1c-0.1,0-0.2,0-0.2-0.2c-0.1-0.3-0.1-0.6-0.1-0.9c0.7,0.1,1.4,0.1,2.2,0.1h3.6c0.8,0,0.9,0,1.1-0.1
	c0.1-0.1,0.2-0.1,0.3,0c0.2,0.2,0.3,0.3,0.4,0.5c0.1,0.2,0.1,0.3-0.1,0.4c-0.1,0.1-0.3,0.2-0.4,0.3c-0.7,0.8-1.5,1.5-2.3,2.1
	L157.3,305.9z M155.3,296.7c0.1-0.1,0.1-0.1,0.3-0.1c1,0.3,1.9,0.7,2.8,1.1c0.1,0.1,0.1,0.1,0.1,0.3c-0.1,0.2-0.2,0.4-0.3,0.5
	s-0.1,0.2-0.3,0.1c-0.9-0.5-1.9-0.9-2.9-1.3L155.3,296.7z M158.8,303c0.1-0.1,0.1-0.1,0.2-0.1c1.1,0.5,2.1,1.1,3.1,1.8
	c0.1,0.1,0.1,0.1,0.1,0.3s-0.3,0.4-0.4,0.6s-0.1,0.1-0.3,0c-1-0.8-2-1.4-3.1-1.9L158.8,303z"/>
<path class="st2" d="M167.3,301c0.1-0.1,0.2,0,0.3,0.1c0.5,0.6,0.9,1.3,1.1,2c0.1,0.1,0.1,0.2-0.1,0.3c-0.2,0.1-0.3,0.2-0.5,0.3
	c-0.1,0.1-0.2,0-0.2-0.1c-0.3-0.7-0.7-1.5-1.2-2.1L167.3,301z M174.8,301c0.1,0.1,0.1,0.2,0.1,0.3c0,0,0,0-0.1,0.1
	c-0.2,0.2-0.3,0.4-0.4,0.7c-0.5,1.3-1.2,2.5-2.1,3.6c-0.8,1-1.7,1.9-2.8,2.7c-0.1,0.1-0.2,0.1-0.3,0c-0.2-0.2-0.5-0.3-0.7-0.4
	c1.2-0.7,2.3-1.7,3.1-2.8c0.8-1,1.4-2.2,1.9-3.5c0.1-0.4,0.2-0.8,0.2-1.1C174.1,300.6,174.5,300.8,174.8,301z M170.1,300.3
	c0.1,0,0.2,0,0.2,0.1c0.4,0.6,0.8,1.3,1.1,1.9c0,0.1,0,0.2-0.1,0.2c-0.2,0.1-0.4,0.2-0.6,0.3c-0.1,0-0.1,0-0.2-0.1
	c-0.3-0.7-0.6-1.4-1.1-2.1C169.7,300.5,169.9,300.4,170.1,300.3z"/>
<path class="st2" d="M184.1,301c1.6,0.5,3.1,1.1,4.6,2c0.1,0,0.1,0.1,0.1,0.2c-0.1,0.2-0.2,0.5-0.3,0.7c-0.1,0.1-0.1,0.1-0.3,0
	c-1.3-0.8-2.6-1.4-4.1-1.9v3.3c0,0.9,0,1.9,0,2.9c0,0.1,0,0.2-0.2,0.2h-0.7c-0.1,0-0.2,0-0.2-0.2c0.1-0.9,0.1-2,0.1-2.8v-6.2
	c0-0.7,0-1.5-0.1-2.2c0.4,0,0.8,0.1,1.2,0.2c0.2,0.1,0.2,0.2,0.1,0.4c-0.1,0.5-0.1,1-0.1,1.5L184.1,301z"/>
<path class="st2" d="M195.9,301.3c0.2-0.5,0.4-1,0.4-1.6c0.4,0.1,0.8,0.3,1.1,0.5c0.2,0.1,0.2,0.3,0,0.4c-0.2,0.2-0.4,0.5-0.5,0.8
	c-0.7,1.7-1.8,3.3-3.2,4.6c-0.1,0.1-0.3,0.2-0.4,0.1l0,0c-0.2-0.2-0.5-0.3-0.8-0.4C194,304.5,195.2,303,195.9,301.3z M200.5,299.8
	c0.1-0.1,0.2-0.1,0.3,0c1.4,1.5,2.6,3.2,3.5,5c0.1,0.1,0.1,0.2-0.1,0.3c-0.2,0.2-0.4,0.3-0.6,0.4c-0.1,0.1-0.2,0-0.2-0.1
	c-0.8-2-2-3.7-3.5-5.3C200.1,300.1,200.3,299.9,200.5,299.8z M202.1,298.1c0,0,0.1-0.1,0.1,0l0,0c0.6,0.5,1.2,1,1.6,1.7
	c0,0,0,0.1,0,0.2l0,0l-0.4,0.3c0,0.1-0.1,0.1-0.2,0l0,0c-0.4-0.7-1-1.3-1.6-1.8L202.1,298.1z M203.2,297.2c0.1,0,0.1,0,0.1,0
	c0.6,0.5,1.2,1,1.6,1.6c0,0.1,0,0.1,0,0.2l-0.4,0.3c-0.1,0.1-0.1,0.1-0.2,0c-0.4-0.7-1-1.3-1.6-1.8L203.2,297.2z"/>
<path class="st2" d="M208.7,298.4c0.1-0.1,0.2-0.1,0.2,0l0,0c0.9,0.5,1.8,1.1,2.5,1.9c0.1,0.1,0.1,0.2,0,0.3
	c-0.1,0.2-0.3,0.4-0.5,0.6c-0.1,0.1-0.1,0.1-0.2,0c-0.8-0.8-1.7-1.5-2.7-2.1L208.7,298.4z M210,305.9c1.4-0.7,2.8-1.6,4-2.6
	c1.4-1.1,2.7-2.4,3.8-3.8c0,0.3,0.1,0.6,0.2,0.9c0.1,0.2,0.1,0.3-0.1,0.5c-1,1.2-2.2,2.3-3.4,3.2c-1.3,1-2.7,1.9-4.2,2.7
	c-0.3,0.2-0.5,0.3-0.8,0.5c-0.1,0.1-0.2,0.1-0.3,0.1c0,0,0,0-0.1-0.1c-0.3-0.3-0.5-0.6-0.7-1C209,306.3,209.5,306.1,210,305.9
	L210,305.9z"/>
<path class="st2" d="M225.5,298.5c-0.1-0.5-0.3-1-0.5-1.5c0.4,0,0.8,0,1.2,0c0.2,0,0.3,0.1,0.2,0.3c-0.1,0.4,0,0.8,0.1,1.1l0.2,1.2
	l1.6-0.3c0.7-0.1,1.5-0.3,2.1-0.4c0.1,0,0.1,0,0.2,0.1l0,0c0,0.2,0.1,0.4,0.1,0.7s0,0.1-0.1,0.1l-2.1,0.4l-1.6,0.3l0.5,2.3l2.3-0.4
	c0.8-0.1,1.4-0.3,2-0.4c0.1,0,0.1,0,0.2,0.1s0.1,0.4,0.1,0.6s0,0.2-0.1,0.2c-0.6,0.1-1.3,0.2-2,0.4l-2.3,0.4l0.4,1.9
	c0.2,0.8,0.4,1.6,0.5,2.3c0,0.1,0,0.2-0.1,0.2c-0.2,0.1-0.4,0.1-0.7,0.2c-0.1,0-0.2,0-0.2-0.1c-0.1-0.6-0.3-1.5-0.4-2.3l-0.4-2
	l-2.3,0.4c-0.8,0.1-1.5,0.3-2.1,0.5c-0.1,0-0.2,0-0.3-0.1s-0.2-0.6-0.3-0.8c0.8-0.1,1.5-0.2,2.4-0.3l2.3-0.4l-0.5-2.3l-1.6,0.3
	c-0.7,0.1-1.3,0.2-2,0.4c-0.1,0-0.2,0-0.2-0.1c-0.1-0.3-0.2-0.6-0.3-0.8c0.8-0.1,1.5-0.1,2.3-0.3l1.6-0.3L225.5,298.5z"/>
<path class="st2" d="M236.8,298.4c0.1-0.1,0.2-0.1,0.3,0c0.9,0.5,1.8,1.1,2.5,1.9c0.1,0.1,0.1,0.2,0,0.3c-0.1,0.2-0.3,0.4-0.5,0.6
	c-0.1,0.1-0.1,0.1-0.2,0c-0.8-0.8-1.7-1.5-2.7-2.1L236.8,298.4z M238,305.9c1.4-0.7,2.8-1.6,4.1-2.6c1.4-1.1,2.7-2.4,3.8-3.8
	c0,0.3,0.1,0.6,0.2,0.9c0.1,0.2,0,0.4-0.1,0.5c-1,1.2-2.2,2.3-3.4,3.2c-1.3,1-2.7,2-4.2,2.7c-0.3,0.2-0.5,0.3-0.8,0.5
	c-0.1,0.1-0.3,0.1-0.4,0c-0.3-0.3-0.5-0.6-0.7-1C237.1,306.3,237.5,306.1,238,305.9L238,305.9z"/>
<path class="st2" d="M257.2,299.2c0.4,0,0.5,0,0.7-0.2s0.2,0,0.4,0.1c0.2,0.1,0.4,0.3,0.6,0.5s0.1,0.3,0,0.4
	c-0.2,0.1-0.3,0.3-0.4,0.5c-0.7,1.6-1.6,3-2.7,4.4c-1.3,1.4-2.7,2.7-4.4,3.6c-0.1,0.1-0.2,0.1-0.3,0c-0.2-0.2-0.5-0.3-0.8-0.4
	c1.8-0.9,3.3-2.2,4.6-3.7c1.1-1.3,2-2.7,2.6-4.3l-4,0.1c-0.8,1.1-1.8,2.1-2.8,3c-0.1,0.1-0.3,0.1-0.4,0l0,0
	c-0.2-0.1-0.5-0.2-0.7-0.3c1.5-1.1,2.7-2.5,3.6-4.1c0.4-0.5,0.6-1.1,0.7-1.8c0.4,0.1,0.7,0.3,1.1,0.5c0.1,0,0.1,0.2,0.1,0.3
	l-0.1,0.1c-0.2,0.1-0.3,0.3-0.4,0.5c-0.2,0.3-0.4,0.6-0.6,0.9L257.2,299.2z M258.8,297.3c0,0,0.1,0,0.2,0c0.6,0.5,1.2,1,1.6,1.7
	c0,0,0,0.1,0,0.2l0,0l-0.4,0.3c-0.1,0.1-0.1,0-0.2,0c-0.4-0.7-1-1.3-1.6-1.8L258.8,297.3z M260,296.4c0,0,0.1,0,0.2,0
	c0.6,0.5,1.1,1,1.6,1.6c0,0.1,0,0.1,0,0.2l-0.4,0.3c0,0.1-0.1,0.1-0.2,0c-0.4-0.7-1-1.3-1.6-1.8L260,296.4z"/>
<path class="st2" d="M265.7,297.9c0.1,0.1,0.2,0.1,0.2,0.2s0,0.2-0.1,0.2c-0.1,0.2-0.2,0.5-0.3,0.8c-0.4,1.6-0.6,3.2-0.7,4.8
	c0,0.8,0.1,1.6,0.2,2.4c0.3-0.8,0.6-1.4,1-2.4c0.1,0.2,0.2,0.4,0.3,0.6l0.1,0.1c0,0.1,0,0.2-0.1,0.2c-0.3,0.7-0.6,1.4-0.9,2.2
	c0,0.1-0.1,0.2-0.1,0.4c0,0.1,0,0.2,0,0.3c0,0.1,0,0.1-0.1,0.1c-0.2,0.1-0.4,0.1-0.6,0.1c-0.1,0-0.1-0.1-0.1-0.1
	c-0.4-1.3-0.6-2.7-0.6-4.1c0-1.6,0.2-3.2,0.6-4.8c0.1-0.5,0.2-1,0.2-1.6C265,297.6,265.4,297.7,265.7,297.9z M268.6,304.6
	c0.1,0,0.1,0,0.1,0.1c0,1.1,0.9,1.5,2.5,1.5c0.9,0,1.9-0.1,2.8-0.2c0.1,0,0.1,0,0.1,0.1s0,0.5,0,0.7s0,0.1-0.2,0.2
	c-0.8,0.1-1.7,0.2-2.5,0.1c-1.6,0-2.5-0.2-3.1-0.9c-0.4-0.5-0.6-1.1-0.6-1.7L268.6,304.6z M268.3,299.4c0-0.1,0-0.2,0.2-0.2
	c1-0.1,2-0.2,3-0.3c0.8,0,1.6,0,2,0.1c0.2,0,0.2,0,0.2,0.1s0,0.5,0,0.7s0,0.1-0.1,0.1c-0.5,0-1.5-0.1-2.3-0.1c-1,0-2,0.1-2.9,0.3
	C268.3,299.7,268.3,299.5,268.3,299.4L268.3,299.4z"/>
<path class="st2" d="M281.4,305.5c0,1.4,0.8,1.9,2.2,1.9s2.8-0.7,2.8-2.2c0-1-0.5-1.9-1.3-2.5c0.3,0,0.6,0,0.9-0.1
	c0.1,0,0.2,0,0.2,0c0.7,0.6,1.1,1.6,1.2,2.5c0,1.9-1.6,3-3.6,3c-2.2,0-3.2-1-3.2-2.8c0-0.5,0.1-1.1,0.1-1.7
	c-0.8-0.1-1.5-0.2-2.2-0.4c-0.1,0-0.1-0.1-0.1-0.2c0-0.3,0-0.5,0-0.8c0.8,0.3,1.6,0.5,2.5,0.5c0.1-0.9,0.2-1.7,0.3-2.4
	c-0.8-0.1-1.6-0.2-2.4-0.5c-0.1,0-0.1,0-0.1-0.2s0-0.5,0-0.8c0.9,0.3,1.8,0.5,2.7,0.5c0.1-0.8,0.2-1.1,0.2-1.7
	c0.1-0.4,0.1-0.8,0-1.2c0.4,0.1,0.7,0.2,1.1,0.3c0.1,0.1,0.2,0.1,0.2,0.2s0,0.1-0.1,0.2c-0.1,0.2-0.2,0.4-0.3,0.7
	c-0.1,0.5-0.2,1-0.3,1.5c0.7,0.1,1.3,0.1,2,0c0.1,0,0.1,0,0.1,0.1s0,0.5,0,0.6s-0.1,0.1-0.1,0.1c-0.7,0-1.4,0-2,0
	c-0.1,0.7-0.2,1.5-0.4,2.4c0.8,0.1,1.5,0.1,2.3,0c0.1,0,0.2,0,0.2,0.1s0,0.5,0,0.6s-0.1,0.1-0.1,0.1c-0.8,0-1.6,0-2.4,0
	C281.5,304.5,281.4,305.1,281.4,305.5z"/>
<path class="st2" d="M297,299.5c0,0.1,0,0.1-0.1,0.1s-0.3,0-1.1,0c-0.1,1.5-0.4,3-1,4.4c0.6,0.7,1.2,1.5,1.7,2.3
	c0.1,0.1,0.1,0.1-0.1,0.2L296,307c-0.1,0.1-0.1,0.1-0.2,0c-0.4-0.7-0.9-1.4-1.4-2.1c-0.7,1.4-1.7,2.6-3,3.5
	c-0.1,0.1-0.1,0.1-0.2,0.1s-0.1,0-0.2-0.2s-0.3-0.3-0.5-0.4c1.4-0.9,2.5-2.2,3.3-3.7c-0.7-0.8-1.4-1.6-2.2-2.3
	c-0.1-0.1-0.1-0.1,0-0.2l0.3-0.3c0.1-0.1,0.1-0.1,0.2,0c0.7,0.7,1.3,1.4,2,2.1c0.4-1.2,0.7-2.4,0.7-3.7h-2.3c-1.3,0-1.7,0-1.7,0
	s-0.1,0-0.1-0.1V299c0-0.1,0-0.1,0.1-0.1s0.5,0,1.7,0h0.9v-1c0-0.5,0-1-0.1-1.5c0.4,0,0.6,0,0.9,0.1c0.1,0,0.2,0.1,0.2,0.1
	c0,0.1,0,0.2-0.1,0.3c-0.1,0.3-0.1,0.7-0.1,1v1h0.7c1.3,0,1.7,0,1.7,0s0.1,0,0.1,0.1L297,299.5z M303.1,300.5c0,0.1,0,0.1-0.1,0.1
	s-0.4,0-1.5,0v4.8c0,0.8,0,1.5,0,2.2c0.1,0.4-0.1,0.8-0.4,1c-0.2,0.2-0.7,0.3-2,0.3c-0.3,0-0.3,0-0.4-0.3c0-0.2-0.1-0.4-0.3-0.6
	c0.5,0,1.1,0,1.6,0s0.6-0.1,0.6-0.5v-6.9H299c-1.2,0-1.6,0-1.7,0s-0.1,0-0.1-0.1v-0.6c0-0.1,0-0.1,0.1-0.1s0.5,0,1.7,0h1.7v-1.6
	c0-0.6,0-1.1-0.1-1.7c0.3,0,0.6,0,0.9,0.1c0.1,0,0.2,0.1,0.2,0.1c0,0.1,0,0.2-0.1,0.3c-0.1,0.4-0.1,0.8-0.1,1.2v1.6
	c1.1,0,1.4,0,1.5,0s0.1,0,0.1,0.1V300.5z M297.7,302.1c0.1-0.1,0.1-0.1,0.2,0c0.7,0.7,1.3,1.6,1.7,2.5c0,0.1,0,0.1-0.1,0.2l-0.4,0.2
	c-0.2,0.1-0.2,0.1-0.3,0c-0.4-0.9-0.9-1.7-1.6-2.5c-0.1-0.1-0.1-0.1,0.1-0.2L297.7,302.1z"/>
<path class="st2" d="M316.9,298.9c0,0.1,0,0.1-0.1,0.1s-0.5,0-1.9,0H307v1.9c0,1.3-0.1,2.7-0.2,4s-0.5,2.5-1.2,3.6
	c0,0.1-0.1,0.2-0.1,0.2s-0.1,0-0.2-0.1c-0.2-0.2-0.3-0.3-0.5-0.4c0.7-1.1,1.1-2.3,1.2-3.5c0.2-1.3,0.2-2.5,0.2-3.8
	c0-1.7,0-2.4,0-2.5s0-0.1,0.1-0.1s0.6,0,2,0h2.8v-0.9c0-0.4,0-0.8-0.1-1.1c0.4,0,0.6,0,0.9,0.1c0.1,0,0.2,0.1,0.2,0.1
	c0,0.1,0,0.2-0.1,0.3c-0.1,0.2-0.1,0.4-0.1,0.7v0.9h3.1c1.4,0,1.9,0,1.9,0s0.1,0,0.1,0.1L316.9,298.9z M308.9,303.1
	c0.2,0,0.2,0,0.2,0.2c-0.2,1.3-0.6,2.6-1.2,3.8c0,0.1-0.1,0.1-0.2,0l-0.4-0.2c-0.2-0.1-0.2-0.1-0.1-0.2c0.6-1.1,1-2.3,1.2-3.6
	c0-0.1,0-0.1,0.2,0L308.9,303.1z M310.9,306.6c0,0.7,0,0.9,0.2,1.1c0.4,0.2,0.9,0.2,1.3,0.2c0.5,0.1,0.9,0,1.3-0.3
	c0.3-0.3,0.4-0.8,0.5-1.9c0.2,0.1,0.4,0.2,0.6,0.3c0.2,0.1,0.2,0.1,0.2,0.4c-0.1,1.3-0.3,1.7-0.7,2c-0.6,0.3-1.3,0.4-1.9,0.4
	c-0.7,0.1-1.4,0-2-0.3c-0.2-0.2-0.3-0.5-0.3-1.2v-3.2c0-0.6,0-1.2-0.1-1.8c0.3,0,0.6,0,0.9,0.1c0.1,0,0.2,0.1,0.2,0.1
	c0,0.1,0,0.2-0.1,0.3c-0.1,0.5-0.1,0.9,0,1.4L310.9,306.6z M310.7,299.7c0.1-0.1,0.1-0.1,0.2-0.1c0.9,0.5,1.8,1.1,2.6,1.8
	c0.1,0.1,0.1,0.1,0,0.2l-0.3,0.4c-0.2,0.2-0.2,0.2-0.2,0.1c-0.8-0.7-1.7-1.4-2.6-1.9c-0.1,0-0.1,0,0-0.2L310.7,299.7z M315.3,302.8
	c0.2-0.1,0.2-0.1,0.2,0c0.6,1.1,1.1,2.3,1.5,3.6c0,0.1,0,0.1-0.2,0.2l-0.4,0.2c-0.2,0.1-0.2,0.1-0.3,0c-0.3-1.3-0.8-2.5-1.4-3.6
	c0-0.1,0-0.1,0.1-0.2L315.3,302.8z"/>
<path class="st2" d="M323,297.3c0.1,0,0.2,0.1,0.2,0.2s-0.1,0.2-0.1,0.4c-0.1,0.5-0.2,1-0.2,1.4c-0.1,2.1-0.2,4-0.2,6
	c0,1.6,0.4,2,1.6,2c2-0.2,3.8-1.1,5-2.7c0,0.3,0.1,0.6,0.2,0.8c0,0.1,0,0.1,0.1,0.2c0,0.1,0,0.1-0.2,0.3c-1.4,1.4-3.3,2.3-5.3,2.4
	c-1.6,0-2.4-0.8-2.4-2.8s0.1-4.3,0.2-6.2c0.1-0.7,0-1.4-0.1-2.1C322.2,297.1,322.6,297.1,323,297.3z"/>
<path class="st2" d="M340.8,299.1c-2.1,0.3-3.9,0.6-5.7,1c-0.3,0-0.6,0.1-0.8,0.2c-0.1,0.1-0.2,0.1-0.3,0.1c-0.1,0-0.2,0-0.2-0.1
	c-0.2-0.3-0.3-0.7-0.4-1c0.6,0,1.2-0.1,1.7-0.2c2.1-0.3,4.9-0.8,8.7-1.2c0.1,0,0.2,0,0.2,0.1c0,0.2,0.1,0.5,0.1,0.7
	c0,0.1,0,0.1-0.2,0.2c-0.7,0-1.4,0.2-2,0.4c-2,0.8-3.6,2.5-3.6,4.4c0,2.3,2,3,4.1,3.2c0.2,0,0.2,0,0.2,0.1c0,0.2,0,0.4-0.1,0.7
	c0,0.2-0.1,0.2-0.2,0.2c-2.4-0.2-4.9-1.2-4.9-4C337.4,301.9,338.6,300.3,340.8,299.1L340.8,299.1z"/>
<path class="st2" d="M26.7,320.6c0.1,0,0.1,0.1,0.1,0.2s0,0.2-0.1,0.3c-0.1,0.4-0.1,0.9-0.1,1.3c0,1.1,0.1,2.1,0.2,3.2
	c0.2,1.6,0.8,2.9,1.5,2.9s1.1-0.9,1.5-2.2c0.1,0.3,0.3,0.5,0.5,0.7c0.1,0.1,0.2,0.2,0.1,0.4c-0.4,1.1-1.1,2.2-2.1,2.2
	c-1.2,0-2.1-1.6-2.4-3.8c-0.2-1.3-0.2-2.6-0.3-3.9c0-0.4,0-0.9-0.1-1.3C26,320.4,26.3,320.5,26.7,320.6z M33.4,321.7
	c0.1,0,0.1,0,0.2,0c1.4,1.3,2.4,3,2.7,4.9c0,0.1,0,0.2-0.1,0.2c-0.2,0.1-0.4,0.2-0.7,0.3c-0.1,0-0.1,0-0.2-0.1l0,0
	c-0.3-1.9-1.2-3.6-2.6-4.9C33,322,33.2,321.8,33.4,321.7z"/>
<path class="st2" d="M73.6,321.1c-0.2,2.1-0.8,4.2-1.9,6.1c-0.3,0.8-1.2,1.4-2.1,1.4c-1,0-2-1.1-2-3.2c0-1.4,0.6-2.7,1.6-3.6
	c1.1-1,2.7-1.6,4.2-1.5c3.1,0,5,1.8,5,4.5c0,2.3-1.4,4.1-4.5,4.9c-0.1,0.1-0.3,0-0.4-0.2s-0.3-0.4-0.5-0.5c2.8-0.5,4.4-2,4.4-4.4
	c0-1.9-1.5-3.5-3.5-3.5C73.8,321.1,73.8,321.1,73.6,321.1L73.6,321.1L73.6,321.1z M69.9,322.4c-0.8,0.8-1.3,1.9-1.3,3
	c0,1.5,0.6,2.2,1.1,2.2s0.9-0.3,1.3-1c0.9-1.7,1.5-3.6,1.6-5.5C71.6,321.2,70.7,321.7,69.9,322.4z"/>
<path class="st2" d="M88.8,321.2c-2.1,0.3-3.9,0.6-5.7,1c-0.3,0-0.6,0.1-0.8,0.2c-0.1,0-0.2,0.1-0.3,0.1c-0.1,0-0.2-0.1-0.2-0.1
	c-0.2-0.3-0.3-0.7-0.4-1c0.6,0,1.2-0.1,1.7-0.2c2.1-0.3,4.9-0.8,8.7-1.2c0.1,0,0.2,0,0.2,0.1c0,0.2,0.1,0.5,0.1,0.7
	c0,0.1,0,0.2-0.2,0.2c-0.7,0-1.4,0.2-2,0.4c-2,0.8-3.6,2.5-3.6,4.4c0,2.3,2,3,4.1,3.2c0.2,0,0.2,0,0.2,0.2s0,0.4-0.1,0.7
	c0,0.1-0.1,0.2-0.2,0.2c-2.4-0.2-4.9-1.2-4.9-4C85.5,324.1,86.7,322.5,88.8,321.2L88.8,321.2z M90.5,323.2L90.5,323.2
	c0.7,0.5,1.3,1,1.7,1.7c0,0,0.1,0.1,0,0.1l0,0l-0.4,0.3c0,0-0.1,0.1-0.2,0l0,0c-0.4-0.7-1-1.3-1.6-1.8L90.5,323.2z M91.7,322.3
	c0.1,0,0.1-0.1,0.2,0c0.6,0.5,1.1,1,1.6,1.6c0,0.1,0,0.1,0,0.2l-0.4,0.3c0,0.1-0.1,0.1-0.2,0c-0.4-0.7-1-1.3-1.6-1.8L91.7,322.3z"/>
<path class="st2" d="M95.3,327.8c0,0,0.1-0.1,0.2-0.1c0,0,0.1,0,0.2,0.1c1.1,0.7,2,1.5,2.7,2.5c0,0,0.1,0.1,0.1,0.2
	c0,0,0,0.1-0.1,0.2l-0.5,0.4c-0.1,0.1-0.1,0.1-0.1,0.1s-0.1,0-0.2-0.1c-0.7-1-1.6-1.9-2.6-2.6c-0.1,0-0.1-0.1-0.1-0.1s0-0.1,0.1-0.1
	L95.3,327.8z"/>
<path class="st2" d="M112.5,326.2c0,3.7,0,4.4,0,4.4s0,0.1-0.1,0.1h-0.7c-0.1,0-0.1,0-0.1-0.1v-0.8h-6.9v0.8c0,0.1,0,0.1-0.1,0.1
	H104c-0.1,0-0.1,0-0.1-0.1s0-0.7,0-4.4v-2.6c0-2.6,0-3.3,0-3.3s0-0.1,0.1-0.1s0.6,0,2,0h0.8c0.2-0.5,0.4-1,0.6-1.5
	c0.1-0.2,0.1-0.4,0.1-0.6c0.3,0,0.6,0.1,0.9,0.2c0.1,0,0.2,0.1,0.2,0.1c0,0.1,0,0.1-0.1,0.2s-0.2,0.2-0.2,0.4
	c-0.2,0.4-0.3,0.9-0.5,1.3h2.8c1.4,0,1.9,0,2,0s0.1,0,0.1,0.1s0,0.7,0,3L112.5,326.2z M111.6,321h-6.9v2.1h6.9V321z M111.6,323.9
	h-6.9v2.1h6.9V323.9z M111.6,326.7h-6.9v2.3h6.9V326.7z"/>
<path class="st2" d="M128,325.5c0,0.1,0,0.1-0.1,0.1s-0.6,0-1.9,0.2l-4.1,0.5v2.6c0,0.4,0.2,0.7,0.6,0.7c0.7,0.1,1.3,0.1,2,0.1
	c0.7,0.1,1.4-0.1,2-0.4c0.3-0.3,0.5-0.7,0.5-1.7c0.2,0.1,0.4,0.2,0.7,0.3c0.3,0.1,0.3,0.1,0.2,0.3c0,0.7-0.3,1.3-0.8,1.8
	c-0.8,0.4-1.7,0.6-2.6,0.5c-0.8,0-1.7,0-2.5-0.2c-0.6-0.2-1-0.7-0.9-1.3v-2.7l-2.8,0.4c-1.3,0.2-1.7,0.3-1.8,0.3s-0.1,0-0.2-0.1
	l-0.1-0.6c0-0.1,0-0.1,0.1-0.1s0.5,0,1.8-0.2l2.9-0.4v-2.1c-1,0.2-2,0.5-3.1,0.6c-0.3,0-0.2,0-0.4-0.2c-0.1-0.2-0.2-0.4-0.3-0.5
	c2.3-0.3,4.5-0.8,6.7-1.6c0.3-0.1,0.6-0.2,0.8-0.4c0.2,0.2,0.4,0.3,0.6,0.5c0.1,0,0.1,0.1,0.1,0.2s-0.1,0.1-0.2,0.1
	c-0.2,0-0.3,0.1-0.5,0.1c-0.9,0.3-1.9,0.6-2.9,0.9v2.2l4-0.5c1.3-0.2,1.7-0.3,1.8-0.3s0.1,0,0.1,0.1L128,325.5z M127.7,321.2
	c0,1.2,0,1.4,0,1.5s0,0.1-0.1,0.1H127c-0.1,0-0.1,0-0.1-0.1v-2h-9.6v2c0,0.1,0,0.1-0.1,0.1h-0.7c-0.1,0-0.1,0-0.1-0.1s0-0.3,0-1.5
	v-0.5c0-0.5,0-0.7,0-0.8s0-0.1,0.1-0.1s0.6,0,1.9,0h3.1v-0.2c0-0.5,0-1-0.1-1.5c0.3,0,0.7,0,0.9,0.1c0.1,0,0.2,0,0.2,0.1
	s0,0.2-0.1,0.3c-0.1,0.3-0.1,0.7-0.1,1v0.2h3.3c1.4,0,1.8,0,1.9,0s0.1,0,0.1,0.1s0,0.3,0,0.7L127.7,321.2z"/>
<path class="st2" d="M137.8,321.2c-2.1,0.3-3.9,0.6-5.7,1c-0.3,0-0.6,0.1-0.8,0.2c-0.1,0-0.2,0.1-0.3,0.1s-0.2-0.1-0.2-0.1
	c-0.1-0.3-0.3-0.7-0.4-1c0.6,0,1.2-0.1,1.7-0.2c2.1-0.3,4.9-0.8,8.7-1.2c0.1,0,0.2,0,0.2,0.1c0,0.2,0.1,0.5,0.1,0.7
	c0,0.1,0,0.2-0.2,0.2c-0.7,0-1.4,0.2-2,0.4c-2,0.8-3.6,2.5-3.6,4.4c0,2.3,2,3,4.1,3.2c0.2,0,0.2,0,0.2,0.2s0,0.4-0.1,0.7
	c0,0.1-0.1,0.2-0.2,0.2c-2.4-0.2-4.9-1.2-4.9-4C134.5,324.1,135.7,322.5,137.8,321.2L137.8,321.2z M139.5,323.2h0.1
	c0.6,0.5,1.2,1,1.6,1.7c0,0,0.1,0.1,0,0.1l0,0l-0.4,0.3c0,0-0.1,0.1-0.2,0l0,0c-0.4-0.7-1-1.3-1.6-1.8L139.5,323.2z M140.7,322.3
	c0.1,0,0.1-0.1,0.2,0c0.6,0.5,1.1,1,1.6,1.6c0,0.1,0,0.1,0,0.2l-0.4,0.3c0,0.1-0.1,0.1-0.2,0c-0.4-0.7-1-1.3-1.6-1.8L140.7,322.3z"
	/>
<path class="st2" d="M152.8,323.7c0.1,0,0.2,0,0.4-0.1h0.1c0.1,0,0.2,0,0.4,0.3s0.3,0.3,0.3,0.4s0,0.1-0.1,0.2s-0.2,0.2-0.3,0.3
	c-0.7,1.2-1.6,2.3-2.7,3.1c1.7,1.1,3.6,1.8,5.6,2.1c-0.2,0.2-0.3,0.4-0.4,0.6c-0.1,0.3-0.1,0.3-0.4,0.2c-2-0.4-3.8-1.2-5.5-2.4
	c-1.6,1.1-3.4,1.9-5.3,2.4c-0.3,0.1-0.3,0-0.4-0.2c-0.1-0.2-0.2-0.4-0.4-0.5c1.9-0.4,3.7-1.1,5.4-2.2c-1.1-1-1.9-2.1-2.5-3.5
	c-1.1,0-1.5,0-1.6,0s-0.1,0-0.1-0.1v-0.6c0-0.1,0-0.1,0.1-0.1s0.5,0,1.9,0h2.3v-2.2h-3.4c-1.3,0-1.8,0-1.9,0s-0.1,0-0.1-0.1v-0.6
	c0-0.1,0-0.1,0.1-0.1s0.5,0,1.9,0h3.4V320c0-0.6,0-1.1-0.1-1.7c0.3,0,0.7,0,1,0.1c0.1,0,0.2,0.1,0.2,0.1c0,0.1,0,0.2-0.1,0.3
	c-0.1,0.4-0.1,0.8-0.1,1.2v0.7h3.7c1.3,0,1.8,0,1.9,0s0.1,0,0.1,0.1v0.6c0,0.1,0,0.1-0.1,0.1s-0.5,0-1.9,0h-3.7v2.2L152.8,323.7z
	 M147.8,324.4c0.5,1.1,1.3,2.1,2.2,2.9c1-0.8,1.9-1.8,2.6-2.9H147.8z"/>
<path class="st2" d="M161,324.7c0.6-0.3,1.3-0.5,1.9-0.8c0,0.2-0.1,0.4-0.1,0.6s0,0.3-0.3,0.4c-0.4,0.2-0.9,0.5-1.5,0.7v1.8
	c0,0.8,0,1.6,0,2.1s-0.1,0.9-0.4,1.1s-0.6,0.3-1.5,0.2c-0.3,0-0.3,0-0.4-0.3c-0.1-0.2-0.1-0.4-0.3-0.6c0.4,0,0.7,0.1,1.1,0.1
	c0.4,0,0.5-0.2,0.5-0.7v-3.4c-0.4,0.1-0.8,0.3-1.2,0.4c-0.2,0.1-0.4,0.1-0.5,0.3c-0.1,0.1-0.1,0.1-0.2,0.1c-0.1,0-0.1,0-0.1-0.1
	c-0.1-0.3-0.2-0.5-0.2-0.8c0.4-0.1,0.9-0.2,1.3-0.3l1-0.3v-3h-0.6c-1,0-1.4,0-1.4,0s-0.1,0-0.1-0.1v-0.6c0-0.1,0-0.1,0.1-0.1
	s0.4,0,1.4,0h0.6v-1.1c0-0.6,0-1.1-0.1-1.7c0.3,0,0.6,0,0.9,0.1c0.1,0,0.2,0.1,0.2,0.1c0,0.1,0,0.2-0.1,0.3
	c-0.1,0.4-0.1,0.8-0.1,1.2v1.1h0.2c1,0,1.4,0,1.4,0s0.1,0,0.1,0.1v0.6c0,0.1,0,0.1-0.1,0.1s-0.4,0-1.4,0H161V324.7z M167.6,324.9
	c0.1-0.1,0.2-0.1,0.3,0c1,1.6,1.8,3.3,2.5,5c0,0.1,0,0.1-0.1,0.2l-0.5,0.2c-0.2,0.1-0.2,0.1-0.2,0c-0.1-0.4-0.3-0.9-0.5-1.3
	c-1.9,0.4-4,0.8-6.1,1.1c-0.2,0-0.4,0.1-0.5,0.1c-0.1,0.1-0.1,0.1-0.2,0.1c-0.1,0-0.1,0-0.1-0.1c-0.1-0.3-0.2-0.6-0.2-0.9
	c0.5,0,1,0,1.4-0.1c0.9-2.8,1.6-5.8,2.1-8.7c0.1-0.5,0.2-1.1,0.2-1.6c0.3,0.1,0.6,0.1,0.9,0.2c0.1,0,0.2,0.1,0.2,0.2s0,0.2-0.1,0.2
	c-0.1,0.2-0.2,0.5-0.2,0.7c-0.6,3-1.3,6-2.2,8.9c1.5-0.2,3.1-0.5,4.6-0.8c-0.5-1-1-2-1.6-3c0-0.1,0-0.1,0.1-0.2L167.6,324.9z"/>
<path class="st2" d="M174.2,320.6c0.1,0,0.1,0.1,0.1,0.2s0,0.2-0.1,0.3c-0.1,0.4-0.1,0.9-0.1,1.3c0,1.1,0.1,2.1,0.2,3.2
	c0.2,1.6,0.8,2.9,1.5,2.9s1.1-0.9,1.5-2.2c0.1,0.3,0.3,0.5,0.5,0.7c0.1,0.1,0.2,0.2,0.1,0.4c-0.4,1.1-1.1,2.2-2.1,2.2
	c-1.2,0-2.1-1.6-2.4-3.8c-0.2-1.3-0.2-2.6-0.3-3.9c0-0.4,0-0.9-0.1-1.3C173.5,320.4,173.8,320.5,174.2,320.6z M180.9,321.7
	c0.1,0,0.1,0,0.2,0c1.4,1.3,2.4,3,2.7,4.9c0,0.1,0,0.2-0.1,0.2c-0.2,0.1-0.4,0.2-0.6,0.3c-0.1,0-0.1,0-0.2-0.1l0,0
	c-0.3-1.9-1.2-3.6-2.6-4.9C180.4,322,180.7,321.8,180.9,321.7z"/>
<path class="st2" d="M190.4,320.4c0.1-0.4,0.1-0.9,0.1-1.4c0.4,0.1,0.7,0.2,1.1,0.4c0.1,0.1,0.1,0.2,0.1,0.3c0,0,0,0.1-0.1,0.1
	c-0.1,0.1-0.2,0.3-0.2,0.5l-0.6,2c0.5-0.1,0.9-0.1,1.4-0.1c1.2,0,1.8,0.6,1.8,2.3c0,1.5-0.2,3.1-0.8,4.5c-0.2,0.7-0.9,1.1-1.6,1.1
	c-0.5,0-1-0.1-1.4-0.3c-0.1,0-0.2-0.1-0.2-0.2c0-0.3-0.1-0.6-0.2-0.8c0.5,0.2,1.1,0.4,1.6,0.4c0.4,0,0.7-0.1,0.9-0.7
	c0.5-1.3,0.7-2.6,0.6-3.9c0-1.1-0.2-1.5-1-1.5c-0.5,0-1,0.1-1.5,0.1c-0.7,2.3-1.7,4.5-2.9,6.6c0,0.1-0.1,0.1-0.2,0.1l0,0
	c-0.2-0.1-0.4-0.2-0.6-0.4c-0.1-0.1-0.1-0.2,0-0.2c1.1-1.9,2-3.9,2.7-6c-0.6,0.1-1.1,0.2-1.9,0.3c-0.2,0-0.4,0.1-0.6,0.2
	c-0.1,0.1-0.3,0.1-0.4-0.1c-0.1-0.3-0.2-0.6-0.3-1c0.5,0,1,0,1.5-0.1c0.8-0.1,1.3-0.2,2-0.3C190,321.8,190.2,321.2,190.4,320.4z
	 M195.4,321.6c0.1,0,0.2,0,0.2,0c1,0.9,1.8,2.1,2.3,3.4c0,0.1,0.1,0.2,0,0.2c-0.2,0.2-0.4,0.3-0.6,0.4c-0.1,0.1-0.2,0.1-0.2-0.1
	c-0.4-1.4-1.2-2.6-2.2-3.5C195,321.8,195.3,321.7,195.4,321.6L195.4,321.6z M195.7,319.4c0.1,0,0.1,0,0.1,0c0.6,0.5,1.2,1,1.6,1.7
	v0.1l0,0l-0.4,0.3c0,0-0.1,0.1-0.2,0l0,0c-0.4-0.7-1-1.3-1.6-1.8L195.7,319.4z M196.9,318.5c0.1,0,0.1-0.1,0.1,0
	c0.6,0.5,1.1,1,1.6,1.6c0,0.1,0,0.1,0,0.2l-0.4,0.3c-0.1,0-0.1,0-0.2,0c-0.4-0.7-1-1.3-1.6-1.8L196.9,318.5z"/>
<path class="st2" d="M207.8,328.5c0,0.5,0,0.8,0.1,1s0.7,0.2,1.6,0.2c0.5,0.1,1,0,1.5-0.2c0.3-0.2,0.4-0.6,0.4-1.6
	c0.2,0.1,0.4,0.2,0.6,0.3c0.3,0.1,0.3,0.1,0.2,0.3c-0.1,1-0.2,1.4-0.6,1.7c-0.7,0.4-1.5,0.6-2.3,0.5c-1.3,0-1.9-0.1-2.1-0.4
	s-0.3-0.6-0.3-1.4v-3.4h-2c0,1.3-0.3,2.5-1.1,3.5c-0.8,0.9-1.8,1.6-3,1.9c-0.1,0-0.1,0-0.2,0.1c-0.1,0-0.1-0.1-0.2-0.2
	c-0.1-0.2-0.3-0.4-0.4-0.5c1.2-0.2,2.3-0.8,3.1-1.6c0.7-0.9,1-2,1-3.1h-1.8c-1.4,0-1.8,0-1.9,0s-0.1,0-0.1-0.1v-0.6
	c0-0.1,0-0.1,0.1-0.1s0.5,0,1.9,0h7.6c1.4,0,1.8,0,1.9,0s0.1,0,0.1,0.1v0.6c0,0.1,0,0.1-0.1,0.1s-0.5,0-1.9,0h-2.2L207.8,328.5z
	 M211.7,321.2c0,1.2,0,1.4,0,1.5s0,0.1-0.1,0.1H211c-0.1,0-0.1,0-0.1-0.1v-2.1h-9.5v2.1c0,0.1,0,0.1-0.1,0.1h-0.6
	c-0.1,0-0.1,0-0.1-0.1s0-0.3,0-1.5v-0.5c0-0.5,0-0.7,0-0.8s0-0.1,0.1-0.1s0.6,0,1.9,0h3.1v-0.2c0-0.5,0-1-0.1-1.4
	c0.3,0,0.6,0,0.9,0.1c0.1,0,0.2,0.1,0.2,0.1c0,0.1,0,0.2-0.1,0.3c-0.1,0.3-0.1,0.7-0.1,1v0.2h3.3c1.4,0,1.9,0,1.9,0s0.1,0,0.1,0.1
	s0,0.3,0,0.7L211.7,321.2z M209.6,322.9c0,0.1,0,0.1-0.1,0.1s-0.5,0-1.8,0h-3.2c-1.3,0-1.8,0-1.8,0s-0.1,0-0.1-0.1v-0.6
	c0-0.1,0-0.1,0.1-0.1s0.5,0,1.8,0h3.1c1.3,0,1.8,0,1.8,0s0.1,0,0.1,0.1L209.6,322.9z"/>
<path class="st2" d="M224.3,319.1c0.1,0,0.3,0,0.4-0.1h0.1c0.1,0,0.2,0.1,0.4,0.3s0.3,0.3,0.3,0.5c0,0.1-0.1,0.2-0.2,0.2
	c-0.2,0.1-0.3,0.2-0.5,0.3c-1.3,1.1-2.7,2.1-4.1,3v3.9c0,1,0,1.4,0,1.8c0.1,0.4-0.1,0.9-0.4,1.2c-0.4,0.4-1.2,0.4-2.5,0.4
	c-0.3,0-0.3,0-0.4-0.3c0-0.2-0.1-0.5-0.3-0.7c0.6,0.1,1.3,0.1,1.9,0.1c0.5,0,0.8-0.2,0.8-0.9v-4.5c0-0.7,0-1.3-0.1-2l0.8,0.1
	c1.2-0.7,2.4-1.6,3.4-2.5H217c-1.4,0-1.9,0-1.9,0s-0.1,0-0.1-0.1v-0.7c0-0.1,0-0.1,0.1-0.1s0.5,0,1.9,0L224.3,319.1z"/>
<path class="st2" d="M234.9,330.1h-1.5v-1.5h1.5V330.1z M234.5,327.1h-0.9l-0.3-8h1.5L234.5,327.1z"/>
<path class="st2" d="M30,340.2c-3.5,2.8-4.1,7.9-1.4,11.5c0.4,0.5,0.9,1,1.4,1.4l-0.4,0.4c-2.6-2-3.7-4.1-3.7-6.8s1-4.8,3.7-6.8
	L30,340.2z"/>
<path class="st2" d="M37.8,346.4c-1.9,0.4-3.8,0.9-5.6,1.6c-0.3,0.1-0.4,0.2-0.5,0.2s-0.1-0.1-0.2-0.2c-0.1-0.2-0.2-0.5-0.3-0.7
	c0.2,0,0.4-0.1,0.6-0.2c0.6-0.2,1.1-0.6,1.6-1c1.4-1.1,2.8-2.4,4.6-4.2c-1.2,0.2-2.4,0.4-3.5,0.6l-0.5,0.1c-0.1,0-0.3,0.1-0.4,0.1
	c-0.1,0-0.1-0.1-0.2-0.2c-0.1-0.3-0.2-0.6-0.3-0.9c0.4,0,0.8,0,1.2,0c1.1-0.1,2.3-0.3,3.7-0.5c0.2,0,0.4-0.1,0.5-0.2
	c0.1,0,0.1-0.1,0.2-0.1c0.1,0,0.2,0.1,0.3,0.2c0.2,0.1,0.4,0.3,0.5,0.5c0.1,0.1,0.1,0.2,0.1,0.3c0,0.1-0.1,0.2-0.2,0.2
	c-0.2,0.1-0.3,0.2-0.5,0.3c-1.8,1.6-3.5,3-5.1,4.3l0,0c2.5-0.7,5.1-1.3,7.7-1.6c0.1,0,0.2,0,0.2,0.1c0.1,0.2,0.1,0.5,0.1,0.7
	c0,0.1,0,0.1-0.2,0.1c-0.9,0-1.7,0.2-2.5,0.5c-1.6,0.6-2.8,1.6-2.8,2.9c0,1.6,1.8,2,3.8,2.1c0.1,0,0.2,0,0.2,0.2s0,0.4-0.1,0.7
	c0,0.1,0,0.2-0.2,0.2s-0.5,0-0.9,0c-2.2-0.2-3.6-1.1-3.6-2.8C35.5,348.1,36.5,346.9,37.8,346.4L37.8,346.4z"/>
<path class="st2" d="M50.4,343.1c-0.2,2.1-0.8,4.2-1.8,6.1c-0.3,0.8-1.2,1.4-2.1,1.4c-1,0-2-1.1-2-3.2c0-1.4,0.6-2.7,1.6-3.6
	c1.1-1,2.7-1.6,4.2-1.5c3.1,0,5,1.8,5,4.5c0,2.3-1.4,4.1-4.5,4.9c-0.1,0.1-0.3,0-0.4-0.2c-0.1-0.2-0.3-0.4-0.5-0.5
	c2.8-0.5,4.4-2,4.4-4.4c0-1.9-1.5-3.5-3.5-3.5c-0.1,0-0.1,0-0.2,0L50.4,343.1L50.4,343.1z M46.7,344.4c-0.8,0.8-1.3,1.9-1.3,3
	c0,1.5,0.6,2.2,1.1,2.2s0.9-0.3,1.3-1c0.9-1.7,1.5-3.6,1.6-5.5C48.4,343.2,47.5,343.7,46.7,344.4z"/>
<path class="st2" d="M58.5,347c0-0.5,0-1.2,0-1.9c-0.4,0.6-0.8,1.2-1.3,1.7c-0.1,0.1-0.1,0.1-0.2,0.1s-0.1,0-0.1-0.1
	c-0.1-0.2-0.2-0.4-0.4-0.5c1.3-1.4,2.3-3.1,2.9-5c0.1-0.3,0.2-0.6,0.2-1c0.3,0.1,0.6,0.2,0.8,0.3c0.1,0.1,0.2,0.1,0.2,0.2
	s-0.1,0.1-0.1,0.2c-0.1,0.1-0.2,0.3-0.3,0.5c-0.3,0.7-0.6,1.5-1,2.2v6.8c0,1.5,0,2.1,0,2.2s0,0.1-0.1,0.1h-0.7c-0.1,0-0.1,0-0.1-0.1
	s0-0.7,0-2.2L58.5,347z M62.4,350.7c0,0.6,0.2,0.8,0.6,0.9c0.7,0.1,1.4,0.2,2.1,0.1c0.9,0.1,1.9,0,2.7-0.4c0.3-0.2,0.6-0.7,0.6-2
	c0.2,0.1,0.4,0.2,0.6,0.3c0.2,0.1,0.2,0.1,0.2,0.3c-0.1,1-0.3,1.7-0.8,2s-1.6,0.5-3.5,0.5c-0.8,0-1.7,0-2.5-0.2
	c-0.6-0.1-1.1-0.7-1-1.4v-4.6c-0.9,0.3-1.2,0.4-1.3,0.5s-0.1,0-0.2-0.1L60,346c0-0.1,0-0.1,0.1-0.1s0.5-0.1,1.5-0.4v-1.9
	c0-0.5,0-1-0.1-1.5c0.3,0,0.6,0,0.9,0.1c0.1,0,0.2,0.1,0.2,0.1c0,0.1,0,0.2-0.1,0.3c-0.1,0.3-0.1,0.7-0.1,1v1.7l1.9-0.6v-2.1
	c0-0.6,0-1.3-0.1-1.9c0.3,0,0.6,0,0.9,0.1c0.1,0,0.2,0.1,0.2,0.1c0,0.1,0,0.2-0.1,0.3c-0.1,0.5-0.1,1-0.1,1.5v1.9l1.3-0.4
	c0.6-0.2,1.2-0.4,1.8-0.6c0.1,0,0.1,0,0.1,0.1v1c0,1.2-0.1,2.4-0.3,3.5c-0.2,0.9-0.5,1.1-1.2,1.1c-0.2,0-0.4,0-0.8,0s-0.2,0-0.3-0.3
	c0-0.2-0.1-0.4-0.2-0.5c0.4,0.1,0.7,0.1,1.1,0.1c0.3,0,0.5-0.2,0.6-0.8c0.1-1.1,0.2-2.1,0.2-3.2l-2.4,0.8v2.5c0,1.4,0,2,0,2.1
	s0,0.1-0.1,0.1h-0.7c-0.1,0-0.1,0-0.1-0.1s0-0.7,0-2.1v-2.2l-1.9,0.6L62.4,350.7z"/>
<path class="st2" d="M72.9,341.9c0.1,0.1,0.2,0.1,0.2,0.2s0,0.2-0.1,0.2c-0.1,0.2-0.2,0.5-0.3,0.8c-0.4,1.6-0.6,3.2-0.7,4.8
	c0,0.8,0.1,1.6,0.2,2.4c0.3-0.8,0.6-1.4,1-2.4c0.1,0.2,0.2,0.4,0.3,0.6l0.1,0.1c0,0.1,0,0.2-0.1,0.2c-0.3,0.7-0.6,1.4-0.9,2.2
	c0,0.1-0.1,0.2-0.1,0.4c0,0.1,0,0.2,0,0.3c0,0.1,0,0.1-0.1,0.1c-0.2,0.1-0.4,0.1-0.6,0.1c-0.1,0-0.1-0.1-0.2-0.1
	c-0.4-1.3-0.7-2.7-0.6-4.1c0-1.6,0.2-3.2,0.6-4.8c0.1-0.5,0.2-1,0.2-1.6C72.3,341.6,72.6,341.7,72.9,341.9z M75.8,348.6
	c0.1,0,0.1,0,0.1,0.1c0,1.1,0.9,1.5,2.6,1.5c0.9,0,1.8-0.1,2.8-0.2c0.1,0,0.1,0,0.2,0.1s0,0.5,0,0.7s0,0.1-0.2,0.2
	c-0.8,0.1-1.7,0.2-2.5,0.1c-1.6,0-2.5-0.2-3.1-0.9c-0.4-0.5-0.6-1.1-0.6-1.7L75.8,348.6z M75.6,343.4c0-0.1,0-0.2,0.2-0.2
	c1-0.1,2-0.2,3-0.3c0.8,0,1.6,0,2,0.1c0.2,0,0.2,0,0.2,0.1s0,0.5,0,0.7s0,0.1-0.2,0.1c-0.6,0-1.5-0.1-2.3-0.1c-1,0-2,0.1-2.9,0.3
	C75.6,343.9,75.6,343.6,75.6,343.4L75.6,343.4z"/>
<path class="st2" d="M87.8,349.5c0,1.4,0.8,1.9,2.2,1.9s2.8-0.7,2.8-2.2c0-1-0.5-1.9-1.3-2.5c0.3,0,0.6,0,0.9-0.1c0.1,0,0.2,0,0.2,0
	c0.7,0.6,1.1,1.6,1.2,2.5c0,1.9-1.6,3-3.6,3s-3.2-1-3.2-2.8c0-0.5,0.1-1.1,0.1-1.7c-0.8-0.1-1.5-0.2-2.2-0.4c-0.1,0-0.1-0.1-0.1-0.2
	c0-0.3,0-0.5,0-0.8c0.8,0.3,1.6,0.5,2.5,0.5c0.1-0.9,0.2-1.7,0.3-2.4c-0.8-0.1-1.6-0.2-2.4-0.5c-0.1,0-0.1,0-0.1-0.2s0-0.5,0-0.8
	c0.9,0.3,1.8,0.5,2.7,0.5c0.1-0.8,0.2-1.1,0.2-1.7c0.1-0.4,0.1-0.8,0-1.2c0.4,0.1,0.7,0.2,1.1,0.3c0.1,0.1,0.2,0.1,0.2,0.2
	s0,0.1-0.1,0.2c-0.1,0.2-0.2,0.4-0.3,0.7c-0.1,0.5-0.2,1-0.3,1.5c0.7,0.1,1.3,0.1,2,0c0,0,0.1,0,0.1,0.1s0,0.5,0,0.6
	s-0.1,0.1-0.1,0.1c-0.7,0-1.4,0-2,0c-0.1,0.7-0.2,1.5-0.4,2.4c0.8,0.1,1.5,0.1,2.3,0c0.1,0,0.2,0,0.2,0.1s0,0.5,0,0.6
	s-0.1,0.1-0.1,0.1c-0.8,0-1.6,0-2.4,0C87.9,348.5,87.8,349.1,87.8,349.5z"/>
<path class="st2" d="M96.6,349.8c0,0,0.1-0.1,0.2-0.1c0,0,0.1,0,0.2,0.1c1.1,0.7,2,1.5,2.7,2.5c0,0,0.1,0.1,0.1,0.2
	c0,0,0,0.1-0.1,0.2l-0.5,0.4c-0.1,0.1-0.1,0.1-0.1,0.1s-0.1,0-0.2-0.1c-0.7-1-1.6-1.9-2.6-2.6c-0.1,0-0.1-0.1-0.1-0.1s0-0.1,0.1-0.1
	L96.6,349.8z"/>
<path class="st2" d="M110.2,351.6h-1.3l-1-3.3h-3.7l-1,3.3H102l3.3-10.3h1.5L110.2,351.6z M106.9,344.9c-0.3-0.9-0.5-1.7-0.7-2.6
	H106c-0.2,1-0.4,1.8-0.7,2.6l-0.8,2.5h3.2L106.9,344.9z"/>
<path class="st2" d="M118,342.4h-3.2v9.3h-1.2v-9.3h-3.2v-1h7.7v1H118z"/>
<path class="st2" d="M129.1,351.6h-1.2v-6.1c0-1.2,0-2.1,0-3.3h-0.2c-0.3,1.1-0.5,2-0.9,3.2l-1.9,6.1h-1.6l-1.9-6.1
	c-0.3-1.1-0.6-2.1-0.9-3.2h-0.2c0,1.1,0,2.1,0,3.3v6h-1.1v-10.3h2l1.8,6.1c0.3,1,0.6,2.1,0.9,3.1h0.2c0.4-1.1,0.6-2,1-3.1l1.9-6.1h2
	L129.1,351.6z"/>
<path class="st2" d="M130.9,349.8l0.1-0.1c0,0,0.1,0,0.1,0.1c1.1,0.7,2,1.5,2.7,2.5c0,0,0.1,0.1,0.1,0.2c0,0,0,0.1-0.1,0.2l-0.5,0.4
	c-0.1,0.1-0.1,0.1-0.1,0.1s-0.1,0-0.1-0.1c-0.7-1-1.6-1.9-2.6-2.6c-0.1,0-0.1-0.1-0.1-0.1s0-0.1,0.1-0.1L130.9,349.8z"/>
<path class="st2" d="M146,344.1h-5.1c-0.8,0-1.4,0-2,0.1c-0.1,0-0.2,0-0.2-0.2c0-0.3,0-0.6,0-0.9c0.8,0.1,1.4,0.1,2.3,0.1h3.6
	c0.8,0,1.6,0,2.4,0c0.2,0,0.2,0,0.2,0.2c0,0.6,0,1.4,0,2.1v3c0,0.8,0,1.8,0,2.4c0,0.1,0,0.2-0.2,0.2s-0.5,0-0.7,0s-0.2,0-0.2-0.2
	v-0.6H141c-0.8,0-1.5,0-2.2,0c-0.1,0-0.1,0-0.1-0.2c0-0.3-0.1-0.6-0.1-0.9c0.7,0,1.5,0.1,2.4,0.1h5L146,344.1L146,344.1z"/>
<path class="st2" d="M151.9,342.4c0.1-0.1,0.2-0.1,0.3,0c0.9,0.5,1.8,1.1,2.5,1.9c0.1,0.1,0.1,0.2,0,0.3c-0.1,0.2-0.3,0.4-0.5,0.6
	c-0.1,0.1-0.1,0.1-0.2,0c-0.8-0.8-1.7-1.5-2.7-2.1L151.9,342.4z M153.1,349.9c1.4-0.7,2.8-1.6,4.1-2.6c1.4-1.1,2.7-2.4,3.8-3.8
	c0,0.3,0.1,0.6,0.2,0.9c0.1,0.2,0.1,0.3-0.1,0.5c-1,1.2-2.2,2.3-3.4,3.2c-1.3,1-2.7,1.9-4.2,2.7c-0.3,0.2-0.5,0.3-0.8,0.5
	c-0.1,0.1-0.2,0.1-0.3,0.1c0,0,0,0-0.1-0.1c-0.3-0.3-0.5-0.6-0.7-1C152.2,350.3,152.7,350.1,153.1,349.9L153.1,349.9z"/>
<path class="st2" d="M166.5,345.9c1.4-0.4,2.8-0.9,4.1-1.5c0.5-0.2,1-0.5,1.4-0.9c0.3,0.2,0.6,0.5,0.8,0.8c0.1,0.2,0.1,0.3-0.1,0.4
	c-0.4,0.1-0.9,0.3-1.3,0.5c-1.6,0.7-3.2,1.2-4.9,1.7v2.4c0,0.7,0.2,1,0.7,1.1c0.7,0.1,1.4,0.2,2.1,0.1c1.2,0,2.4-0.1,3.6-0.3
	c0.1,0,0.2,0,0.2,0.1s0,0.5,0.1,0.7s-0.1,0.2-0.2,0.2c-1.3,0.2-2.5,0.3-3.8,0.2c-0.8,0-1.7-0.1-2.5-0.3c-0.8-0.2-1.1-0.7-1.1-1.7
	v-5.2c0-0.8,0-1.7-0.1-2.5c0.4,0,0.8,0.1,1.1,0.2c0.2,0,0.2,0.2,0.1,0.4c-0.2,0.5-0.2,1.1-0.2,1.7L166.5,345.9L166.5,345.9z
	 M172.5,341.6c0,0,0.1,0,0.2,0c0.6,0.5,1.2,1,1.6,1.7v0.1l0,0l-0.4,0.3c0,0-0.1,0.1-0.2,0l0,0c-0.4-0.7-1-1.4-1.6-1.8L172.5,341.6z
	 M173.7,340.7c0,0,0.1-0.1,0.1,0c0.6,0.5,1.1,1,1.6,1.6c0,0.1,0,0.1,0,0.2l-0.4,0.3c-0.1,0-0.1,0-0.2,0c-0.4-0.7-1-1.3-1.6-1.8
	L173.7,340.7z"/>
<path class="st2" d="M179.7,350.1c-1,0-1.9,0-2.6,0.1c-0.1,0-0.2,0-0.2-0.2s-0.1-0.6-0.1-0.9c0.9,0.1,1.8,0.1,2.9,0.1h4.6
	c1.2,0,2.3,0,3.2-0.1c0.2,0,0.2,0,0.2,0.2s0,0.5,0,0.7s0,0.2-0.2,0.2c-0.9,0-2.1,0-3.1,0L179.7,350.1z M180.9,344.3
	c-0.8,0-1.5,0-2.2,0.1c-0.1,0-0.2,0-0.2-0.2s-0.1-0.6-0.1-0.9c0.9,0.1,1.6,0.1,2.4,0.1h2.3c1,0,1.8,0,2.5,0c0.1,0,0.1,0,0.1,0.2
	s0,0.5,0,0.7c0,0.1,0,0.2-0.2,0.2c-0.8,0-1.6,0-2.5,0L180.9,344.3z"/>
<path class="st2" d="M192.3,346.7c0.6-0.3,1.3-0.5,1.9-0.8c0,0.2-0.1,0.4-0.1,0.6s0,0.3-0.3,0.4c-0.4,0.2-0.9,0.5-1.5,0.7v1.8
	c0,0.8,0,1.6,0,2.1s-0.1,0.9-0.4,1.1s-0.6,0.3-1.5,0.2c-0.3,0-0.3,0-0.4-0.3c-0.1-0.2-0.1-0.4-0.3-0.6c0.4,0,0.7,0.1,1.1,0.1
	c0.4,0,0.6-0.2,0.6-0.7v-3.4c-0.4,0.1-0.8,0.3-1.2,0.4c-0.2,0.1-0.4,0.1-0.5,0.3c0,0.1-0.1,0.1-0.2,0.1c-0.1,0-0.1,0-0.2-0.1
	c-0.1-0.3-0.1-0.5-0.2-0.8c0.4-0.1,0.9-0.2,1.3-0.3l1-0.3v-3h-0.6c-1,0-1.4,0-1.4,0s-0.1,0-0.1-0.1v-0.6c0-0.1,0-0.1,0.1-0.1
	s0.4,0,1.4,0h0.6v-1.1c0-0.6,0-1.1-0.1-1.7c0.3,0,0.6,0,0.9,0.1c0.1,0,0.2,0.1,0.2,0.1c0,0.1,0,0.2-0.1,0.3
	c-0.1,0.4-0.1,0.8-0.1,1.2v1.1h0.2c1,0,1.3,0,1.4,0s0.1,0,0.1,0.1v0.6c0,0.1,0,0.1-0.1,0.1s-0.4,0-1.4,0h-0.2L192.3,346.7z
	 M198.8,346.9c0.2-0.1,0.2-0.1,0.3,0c1,1.6,1.8,3.2,2.5,5c0,0.1,0,0.1-0.1,0.2l-0.5,0.2c-0.2,0.1-0.2,0.1-0.2,0
	c-0.2-0.4-0.3-0.9-0.5-1.3c-1.9,0.4-4.1,0.8-6.1,1.1c-0.2,0-0.4,0.1-0.5,0.1c-0.1,0.1-0.1,0.1-0.2,0.1s-0.1,0-0.2-0.1
	c-0.1-0.3-0.2-0.6-0.2-0.9c0.5,0,0.9,0,1.4-0.1c0.9-2.8,1.6-5.8,2.2-8.7c0.1-0.5,0.2-1.1,0.2-1.6c0.3,0.1,0.6,0.1,0.9,0.2
	c0.1,0,0.2,0.1,0.2,0.2s0,0.2-0.1,0.2c-0.1,0.2-0.2,0.5-0.2,0.7c-0.6,3-1.3,6-2.2,8.9c1.5-0.2,3.1-0.5,4.6-0.8c-0.5-1-1-2-1.6-3
	c0-0.1,0-0.1,0.1-0.2L198.8,346.9z"/>
<path class="st2" d="M204.6,342.6c0.1,0,0.1,0.1,0.1,0.2s0,0.2-0.1,0.3c-0.1,0.4-0.1,0.9-0.1,1.3c0,1.1,0.1,2.1,0.2,3.2
	c0.2,1.6,0.8,2.9,1.5,2.9s1.1-0.9,1.5-2.2c0.1,0.3,0.3,0.5,0.5,0.7c0.1,0.1,0.2,0.2,0.1,0.4c-0.4,1.1-1.1,2.2-2.1,2.2
	c-1.2,0-2.1-1.6-2.4-3.8c-0.2-1.3-0.2-2.6-0.3-3.9c0-0.4,0-0.9-0.1-1.3C203.9,342.4,204.2,342.5,204.6,342.6z M211.3,343.7
	c0.1,0,0.1,0,0.2,0c1.4,1.3,2.4,3,2.7,4.9c0,0.1,0,0.2-0.1,0.2c-0.2,0.1-0.4,0.2-0.6,0.3c-0.1,0-0.1,0-0.2-0.1c0,0,0,0,0-0.1
	c-0.3-1.9-1.2-3.6-2.6-4.9C210.9,344,211.1,343.8,211.3,343.7z"/>
<path class="st2" d="M218.4,341.9c0.1,0.1,0.2,0.1,0.2,0.2s0,0.2-0.1,0.2c-0.1,0.2-0.2,0.5-0.3,0.8c-0.4,1.6-0.6,3.2-0.6,4.8
	c0,0.8,0,1.6,0.2,2.4c0.3-0.8,0.6-1.4,1-2.4c0.1,0.2,0.2,0.4,0.3,0.6l0.1,0.1c0,0.1,0,0.2-0.1,0.2c-0.3,0.7-0.6,1.4-0.9,2.2
	c0,0.1,0,0.2,0,0.4c0,0.1,0,0.2,0,0.3c0,0.1,0,0.1-0.1,0.1c-0.2,0.1-0.4,0.1-0.6,0.1c-0.1,0-0.1-0.1-0.2-0.1
	c-0.4-1.3-0.6-2.7-0.6-4.1c0-1.6,0.2-3.2,0.6-4.8c0.1-0.5,0.2-1,0.2-1.6C217.8,341.6,218.1,341.7,218.4,341.9z M221.3,348.6
	c0.1,0,0.1,0,0.1,0.1c0.1,1.1,0.9,1.5,2.6,1.5c0.9,0,1.8-0.1,2.8-0.2c0.1,0,0.1,0,0.2,0.1s0,0.5,0,0.7s0,0.1-0.2,0.2
	c-0.8,0.1-1.7,0.2-2.5,0.1c-1.6,0-2.5-0.2-3.1-0.9c-0.4-0.5-0.6-1.1-0.6-1.7L221.3,348.6z M221.1,343.4c0-0.1,0-0.2,0.2-0.2
	c1-0.1,2-0.2,3-0.3c0.8,0,1.6,0,2,0.1c0.2,0,0.2,0,0.2,0.1s0,0.5,0,0.7s0,0.1-0.2,0.1c-0.5,0-1.4-0.1-2.3-0.1c-1,0-2,0.1-2.9,0.3
	C221.1,343.7,221.1,343.5,221.1,343.4L221.1,343.4z"/>
<path class="st2" d="M233.3,349.5c0,1.4,0.8,1.9,2.2,1.9s2.8-0.7,2.8-2.2c0-1-0.5-1.9-1.3-2.5c0.3,0,0.6,0,0.9-0.1
	c0.1,0,0.2,0,0.2,0c0.7,0.6,1.1,1.6,1.2,2.5c0,1.9-1.6,3-3.6,3c-2.2,0-3.2-1-3.2-2.8c0-0.5,0.1-1.1,0.1-1.7
	c-0.8-0.1-1.5-0.2-2.2-0.4c-0.1,0-0.1-0.1-0.1-0.2c0-0.3,0-0.5,0-0.8c0.8,0.3,1.6,0.5,2.5,0.5c0.1-0.9,0.2-1.7,0.3-2.4
	c-0.8-0.1-1.6-0.2-2.4-0.5c-0.1,0-0.1,0-0.1-0.2s0-0.5,0-0.8c0.9,0.3,1.8,0.5,2.7,0.5c0.1-0.8,0.1-1.1,0.2-1.7
	c0.1-0.4,0.1-0.8,0-1.2c0.4,0.1,0.7,0.2,1.1,0.3c0.1,0.1,0.2,0.1,0.2,0.2s0,0.1-0.1,0.2c-0.2,0.2-0.2,0.4-0.3,0.7
	c-0.1,0.5-0.2,1-0.3,1.5c0.7,0.1,1.3,0.1,2,0c0.1,0,0.1,0,0.1,0.1s0,0.5,0,0.6s-0.1,0.1-0.1,0.1c-0.7,0-1.4,0-2,0
	c-0.1,0.7-0.2,1.5-0.4,2.4c0.8,0.1,1.5,0.1,2.3,0c0.1,0,0.2,0,0.2,0.1s0,0.5,0,0.6s0,0.1-0.1,0.1c-0.8,0-1.6,0-2.4,0
	C233.3,348.5,233.3,349.1,233.3,349.5z"/>
<path class="st2" d="M248,343.5c0,0.1,0,0.1-0.1,0.1s-0.3,0-1.1,0c-0.1,1.5-0.4,3-1,4.4c0.6,0.7,1.2,1.5,1.7,2.3
	c0.1,0.1,0.1,0.1-0.1,0.2L247,351c-0.1,0.1-0.1,0.1-0.2,0c-0.4-0.7-0.9-1.4-1.4-2.1c-0.7,1.4-1.7,2.6-3,3.5
	c-0.1,0.1-0.1,0.1-0.2,0.1c-0.1,0-0.1,0-0.2-0.2c-0.1-0.2-0.3-0.3-0.5-0.4c1.4-0.9,2.5-2.2,3.3-3.7c-0.7-0.8-1.4-1.6-2.2-2.3
	c-0.1-0.1-0.1-0.1,0-0.2l0.3-0.3c0.1-0.1,0.1-0.1,0.2,0c0.7,0.7,1.3,1.4,1.9,2.1c0.4-1.2,0.7-2.4,0.7-3.7h-2.3c-1.3,0-1.7,0-1.7,0
	s-0.1,0-0.1-0.1V343c0-0.1,0-0.1,0.1-0.1s0.5,0,1.7,0h0.9v-1c0-0.5,0-1-0.1-1.5c0.4,0,0.6,0,0.9,0.1c0.1,0,0.2,0.1,0.2,0.1
	c0,0.1,0,0.2-0.1,0.3c-0.1,0.3-0.1,0.7-0.1,1v1h0.7c1.3,0,1.7,0,1.7,0s0.1,0,0.1,0.1L248,343.5z M254.1,344.5c0,0.1,0,0.1-0.1,0.1
	s-0.4,0-1.5,0v4.8c0,0.8,0,1.5,0,2.2c0.1,0.4-0.1,0.8-0.4,1c-0.2,0.2-0.7,0.3-2,0.3c-0.3,0-0.3,0-0.4-0.3c0-0.2-0.1-0.4-0.3-0.6
	c0.5,0,1.1,0,1.6,0s0.6-0.1,0.6-0.5v-6.9H250c-1.2,0-1.6,0-1.7,0s-0.1,0-0.1-0.1v-0.6c0-0.1,0-0.1,0.1-0.1s0.5,0,1.7,0h1.7v-1.6
	c0-0.6,0-1.1-0.1-1.7c0.3,0,0.6,0,0.9,0.1c0.1,0,0.2,0.1,0.2,0.1c0,0.1,0,0.2-0.1,0.3c-0.1,0.4-0.1,0.8-0.1,1.2v1.6
	c1.1,0,1.4,0,1.5,0s0.1,0,0.1,0.1L254.1,344.5z M248.7,346.1c0.1-0.1,0.1-0.1,0.2,0c0.7,0.7,1.3,1.6,1.7,2.5c0,0.1,0,0.1-0.1,0.2
	l-0.4,0.2c-0.2,0.1-0.2,0.1-0.3,0c-0.4-0.9-0.9-1.7-1.6-2.5c-0.1-0.1-0.1-0.1,0.1-0.2L248.7,346.1z"/>
<path class="st2" d="M267,342.9c0,0.1,0,0.1-0.1,0.1s-0.5,0-1.9,0h-8v1.9c0,1.3,0,2.7-0.2,4s-0.5,2.5-1.2,3.6
	c-0.1,0.1-0.1,0.2-0.1,0.2s-0.1,0-0.2-0.1c-0.2-0.2-0.3-0.3-0.5-0.4c0.7-1.1,1.1-2.3,1.2-3.5c0.2-1.3,0.2-2.5,0.2-3.8
	c0-1.7,0-2.4,0-2.5s0-0.1,0.1-0.1s0.6,0,2,0h2.7v-0.9c0-0.4,0-0.8-0.1-1.1c0.4,0,0.6,0,0.9,0.1c0.1,0,0.2,0.1,0.2,0.1
	c0,0.1,0,0.2-0.1,0.3c-0.1,0.2-0.1,0.4-0.1,0.7v0.9h3.1c1.4,0,1.9,0,1.9,0s0.1,0,0.1,0.1L267,342.9z M259,347.1c0.2,0,0.2,0,0.2,0.2
	c-0.2,1.3-0.6,2.6-1.2,3.8c0,0.1-0.1,0.1-0.2,0l-0.4-0.2c-0.1-0.1-0.2-0.1-0.1-0.2c0.6-1.1,1-2.3,1.2-3.6c0-0.1,0-0.1,0.2,0
	L259,347.1z M261,350.6c0,0.7,0,0.9,0.2,1.1c0.4,0.2,0.9,0.2,1.3,0.2c0.5,0.1,0.9,0,1.3-0.3c0.3-0.3,0.4-0.8,0.5-1.9
	c0.2,0.1,0.4,0.2,0.6,0.3c0.2,0.1,0.2,0.1,0.2,0.4c-0.1,1.3-0.3,1.7-0.7,2c-1.3,0.5-2.6,0.5-3.9,0c-0.2-0.2-0.3-0.5-0.3-1.2V348
	c0-0.6,0-1.2-0.1-1.8c0.3,0,0.6,0,0.9,0.1c0.1,0,0.2,0.1,0.2,0.1c0,0.1,0,0.2-0.1,0.3c-0.1,0.4-0.1,0.9-0.1,1.4V350.6z M260.8,343.7
	c0.1-0.1,0.1-0.1,0.2-0.1c0.9,0.5,1.8,1.1,2.6,1.8c0.1,0.1,0.1,0.1,0,0.2l-0.3,0.4c-0.2,0.2-0.2,0.2-0.2,0.1
	c-0.8-0.7-1.7-1.4-2.6-1.9c-0.1,0-0.1,0,0-0.2L260.8,343.7z M265.4,346.8c0.2-0.1,0.2-0.1,0.2,0c0.6,1.1,1.1,2.3,1.5,3.6
	c0,0.1,0,0.1-0.2,0.2l-0.4,0.2c-0.2,0.1-0.2,0.1-0.3,0c-0.3-1.3-0.8-2.5-1.4-3.6c0-0.1,0-0.1,0.1-0.2L265.4,346.8z"/>
<path class="st2" d="M272.2,341.3c0.2,0,0.2,0.1,0.2,0.2s-0.1,0.2-0.1,0.4c-0.1,0.5-0.1,1-0.2,1.4c-0.1,2.1-0.2,4-0.2,6
	c0,1.6,0.4,2,1.6,2c2-0.2,3.8-1.1,5-2.7c0,0.3,0.1,0.6,0.2,0.8c0,0.1,0,0.1,0.1,0.2c0,0.1,0,0.1-0.2,0.3c-1.4,1.4-3.3,2.3-5.3,2.4
	c-1.6,0-2.4-0.8-2.4-2.8s0.1-4.3,0.2-6.2c0.1-0.7,0-1.4-0.1-2.1C271.5,341.1,271.8,341.1,272.2,341.3z"/>
<path class="st2" d="M289.1,343.1c-2.1,0.3-3.9,0.6-5.7,1c-0.3,0-0.6,0.1-0.8,0.2c-0.1,0.1-0.2,0.1-0.3,0.1c-0.1,0-0.2,0-0.2-0.1
	c-0.2-0.3-0.3-0.7-0.4-1c0.6,0,1.2-0.1,1.7-0.2c2.1-0.3,4.9-0.8,8.7-1.2c0.1,0,0.2,0,0.2,0.1c0.1,0.2,0.1,0.5,0.1,0.7
	c0,0.1,0,0.1-0.2,0.2c-0.7,0-1.4,0.2-2,0.4c-2,0.8-3.6,2.5-3.6,4.4c0,2.3,2,3,4.1,3.2c0.2,0,0.2,0,0.2,0.1c0,0.2,0,0.5-0.1,0.7
	c0,0.2-0.1,0.2-0.2,0.2c-2.4-0.2-4.9-1.2-4.9-4C285.7,345.9,286.9,344.3,289.1,343.1L289.1,343.1z"/>
<path class="st2" d="M296.5,342.6c0.1,0,0.1,0.1,0.1,0.2s0,0.2-0.1,0.3c-0.1,0.4-0.1,0.9-0.1,1.3c0,1.1,0.1,2.1,0.2,3.2
	c0.2,1.6,0.8,2.9,1.5,2.9s1.1-0.9,1.5-2.2c0.1,0.3,0.3,0.5,0.5,0.7c0.1,0.1,0.2,0.2,0.1,0.4c-0.4,1.1-1.1,2.2-2.1,2.2
	c-1.2,0-2.1-1.6-2.4-3.8c-0.2-1.3-0.3-2.6-0.3-3.9c0-0.4,0-0.9-0.1-1.3C295.8,342.4,296.2,342.5,296.5,342.6z M303.2,343.7
	c0.1,0,0.2,0,0.2,0c1.4,1.3,2.4,3,2.7,4.9c0,0.1,0,0.2-0.1,0.2c-0.2,0.1-0.4,0.2-0.6,0.3c-0.1,0-0.2,0-0.2-0.1
	c-0.3-1.9-1.2-3.6-2.6-4.9C302.8,344,303,343.8,303.2,343.7z"/>
<path class="st2" d="M313.3,346.9c-1.1,0.1-2.1,0.1-3.2,0c-0.1,0-0.1,0-0.2-0.2c0-0.2,0-0.5,0-0.7c1.1,0.1,2.3,0.2,3.4,0.1
	c0-0.7,0-1.4,0-2.1c-1.2,0.1-2.5,0-3.7-0.1c-0.1,0-0.1,0-0.1-0.1c0-0.2-0.1-0.5-0.1-0.7c1.3,0.1,2.6,0.2,3.9,0.1c0-0.6,0-1,0-1.5
	c0-0.3,0-0.6-0.1-0.9c0.4,0,0.7,0.1,1.1,0.2c0.1,0,0.2,0.1,0.2,0.3c0,0,0,0,0,0.1c-0.1,0.2-0.2,0.4-0.2,0.6c0,0.5,0,0.8,0,1.2
	c1.1-0.1,2.3-0.3,3.4-0.5c0.1,0,0.1,0,0.1,0.1c0,0.2,0,0.4,0,0.6c0,0.1,0,0.1-0.1,0.1c-1.2,0.2-2.3,0.3-3.5,0.4c0,0.7,0,1.4,0,2.1
	c1-0.1,2.1-0.2,3.1-0.4c0.1,0,0.1,0,0.1,0.1s0,0.4,0,0.7c0,0.1,0,0.1-0.1,0.1c-1,0.2-2.1,0.3-3.1,0.4c0,0.9,0,1.6,0.1,2.4
	c1.3,0.4,2.6,1,3.7,1.8c0.1,0,0.1,0.1,0,0.2c-0.1,0.2-0.2,0.4-0.4,0.6c-0.1,0.1-0.1,0.1-0.2,0l0,0c-0.9-0.8-2-1.4-3.2-1.8
	c0,1.6-0.8,2.2-2.5,2.2s-2.5-0.6-2.5-1.7s1-1.7,2.6-1.7c0.5,0,1,0,1.5,0.1C313.3,348.4,313.3,347.8,313.3,346.9z M311.9,349.8
	c-1.2,0-1.8,0.4-1.8,0.9s0.5,0.9,1.6,0.9c0.5,0.1,1-0.1,1.4-0.4c0.2-0.3,0.3-0.7,0.3-1.1C312.9,349.9,312.4,349.8,311.9,349.8z"/>
<path class="st2" d="M332.6,343.6c0,0.1,0,0.1-0.2,0.1c-1.5,0-2.9-0.1-4.5,0c0,0.9,0,1.9,0,2.8c0.1,0.5,0.2,1,0.2,1.5
	c0,1.9-1,3.6-2.7,4.3c-0.1,0.1-0.2,0.1-0.3,0.1c-0.1,0-0.2,0-0.3-0.1c-0.2-0.2-0.4-0.3-0.6-0.4c2-0.8,2.9-2.1,3.1-3.5
	c-0.3,0.5-0.9,0.8-1.5,0.8c-1,0-1.8-0.8-1.9-1.8c0-0.1,0-0.2,0-0.2c0-1,0.8-1.9,1.8-1.9h0.1c0.5,0,1,0.1,1.3,0.5c0-0.7,0-1.3,0-2
	c-2,0.1-3.9,0.3-5.2,0.4c-0.3,0-0.5,0.1-0.6,0.1s-0.2-0.1-0.2-0.1l0,0c-0.1-0.3-0.2-0.6-0.2-0.9c0.6,0,1.2,0,1.8-0.1
	c1.1-0.1,2.6-0.2,4.4-0.3c0-0.6,0-0.9,0-1.3c0-0.3-0.1-0.6-0.1-0.9c0.4,0,0.7,0.1,1.1,0.1c0.2,0,0.3,0.1,0.3,0.2s0,0.2-0.1,0.3
	c-0.1,0.1-0.1,0.2-0.1,0.4c0,0.3,0,0.6,0,1.2c1.6,0,2.9,0,4.5,0c0.1,0,0.2,0,0.2,0.2L332.6,343.6z M324.7,347.2c0,0.6,0.4,1.2,1,1.2
	h0.1c0.7,0,1.3-0.5,1.3-1.2l0,0c0.1-0.7-0.4-1.3-1.1-1.3c-0.7-0.1-1.3,0.4-1.3,1.1C324.7,347.1,324.7,347.1,324.7,347.2L324.7,347.2
	z"/>
<path class="st2" d="M337.5,351.2c0,1.1-0.8,2-1.9,2s-2-0.8-2-1.9s0.8-2,1.9-2l0,0C336.6,349.2,337.5,350.1,337.5,351.2z
	 M334.3,351.2c0,0.7,0.6,1.3,1.3,1.3s1.3-0.6,1.3-1.3s-0.6-1.3-1.3-1.3C334.8,349.9,334.3,350.5,334.3,351.2L334.3,351.2z"/>
<path class="st2" d="M340,339.8c2.6,2,3.7,4.1,3.7,6.8s-1,4.8-3.7,6.8l-0.4-0.4c3.5-2.8,4.1-7.9,1.4-11.5c-0.4-0.5-0.9-1-1.4-1.4
	L340,339.8z"/>
<circle class="st3" cx="186.5" cy="46" r="45.5"/>
<path class="st4" d="M218.3,13.4l-63.5,65.1c18,17.5,46.8,17.2,64.3-0.8S236.3,31,218.3,13.4L218.3,13.4L218.3,13.4z"/>
<path class="st1" d="M170.2,32.9c-0.4,0-0.7-0.2-0.7-0.6l0,0l0,0c0.1-1.1,0.1-2.4,0.1-3.6s0-2.6,0-3.6c0-0.4,0-0.7,0-1
	c0.1-1.7,1.6-1.7,2.6-1.7c0.3,0,0.6,0,0.8,0c1.7,0,3.1,1.3,3.1,3c0,0,0,0,0,0.1c0,1.7-1.3,3.1-2.9,3.2c-0.3,0-0.7,0.1-1,0.1
	c-0.4,0-0.8,0-1.1-0.1H171c-0.1,0-0.1,0.1-0.1,0.2c0,0.9,0.1,2,0.1,2.9v0.6C170.9,32.6,170.6,32.9,170.2,32.9
	C170.3,32.9,170.2,32.9,170.2,32.9z M174.8,25.4c0-1-0.8-1.8-1.8-1.8c-0.1,0-0.1,0-0.2,0h-0.7c-1.1,0-1.3,0.2-1.3,1.4
	c0,0.6,0,1.3,0,1.8s0,0.6,1.3,0.6c0.3,0,0.6,0,0.9,0C174,27.4,174.8,26.5,174.8,25.4z"/>
<path class="st1" d="M177.7,29.5c-0.1-1.9,1.4-3.5,3.2-3.6c1.9-0.1,3.5,1.4,3.6,3.2c0,0.1,0,0.2,0,0.4c0.1,1.9-1.4,3.5-3.2,3.6
	s-3.5-1.4-3.6-3.2C177.7,29.8,177.7,29.6,177.7,29.5z M183.4,29.5c0.1-1.2-0.8-2.3-2.1-2.4c-1.2-0.1-2.3,0.8-2.4,2.1
	c0,0.1,0,0.2,0,0.3c-0.1,1.2,0.8,2.3,2.1,2.4c1.2,0.1,2.3-0.8,2.4-2.1C183.4,29.7,183.4,29.6,183.4,29.5z"/>
<path class="st1" d="M187.1,23.2c0.1-0.5,0.5-0.8,1-0.8c0.4,0,0.7,0.4,0.8,0.8c0,0.5-0.4,0.9-0.9,0.9l0,0c-0.4,0-0.8-0.3-0.9-0.7
	C187.1,23.3,187.1,23.2,187.1,23.2z M188.7,32.3c0,0.4-0.4,0.6-0.7,0.6s-0.5-0.3-0.6-0.6c0-1.2,0-2.8,0-4.1c0-0.6,0-1.2,0-1.6
	c0-0.3,0.3-0.6,0.6-0.6c0,0,0,0,0.1,0c0.3,0,0.6,0.2,0.6,0.5l0,0l0,0c0,0.6,0,1.7,0,2.9C188.7,30.5,188.7,31.5,188.7,32.3
	L188.7,32.3z"/>
<path class="st1" d="M196.5,32.3c0-0.6,0-1.6,0-2.5c0-0.6,0-1,0-1.3c0-0.7-0.5-1.3-1.2-1.3h-0.1c-1,0-1.9,0.8-2,1.8
	c0,0.3,0,0.6,0,1.1s0,1.3,0,2.3l0,0c0,0.3-0.2,0.6-0.6,0.6c0,0,0,0-0.1,0c-0.3,0-0.6-0.2-0.6-0.5l0,0l0,0c0-1.4,0.1-2.5,0.1-3.5
	c0-0.7,0-1.4,0-2.1l0,0c0-0.3,0.3-0.6,0.6-0.5l0,0c0.3,0,0.6,0.2,0.6,0.5l0,0V27v0.1c0,0,0,0,0.1-0.1c0.5-0.6,1.2-0.9,2-0.9
	c1.2,0,2.3,0.9,2.3,2.2v0.1c0,0.5,0,1.5,0,2.4c0,0.6,0,1.1,0,1.5c0,0.3-0.3,0.6-0.6,0.6l0,0C196.7,33,196.4,32.7,196.5,32.3
	C196.4,32.4,196.4,32.4,196.5,32.3L196.5,32.3z"/>
<path class="st1" d="M202.6,27.3c-0.2,0-0.2,0.1-0.2,0.2c0,0.5,0,1.8,0,2.8s0,1.6,0.9,1.6h0.3h0.1c0.3,0,0.5,0.2,0.5,0.5l0,0
	c0,0.6-0.8,0.6-1.1,0.6c-2,0-2-1.7-2-2.3c0-0.8,0-2.3,0-3v-0.2c0-0.2-0.1-0.2-0.2-0.2h-0.6c-0.3,0-0.5-0.2-0.5-0.5l0,0
	c0-0.3,0.2-0.5,0.5-0.5c0,0,0,0,0.1,0h0.6c0.2,0,0.2,0,0.2-0.2s0-0.5,0-0.9c0-0.1,0-0.3,0-0.4l0,0c0-0.3,0.2-0.5,0.5-0.5l0,0
	c0.6,0,0.6,0.5,0.6,0.8c0,0.4,0,1,0,1c0,0.2,0.1,0.2,0.2,0.2h1c0.3,0,0.6,0.3,0.6,0.6c0,0.3-0.3,0.6-0.6,0.6L202.6,27.3z"/>
<path class="st1" d="M178.9,65.8c-1.1,0.1-2.1-0.7-2.2-1.8c0-0.1,0-0.2,0-0.2c0-0.9,0.4-1.7,1-2.4c2.8-3.1,7.4-7.6,11-11.8
	c1.3-1.4,2.1-3.2,2.3-5.1c0-2.4-1.9-4.3-4.2-4.3c-0.1,0-0.2,0-0.3,0c-2.2,0-4.3,1.2-5.3,3.2c-0.3,0.7-1,1.1-1.7,1.1
	c-1,0-1.9-0.8-1.9-1.8c0-1.3,2.8-5.9,8.9-5.9c4.4,0,8.5,2.7,8.5,7.2c0,2.2-0.9,4.7-3.2,7.4c-3,3.8-7.3,7.1-10.6,10.8l0,0
	c0.2,0.1,0.4,0.1,0.6,0.1c3.5,0,8.1-0.3,11.1-0.3c1.4,0,2,0.8,2,1.7c0,1.1-0.9,1.9-1.9,2h-0.1h-14V65.8z"/>
<path class="st2" d="M32.9,263.4c1.2,0,1.6,0,1.7,0s0.2,0,0.2,0.2c0,0.6,0,1.3,0.1,1.9c0.3,4.4,2.8,8.3,6.6,10.5
	c-0.4,0.4-0.7,0.8-1,1.3c-0.1,0.3-0.2,0.4-0.3,0.4s-0.2-0.1-0.4-0.2c-2.9-2-5-5-5.8-8.5c-0.9,3.5-3.2,6.5-6.3,8.5
	c-0.2,0.1-0.3,0.2-0.4,0.2s-0.2-0.1-0.4-0.4c-0.3-0.4-0.6-0.8-1-1.1c4.2-2.1,6.8-6.3,6.8-11h-2.1c-1.2,0-1.6,0-1.7,0s-0.2,0-0.2-0.2
	v-1.4c0-0.2,0-0.2,0.2-0.2s0.5,0,1.7,0L32.9,263.4z"/>
<path class="st2" d="M45.5,273.5c-1.5,0-2,0-2.1,0s-0.2,0-0.2-0.2V272c0-0.2,0-0.2,0.2-0.2s0.6,0,2.1,0H50c0-0.5,0-1-0.1-1.4l1,0.1
	c0.6-0.4,1.1-0.8,1.5-1.2h-3.7c-1.6,0-2.1,0-2.2,0s-0.2,0-0.2-0.2V268c0-0.2,0-0.2,0.2-0.2s0.6,0,2.2,0h4.6c0.1,0,0.3,0,0.4,0
	c0.1,0,0.1-0.1,0.2-0.1c0.1,0,0.3,0.1,0.7,0.5s0.5,0.6,0.5,0.7s-0.1,0.2-0.2,0.3c-0.3,0.2-0.6,0.3-0.8,0.6c-0.7,0.6-1.5,1.2-2.4,1.8
	v0.3H56c1.5,0,2,0,2.1,0s0.2,0,0.2,0.2v1.3c0,0.2,0,0.2-0.2,0.2s-0.6,0-2.1,0h-4.2v1.1c0,0.4,0,1,0,1.5c0,0.7-0.1,1.1-0.5,1.4
	s-1,0.4-2.6,0.4c-0.5,0-0.5,0-0.7-0.5c-0.1-0.4-0.3-0.8-0.5-1.2c0.7,0.1,1.2,0.1,1.8,0.1c0.5,0,0.7-0.1,0.7-0.6v-2.1L45.5,273.5z
	 M46.6,262.6c0.2-0.1,0.3,0,0.4,0.1c0.4,0.6,0.8,1.2,1.1,1.8c0.1,0.2,0.1,0.2-0.2,0.3l-1.1,0.4h3.5c-0.3-0.7-0.6-1.4-1-2.1
	c-0.1-0.2-0.1-0.2,0.2-0.3l1.1-0.3c0.2-0.1,0.3,0,0.3,0.1c0.4,0.6,0.7,1.3,0.9,2c0,0.1,0,0.2-0.2,0.3l-1.1,0.4h2.6
	c0.3-0.5,0.6-1.1,0.8-1.7c0.1-0.3,0.2-0.6,0.3-0.9c0.6,0.1,1.2,0.2,1.7,0.5c0.2,0.1,0.2,0.2,0.2,0.3c0,0.1-0.1,0.2-0.2,0.3
	c-0.1,0.1-0.2,0.2-0.3,0.4c-0.2,0.4-0.4,0.8-0.7,1.2h0.4c1.6,0,2.1,0,2.3,0s0.2,0,0.2,0.2s0,0.4,0,0.9v0.8c0,1.5,0,1.8,0,1.9
	s0,0.2-0.2,0.2h-1.3c-0.2,0-0.2,0-0.2-0.2V267H45.3v2.2c0,0.2,0,0.2-0.2,0.2h-1.3c-0.2,0-0.2,0-0.2-0.2s0-0.4,0-1.9v-0.6
	c0-0.6,0-0.9,0-1s0-0.2,0.2-0.2s0.7,0,2.2,0h0.5c-0.3-0.7-0.7-1.3-1.1-1.9c-0.1-0.1-0.1-0.2,0.1-0.3L46.6,262.6z"/>
<path class="st2" d="M61.9,267.2c-1.1,0-1.5,0-1.5,0s-0.2,0-0.2-0.2v-1.2c0-0.2,0-0.2,0.2-0.2s0.4,0,1.5,0h0.3v-1
	c0-0.8,0-1.5-0.1-2.3c0.5,0,1.1,0,1.6,0.1c0.2,0,0.3,0.1,0.3,0.2s0,0.3-0.1,0.4c-0.1,0.5-0.2,1.1-0.1,1.6v1c0.9,0,1.2,0,1.3,0
	s0.2,0,0.2,0.2v0.8c1.5-0.9,2.7-2,3.7-3.5c0.2-0.3,0.4-0.6,0.5-1c0.7,0.1,1.1,0.2,1.6,0.3c0.1,0,0.2,0.1,0.2,0.2s0,0.2-0.2,0.3
	l-0.2,0.1c1.3,1.6,3,2.8,5,3.5c-0.2,0.3-0.4,0.6-0.6,1c-0.1,0.3-0.2,0.4-0.3,0.4c-0.1,0-0.3-0.1-0.4-0.2c-0.6-0.3-1.1-0.6-1.6-1v0.8
	c0,0.2,0,0.2-0.2,0.2s-0.5,0-1.6,0H71c0,0.4,0,0.8,0,1.2h1c1.5,0,2.1,0,2.2,0s0.2,0,0.2,0.2s0,0.4,0,1.3v1.5c0,0.8,0,1.2,0,1.3
	s0,0.2-0.2,0.2s-0.6,0-2.2,0h-0.8c1.1,1.5,2.7,2.5,4.5,2.9c-0.3,0.3-0.5,0.7-0.7,1.1c-0.1,0.3-0.2,0.5-0.3,0.5
	c-0.1,0-0.3-0.1-0.4-0.1c-1.8-0.6-3.3-1.9-4.2-3.5c-0.9,1.7-2.4,2.9-4.2,3.5c-0.1,0.1-0.3,0.1-0.4,0.1c-0.2,0-0.2-0.1-0.3-0.4
	c-0.2-0.4-0.4-0.7-0.7-1c2.2-0.6,3.7-1.7,4.3-3.1h-0.4c-1.5,0-2,0-2.2,0s-0.2,0-0.2-0.2s0-0.4,0-1.3v-1.5c0-0.9,0-1.2,0-1.3
	s0-0.2,0.2-0.2s0.7,0,2.2,0h1v-1.2h-0.1c-1.1,0-1.4,0-1.5,0s-0.2,0-0.2-0.2V267c-0.4,0.3-0.9,0.7-1.3,0.9c-0.1,0.1-0.3,0.1-0.4,0.2
	c-0.1,0-0.2-0.1-0.3-0.4c-0.1-0.2-0.2-0.4-0.3-0.5l0,0c-0.1,0-0.4,0-1.2,0c0.4,1.1,1,2.2,1.8,3.1c-0.2,0.3-0.4,0.7-0.6,1.1
	c-0.1,0.2-0.1,0.3-0.2,0.3s-0.1-0.1-0.2-0.3c-0.4-0.7-0.7-1.3-1-2.1c0,4.5,0.1,8.1,0.1,8.4s0,0.2-0.2,0.2h-1.4c-0.2,0-0.2,0-0.2-0.2
	s0.1-3.5,0.1-7.4c-0.3,1.2-0.8,2.3-1.4,3.4c-0.1,0.2-0.2,0.3-0.3,0.3s-0.1-0.1-0.2-0.3c-0.1-0.4-0.3-0.9-0.6-1.2
	c1.1-1.6,1.9-3.4,2.3-5.3H61.9z M67.5,270.4v1.8h1.7c0.1-0.6,0.1-1.2,0.1-1.8H67.5z M71.1,266.6c0.6,0,1,0,1.3,0
	c-0.9-0.6-1.6-1.4-2.3-2.2c-0.6,0.8-1.3,1.6-2,2.2c0.2,0,0.6,0,1.2,0H71.1z M72.8,270.4h-2c0,0.7-0.1,1.3-0.1,1.8h2.1V270.4z"/>
<path class="st2" d="M82.4,269c-1.6,0-2.2,0-2.3,0s-0.2,0-0.2-0.2v-1.2c0-0.2,0-0.2,0.2-0.2s0.7,0,2.3,0h4.8c1.6,0,2.2,0,2.3,0
	s0.2,0,0.2,0.2v1.2c0,0.2,0,0.2-0.2,0.2s-0.7,0-2.3,0h-1.5v2.3h2.1c1.4,0,1.8,0,2,0s0.2,0,0.2,0.2v1.3c0,0.1,0,0.2-0.2,0.2
	s-0.6,0-2,0h-2.1v2.9c1.1,0.1,2.2,0.2,3.3,0.1c1,0,2.2-0.1,3.3-0.1c-0.2,0.4-0.3,0.8-0.3,1.2c-0.1,0.5-0.1,0.5-0.6,0.6s-1.3,0-2,0
	c-6.1,0-7.3-0.9-8.6-3c-0.5,1.1-1.2,2.1-2.1,2.9c-0.2,0.2-0.3,0.3-0.4,0.3s-0.2-0.1-0.3-0.3c-0.3-0.4-0.6-0.7-1-0.9
	c1.7-1.3,2.8-3.2,3.1-5.4c0.1-0.4,0.1-0.7,0.1-1.1c0.6,0.1,1.1,0.2,1.6,0.3c0.2,0,0.3,0.1,0.3,0.2s0,0.2-0.1,0.3
	c-0.1,0.2-0.2,0.3-0.2,0.5c-0.1,0.5-0.2,0.9-0.3,1.4c0.4,1.1,1.4,2,2.5,2.4V269H82.4z M89.5,264.2c1.6,0,2.1,0,2.2,0s0.2,0,0.2,0.2
	s0,0.4,0,0.9v0.7c0,1.5,0,1.8,0,1.9s0,0.2-0.2,0.2h-1.4c-0.2,0-0.2,0-0.2-0.2v-2H79.4v2c0,0.2,0,0.2-0.2,0.2h-1.4
	c-0.2,0-0.2,0-0.2-0.2s0-0.4,0-1.9v-0.6c0-0.6,0-0.9,0-1s0-0.2,0.2-0.2s0.7,0,2.3,0h3.6V264c0-0.5,0-1.1-0.1-1.6
	c0.6,0,1.2,0,1.8,0.1c0.2,0,0.3,0.1,0.3,0.2s0,0.2-0.1,0.3c-0.1,0.3-0.1,0.7-0.1,1v0.2H89.5z"/>
<path class="st2" d="M97.1,264.8c0-0.8,0-1.6-0.1-2.4c0.6,0,1.1,0,1.7,0.1c0.2,0,0.3,0.1,0.3,0.2s0,0.2-0.1,0.4
	c-0.1,0.6-0.2,1.1-0.1,1.7v3.2h0.1c1.3,0,1.7,0,1.8,0s0.2,0,0.2,0.2v1.2c0,0.2,0,0.2-0.2,0.2s-0.5,0-1.7,0c0.6,1.1,1.4,2.1,2.3,2.9
	c-0.3,0.3-0.5,0.7-0.7,1.1c-0.1,0.2-0.2,0.3-0.2,0.3s-0.2-0.1-0.3-0.3c-0.5-0.8-1-1.6-1.4-2.4c0,3.4,0.1,6.4,0.1,6.7s0,0.2-0.2,0.2
	h-1.4c-0.2,0-0.2,0-0.2-0.2s0.1-3.1,0.1-6.2c-0.5,1.4-1.2,2.7-2.1,3.9c-0.1,0.2-0.2,0.3-0.3,0.3s-0.1-0.1-0.2-0.3
	c-0.1-0.4-0.3-0.9-0.6-1.2c1.2-1.4,2.1-3,2.7-4.7h-0.3c-1.3,0-1.8,0-1.9,0s-0.2,0-0.2-0.2v-1.2c0-0.2,0-0.2,0.2-0.2s0.5,0,1.9,0H97
	L97.1,264.8L97.1,264.8z M95.5,263.6c0.2-0.1,0.2-0.1,0.3,0.1c0.4,0.9,0.7,1.9,0.9,2.9c0,0.2,0,0.2-0.2,0.3l-0.7,0.3
	c-0.3,0.1-0.3,0.1-0.3-0.1c-0.2-1-0.5-1.9-0.9-2.8c-0.1-0.2,0-0.2,0.2-0.3L95.5,263.6z M99.8,264.2c0-0.2,0.1-0.5,0.1-0.7
	c0.4,0.1,0.9,0.3,1.3,0.5c0.1,0.1,0.2,0.1,0.2,0.2s0,0.1-0.1,0.2s-0.2,0.2-0.2,0.4c-0.2,0.7-0.5,1.5-0.8,2.2
	c-0.1,0.3-0.2,0.4-0.3,0.4c-0.1,0-0.2-0.1-0.3-0.2c-0.3-0.1-0.5-0.2-0.7-0.3C99.4,265.9,99.7,265.1,99.8,264.2z M106,271.9v-6.8
	c0-0.9,0-1.7-0.1-2.6c0.7,0,1.2,0.1,1.8,0.1c0.2,0,0.3,0.1,0.3,0.2s0,0.2-0.1,0.3c-0.1,0.6-0.2,1.3-0.1,1.9v6.5
	c1-0.2,1.4-0.3,1.5-0.4s0.2,0,0.2,0.2l0.2,1.3c0,0.1,0,0.2-0.2,0.2s-0.6,0.1-1.8,0.3v1.6c0,1.9,0,2.9,0,2.9s0,0.2-0.2,0.2h-1.4
	c-0.2,0-0.2,0-0.2-0.2s0-1,0-2.9v-1.3l-2.3,0.5l-2.2,0.4c-0.2,0-0.2,0-0.2-0.1L101,273c0-0.2,0-0.2,0.2-0.2s0.7-0.1,2.2-0.4
	L106,271.9z M102.3,267.6c0.1-0.1,0.1-0.1,0.2-0.1s0.1,0,0.2,0.1c0.9,0.6,1.7,1.3,2.3,2.2c0.1,0.1,0.1,0.2,0,0.4l-0.8,0.8
	c-0.2,0.2-0.2,0.2-0.3,0c-0.7-0.9-1.4-1.6-2.2-2.3c-0.1-0.1-0.1-0.1-0.1-0.1s0.1-0.1,0.1-0.2L102.3,267.6z M102.7,263.7
	c0.2-0.1,0.2-0.2,0.3-0.1c0.9,0.6,1.7,1.3,2.4,2.2c0.1,0.1,0.1,0.2,0,0.3l-0.8,0.8c-0.2,0.2-0.2,0.2-0.3,0c-0.7-0.8-1.5-1.6-2.3-2.2
	c-0.1-0.1-0.1-0.2,0-0.3L102.7,263.7z"/>
<path class="st2" d="M115.3,264c0.2,0.1,0.3,0.2,0.3,0.3c0,0.1-0.1,0.3-0.1,0.4c-0.1,0.3-0.2,0.6-0.3,0.9c-0.5,2-0.8,4.1-0.8,6.2
	c0,0.7,0,1.5,0.1,2.2c0.3-0.8,0.7-1.5,1-2.4c0.2,0.4,0.4,0.7,0.6,1.1c0.1,0.1,0.1,0.1,0.1,0.2s0,0.2-0.1,0.3
	c-0.4,0.8-0.7,1.7-0.9,2.6c0,0.3,0,0.6,0,0.9c0,0.1,0,0.2-0.2,0.2c-0.4,0.1-0.8,0.2-1.3,0.3c-0.2,0-0.3,0-0.3-0.2
	c-0.5-1.7-0.8-3.4-0.7-5.2c0-2.2,0.3-4.3,0.7-6.4c0.1-0.7,0.2-1.3,0.1-2C114,263.5,114.6,263.7,115.3,264z M121.1,268.5
	c-1.2,0.1-2.3,0.1-3.5,0c-0.2,0-0.3,0-0.3-0.2c-0.1-0.5-0.1-1-0.1-1.5c1.3,0.1,2.6,0.1,3.9,0c0-0.6,0-1.1,0-1.8
	c0-0.6-0.1-1.1-0.2-1.7c0.7,0,1.4,0.1,2.1,0.3c0.2,0,0.3,0.1,0.3,0.3c0,0.1,0,0.2-0.1,0.3c-0.1,0.2-0.1,0.4-0.1,0.6c0,0.6,0,1,0,1.8
	c0.8-0.1,1.7-0.2,2.4-0.3c0.2,0,0.2,0,0.3,0.2c0.1,0.4,0.1,0.8,0.1,1.2c0,0.2-0.1,0.2-0.2,0.3c-0.9,0.2-1.7,0.3-2.6,0.4
	c0,1.9,0,3.1,0.1,4.6c1,0.4,2,1,2.8,1.6c0.2,0.1,0.2,0.2,0.1,0.3c-0.2,0.5-0.5,0.9-0.8,1.3c0,0.1-0.1,0.1-0.2,0.1s-0.1,0-0.2-0.1
	c-0.6-0.5-1.2-1-1.8-1.4c-0.1,1.4-1.1,2.2-3.1,2.2s-3-0.9-3-2.4s1.3-2.4,3-2.4c0.5,0,0.9,0,1.4,0.1
	C121.1,271.1,121.1,269.9,121.1,268.5L121.1,268.5z M119.7,273.8c-0.8,0-1.3,0.3-1.3,0.8s0.4,0.9,1.4,0.9s1.4-0.5,1.4-1.1
	c0-0.1,0-0.2,0-0.3C120.7,273.9,120.2,273.8,119.7,273.8L119.7,273.8z"/>
<path class="st2" d="M132.4,267.1c0.1-2.1,1.9-3.7,4-3.6l0,0c2.3,0,3.9,1.3,3.9,3.5c0,1.4-0.6,2.5-2.6,4.4c-1.3,1-2.3,2.2-3.2,3.6
	h5.8v1.7h-8v-1.5c0.9-1.8,2.2-3.4,3.7-4.8c1.7-1.6,2.1-2.3,2.1-3.4c0.1-0.9-0.5-1.7-1.4-1.8c-0.1,0-0.2,0-0.3,0
	c-1.1,0-1.7,0.8-1.8,2.3L132.4,267.1z"/>
<path class="st2" d="M148.8,272.1h1.6v1.6h-1.6v2.9h-2v-2.9h-4.9v-1.5l4.2-8.6h2.7V272.1z M146.8,269.3c0-1.4,0.1-2.7,0.1-4h-0.2
	c-0.4,1.1-0.9,2.3-1.4,3.4l-1.6,3.4h3.2L146.8,269.3z"/>
<path class="st2" d="M161.4,270.9c0,4.2,0,5,0,5.1s0,0.2-0.2,0.2H160c-0.1,0-0.2,0-0.2-0.2v-0.7h-1.6v1.3c0,0.2,0,0.2-0.2,0.2h-1.3
	c-0.2,0-0.2,0-0.2-0.2s0-1,0-5.2v-3.7c0-3.1,0-4,0-4.1s0-0.2,0.2-0.2s0.4,0,1.5,0h1.5c1,0,1.4,0,1.5,0s0.2,0,0.2,0.2s0,0.9,0,3.4
	V270.9z M158.3,264.9v3.5h1.6v-3.5H158.3z M159.8,273.7V270h-1.6v3.7H159.8z M164.4,269.1c-1.6,0-2.2,0-2.3,0s-0.2,0-0.2-0.2v-1.2
	c0-0.2,0-0.2,0.2-0.2s0.7,0,2.3,0h1.2v-1.8h-0.8c-1.5,0-2,0-2.1,0s-0.2,0-0.2-0.2v-1.2c0-0.2,0-0.2,0.2-0.2s0.6,0,2.1,0h0.8
	c0-0.6,0-1.3-0.1-1.9c0.6,0,1.2,0,1.8,0.1c0.2,0,0.3,0.1,0.3,0.2s0,0.2-0.1,0.4c-0.1,0.4-0.1,0.9-0.1,1.3h1.1c1.6,0,2.1,0,2.2,0
	s0.2,0,0.2,0.2v1.2c0,0.2,0,0.2-0.2,0.2s-0.6,0-2.2,0h-1.1v1.8h1.8c1.6,0,2.2,0,2.3,0s0.2,0,0.2,0.2v1.2c0,0.2,0,0.2-0.2,0.2
	s-0.7,0-2.3,0L164.4,269.1z M164.4,272.3c-1.6,0-2.2,0-2.3,0s-0.2,0-0.2-0.2V271c0-0.2,0-0.2,0.2-0.2s0.6,0,2.3,0h3.4
	c0-0.5-0.1-1-0.1-1.5c0.6,0,1.3,0.1,1.7,0.1c0.2,0,0.3,0.1,0.3,0.2s0,0.2-0.1,0.3c-0.1,0.3-0.1,0.6-0.1,0.9c1.1,0,1.6,0,1.7,0
	s0.2,0,0.2,0.2v1.2c0,0.2,0,0.2-0.2,0.2h-1.7v1.6c0,0.8,0,1.5,0,2.1c0.1,0.6-0.2,1.1-0.6,1.4c-0.7,0.3-1.5,0.5-2.2,0.4
	c-0.5,0-0.5,0-0.6-0.5c-0.1-0.4-0.3-0.9-0.5-1.3c0.6,0.1,1.1,0.1,1.7,0.1c0.4,0,0.6-0.1,0.6-0.5v-3.4L164.4,272.3z M164.1,272.8
	c0.2-0.1,0.2-0.1,0.4,0c0.6,0.6,1.1,1.3,1.6,2c0.1,0.1,0.1,0.2-0.1,0.3l-1,0.7c-0.1,0.1-0.1,0.1-0.2,0.1s-0.1,0-0.1-0.1
	c-0.4-0.7-0.9-1.4-1.5-2.1c-0.1-0.1-0.1-0.2,0.1-0.3L164.1,272.8z"/>
<path class="st2" d="M178.2,263c1.1,0,1.6,0,1.7,0s0.2,0,0.2,0.2s0,0.6,0,1.6v2.1c0,1,0,1.5,0,1.6s0,0.2-0.2,0.2s-0.6,0-1.7,0h-2.8
	v5.5c0,2.4,0,3.5,0,3.6s0,0.2-0.2,0.2h-1.4c-0.2,0-0.2,0-0.2-0.2s0-1.3,0-3.6v-7.4c0-2.4,0-3.5,0-3.6s0-0.2,0.2-0.2s0.8,0,2,0
	L178.2,263z M175.4,264.3v1h2.9v-1H175.4z M178.4,266.4h-2.9v1h2.9V266.4z M177.7,276.8c-0.2,0-0.2,0-0.2-0.2s0-0.6,0-3.1V272
	c0-1.5,0-2,0-2.1s0-0.2,0.2-0.2s0.5,0,1.8,0h2.3c1.3,0,1.7,0,1.8,0s0.2,0,0.2,0.2s0,0.6,0,1.8v1.7c0,2.5,0,2.9,0,3s0,0.2-0.2,0.2
	h-1.2c-0.2,0-0.2,0-0.2-0.2v-0.5h-3.1v0.7c0,0.2,0,0.2-0.2,0.2L177.7,276.8z M179.1,272.2h3.1V271h-3.1V272.2z M182.2,274.6v-1.2
	h-3.1v1.2H182.2z M187.8,272.4c0,1.2,0.1,2.5,0.1,3.4c0.1,0.6-0.1,1.2-0.5,1.6c-0.4,0.3-0.8,0.5-2.4,0.5c-0.5,0-0.5,0-0.6-0.5
	c-0.1-0.4-0.2-0.9-0.4-1.3c0.5,0.1,1,0.1,1.4,0.1c0.6,0,0.7-0.1,0.7-0.7v-6.8h-2.8c-1.3,0-1.8,0-1.9,0s-0.2,0-0.2-0.2s0-0.5,0-1.5
	v-2.3c0-1,0-1.4,0-1.5s0-0.2,0.2-0.2s0.6,0,1.9,0h2.5c1.3,0,1.8,0,1.9,0s0.2,0,0.2,0.2s0,0.8,0,2.2L187.8,272.4z M182.9,264.3v1h3.1
	v-1H182.9z M186.1,267.5v-1H183v1H186.1z"/>
<path class="st2" d="M192.6,266.6c-1.5,0-2.1,0-2.2,0s-0.2,0-0.2-0.2v-1.3c0-0.2,0-0.2,0.2-0.2s0.6,0,2.2,0h4.1v-0.3
	c0-0.7,0-1.5-0.1-2.2c0.6,0,1.4,0,1.9,0.1c0.2,0,0.3,0.1,0.3,0.2s0,0.2-0.1,0.4c-0.1,0.4-0.1,0.9-0.1,1.3v0.4h4.3c1.5,0,2,0,2.2,0
	s0.2,0,0.2,0.2v1.3c0,0.2,0,0.2-0.2,0.2s-0.6,0-2.2,0h-4.3v2.1h2.5c0.2,0,0.3,0,0.5-0.1c0.1,0,0.1-0.1,0.2-0.1
	c0.1,0,0.3,0.1,0.7,0.5s0.5,0.6,0.5,0.7s-0.1,0.2-0.2,0.3c-0.2,0.1-0.3,0.3-0.4,0.5c-0.8,1.4-1.9,2.6-3.1,3.6c2,1,4.1,1.7,6.3,1.9
	c-0.3,0.4-0.5,0.9-0.7,1.4c-0.1,0.3-0.2,0.5-0.4,0.5c-0.1,0-0.2,0-0.4-0.1c-2.3-0.4-4.5-1.3-6.4-2.5c-1.9,1.1-4,2-6.1,2.5
	c-0.1,0-0.3,0.1-0.4,0.1c-0.2,0-0.2-0.1-0.3-0.5c-0.2-0.4-0.4-0.8-0.7-1.2c2.1-0.4,4.2-1,6.1-2c-1.2-1.1-2.1-2.4-2.8-3.9h-1.7
	c-0.2,0-0.2,0-0.2-0.2v-1.3c0-0.2,0-0.2,0.2-0.2s0.7,0,2.3,0h2.6v-2.1L192.6,266.6z M195.4,270.3c0.6,1.1,1.4,2.1,2.4,2.9
	c1-0.8,1.9-1.8,2.5-2.9H195.4z"/>
<path class="st2" d="M211.3,272.5c0,1.2,0,2.6,0,3.4s-0.1,1.3-0.6,1.6s-0.9,0.3-2,0.3c-0.6,0-0.6,0-0.7-0.5
	c-0.1-0.5-0.2-0.9-0.5-1.3c0.6,0,1,0,1.4,0s0.6-0.2,0.6-0.6v-3.3l-1.2,0.3c-0.2,0.1-0.4,0.2-0.5,0.3c-0.1,0.1-0.2,0.1-0.3,0.1
	s-0.2-0.1-0.2-0.2c-0.1-0.5-0.2-1.1-0.3-1.6c0.6-0.1,1.1-0.2,1.7-0.3l0.8-0.2v-3.1h-0.4c-1.3,0-1.7,0-1.8,0s-0.2,0-0.2-0.2v-1.3
	c0-0.2,0-0.2,0.2-0.2s0.5,0,1.8,0h0.4v-0.8c0-0.8,0-1.6-0.1-2.4c0.6,0,1.2,0,1.8,0.1c0.2,0,0.3,0.1,0.3,0.2s0,0.3-0.1,0.4
	c-0.1,0.6-0.2,1.1-0.1,1.7v0.8h0.1c1.3,0,1.7,0,1.8,0s0.2,0,0.2,0.2v1.3c0,0.2,0,0.2-0.2,0.2s-0.5,0-1.8,0h-0.1v2.6
	c0.7-0.2,1.4-0.5,2-0.8c-0.1,0.4-0.1,0.8-0.1,1.1c0,0.6,0,0.5-0.5,0.7l-1.4,0.5L211.3,272.5z M219.3,270.2c0.2-0.1,0.3-0.1,0.3,0.1
	c1.2,2,2.1,4.2,2.8,6.5c0.1,0.2,0,0.2-0.1,0.3l-1.3,0.5c-0.2,0.1-0.3,0.1-0.3-0.1c-0.2-0.5-0.3-1-0.4-1.5c-2.1,0.5-4.5,0.9-6.7,1.2
	c-0.2,0-0.4,0.1-0.6,0.2c-0.1,0.1-0.2,0.1-0.3,0.1s-0.2-0.1-0.3-0.2c-0.1-0.5-0.3-1.1-0.4-1.8c0.5,0,1,0,1.5-0.1
	c1-3.4,1.8-6.8,2.4-10.2c0.1-0.7,0.2-1.4,0.2-2.1c0.7,0.1,1.3,0.2,1.8,0.4c0.2,0,0.3,0.1,0.3,0.3c0,0.1,0,0.2-0.1,0.3
	c-0.2,0.3-0.3,0.6-0.3,0.9c-0.6,3.5-1.4,6.9-2.4,10.3c1.4-0.2,2.9-0.4,4.3-0.7c-0.5-1.2-1-2.4-1.6-3.5c-0.1-0.2,0-0.2,0.2-0.3
	L219.3,270.2z"/>
<path class="st2" d="M227.4,265.4c0.1,0.1,0.3,0.2,0.3,0.3c0,0.2-0.1,0.3-0.1,0.5c-0.1,0.5-0.2,1.1-0.2,1.7c0,1.3,0.1,2.6,0.3,3.9
	s0.7,2.5,1.4,2.5c0.6,0,1-0.6,1.6-2.4c0.3,0.5,0.7,0.9,1.1,1.3c0.2,0.1,0.2,0.4,0.1,0.6c-0.6,1.7-1.7,2.7-2.9,2.7s-2.7-1.6-3.2-4.4
	c-0.3-1.6-0.4-3.3-0.4-5c0-0.7,0-1.5-0.2-2.2C226,264.9,226.7,265.1,227.4,265.4z M235.3,266.5c0.1,0,0.1-0.1,0.2-0.1
	c0.1,0,0.1,0,0.2,0.1c1.7,1.6,2.8,3.6,3.3,5.8c0.1,0.2,0,0.3-0.2,0.4c-0.4,0.3-0.9,0.5-1.3,0.7c-0.2,0.1-0.3,0-0.4-0.2
	c-0.4-2.3-1.5-4.3-3.2-5.9C234.4,267,234.8,266.7,235.3,266.5z"/>
<path class="st2" d="M246.2,265c0.1-0.6,0.2-1.3,0.2-1.9c0.7,0.1,1.3,0.3,2,0.6c0.2,0,0.3,0.2,0.3,0.3c0,0.1,0,0.2-0.1,0.3
	c-0.1,0.2-0.3,0.4-0.3,0.6c-0.2,0.7-0.4,1.3-0.6,2c0.5,0,0.9-0.1,1.4-0.1c1.6,0,2.4,1.1,2.4,3.3c0,1.8-0.3,3.6-0.9,5.3
	c-0.3,1-1.3,1.6-2.3,1.6c-0.6,0-1.2,0-1.8-0.3c-0.2-0.1-0.3-0.3-0.3-0.5c0-0.5-0.1-1.1-0.3-1.6c0.6,0.3,1.3,0.4,2,0.4
	c0.6,0,0.8-0.2,1.1-0.9c0.5-1.4,0.7-2.8,0.7-4.2c0-1.2-0.2-1.6-1-1.6c-0.5,0-1,0.1-1.4,0.1c-0.9,2.8-2,5.4-3.4,8
	c0,0.2-0.2,0.2-0.3,0.2h-0.1c-0.4-0.2-0.8-0.5-1.2-0.8c-0.1-0.1-0.1-0.2-0.1-0.3c0-0.1,0-0.1,0.1-0.2c1.3-2.1,2.3-4.3,3.1-6.7
	c-0.7,0.1-1.2,0.2-1.7,0.3c-0.3,0.1-0.6,0.2-0.9,0.3c-0.2,0.1-0.4,0-0.5-0.1V269c-0.2-0.6-0.4-1.2-0.5-1.8c0.8,0,1.5,0,2.2-0.1
	s1.4-0.1,2-0.3C246,266.2,246.1,265.6,246.2,265z M252.9,266.1c0.1-0.1,0.2,0,0.3,0.1c1.2,1.1,2.2,2.6,2.8,4.1
	c0.1,0.1,0.1,0.3-0.1,0.3l0,0c-0.4,0.3-0.8,0.6-1.3,0.9c-0.2,0.1-0.3,0.1-0.4-0.1c-0.6-1.7-1.5-3.2-2.8-4.4
	C252,266.7,252.5,266.4,252.9,266.1L252.9,266.1z M253.4,263.8c0.1-0.1,0.1-0.1,0.3,0c0.6,0.5,1.2,1.1,1.6,1.8
	c0.1,0.1,0.1,0.2,0,0.2l0,0l-0.7,0.5c-0.1,0.1-0.2,0.1-0.3,0c0,0,0,0,0-0.1c-0.5-0.8-1-1.4-1.7-2L253.4,263.8z M254.9,262.7
	c0.1-0.1,0.1,0,0.3,0c0.6,0.5,1.2,1.1,1.6,1.8c0.1,0.1,0.1,0.2,0,0.3l0,0l-0.7,0.5c-0.1,0.1-0.2,0.1-0.3,0l0,0c-0.5-0.8-1-1.4-1.7-2
	L254.9,262.7z"/>
<path class="st2" d="M260.5,265c-1.5,0-2,0-2.1,0s-0.2,0-0.2-0.2v-1.4c0-0.2,0-0.2,0.2-0.2s0.6,0,2.1,0H271c1.5,0,2,0,2.1,0
	s0.2,0,0.2,0.2v1.4c0,0.2,0,0.2-0.2,0.2s-0.6,0-1.8,0v7.4c0,1.8,0,2.6,0,3.3c0.1,0.6-0.1,1.2-0.6,1.6c-0.4,0.3-1.5,0.4-3.1,0.4
	c-0.5,0-0.5,0-0.6-0.5s-0.3-0.9-0.5-1.3c0.6,0.1,1.4,0.1,2.1,0.1s0.8-0.1,0.8-0.6V265H260.5z M260.4,274.6c-0.2,0-0.2,0-0.2-0.2
	s0-0.6,0-3.2v-1.8c0-1.6,0-2.1,0-2.3s0-0.2,0.2-0.2s0.6,0,1.9,0h2.6c1.4,0,1.8,0,1.9,0s0.2,0,0.2,0.2s0,0.6,0,1.9v1.9
	c0,2.5,0,3,0,3.1s0,0.2-0.2,0.2h-1.3c-0.2,0-0.2,0-0.2-0.2v-0.7h-3.4v1.1c0,0.2,0,0.2-0.2,0.2H260.4z M261.9,271.7h3.4v-3.1h-3.4
	V271.7z"/>
<path class="st2" d="M281,263.7c0.2-0.1,0.3,0,0.4,0.1c0.7,0.9,1.3,2,1.8,3c0.1,0.2,0.1,0.2-0.1,0.3l-1,0.5
	c-0.2,0.1-0.2,0.1-0.3-0.1l-0.3-0.8c-1.6,0.2-3.4,0.4-5.1,0.6c-0.2,0-0.5,0.1-0.7,0.1c-0.1,0-0.2,0.1-0.3,0.1
	c-0.1,0-0.2-0.1-0.2-0.3c-0.1-0.5-0.2-1-0.2-1.5c0.4,0,1,0,1.4,0c0.4-0.8,0.7-1.6,1-2.4c0.1-0.4,0.2-0.8,0.3-1.1
	c0.5,0.1,1.1,0.2,1.6,0.3c0.2,0.1,0.3,0.1,0.3,0.3c0,0.1-0.1,0.2-0.2,0.3c-0.1,0.1-0.2,0.3-0.3,0.5c-0.3,0.6-0.6,1.4-1,2
	c0.9-0.1,1.8-0.1,2.7-0.2c-0.2-0.4-0.4-0.7-0.7-1.1c-0.1-0.1-0.1-0.2,0.1-0.3L281,263.7z M282.1,273.7c0,0.9,0,1.8,0,2.3
	c0.1,0.5-0.1,1-0.4,1.3c-0.3,0.2-0.6,0.4-1.9,0.4c-0.5,0-0.5,0-0.6-0.5c-0.1-0.3-0.2-0.7-0.3-1c0.3,0,0.7,0.1,1,0.1
	c0.4,0,0.6-0.1,0.6-0.5v-1.3h-2.8v1.1c0,1.3,0,2,0,2.1s0,0.2-0.2,0.2h-1.3c-0.2,0-0.2,0-0.2-0.2s0-0.7,0-2.1v-5.1c0-1.4,0-2,0-2.1
	s0-0.2,0.2-0.2s0.5,0,1.8,0h2.1c1.3,0,1.7,0,1.8,0s0.2,0,0.2,0.2s0,0.9,0,2.3L282.1,273.7z M277.7,269.6v1.1h2.8v-1.1H277.7z
	 M280.5,273.2v-1.1h-2.8v1.1H280.5z M285.2,264.9c0.9-0.3,1.7-0.7,2.5-1.1c0.3-0.2,0.7-0.4,0.9-0.7c0.4,0.3,0.7,0.7,1,1.1
	c0.1,0.1,0.1,0.2,0.1,0.3c0,0.1-0.1,0.2-0.2,0.2c-0.3,0.1-0.5,0.2-0.8,0.3c-1.2,0.6-2.4,1.1-3.6,1.5v1c0,0.3,0,0.4,0.3,0.5
	c0.4,0.1,0.9,0.1,1.3,0.1c0.6,0.1,1.2,0,1.7-0.3c0.2-0.2,0.2-0.5,0.2-1.5c0.4,0.2,0.8,0.4,1.2,0.5c0.4,0.1,0.4,0.1,0.4,0.6
	c-0.1,1-0.3,1.5-0.8,1.8c-0.9,0.4-1.9,0.5-2.8,0.4c-0.9,0.1-1.8,0-2.6-0.3c-0.4-0.1-0.6-0.5-0.6-1.1v-4c0-0.6,0-1.1-0.1-1.7
	c0.5,0,1.1,0.1,1.7,0.1c0.2,0,0.3,0.1,0.3,0.2s0,0.2-0.1,0.3c-0.1,0.3-0.1,0.6-0.1,0.9L285.2,264.9z M285.2,275.4
	c0,0.3,0,0.5,0.3,0.6c0.4,0.1,0.9,0.2,1.4,0.1c0.6,0.1,1.1-0.1,1.6-0.3c0.3-0.3,0.3-0.7,0.3-1.6c0.4,0.2,0.8,0.4,1.2,0.5
	c0.4,0.1,0.4,0.1,0.4,0.6c-0.1,1.1-0.3,1.5-0.8,1.9c-0.9,0.4-1.9,0.6-2.8,0.5c-0.9,0.1-1.8,0-2.7-0.3c-0.4-0.3-0.7-0.7-0.6-1.2v-4.3
	c0-0.6,0-1.1-0.1-1.6c0.6,0,1.1,0.1,1.7,0.1c0.2,0,0.3,0.1,0.3,0.2s0,0.2-0.1,0.3c-0.1,0.1-0.1,0.2-0.1,0.9v0.8
	c0.9-0.3,1.8-0.7,2.6-1.2c0.3-0.2,0.6-0.4,0.9-0.7c0.4,0.3,0.7,0.7,1.1,1.1c0.1,0.2,0.2,0.2,0.2,0.3s-0.1,0.2-0.3,0.2
	c-0.3,0.1-0.5,0.2-0.8,0.3c-1.2,0.6-2.4,1.1-3.7,1.6V275.4z"/>
<path class="st2" d="M300.8,266.5c-2.1,0.4-3.9,0.8-5.7,1.1c-0.6,0.2-0.8,0.2-1.1,0.3c-0.1,0.1-0.2,0.1-0.4,0.1
	c-0.1,0-0.3-0.1-0.3-0.3c-0.3-0.6-0.5-1.2-0.6-1.8c0.9,0,1.8-0.1,2.7-0.3c2.1-0.3,5.8-0.9,10.2-1.4c0.3,0,0.3,0.1,0.4,0.2
	c0.1,0.5,0.2,1,0.2,1.5c0,0.2-0.1,0.3-0.3,0.3c-0.7,0-1.4,0.2-2.1,0.4c-2.9,1-4.3,3-4.3,5c0,2.2,1.6,3.4,4.5,3.6
	c0.3,0,0.4,0.1,0.4,0.3c0,0.5-0.1,1-0.2,1.5c0,0.3-0.1,0.4-0.3,0.4c-3,0-6.3-1.7-6.3-5.3C297.5,269.4,298.7,267.9,300.8,266.5
	L300.8,266.5z M304.1,268.3c0.1-0.1,0.2,0,0.3,0c0.6,0.5,1.2,1.1,1.6,1.8c0.1,0.1,0.1,0.2,0,0.2l0,0l-0.7,0.5
	c-0.1,0.1-0.2,0.1-0.3,0c0,0,0,0,0-0.1c-0.5-0.8-1-1.4-1.7-2L304.1,268.3z M305.7,267.2c0.1-0.1,0.1,0,0.3,0
	c0.6,0.5,1.2,1.1,1.6,1.8c0.1,0.1,0.1,0.2,0,0.3l0,0l-0.7,0.5c-0.1,0.1-0.2,0.1-0.3,0c0,0,0,0,0-0.1c-0.5-0.8-1-1.4-1.7-2
	L305.7,267.2z"/>
<path class="st2" d="M316.7,264.1c0-0.4-0.1-0.8-0.2-1.3c0.8,0.1,1.6,0.2,2,0.2s0.5,0.2,0.5,0.3c0,0.1-0.1,0.3-0.2,0.4
	c-0.1,0.2-0.1,0.3-0.1,0.5s0,0.4,0,1.1c1.8-0.1,3.6-0.1,5.2-0.1c0.2,0,0.2,0,0.3,0.3c0,0.4,0,0.9,0,1.3c0,0.2-0.1,0.2-0.3,0.2
	c-1.8,0-3.4,0-5.2,0c0,1,0,2.1,0,3.2c0.2,0.5,0.3,1.1,0.3,1.7c0,2.2-1.1,4.3-3,5.5c-0.2,0.2-0.4,0.3-0.7,0.3c-0.2,0-0.4-0.1-0.5-0.3
	c-0.4-0.3-0.8-0.5-1.3-0.7c1.7-0.6,3-2,3.5-3.7c-0.4,0.5-1,0.7-1.6,0.7c-1.3,0-2.4-1-2.4-2.3c0-0.1,0-0.2,0-0.3c0-1.4,1-2.5,2.4-2.6
	c0.1,0,0.1,0,0.2,0c0.5,0,0.9,0.1,1.3,0.3c0-0.6,0-1.2,0-1.7c-2.1,0.1-4.5,0.3-5.9,0.5c-0.4,0-0.6,0.2-0.8,0.2s-0.2-0.1-0.3-0.2
	c-0.2-0.6-0.3-1.1-0.4-1.7c0.7,0,1.4,0,2.1-0.1c1-0.1,3.2-0.2,5.3-0.3C316.7,265,316.7,264.6,316.7,264.1z M314.5,271
	c-0.1,0.6,0.4,1.1,1,1.2h0.1c0.6,0,1.1-0.4,1.2-1c0-0.1,0-0.1,0-0.2c0.1-0.5-0.3-1-0.9-1.1c-0.1,0-0.1,0-0.2,0
	C315,269.9,314.5,270.3,314.5,271L314.5,271z"/>
<path class="st2" d="M330.9,275.9c0,1.4-1.1,2.5-2.4,2.5c-1.4,0-2.5-1.1-2.5-2.4c0-1.4,1.1-2.5,2.4-2.5l0,0
	C329.7,273.4,330.8,274.5,330.9,275.9L330.9,275.9z M327,275.9c0,0.8,0.6,1.4,1.4,1.4s1.4-0.6,1.4-1.4s-0.6-1.4-1.4-1.4
	S327,275.1,327,275.9L327,275.9L327,275.9z"/>
<path class="st5" d="M178.7,132.3v12.2c21,0,38,17,38,38s-17,38-38,38s-38-17-38-38c0-13.3,7-25.7,18.4-32.6l3.6,6.9L170,137
	l-20.4-5.3l3.9,7.4c-24,14-32.1,44.7-18.1,68.7s44.7,32.1,68.7,18.1s32.1-44.7,18.1-68.7C213.2,141.9,196.6,132.4,178.7,132.3
	L178.7,132.3z"/>
<path d="M180.8,231.1h-1.6c-3,0.1-5.9-0.1-8.9-0.4l-1.2-0.2c-2-0.2-4-0.6-5.9-1.1c-2.3-0.7-4.6-1.5-6.8-2.5c-2-1-3.9-2.1-5.7-3.3
	l-0.6-0.4c-1.8-1.2-3.5-2.5-5.1-4l-0.6-0.5l-1.4-1.3c-1.4-1.1-2.7-2.3-3.9-3.6c-1.1-1.3-2-2.7-2.8-4.2c-0.4-0.6-0.8-1.3-1.2-1.9
	s-0.9-1.3-1.3-1.9c-1-1.3-1.9-2.7-2.6-4.2c-1-2.2-1.8-4.5-2.4-6.8c-0.6-2.3-1.1-4.6-1.3-7v-0.2c-0.3-2.4-0.5-4.8-0.5-7.2
	c0-2.5,0.1-5,0.5-7.5s0.9-5,1.7-7.4c0.7-2,1.5-4,2.5-5.9l0.5-1c0.3-0.6,0.5-1.1,0.8-1.7c0.7-1.7,1.6-3.4,2.6-5
	c1.2-1.6,2.5-3.2,3.9-4.6l1-1.1l1-1.1c1.3-1.5,2.7-2.9,4.3-4.3c1.8-1.4,3.8-2.7,5.8-3.8l0.5-0.3c-0.5-1.3-1.4-2.3-2.6-3
	c-1.4-1-2.9-2.1-1.7-4.5c0.3-0.7,0.8-1.2,1.5-1.4c1-0.2,1.9,0.5,3,1.3c0.9,0.8,2,1.4,3.2,1.8c1.1,0.3,2.3,0.5,3.4,0.7
	c1.2,0.2,2.3,0.4,3.5,0.7c1,0.2,2,0.3,3,0.2c1.6-0.1,2.9-0.2,4.1,2.1s0.4,3.3-0.6,4.5c-0.7,0.8-1.2,1.6-1.6,2.6
	c-0.6,1.7-0.9,2.5-1.3,3.3s-0.7,1.6-1.3,3.3c-0.3,1.1-0.5,2.3-0.4,3.4c0,1.2,0,2.3-0.6,2.9c-0.6,0.5-1.3,0.7-2,0.6
	c-2.6-0.1-2.6-1.8-2.7-3.3c0.1-1.2-0.3-2.4-1-3.4c-1.9,1.3-3.6,2.7-5.3,4.3l-0.3,0.3c-1.9,1.7-3.6,3.6-5.1,5.7l-0.5,0.8
	c-1.4,1.8-2.6,3.7-3.6,5.8c-1,2.4-1.7,4.9-2.2,7.4s-0.8,5.1-0.7,7.7c-0.2,4.9,0.7,9.9,2.6,14.4c1,2.3,2.2,4.4,3.6,6.5
	c1.3,1.7,2.7,3.3,4.3,4.8l0.7,0.7c3.4,3.6,7.4,6.5,11.9,8.5c4.6,1.8,9.5,2.7,14.4,2.6c2.4-0.1,4.9-0.4,7.3-0.9
	c0.7-0.1,1.3-0.3,2-0.4c1.8-0.2,3.5-0.6,5.2-1.3c1.7-0.8,3.3-1.7,4.8-2.9c0.5-0.4,1-0.7,1.5-1c2.1-1.3,4-2.8,5.8-4.5
	s3.4-3.6,4.8-5.6c2.9-4,4.8-8.7,5.5-13.6c1.6-7.3,0.7-14.8-2.3-21.6c-0.2-0.5-0.4-0.9-0.6-1.4c-0.7-1.8-1.5-3.6-2.6-5.3
	c-3-3.9-6.5-7.4-10.4-10.4c-2.1-1.3-4.3-2.5-6.6-3.4c-2.3-1-4.6-1.7-7.1-2.2c-2.5-0.4-5-0.6-7.5-0.5H177l-0.1-0.3
	c-0.6-1.2-0.7-2.6-0.2-3.8c0.3-0.8,0.4-1.7,0.4-2.5s-0.1-1.6-0.3-2.4c-0.3-1.3-0.2-2.6,0.4-3.8l0.1-0.3h0.3c2.4,0,4.8,0.2,7.1,0.5
	c2.4,0.4,4.7,0.9,7,1.6c4.6,1.2,9,3.3,13,6l1.4,0.9c1.6,1,3.2,2,4.6,3.2c3.6,3.2,6.7,6.9,9.4,11c0.3,0.4,0.5,0.8,0.8,1.2
	c1.1,1.6,2.1,3.3,2.9,5c1,2.2,1.9,4.5,2.6,6.8c0.4,1.7,0.7,3.4,0.9,5.1c0.1,0.7,0.2,1.4,0.3,2c0.4,2.4,0.6,4.8,0.6,7.2
	c0,4.8-0.8,9.7-2.3,14.3c-0.2,0.6-0.3,1.2-0.5,1.8c-0.4,1.8-1,3.5-1.7,5.1c-1,2.2-2.2,4.3-3.5,6.4c-1.3,2-2.7,4-4.3,5.8
	c-1.2,1.3-2.6,2.6-4,3.7c-0.5,0.4-0.9,0.8-1.4,1.2c-1.8,1.6-3.8,3-5.8,4.3s-4.1,2.5-6.3,3.5l-0.5,0.2c-2,1-4.1,1.8-6.2,2.5
	c-2.3,0.7-4.7,1.3-7.1,1.6C183.4,231.1,182.1,231.2,180.8,231.1z M149.4,128.9h-0.1c-0.3,0.1-0.5,0.4-0.8,0.9
	c-0.8,1.6-0.2,2.1,1.4,3.2c1.5,0.9,2.7,2.3,3.1,4l0.1,0.4L152,138c-2,1.1-3.9,2.3-5.7,3.7c-1.5,1.3-2.9,2.7-4.1,4.1
	c-0.3,0.4-0.7,0.8-1,1.1s-0.7,0.7-1,1.1c-1.4,1.4-2.7,2.9-3.8,4.5c-1,1.5-1.8,3.2-2.6,4.9l-0.8,1.7l-0.5,1c-1,1.9-1.8,3.8-2.5,5.8
	c-0.7,2.4-1.3,4.8-1.6,7.2s-0.5,4.9-0.5,7.4c0,2.4,0.1,4.7,0.5,7.1v0.2c0.3,2.3,0.7,4.6,1.3,6.8c0.6,2.3,1.4,4.5,2.4,6.7
	c0.7,1.4,1.5,2.7,2.5,4c0.4,0.6,0.9,1.3,1.3,2s0.8,1.3,1.2,1.9c0.8,1.4,1.7,2.7,2.7,4c1.2,1.3,2.5,2.5,3.8,3.5l1.4,1.2l0.6,0.5
	c1.6,1.4,3.2,2.7,5,3.9l0.6,0.4c1.8,1.2,3.7,2.3,5.6,3.3c2.2,1,4.4,1.8,6.7,2.4c1.9,0.5,3.8,0.9,5.8,1.1l1.2,0.2
	c2.9,0.3,5.8,0.5,8.7,0.4c1.8,0.1,3.6,0,5.4-0.2c2.3-0.4,4.7-0.9,6.9-1.6c2.1-0.7,4.1-1.5,6.1-2.4l0.5-0.2c2.1-1,4.2-2.2,6.2-3.4
	c2-1.3,3.9-2.7,5.7-4.2c0.5-0.4,0.9-0.8,1.4-1.2c1.4-1.1,2.7-2.3,3.8-3.6c1.5-1.8,3-3.7,4.2-5.7c1.3-2,2.4-4.1,3.4-6.2
	c0.7-1.6,1.2-3.3,1.7-5c0.2-0.6,0.3-1.2,0.5-1.8c0.7-2.3,1.2-4.6,1.6-6.9c0.3-2.3,0.5-4.7,0.5-7.1c0-2.4-0.3-4.7-0.6-7.1
	c-0.1-0.7-0.2-1.4-0.3-2.1c-0.1-1.7-0.4-3.4-0.9-5c-0.7-2.3-1.5-4.5-2.6-6.7c-0.8-1.7-1.8-3.3-2.9-4.9c-0.3-0.4-0.5-0.8-0.8-1.2
	c-1.3-2-2.7-3.9-4.2-5.7s-3.2-3.5-5-5.1c-1.4-1.2-2.9-2.2-4.5-3.1l-1.4-0.9c-3.9-2.7-8.2-4.8-12.8-6c-2.3-0.7-4.6-1.2-6.9-1.6
	c-2.2-0.3-4.4-0.5-6.6-0.5c-0.4,0.9-0.5,2-0.2,3c0.2,0.9,0.3,1.7,0.3,2.6c0,0.9-0.1,1.9-0.4,2.8c-0.3,0.9-0.3,2,0.1,2.9
	c2.5,0,5,0.1,7.4,0.6c5,1,9.7,3,14,5.7c2.1,1.5,4,3.1,5.7,5c1.8,1.7,3.5,3.7,5,5.7c1.1,1.7,1.9,3.5,2.6,5.4c0.2,0.5,0.4,0.9,0.6,1.4
	c1,2.3,1.8,4.7,2.4,7.1c0.5,2.5,0.7,5,0.6,7.5c0.1,5.1-0.8,10.1-2.6,14.8c-1,2.3-2.2,4.6-3.6,6.7c-2.9,4.1-6.6,7.7-10.9,10.4
	c-0.5,0.3-1,0.7-1.5,1c-1.5,1.2-3.2,2.2-5,3c-1.7,0.6-3.5,1.1-5.4,1.3c-0.7,0.1-1.4,0.2-2,0.4c-2.5,0.5-5,0.9-7.5,0.9
	c-2.5,0.1-5.1-0.1-7.5-0.6c-5-0.8-9.8-2.8-13.9-5.9c-2-1.5-3.9-3.2-5.7-5l-0.7-0.6c-1.6-1.5-3.1-3.2-4.4-5
	c-4.4-6.3-6.6-13.8-6.3-21.5c0-2.6,0.2-5.3,0.8-7.9c0.5-2.6,1.3-5.2,2.3-7.6c1-2.1,2.2-4.1,3.7-6l0.5-0.8c1.5-2.1,3.3-4.1,5.3-5.9
	l0.3-0.3c1.8-1.8,3.7-3.3,5.8-4.7l0.3-0.2l0.3,0.3c1.1,1.2,1.7,2.7,1.6,4.3c0.1,1.6,0.2,2.3,1.8,2.4c0.4,0.1,0.9,0,1.3-0.3
	c0.4-0.4,0.4-1.2,0.3-2.2c-0.1-1.3,0-2.5,0.4-3.8c0.6-1.7,0.9-2.5,1.3-3.3s0.7-1.6,1.3-3.3c0.4-1,1-2,1.7-2.9
	c0.9-1.2,1.4-1.8,0.5-3.4s-1.6-1.6-3.1-1.5c-1.1,0.1-2.2,0-3.3-0.2c-1.1-0.3-2.3-0.5-3.4-0.7c-1.2-0.2-2.4-0.4-3.5-0.7
	c-1.3-0.4-2.5-1.1-3.5-2C150.9,129.5,150.2,129.1,149.4,128.9z"/>
<path d="M166.8,188.9l-9.5-1.5v-0.5l4.7-3.1l0.2-0.3l0.8-0.7l1.7-1.5h0.2l0.1-0.3l0.9-0.9h0.2l0.3-0.5c0.7-0.7,1.3-1.5,1.7-2.3
	l0.2-1.3c-0.4-0.7-1-1.3-1.7-1.6c-1.2-0.5-2.4-0.8-3.6-1c-1.3-0.2-2.6-0.3-3.9-0.2v-0.4l0.4-0.1h3.9c1.1,0.1,2.2,0.3,3.3,0.6
	c1,0.3,2.1,0.7,3,1.2l0.1,0.3l0.4,0.2c0.5,0.6,0.7,1.4,0.5,2.1c-0.3,0.9-0.8,1.8-1.4,2.6l-1.1,1.2H168l-0.5,0.7l-0.3,0.1l-0.1,0.3
	l-0.4,0.4l-1.3,1.1l-2.8,1.9l-0.2,0.3l-2.4,1.5v0.2c1.6,0.2,3.2,0.5,4.8,0.8s3.2,0.5,4.8,0.6v0.4L166.8,188.9z"/>
<path d="M180.4,190.5v-0.9l0.5-3.1c-1.3-0.1-2.6-0.1-3.9-0.1c-1.2,0-2.5-0.3-3.6-0.9c-0.4-0.5-0.6-1-0.5-1.6c0.6-2,1.4-3.9,2.5-5.7
	s2.3-3.6,3.5-5.4h0.2l1.2-1.9h2.4v0.4l-0.2,0.3h-0.2l-4.1,6.1c-1.3,2-2.4,4.2-3,6.5l0.3,0.8c0.7,0.5,1.6,0.8,2.5,0.9l2.8,0.2
	c0.3-1.1,0.5-2.3,0.7-3.4s0.4-2.3,0.6-3.5h2.3v0.9l-1,6.1h0.4l3.3-0.2v0.4c-1.3,0.1-2.5,0.2-3.8,0.3l-0.7,4L180.4,190.5z"/>
<path d="M195.8,192.6v-0.3c0.1-0.8,0.2-1.5,0.3-2.3s0.1-1.6,0.1-2.4c0-0.7-0.1-1.4-0.4-2.1h-0.3l-1.6,1v0.1l-1,0.6l-0.1,0.2
	l-0.4,0.3v0.2l-0.2,0.1v0.1H192l-0.4,4.3h-1.7l-0.1-0.3c0.3-2.4,0.5-4.8,0.9-7c0.3-2.2,0.7-4.3,1.1-6.2h1.8v0.3
	c-0.3,1.3-0.5,2.4-0.7,3.4s-0.4,2.2-0.5,3.6h0.1c0.6-0.6,1.3-1,2.1-1.1s1.7-0.2,2.5-0.1l0.4,0.3c0.3,0.5,0.5,1.2,0.5,1.8v2.1
	l-0.4,3.3L195.8,192.6z"/>
<path class="st6" d="M237.5,148.9h0.1l0,0h0.1l0,0h0.1v-0.1h0.1c0.1,0,0.1-0.1,0.2-0.1h0.2c0,0,0,0.1,0.2,0.1h0.1l0,0l0.1-0.1
	l0.1-0.1h0.1c0.1-0.1,0.3-0.2,0.5-0.2h0.2c0.2,0,0.4,0,0.6-0.1s0.1,0,0.1,0h0.1c0.1-0.1,0.3-0.2,0.3-0.1s0.1-0.1,0-0.1
	c0.4-0.1,0.8,0.1,1.1,0c0,0,0,0,0.1-0.1s0.2-0.1,0.3-0.1s0,0.1,0.1,0.1s0.2,0,0.2,0l0,0c0,0.1,0,0.2,0,0.3s-0.1,0.1-0.1,0.1
	s0,0.1-0.1,0.1s0,0.1,0,0.1s-0.1,0-0.1,0.1l0,0c0,0.1-0.1,0.2-0.1,0.3h-0.2c-0.3,0-0.6,0.1-0.9,0.1c-0.1,0-0.1,0.1-0.2,0.1
	c-0.4,0.1-0.9,0.2-1.4,0.2c-0.1,0-0.2,0-0.3,0s-0.7,0.2-0.8,0.1s-0.1,0.1-0.1,0.1c-0.1,0-0.2,0-0.3,0h-0.1h-0.1h-0.1
	c-0.1-0.3-0.2-0.6-0.3-0.8L237.5,148.9z"/>
<path class="st6" d="M231,144.2L231,144.2l0.3-0.1c0.1,0,0.1,0,0.2,0c0.1,0,0.1-0.1,0.2-0.1c0.1,0,0-0.2,0.2-0.2s0,0,0,0l0,0
	l0.1,0.1h0.1l0.2-0.1c0.1-0.1,0.2-0.1,0.3-0.1c0-0.1,0.1-0.2,0.2-0.2s0.1,0,0.1,0h0.1l0,0l0,0h0.1c0.1,0,0.1-0.1,0.1,0l0,0l0.1-0.1
	l0,0l0.1-0.1c0,0,0,0,0-0.1h0.1c0,0,0.1-0.1,0.2-0.2h0.4c0.1,0,0.1,0.1,0.2,0h0.1l0,0l0.1-0.1c0,0,0-0.1,0.1-0.1h0.1
	c0.1-0.1,0.3-0.2,0.4-0.3h0.1c0.2-0.1,0.4-0.1,0.5-0.2s0.1-0.1,0.1-0.1s0.1,0,0.1-0.1s0.2-0.2,0.3-0.2s0.1-0.1,0-0.1
	c0.4-0.2,0.7-0.1,1-0.3c0.1,0,0,0,0-0.1s0.2-0.1,0.3-0.2s0.1,0.1,0.1,0.1s0.2-0.1,0.2,0s0,0,0,0c0.1,0.1,0.1,0.2,0.1,0.3
	s-0.1,0.1-0.1,0.2s0,0.1,0,0.1v0.1c0,0-0.1,0-0.1,0.1l0,0c0,0.1,0,0.2,0,0.3l-0.2,0.1c-0.3,0.1-0.6,0.2-0.8,0.4
	c-0.1,0.1-0.1,0.1-0.2,0.1c-0.4,0.2-0.9,0.4-1.3,0.6c-0.1,0.1-0.2,0-0.3,0.1s-0.6,0.4-0.7,0.3s-0.1,0.1,0,0.1l-0.3,0.1l0,0l0,0h-0.1
	c0,0-0.1,0.1,0,0.1s-0.1,0-0.1,0c-0.3,0.1-0.6,0.3-0.9,0.4h-0.1l-0.1,0.1c-0.1,0.1-0.1-0.1-0.2,0s-0.2,0.2-0.4,0.3h-0.2
	c-0.1,0-0.1,0.1-0.2,0.1l0,0l-0.6-0.8c-0.1,0-0.1-0.1-0.1-0.1C230.9,144.3,230.9,144.2,231,144.2L231,144.2z"/>
<path class="st6" d="M233.5,152.3c0.1,0,0.1,0,0.2,0s0,0,0.1,0s0.1,0,0.1,0s0.1,0,0.2,0s0.5,0,0.7,0c0.1,0,0.2,0,0.3,0
	s0.2,0.1,0.3,0.1s0.3-0.1,0.4-0.1c0.1,0.1,0.2,0.1,0.3,0.1c0.2,0,0.1-0.1,0.3-0.1c0.1,0,0,0.1,0.1,0.1h0.2c0.4,0,0.9,0,1.3,0.1
	s0.1,0.2,0.4,0.1s0.1-0.1,0.2-0.1c0.4-0.1,1.4,0.1,1.8,0.1c0.2,0,0.4,0,0.6,0c0.1,0,0.2,0,0.3,0s0.3-0.2,0.3-0.1
	c0.2-0.1,0.4-0.1,0.6-0.1c0,0,0.1,0.1,0.2,0.1s0,0.3,0,0.3s0.2-0.2,0.1-0.2s-0.1,0-0.1-0.1c0.3,0,0.2,0.1,0.4,0.1s0-0.1,0.2-0.1
	s0,0,0.1,0.1l0.4-0.1c0.1,0,0.2,0.1,0.3,0.1s0.2,0,0.3,0c0.2,0.1,0.1-0.1,0.3-0.1h0.1c0.1,0,0.1,0.1,0.1,0.1h0.1h0.2
	c0.2,0,0.3,0,0.5,0c0.1-0.1,0.2-0.1,0.3-0.1s0.1,0.1,0.2,0.1h0.1h0.1l0,0h0.1c0.1,0,0.1,0,0.2,0h0.4v-0.1h0.1c0.1,0,0.1-0.1,0.3-0.1
	l0.3,0.1c0.1,0,0.1,0.1,0.2,0.1c0.1,0,0.1,0,0.2,0l0,0h0.2c0,0,0-0.1,0.1-0.1h0.1c0.2-0.1,0.4-0.1,0.6-0.1h0.2c0.3,0,0.5,0,0.8,0
	c0.1,0,0.1,0,0.1,0c0.1,0,0.1,0,0.2,0c0.2,0,0.3-0.1,0.4,0s0.1,0,0.1,0c0.6,0,1.1,0.2,1.5,0.2c0.1,0,0,0,0.1,0s0.3,0,0.4,0
	s0.1,0.1,0.1,0.1s0.2,0,0.3,0.1s0,0,0.1,0c0.1,0.1,0.1,0.2,0.1,0.3s-0.1,0.1-0.1,0.1s0,0-0.1,0.1s0,0.1,0,0.1s-0.2,0-0.1,0.1h-0.1
	c0,0.1-0.1,0.2-0.1,0.3h-0.3c-0.4,0-0.8-0.1-1.2-0.1H251c-0.6,0-1.3,0-1.9-0.1c-0.2,0-0.3,0-0.4-0.1s-0.9,0.1-1.1-0.1s-0.1,0-0.1,0
	l-0.4-0.1h-0.2h-0.1c-0.1,0-0.1,0-0.2,0l-1.3-0.1H245c-0.2,0-0.1-0.1-0.3-0.1s-0.3,0.1-0.6,0h-0.2h-0.3c-0.3,0-0.6,0-0.8,0
	s-0.2-0.1-0.3,0h-0.1l0,0V153l-0.8-0.1c-0.2,0,0-0.1-0.3-0.1s0,0.1-0.1,0.1s-0.1,0-0.2,0c-0.3,0-0.6,0-0.9,0c-0.1,0-0.3-0.1-0.4-0.1
	c-0.2,0-0.4,0-0.6,0.1c0-0.1-0.2-0.1-0.3-0.1c-0.3,0-0.7-0.1-1-0.1c0,0,0,0.1-0.1,0.1s0-0.1-0.1-0.1s-0.1,0-0.2,0
	c-0.2,0-0.5,0-0.7,0c-0.7,0-1.5-0.1-2-0.1h-0.1l-0.1-0.1c-0.2,0.1-0.6,0-0.9,0c-0.1,0-0.3,0-0.4,0h-0.1c0-0.2,0-0.5-0.1-0.7
	L233.5,152.3z"/>
<path class="st6" d="M238.2,144.7c0.1,0,0.2,0,0.2,0h0.1l0.1-0.1c0,0,0.1,0,0.2,0s0.5-0.1,0.7-0.2c0.1,0,0.2-0.1,0.3-0.1
	s0.2,0,0.3-0.1s0.2-0.2,0.4-0.2c0.1,0.1,0.2,0.1,0.4,0c0.2,0,0-0.2,0.3-0.2c0.1-0.1,0,0,0.1,0.1c0.1,0,0.1,0,0.2-0.1
	c0.4-0.1,0.9-0.3,1.3-0.4c0.2-0.1,0.2,0.1,0.4,0s0.1-0.1,0.2-0.1c0.4-0.2,1.4-0.4,1.9-0.6c0.2-0.1,0.4-0.2,0.6-0.2
	c0.1,0,0.2,0,0.3-0.1c0.1,0,0.2-0.3,0.3-0.2c0.2-0.1,0.3-0.2,0.6-0.3c0.1,0,0.2,0,0.2,0.1l0.1,0.3c0,0,0.1-0.3,0-0.3h-0.1l0,0
	c0.3-0.1,0.3,0,0.5-0.1s0-0.1,0.2-0.1s0.1,0,0.1,0.1l0.4-0.2h0.3c0.1,0,0.2-0.1,0.3-0.1c0.2,0,0-0.1,0.2-0.2h0.1l0,0
	c0.1,0,0.1,0.1,0.1,0h0.1l0.2-0.1c0.2-0.1,0.3-0.1,0.5-0.2c0.1-0.1,0.2-0.2,0.3-0.2c0.1-0.1,0.1,0,0.2,0h0.1h0.1h0.1h0.1
	c0.1,0,0.1-0.1,0.2-0.1h0.1l0.2-0.1l0,0l0.2-0.1v-0.1h0.1c0,0,0.1-0.1,0.2-0.2h0.3c0.1,0,0.1,0.1,0.3,0c0.1,0,0.1,0,0.2,0l0,0
	l0.2-0.1c0-0.1,0.1-0.1,0.1-0.1h0.1c0.2-0.1,0.4-0.2,0.6-0.3l0.3-0.1c0.3-0.1,0.6-0.1,0.8-0.2c0.1,0,0.1-0.1,0.1-0.1s0.1,0,0.2-0.1
	s0.3-0.2,0.4-0.2s0.1-0.1,0.1-0.1c0.6-0.2,1.2-0.1,1.6-0.3c0.1,0,0,0,0-0.1s0.3-0.1,0.4-0.2s0.1,0,0.1,0s0.3-0.1,0.3,0s0,0,0.1,0
	s0.2,0.1,0.2,0.3c0,0.1-0.1,0.1-0.1,0.2s0,0.1,0,0.1v0.1c0,0-0.2,0-0.1,0.1h-0.1c0,0.1,0,0.2,0,0.3l-0.3,0.1
	c-0.4,0.1-0.8,0.2-1.2,0.4c-0.1,0-0.2,0.1-0.3,0.1c-0.6,0.2-1.3,0.4-1.9,0.6c-0.2,0-0.3,0-0.5,0.1c-0.3,0.1-0.9,0.4-1.1,0.3
	s-0.1,0.1-0.1,0.1l-0.5,0.1l0,0l0,0h-0.1c0,0-0.1,0.1,0,0.1s-0.1,0-0.2,0c-0.4,0.1-0.9,0.3-1.3,0.4h-0.1l0,0l-0.2,0.1
	c-0.2,0.1-0.1-0.1-0.4,0s-0.2,0.2-0.6,0.3h-0.3c-0.1,0.1-0.2,0.1-0.3,0.1c-0.3,0.1-0.5,0.2-0.8,0.2c-0.2,0.1-0.2,0-0.3,0.1h-0.1l0,0
	v-0.1L247,143c-0.2,0.1-0.1-0.1-0.3,0s0,0.1,0,0.1c-0.1,0-0.1,0.1-0.2,0.1c-0.3,0.1-0.7,0.2-1,0.3c-0.2,0-0.3,0-0.5,0.1
	c-0.2,0-0.4,0.1-0.6,0.3c0-0.1-0.2,0-0.3,0c-0.3,0.1-0.7,0.2-1,0.3v0.1l-0.1-0.1c-0.1,0-0.1,0-0.2,0.1c-0.2,0-0.5,0.1-0.7,0.2
	c-0.7,0.3-1.6,0.4-2,0.6c0-0.1-0.1,0-0.1,0h-0.1c-0.2,0.2-0.6,0.3-0.9,0.4c-0.1,0.1-0.3,0.1-0.4,0.2c-0.1,0-0.3,0.1-0.4,0.1
	c-0.1-0.2-0.3-0.5-0.4-0.7L238.2,144.7z"/>
<path class="st6" d="M234.4,138.2c0.1,0,0.1-0.1,0.2-0.1h0.1c0,0,0-0.1,0.1-0.1s0.1,0,0.2-0.1s0.4-0.3,0.6-0.4
	c0.1-0.1,0.2-0.1,0.3-0.2c0.1-0.1,0.2-0.1,0.3-0.2s0.1-0.2,0.3-0.3c0.1,0,0.2,0,0.3-0.1c0.2-0.1,0-0.2,0.2-0.3c0.1-0.1,0.1,0,0.1,0
	s0.1-0.1,0.2-0.1c0.3-0.2,0.8-0.6,1.2-0.8c0.2-0.2,0.2,0.1,0.4-0.1c0.1-0.1,0.1-0.1,0.1-0.2c0.4-0.3,1.2-0.8,1.6-1.1
	c0.2-0.1,0.4-0.3,0.6-0.4c0.1,0,0.1-0.1,0.2-0.1s0.1-0.3,0.2-0.3c0-0.1,0.2-0.3,0.4-0.4c0.1,0,0.2,0,0.2,0l0.2,0.2
	c0,0,0-0.3-0.1-0.2s-0.1,0-0.1,0c0.2-0.2,0.3-0.1,0.4-0.2s0-0.1,0.1-0.2s0.1,0,0.1,0c0.1-0.1,0.2-0.2,0.3-0.3c0.1,0,0.2-0.1,0.3-0.1
	c0.1-0.1,0.2-0.1,0.3-0.2c0.2-0.1,0-0.1,0.2-0.2h0.1l0,0c0.1,0,0.1,0,0.1,0l0.1-0.1c0.1,0,0.1-0.1,0.2-0.1c0.1-0.1,0.3-0.2,0.4-0.3
	c0-0.1,0.1-0.2,0.2-0.3c0.1-0.1,0.1,0,0.2-0.1h0.1v-0.1h0.1l0.1-0.1c0,0,0.1-0.1,0.2-0.1v-0.1l0.1-0.1l0,0l0.2-0.1
	c0,0-0.1,0-0.1-0.1s0.1-0.1,0.1-0.1s0-0.1,0.2-0.2l0.3-0.1c0.1,0,0.2,0.1,0.3-0.1l0.1-0.1l0,0c0.1,0,0.1-0.1,0.1-0.1
	c0-0.1,0-0.1,0.1-0.1l0.1-0.1c0.1-0.2,0.3-0.3,0.5-0.5c0.1,0,0.1-0.1,0.2-0.1c0.2-0.2,0.5-0.3,0.7-0.5s0.1-0.1,0.1-0.1
	c0.1,0,0.1-0.1,0.2-0.1c0.1-0.1,0.2-0.3,0.4-0.3s0-0.1,0-0.1c0.5-0.3,1.1-0.5,1.4-0.8c0.1,0,0,0,0-0.1s0.2-0.2,0.4-0.3s0.1,0,0.2,0
	s0.2-0.1,0.3-0.1s0,0,0.1,0s0.2,0.1,0.3,0.2c0,0.1-0.1,0.1,0,0.2s0,0,0,0.1s0,0,0,0.1s-0.2,0.1-0.1,0.1l0,0c0,0.1,0,0.2,0.1,0.3
	l-0.3,0.2c-0.3,0.2-0.7,0.5-1,0.7c-0.1,0.1-0.1,0.1-0.3,0.2c-0.5,0.4-1.1,0.8-1.7,1.1c-0.1,0.1-0.3,0.1-0.4,0.2s-0.8,0.7-0.9,0.7
	s0,0.1,0,0.1l-0.4,0.2l0,0l0,0l-0.1,0.1v0.1c0,0-0.1,0-0.2,0.1l-1.1,0.8l-0.1,0.1l0,0l-0.2,0.1c-0.1,0.1-0.1-0.1-0.3,0.1
	s-0.2,0.3-0.4,0.4l-0.2,0.1c-0.1,0.1-0.1,0.1-0.2,0.2c-0.2,0.2-0.5,0.4-0.7,0.5s-0.2,0.1-0.2,0.2l-0.1,0.1l0,0c0-0.1,0-0.1,0-0.1
	c-0.2,0.2-0.5,0.3-0.7,0.5s-0.1-0.1-0.3,0.1s0,0.1,0,0.1s-0.1,0.1-0.2,0.1c-0.3,0.2-0.5,0.4-0.8,0.6c-0.1,0.1-0.3,0.1-0.4,0.2
	c-0.2,0.1-0.3,0.2-0.4,0.4c0-0.1-0.2,0.1-0.3,0.1c-0.3,0.2-0.6,0.4-0.8,0.6c0,0.1,0.1,0.1,0,0.1s-0.1,0-0.1,0s-0.1,0.1-0.2,0.1
	c-0.2,0.1-0.4,0.3-0.6,0.4c-0.6,0.4-1.4,0.9-1.7,1.2c0-0.1-0.1,0-0.1,0h-0.1c-0.1,0.3-0.5,0.4-0.7,0.6s-0.2,0.2-0.4,0.3
	s-0.3,0.1-0.4,0.2c-0.2-0.2-0.4-0.4-0.6-0.5L234.4,138.2z"/>
<path class="st6" d="M241.9,139.7L241.9,139.7c0.1-0.1,0.3-0.2,0.5-0.3c0,0,0,0,0.1,0v-0.1h0.2l0,0c0,0,0,0,0.1,0l0,0l0,0l0,0h0.1
	l0.1-0.1h0.1l0.1-0.1c0,0,0.1,0.1,0.2,0h0.1l0,0c0-0.1,0.1-0.1,0.2-0.1s0.1,0,0.1,0h0.1l0,0c0.1,0,0.1,0.1,0.1,0.1
	c0,0.1,0,0.1,0,0.1s0,0,0,0.1s0,0,0,0.1s-0.1,0,0,0.1l0,0c0,0.1,0,0.1,0,0.2l-0.1,0.1c-0.1,0-0.1,0-0.1,0.1v0.1l0,0h-0.1
	c-0.1,0.1-0.3,0.2-0.4,0.2l0,0c0,0,0,0-0.1,0c-0.1,0.1-0.2,0.1-0.3,0.1s-0.1,0-0.2,0c-0.1,0-0.3,0.1-0.4,0.2h-0.1c0,0,0.1,0.1,0,0.1
	s-0.1,0-0.2,0s-0.3,0.2-0.5,0.2s-0.1,0,0,0.1l-0.1,0.1c-0.1,0.1-0.1,0-0.2,0c-0.4,0.1-0.7,0.3-1,0.5c0,0,0-0.1-0.1-0.1l0,0
	c0,0,0-0.1-0.1-0.1s-0.1-0.1-0.1-0.1s-0.1,0-0.1-0.1s0.1-0.1-0.1-0.3c0-0.1,0-0.1,0-0.2c0,0,0.1-0.1,0-0.1c0.1,0,0.2-0.1,0.3-0.1
	s0.1,0,0.2,0c0-0.1,0.1-0.1,0.1-0.1s0.1-0.1,0.1,0s0,0.1,0,0.1l0.2-0.1l0,0l0.4-0.2l0.1-0.1c0.1,0,0.1,0,0.1,0l0.5-0.2l0,0
	C241.7,139.8,241.7,139.8,241.9,139.7L241.9,139.7L241.9,139.7C241.7,139.6,241.8,139.6,241.9,139.7L241.9,139.7z"/>
<path class="st6" d="M233.1,133.9C233.1,133.9,233.2,133.9,233.1,133.9l0.2-0.3c0.1,0,0.1-0.1,0.2-0.1c0-0.1,0.1-0.1,0.2-0.2
	c0.1-0.1,0-0.1,0.1-0.2l0,0l0,0h0.1l0.1-0.1l0.1-0.1c0.1-0.1,0.1-0.2,0.2-0.3c0-0.1,0-0.2,0.1-0.3s0.1,0,0.1,0h0.1l0,0l0,0
	c0,0,0,0,0-0.1l0.1-0.1l0,0c0,0,0-0.1,0.1-0.1l0,0l0.1-0.1c0,0,0,0,0-0.1s0.1,0,0.1-0.1s0-0.1,0.1-0.2l0.2-0.1
	c0.1,0,0.1,0.1,0.2-0.1l0.1-0.1l0,0l0.1-0.1V131l0,0c0.1-0.2,0.1-0.3,0.2-0.4l0.1-0.1c0.1-0.2,0.3-0.3,0.4-0.4s0-0.1,0-0.1l0.1-0.1
	c0.1-0.1,0.1-0.3,0.2-0.3s0-0.1,0-0.1c0.3-0.3,0.6-0.4,0.8-0.7c0,0,0,0,0-0.1s0.1-0.2,0.2-0.3s0.1,0,0.1,0s0.1-0.1,0.2-0.1s0,0,0,0
	c0.1,0,0.2,0.1,0.2,0.2c0,0.1,0,0.1,0,0.2v0.1v0.1c0,0-0.1,0.1,0,0.1l0,0c0,0.1,0.1,0.2,0.1,0.3l-0.2,0.2c-0.2,0.2-0.4,0.4-0.6,0.7
	c-0.1,0.1-0.1,0.1-0.1,0.2c-0.3,0.4-0.6,0.7-0.9,1.1c-0.1,0.1-0.2,0.1-0.2,0.2s-0.4,0.6-0.5,0.6s0,0.1,0,0.1l-0.2,0.2l0,0l0,0
	c0,0,0,0-0.1,0.1v0.1c0,0-0.1,0-0.1,0.1c-0.2,0.2-0.4,0.5-0.6,0.7l-0.1,0.1l-0.1,0.1c-0.1,0.1-0.1-0.1-0.2,0.1s-0.1,0.3-0.2,0.4
	l-0.1,0.1c0,0.1-0.1,0.1-0.1,0.2l0,0c-0.3-0.2-0.6-0.3-0.9-0.4C233.1,134,233.1,134,233.1,133.9z"/>
<path class="st6" d="M241.1,125.2L241.1,125.2c0.1-0.2,0.2-0.3,0.3-0.4h0.1c0,0,0,0,0-0.1c0.1,0,0.1-0.1,0.2-0.1l0,0
	c0,0,0-0.1,0.1-0.1l0,0l0,0l0.1-0.1c0,0,0-0.1,0.1-0.1c0,0,0.1,0,0.1-0.1s0-0.2,0-0.2s0.1,0,0.1-0.1h0.1l0,0c0-0.1,0.1-0.1,0.1-0.2
	s0.1,0,0.1,0s0.1-0.1,0.1,0s0,0,0,0c0.1,0,0.1,0,0.2,0.1v0.1l0,0l0,0c0,0-0.1,0.1,0,0.1l0,0l0.1,0.2l-0.1,0.1l-0.1,0.1v0.1l0,0v0.1
	c-0.1,0.1-0.2,0.3-0.3,0.4l0,0c0,0,0,0-0.1,0.1s-0.1,0.2-0.2,0.3c-0.1,0-0.1,0.1-0.2,0.1c-0.1,0.1-0.2,0.2-0.3,0.3c0,0,0,0,0,0.1
	s0.1,0.1,0,0.1s-0.1,0-0.1,0.1s-0.2,0.3-0.4,0.4s-0.1,0.1,0,0.1l-0.1,0.1c0,0.1-0.1,0-0.2,0.1c-0.3,0.3-0.5,0.6-0.7,0.8l-0.1-0.1
	l0,0h-0.1h-0.1c0,0-0.1,0.1-0.1,0s0-0.1-0.2-0.2s0-0.1-0.1-0.1s0-0.1,0-0.1c0.1-0.1,0.1-0.2,0.2-0.2h0.1c0,0,0-0.1,0-0.2
	c0,0,0-0.1,0.1-0.1s0,0,0.1,0c0-0.1,0.1-0.1,0.1-0.1l0,0l0.3-0.3v-0.1c0-0.1,0.1,0,0.1,0s0.2-0.3,0.4-0.4l0,0v-0.1l0,0h0.1
	c0,0,0-0.1,0.1-0.1L241.1,125.2z"/>
<path class="st6" d="M248.9,148h-0.1l-0.1,0.1l0,0h-0.1c-0.2,0.1-0.3,0.1-0.5,0.1H248c0-0.1,0,0-0.1,0s-0.2,0-0.3,0.1
	c-0.1,0-0.1,0-0.2,0c-0.1,0-0.3,0-0.4,0.1l0,0v0.1c0,0-0.1-0.1-0.2-0.1s-0.4,0.1-0.6,0.1s-0.1,0-0.1,0.1H246c-0.1,0.1-0.1-0.1-0.2,0
	c-0.4,0-0.7,0.1-1.1,0.2v-0.1l0,0c0,0,0-0.1-0.1-0.1s-0.1-0.1-0.1-0.1s-0.1,0-0.1-0.1s0.1-0.1,0-0.3s0-0.1,0-0.2s0.1-0.1,0-0.1
	c0.1,0,0.2-0.1,0.3-0.1c0,0,0.1,0,0.1,0.1l0.1-0.1h0.1v0.1h0.2l0,0l0.4-0.1l0.1-0.1c0.1,0,0.1,0,0.1,0l0.6-0.1l0,0c0,0,0,0,0.1,0
	l0,0c0.1,0,0.1,0,0.1,0.1h0.1l0,0l0,0c0.2-0.1,0.3-0.1,0.5-0.1h0.1l0,0l0.2,0.1l0,0h0.1l0,0l0,0h0.1c0.1,0,0.1,0,0.1,0h0.1l0.1-0.1
	c0,0,0.1,0.1,0.1,0v0.1l0,0c0-0.1,0.1,0,0.2-0.1s0,0,0.1,0.1s0.1,0,0.1,0l0,0c0,0.1,0.1,0.1,0.1,0.2c0,0.1,0,0.1,0,0.1s0,0,0,0.1
	c0,0,0,0,0,0.1s-0.1,0-0.1,0.1l0,0C248.9,148,248.9,148,248.9,148L248.9,148z"/>
<rect class="st7" width="368" height="424"/>
<g>
	<path class="st2" d="M45.3,327.3c0-0.8-0.1-1.5-0.1-2.1c-0.5,0-0.9,0-1.4,0c-0.7,0-1.3,0-1.9-0.1c-0.1,0-0.1-0.1-0.2-0.2
		c0-0.2,0-0.4,0-0.7c0.7,0.1,1.4,0.1,2.3,0.1c0.4,0,0.8,0,1.1,0v-2.1c-0.5,0-1,0-1.5,0c-0.8,0-1.6,0-2.2-0.1c-0.1,0-0.1-0.1-0.1-0.1
		c0-0.3-0.1-0.5-0.1-0.7c0.8,0.1,1.6,0.1,2.5,0.1c0.4,0,0.9,0,1.4,0v-1.5c0-0.4-0.1-0.7-0.1-0.9c0.5,0,0.9,0.1,1.1,0.2
		c0.1,0,0.2,0.1,0.2,0.2v0.1c-0.1,0.2-0.2,0.4-0.2,0.6c0,0.1,0,0.5,0,1.2c1-0.1,2.2-0.2,3.4-0.5h0.1c0.1,0,0.1,0,0.1,0.1
		c0,0.2,0,0.4,0,0.6c0,0.1,0,0.1-0.1,0.1c-1.2,0.2-2.3,0.3-3.5,0.4c0,0.9,0,1.6,0,2.1c1-0.1,2-0.2,3.1-0.4h0.1c0,0,0.1,0,0.1,0.1
		v0.7c0,0.1,0,0.1-0.1,0.1c-1,0.2-2.1,0.3-3.1,0.4c0,0.6,0,1.4,0.1,2.3c1.4,0.4,2.6,1,3.7,1.8c0.1,0,0.1,0.1,0.1,0.1v0.1
		c-0.1,0.2-0.2,0.4-0.3,0.6l-0.1,0.1h-0.1c-1.1-0.8-2.1-1.4-3.2-1.8c0,0.8-0.2,1.4-0.7,1.8c-0.4,0.3-1,0.4-1.8,0.4
		c-0.9,0-1.5-0.2-1.9-0.5s-0.5-0.7-0.5-1.2s0.3-0.9,0.8-1.3c0.5-0.3,1.1-0.5,1.8-0.5C44.4,327.2,44.9,327.2,45.3,327.3z M45.3,328.1
		c-0.5-0.1-1-0.2-1.5-0.2c-0.6,0-1.1,0.1-1.4,0.3c-0.3,0.2-0.4,0.4-0.4,0.6c0,0.6,0.5,0.9,1.6,0.9c0.7,0,1.2-0.1,1.4-0.4
		c0.2-0.2,0.3-0.5,0.3-0.9C45.3,328.3,45.3,328.2,45.3,328.1z"/>
	<path class="st2" d="M59.7,321.3c0-0.2,0-0.4,0-0.7c0-0.2,0-0.4,0-0.6c0-0.3-0.1-0.6-0.1-0.9c0.4,0,0.7,0.1,1.1,0.2
		c0.2,0,0.3,0.1,0.3,0.2s0,0.1-0.1,0.3c-0.1,0.1-0.1,0.2-0.1,0.4c0,0.2,0,0.6,0,1.2c1,0,2.5,0,4.5,0c0.1,0,0.2,0.1,0.2,0.2v0.6
		c0,0.1-0.1,0.1-0.2,0.1c-0.9,0-1.7,0-2.4,0s-1.4,0-2.1,0c0,1.2,0,2.1,0,2.7c0.1,0.4,0.2,0.9,0.2,1.5c0,1.9-0.9,3.2-2.7,4.2
		c-0.1,0.1-0.2,0.1-0.3,0.1s-0.2,0-0.3-0.1c-0.2-0.2-0.4-0.3-0.6-0.4c1.9-0.7,2.9-1.8,3-3.4c-0.3,0.5-0.8,0.8-1.5,0.8
		c-0.6,0-1-0.2-1.4-0.6c-0.3-0.4-0.5-0.8-0.5-1.4s0.2-1.1,0.6-1.5c0.4-0.3,0.8-0.5,1.3-0.5c0.6,0,1,0.2,1.3,0.5v-1.9
		c-2.3,0.1-4,0.3-5.2,0.4c-0.1,0-0.3,0-0.4,0.1c-0.1,0-0.2,0-0.2,0c-0.1,0-0.1,0-0.2-0.1c-0.1-0.1-0.1-0.4-0.2-0.9
		c0.1,0,0.2,0,0.3,0c0.2,0,0.7,0,1.5-0.1C56.6,321.5,58,321.4,59.7,321.3z M58.5,324.3c-0.3,0-0.6,0.1-0.9,0.4
		c-0.2,0.2-0.3,0.5-0.3,0.8c0,0.4,0.1,0.7,0.4,0.9c0.2,0.2,0.5,0.3,0.8,0.3c0.4,0,0.7-0.1,1-0.4c0.2-0.2,0.3-0.5,0.3-0.8
		c0-0.4-0.1-0.7-0.4-0.9C59.2,324.4,58.9,324.3,58.5,324.3z"/>
</g>
</svg>
