<svg xmlns="http://www.w3.org/2000/svg" viewBox="0 0 39.43 35.62"><defs><style>.cls-1{fill:#895687;}</style></defs><title>アセット 4</title><g id="レイヤー_2" data-name="レイヤー 2"><g id="text"><rect class="cls-1" x="15.36" y="16.17" width="16.98" height="1.43"/><rect class="cls-1" x="13.9" y="21.81" width="16.98" height="1.43"/><path class="cls-1" d="M39.37.92V0H10.64V.92c0,1.89,0,3.87,0,5.93A57.7,57.7,0,0,1,10,16.3,37.39,37.39,0,0,1,7.1,26H4.33a4.35,4.35,0,0,0-1.46.25A4.06,4.06,0,0,0,1,27.63,4.92,4.92,0,0,0,0,30.17c0,.15,0,.3,0,.44a4.37,4.37,0,0,0,.51,2A5.35,5.35,0,0,0,2.63,34.8a6,6,0,0,0,2.92.81H27.4a5,5,0,0,0,2.16-.44,7.28,7.28,0,0,0,1.58-1,17.59,17.59,0,0,0,4.51-5.48A31.34,31.34,0,0,0,38.8,18.3a78.7,78.7,0,0,0,.63-10.77C39.43,5.1,39.37,2.84,39.37.92ZM5.56,33.78h0a4.15,4.15,0,0,1-1.37-.26,4.07,4.07,0,0,1-1.7-1.18A3.3,3.3,0,0,1,2,31.52a2.53,2.53,0,0,1-.17-.91,2.11,2.11,0,0,1,0-.25,3.31,3.31,0,0,1,.32-1.19,2.25,2.25,0,0,1,.92-1,2.5,2.5,0,0,1,1.24-.3H24a4,4,0,0,0-.56.84,4.82,4.82,0,0,0-.43,1.6c0,.14,0,.28,0,.41a4,4,0,0,0,.42,1.79,4.62,4.62,0,0,0,1,1.28ZM36.34,21.5A25.22,25.22,0,0,1,34,27.81a15.7,15.7,0,0,1-4,4.91,5.37,5.37,0,0,1-1.19.78,3.24,3.24,0,0,1-1.41.29h-.61A4,4,0,0,1,25.3,33a3.38,3.38,0,0,1-.8-1,2.81,2.81,0,0,1-.3-1.25,2.64,2.64,0,0,1,0-.28,3.49,3.49,0,0,1,.32-1.2,2.27,2.27,0,0,1,.93-1,2.31,2.31,0,0,1,1.23-.32,2.53,2.53,0,0,1,1.22.3,2,2,0,0,1,.8.84,1.6,1.6,0,0,1,0,1.26.88.88,0,0,1-.27.39.89.89,0,0,1-.62.24.93.93,0,0,1-.52-.15.9.9,0,0,1-.35-.4l-1.12.48a2.09,2.09,0,0,0,.81.95,2.17,2.17,0,0,0,2.6-.18,2.33,2.33,0,0,0,.61-.89,2.84,2.84,0,0,0-.08-2.23,3.19,3.19,0,0,0-1.3-1.37,3.78,3.78,0,0,0-1.78-.47H8.83a38.92,38.92,0,0,0,3-10,59.77,59.77,0,0,0,.67-9.74c0-1.75,0-3.42,0-5H37.54c0,1.74.05,3.66.05,5.7A62.62,62.62,0,0,1,36.34,21.5Z"/><path class="cls-1" d="M25.5,12.6a64.56,64.56,0,0,0,.2-6.86H16.2A64.56,64.56,0,0,1,16,12.6Z"/></g></g></svg>