<svg xmlns="http://www.w3.org/2000/svg" viewBox="0 0 47.66 34.74"><defs><style>.cls-1{fill:#895687;}</style></defs><title>アセット 6</title><g id="レイヤー_2" data-name="レイヤー 2"><g id="text"><path class="cls-1" d="M9.17,21.44V7.55H3.94A3.93,3.93,0,0,0,0,11.49v6a3.93,3.93,0,0,0,3.94,3.94Z"/><path class="cls-1" d="M29.54,1.21,20.3,6.15a11.77,11.77,0,0,1-5.57,1.4H11.58V21.44h3.15a11.77,11.77,0,0,1,5.57,1.4l9.24,4.94V29H32V0H29.54Zm0,23.88-8.15-4.35a14.19,14.19,0,0,0-6.69-1.68H14V9.93h.77a14.19,14.19,0,0,0,6.69-1.68l8.15-4.36Z"/><rect class="cls-1" x="32.79" y="11.72" width="1.94" height="5.56"/><path class="cls-1" d="M1.28,31.44V33A1.76,1.76,0,0,0,3,34.74H6A1.76,1.76,0,0,0,7.75,33V32l3-8.33h-7Z"/><rect class="cls-1" x="39.39" y="13.76" width="8.28" height="1.49"/><rect class="cls-1" x="37.94" y="6.48" width="7.58" height="1.49" transform="translate(2.13 22.24) rotate(-30.6)"/><polygon class="cls-1" points="38.09 20.13 44.61 23.99 45.37 22.71 38.84 18.85 38.09 20.13"/></g></g></svg>