<svg xmlns="http://www.w3.org/2000/svg" viewBox="0 0 41.43 36.1"><defs><style>.cls-1{fill:#895687;}</style></defs><title>アセット 3</title><g id="レイヤー_2" data-name="レイヤー 2"><g id="text"><path class="cls-1" d="M6.59,6.8a3.4,3.4,0,1,0-3.4-3.4A3.4,3.4,0,0,0,6.59,6.8Z"/><path class="cls-1" d="M18.14,17.16a1.36,1.36,0,0,0,0-.2l5.08-3.69A.72.72,0,0,0,22.77,12a.8.8,0,0,0-.42.13l-5.08,3.7a1.44,1.44,0,0,0-.62-.14H13.88l-.67-3.82c-.37-1.93-1.14-3.44-2.79-3.44h-7A3.82,3.82,0,0,0,0,11.85V23.27a1.5,1.5,0,0,0,1.49,1.5h1l.57,9.74A1.59,1.59,0,0,0,4.69,36.1H7.86a1.59,1.59,0,0,0,1.59-1.59l.74-19.3h0l.43,1.88a1.84,1.84,0,0,0,1.82,1.56h4.17A1.49,1.49,0,0,0,18.14,17.16Z"/><polygon class="cls-1" points="15.4 1.18 15.4 13.59 17.35 13.59 17.35 3.13 39.48 3.13 39.48 21.78 17.35 21.78 17.35 19.43 15.4 19.43 15.4 23.73 41.43 23.73 41.43 1.18 15.4 1.18"/><path class="cls-1" d="M25,9.1l5,1.76V5.58A5.27,5.27,0,0,0,25,9.1Z"/><path class="cls-1" d="M26.7,14A5.28,5.28,0,1,0,32,8.69V14l-5-1.75A5.37,5.37,0,0,0,26.7,14Z"/></g></g></svg>