<svg xmlns="http://www.w3.org/2000/svg" width="19.26" height="28.21" viewBox="0 0 19.26 28.21"><defs><style>.cls-1{fill:#fff;}</style></defs><title>q</title><g id="レイヤー_2" data-name="レイヤー 2"><g id="text"><path class="cls-1" d="M17.9,28a21.5,21.5,0,0,1-3.07.2c-3.33,0-4.58-.84-5.5-3.36l-.64-1.71C3.48,22.76,0,18.62,0,11.64,0,4.23,3.91,0,9.64,0s9.62,4.17,9.62,11.58c0,6.23-2.75,10.26-7,11.27l.38,1.1c.43,1.1,1.1,1.54,2.81,1.54a13.87,13.87,0,0,0,2.83-.32ZM4.14,11.61c0,5.71,2.2,8.63,5.5,8.63s5.48-2.92,5.48-8.63S13,3,9.64,3,4.14,5.85,4.14,11.61Z"/></g></g></svg>