<?xml version="1.0" encoding="UTF-8"?><svg id="_イヤー_2" xmlns="http://www.w3.org/2000/svg" viewBox="0 0 16.29 23.7"><defs><style>.cls-1{fill:#8b4688;}</style></defs><g id="_"><g><path class="cls-1" d="M14.53,9.61c0,1.29-.93,2.32-2.07,2.32s-2.08-1.03-2.08-2.32,.93-2.32,2.08-2.32,2.07,1.04,2.07,2.32"/><path class="cls-1" d="M0,15.33C0,3.58,7.85,2.12,16.29,0c-5.44,1.79-8.22,4.87-8.22,7.87,0,2.25,.52,3.42,2.12,4.75,1.6,1.34,1.83,3.88,.26,5.46-1.93,1.96-6.1,4.12-9.67,5.63,3.05-2.17,7.28-6.37,7.28-8.75,0-2.08-5.13-.88-8.07,.38"/></g></g></svg>