<svg id="_i_icon_14810_icon_148100" xmlns="http://www.w3.org/2000/svg" width="29.676" height="41.856" viewBox="0 0 29.676 41.856">
  <path id="パス_1276" data-name="パス 1276" d="M74.773,128.457l2.7-3.773a7.189,7.189,0,0,1,2.492-2.125l5.516-2.9a9.912,9.912,0,0,1,3.528-1.008l1.54-.044a3.512,3.512,0,0,1,2.591.968l5.25,4.712,4.548,1.247a1.68,1.68,0,0,1,1.2,1.978l-.016.067a1.677,1.677,0,0,1-1.876,1.3l-3.663-.523a7.535,7.535,0,0,1-2.6-.875l-2.214-1.494-.113,7.348a2.832,2.832,0,0,0,.283,1.427l7.508,13.041a1.949,1.949,0,0,1-.707,2.658l-.065.038a1.949,1.949,0,0,1-2.58-.567l-8.576-12.129L86.227,145a3.778,3.778,0,0,1-.91.857l-6.555,4.39a1.906,1.906,0,0,1-2.555-.4l-.073-.094a1.9,1.9,0,0,1,.335-2.69l5.654-4.344,3.274-9.251-.292-8.293-3.925,1.179L77.051,130.4a1.479,1.479,0,0,1-1.917.133l-.04-.03A1.479,1.479,0,0,1,74.773,128.457Z" transform="translate(-74.496 -108.915)" fill="#fff"/>
  <path id="パス_1277" data-name="パス 1277" d="M202.074,8.111a4.079,4.079,0,1,1,3.415-4.649A4.08,4.08,0,0,1,202.074,8.111Z" transform="translate(-185.906 0)" fill="#fff"/>
</svg>
