<svg xmlns="http://www.w3.org/2000/svg" width="39.219" height="40.787" viewBox="0 0 39.219 40.787">
  <g id="_i_icon_10988_icon_109880" transform="translate(-9.844)">
    <path id="パス_492" data-name="パス 492" d="M35.576,139.149l-2.57-1.077c-.366.686-.782,1.415-1.229,2.174l3.025,1.266V160.12l-10.7-4.48v-9.174l-.233-.324c-.125-.173-.627-.882-1.317-1.911V155.64l-10.232,4.284V141.318l6.723-2.817c-.149-.274-.3-.55-.442-.826-.254-.488-.477-.946-.685-1.389l-8.076,3.382v23.984L23.329,158l12.247,5.128,13.487-5.647V133.5Zm11.007,16.687L36.351,160.12V141.512l10.232-4.284Z" transform="translate(0 -122.865)" fill="#1a760a"/>
    <path id="パス_493" data-name="パス 493" d="M110.377,14.22a79.783,79.783,0,0,0,5.172,8.312l1,1.393,1-1.393c.012-.015,1.775-2.47,3.551-5.432a46.576,46.576,0,0,0,2.47-4.62,18.533,18.533,0,0,0,.849-2.211,7.247,7.247,0,0,0,.351-2.046,8.221,8.221,0,1,0-16.441,0,7.208,7.208,0,0,0,.352,2.046A23.858,23.858,0,0,0,110.377,14.22Zm2.1-10.07a5.759,5.759,0,0,1,9.831,4.073,4.945,4.945,0,0,1-.248,1.337,21.507,21.507,0,0,1-1.524,3.523c-1,1.927-2.255,3.942-3.252,5.464-.268.408-.514.777-.734,1.1-.7-1.029-1.663-2.506-2.609-4.1a41.494,41.494,0,0,1-2.227-4.217,15,15,0,0,1-.691-1.827,4.839,4.839,0,0,1-.233-1.282A5.742,5.742,0,0,1,112.477,4.15Z" transform="translate(-90.639)" fill="#1a760a"/>
    <path id="パス_494" data-name="パス 494" d="M180.642,75a2.674,2.674,0,1,0-2.674-2.674A2.674,2.674,0,0,0,180.642,75Z" transform="translate(-154.731 -64.106)" fill="#1a760a"/>
  </g>
</svg>
