<svg xmlns="http://www.w3.org/2000/svg" width="34.459" height="35.438" viewBox="0 0 34.459 35.438">
  <g id="_i_icon_12549_icon_125490" transform="translate(-7.073)">
    <path id="パス_507" data-name="パス 507" d="M122.225,7.165a2.005,2.005,0,0,0,2-2.005V2a2.005,2.005,0,0,0-4.01,0V5.16A2.005,2.005,0,0,0,122.225,7.165Z" transform="translate(-105.316)" fill="#794993"/>
    <path id="パス_508" data-name="パス 508" d="M335.848,7.165a2.005,2.005,0,0,0,2-2.005V2a2.005,2.005,0,0,0-4.01,0V5.16A2.005,2.005,0,0,0,335.848,7.165Z" transform="translate(-304.153)" fill="#794993"/>
    <path id="パス_509" data-name="パス 509" d="M36.7,41.287H35.462v2.3a3.767,3.767,0,1,1-7.534,0v-2.3H20.677v2.3a3.767,3.767,0,1,1-7.534,0v-2.3H11.9a4.829,4.829,0,0,0-4.829,4.829V69.039A4.829,4.829,0,0,0,11.9,73.867H36.7a4.829,4.829,0,0,0,4.829-4.829V46.116A4.829,4.829,0,0,0,36.7,41.287Zm1.028,26.9a2.24,2.24,0,0,1-2.238,2.238H13.111a2.24,2.24,0,0,1-2.238-2.238V50.256H37.732V68.191Z" transform="translate(0 -38.429)" fill="#794993"/>
    <rect id="長方形_929" data-name="長方形 929" width="3.543" height="3.543" transform="translate(19.785 25.732)" fill="#794993"/>
    <rect id="長方形_930" data-name="長方形 930" width="3.543" height="3.543" transform="translate(19.785 20.24)" fill="#794993"/>
    <rect id="長方形_931" data-name="長方形 931" width="3.543" height="3.543" transform="translate(14.293 25.732)" fill="#794993"/>
    <rect id="長方形_932" data-name="長方形 932" width="3.543" height="3.543" transform="translate(14.293 20.24)" fill="#794993"/>
    <rect id="長方形_933" data-name="長方形 933" width="3.543" height="3.543" transform="translate(30.769 14.747)" fill="#794993"/>
    <rect id="長方形_934" data-name="長方形 934" width="3.544" height="3.543" transform="translate(25.277 14.747)" fill="#794993"/>
    <rect id="長方形_935" data-name="長方形 935" width="3.544" height="3.543" transform="translate(25.277 20.24)" fill="#794993"/>
    <rect id="長方形_936" data-name="長方形 936" width="3.543" height="3.543" transform="translate(30.769 25.732)" fill="#794993"/>
    <rect id="長方形_937" data-name="長方形 937" width="3.543" height="3.543" transform="translate(30.769 20.24)" fill="#794993"/>
    <rect id="長方形_938" data-name="長方形 938" width="3.544" height="3.543" transform="translate(25.277 25.732)" fill="#794993"/>
    <rect id="長方形_939" data-name="長方形 939" width="3.543" height="3.543" transform="translate(19.785 14.747)" fill="#794993"/>
    <rect id="長方形_940" data-name="長方形 940" width="3.543" height="3.543" transform="translate(14.293 14.747)" fill="#794993"/>
  </g>
</svg>
