<svg xmlns="http://www.w3.org/2000/svg" width="38.499" height="38.499" viewBox="0 0 38.499 38.499">
  <g id="_i_icon_00006_icon_000060" transform="translate(-0.001 0)">
    <path id="パス_500" data-name="パス 500" d="M38.089,6.637,31.863.412a1.4,1.4,0,0,0-1.986,0L3.593,25.655a1.4,1.4,0,0,0-.35.584L.063,36.685a1.4,1.4,0,0,0,1.752,1.752L12.6,35.156h0L38.089,8.623A1.4,1.4,0,0,0,38.089,6.637ZM4.777,34.971,3.53,33.724,5.363,27.7,8.9,29.6l1.9,3.535ZM34.138,5.643,11.744,28.179l-1.423-1.423L32.858,4.362l1.279,1.279Z" transform="translate(0 0)" fill="#794993"/>
  </g>
</svg>
