<svg id="_i_icon_11048_icon_110480-3" xmlns="http://www.w3.org/2000/svg" width="40.63" height="30.542" viewBox="0 0 40.63 30.542">
  <path id="パス_489" data-name="パス 489" d="M37.428,87.961H67.76A2.368,2.368,0,0,0,70.127,85.6V65.93a2.369,2.369,0,0,0-2.367-2.367H37.428a2.369,2.369,0,0,0-2.366,2.367V85.6A2.368,2.368,0,0,0,37.428,87.961Zm1.58-20.638H66.181V84.2H39.007Z" transform="translate(-32.28 -63.563)" fill="#fff"/>
  <path id="パス_490" data-name="パス 490" d="M0,401.625v1.718a2,2,0,0,0,2,2H38.633a2,2,0,0,0,2-2v-1.718Z" transform="translate(0 -374.798)" fill="#fff"/>
</svg>
