<svg xmlns="http://www.w3.org/2000/svg" width="33.36" height="33.359" viewBox="0 0 33.36 33.359">
  <g id="_i_icon_10968_icon_109680" transform="translate(0.001 -0.003)">
    <path id="パス_717" data-name="パス 717" d="M217.409,7.374a9.1,9.1,0,0,0-15.384-4.7l-4.317,4.317a2.229,2.229,0,0,0,3.153,3.153l4.317-4.319a4.652,4.652,0,1,1,6.578,6.58l-4.317,4.316a2.229,2.229,0,0,0,3.152,3.153l4.317-4.318a9.1,9.1,0,0,0,2.5-8.178Z" transform="translate(-184.216)" fill="#895687"/>
    <path id="パス_718" data-name="パス 718" d="M16.714,207.462,12.4,211.78a4.647,4.647,0,0,1-4.179,1.278,4.629,4.629,0,0,1-2.4-1.278A4.647,4.647,0,0,1,4.8,210.242,4.642,4.642,0,0,1,5.819,205.2l4.318-4.317a2.229,2.229,0,1,0-3.153-3.151l-4.317,4.316A9.109,9.109,0,1,0,15.55,214.931l4.317-4.318a2.228,2.228,0,0,0-3.152-3.151Z" transform="translate(0 -184.236)" fill="#895687"/>
    <path id="パス_719" data-name="パス 719" d="M171.448,160.211a2.23,2.23,0,0,0-3.152,0l-8.113,8.112a2.229,2.229,0,0,0,3.153,3.151l8.112-8.112A2.226,2.226,0,0,0,171.448,160.211Z" transform="translate(-149.137 -149.16)" fill="#895687"/>
  </g>
</svg>
