<svg xmlns="http://www.w3.org/2000/svg" width="48.811" height="28.897" viewBox="0 0 48.811 28.897">
  <g id="_i_icon_11122_icon_111220" transform="translate(0.001 -104.444)">
    <path id="パス_1250" data-name="パス 1250" d="M45.049,139.919q-1.021-3.544-2.039-7.089-.333-1.153-.664-2.307L40.5,132.367l1.792,7.058c.295,1.159-.478,2.19-1.749,1.794a20.361,20.361,0,0,0-6.629-1.589,17.521,17.521,0,0,0-7.548,1.378c-.267.11-2.048,1.393-2.12.483q-.058-3.191-.118-6.381-.123-6.592-.244-13.181c0-.252.6-.378.728-.426a15.885,15.885,0,0,1,3.085-.806,18.431,18.431,0,0,1,7.567.431,5.366,5.366,0,0,1,2.217.962l1.186-1.184a6.435,6.435,0,0,0-1.277-.743,19.315,19.315,0,0,0-7.11-1.378,21.09,21.09,0,0,0-7.29,1.125c-.453.155-1.193-.256-1.656-.381-.545-.147-1.1-.271-1.652-.375a22.33,22.33,0,0,0-3.712-.369,23.643,23.643,0,0,0-7.083,1.1c-.5.188-.143.055-.031.013-1.418.536-2.973,1.412-3.42,2.967-.112.389-.225.778-.337,1.166l-1.7,5.9Q2.241,133.967,1.08,138c-.45,1.566-1.342,3.577-1.008,5.223A3.493,3.493,0,0,0,4.4,145.806a14.77,14.77,0,0,0,1.945-.684,24.76,24.76,0,0,1,3.31-.947,17.876,17.876,0,0,1,8.12.423c.594.153,2.821.538,2.885,1.2.061.62.773.451,1.222.451h1.336a4.32,4.32,0,0,0,1.479-.028c.389-.168.089-.594.456-.754a15.184,15.184,0,0,1,1.534-.556,24.2,24.2,0,0,1,3.715-.843,17.156,17.156,0,0,1,7.812.706c1.512.477,2.978,1.356,4.618,1.062,2.236-.4,3.151-2.681,2.564-4.719C45.289,140.716,45.164,140.318,45.049,139.919ZM21.592,127.15q-.134,7.085-.264,14.169c-.006.316-.092.512-.444.5a16.735,16.735,0,0,0-6.378-2.071,17.818,17.818,0,0,0-7.578.793,9.107,9.107,0,0,1-2.438.758,1.3,1.3,0,0,1-1.254-1.694q.854-3.354,1.7-6.709,1-3.944,2-7.889.25-.981.5-1.965c.407-1.6,2.674-1.907,4.028-2.188a17.508,17.508,0,0,1,7.609.073c.435.1,2.622.439,2.61,1.064Q21.638,124.573,21.592,127.15Z" transform="translate(0 -12.966)" fill="#ffb100"/>
    <path id="パス_1251" data-name="パス 1251" d="M304.609,124.214l6.63-1.406L324.38,109.67l-5.226-5.226-13.138,13.138ZM321.86,109.67l-11.267,11.266-1.163-1.163L320.7,108.506Zm-2.705-2.705,1.163,1.163-11.267,11.266-1.163-1.163Zm-11.531,11.757L310.1,121.2l-2.307.508-.679-.678Z" transform="translate(-275.57)" fill="#ffb100"/>
  </g>
</svg>
