<svg xmlns="http://www.w3.org/2000/svg" width="41.152" height="34.851" viewBox="0 0 41.152 34.851">
  <g id="グループ_4103" data-name="グループ 4103" transform="translate(-395.717 -2160.82)">
    <g id="_i_icon_10991_icon_109910-2" transform="translate(395.717 2160.82)">
      <path id="パス_1281" data-name="パス 1281" d="M38.418,39.2H2.734A2.734,2.734,0,0,0,0,41.937V64.761A2.734,2.734,0,0,0,2.734,67.5H17.683V68.1a2.734,2.734,0,0,1-2.734,2.734H10.931v3.215h19.29V70.838H26.2A2.734,2.734,0,0,1,23.47,68.1V67.5H38.418a2.734,2.734,0,0,0,2.734-2.734V41.937A2.734,2.734,0,0,0,38.418,39.2ZM37.294,61.439a.912.912,0,0,1-.912.912H4.77a.912.912,0,0,1-.912-.912V43.973a.912.912,0,0,1,.912-.912H36.383a.912.912,0,0,1,.912.912V61.439Z" transform="translate(0 -39.203)" fill="#fff"/>
    </g>
    <g id="_i_icon_12513_icon_125130" transform="translate(407.564 2167.579)">
      <path id="パス_487" data-name="パス 487" d="M12.664,54.96a6.735,6.735,0,0,1,1.735.227c-.594-2.7-3.561-4.751-7.142-4.751C3.249,50.435,0,53.005,0,56.176A5.571,5.571,0,0,0,3.319,61L2.194,63.512a30.059,30.059,0,0,0,5.777-1.3,4.088,4.088,0,0,1-.956-2.6C7.015,57.044,9.549,54.96,12.664,54.96Z" transform="translate(0 -50.435)" fill="#fff"/>
      <path id="パス_488" data-name="パス 488" d="M240.407,212.011c0-2.095-2.146-3.792-4.794-3.792s-4.794,1.7-4.794,3.792a3.922,3.922,0,0,0,3.024,3.524,21.645,21.645,0,0,0,5.115,1.323l-.743-1.662A3.68,3.68,0,0,0,240.407,212.011Z" transform="translate(-222.95 -202.839)" fill="#fff"/>
    </g>
  </g>
</svg>
