<svg xmlns="http://www.w3.org/2000/svg" width="43.678" height="21.591" viewBox="0 0 43.678 21.591">
  <g id="_i_icon_11021_icon_110210" transform="translate(0 -129.453)">
    <path id="パス_495" data-name="パス 495" d="M24.289,129.453H2.162A2.161,2.161,0,0,0,0,131.614v17.268a2.162,2.162,0,0,0,2.162,2.162H24.289a2.162,2.162,0,0,0,2.162-2.162V131.614A2.161,2.161,0,0,0,24.289,129.453Z" transform="translate(0)" fill="#ea4040"/>
    <path id="パス_496" data-name="パス 496" d="M351.689,169.605a2.168,2.168,0,0,0-1.847-.4l-10.549,2.57a2.162,2.162,0,0,0-1.652,2.1V179a2.161,2.161,0,0,0,1.652,2.1l10.549,2.571a2.163,2.163,0,0,0,2.674-2.1V171.306A2.165,2.165,0,0,0,351.689,169.605Z" transform="translate(-308.837 -36.305)" fill="#ea4040"/>
  </g>
</svg>
