<svg xmlns="http://www.w3.org/2000/svg" width="37.429" height="44.64" viewBox="0 0 37.429 44.64">
  <g id="_i_icon_14697_icon_146970" transform="translate(-41.353)">
    <path id="パス_1268" data-name="パス 1268" d="M175.071,233.535a20.9,20.9,0,0,0-4.256.4,19.188,19.188,0,0,1-2.558-3.4c2.1-6.036.77-7.752-1.02-7.752-1.405,0-2.107,1.483-1.951,3.122a15.4,15.4,0,0,0,1.637,4.2,47.509,47.509,0,0,1-2.4,5.429,21.511,21.511,0,0,0-2.705,1.013c-3.354,1.56-3.623,3.642-2.925,4.524,1.325,1.676,4.148.23,6.981-4.836,1.939-.551,4.491-1.286,4.721-1.286a.376.376,0,0,1,.1.022c1.414,1.247,3.083,2.674,4.458,2.862,1.989.273,3.12-1.169,3.042-2.066S177.6,233.687,175.071,233.535ZM162.518,239c-.82.975-2.145,1.909-2.613,1.6s-.546-1.208.507-2.223a8.816,8.816,0,0,1,3.08-1.638c.313-.117.391,0,.391.156A7.757,7.757,0,0,1,162.518,239Zm3.589-13.1c-.078-.976.116-1.911.936-2.028s1.209.818.9,2.339a12.517,12.517,0,0,1-.625,2.654c-.156.117-.311-.274-.311-.274A8.065,8.065,0,0,1,166.107,225.895Zm.312,9.166c.428-.7,1.521-3.549,1.521-3.549.234.429,2.066,2.612,2.066,2.612S167.2,234.749,166.419,235.061Zm8.5,1.247a10.352,10.352,0,0,1-3.158-1.56c-.273-.117,2.179-.45,3.12-.389,1.21.078,1.639.586,1.639,1.092S176.091,236.463,174.919,236.307Z" transform="translate(-107.005 -203.351)" fill="red"/>
    <path id="パス_1269" data-name="パス 1269" d="M77.97,9.387,69.4.812,68.584,0H49.949a7.5,7.5,0,0,0-7.487,7.489v.573H41.353v8.957h1.109V37.151a7.5,7.5,0,0,0,7.487,7.489H71.293a7.5,7.5,0,0,0,7.489-7.489V10.2Zm-6.677,32.48H49.949a4.715,4.715,0,0,1-4.716-4.716V17.019H58.949V8.062H45.233V7.489a4.716,4.716,0,0,1,4.716-4.717H66.771V8.082a3.93,3.93,0,0,0,3.93,3.929H76.01v25.14A4.716,4.716,0,0,1,71.293,41.866ZM45.428,14.48V10.334a.133.133,0,0,1,.133-.133h1.317a1.628,1.628,0,0,1,.6.106,1.415,1.415,0,0,1,.462.29,1.229,1.229,0,0,1,.3.446,1.464,1.464,0,0,1,.1.549,1.446,1.446,0,0,1-.1.552,1.279,1.279,0,0,1-.3.441,1.358,1.358,0,0,1-.464.29,1.659,1.659,0,0,1-.595.1h-.556v1.5a.133.133,0,0,1-.133.133h-.628A.133.133,0,0,1,45.428,14.48Zm4.062,0V10.334a.133.133,0,0,1,.133-.133h1.456a1.791,1.791,0,0,1,.726.137,1.5,1.5,0,0,1,.553.437,1.293,1.293,0,0,1,.195.341,2,2,0,0,1,.1.384,3.236,3.236,0,0,1,.039.432c0,.148.006.306.006.475s0,.327-.006.474a3.265,3.265,0,0,1-.039.433,1.992,1.992,0,0,1-.1.384,1.288,1.288,0,0,1-.194.341,1.483,1.483,0,0,1-.554.437,1.78,1.78,0,0,1-.726.137H49.623A.133.133,0,0,1,49.49,14.48Zm6.939-2.45a.133.133,0,0,1,.133.133v.565a.133.133,0,0,1-.133.133H54.838v1.62a.133.133,0,0,1-.133.133h-.629a.133.133,0,0,1-.133-.133V10.335a.133.133,0,0,1,.133-.133h2.411a.133.133,0,0,1,.133.133V10.9a.133.133,0,0,1-.133.133h-1.65v1h1.591Z" fill="red"/>
    <path id="パス_1270" data-name="パス 1270" d="M99.31,127.51a.624.624,0,0,0,0-.827.636.636,0,0,0-.444-.146h-.521v1.12h.521A.636.636,0,0,0,99.31,127.51Z" transform="translate(-52.023 -115.504)" fill="red"/>
    <path id="パス_1271" data-name="パス 1271" d="M145.917,129.173a.643.643,0,0,0,.259-.182.7.7,0,0,0,.154-.393,8.308,8.308,0,0,0,0-1.494.7.7,0,0,0-.154-.393.648.648,0,0,0-.259-.182.981.981,0,0,0-.352-.059h-.625v2.762h.625A.989.989,0,0,0,145.917,129.173Z" transform="translate(-94.557 -115.443)" fill="red"/>
  </g>
</svg>
