<svg xmlns="http://www.w3.org/2000/svg" width="15.732" height="23.367" viewBox="0 0 15.732 23.367">
  <g id="_i_icon_00020_icon_000200" transform="translate(-83.644)">
    <path id="パス_431" data-name="パス 431" d="M91.51,0a7.865,7.865,0,0,0-7.866,7.866c0,4.434,2.2,5.379,4.627,8.329a14.529,14.529,0,0,1,3.239,7.172,14.529,14.529,0,0,1,3.239-7.172c2.429-2.95,4.627-3.895,4.627-8.329A7.865,7.865,0,0,0,91.51,0Zm0,10.585a2.718,2.718,0,1,1,2.718-2.718A2.718,2.718,0,0,1,91.51,10.585Z" fill="#fff"/>
  </g>
</svg>
