<svg xmlns="http://www.w3.org/2000/svg" width="20.711" height="23.745" viewBox="0 0 20.711 23.745">
  <g id="_i_icon_00008_icon_000080" transform="translate(-32.703)">
    <path id="パス_1341" data-name="パス 1341" d="M52.264,0H38.879a3.2,3.2,0,0,0-1.964.814l-3.4,3.4A3.2,3.2,0,0,0,32.7,6.176V22.594a1.154,1.154,0,0,0,1.151,1.151h18.41a1.154,1.154,0,0,0,1.151-1.151V1.151A1.154,1.154,0,0,0,52.264,0ZM45.9,18.513a.176.176,0,0,1-.176.176H37.368a.176.176,0,0,1-.176-.176v-.775a.176.176,0,0,1,.176-.176h8.356a.176.176,0,0,1,.176.176Zm3.025-3.542a.2.2,0,0,1-.2.2H37.4a.2.2,0,0,1-.2-.2v-.718a.2.2,0,0,1,.2-.2H48.721a.2.2,0,0,1,.2.2v.718Zm0-3.513a.2.2,0,0,1-.2.2H37.4a.2.2,0,0,1-.2-.2V10.74a.2.2,0,0,1,.2-.2H48.721a.2.2,0,0,1,.2.2v.718Zm0-3.513a.2.2,0,0,1-.2.2H37.4a.2.2,0,0,1-.2-.2V7.227a.2.2,0,0,1,.2-.2H48.721a.2.2,0,0,1,.2.2v.718Z"/>
  </g>
</svg>
