<svg xmlns="http://www.w3.org/2000/svg" width="78" height="62" viewBox="0 0 78 62">
  <g id="グループ_4146" data-name="グループ 4146" transform="translate(-5918 -5538)">
    <g id="_i_icon_12041_icon_120410" transform="translate(5935 5541.356)">
      <rect id="長方形_910" data-name="長方形 910" width="24.775" height="2.367" transform="translate(9.547 42.765)" fill="#895687"/>
      <rect id="長方形_911" data-name="長方形 911" width="24.775" height="2.367" transform="translate(9.547 33.164)" fill="#895687"/>
      <rect id="長方形_912" data-name="長方形 912" width="24.775" height="2.368" transform="translate(9.547 23.565)" fill="#895687"/>
      <rect id="長方形_913" data-name="長方形 913" width="11.678" height="2.367" transform="translate(22.645 13.965)" fill="#895687"/>
      <path id="パス_425" data-name="パス 425" d="M92.637,0H72.146a5.55,5.55,0,0,0-3.922,1.624L55.443,14.406a5.547,5.547,0,0,0-1.625,3.923V50.5a5.057,5.057,0,0,0,5.051,5.051H92.637A5.057,5.057,0,0,0,97.688,50.5V5.049A5.056,5.056,0,0,0,92.637,0ZM70.356,3.51V14.863c0,1.227-.478,1.706-1.705,1.706H57.3ZM94.847,50.5a2.213,2.213,0,0,1-2.211,2.21H58.869a2.213,2.213,0,0,1-2.211-2.21v-31.4H70.171a2.713,2.713,0,0,0,2.71-2.711V2.841H92.637a2.212,2.212,0,0,1,2.211,2.209Z" transform="translate(-53.818)" fill="#895687"/>
    </g>
    <rect id="長方形_1251" data-name="長方形 1251" width="78" height="62" transform="translate(5918 5538)" fill="none"/>
  </g>
</svg>
