<svg xmlns="http://www.w3.org/2000/svg" width="78" height="62" viewBox="0 0 78 62">
  <g id="グループ_4144" data-name="グループ 4144" transform="translate(-5541 -5538)">
    <g id="_i_icon_11048_icon_110480-3" transform="translate(5544.424 5542.287)">
      <path id="パス_489" data-name="パス 489" d="M39.26,106.855H93.082a4.2,4.2,0,0,0,4.2-4.2V67.763a4.2,4.2,0,0,0-4.2-4.2H39.26a4.2,4.2,0,0,0-4.2,4.2v34.894A4.2,4.2,0,0,0,39.26,106.855Zm2.8-36.621H90.281v29.95H42.063Z" transform="translate(-30.125 -63.563)" fill="#895687"/>
      <path id="パス_490" data-name="パス 490" d="M0,401.625v3.049a3.545,3.545,0,0,0,3.54,3.542H68.552a3.545,3.545,0,0,0,3.542-3.542v-3.049Z" transform="translate(0 -354.023)" fill="#895687"/>
    </g>
    <rect id="長方形_1249" data-name="長方形 1249" width="78" height="62" transform="translate(5541 5538)" fill="none"/>
  </g>
</svg>
