<svg xmlns="http://www.w3.org/2000/svg" width="78" height="62" viewBox="0 0 78 62">
  <g id="グループ_4145" data-name="グループ 4145" transform="translate(-5729 -5538)">
    <g id="_i_icon_12513_icon_125130" transform="translate(5735.255 5543.287)">
      <path id="パス_487" data-name="パス 487" d="M48.19,67.652a25.631,25.631,0,0,1,6.6.862C52.532,58.246,41.239,50.435,27.615,50.435,12.363,50.435,0,60.215,0,72.281c0,7.693,5.032,14.451,12.629,18.342L8.347,100.2a114.384,114.384,0,0,0,21.982-4.965,15.556,15.556,0,0,1-3.636-9.9C26.693,75.585,36.337,67.652,48.19,67.652Z" transform="translate(0 -50.435)" fill="#895687"/>
      <path id="パス_488" data-name="パス 488" d="M267.3,222.649c0-7.97-8.167-14.43-18.241-14.43s-18.242,6.46-18.242,14.43c0,6.087,4.766,11.289,11.506,13.409a82.368,82.368,0,0,0,19.463,5.033l-2.829-6.325C263.979,232.2,267.3,227.731,267.3,222.649Z" transform="translate(-200.871 -187.747)" fill="#895687"/>
    </g>
    <rect id="長方形_1250" data-name="長方形 1250" width="78" height="62" transform="translate(5729 5538)" fill="none"/>
  </g>
</svg>
