<svg xmlns="http://www.w3.org/2000/svg" width="78" height="62" viewBox="0 0 78 62">
  <g id="グループ_4147" data-name="グループ 4147" transform="translate(-6106 -5538)">
    <g id="_i_icon_12534_icon_125340" transform="translate(6118.742 5548.505)">
      <path id="パス_426" data-name="パス 426" d="M52.388,61.745a6.891,6.891,0,0,0-1.428-3.022,5.815,5.815,0,0,0-.465-.514,6.919,6.919,0,0,0-4.875-2.021H6.9a6.851,6.851,0,0,0-4.876,2.021,6.052,6.052,0,0,0-.469.52A6.81,6.81,0,0,0,.134,61.748,6.663,6.663,0,0,0,0,63.086v27.2a6.934,6.934,0,0,0,2.021,4.876c.155.155.31.3.475.437a6.914,6.914,0,0,0,4.4,1.585H45.619a6.862,6.862,0,0,0,4.407-1.6,5.974,5.974,0,0,0,.47-.425,6.858,6.858,0,0,0,1.412-2.036l.045-.108a6.8,6.8,0,0,0,.564-2.731v-27.2A7.067,7.067,0,0,0,52.388,61.745ZM3.572,60.59a3.244,3.244,0,0,1,.381-.449A4.14,4.14,0,0,1,6.9,58.918H45.619a4.109,4.109,0,0,1,2.946,1.224,4.158,4.158,0,0,1,.376.438l.3.4L28.568,78.991a3.513,3.513,0,0,1-4.619,0L3.3,60.983ZM2.744,90.521a1.646,1.646,0,0,1-.014-.24V63.649L18.77,77.641,2.892,91.484ZM47.686,93.9a4.139,4.139,0,0,1-2.066.548H6.9A4.136,4.136,0,0,1,4.831,93.9l-.649-.376,16.4-14.3,1.8,1.564a5.9,5.9,0,0,0,7.753,0l1.8-1.565,16.4,14.3Zm2.1-3.618a1.722,1.722,0,0,1-.012.236l-.142.972L33.747,77.648,49.785,63.656Z" transform="translate(0 -56.188)" fill="#895687"/>
    </g>
    <rect id="長方形_1252" data-name="長方形 1252" width="78" height="62" transform="translate(6106 5538)" fill="none"/>
  </g>
</svg>
