<svg xmlns="http://www.w3.org/2000/svg" width="28.23" height="19.33" viewBox="0 0 28.23 19.33"><defs><style>.cls-1{fill:#3cab4c;}</style></defs><title>アセット 1</title><g id="レイヤー_2" data-name="レイヤー 2"><g id="text"><path class="cls-1" d="M27.37,0H24.8a2.19,2.19,0,0,0-1.75.88l-8.26,11a.84.84,0,0,1-1.35,0L5.18.88A2.19,2.19,0,0,0,3.43,0H.86A.86.86,0,0,0,.17,1.38L13.29,18.92a1,1,0,0,0,1.65,0L28.06,1.38A.86.86,0,0,0,27.37,0Z"/><path class="cls-1" d="M17.91,1.38l-3,4a1,1,0,0,1-1.65,0l-3-4A.86.86,0,0,1,11,0h6.21A.86.86,0,0,1,17.91,1.38Z"/></g></g></svg>