<svg xmlns="http://www.w3.org/2000/svg" width="600" height="5454.45" viewBox="0 0 600 5454.45"><defs><style>.cls-1{isolation:isolate;}.cls-2{fill:#fceae7;}.cls-3,.cls-6{fill:#fff;}.cls-3{stroke:#231815;stroke-miterlimit:10;stroke-width:1.01px;}.cls-4{fill:#231815;}.cls-5{opacity:0.7;mix-blend-mode:multiply;}</style></defs><title>アセット 7</title><g class="cls-1"><g id="レイヤー_2" data-name="レイヤー 2"><g id="レイヤー_1-2" data-name="レイヤー 1"><path class="cls-2" d="M599,1V5453.45H1V1H599m1-1H0V5454.45H600V0Z"/><path class="cls-3" d="M213.24,3238.75s-43.94-16.06-1.31-25.33c65-14.12,43.85-96.41,10.74-114.8-38.25-21.24-89.43,3.9-120.46,15.88-42.21,16.31-53,128.78,44.28,113.26,39-4.54,38,3,56.61,13.1"/><path class="cls-4" d="M108.9,3146.24c-.43,3.19-1.43,5-3,5.47A3,3,0,0,1,103,3151a6.8,6.8,0,0,1-1.86-3.23,8.56,8.56,0,0,1,1.5-7.78,9.7,9.7,0,0,1,5-3.24c4.67-1.34,8.57.61,9.8,4.89a8,8,0,0,1-2,7.91,9,9,0,0,1-2.33,2c-.12,0-.23,0-.44-.15a3,3,0,0,0-1.17-.54,12.18,12.18,0,0,0,3-2.38A6.86,6.86,0,0,0,116,3142a5.78,5.78,0,0,0-4.79-4.29,6.29,6.29,0,0,0-2.58.14A29,29,0,0,1,108.9,3146.24Zm-4.4-6.3a7.26,7.26,0,0,0-1.92,7.47c.55,1.93,1.74,3.07,2.88,2.75.9-.26,1.55-1.61,1.89-3.93a26.79,26.79,0,0,0-.16-7.92A8.38,8.38,0,0,0,104.5,3139.94Z"/><path class="cls-4" d="M126.51,3130.61c0,.08,0,.13-.15.44-.43.77-1.2,3.89-2.31,9.34-.07.39-.15.69-.49,2,1-2.44,2-3.62,3.74-4.12a2.61,2.61,0,0,1,3.27,1.45,28.29,28.29,0,0,1,1.19,2.86,3.61,3.61,0,0,0,.67,1.3,1.43,1.43,0,0,0,1.53.3,4.22,4.22,0,0,0,2.57-2.85,12,12,0,0,0,.57-2.39,2.72,2.72,0,0,0,.77,1.17.86.86,0,0,1,.25.39,3.55,3.55,0,0,1-.38,1.74,5.31,5.31,0,0,1-3.47,3.36,2.58,2.58,0,0,1-3.14-.84,10.13,10.13,0,0,1-1.23-2.66,5.88,5.88,0,0,0-1.05-2.07,1.44,1.44,0,0,0-1.54-.42c-1.89.55-3.41,3.17-3.86,6.61a18.18,18.18,0,0,0-.14,2.11c0,.23,0,.31-.15.35-.39.11-1.5-.11-1.56-.32,0,0,.05-.41.13-1a24.43,24.43,0,0,0,.37-2.77c.26-2.14,1-6.31,1.58-9.51.68-3.39.76-3.93.75-5.06C125.55,3130.09,126.44,3130.35,126.51,3130.61Z"/><path class="cls-4" d="M140.27,3127.84a10.64,10.64,0,0,0,4.08-1.8l.17-.12c.11,0,.21,0,.42.14a2.85,2.85,0,0,1,.81.81c0,.09,0,.2-.26.33a9.55,9.55,0,0,0-2.49,3.34,9.91,9.91,0,0,0-.7,6.86,4.58,4.58,0,0,0,3.07,3.44,4.7,4.7,0,0,0,2.24-.11,5,5,0,0,0,3.5-3.26c.63-1.78.47-4.17-.42-7.3a15.86,15.86,0,0,0-2.37-4.94.37.37,0,0,1-.09-.14c0-.13,0-.19.39-.41a7.14,7.14,0,0,1,.87-.46c.17,0,.24,0,.37.33a12.15,12.15,0,0,0,2.33,3.35,19.56,19.56,0,0,0,4.76,3.79c.14.07.2.13.22.19a2.43,2.43,0,0,1-.64,1.41c-.18.05-.72-.3-1.67-1.05a19.82,19.82,0,0,1-3.87-4.16,23.64,23.64,0,0,1,1.28,3.42,11.3,11.3,0,0,1,.24,6.64,6.34,6.34,0,0,1-4.44,4c-3.4,1-6.14-.62-7.17-4.23a10.69,10.69,0,0,1,.25-6.41,12.41,12.41,0,0,1,1.72-3.27l-1.65.63c-.37.15-.74.31-1.06.42-.48.19-.67.26-.91.38l-.19.08c-.32.09-.6-.3-1-1.4A16.29,16.29,0,0,0,140.27,3127.84Zm10.63-4.19.16-.18c.25-.28.32-.35.4-.37s.53.12,1.24.59a7.29,7.29,0,0,1,1.5,1.24c0,.09,0,.17-.14.35a2.87,2.87,0,0,1-.58.63c-.09,0-.14,0-.25-.14A8.41,8.41,0,0,0,151,3124c-.11-.06-.14-.1-.16-.14A.24.24,0,0,1,150.9,3123.65Zm4-1.19c.64.54.76.64.79.82s0,.17-.39.58c-.2.19-.27.26-.34.28s-.12,0-.21-.1a7.48,7.48,0,0,0-2.27-1.76c-.06-.05-.09-.07-.1-.11s.49-.72.68-.78A5.17,5.17,0,0,1,154.88,3122.46Z"/><path class="cls-4" d="M161.57,3120.38a1.06,1.06,0,0,1,0,.34,2.54,2.54,0,0,0-.13.78c0,.57.16,1.85.29,2.7s.31,1.65.69,3.3c.09.4.13.53.18.79a.24.24,0,0,1,0-.08,2.74,2.74,0,0,0,.12-.45,8.07,8.07,0,0,1,.21-.8c0-.1.18-.75.49-1.93a2.8,2.8,0,0,0,.65.72.42.42,0,0,1,.13.21c0,.13,0,.13-.23,1.14a12.76,12.76,0,0,0-.45,3.19c0,.37-.07.42-.71.6a1.3,1.3,0,0,1-.7.08,12.92,12.92,0,0,1-.89-2.62,35.44,35.44,0,0,1-1.23-6.14,10.26,10.26,0,0,0-.36-2C160.76,3120.08,161.5,3120.12,161.57,3120.38Zm6.18-1.82c.58-.17.71-.13.81.21,0,.06,0,.09.09.34l0,.11c.11.39.29,1,.6,1.85.43,1.17.71,2.07,1,3,1.11,3.88,1,6.8-.26,9.69a6.46,6.46,0,0,1-1.66,2.49s-.08,0-.26,0H168a.4.4,0,0,0-.13,0,4.52,4.52,0,0,0-1.07-.18,10.34,10.34,0,0,0,2.54-5.14,12.93,12.93,0,0,0-.49-6.38,21.43,21.43,0,0,0-2.18-5.5A10.94,10.94,0,0,1,167.75,3118.56Z"/><path class="cls-4" d="M177.56,3115.05c.34,0,.45,0,.51.22a1.13,1.13,0,0,1,0,.34,10,10,0,0,0,.34,2.43c.48,2.07,2,8.05,2.4,9.48.68,2.38,1.66,3.05,3.68,2.47a8.1,8.1,0,0,0,3.84-2.47,11.63,11.63,0,0,0,2.43-4.46,4.12,4.12,0,0,0,.83,1.18.64.64,0,0,1,.16.23c.13.45-.86,2.34-1.92,3.66a9.75,9.75,0,0,1-5,3.41c-2.81.81-4.55-.32-5.46-3.51-.16-.54-2.44-9.14-2.77-10.44,0-.15-.12-.43-.18-.63a11.45,11.45,0,0,0-.58-1.64A11.73,11.73,0,0,1,177.56,3115.05Z"/><path class="cls-4" d="M195.73,3109.86a2,2,0,0,0-.13-.36,9.27,9.27,0,0,1,1.85-.12.24.24,0,0,1,.24.19,1.65,1.65,0,0,1-.07.65,10,10,0,0,0,.13,2.72,30.49,30.49,0,0,0,2.74-1.55l.12-.06c.08,0,.11,0,.19.09a9.44,9.44,0,0,1,.48.95c.05.17,0,.22-.1.29s-.08,0-.18.12c-.58.32-2.35,1.25-3.13,1.61a54.69,54.69,0,0,1-.18,10.64c-.19,1.82-.29,2.29-.46,2.34a3.82,3.82,0,0,1-1.14-.17c-.2,0-.28-.1-.31-.21a.65.65,0,0,1,0-.33,17.89,17.89,0,0,0,.44-2.56,47.58,47.58,0,0,0,.22-9,34.13,34.13,0,0,1-3.53,1.32c-.32.09-.39.09-.49-.09a7.55,7.55,0,0,1-.5-1.11l.95-.25a30.48,30.48,0,0,0,3.45-1.32A19,19,0,0,0,195.73,3109.86Zm12.35,12.95a14.24,14.24,0,0,0,2.88-1.15.75.75,0,0,1,.25-.09c.23-.07.29,0,.47.42a2.52,2.52,0,0,0,.14.33l.16.39a.32.32,0,0,1-.19.41,23.14,23.14,0,0,1-3.17,1.16c-2.06.59-3.46.63-4.6.16a4.54,4.54,0,0,1-1.82-1.49,1.84,1.84,0,0,1-.23-.42c-.05-.18,0-.24.87-1.09C204,3123.23,205.38,3123.59,208.08,3122.81Zm-5.3-7.06a.45.45,0,0,1-.1.05.23.23,0,0,1-.29-.13,4.63,4.63,0,0,1-.36-.92c-.05-.19,0-.27.17-.37a24,24,0,0,1,4.4-1.68c1.22-.35,1.79-.47,1.89-.36a1.3,1.3,0,0,1,.22.54c.19.67.19.83,0,.89l-.11,0a19.07,19.07,0,0,0-2.07.46A22,22,0,0,0,202.78,3115.75Z"/><path class="cls-4" d="M124.86,3162.68a14.39,14.39,0,0,0-2.12.73l-.38-1.35a16.22,16.22,0,0,0,2.2-.5l10.29-2.95a16.57,16.57,0,0,0,2.15-.76l.39,1.35a17.72,17.72,0,0,0-2.16.5l-4.65,1.34.38,1.31,6.41-1.84a11.65,11.65,0,0,0,1.86-.65,10.62,10.62,0,0,0,.36,1.59l.47,1.63a8.2,8.2,0,0,0,.62,1.68l-1.33.38-1.09-3.78-7,2,.93,3.21a13.26,13.26,0,0,0,.61,1.75l-1.48.43a15,15,0,0,0-.4-1.81l-.92-3.22-6.78,1.94,1.11,3.87-1.33.38a9,9,0,0,0-.36-1.73l-.49-1.74a12.21,12.21,0,0,0-.54-1.54,12.2,12.2,0,0,0,2-.45l6.11-1.76-.37-1.31Zm5.37,10.81a9.84,9.84,0,0,0-1.75.62l-.29-1A16.35,16.35,0,0,1,125,3176a4.41,4.41,0,0,0-1.07-.92,14.12,14.12,0,0,0,4.48-4.42,4.36,4.36,0,0,0,.69-1.5l1.39.34c-.18.31-.18.31-.38.69a21.35,21.35,0,0,1-1.68,2.53,13.37,13.37,0,0,0,1.47-.37l6.62-1.91.49-.14a5.51,5.51,0,0,0,.58-.18,17.2,17.2,0,0,1-3.8-1.58l.92-1a5.47,5.47,0,0,0,1.72,1,15.62,15.62,0,0,0,6.54.93,4.3,4.3,0,0,0-.42,1.47,23.34,23.34,0,0,1-4.11-.56c.06.26.09.37.17.72,1,4.5.89,5.22-1.25,5.83-.48.14-1.49.41-2.12.56a4.11,4.11,0,0,0-.73-1.18c1-.18,1.83-.34,2.47-.52s.91-.38.95-.81a14.25,14.25,0,0,0-.6-3.54l-4.41,1.27c.18,3.15-1.71,5.62-6.05,7.86a3.57,3.57,0,0,0-1-1c3.93-1.73,5.83-3.86,5.72-6.45Zm-5.46-6.9a11.76,11.76,0,0,0,1.37-.33l1.69-.48a12.19,12.19,0,0,0,1.32-.45l.3,1.05a9.51,9.51,0,0,0-1.36.29l-1.69.49a9.8,9.8,0,0,0-1.33.47Zm.62,2.16a10.57,10.57,0,0,0,1.37-.32l1.7-.49a13.2,13.2,0,0,0,1.31-.44l.3,1a9.6,9.6,0,0,0-1.36.3l-1.69.49a9.42,9.42,0,0,0-1.33.47Zm7.51-4.5a10.05,10.05,0,0,0,1.37-.32l1.82-.52a12.56,12.56,0,0,0,1.31-.45l.3,1.05a9.11,9.11,0,0,0-1.35.29l-1.83.53a10.14,10.14,0,0,0-1.32.47Zm.62,2.17a12.55,12.55,0,0,0,1.37-.32l1.82-.53a12.36,12.36,0,0,0,1.31-.44l.3,1a8.77,8.77,0,0,0-1.35.3l-1.82.52a8.59,8.59,0,0,0-1.33.48Z"/><path class="cls-4" d="M163.48,3170l-.36-1.27-14.28,4.1.36,1.27-1.44.41a16.47,16.47,0,0,0-.59-2.55l-3.69-12.86a23.07,23.07,0,0,0-.85-2.49,19.83,19.83,0,0,0,2.43-.59l12.31-3.53a20.29,20.29,0,0,0,2.41-.81,21.51,21.51,0,0,0,.62,2.56l3.7,12.89a14.38,14.38,0,0,0,.84,2.45Zm-15,1.65,14.28-4.1-4.07-14.17-14.28,4.1Zm1.18-5.75a8.55,8.55,0,0,0-1.66.6l-.38-1.31a7.73,7.73,0,0,0,1.73-.38l1.56-.45c-.26-1.24-.38-1.74-.78-3.14l-.1-.34-1.35.39a9,9,0,0,0-1.71.6l-.37-1.3a9.9,9.9,0,0,0,1.77-.39l1.35-.39-.34-1.18a13.8,13.8,0,0,0-.58-1.6l1.4-.4a9.24,9.24,0,0,0,.37,1.61l.35,1.22,3.36-1-.34-1.18a8.36,8.36,0,0,0-.57-1.6l1.39-.4a10.45,10.45,0,0,0,.39,1.65l.33,1.18,1.38-.39a9,9,0,0,0,1.7-.61l.38,1.31a9.21,9.21,0,0,0-1.77.39l-1.37.39,1,3.46,1.67-.48a9.42,9.42,0,0,0,1.75-.62l.37,1.31a9.22,9.22,0,0,0-1.81.4l-1.67.48.7,2.44a11.53,11.53,0,0,0,.64,1.82l-1.41.4a11.89,11.89,0,0,0-.42-1.85l-.71-2.47-3.62,1a6.19,6.19,0,0,1-1.61,5.39,4.58,4.58,0,0,0-1.24-.6c1.53-1.69,1.85-2.6,1.67-4.45Zm1.68-4.91c.31,1.07.47,1.81.73,3l3.52-1-1-3.45-3.39,1Z"/><path class="cls-4" d="M168.16,3151.58a16.66,16.66,0,0,1-2.1,4.89,2.67,2.67,0,0,0-1.23-.62,14.68,14.68,0,0,0,2.46-6.32,4.05,4.05,0,0,0,0-1.33l1.55-.1c-.06.29-.07.34-.16.83s-.13.76-.24,1.28l10.12-2.91a17.11,17.11,0,0,0,2.56-.89l.41,1.46a17,17,0,0,0-2.63.61Zm.84,6.09a14.89,14.89,0,0,0-2.08.74l-.4-1.39a16.37,16.37,0,0,0,2-.45l9.84-2.83a19.09,19.09,0,0,0,2.29-.75,15.3,15.3,0,0,0,.41,1.77,19.3,19.3,0,0,0,2.48,5.73c.52.74,1.27,1.41,1.5,1.34s.17-1.75-.23-3.65a3.35,3.35,0,0,0,1.37.49,13.41,13.41,0,0,1,.25,3c0,1-.33,1.53-.87,1.69-.81.23-2.14-.69-3.18-2.2a22.23,22.23,0,0,1-2.72-6.51Zm-.83-4.28a13.34,13.34,0,0,0,1.8-.43l8.34-2.39a14.45,14.45,0,0,0,2-.69l.39,1.37a13.39,13.39,0,0,0-2.05.47l-8.21,2.36a12.65,12.65,0,0,0-1.88.66Zm12.14,10.69a36,36,0,0,0-5.07-2.45,22.41,22.41,0,0,1-5.22,6.07,3.49,3.49,0,0,0-1.31-.85,21,21,0,0,0,5.28-5.69,41,41,0,0,0-4.67-1.4l.66-1.09a40.83,40.83,0,0,1,4.65,1.38,11.78,11.78,0,0,0,1.37-3.85l1.55.36c-.07.16-.07.16-.18.45a4.22,4.22,0,0,0-.33.86,20.48,20.48,0,0,1-1.17,2.63,51.07,51.07,0,0,1,5.08,2.24Z"/><path class="cls-4" d="M190.65,3143.24c1.3-.14,2.07-.06,2.15.22a.51.51,0,0,1-.05.34,12,12,0,0,0-.17,3.2v.49a16.16,16.16,0,0,1,2.12-.86c1.91-.55,3.12.33,3.83,2.82a17.38,17.38,0,0,1,.48,7.33,2.81,2.81,0,0,1-2,2.44,5.18,5.18,0,0,1-2.06.15c-.16,0-.22-.1-.28-.33a4.12,4.12,0,0,0-.62-1.24,4,4,0,0,0,2.32.07c.82-.23,1.21-.9,1.31-2.23a17.06,17.06,0,0,0-.61-6c-.44-1.54-1.15-2.08-2.27-1.76a13.15,13.15,0,0,0-2.21.94,59.64,59.64,0,0,1-.51,6.62,26.42,26.42,0,0,1-1.05,5,.39.39,0,0,1-.2.18,3,3,0,0,1-1.17-.27c-.14-.08-.19-.11-.21-.17a.34.34,0,0,1,0-.24,35.24,35.24,0,0,0,1.74-10.44,17.89,17.89,0,0,0-3.51,2,.46.46,0,0,1-.18.12c-.23.07-.6-.39-1.1-1.4a23.21,23.21,0,0,0,4-1.7l.82-.38A18.57,18.57,0,0,0,190.65,3143.24Zm9.93.58a9.6,9.6,0,0,0-2.4-1.49c-.11-.06-.19-.1-.2-.15s0-.06.24-.44.25-.35.36-.38.5.06,1.18.4a6.41,6.41,0,0,1,1.69,1.14,1.84,1.84,0,0,1-.63,1C200.76,3144,200.68,3143.93,200.58,3143.82Zm3.06,6.21a12.46,12.46,0,0,0-4.7-4.09.23.23,0,0,1-.16-.14,2.1,2.1,0,0,1,.64-1.08,8.77,8.77,0,0,1,2.55,1.42,10,10,0,0,1,2.81,2.84c0,.11,0,.21-.18.44a2.32,2.32,0,0,1-.71.74C203.8,3150.19,203.73,3150.16,203.64,3150ZM200,3139.46a6.81,6.81,0,0,1,2.78,1.54c0,.13,0,.18-.3.57-.18.24-.29.37-.35.38a.11.11,0,0,1-.15,0,8.63,8.63,0,0,0-2.48-1.51.19.19,0,0,1-.13-.11C199.29,3140.13,199.76,3139.51,200,3139.46Z"/><path class="cls-4" d="M136.82,3207a25,25,0,0,0-2.71-1.71,13.81,13.81,0,0,1-2.89,5.24,5.42,5.42,0,0,0-1.22-.86,12.11,12.11,0,0,0,2.91-5,21.07,21.07,0,0,0-4-1.41,32.66,32.66,0,0,0,.28-6.31l-.6.18a13.15,13.15,0,0,0-1.66.59l-.4-1.39a11.69,11.69,0,0,0,1.86-.4l.75-.21a24.6,24.6,0,0,0-.56-4.07,1.93,1.93,0,0,0-.11-.29l1.54-.28c0,.32.06.68.15,1.33s.21,2,.29,2.93l1.78-.51a17.42,17.42,0,0,0,1.84-.62c.06.28.06.28.18,1a21.61,21.61,0,0,1,.17,8.77,23.83,23.83,0,0,1,2.95,1.68Zm-6.3-10.4a42.13,42.13,0,0,1-.18,5.76,25.11,25.11,0,0,1,2.9,1,20.26,20.26,0,0,0-.19-7.54Zm9.4.09a14.82,14.82,0,0,0-.7-2l.71-.2a15.79,15.79,0,0,0,2.21-4.33l-5.81,1.67a17.18,17.18,0,0,0-2,.68l-.42-1.46a13.81,13.81,0,0,0,2.12-.46l5.29-1.52a6.66,6.66,0,0,0,1.56-.57l1,.75a16.4,16.4,0,0,0-.79,1.87,21.41,21.41,0,0,1-2.22,4.05l.56,2,3.41-1a9.1,9.1,0,0,0,1.81-.66l.42,1.48a9.53,9.53,0,0,0-1.88.4l-3.41,1,1.94,6.73c.38,1.35.11,1.75-1.57,2.23-.55.16-1.32.34-2.48.56a5.27,5.27,0,0,0-.7-1.31,22.85,22.85,0,0,0,2.71-.48c.69-.2.8-.3.69-.66l-1.92-6.69-2.74.78a10.7,10.7,0,0,0-1.83.67l-.42-1.46a9.77,9.77,0,0,0,1.88-.42l2.76-.79Z"/><path class="cls-4" d="M163.34,3194.31c.16.07.2.13.23.23a2.82,2.82,0,0,1-.11,1c-.09.42-.21.64-.38.69a.25.25,0,0,1-.17,0,10.72,10.72,0,0,0-5.74.21c-2.53.72-3.74,1.86-3.36,3.17.45,1.56,3,1.89,6.58.87.54-.16,1-.31,2-.66a6,6,0,0,0-.15,1.34c0,.35-.07.39-.84.62-5,1.44-8.23.83-9-1.7-.6-2.08.93-3.8,4.25-4.75a12.6,12.6,0,0,1,5-.43,19,19,0,0,1-4.16-2.92,33.8,33.8,0,0,1-6.48,2.74c-.38.11-.42.08-.92-1.1a30.3,30.3,0,0,0,6.42-2.61,27.61,27.61,0,0,1-1.82-2.15,41.19,41.19,0,0,1-5.08,2.11c-.17,0-.23,0-.37-.24a7.3,7.3,0,0,1-.37-.89,34.37,34.37,0,0,0,5-2c-.16-.21-.32-.44-.76-1.1a5.93,5.93,0,0,0-1.08-1.34,7.81,7.81,0,0,1,1.55-.65c.26-.08.36,0,.42.15s0,.14,0,.2a.76.76,0,0,0,0,.16,9.93,9.93,0,0,0,1.09,1.92,20.68,20.68,0,0,0,2.38-1.48l1.67-1.24s.05,0,.08-.05.12,0,.34.3a4.39,4.39,0,0,1,.48.7s0,.12-.13.2a31.46,31.46,0,0,1-4.08,2.61,22.88,22.88,0,0,0,1.79,2.11,17.35,17.35,0,0,0,3.73-2.93c.09-.1.11-.1.15-.11a3.4,3.4,0,0,1,.85,1s0,.09-.07.15a20.39,20.39,0,0,1-3.67,2.82,20.31,20.31,0,0,0,4.05,2.81Z"/><path class="cls-4" d="M178.18,3179.61a20.31,20.31,0,0,0,2.22-1.08.61.61,0,0,1,.14-.07.34.34,0,0,1,.33.1,6.36,6.36,0,0,1,.65,1.13c0,.19,0,.23-.39.35a8.14,8.14,0,0,0-3.4,2,8.58,8.58,0,0,0-2.28,8.22c.58,2,2.16,3.16,4.65,3.38a8.67,8.67,0,0,0,2.52-.12.22.22,0,0,1,.29.17,4.74,4.74,0,0,1,.11,1.27c0,.17-.07.25-.22.29a13.29,13.29,0,0,1-2.67.07c-3.27-.22-5.32-1.77-6.16-4.7a8.68,8.68,0,0,1,.42-5.81,10.55,10.55,0,0,1,1.91-2.89c-7.38,3.55-8.51,4.13-9.39,4.89a.8.8,0,0,1-.33.22c-.19.05-.27,0-.5-.21a5.17,5.17,0,0,1-1-1.37,40.58,40.58,0,0,0,5-2.1Zm1.09,4.28a1.22,1.22,0,0,0,.13-.18c.24-.3.33-.39.44-.4a4,4,0,0,1,1.46.69,6.33,6.33,0,0,1,1.31,1c0,.09,0,.17-.14.34a2.06,2.06,0,0,1-.53.66c-.08,0-.14,0-.26-.11a8.32,8.32,0,0,0-2.31-1.66.28.28,0,0,1-.18-.15S179.2,3184,179.27,3183.89Zm4.72-.61c0,.13,0,.19-.37.59-.18.24-.23.3-.32.32s-.11,0-.22-.1a7.49,7.49,0,0,0-2.33-1.65c-.08,0-.11-.06-.12-.1s.48-.77.65-.82A6.69,6.69,0,0,1,184,3183.28Z"/><path class="cls-4" d="M194.12,3178.14a45.43,45.43,0,0,0-7.93,3.2.92.92,0,0,1-.26.15c-.19.05-.48-.4-.93-1.47l.32-.1c.56-.16,1.15-.37,2.3-.82,1.35-.53,4.36-1.6,6.12-2.2a12.28,12.28,0,0,0-1.15-3.29c1.54-.37,1.94-.42,2-.18a.62.62,0,0,1,0,.31c-.07.39-.07.39.51,2.73.53-.17,5.08-1.55,6.17-1.86.43-.12.54-.16.59-.12s.14.16.22.44c.22.77.23.89.1.93h-.06c-.33.05-2.15.5-3.29.83-1.39.4-2.8.83-3.4,1,.06.19.4,1.45,1.09,4a7.35,7.35,0,0,1,1.17,2.38,6.58,6.58,0,0,1-.63,5.47,8.28,8.28,0,0,1-2.45,2.7c-.15.05-.2,0-.59-.18a3.4,3.4,0,0,0-1.05-.35,10.64,10.64,0,0,0,2.16-1.94,7.36,7.36,0,0,0,1.15-2.07,6.82,6.82,0,0,0,.32-2,2.18,2.18,0,0,1-1.6,1.55c-1.73.5-3.21-.44-3.78-2.42s.21-3.65,2-4.16a2,2,0,0,1,1.67.07l-.32-1.11-.22-.75Zm-1.64,6.25c.36,1.27,1.22,1.83,2.31,1.52s1.35-1.13,1-2.42-1.19-2-2.18-1.69S192.11,3183.13,192.48,3184.39Z"/><path class="cls-4" d="M213,3181.81l-1.2.35-4-12.64,2-.56Zm1.58,3.07a1.29,1.29,0,1,1-2.47.71,1.29,1.29,0,0,1,2.47-.71Z"/><path class="cls-3" d="M297.21,1389.24s-8,1.6-6.92-10.1,15.1-24.56,25.79-38.82c9.58-12.77,39.09-91.48-71.52-70.2C151,1288.2,101,1296.71,108.41,1332.87s8,86.15,154.23,47.33c13.82-6.91,18.61,4.79,27.12,10.64"/><path class="cls-4" d="M157.38,1320.54a19.11,19.11,0,0,0-2.07.44l-.23-1.31a16.05,16.05,0,0,0,2.18-.24l11-1.87a13.17,13.17,0,0,0,2.09-.5l.23,1.32a18,18,0,0,0-2.06.26l-5.15.88.22,1.3,6.25-1.06a14.93,14.93,0,0,0,2.27-.51,15.06,15.06,0,0,0,.21,1.62l.21,1.25a9,9,0,0,0,.38,1.57l-1.34.23-.57-3.3-7.23,1.23.43,2.53a11.8,11.8,0,0,0,.47,2l-1.52.26a12.6,12.6,0,0,0-.22-2.09l-.44-2.53-6.83,1.17.56,3.3-1.36.23a8.59,8.59,0,0,0-.14-1.6l-.22-1.26a10.64,10.64,0,0,0-.36-1.58,15.45,15.45,0,0,0,2.33-.29l5.85-1-.22-1.3Zm-.44,3.52a12.07,12.07,0,0,0,1.29-.16l2-.33a10.8,10.8,0,0,0,1.24-.28l.17,1a9,9,0,0,0-1.26.15l-2,.33a9.17,9.17,0,0,0-1.26.28Zm2.51,10.43.2,1.19-1.42.24a12.56,12.56,0,0,0-.18-1.82l-.67-3.9a19.14,19.14,0,0,0-.41-1.87,13.23,13.23,0,0,0,1.84-.23l10.62-1.81a13.83,13.83,0,0,0,1.9-.42c0,.52.12,1.09.26,1.91l.53,3.07a9.42,9.42,0,0,0,.32,1.51,17.37,17.37,0,0,0-1.95.24l-4.84.83.25,1.45c.09.51.52.5,3.49,0,2.5-.42,3.6-.73,3.91-1.07s.23-.9,0-2.58a5.49,5.49,0,0,0,1.39.35c.25,1.7.17,2.58-.3,3s-1.7.88-5,1.44c-3.89.67-4.47.59-4.68-.64l-.3-1.76Zm-2.16-8.41a10.65,10.65,0,0,0,1.29-.15l1.95-.34a10,10,0,0,0,1.25-.28l.17,1a9.42,9.42,0,0,0-1.27.15l-2,.33a9.58,9.58,0,0,0-1.27.29Zm1.26,3.13.26,1.52,4.92-.84-.25-1.52Zm.43,2.53.29,1.69,4.93-.84-.29-1.69Zm11.44-3-.26-1.51-5.41.92.26,1.52Zm-5.26-6.11a10.44,10.44,0,0,0,1.29-.15l2.31-.4a11.65,11.65,0,0,0,1.22-.27l.17,1a10,10,0,0,0-1.24.15l-2.31.39a10.53,10.53,0,0,0-1.26.29Zm5.72,8.82-.29-1.7-5.41.93.29,1.69Zm-5.36-6.75a10.71,10.71,0,0,0,1.28-.16l2.31-.39a9.78,9.78,0,0,0,1.22-.28l.18,1a9.18,9.18,0,0,0-1.25.15l-2.31.39a10,10,0,0,0-1.26.28Z"/><path class="cls-4" d="M184.19,1316.23a10.76,10.76,0,0,0-.5-2l1.61-.27a10.75,10.75,0,0,0,.19,2l0,.26,6.36-1.08a10.11,10.11,0,0,0,2.13-.53l.25,1.48a14.47,14.47,0,0,0-2.18.23l-6.35,1.09.31,1.82,4.31-.73a16.06,16.06,0,0,0,2.38-.52,16.47,16.47,0,0,0,.29,2.23l.56,3.3a18.88,18.88,0,0,0,.47,2.21,15.35,15.35,0,0,0-2.44.3l-4.29.73.32,1.87,6.58-1.12a9.83,9.83,0,0,0,2.15-.53l.25,1.5a14.61,14.61,0,0,0-2.2.24l-6.57,1.12.17,1a11.36,11.36,0,0,0,.55,2.31l-1.6.27a12.06,12.06,0,0,0-.25-2.36l-.17-1-6.24,1.07a13.7,13.7,0,0,0-2.14.5l-.25-1.49a10.81,10.81,0,0,0,2.18-.22l6.25-1.06L186,1327l-3.92.67a15.86,15.86,0,0,0-2.44.53,21.57,21.57,0,0,0-.29-2.23l-.56-3.25a17.74,17.74,0,0,0-.48-2.25,15.83,15.83,0,0,0,2.38-.3l4-.68-.31-1.83-6.09,1a14.7,14.7,0,0,0-2.11.5l-.26-1.47a11.88,11.88,0,0,0,2.19-.22l6.07-1ZM180,1321.5l.35,2,5-.84-.35-2Zm.54,3.16.35,2.07,5-.85-.35-2.07Zm11.37-3.09-.35-2-5.3.9.35,2Zm.55,3.19-.36-2.07-5.3.9.36,2.07Z"/><path class="cls-4" d="M211,1312a18.37,18.37,0,0,0,2.32-.83l.16,0a.31.31,0,0,1,.31.13,5.74,5.74,0,0,1,.52,1.2c0,.2,0,.23-.42.3a8.18,8.18,0,0,0-3.6,1.59,8.57,8.57,0,0,0-3.17,7.92c.36,2.09,1.8,3.38,4.26,3.87a8.25,8.25,0,0,0,2.51.15c.16,0,.24,0,.27.21a4.2,4.2,0,0,1,0,1.27c0,.17-.09.24-.24.27a13.43,13.43,0,0,1-2.67-.22c-3.22-.58-5.08-2.35-5.6-5.36a8.67,8.67,0,0,1,1.06-5.73,10.94,10.94,0,0,1,2.21-2.66c-7.72,2.72-8.91,3.18-9.86,3.84a1,1,0,0,1-.36.17c-.2,0-.27,0-.47-.26a5.34,5.34,0,0,1-.82-1.47,41.29,41.29,0,0,0,5.17-1.54Zm.61,4.38a.9.9,0,0,0,.16-.17c.27-.27.36-.35.48-.35a4.2,4.2,0,0,1,1.37.85,6.51,6.51,0,0,1,1.19,1.16c0,.08,0,.16-.17.32a2.11,2.11,0,0,1-.6.6c-.09,0-.14,0-.25-.14a8.28,8.28,0,0,0-2.11-1.9c-.1,0-.16-.11-.17-.18S211.53,1316.47,211.6,1316.39Zm4.76-.09c0,.13,0,.18-.42.55-.22.21-.28.27-.36.28s-.12,0-.21-.12a7.38,7.38,0,0,0-2.13-1.9c-.08,0-.1-.07-.11-.12s.56-.7.73-.73A6.53,6.53,0,0,1,216.36,1316.3Z"/><path class="cls-4" d="M225.61,1308.47l2.79,16.27-1.69.29-2.79-16.27Z"/><path class="cls-4" d="M236.32,1308.61a16.94,16.94,0,0,0-.43-2,17.16,17.16,0,0,0,1.94-.27l1.57-.26c1-.18,1.42-.27,1.9-.39a14.57,14.57,0,0,0,.28,2.07l2,11.59c.17,1,.3,1.58.42,2l-1.32.23-.18-1.06-2.77.48.29,1.71-1.36.24a16.71,16.71,0,0,0-.25-2.25Zm2,4.27,2.75-.47-.9-5.28-2.75.47Zm1.18,6.93,2.75-.47-1-5.79-2.75.47Zm5.49-12.14a17.69,17.69,0,0,0-2,.45l-.24-1.4a13,13,0,0,0,2-.21l2.26-.39-.11-.68a11,11,0,0,0-.42-1.67l1.54-.27a10.27,10.27,0,0,0,.17,1.71l.12.69,3-.52a11.61,11.61,0,0,0,2-.47l.24,1.41a15.38,15.38,0,0,0-2,.23l-3,.51.47,2.75,3.74-.64a13.81,13.81,0,0,0,2.11-.5l.24,1.43a12.75,12.75,0,0,0-2.09.23l-.68.11.42,2.46.66-.11a12.85,12.85,0,0,0,2.05-.48l.24,1.45a13.65,13.65,0,0,0-2.09.22l-.65.11,1,5.94c.22,1.3-.2,1.73-2.09,2-.33.06-.78.11-2,.27a4.17,4.17,0,0,0-.55-1.35,14.48,14.48,0,0,0,2.42-.17c.81-.13,1-.25.87-.69l-1-5.83-6,1a15,15,0,0,0-2.09.5l-.25-1.46a12.8,12.8,0,0,0,2.14-.22l6-1-.42-2.47-6,1a14.84,14.84,0,0,0-2.08.5l-.25-1.43a14.58,14.58,0,0,0,2.16-.24l2.81-.48-.47-2.75Zm3.8,12.41a18.86,18.86,0,0,0-3.53-3l.9-.93a23.39,23.39,0,0,1,3.63,2.94Z"/><path class="cls-4" d="M261.93,1318.08a12.61,12.61,0,0,0,.54,2.35l-1.56.27a15.24,15.24,0,0,0-.28-2.4l-2.33-13.63a22.35,22.35,0,0,0-.48-2.32,17.16,17.16,0,0,0,2.21-.28l3-.52a17.7,17.7,0,0,0,2.14-.46c.07.62.15,1.24.28,2l.45,2.61c.14.84.26,1.38.4,2-.69.07-1.31.15-2.16.3l-3.85.66Zm-2.25-13.15,4.73-.81-.29-1.69-4.73.81Zm.46,2.71,4.73-.81-.29-1.69-4.73.8Zm12.45,6.11c.15.85.27,1.4.4,1.92-.55,0-1.33.16-2.19.31l-4.59.78.25,1.48-1.32.22a14.38,14.38,0,0,0-.23-2l-.8-4.7c-.12-.73-.26-1.41-.4-2a17,17,0,0,0,2.1-.27l3.85-.66a18.49,18.49,0,0,0,2.09-.45c.05.58.13,1.14.27,2Zm-7.09-1.14,5.5-.94-.33-1.89-5.5.94Zm.53,3.1,5.5-.94-.35-2-5.5.94Zm11.66,0c.23,1.38-.15,1.81-1.88,2.11-.49.08-1.53.21-2.1.29a6.3,6.3,0,0,0-.63-1.3c1,0,1.92-.12,2.34-.19.88-.15,1-.27,1-.78l-1.66-9.67-4.33.74c-.9.15-1.43.26-2.12.43-.06-.6-.14-1.2-.27-2l-.45-2.62c-.13-.74-.25-1.33-.41-2a18.77,18.77,0,0,0,2.17-.28l3.48-.59a19.08,19.08,0,0,0,2.2-.47c.07.8.15,1.42.31,2.34Zm-8.79-12.37,5.19-.89-.29-1.69-5.19.88Zm.46,2.7,5.19-.88-.29-1.7-5.19.89Z"/><path class="cls-4" d="M285.22,1310.39a.6.6,0,0,1,.19.33,4.1,4.1,0,0,1-.14,1,18.87,18.87,0,0,0-.29,3.63c0,.31,0,.39-.19.46a5.23,5.23,0,0,1-.89.22c-.24,0-.27,0-.63-.78a21.37,21.37,0,0,1-1.63-5.42,39.08,39.08,0,0,1-.46-7.87,21.76,21.76,0,0,0-.06-2.86c1.2,0,1.91.19,2,.46,0,.09,0,.11-.1.38-.53,1.49-.53,6.67,0,9.91a24.12,24.12,0,0,0,.91,3.58c.17-.85.26-1.38.42-2.07.21-1.14.21-1.14.34-1.82A2.08,2.08,0,0,0,285.22,1310.39Zm3.86-6.77-.35.06-1.17.18c-.22,0-.29,0-.34-.13a5.48,5.48,0,0,1-.28-1s0-.13,0-.22c.85-.08,1.25-.12,2-.24a29.57,29.57,0,0,0,3.07-.69c-.12-.75-.2-1.19-.28-1.65s-.09-.57-.14-.81a12.6,12.6,0,0,0-.43-1.87,6.88,6.88,0,0,1,1.67,0,.29.29,0,0,1,.31.22.51.51,0,0,1,0,.3,9.23,9.23,0,0,0,.25,3.46,28.57,28.57,0,0,0,3-1.14.35.35,0,0,1,.15,0,.14.14,0,0,1,.17.11,6.19,6.19,0,0,1,.29,1c0,.18,0,.23-.17.3a30.75,30.75,0,0,1-3.2,1.14c.28,1.65.71,3.79,1.31,6.34a16.57,16.57,0,0,1,4.21,1.5c.23.12.33.21.36.34a1.38,1.38,0,0,1-.23.68c-.3.59-.3.59-.41.61s-.09,0-.8-.41a13.94,13.94,0,0,0-2.83-1.23c.05.19.08.34.1.46.34,2-.83,3.35-3.16,3.75s-3.73-.47-4-2.14,1-3.14,3.27-3.53a7.46,7.46,0,0,1,2-.14c-.68-3.21-.77-3.72-1.18-5.86C291,1303.23,289.83,1303.49,289.08,1303.62Zm2.51,6.61c-1.58.27-2.41,1-2.24,1.94s1.08,1.33,2.47,1.1c1.54-.27,2.13-1,1.89-2.45-.08-.44-.1-.6-.13-.59A4.94,4.94,0,0,0,291.59,1310.23Z"/><path class="cls-4" d="M179,1362.73a.37.37,0,0,1,.07.12c0,.16-.8.77-1.13.83-.13,0-.21-.08-.67-.9a6.39,6.39,0,0,1-3.61,2.29c-1.43.24-2.46-.6-2.73-2.21a6.76,6.76,0,0,1,1.75-5.5,10.36,10.36,0,0,1,2.28-2.13c-.15-.88-.34-2.14-.49-3.27-1.18.27-2.55.55-3.61.73-.22,0-.29,0-.36-.1a4.84,4.84,0,0,1-.24-.93,2.43,2.43,0,0,1,0-.26c.89-.09,1.29-.13,1.93-.24s1.2-.23,2.19-.44c-.16-1.47-.26-2.31-.3-2.51a4.12,4.12,0,0,0-.12-.59,11.55,11.55,0,0,1,1.71-.09.22.22,0,0,1,.23.19.77.77,0,0,1-.06.32,6.32,6.32,0,0,0,0,2.32,35.63,35.63,0,0,0,5.76-2,2.47,2.47,0,0,1,.51-.22c.07,0,.12,0,.14.15a10.25,10.25,0,0,1,.28,1.09c0,.13,0,.16-1,.53a54.58,54.58,0,0,1-5.59,1.72c.11,1,.26,2.17.37,2.81a11.29,11.29,0,0,1,3.4-1.19,7.35,7.35,0,0,0-.06-1.64c1.3.07,1.75.15,1.78.35s0,.11-.11.4a6,6,0,0,0-.15.73,6.29,6.29,0,0,1,3,.57,5.18,5.18,0,0,1,2.86,3.9c.42,2.46-.82,4.69-3.6,6.45a6.77,6.77,0,0,1-1.56.79.48.48,0,0,1-.46-.15,2.69,2.69,0,0,0-1.12-.71,10.7,10.7,0,0,0,3.28-1.85,4.65,4.65,0,0,0,1.94-4.43,4.13,4.13,0,0,0-4.53-3.46,18.2,18.2,0,0,1-2.67,7.27A7.15,7.15,0,0,0,179,1362.73Zm-3.79-6.17c-2,1.71-3.22,4.06-2.92,5.84.15.86.71,1.33,1.41,1.21a5.71,5.71,0,0,0,2.94-2.24A27.17,27.17,0,0,1,175.24,1356.56Zm2.39,3.4a15.31,15.31,0,0,0,1.93-5.56,10.8,10.8,0,0,0-3.09,1.27A27.05,27.05,0,0,0,177.63,1360Z"/><path class="cls-4" d="M193.34,1352.27a19,19,0,0,1,5.81-2.13,5.1,5.1,0,0,1,3.46.5,4,4,0,0,1,1.8,2.73,5.16,5.16,0,0,1-1.57,4.7,12.2,12.2,0,0,1-3.83,2.37,9.25,9.25,0,0,1-1.5.49c-.2,0-.2,0-.44-.36a2.93,2.93,0,0,0-.74-.75,14.08,14.08,0,0,0,4.59-2.12,4.12,4.12,0,0,0,2-4c-.3-1.71-1.71-2.58-3.69-2.24a17.59,17.59,0,0,0-5.91,2.52,6.52,6.52,0,0,0-1.42,1.08.66.66,0,0,1-.26.18c-.29,0-.85-.58-1.38-1.57A27.48,27.48,0,0,0,193.34,1352.27Z"/><path class="cls-4" d="M212.49,1341.3c.23,0,.35.08.37.21a2.36,2.36,0,0,1,0,.27,7.53,7.53,0,0,0,.13,1.54,25.2,25.2,0,0,0,.87,3.23c.37,1,.7,1.32,1.25,1.23s1.08-.43,2.77-1.67a7.12,7.12,0,0,0,1-.85c.06,0,.08-.06.14-.07.24,0,1.22,1,1.28,1.39,0,.13-.07.24-.32.35a24.8,24.8,0,0,0-3.19,1.75c-3.6,2.24-5.27,4.4-4.94,6.34.28,1.63,1.76,2.1,4.91,1.56a31.84,31.84,0,0,0,5.05-1.3l.17,0a.28.28,0,0,1,.3.13,4.52,4.52,0,0,1,.32,1.13c.05.24,0,.34-.26.42-.84.26-3.28.82-4.78,1.07a13.54,13.54,0,0,1-4.05.22,3.29,3.29,0,0,1-3.14-2.86,4.92,4.92,0,0,1,.86-3.59,10.79,10.79,0,0,1,2.81-2.9c-1.06-.23-1.52-1.19-2.61-5.42a11.21,11.21,0,0,0-.63-2A9.26,9.26,0,0,1,212.49,1341.3Z"/><path class="cls-4" d="M227.19,1341.39s0,0,0,.21a12.94,12.94,0,0,0,.32,3.59c.9,5.26,2.45,8.52,4,8.26.94-.16,1.69-1.71,2-4.14a3.55,3.55,0,0,0,.93,1.22c.13.11.16.15.17.24a3.35,3.35,0,0,1-.19,1.12c-.52,1.85-1.48,3-2.67,3.19-1.45.25-2.75-.77-3.83-3a29.12,29.12,0,0,1-2-7.19c-.08-.46-.19-1.08-.29-1.83,0-.24-.08-.44-.1-.55a8.26,8.26,0,0,0-.37-1.52C226.67,1341,227.14,1341.11,227.19,1341.39Zm10.75-.12c.4-.06,1.8,1.12,2.84,2.44a14.13,14.13,0,0,1,2.07,3.49,6,6,0,0,1,.4,1c0,.13,0,.23-.23.38a6,6,0,0,1-1.12.58c-.09,0-.14,0-.18-.15-1.2-3.44-2.43-5.2-4.82-7A3.7,3.7,0,0,1,237.94,1341.27Z"/><path class="cls-4" d="M249.27,1340.52a13.63,13.63,0,0,1,3.6-1.3c2.7-.46,4.62,1,5.12,3.86.55,3.21-.53,5.77-3.39,8.13a9.5,9.5,0,0,1-2.22,1.4c-.22,0-.25,0-.62-.28a2.81,2.81,0,0,0-1-.55c4.35-2.26,6.21-5,5.64-8.32-.37-2.2-1.59-3.22-3.5-2.89a12.54,12.54,0,0,0-5.22,2.84.72.72,0,0,1-.31.19c-.28.05-.78-.5-1.45-1.63A21.71,21.71,0,0,0,249.27,1340.52Zm-.13-5.75a20.2,20.2,0,0,0,5.42.07c.18,0,.21,0,.28.42a5.71,5.71,0,0,1,.07,1.06.29.29,0,0,1-.22.15,23.73,23.73,0,0,1-5.84-.23c-.72-.12-.79-.16-.82-.29a3.83,3.83,0,0,1,.13-.86c.08-.31.11-.38.25-.4A2,2,0,0,1,249.14,1334.77Z"/><path class="cls-4" d="M266.2,1348.21a12.18,12.18,0,0,0,.53,2.36l-1.55.26a15.14,15.14,0,0,0-.28-2.39l-2.33-13.64c-.17-1-.31-1.67-.48-2.31a19.78,19.78,0,0,0,2.21-.29l3-.52a18.16,18.16,0,0,0,2.14-.46c.06.63.15,1.25.28,2l.45,2.61c.14.84.26,1.39.4,2-.69.07-1.31.16-2.17.3l-3.85.66ZM264,1335.06l4.73-.8-.29-1.7-4.73.81Zm.46,2.71,4.73-.81-.29-1.69-4.73.81Zm12.45,6.11c.15.86.26,1.4.4,1.92-.56,0-1.33.16-2.19.31l-4.59.78.25,1.48-1.32.22a14.38,14.38,0,0,0-.23-2l-.8-4.7c-.13-.73-.27-1.4-.41-2a16.86,16.86,0,0,0,2.11-.27l3.84-.66a19.06,19.06,0,0,0,2.1-.44c.05.58.13,1.13.27,2Zm-7.1-1.14,5.5-.94-.32-1.89-5.5.94Zm.53,3.1,5.5-.94-.35-2.05-5.5.94Zm11.66,0c.24,1.38-.14,1.81-1.87,2.11-.49.08-1.53.21-2.11.29a5.62,5.62,0,0,0-.63-1.3c1,0,1.93-.12,2.35-.19.88-.15,1-.27.95-.78l-1.65-9.67-4.33.74c-.9.15-1.43.26-2.13.43,0-.6-.13-1.2-.26-2l-.45-2.62c-.13-.74-.25-1.33-.41-2a15.13,15.13,0,0,0,2.17-.28l3.47-.59a18.88,18.88,0,0,0,2.21-.47c.07.8.15,1.42.31,2.35Zm-8.79-12.37,5.19-.89-.29-1.69-5.19.89Zm.47,2.7,5.19-.88-.29-1.7-5.19.89Z"/><path class="cls-4" d="M292.08,1343.11a3.35,3.35,0,1,1-3.87-2.73A3.34,3.34,0,0,1,292.08,1343.11Zm-5.35.91a2.09,2.09,0,0,0,2.4,1.7,2.07,2.07,0,1,0-2.4-1.7Z"/><g class="cls-5"><path d="M497,4140.83c.86-1.13,1.37-1.9,2-2.58,1.78-1.95,3.94-2.79,6.5-1.78a6.22,6.22,0,0,1,4.21,5.41c.24,2.88.2,5.71-1.37,8.4a27.59,27.59,0,0,1-10.18,10.55c-1.89,1.07-3.83,1-5.21-.77-4.18-5.47-8.49-10.86-10.56-17.64-1.36-4.49.37-8.16,2.68-11.66,1.25-1.9,4.38-1.85,6.28.36s3.29,5.05,4.87,7.62A16,16,0,0,1,497,4140.83Zm-1.55,12.39a32.74,32.74,0,0,1-1.13-4.19c-.3-3-.45-6.06-.69-9.09-.31-3.73-2.42-6-5.65-7.38-2.66,3.45-4.13,7.36-3.13,10a36.24,36.24,0,0,0,9.92,14.79c4.26-1.91,9.44-6.55,11.1-10.05a13.14,13.14,0,0,0,1.22-4.59c.19-2.66-1.78-4-4.07-2.57a10.52,10.52,0,0,0-3.35,3.85C498.26,4146.63,497.18,4149.41,495.46,4153.22Z"/><path d="M521.74,4097c.81-1,1.56-1.79,2.18-2.67,1.74-2.48,3.87-3.31,6.38-2.08a9.37,9.37,0,0,1,5.73,8.13c.92,8.48-4.24,13.73-9,19.3a23.34,23.34,0,0,1-2.52,2.23c-4,3.52-6.31,3.43-9.65-.67a14.73,14.73,0,0,1-2.78-5c-1.17-4.15-2-8.4-2.9-12.62a10.13,10.13,0,0,1-.13-2.4c.12-3.3.53-6.7,3.87-8.23,3-1.36,5,1.14,7.19,2.77Zm.45,9.85a31.94,31.94,0,0,0-1.64-4.57,15.18,15.18,0,0,0-3.24-4.58c-2.36-1.89-5-.9-5.36,2.06a26.93,26.93,0,0,0,3.84,18c1.66,2.58,3.86,3,6.07.75,3.81-3.84,8.19-7.68,10.37-12.42,2.47-5.36,3-8-3.25-10.8C523.3,4096.81,524.84,4102.65,522.19,4106.89Z"/><path class="cls-6" d="M495.46,4153.22c1.72-3.81,2.8-6.59,4.22-9.19a10.52,10.52,0,0,1,3.35-3.85c2.29-1.4,4.26-.09,4.07,2.57a13.14,13.14,0,0,1-1.22,4.59c-1.66,3.5-6.84,8.14-11.1,10.05a36.24,36.24,0,0,1-9.92-14.79c-1-2.68.47-6.59,3.13-10,3.23,1.41,5.34,3.65,5.65,7.38.24,3,.39,6.07.69,9.09A32.74,32.74,0,0,0,495.46,4153.22Z"/><path class="cls-6" d="M522.19,4106.89c2.65-4.24,1.11-10.08,6.79-11.53,6.21,2.78,5.72,5.44,3.25,10.8-2.18,4.74-6.56,8.58-10.37,12.42-2.21,2.23-4.41,1.83-6.07-.75a26.93,26.93,0,0,1-3.84-18c.34-3,3-4,5.36-2.06a15.18,15.18,0,0,1,3.24,4.58A31.94,31.94,0,0,1,522.19,4106.89Z"/></g><path class="cls-3" d="M194.38,5145.88s-9.57-20.85-27-16.9c-24.57,5.54-132.38,63.65-159.42-1.69-19.15-37.18,25.91-63.1,89-73.24s120.55-15.77,119.42,32.68c4.51,27-25.63,27.6-24.5,38.87s9.86,12.95,9.86,12.95"/><path class="cls-4" d="M57.34,5092.23a14.23,14.23,0,0,0,.23-5.62l1.19.09a18.59,18.59,0,0,1-.2,5.89Zm4.63,9.06a17.72,17.72,0,0,0-.25-2.44l-2.45-14.5a13,13,0,0,0-.52-2.11l1.63-.27a15.62,15.62,0,0,0,.23,2.15l2.45,14.5a15.88,15.88,0,0,0,.56,2.39Zm1.22-10.88a17.72,17.72,0,0,0-1.74-4.1l.89-.53a25.52,25.52,0,0,1,1.92,4Zm4.59-7.75a8.82,8.82,0,0,0-.39-1.67l1.58-.27a10.39,10.39,0,0,0,.18,1.73l.35,2.07,3.63-.61a14.33,14.33,0,0,0,2.2-.51l.25,1.52a19.82,19.82,0,0,0-2.24.27l-7,1.18,1.76,10.45c.11.61.34.78,1.07.79a23.2,23.2,0,0,0,3-.38,27,27,0,0,0,4.64-1.1l.44,1.42c-1.41.37-2.92.7-5.05,1.06a13,13,0,0,1-4,.31c-.93-.14-1.28-.53-1.46-1.58L65,5086.6a10.6,10.6,0,0,0-1.58.38l-.26-1.52a13.35,13.35,0,0,0,2.24-.24l2.78-.47Z"/><path class="cls-4" d="M82.29,5079.2c.34,0,.44.06.48.28a2.06,2.06,0,0,1,0,.34,9.59,9.59,0,0,0,.07,2.45c.24,2.11,1.07,8.21,1.32,9.69.41,2.44,1.31,3.22,3.38,2.87a8.09,8.09,0,0,0,4.09-2,11.8,11.8,0,0,0,2.92-4.16,4.09,4.09,0,0,0,.69,1.27c.09.12.12.16.13.25.08.46-1.12,2.22-2.32,3.42a9.77,9.77,0,0,1-5.33,2.82c-2.89.49-4.49-.82-5-4.1-.09-.55-1.4-9.36-1.58-10.68,0-.16-.07-.44-.11-.64a11,11,0,0,0-.4-1.7A10.1,10.1,0,0,1,82.29,5079.2Z"/><path class="cls-4" d="M99.29,5079s0,0,0,.21a12.8,12.8,0,0,0,.31,3.59c.89,5.25,2.44,8.52,3.93,8.27,1-.16,1.71-1.71,2-4.15a3.72,3.72,0,0,0,.93,1.23c.13.11.16.15.18.24a3.84,3.84,0,0,1-.2,1.12c-.52,1.85-1.48,3-2.67,3.19-1.45.24-2.76-.78-3.83-3a29.14,29.14,0,0,1-2-7.2c-.07-.46-.18-1.08-.28-1.83,0-.24-.08-.44-.1-.55a7.52,7.52,0,0,0-.37-1.52C98.78,5078.63,99.25,5078.73,99.29,5079Zm10.76-.1c.39-.07,1.79,1.12,2.83,2.44a14.69,14.69,0,0,1,2.06,3.5,5.69,5.69,0,0,1,.4,1c0,.13,0,.23-.23.38a5.64,5.64,0,0,1-1.12.57c-.09,0-.14,0-.19-.15-1.19-3.44-2.41-5.2-4.8-7A3.56,3.56,0,0,1,110.05,5078.92Z"/><path class="cls-4" d="M119.69,5073.6c.29.07.36.1.38.23s0,.09-.1.61a27.51,27.51,0,0,0,.27,8,36.08,36.08,0,0,0,1.05,4.6c.42-1.66.42-1.66.89-3.32a1.61,1.61,0,0,0,.54.79.58.58,0,0,1,.13.23,1.21,1.21,0,0,1-.07.44,15.22,15.22,0,0,0-.59,3.83c0,.16,0,.23-.07.26a5.52,5.52,0,0,1-1,.26.26.26,0,0,1-.32-.17,27.91,27.91,0,0,1-1.9-6.45,45.35,45.35,0,0,1-.6-7,17.26,17.26,0,0,0-.15-2.53A6.22,6.22,0,0,1,119.69,5073.6Zm8.47-2.08.29-.05c.4-.07,1.49-.16,1.62-.16s.22.07.24.18a1,1,0,0,1,0,.35,5.06,5.06,0,0,0,.09,1.36c0,.31.07.38.46,2.19a21.46,21.46,0,0,0,2.74-1.07.4.4,0,0,1,.15,0c.11,0,.16,0,.2.12a6,6,0,0,1,.29,1c0,.13,0,.16-.14.23-1,.39-2.28.86-3,1.06.09.37.15.72.24,1.3a20.75,20.75,0,0,1,.43,5.49,9,9,0,0,1-2.55,5.88,1,1,0,0,1-.39.25c-.16,0-.18,0-.53-.16a4.66,4.66,0,0,0-1.11-.31,7.77,7.77,0,0,0,2.76-4,13.64,13.64,0,0,0,.06-6.37c-.08-.48-.2-1.07-.33-1.71-1.2.32-2.42.59-3.65.8s-1.37.21-1.44,0a4.07,4.07,0,0,1-.36-1.19c1-.09,1.53-.17,2.28-.29,1-.17,1.82-.35,2.9-.63C128.73,5072.85,128.58,5072.35,128.16,5071.52Z"/><path class="cls-4" d="M141.32,5069.45c.23,0,.35.08.38.21a2.36,2.36,0,0,1,0,.27,6.74,6.74,0,0,0,.12,1.54,23.63,23.63,0,0,0,.86,3.23c.38,1,.7,1.33,1.25,1.24s1.08-.44,2.78-1.67a6.42,6.42,0,0,0,1-.84.3.3,0,0,1,.15-.07c.24,0,1.21,1,1.27,1.39,0,.13-.07.24-.32.35a27.77,27.77,0,0,0-3.19,1.73c-3.61,2.24-5.28,4.4-5,6.34.27,1.62,1.76,2.1,4.9,1.57a33.3,33.3,0,0,0,5.06-1.29l.17-.05a.27.27,0,0,1,.29.13,4.91,4.91,0,0,1,.33,1.13c0,.24,0,.34-.27.42-.84.26-3.28.81-4.78,1.06a13.15,13.15,0,0,1-4.05.21,3.28,3.28,0,0,1-3.13-2.86,4.87,4.87,0,0,1,.86-3.59,10.79,10.79,0,0,1,2.81-2.89c-1-.23-1.51-1.2-2.59-5.43a11.33,11.33,0,0,0-.62-2A9.09,9.09,0,0,1,141.32,5069.45Zm6.42.75a.59.59,0,0,0,.15-.16c.28-.25.35-.33.46-.35s.54.21,1.18.68a6.08,6.08,0,0,1,1.43,1.35c0,.11-.06.21-.31.48s-.42.43-.49.44-.11,0-.22-.14a8.3,8.3,0,0,0-2.14-1.92c-.1-.05-.15-.11-.16-.16S147.67,5070.31,147.74,5070.2Zm2.29-2.1a5,5,0,0,1,1.74,1.2c.61.53.72.66.75.82s0,.21-.42.57c-.24.22-.3.25-.37.26s-.14,0-.2-.12a7.74,7.74,0,0,0-2.15-1.9c-.07,0-.1-.05-.11-.09S149.83,5068.11,150,5068.1Z"/><path class="cls-4" d="M157,5080.25c.2-.3.24-.34.35-.35a10.33,10.33,0,0,1,2.86,1.41,12.1,12.1,0,0,1,2.48,2.21c0,.11,0,.21-.4.7s-.43.55-.54.57-.14,0-.25-.14a11.86,11.86,0,0,0-4.75-3.45.27.27,0,0,1-.19-.2C156.52,5080.91,156.53,5080.87,157,5080.25Z"/><path class="cls-4" d="M41.21,5119.36a17.68,17.68,0,0,1-2.91,4.76,4.49,4.49,0,0,0-1.13-.94,13.46,13.46,0,0,0,3.39-6,7.15,7.15,0,0,0,.31-1.59l1.56.12c-.23.65-.23.65-.56,1.77,0,.1-.09.24-.17.48l10.52-1.78a15.65,15.65,0,0,0,2.63-.6l.26,1.52a22.33,22.33,0,0,0-2.68.31Zm1,13.15c-.07.51-.09.67-.21,1.41l-1.48.1a32.55,32.55,0,0,0,.67-6.5l-1.19.2a13,13,0,0,0-2,.45l-.25-1.45a9.26,9.26,0,0,0,2.11-.22l1.32-.22a29.32,29.32,0,0,0-.29-4.43,4.2,4.2,0,0,0-.11-.5.65.65,0,0,0,.22,0,7.58,7.58,0,0,0,1.4-.16l9.11-1.54a15.12,15.12,0,0,0,1.72-.38c0,.49,0,.69.13,1.56.17,1.39.24,2.08.36,3.35l1.17-.19a11.76,11.76,0,0,0,1.94-.44l.24,1.42a13.13,13.13,0,0,0-2,.23l-1.26.21c.14,1.58.2,2.77.21,3.88l.66-.11a10.31,10.31,0,0,0,1.92-.44l.24,1.43a11.88,11.88,0,0,0-2,.22l-.86.15c0,1.52-.11,2-.4,2.44s-.79.7-1.86.88a20.32,20.32,0,0,1-2.11.24,3.89,3.89,0,0,0-.51-1.4,17,17,0,0,0,2.5-.18c.53-.09.79-.29.89-.64a4.73,4.73,0,0,0,.11-1.11Zm4.37-2c.08-2.23.08-2.23,0-3.93l-4.09.69c0,1.55-.06,2.48-.19,3.95Zm0-5.16c0-1.35,0-1.35-.22-3.63l-4,.67c.11,1.71.15,2.36.17,3.65Zm5.81-1a4.36,4.36,0,0,1-.06-.47c-.06-.8-.1-1-.37-3.13l-4.31.73c.17,2.06.19,2.19.23,3.63Zm-4.46,2c0,1.58,0,1.58,0,3.92l4.72-.8c0-1.08-.07-2.43-.18-3.88Z"/><path class="cls-4" d="M60.09,5116.1a19.37,19.37,0,0,0-.46-2.07,17.71,17.71,0,0,0,2.28-.27l9.49-1.6a15.83,15.83,0,0,0,2.18-.48,12,12,0,0,0,.22,2l2.28,13.53a13.14,13.14,0,0,0,.52,2.24l-1.57.27-.23-1.39-10.87,1.84.24,1.38-1.56.27a16.52,16.52,0,0,0-.25-2.27Zm2.31,5,10.87-1.83-1-5.9-10.86,1.84Zm1.31,7.77L74.58,5127l-1.09-6.46-10.87,1.83Z"/><path class="cls-4" d="M90.14,5117.16c-1,.25-1.63.41-3.13.75a10.65,10.65,0,0,1-.44,5.76,10.88,10.88,0,0,1-4.78,5,4.32,4.32,0,0,0-1.07-1.15c2.53-1.33,4.06-2.86,4.71-4.78a9,9,0,0,0,.22-4.56L82,5119a9.13,9.13,0,0,0-1.3.31l-.5-1.45a10.48,10.48,0,0,0,1.76-.19c.33-.05.7-.12,1.8-.35a20.85,20.85,0,0,0,2.18-4.62l-5,.85a12.4,12.4,0,0,0-2.22.51l-.26-1.54a12.1,12.1,0,0,0,2.29-.23l6.1-1-.17-1a8.72,8.72,0,0,0-.46-1.75l1.65-.28A10.4,10.4,0,0,0,88,5110l.17,1,6.47-1.1a12.34,12.34,0,0,0,2.26-.54l.26,1.54a11.81,11.81,0,0,0-2.33.26l-7.33,1.24a26.07,26.07,0,0,1-2.17,4.57c4.2-.87,5.44-1.17,8-1.88a33.48,33.48,0,0,0-3.28-1.73l1-.86a37.57,37.57,0,0,1,6.37,3.84l-.87,1.14A15.74,15.74,0,0,0,94.6,5116c-1.86.51-1.86.51-3.14.84l1.26,7.46c.12.7.33.74,2.26.41,1.78-.3,2.34-.46,2.55-.74s.16-1.3-.14-3.38a4.47,4.47,0,0,0,1.42.26c.47,4.24.32,4.43-3.69,5.1-2.94.5-3.44.36-3.68-1.07Z"/><path class="cls-4" d="M108.51,5105.94a6.91,6.91,0,0,0-.35-1.3l1.63-.27a6,6,0,0,0,.09,1.34l.13.79,6.2-1.05a19.15,19.15,0,0,0,2.12-.45,10.35,10.35,0,0,0,.15,1.45l.21,1.23a10.63,10.63,0,0,0,.34,1.46l-1.39.23-.48-2.88L102.29,5109l.48,2.88-1.38.24a9.26,9.26,0,0,0-.16-1.49l-.21-1.24a9.84,9.84,0,0,0-.33-1.41,19.33,19.33,0,0,0,2.15-.27l5.81-1Zm3.69,11.27a10,10,0,0,0,3.22,2.17,15.6,15.6,0,0,0,6.17,1.18,5.77,5.77,0,0,0-.56,1.5,17.55,17.55,0,0,1-6.9-1.87,12.24,12.24,0,0,1-3.19-2.54,8.15,8.15,0,0,1-2.65,4.52,14.65,14.65,0,0,1-4.49,2.75,5.53,5.53,0,0,0-1-1.19,12.54,12.54,0,0,0,4.27-2.31,7,7,0,0,0,2.55-3.77l-5.35.9a14.25,14.25,0,0,0-2,.47l-.24-1.41a12.22,12.22,0,0,0,2-.22l5.79-1a15,15,0,0,0,0-2.08L106,5115a14.19,14.19,0,0,0-1.82.39l-.22-1.31a10.23,10.23,0,0,0,1.85-.2l3.93-.67c-.08-.78-.1-1-.23-1.91l-4.09.7a14.58,14.58,0,0,0-2,.45l-.23-1.34a12.94,12.94,0,0,0,2-.23l4.09-.7a8.44,8.44,0,0,0-.39-1.67l1.56-.27a8.44,8.44,0,0,0,.15,1.72l4.42-.75a12,12,0,0,0,2-.45l.23,1.34a14.4,14.4,0,0,0-2,.24l-4.42.74c.08.6.19,1.37.23,1.91l4.18-.71a9.55,9.55,0,0,0,1.81-.41l.22,1.31a13.48,13.48,0,0,0-1.84.22l-4.27.72a14.83,14.83,0,0,1,0,2.08l7.21-1.22a10.71,10.71,0,0,0,1.94-.44l.24,1.41a13.34,13.34,0,0,0-2,.21Z"/><path class="cls-4" d="M126.06,5102.66c.34,0,.44.06.48.28a1.42,1.42,0,0,1,0,.34,10.84,10.84,0,0,0,.08,2.45c.24,2.11,1.07,8.21,1.32,9.69.41,2.44,1.31,3.21,3.38,2.87a8.17,8.17,0,0,0,4.09-2,11.8,11.8,0,0,0,2.92-4.16,3.9,3.9,0,0,0,.69,1.27c.09.12.12.16.13.24.08.47-1.12,2.23-2.32,3.43a9.77,9.77,0,0,1-5.33,2.82c-2.89.49-4.49-.82-5-4.1-.09-.55-1.4-9.36-1.58-10.68,0-.16-.07-.45-.11-.64a11,11,0,0,0-.4-1.7A10.1,10.1,0,0,1,126.06,5102.66Z"/><path class="cls-4" d="M151.68,5099.66a19.26,19.26,0,0,0,2.33-.82l.15-.05a.34.34,0,0,1,.32.13,6.71,6.71,0,0,1,.52,1.2c0,.2,0,.23-.43.3A8.16,8.16,0,0,0,151,5102a8.6,8.6,0,0,0-3.19,7.91c.36,2.09,1.79,3.39,4.25,3.88a8.33,8.33,0,0,0,2.52.16c.16,0,.23.05.26.21a4.55,4.55,0,0,1,0,1.27c0,.17-.1.24-.25.27a13.66,13.66,0,0,1-2.67-.23c-3.22-.59-5.08-2.36-5.59-5.37a8.7,8.7,0,0,1,1.07-5.72,10.9,10.9,0,0,1,2.23-2.66c-7.74,2.71-8.93,3.16-9.88,3.81a.9.9,0,0,1-.36.18c-.19,0-.27,0-.47-.26a5.34,5.34,0,0,1-.81-1.47,42.84,42.84,0,0,0,5.17-1.53Z"/><path class="cls-4" d="M164.22,5095.51c1.28-.15,1.95-.1,2,.16a.77.77,0,0,1,0,.35,8.66,8.66,0,0,0,.13,2.76,22.91,22.91,0,0,0,3.52-1.25l.36-.16c.09,0,.14.05.29.27a3.69,3.69,0,0,1,.37.85c0,.15,0,.15-.53.36-1.25.48-2.39.85-3.81,1.25.1.46.17.85.2,1.07.07.4.19,1.13.39,2.16a19.89,19.89,0,0,0,4.46-1.82l.11,0c.09,0,.14,0,.29.24a3.74,3.74,0,0,1,.42.86c0,.11,0,.16-.39.36a24.54,24.54,0,0,1-4.59,1.75c.16.88.38,1.75.95,3.93a16.65,16.65,0,0,1,4.25,1c1.26.49,1.83.8,1.87,1s0,.22-.19.62c-.29.59-.36.69-.49.71s-.16,0-.29-.08a14.43,14.43,0,0,0-2.64-1.3,12.29,12.29,0,0,0-2.15-.56,3.55,3.55,0,0,1-.1,2.39c-.43.93-1.5,1.56-3.17,1.84-2.35.4-4-.32-4.24-1.93-.3-1.76,1.17-3.16,3.76-3.59a15.15,15.15,0,0,1,2-.18c-.43-1.78-.63-2.54-.85-3.56-.46.1-.91.2-1.46.29a18.51,18.51,0,0,1-4.12.29c-.2,0-.28-.07-.31-.22a7.44,7.44,0,0,1,0-1.2,20.26,20.26,0,0,0,4.55-.29,8.26,8.26,0,0,0,1.07-.23c-.11-.52-.32-1.62-.62-3.24-.52.11-.85.16-1.16.21a21.2,21.2,0,0,1-3.66.31c-.11,0-.15-.07-.2-.38a6.51,6.51,0,0,1-.07-1,20,20,0,0,0,3.88-.3c.29,0,.57-.09,1-.18A32.48,32.48,0,0,0,164.22,5095.51Zm.7,14.59c-1.57.26-2.54,1.08-2.38,2s1.07,1.16,2.61.9c1.79-.3,2.39-1,2.14-2.49,0-.09-.11-.53-.11-.53A8.3,8.3,0,0,0,164.92,5110.1Z"/><path class="cls-4" d="M185.08,5097.12a44.78,44.78,0,0,0-8.23,2.3,1.19,1.19,0,0,1-.28.11c-.2,0-.43-.44-.76-1.57l.33-.05c.57-.1,1.18-.25,2.37-.56,1.41-.37,4.52-1.1,6.33-1.5-.43-2.57-.48-2.72-.78-3.4,1.58-.19,2-.2,2,.05a.55.55,0,0,1-.07.3c-.11.38-.11.38.2,2.77.55-.11,5.22-1,6.34-1.16.44-.07.55-.09.6-.06s.13.19.17.47c.14.8.13.91,0,.93h-.06c-.34,0-2.2.26-3.37.46-1.43.24-2.87.51-3.49.63,0,.2.23,1.48.64,4.06a7.27,7.27,0,0,1,.9,2.49,6.63,6.63,0,0,1-1.24,5.37,8.32,8.32,0,0,1-2.74,2.41c-.16,0-.2,0-.56-.25a3.38,3.38,0,0,0-1-.46,10.69,10.69,0,0,0,2.36-1.69,7.06,7.06,0,0,0,1.37-1.93,6.43,6.43,0,0,0,.55-2,2.17,2.17,0,0,1-1.76,1.36c-1.78.3-3.14-.8-3.48-2.82s.61-3.61,2.43-3.92a2,2,0,0,1,1.65.26c-.09-.57-.14-.85-.19-1.14l-.13-.77Zm-2.33,6c.22,1.3,1,2,2.13,1.77s1.46-1,1.24-2.29-1-2.1-2-1.93S182.53,5101.85,182.75,5103.15Z"/><path class="cls-3" d="M224.85,2493.17c-6.76-5.07-11.83-19.71,6.76-28.16,38.87-15.21,50.7-14.65,54.08-51.83s-49.58-51.26-108.73-49.57-84.5,32.11-86.19,64.22c0,0-2.25,49.57,62.53,49,47.89-4,48.45-5.07,65.35,20.28"/><path class="cls-4" d="M154.94,2403.63c-2,4.83-3.11,6.44-4.69,6.58-1.22.11-2.14-.84-2.28-2.39a4.58,4.58,0,0,1,2.8-4.49,8,8,0,0,1,3.1-.88c.89-2.32,1.37-3.69,2.12-5.88-3.21.44-3.87.57-4.8,1a.56.56,0,0,1-.15,0c-.16,0-.26-.07-.34-.27a5.92,5.92,0,0,1-.4-1.46,13.48,13.48,0,0,0,1.56,0,19.47,19.47,0,0,0,4.72-.87c.16-.13.21-.16.32-.17s.48.14.83.51a1.55,1.55,0,0,1,.46.68c0,.11-.07.23-.25.4a1.93,1.93,0,0,0-.43.73c-.36.93-1.84,4.67-2.08,5.29a16.08,16.08,0,0,1,5.7,1.08,13.34,13.34,0,0,0,.05-2.44,11.82,11.82,0,0,0-.18-1.22,9.24,9.24,0,0,1,1.66.21c.16.05.23.11.24.2a1.51,1.51,0,0,1-.09.5,5,5,0,0,0-.14,1.23,12.69,12.69,0,0,1-.15,2.09c1.9.86,3.27,1.72,3.3,2.06a2.16,2.16,0,0,1-.39.88c-.14.19-.24.29-.33.3a.64.64,0,0,1-.39-.16,19.75,19.75,0,0,0-2.5-1.59,10.15,10.15,0,0,1-2.94,4.88A8.87,8.87,0,0,1,157,2412c-.13,0-.22,0-.4-.21a2.33,2.33,0,0,0-1-.63,10.34,10.34,0,0,0,3.64-2.88,9.12,9.12,0,0,0,1.68-3.47A15.34,15.34,0,0,0,154.94,2403.63Zm-3.83,1a3.16,3.16,0,0,0-1.79,3c.06.71.42,1.2.84,1.16s.9-.44,1.44-1.38a26.52,26.52,0,0,0,1.73-3.5A6.24,6.24,0,0,0,151.11,2404.62Z"/><path class="cls-4" d="M176.46,2393.14c0,.09,0,.13-.23.4q-.85,1-4,8.74c-.14.37-.28.65-.86,1.87,1.39-2.21,2.67-3.18,4.45-3.34a2.61,2.61,0,0,1,2.94,2.05,28.37,28.37,0,0,1,.63,3,3.54,3.54,0,0,0,.41,1.39,1.44,1.44,0,0,0,1.45.59,4.21,4.21,0,0,0,3.06-2.31,12.68,12.68,0,0,0,1-2.24,2.71,2.71,0,0,0,.54,1.29.94.94,0,0,1,.17.43,3.58,3.58,0,0,1-.7,1.64,5.29,5.29,0,0,1-4,2.64c-1.49.14-2.43-.31-2.93-1.41a10.45,10.45,0,0,1-.7-2.85,5.74,5.74,0,0,0-.65-2.23,1.42,1.42,0,0,0-1.43-.7c-2,.18-4,2.46-5,5.76a16.78,16.78,0,0,0-.53,2.05c0,.22-.11.3-.22.31-.4,0-1.45-.39-1.47-.61,0,0,.13-.39.32-1s.2-.49.88-2.65,2.15-6,3.35-9a23.16,23.16,0,0,0,1.7-4.84C175.62,2392.45,176.44,2392.87,176.46,2393.14Z"/><path class="cls-4" d="M189.7,2396.09c-.11,0-.31,0-.53.09s-.56.07-.71.09c-.31,0-.36,0-.42-.14a8.27,8.27,0,0,1-.31-1.25c.4,0,1.05-.07,1.25-.09.77-.07,2.27-.32,3.44-.56a13,13,0,0,0,.33-4,12.91,12.91,0,0,1,1.66.24c.32.08.37.12.38.23a1.05,1.05,0,0,1-.1.35,10.53,10.53,0,0,0-.67,2.81,22,22,0,0,0,3-.94.49.49,0,0,1,.17-.06c.16,0,.22.12.33.67,0,.15.07.26.08.33a.81.81,0,0,1,0,.19c0,.18,0,.23-.44.36l-.2.06c-.76.23-2.36.66-3.25.88a45.67,45.67,0,0,1-2.82,8.07c-.6,1.28-.93,1.83-1.15,1.85a2.36,2.36,0,0,1-1.26-.79.77.77,0,0,1,.16-.41,13.78,13.78,0,0,0,1.07-1.85,30.11,30.11,0,0,0,2.39-6.51C190.67,2396,190.49,2396,189.7,2396.09Zm10.74,1.09a1,1,0,0,1-.05.3,4.67,4.67,0,0,0,0,1.43c.09,1,.28,2.35.55,3.9a13.89,13.89,0,0,1,3.24,1.39c.8.46,1,.64,1.05.8,0,.33-.46,1.27-.69,1.29-.06,0-.15,0-.35-.19a11.58,11.58,0,0,0-3.06-1.7,4.48,4.48,0,0,1-.11,1.78c-.36,1.27-1.48,2-3.21,2.17-2.16.2-3.7-.78-3.85-2.43-.16-1.8,1.35-3.21,3.64-3.42a8,8,0,0,1,1.86.06c-.25-1.55-.43-2.76-.61-4.25a10.57,10.57,0,0,0-.23-1.41C200.05,2396.88,200.41,2397,200.44,2397.18Zm-2.81,6.64c-1.51.14-2.43.87-2.34,1.87s.93,1.41,2.29,1.29c1.6-.14,2.22-1,2.07-2.65,0-.13-.06-.31-.06-.31A4.74,4.74,0,0,0,197.63,2403.82Zm2.64-9.47.16-.26c.19-.35.25-.42.4-.44a12.13,12.13,0,0,1,3.11,1.18c1,.54,1.33.8,1.34,1a2.2,2.2,0,0,1-.36,1c-.11.21-.22.31-.33.32s-.09,0-.54-.33a11.43,11.43,0,0,0-3.68-1.78c-.16,0-.23-.11-.24-.22A.65.65,0,0,1,200.27,2394.35Z"/><path class="cls-4" d="M221.3,2389.62a19.91,19.91,0,0,0,2.39-.64.34.34,0,0,1,.15,0,.32.32,0,0,1,.3.15,6.13,6.13,0,0,1,.43,1.24c0,.2,0,.23-.45.26a8.24,8.24,0,0,0-3.71,1.3,8.59,8.59,0,0,0-3.79,7.65c.19,2.11,1.52,3.51,3.94,4.19a8.56,8.56,0,0,0,2.49.36.21.21,0,0,1,.25.22,4.38,4.38,0,0,1-.14,1.27c0,.16-.11.23-.26.25a13.78,13.78,0,0,1-2.64-.44c-3.17-.83-4.89-2.74-5.16-5.78a8.66,8.66,0,0,1,1.51-5.63,10.83,10.83,0,0,1,2.42-2.48c-7.92,2.1-9.14,2.46-10.14,3a.82.82,0,0,1-.37.15c-.2,0-.27-.05-.45-.3a5.18,5.18,0,0,1-.7-1.53,42,42,0,0,0,5.28-1.12Zm.26,4.41a.73.73,0,0,0,.17-.15c.29-.25.4-.33.51-.31a4,4,0,0,1,1.3.95,6.61,6.61,0,0,1,1.09,1.25c0,.09,0,.16-.19.31a2.31,2.31,0,0,1-.65.55c-.09,0-.14,0-.24-.16a8,8,0,0,0-2-2.06c-.1-.06-.15-.13-.15-.19S221.48,2394.1,221.56,2394Zm4.76.29c0,.13,0,.18-.47.51-.23.2-.29.25-.38.26s-.12,0-.19-.14a7.44,7.44,0,0,0-2-2.06c-.07-.06-.1-.08-.1-.13s.61-.66.79-.67A6.62,6.62,0,0,1,226.32,2394.32Z"/><path class="cls-4" d="M110.78,2440.45l.42,4.71a40.2,40.2,0,0,0,5-1.73l.09,1.27a76.41,76.41,0,0,1-8.1,2.63l-.76.25-.49-1.46a17.64,17.64,0,0,0,2.88-.59l-.9-10a15.61,15.61,0,0,0-.23-1.77,20.49,20.49,0,0,1-2.91,1.74,3.89,3.89,0,0,0-.89-1.22,19.54,19.54,0,0,0,8.44-6.74l1.47-.13a15.61,15.61,0,0,0,4.16,3,23.42,23.42,0,0,0,5.68,2.11,4.25,4.25,0,0,0-.7,1.45,26.87,26.87,0,0,1-3.36-1.31,13.55,13.55,0,0,0,.07,1.57l.33,3.66a16.54,16.54,0,0,0,.22,1.73c-.49,0-1.07,0-2,.11l-3.91.35a9.15,9.15,0,0,0,2.88,2.43,18,18,0,0,0,3.74-3.81l1.31.71a38.59,38.59,0,0,1-3.88,3.69,16.32,16.32,0,0,0,6,1.5,6.64,6.64,0,0,0-.63,1.45,17.73,17.73,0,0,1-7.9-2.94,11.67,11.67,0,0,1-2.88-2.9Zm7.76-7.86c.78-.07,1.07-.1,1.62-.19a20.6,20.6,0,0,1-5.93-3.88,19.6,19.6,0,0,1-4.94,4.88c.52,0,.81-.05,1.47-.11l3.16-.29-.07-.71a7.12,7.12,0,0,0-.26-1.63l1.52-.14a7.89,7.89,0,0,0,0,1.66l.07.71Zm-8.14,3.66,9.09-.81-.16-1.78-9.09.82Zm.28,3.07,9.09-.82-.18-1.93-9.09.82Z"/><path class="cls-4" d="M132,2432.54c.61-.86,1-1.17,1.7-1.23a1.86,1.86,0,0,1,1.21.27,12.84,12.84,0,0,1,2,1.64,40,40,0,0,0,5.65,4.11A24.94,24.94,0,0,0,146,2439c.14.05.22.14.22.23a3.27,3.27,0,0,1-.49,1.25c-.16.24-.22.31-.31.32a17,17,0,0,1-3.71-2,43.75,43.75,0,0,1-6.6-5.09c-.63-.59-.89-.75-1.18-.72s-.43.19-.77.67l-.44.62c-.06.1-.24.34-.46.65-.85,1.22-1.07,1.53-2.1,3a9.26,9.26,0,0,0-.71,1.13c-.09.17-.2.27-.33.28-.29,0-1-.54-1.66-1.28C128.72,2436.94,129.61,2435.87,132,2432.54Zm6.58-2.47a.73.73,0,0,0,.17-.15c.29-.25.4-.33.51-.32a5.69,5.69,0,0,1,1.68,1.33,3.41,3.41,0,0,1,.71.9,2.12,2.12,0,0,1-.84.84c-.09,0-.14,0-.24-.16a7.45,7.45,0,0,0-2-2.06c-.07-.09-.12-.13-.12-.19S138.5,2430.14,138.58,2430.07Zm2.45-1.93a6.84,6.84,0,0,1,2.33,2.21c0,.14-.05.19-.47.54-.25.2-.32.23-.38.23s-.11,0-.19-.13a8.47,8.47,0,0,0-2-2.07c-.07,0-.1-.05-.1-.1S140.85,2428.14,141,2428.14Z"/><path class="cls-4" d="M151.32,2426.26c.65-.06,2.91-.49,5-.94a4.73,4.73,0,0,0,1.8-.61.7.7,0,0,1,.32-.15c.2,0,.47.21,1,.9a1.29,1.29,0,0,1,.32.57c0,.16,0,.18-.38.49s-.32.25-2.35,2.83c-.34.43-1.24,1.59-2.53,3.18-.69.87-.83,1-1.51,1.91a8,8,0,0,1,2.5-1.82,7.39,7.39,0,0,1,2.69-.75c3.13-.29,5.35,1.44,5.6,4.31a5,5,0,0,1-1.14,3.77,7.88,7.88,0,0,1-5.41,2.5,4.55,4.55,0,0,1-3.41-.72,2.3,2.3,0,0,1-.81-1.56c-.13-1.42,1-2.54,2.76-2.69s3.2.74,4.19,2.74a4.44,4.44,0,0,0,1.88-1.94,4,4,0,0,0,.36-2.05c-.19-2.13-1.78-3.29-4.22-3.07-2.64.24-5.8,2.31-7.53,5-.15.23-.24.31-.35.32a2.78,2.78,0,0,1-1.31-1.11c0-.09,0-.19.18-.29a10.17,10.17,0,0,0,1.43-1.52,85.37,85.37,0,0,0,6.88-9.13c-4.41,1-5.83,1.33-6.29,1.53a.7.7,0,0,1-.22.07c-.24,0-.55-.72-.73-1.73C150.47,2426.29,151,2426.28,151.32,2426.26Zm4.46,12.5c-.93.08-1.49.58-1.43,1.27.08.86,1.13,1.35,2.6,1.22a5.66,5.66,0,0,0,1.69-.38C157.94,2439.32,157,2438.65,155.78,2438.76Z"/><path class="cls-4" d="M171.84,2423.31q.34,0,.36.24c0,.06,0,.13,0,.27a6.45,6.45,0,0,0,0,1.54,24.14,24.14,0,0,0,.61,3.29c.3,1,.6,1.38,1.15,1.33s1.11-.35,2.9-1.45a7,7,0,0,0,1-.77c.07,0,.09-.05.16-.05.24,0,1.13,1.1,1.16,1.48,0,.13-.09.23-.35.32a25.57,25.57,0,0,0-3.32,1.49c-3.76,1.95-5.6,4-5.42,5.93.15,1.65,1.59,2.23,4.76,2A33,33,0,0,0,180,2438l.18,0a.27.27,0,0,1,.28.15,5,5,0,0,1,.24,1.15c0,.24,0,.34-.3.4-.86.19-3.33.55-4.84.69a13.58,13.58,0,0,1-4.07-.11,3.29,3.29,0,0,1-2.9-3.1,4.93,4.93,0,0,1,1.14-3.5,10.76,10.76,0,0,1,3-2.67c-1-.31-1.41-1.31-2.16-5.61a12.24,12.24,0,0,0-.47-2A9.12,9.12,0,0,1,171.84,2423.31Z"/><path class="cls-4" d="M188.49,2427.66a29.24,29.24,0,0,1-3.51.54c-.31,0-.42,0-.48-.14s-.14-.52-.28-1.16c.35,0,.55,0,.77-.05a26.94,26.94,0,0,0,3.38-.52,20,20,0,0,0-.63-4.29c.63,0,1.12,0,1.53,0s.5.09.51.24,0,.14-.11.48a11.07,11.07,0,0,0,0,3.21,32.82,32.82,0,0,0,3.43-1.14.4.4,0,0,1,.18,0c.09,0,.14,0,.2.27a5.42,5.42,0,0,1,.21.81.27.27,0,0,1-.2.31,30.94,30.94,0,0,1-3.7,1.14l.36,4a16.19,16.19,0,0,1,5.91-2,3.84,3.84,0,0,1,4.53,3.72c.25,2.78-1.34,4.58-4.23,4.84a7.32,7.32,0,0,1-2.09-.11c-.18-.05-.26-.15-.33-.39a4.13,4.13,0,0,0-.46-1.15,6.55,6.55,0,0,0,2.63.33,3,3,0,0,0,2.94-3.43,2.53,2.53,0,0,0-3-2.5,14.78,14.78,0,0,0-5.75,2.06l.39,4c.11,1.27-.44,2.08-1.51,2.17a4.61,4.61,0,0,1-3.07-1,2.21,2.21,0,0,1-1-1.64c-.11-1.22.95-2.42,3.75-4.17l-.17-1.84Zm.51,5.87c-1.92,1.27-2.58,1.95-2.52,2.62s1.23,1.41,2.25,1.32c.42,0,.59-.36.53-1v-.18Zm12-5.9c-.08,0-.13,0-.47-.32a8.71,8.71,0,0,0-3.78-1.85c-.34-.08-.43-.12-.44-.21a2.75,2.75,0,0,1,.38-.77c.13-.24.2-.29.35-.3a9,9,0,0,1,3,.94c1,.49,1.8,1.11,1.82,1.36S201.26,2427.61,201,2427.63Z"/><path class="cls-4" d="M206.73,2422.75s0,0,0,.2a13.15,13.15,0,0,0,0,3.61c.47,5.31,1.76,8.68,3.27,8.55,1-.09,1.83-1.58,2.36-4a3.64,3.64,0,0,0,.83,1.29c.12.12.15.16.16.25a4.16,4.16,0,0,1-.28,1.1c-.67,1.81-1.72,2.87-2.92,3-1.46.14-2.68-1-3.58-3.28a29.55,29.55,0,0,1-1.43-7.33c0-.47-.09-1.09-.14-1.85,0-.24,0-.44-.05-.55a8.51,8.51,0,0,0-.25-1.55C206.25,2422.32,206.71,2422.46,206.73,2422.75Zm10.73.74c.4,0,1.7,1.25,2.64,2.65a14.69,14.69,0,0,1,1.78,3.64,6.21,6.21,0,0,1,.32,1.07c0,.14,0,.23-.26.36a6.43,6.43,0,0,1-1.17.49c-.08,0-.13-.06-.17-.17-.92-3.52-2-5.37-4.24-7.34A3.32,3.32,0,0,1,217.46,2423.49Z"/><path class="cls-4" d="M228.27,2418.14c.34,0,.43.1.45.32a1.09,1.09,0,0,1,0,.34,9.76,9.76,0,0,0-.12,2.45c.08,2.12.43,8.27.57,9.76.22,2.47,1.05,3.31,3.14,3.12a8,8,0,0,0,4.24-1.7,11.62,11.62,0,0,0,3.23-3.92,4.11,4.11,0,0,0,.59,1.32.48.48,0,0,1,.11.25c0,.47-1.28,2.13-2.57,3.24a9.8,9.8,0,0,1-5.54,2.4c-2.91.26-4.41-1.17-4.71-4.48,0-.56-.67-9.44-.74-10.78,0-.15,0-.44-.06-.64a10.09,10.09,0,0,0-.27-1.72A12.31,12.31,0,0,1,228.27,2418.14Z"/><path class="cls-4" d="M245.24,2419.28s0,0-.05.21a12.91,12.91,0,0,0,0,3.6c.48,5.31,1.77,8.69,3.28,8.55,1-.08,1.83-1.57,2.35-4a3.69,3.69,0,0,0,.84,1.29c.12.12.15.17.15.26a3.52,3.52,0,0,1-.28,1.1c-.66,1.8-1.71,2.86-2.91,3-1.47.13-2.69-1-3.59-3.28a29.61,29.61,0,0,1-1.42-7.34c0-.46-.1-1.08-.14-1.84,0-.25,0-.45-.06-.56a7.08,7.08,0,0,0-.25-1.54C244.75,2418.86,245.21,2419,245.24,2419.28ZM256,2420c.4,0,1.7,1.26,2.63,2.65a14.09,14.09,0,0,1,1.78,3.65,6,6,0,0,1,.32,1.07c0,.13,0,.23-.25.36a5.68,5.68,0,0,1-1.17.48c-.09,0-.14-.05-.17-.16-.92-3.52-2-5.37-4.25-7.35A3.51,3.51,0,0,1,256,2420Z"/><path class="cls-4" d="M269.5,2427.58l-1.24.11-1.57-13.16,2-.18Zm1,3.32a1.28,1.28,0,1,1-2.55.23,1.28,1.28,0,0,1,2.55-.23Z"/></g></g></g></svg>