<svg xmlns="http://www.w3.org/2000/svg" width="1154" height="2657" viewBox="0 0 1154 2657"><defs><style>.cls-1{isolation:isolate;}.cls-2{fill:#fceae7;}.cls-3,.cls-6{fill:#fff;}.cls-3{stroke:#231815;stroke-miterlimit:10;stroke-width:0.78px;}.cls-4{fill:#231815;}.cls-5{opacity:0.7;mix-blend-mode:multiply;}</style></defs><title>アセット 8</title><g class="cls-1"><g id="レイヤー_2" data-name="レイヤー 2"><g id="レイヤー_1-2" data-name="レイヤー 1"><path class="cls-2" d="M1153,1V2656H1V1H1153m1-1H0V2657H1154V0Z"/><path class="cls-3" d="M716.16,1612.31s-33.8-12.35-1-19.48c50-10.87,33.73-74.17,8.25-88.31-29.42-16.34-68.79,3-92.65,12.22-32.48,12.54-40.81,99,34,87.12,30-3.5,29.25,2.27,43.55,10.07"/><path class="cls-4" d="M636,1541.21c-.33,2.46-1.1,3.86-2.34,4.21a2.36,2.36,0,0,1-2.19-.58,5.33,5.33,0,0,1-1.42-2.49,6.58,6.58,0,0,1,1.15-6,7.4,7.4,0,0,1,3.88-2.48c3.59-1,6.59.46,7.54,3.76a6.18,6.18,0,0,1-1.54,6.08,7.06,7.06,0,0,1-1.79,1.53c-.1,0-.18,0-.34-.12a2.37,2.37,0,0,0-.91-.41,9.18,9.18,0,0,0,2.28-1.84,5.21,5.21,0,0,0,1.14-5,4.43,4.43,0,0,0-3.67-3.31,4.78,4.78,0,0,0-2,.11A22.2,22.2,0,0,1,636,1541.21Zm-3.39-4.84a5.6,5.6,0,0,0-1.47,5.74c.42,1.49,1.34,2.37,2.21,2.12.69-.2,1.2-1.24,1.45-3a20.18,20.18,0,0,0-.12-6.09A6.42,6.42,0,0,0,632.57,1536.37Z"/><path class="cls-4" d="M649.51,1529.19c0,.06,0,.1-.12.33a44.35,44.35,0,0,0-1.78,7.19c-.05.3-.11.53-.38,1.54.73-1.87,1.56-2.79,2.88-3.17a2,2,0,0,1,2.52,1.12,19.6,19.6,0,0,1,.91,2.2,2.73,2.73,0,0,0,.52,1,1.1,1.1,0,0,0,1.18.24,3.26,3.26,0,0,0,2-2.19,9.21,9.21,0,0,0,.44-1.84,2.13,2.13,0,0,0,.6.9.66.66,0,0,1,.19.3,2.71,2.71,0,0,1-.3,1.33,4.05,4.05,0,0,1-2.66,2.59,2,2,0,0,1-2.42-.65,7.86,7.86,0,0,1-.94-2,4.34,4.34,0,0,0-.82-1.58,1.06,1.06,0,0,0-1.18-.32c-1.45.41-2.62,2.43-3,5.08a12.78,12.78,0,0,0-.1,1.62c0,.18,0,.24-.12.26-.3.09-1.15-.08-1.2-.24s0-.32.1-.78.08-.4.28-2.13.75-4.86,1.22-7.32a17.72,17.72,0,0,0,.58-3.89C648.77,1528.79,649.45,1529,649.51,1529.19Z"/><path class="cls-4" d="M660.09,1527.06a8.17,8.17,0,0,0,3.14-1.39.77.77,0,0,1,.13-.09c.09,0,.16,0,.32.11a2.06,2.06,0,0,1,.62.62c0,.07,0,.15-.19.26a7.23,7.23,0,0,0-1.92,2.56,7.66,7.66,0,0,0-.54,5.28,3.52,3.52,0,0,0,2.36,2.64,3.45,3.45,0,0,0,1.73-.08,3.86,3.86,0,0,0,2.69-2.51c.48-1.36.36-3.21-.33-5.61a11.87,11.87,0,0,0-1.82-3.8.26.26,0,0,1-.07-.11c0-.1,0-.15.31-.32s.58-.32.66-.35.19,0,.29.26a9,9,0,0,0,1.79,2.57,14.88,14.88,0,0,0,3.66,2.92c.11.06.15.1.17.14a1.93,1.93,0,0,1-.49,1.09c-.14,0-.55-.23-1.29-.81a15.17,15.17,0,0,1-3-3.2,20.06,20.06,0,0,1,1,2.63,8.7,8.7,0,0,1,.19,5.11,4.91,4.91,0,0,1-3.42,3.1c-2.62.75-4.72-.48-5.52-3.25a8.33,8.33,0,0,1,.19-4.93,9.72,9.72,0,0,1,1.33-2.52l-1.27.49-.82.32c-.36.14-.51.2-.7.29l-.14.06c-.25.07-.46-.23-.74-1.08A13.4,13.4,0,0,0,660.09,1527.06Zm8.18-3.23.12-.14c.19-.21.24-.26.31-.28s.4.1.95.46a5.24,5.24,0,0,1,1.15,1c0,.07,0,.13-.1.26a2,2,0,0,1-.45.49c-.07,0-.11,0-.19-.11a6.82,6.82,0,0,0-1.73-1.36c-.08,0-.11-.07-.12-.1A.18.18,0,0,1,668.27,1523.83Zm3.06-.91c.49.41.59.49.61.63s0,.13-.3.44c-.16.15-.21.21-.26.22s-.09,0-.17-.08a5.54,5.54,0,0,0-1.74-1.35c-.05,0-.07,0-.08-.09s.38-.55.52-.59A3.67,3.67,0,0,1,671.33,1522.92Z"/><path class="cls-4" d="M676.47,1521.32a.56.56,0,0,1,0,.26,2.24,2.24,0,0,0-.09.6c0,.44.12,1.43.22,2.08s.24,1.27.53,2.54c.07.3.1.4.14.6l0-.06a1.59,1.59,0,0,0,.09-.35,5,5,0,0,1,.17-.61c0-.08.13-.58.37-1.49a2.1,2.1,0,0,0,.5.56.34.34,0,0,1,.1.16c0,.1,0,.1-.17.88a9.11,9.11,0,0,0-.35,2.45c0,.29-.05.32-.55.46a1.08,1.08,0,0,1-.53.07,10.07,10.07,0,0,1-.69-2,27.64,27.64,0,0,1-1-4.73,8.13,8.13,0,0,0-.27-1.52C675.85,1521.09,676.42,1521.12,676.47,1521.32Zm4.76-1.4c.45-.13.54-.1.62.16,0,.05,0,.07.08.26a.29.29,0,0,0,0,.09c.08.29.23.73.46,1.42.33.9.55,1.59.76,2.32.85,3,.8,5.23-.21,7.44a4.84,4.84,0,0,1-1.27,1.92s-.06,0-.2,0h-.09l-.1,0a3.09,3.09,0,0,0-.82-.14,8,8,0,0,0,1.95-3.95,10,10,0,0,0-.37-4.91,17,17,0,0,0-1.68-4.24A7.57,7.57,0,0,1,681.23,1519.92Z"/><path class="cls-4" d="M688.78,1517.22c.26,0,.34,0,.39.17a1,1,0,0,1,0,.26,7.48,7.48,0,0,0,.27,1.87c.36,1.59,1.52,6.19,1.84,7.29.52,1.83,1.28,2.35,2.83,1.9a6.2,6.2,0,0,0,3-1.9,9,9,0,0,0,1.88-3.43,2.82,2.82,0,0,0,.63.91.35.35,0,0,1,.12.18,6.53,6.53,0,0,1-1.47,2.81,7.53,7.53,0,0,1-3.84,2.62c-2.16.62-3.5-.24-4.2-2.7-.12-.41-1.88-7-2.13-8,0-.12-.1-.33-.14-.48a8.23,8.23,0,0,0-.45-1.26A8.06,8.06,0,0,1,688.78,1517.22Z"/><path class="cls-4" d="M702.75,1513.22a1,1,0,0,0-.1-.27,6.8,6.8,0,0,1,1.43-.09.19.19,0,0,1,.18.14c0,.12,0,.12,0,.5a7.1,7.1,0,0,0,.1,2.1,22.56,22.56,0,0,0,2.1-1.2l.1,0c.06,0,.08,0,.14.07a6.29,6.29,0,0,1,.37.73c0,.13,0,.17-.08.22s-.06,0-.13.09c-.45.25-1.81,1-2.41,1.24a42.88,42.88,0,0,1-.14,8.18c-.15,1.4-.22,1.76-.36,1.8a2.62,2.62,0,0,1-.87-.12c-.16,0-.22-.08-.24-.16a.59.59,0,0,1,0-.26,12.9,12.9,0,0,0,.35-2,36.72,36.72,0,0,0,.16-7,26.9,26.9,0,0,1-2.71,1c-.25.07-.3.07-.38-.07a5,5,0,0,1-.38-.85l.73-.19a25.41,25.41,0,0,0,2.65-1A14.12,14.12,0,0,0,702.75,1513.22Zm9.5,10a10.63,10.63,0,0,0,2.21-.89l.2-.07c.18,0,.23,0,.36.33,0,.09.07.17.11.25s.1.24.12.3a.23.23,0,0,1-.14.31,17.31,17.31,0,0,1-2.44.9,5.35,5.35,0,0,1-3.54.12,3.44,3.44,0,0,1-1.4-1.15,1.21,1.21,0,0,1-.18-.32c0-.13,0-.18.67-.84C709.13,1523.51,710.18,1523.79,712.25,1523.19Zm-4.07-5.44a.12.12,0,0,1-.08,0,.17.17,0,0,1-.22-.09,3.73,3.73,0,0,1-.28-.71c0-.15,0-.21.13-.29a19.19,19.19,0,0,1,3.38-1.29c.94-.27,1.38-.36,1.46-.27a1,1,0,0,1,.17.41c.15.51.15.64,0,.68l-.08,0a15.4,15.4,0,0,0-1.6.35A16.72,16.72,0,0,0,708.18,1517.75Z"/><path class="cls-4" d="M648.23,1553.86a11.7,11.7,0,0,0-1.62.56l-.3-1A13,13,0,0,0,648,1553l7.92-2.27a13.74,13.74,0,0,0,1.66-.59l.29,1a12,12,0,0,0-1.65.39l-3.58,1,.29,1,4.93-1.41a9.16,9.16,0,0,0,1.43-.5,7,7,0,0,0,.28,1.22l.36,1.25a6.55,6.55,0,0,0,.47,1.3l-1,.29-.83-2.91-5.4,1.55.72,2.48a10.07,10.07,0,0,0,.47,1.34l-1.14.33a11.13,11.13,0,0,0-.31-1.39l-.71-2.48-5.21,1.5.85,3-1,.29a7.17,7.17,0,0,0-.28-1.33l-.38-1.34a9.34,9.34,0,0,0-.41-1.18,9.2,9.2,0,0,0,1.52-.35l4.7-1.35-.28-1Zm4.14,8.31a8.78,8.78,0,0,0-1.35.48l-.22-.8a12.75,12.75,0,0,1-2.42,2.27,3.37,3.37,0,0,0-.83-.71A10.78,10.78,0,0,0,651,1560a3.32,3.32,0,0,0,.53-1.15l1.07.26c-.14.24-.14.24-.29.53a17.86,17.86,0,0,1-1.3,1.95,11.12,11.12,0,0,0,1.13-.29l5.1-1.47.38-.1c.09,0,.24-.07.44-.15a12.37,12.37,0,0,1-2.92-1.21l.71-.76a4.2,4.2,0,0,0,1.32.75,11.91,11.91,0,0,0,5,.71,3.48,3.48,0,0,0-.31,1.13,17.63,17.63,0,0,1-3.16-.43c0,.2.06.28.12.55.8,3.47.69,4-1,4.49-.36.11-1.14.31-1.63.43a3.15,3.15,0,0,0-.56-.91c.8-.14,1.41-.26,1.9-.4s.7-.29.73-.62a11.16,11.16,0,0,0-.46-2.73l-3.4,1c.15,2.42-1.31,4.32-4.65,6a2.66,2.66,0,0,0-.78-.79c3-1.34,4.48-3,4.39-5Zm-4.2-5.31a6.6,6.6,0,0,0,1.05-.25l1.3-.37a8.29,8.29,0,0,0,1-.34l.23.8a7.57,7.57,0,0,0-1,.23l-1.3.37a7.54,7.54,0,0,0-1,.37Zm.48,1.67a9.39,9.39,0,0,0,1.05-.25l1.3-.37a10.38,10.38,0,0,0,1-.35l.23.81a6.34,6.34,0,0,0-1,.23l-1.3.37a7.56,7.56,0,0,0-1,.36Zm5.77-3.46a9.94,9.94,0,0,0,1.05-.25l1.4-.4a8.52,8.52,0,0,0,1-.35l.23.81a6.34,6.34,0,0,0-1,.23l-1.4.4a6.39,6.39,0,0,0-1,.36Zm.48,1.66a9,9,0,0,0,1.05-.24l1.4-.41a8.41,8.41,0,0,0,1-.34l.23.81a6.71,6.71,0,0,0-1,.22l-1.4.41a6.39,6.39,0,0,0-1,.36Z"/><path class="cls-4" d="M678,1559.47l-.28-1-11,3.15.28,1-1.1.32a14.24,14.24,0,0,0-.46-2l-2.84-9.89a17,17,0,0,0-.66-1.92,14.45,14.45,0,0,0,1.87-.45l9.47-2.72a16.05,16.05,0,0,0,1.86-.62,15.94,15.94,0,0,0,.47,2l2.85,9.92a10.51,10.51,0,0,0,.65,1.88Zm-11.53,1.28,11-3.16-3.13-10.9-11,3.15Zm.91-4.43a7.18,7.18,0,0,0-1.28.46l-.29-1a5.85,5.85,0,0,0,1.33-.29l1.2-.34c-.2-1-.29-1.35-.6-2.42l-.08-.26-1,.29a7.65,7.65,0,0,0-1.31.47l-.29-1a7.67,7.67,0,0,0,1.36-.3l1-.3-.26-.91a10,10,0,0,0-.44-1.23l1.07-.31a8.5,8.5,0,0,0,.29,1.24l.26.94,2.59-.74-.26-.91a6.22,6.22,0,0,0-.44-1.23l1.07-.31a9.42,9.42,0,0,0,.3,1.28l.26.9,1.05-.3a6.94,6.94,0,0,0,1.32-.47l.28,1a7.84,7.84,0,0,0-1.36.3l-1.05.3.76,2.66,1.29-.37a6.82,6.82,0,0,0,1.34-.47l.29,1a7.24,7.24,0,0,0-1.39.31l-1.29.37.54,1.88a8.86,8.86,0,0,0,.49,1.4l-1.09.31a7.33,7.33,0,0,0-.32-1.43l-.54-1.9-2.79.8a4.74,4.74,0,0,1-1.24,4.15,3.21,3.21,0,0,0-1-.46c1.18-1.31,1.43-2,1.28-3.43Zm1.29-3.78c.24.83.36,1.4.56,2.34l2.71-.77-.76-2.66-2.61.75Z"/><path class="cls-4" d="M681.54,1545.32a12.83,12.83,0,0,1-1.61,3.76,2,2,0,0,0-.94-.48,11.45,11.45,0,0,0,1.89-4.86,3.28,3.28,0,0,0,0-1l1.19-.07c0,.23-.05.26-.11.64s-.11.59-.19,1l7.79-2.23a13,13,0,0,0,2-.69l.32,1.12a12.77,12.77,0,0,0-2,.48Zm.65,4.69a10.62,10.62,0,0,0-1.6.56l-.31-1.07a13.37,13.37,0,0,0,1.51-.34l7.57-2.18a17.64,17.64,0,0,0,1.76-.57,11.34,11.34,0,0,0,.32,1.35,14.62,14.62,0,0,0,1.91,4.42c.39.56,1,1.07,1.15,1s.13-1.34-.18-2.8a2.61,2.61,0,0,0,1,.37,9.61,9.61,0,0,1,.19,2.29c0,.73-.25,1.18-.66,1.29-.62.18-1.65-.52-2.45-1.69a17.14,17.14,0,0,1-2.09-5Zm-.64-3.3a9.74,9.74,0,0,0,1.39-.33l6.41-1.84a10.43,10.43,0,0,0,1.53-.53l.3,1.06a9.52,9.52,0,0,0-1.57.36l-6.32,1.81a8.51,8.51,0,0,0-1.44.51Zm9.34,8.22a29.85,29.85,0,0,0-3.9-1.88,17.34,17.34,0,0,1-4,4.67,2.66,2.66,0,0,0-1-.65,16.43,16.43,0,0,0,4.06-4.38,32.42,32.42,0,0,0-3.59-1.08l.51-.84a32.47,32.47,0,0,1,3.57,1.06,9.18,9.18,0,0,0,1.06-3l1.19.28a3.66,3.66,0,0,0-.14.34,3.41,3.41,0,0,0-.25.67,17.28,17.28,0,0,1-.9,2,41.39,41.39,0,0,1,3.9,1.72Z"/><path class="cls-4" d="M698.84,1538.91c1-.11,1.59-.05,1.66.16a.46.46,0,0,1,0,.26,9.47,9.47,0,0,0-.13,2.47v.37a12.86,12.86,0,0,1,1.63-.66c1.47-.42,2.4.26,2.95,2.17a13.39,13.39,0,0,1,.37,5.64,2.18,2.18,0,0,1-1.56,1.88,4.05,4.05,0,0,1-1.59.11c-.11,0-.16-.07-.21-.26a3.36,3.36,0,0,0-.47-1,3.12,3.12,0,0,0,1.78.06c.63-.18.93-.7,1-1.72a13.18,13.18,0,0,0-.47-4.61c-.34-1.19-.89-1.6-1.75-1.36a10.73,10.73,0,0,0-1.7.72,48.38,48.38,0,0,1-.39,5.1,20.51,20.51,0,0,1-.81,3.85.25.25,0,0,1-.16.14,2.07,2.07,0,0,1-.89-.21c-.11-.06-.15-.08-.17-.13a.34.34,0,0,1,0-.19,27.34,27.34,0,0,0,1.34-8,13.45,13.45,0,0,0-2.7,1.53.4.4,0,0,1-.14.09c-.18.05-.46-.3-.84-1.08a17,17,0,0,0,3-1.31l.63-.28A14.45,14.45,0,0,0,698.84,1538.91Zm7.65.44a7.55,7.55,0,0,0-1.85-1.14c-.09,0-.15-.09-.16-.12s0,0,.19-.34.19-.27.27-.29.39,0,.91.31a5.32,5.32,0,0,1,1.31.87,1.5,1.5,0,0,1-.49.8S706.56,1539.44,706.49,1539.35Zm2.35,4.77a9.72,9.72,0,0,0-3.62-3.14.18.18,0,0,1-.12-.1,1.64,1.64,0,0,1,.49-.84,6.84,6.84,0,0,1,2,1.1,7.51,7.51,0,0,1,2.16,2.18c0,.08,0,.16-.13.34a1.81,1.81,0,0,1-.55.57C709,1544.25,708.9,1544.23,708.84,1544.12ZM706,1536a5.36,5.36,0,0,1,2.15,1.19c0,.1,0,.14-.23.44s-.23.28-.28.29a.1.1,0,0,1-.12,0,6.52,6.52,0,0,0-1.9-1.17.14.14,0,0,1-.1-.08C705.49,1536.51,705.85,1536,706,1536Z"/><path class="cls-4" d="M657.44,1587.92a17.65,17.65,0,0,0-2.09-1.31,10.6,10.6,0,0,1-2.22,4,4.07,4.07,0,0,0-.94-.65,9.45,9.45,0,0,0,2.24-3.84,16.38,16.38,0,0,0-3.06-1.09,25,25,0,0,0,.21-4.84l-.46.13a9.41,9.41,0,0,0-1.28.46l-.3-1.08a7.41,7.41,0,0,0,1.42-.3l.58-.17a17.46,17.46,0,0,0-.43-3.12,1.61,1.61,0,0,0-.08-.23l1.18-.21c0,.24,0,.52.12,1s.16,1.56.22,2.26l1.37-.4a12.66,12.66,0,0,0,1.41-.47c0,.21,0,.21.15.74a16.83,16.83,0,0,1,.13,6.75,18.1,18.1,0,0,1,2.26,1.29Zm-4.85-8a31.29,31.29,0,0,1-.14,4.43,20.33,20.33,0,0,1,2.23.81,15.53,15.53,0,0,0-.14-5.8Zm7.23.06a11.27,11.27,0,0,0-.54-1.5l.55-.16a12,12,0,0,0,1.7-3.33l-4.47,1.29a11.4,11.4,0,0,0-1.52.53l-.33-1.13a9.28,9.28,0,0,0,1.63-.36l4.08-1.17a5.16,5.16,0,0,0,1.19-.43l.81.57c-.08.15-.08.15-.6,1.44a16.62,16.62,0,0,1-1.72,3.12l.44,1.52,2.62-.75a7,7,0,0,0,1.39-.51l.33,1.14a7.07,7.07,0,0,0-1.45.3l-2.62.76,1.48,5.18c.3,1,.09,1.35-1.2,1.72-.43.12-1,.25-1.91.42a3.75,3.75,0,0,0-.54-1,16.44,16.44,0,0,0,2.09-.36c.53-.16.61-.23.53-.51l-1.47-5.15-2.12.61a7.61,7.61,0,0,0-1.4.51l-.32-1.12a7.37,7.37,0,0,0,1.44-.33l2.13-.61Z"/><path class="cls-4" d="M677.84,1578.19c.12,0,.15.1.17.18a2.2,2.2,0,0,1-.08.75c-.07.33-.16.5-.3.54a.22.22,0,0,1-.13,0,8.28,8.28,0,0,0-4.41.16c-2,.56-2.88,1.43-2.59,2.44.35,1.2,2.33,1.46,5.07.67.41-.12.77-.24,1.51-.51a4.61,4.61,0,0,0-.11,1c0,.26-.06.3-.65.47-3.88,1.11-6.33.64-6.89-1.31-.46-1.6.71-2.92,3.27-3.65a9.57,9.57,0,0,1,3.83-.33,14.51,14.51,0,0,1-3.19-2.25,25.57,25.57,0,0,1-5,2.11c-.29.09-.32.06-.71-.85a23,23,0,0,0,4.94-2,18.8,18.8,0,0,1-1.4-1.65,31.45,31.45,0,0,1-3.91,1.63c-.13,0-.17,0-.28-.19a7.23,7.23,0,0,1-.29-.69,25.71,25.71,0,0,0,3.88-1.54c-.12-.16-.24-.34-.58-.85a5.13,5.13,0,0,0-.83-1,6.08,6.08,0,0,1,1.19-.5c.2-.06.28,0,.32.12a1.1,1.1,0,0,0,0,.16.35.35,0,0,0,0,.12,7.75,7.75,0,0,0,.84,1.47,16.11,16.11,0,0,0,1.83-1.13l1.28-1s.05,0,.06,0,.1,0,.27.23a3.44,3.44,0,0,1,.36.54s0,.1-.1.15a22.58,22.58,0,0,1-3.13,2,18.62,18.62,0,0,0,1.37,1.62,13.14,13.14,0,0,0,2.88-2.25c.06-.07.08-.08.11-.09a2.61,2.61,0,0,1,.65.78s0,.07,0,.12a15.83,15.83,0,0,1-2.82,2.17,15.46,15.46,0,0,0,3.11,2.16Z"/><path class="cls-4" d="M689.25,1566.88a16.49,16.49,0,0,0,1.71-.83.34.34,0,0,1,.11,0,.23.23,0,0,1,.25.07,4.38,4.38,0,0,1,.5.87c0,.15,0,.18-.3.27a6.19,6.19,0,0,0-2.62,1.52,6.63,6.63,0,0,0-1.75,6.32c.45,1.57,1.66,2.43,3.58,2.6a6.43,6.43,0,0,0,1.94-.1.18.18,0,0,1,.22.14,3.41,3.41,0,0,1,.08,1c0,.13-.05.2-.17.23a9.71,9.71,0,0,1-2,0,4.77,4.77,0,0,1-4.74-3.62,6.64,6.64,0,0,1,.33-4.46,8.2,8.2,0,0,1,1.47-2.23c-5.68,2.74-6.55,3.18-7.22,3.77a.72.72,0,0,1-.26.16c-.15,0-.21,0-.38-.16a3.83,3.83,0,0,1-.75-1.05,30.76,30.76,0,0,0,3.82-1.61Zm.84,3.29a.36.36,0,0,0,.1-.13c.19-.24.25-.31.34-.32a3.34,3.34,0,0,1,1.12.54,5.12,5.12,0,0,1,1,.78c0,.07,0,.13-.11.26a1.55,1.55,0,0,1-.4.51c-.07,0-.11,0-.21-.08a6.16,6.16,0,0,0-1.77-1.28c-.08,0-.13-.07-.14-.12A.22.22,0,0,1,690.09,1570.17Zm3.63-.47c0,.1,0,.15-.28.46s-.18.23-.25.25-.09,0-.17-.08a5.58,5.58,0,0,0-1.79-1.27c-.06,0-.08,0-.09-.08s.36-.59.5-.63A5.16,5.16,0,0,1,693.72,1569.7Z"/><path class="cls-4" d="M701.51,1565.75a34.09,34.09,0,0,0-6.09,2.46.51.51,0,0,1-.2.11c-.15,0-.38-.3-.72-1.13l.25-.07c.42-.12.88-.29,1.76-.63,1-.41,3.36-1.23,4.71-1.69a8.69,8.69,0,0,0-.89-2.53c1.19-.29,1.5-.32,1.55-.14s0,.1,0,.24c-.06.3-.06.3.39,2.1.41-.14,3.91-1.2,4.75-1.44.33-.09.41-.12.45-.09s.11.13.17.34c.17.6.18.68.08.71l-.05,0c-.26,0-1.65.38-2.53.63-1.07.31-2.16.64-2.61.79,0,.15.3,1.11.84,3a6.16,6.16,0,0,1,.9,1.83,5.11,5.11,0,0,1-.49,4.21,6.34,6.34,0,0,1-1.89,2.08c-.11,0-.15,0-.45-.14a2.65,2.65,0,0,0-.81-.27,8.17,8.17,0,0,0,1.66-1.49,5.79,5.79,0,0,0,.89-1.59,5.65,5.65,0,0,0,.25-1.56,1.71,1.71,0,0,1-1.23,1.2,2.3,2.3,0,0,1-2.91-1.86,2.37,2.37,0,0,1,1.52-3.21,1.56,1.56,0,0,1,1.29.06c-.12-.43-.19-.64-.25-.86l-.16-.58Zm-1.26,4.81c.28,1,.94,1.41,1.78,1.16s1-.86.75-1.85-.92-1.53-1.68-1.31S700,1569.58,700.25,1570.56Z"/><path class="cls-4" d="M716,1568.57l-.93.27-3.09-9.72,1.5-.43Zm1.21,2.37a1,1,0,0,1-.66,1.22,1,1,0,0,1-1.23-.68,1,1,0,0,1,1.89-.54Z"/><g class="cls-5"><path d="M933,1445.16c-2,3-3.71,5.73-5.59,8.27a2.9,2.9,0,0,1-2.36.89c-3.91-.71-7.78-1.62-11.8-2.49-1.19-4,.64-7.5,2-11,.25-.66,1.42-1.13,2.25-1.38,2.52-.76,5.08-1.37,7.81-2.08.06-4.82,3-6.22,7.08-6.4,2.25-.11,4.48-.63,6.73-.84a6.25,6.25,0,0,1,2,.4c0,3.28.1,6.27-.06,9.25-.26,4.78-.5,4.94-5.09,5.08-.66,0-1.32.09-2,.17S932.9,1445.17,933,1445.16Zm-8.12-5c-8.36,2-8.79,2.41-9.38,9.33l10.24,2.25c1-2.3,3.31-3.64,3.38-6.31l-4.94-1Zm3.66-6c-.35,2.8-.68,5.46-1.07,8.61l11.08-1c-.27-3.2-.49-6-.76-9.19Z"/><path d="M1084.27,1411.08c1.62,5.88-.81,11.1-3.39,16.35a118.32,118.32,0,0,0-27.06,1.11c-1.15.18-2.14.37-2.75-.85s.42-1.85,1.15-2.63c3.18-3.4,6.39-6.79,9.4-10.33a5.82,5.82,0,0,1,4.74-2.27C1072.05,1412.27,1077.72,1411.62,1084.27,1411.08Zm-26.72,13.62,21.6-.56c1.45-3,3.65-6.16,3-10.15-.31-.14-.56-.37-.78-.35-5.17.51-10.34,1-15.49,1.65a4.71,4.71,0,0,0-2.39,1.76c-1.4,1.58-2.68,3.28-4,5C1058.87,1422.83,1058.28,1423.69,1057.55,1424.7Z"/><path d="M984.63,1407.19c.39-6.6.76-12.79,1.15-19.19l24.75-4c-.81,3.67-1.87,7.28-2.35,11s-.43,7.7-.62,11.85C1000.17,1407.89,992.62,1404.83,984.63,1407.19Zm2.27-3.92c6.37.58,12.24,1.14,18.25,1.1.57-6,1.1-11.69,1.65-17.56l-18.7,3C987.69,1394.33,987.32,1398.54,986.9,1403.27Z"/><path d="M945.26,1413.27c1.9-4.51-1.19-9,.83-13.65,6.33,1.75,12.94.85,19.93,1.83-3.77,4.21-2.16,9.21-4.11,13.25C959.05,1415.38,948.21,1414.53,945.26,1413.27Zm16-9.56-13.27-1.14c.25,3.26.45,6,.67,8.92l11.45,1C960.46,1409.47,960.81,1406.78,961.21,1403.71Z"/><path d="M967.77,1503.72c-4.5.52-9.22,1.1-13.95,1.56-.8.07-2.05-.18-2.37-.71s.13-1.71.56-2.4c2.22-3.62,4.62-7.13,6.8-10.77,1-1.63,2.08-2.2,3.93-1.69,2.17.59,4.44.84,6.6,1.49s2.79,2.26,1.9,4.4C970.18,1498.16,969.07,1500.69,967.77,1503.72Zm-2.57-1.93,3-8.35a44,44,0,0,0-5.09-.8,3,3,0,0,0-2.31,1.08c-1.55,2.44-2.87,5-4.49,7.94Z"/><path d="M954.5,1459c.83-1.34,1.18-1.89,1.51-2.45l4.7-7.85c4.1-1.05,8.2-2.13,12.32-3.12,1.13-.27,2.41-.61,3.21.77s.17,2.5-.77,3.59a14.78,14.78,0,0,0-2.35,3.21c-1.59,3.49-4.38,5.08-8,5.61-2.24.33-4.46.81-6.71,1C957.33,1459.8,956.21,1459.32,954.5,1459Zm18.26-10.69c-2.54.61-4.56,1.22-6.63,1.56-3.6.57-5.38,2.76-6.18,6.15C966.79,1456.86,970.36,1454.79,972.76,1448.28Z"/><path d="M874.64,1518.9l7.21-12.91,9.72-.27a3.44,3.44,0,0,1,1.09,4.38c-.91,2.07-1.59,4.24-2.52,6.29a2.82,2.82,0,0,1-1.62,1.53c-3.77.72-7.57,1.33-11.37,1.84C876.48,1519.84,875.73,1519.29,874.64,1518.9Zm5.2-2.58c7.21-.19,7.64.35,9.92-7.33-5.86-1.15-5.86-1.15-8.25,3.76C881,1513.8,880.51,1514.87,879.84,1516.32Z"/><path d="M1061.22,1357.09l10.32-12.42,13.94,2.37c.16,5.73-4,9.19-6.4,13.59Zm4.31-1.5,12,2.45a27,27,0,0,0,5.83-9.43c-3.16-.6-6-1.15-8.88-1.67a2.82,2.82,0,0,0-3.19,1C1069.51,1350.43,1067.63,1352.82,1065.53,1355.59Z"/><path d="M928.62,1508.54c-.36,1.36-.54,2.31-.88,3.2-.53,1.35-1.48,2.6-1.71,4-.4,2.43-1.81,3.32-4,3.64-3,.42-6,1-9,1.43a7.33,7.33,0,0,1-2.21-.38c.2-.82.12-1.94.64-2.42a18.05,18.05,0,0,0,4.38-7.5c.56-1.62,1.45-2.22,3.29-2.06C922,1508.69,924.89,1508.53,928.62,1508.54Zm-12.57,8.79,5.23-.57c1.27-2,2.28-3.67,3.5-5.61l-5.65.17C918.1,1513.33,917.27,1515,916.05,1517.33Z"/><path d="M886.65,1467.4c4.36-.29,8.18-.6,12-.75.49,0,1,.72,1.6,1.16-1.18,3.72-2.32,7.33-3.45,10.91l-13.33.23C884.59,1474.89,885.6,1471.23,886.65,1467.4Zm10,2.07-7.89.21c-.51,2-1,4-1.57,6.35l7.94-.13C895.66,1473.77,896.09,1471.91,896.67,1469.47Z"/><path d="M924.54,1482.21c1.3-4.45,3.51-7.71,5.6-11,3,.29,5.73.58,8.48.81,1.82.16,2.07,1.14,1.76,2.74-.79,4.09-3.9,6.79-6.11,10.52Zm7-8.24c-1.31,2.32-2.46,4.35-3.73,6.62l5.07,1.87c1.08-2.81,4.51-3.91,4.48-7.67Z"/><path class="cls-6" d="M924.85,1440.2l-.7,4.24,4.94,1c-.07,2.67-2.36,4-3.38,6.31l-10.24-2.25C916.06,1442.61,916.49,1442.17,924.85,1440.2Z"/><path class="cls-6" d="M928.51,1434.16l9.25-1.57c.27,3.24.49,6,.76,9.19l-11.08,1C927.83,1439.62,928.16,1437,928.51,1434.16Z"/><path class="cls-6" d="M1057.55,1424.7c.73-1,1.32-1.87,2-2.7,1.3-1.67,2.58-3.37,4-5a4.71,4.71,0,0,1,2.39-1.76c5.15-.68,10.32-1.14,15.49-1.65.22,0,.47.21.78.35.65,4-1.55,7.11-3,10.15Z"/><path class="cls-6" d="M986.9,1403.27c.42-4.73.79-8.94,1.2-13.5l18.7-3c-.55,5.87-1.08,11.51-1.65,17.56C999.14,1404.41,993.27,1403.85,986.9,1403.27Z"/><path class="cls-6" d="M961.21,1403.71c-.4,3.07-.75,5.76-1.15,8.77l-11.45-1c-.22-2.93-.42-5.66-.67-8.92Z"/><path class="cls-6" d="M965.2,1501.79l-8.87-.13c1.62-2.91,2.94-5.5,4.49-7.94a3,3,0,0,1,2.31-1.08,44,44,0,0,1,5.09.8Z"/><path class="cls-6" d="M972.76,1448.28c-2.4,6.51-6,8.58-12.81,7.71.8-3.39,2.58-5.58,6.18-6.15C968.2,1449.5,970.22,1448.89,972.76,1448.28Z"/><path class="cls-6" d="M879.84,1516.32c.67-1.45,1.16-2.52,1.67-3.57,2.39-4.91,2.39-4.91,8.25-3.76C887.48,1516.67,887.05,1516.13,879.84,1516.32Z"/><path class="cls-6" d="M1065.53,1355.59c2.1-2.77,4-5.16,5.74-7.63a2.82,2.82,0,0,1,3.19-1c2.86.52,5.72,1.07,8.88,1.67a27,27,0,0,1-5.83,9.43Z"/><path class="cls-6" d="M916.05,1517.33c1.22-2.37,2.05-4,3.08-6l5.65-.17c-1.22,1.94-2.23,3.57-3.5,5.61Z"/><path class="cls-6" d="M896.67,1469.47c-.58,2.44-1,4.3-1.52,6.43l-7.94.13c.58-2.36,1.06-4.31,1.57-6.35Z"/><path class="cls-6" d="M931.58,1474l5.82.82c0,3.76-3.4,4.86-4.48,7.67l-5.07-1.87C929.12,1478.32,930.27,1476.29,931.58,1474Z"/></g><path class="cls-3" d="M328.44,984.23s-6.13,1.22-5.31-7.78,11.61-18.89,19.84-29.86c7.36-9.82,30.06-70.36-55-54-72,13.91-110.45,20.46-104.72,48.27s6.13,66.27,118.63,36.41c10.64-5.32,14.32,3.68,20.87,8.18"/><path class="cls-4" d="M220.8,931.29c-.66.11-1,.2-1.59.34l-.18-1a12.72,12.72,0,0,0,1.68-.18l8.42-1.44a10.43,10.43,0,0,0,1.61-.38l.17,1a15.11,15.11,0,0,0-1.58.2l-4,.68.17,1,4.8-.82a10.9,10.9,0,0,0,1.75-.39,11.74,11.74,0,0,0,.16,1.24l.16,1a7,7,0,0,0,.3,1.2l-1,.18-.43-2.54-5.56.95.33,2a8.89,8.89,0,0,0,.36,1.57l-1.17.2a8.84,8.84,0,0,0-.17-1.6l-.33-1.95-5.27.9.44,2.54-1.05.18a6.32,6.32,0,0,0-.11-1.24l-.16-1a9.86,9.86,0,0,0-.28-1.23,10.93,10.93,0,0,0,1.79-.21l4.5-.77-.17-1Zm-.34,2.71c.35,0,.5,0,1-.12l1.51-.26a8.5,8.5,0,0,0,1-.21l.13.77a9.12,9.12,0,0,0-1,.11l-1.5.26a6.87,6.87,0,0,0-1,.22Zm1.93,8,.16.91-1.1.19a8.18,8.18,0,0,0-.14-1.4l-.51-3c-.1-.59-.21-1-.31-1.44a10.34,10.34,0,0,0,1.41-.17l8.17-1.4a10.5,10.5,0,0,0,1.46-.32c0,.4.09.84.2,1.47l.4,2.37a9.09,9.09,0,0,0,.25,1.15,13,13,0,0,0-1.5.19l-3.72.63.19,1.12c.07.39.4.39,2.68,0,1.93-.33,2.78-.57,3-.83s.18-.69,0-2a4.92,4.92,0,0,0,1.07.27c.19,1.3.13,2-.23,2.34s-1.31.67-3.85,1.11c-3,.51-3.44.44-3.6-.5l-.23-1.36Zm-1.66-6.47a6.8,6.8,0,0,0,1-.12l1.5-.25a8.27,8.27,0,0,0,1-.22l.13.78a7.34,7.34,0,0,0-1,.11l-1.51.26a6.26,6.26,0,0,0-1,.22Zm1,2.41.2,1.17,3.79-.65-.2-1.17Zm.33,1.95.22,1.3,3.79-.65-.22-1.3Zm8.8-2.31-.2-1.17-4.16.72.2,1.16Zm-4-4.7a7,7,0,0,0,1-.12l1.77-.3a6.28,6.28,0,0,0,.94-.22l.13.78a6.45,6.45,0,0,0-1,.11l-1.78.31a8.26,8.26,0,0,0-1,.21Zm4.4,6.78-.23-1.3-4.16.71.22,1.3Zm-4.13-5.19a8.84,8.84,0,0,0,1-.12l1.77-.3a6.94,6.94,0,0,0,.94-.22l.14.78a7.22,7.22,0,0,0-1,.11l-1.78.31a6.75,6.75,0,0,0-1,.21Z"/><path class="cls-4" d="M241.42,928a8.65,8.65,0,0,0-.38-1.54l1.23-.21a8.86,8.86,0,0,0,.15,1.58l0,.2,4.88-.84a7.92,7.92,0,0,0,1.64-.4l.19,1.13a12.76,12.76,0,0,0-1.67.18l-4.89.84.24,1.41,3.32-.57a12.26,12.26,0,0,0,1.83-.4,12.8,12.8,0,0,0,.22,1.72l.43,2.54a16,16,0,0,0,.36,1.69,13.41,13.41,0,0,0-1.87.23l-3.3.57.24,1.44,5.06-.87a8.16,8.16,0,0,0,1.66-.4l.19,1.15a10.84,10.84,0,0,0-1.69.18l-5.06.87.14.77a8.19,8.19,0,0,0,.42,1.78l-1.23.21a9.67,9.67,0,0,0-.19-1.81l-.13-.78-4.81.82a12,12,0,0,0-1.64.38l-.19-1.14a8.76,8.76,0,0,0,1.67-.17l4.81-.82-.25-1.44-3,.51a12.16,12.16,0,0,0-1.88.41,13,13,0,0,0-.22-1.72l-.43-2.5a13.51,13.51,0,0,0-.37-1.73,12.29,12.29,0,0,0,1.83-.22l3.09-.53-.24-1.41-4.68.8a12.06,12.06,0,0,0-1.63.38l-.19-1.13a9.09,9.09,0,0,0,1.68-.16l4.67-.8Zm-3.24,4,.27,1.57,3.82-.65-.27-1.57Zm.42,2.43.27,1.6,3.82-.66-.27-1.59Zm8.75-2.38-.27-1.57-4.08.69.27,1.58Zm.42,2.45-.28-1.59-4.07.7.27,1.59Z"/><path class="cls-4" d="M262,924.73a15.41,15.41,0,0,0,1.79-.64l.11,0a.24.24,0,0,1,.24.09,5.2,5.2,0,0,1,.41.93c0,.15,0,.17-.33.23a6.17,6.17,0,0,0-2.77,1.22,6.62,6.62,0,0,0-2.44,6.09c.28,1.61,1.39,2.6,3.28,3a6.42,6.42,0,0,0,1.93.12.16.16,0,0,1,.2.16,3.18,3.18,0,0,1,0,1c0,.13-.07.19-.19.21a10.29,10.29,0,0,1-2.05-.17,4.78,4.78,0,0,1-4.31-4.12,6.68,6.68,0,0,1,.82-4.41,8.38,8.38,0,0,1,1.7-2.05c-5.94,2.1-6.86,2.45-7.59,3a.57.57,0,0,1-.27.14c-.16,0-.22,0-.37-.2a4.59,4.59,0,0,1-.63-1.13,32,32,0,0,0,4-1.18Zm.47,3.37.12-.13c.2-.21.28-.27.37-.27a3.21,3.21,0,0,1,1.05.66,4.93,4.93,0,0,1,.92.88c0,.07,0,.13-.13.25a1.54,1.54,0,0,1-.46.46c-.07,0-.11,0-.2-.1a6.29,6.29,0,0,0-1.62-1.47c-.08,0-.12-.08-.13-.13S262.45,928.16,262.51,928.1Zm3.66-.07c0,.1,0,.14-.33.42s-.21.21-.27.22-.09,0-.16-.09a5.5,5.5,0,0,0-1.64-1.46c-.06,0-.08-.06-.09-.09s.43-.55.57-.57A5.15,5.15,0,0,1,266.17,928Z"/><path class="cls-4" d="M273.29,922l2.14,12.51-1.3.23L272,922.23Z"/><path class="cls-4" d="M281.52,922.11a11.52,11.52,0,0,0-.33-1.54c.34,0,.34,0,1.5-.2l1.2-.21a14.28,14.28,0,0,0,1.46-.3,11,11,0,0,0,.22,1.6l1.52,8.91c.13.76.23,1.21.32,1.55l-1,.17-.14-.81-2.13.36.22,1.32-1.05.18a11.21,11.21,0,0,0-.19-1.72Zm1.56,3.29,2.11-.36L284.5,921l-2.12.36Zm.91,5.33,2.11-.36-.76-4.45-2.11.36Zm4.22-9.34a11.58,11.58,0,0,0-1.54.35l-.19-1.08a9.74,9.74,0,0,0,1.56-.16l1.74-.3-.09-.53a8,8,0,0,0-.33-1.28l1.19-.2a7.42,7.42,0,0,0,.14,1.31l.09.53,2.3-.4a9,9,0,0,0,1.52-.36l.18,1.08a14.84,14.84,0,0,0-1.55.18l-2.3.39.36,2.12,2.88-.49a11.06,11.06,0,0,0,1.62-.39l.19,1.1a11.62,11.62,0,0,0-1.61.17l-.52.09.32,1.9.51-.09a9.41,9.41,0,0,0,1.57-.37l.19,1.11a12,12,0,0,0-1.61.17l-.5.09.78,4.57c.17,1-.16,1.33-1.61,1.58l-1.52.21a3.26,3.26,0,0,0-.42-1.05,10.37,10.37,0,0,0,1.86-.12c.62-.11.73-.2.67-.53l-.76-4.49-4.59.79a11.25,11.25,0,0,0-1.6.37l-.19-1.11a10.53,10.53,0,0,0,1.64-.18l4.58-.78-.32-1.9-4.59.79a11.15,11.15,0,0,0-1.6.38l-.19-1.1a10.38,10.38,0,0,0,1.66-.18l2.16-.37-.36-2.12Zm2.92,9.54a14.17,14.17,0,0,0-2.72-2.33l.7-.71a17,17,0,0,1,2.78,2.25Z"/><path class="cls-4" d="M301.22,929.4a10,10,0,0,0,.41,1.81l-1.19.21a12.23,12.23,0,0,0-.21-1.85l-1.8-10.49a16.83,16.83,0,0,0-.37-1.78,14,14,0,0,0,1.7-.22l2.33-.4a11.4,11.4,0,0,0,1.65-.35c.05.48.11,1,.22,1.57l.34,2c.11.64.2,1.06.31,1.5-.53.05-1,.12-1.67.23l-3,.5Zm-1.73-10.11,3.64-.63-.22-1.3-3.64.62Zm.36,2.08,3.64-.63-.23-1.3-3.64.62Zm9.57,4.7c.12.66.21,1.08.31,1.48-.43,0-1,.12-1.68.23l-3.54.61.2,1.13-1,.17a12.58,12.58,0,0,0-.17-1.53l-.62-3.62c-.1-.56-.2-1.08-.31-1.52a14.8,14.8,0,0,0,1.61-.2l3-.51a13.75,13.75,0,0,0,1.61-.35c0,.45.09.88.21,1.54Zm-5.45-.88,4.23-.72L308,923l-4.23.72Zm.4,2.38,4.23-.72-.27-1.57-4.23.72Zm9,0c.18,1.07-.11,1.39-1.44,1.62-.38.07-1.18.17-1.62.23a4.23,4.23,0,0,0-.48-1c.76,0,1.48-.1,1.8-.15.68-.12.8-.21.73-.6l-1.27-7.44-3.33.57c-.69.12-1.1.21-1.63.33-.05-.46-.11-.92-.21-1.51l-.34-2c-.1-.57-.2-1-.32-1.54a13.71,13.71,0,0,0,1.67-.22l2.67-.46a12.29,12.29,0,0,0,1.7-.36c.05.62.11,1.1.23,1.81Zm-6.76-9.52,4-.68-.22-1.3-4,.68Zm.36,2.08,4-.68-.22-1.3-4,.68Z"/><path class="cls-4" d="M319.13,923.48a.4.4,0,0,1,.15.26,3,3,0,0,1-.1.8,13.68,13.68,0,0,0-.22,2.79c0,.24,0,.3-.15.35a3.65,3.65,0,0,1-.69.17c-.18,0-.2,0-.48-.59a16.38,16.38,0,0,1-1.26-4.18A30.94,30.94,0,0,1,316,917a15.43,15.43,0,0,0,0-2.2c.93,0,1.47.15,1.51.35s0,.09-.07.29c-.42,1.15-.41,5.14,0,7.63a18.82,18.82,0,0,0,.7,2.75c.13-.65.2-1.06.32-1.59.16-.88.16-.88.26-1.4A1.69,1.69,0,0,0,319.13,923.48Zm3-5.21-.27.05-.9.14c-.17,0-.22,0-.26-.1a4,4,0,0,1-.22-.78l0-.17c.65-.06,1-.09,1.5-.18.84-.15,1.53-.3,2.36-.53-.09-.58-.15-.91-.21-1.27s-.08-.44-.11-.62a10.23,10.23,0,0,0-.33-1.44,5.13,5.13,0,0,1,1.28,0c.14,0,.22.06.24.17a.34.34,0,0,1,0,.23,7.18,7.18,0,0,0,.19,2.66,19.41,19.41,0,0,0,2.31-.88l.11,0c.07,0,.11,0,.14.09a5.14,5.14,0,0,1,.22.79c0,.14,0,.18-.13.23a23.36,23.36,0,0,1-2.47.88c.22,1.27.56,2.92,1,4.87a12.94,12.94,0,0,1,3.25,1.16c.17.09.25.16.27.26a1.1,1.1,0,0,1-.17.52c-.24.46-.24.46-.32.47s-.07,0-.62-.31a11,11,0,0,0-2.18-1,1.79,1.79,0,0,1,.08.35c.26,1.52-.64,2.58-2.43,2.89s-2.87-.36-3.09-1.65.78-2.41,2.52-2.71a5.51,5.51,0,0,1,1.56-.11c-.52-2.47-.59-2.86-.91-4.51C323.57,918,322.68,918.18,322.11,918.27Zm1.93,5.09c-1.22.21-1.85.77-1.73,1.5s.84,1,1.9.84,1.64-.81,1.46-1.89c-.06-.34-.08-.45-.1-.45A3.94,3.94,0,0,0,324,923.36Z"/><path class="cls-4" d="M237.46,963.74a.47.47,0,0,1,0,.1c0,.12-.62.59-.87.63-.1,0-.17-.05-.52-.69a4.89,4.89,0,0,1-2.78,1.76,1.76,1.76,0,0,1-2.1-1.69,5.23,5.23,0,0,1,1.35-4.24,8.48,8.48,0,0,1,1.76-1.64c-.12-.67-.27-1.64-.38-2.51-.91.21-2,.42-2.78.56-.17,0-.22,0-.27-.07a3,3,0,0,1-.19-.72c0-.05,0-.12,0-.2.69-.07,1-.1,1.49-.19s.92-.17,1.68-.34c-.13-1.12-.2-1.77-.23-1.92a3.4,3.4,0,0,0-.09-.46,9.86,9.86,0,0,1,1.31-.07.17.17,0,0,1,.18.15.69.69,0,0,1,0,.25,4.78,4.78,0,0,0-.05,1.78,27.22,27.22,0,0,0,4.44-1.54,2.37,2.37,0,0,1,.39-.17s.09,0,.11.12.17.62.21.83,0,.13-.75.41a40.56,40.56,0,0,1-4.3,1.33c.08.77.2,1.67.28,2.16a8.54,8.54,0,0,1,2.61-.91,5.3,5.3,0,0,0,0-1.27c1,.06,1.35.12,1.37.27s0,.09-.08.31a3.07,3.07,0,0,0-.12.56,4.81,4.81,0,0,1,2.34.44,4,4,0,0,1,2.2,3c.33,1.89-.64,3.61-2.77,5a5.54,5.54,0,0,1-1.2.61.38.38,0,0,1-.35-.11,2.09,2.09,0,0,0-.86-.55,8.41,8.41,0,0,0,2.52-1.43,3.58,3.58,0,0,0,1.49-3.4,3.17,3.17,0,0,0-3.48-2.66,14.12,14.12,0,0,1-2.06,5.59A5.27,5.27,0,0,0,237.46,963.74ZM234.54,959c-1.57,1.31-2.48,3.12-2.25,4.49.12.66.54,1,1.09.93a4.38,4.38,0,0,0,2.26-1.72A20.45,20.45,0,0,1,234.54,959Zm1.84,2.61a11.7,11.7,0,0,0,1.48-4.27,8.38,8.38,0,0,0-2.38,1A20,20,0,0,0,236.38,961.61Z"/><path class="cls-4" d="M248.46,955.7a14.1,14.1,0,0,1,4.47-1.63,3.87,3.87,0,0,1,2.66.38,3.12,3.12,0,0,1,1.39,2.09,4,4,0,0,1-1.21,3.62,9.38,9.38,0,0,1-3,1.83,7.55,7.55,0,0,1-1.15.37c-.15,0-.15,0-.34-.27a2.27,2.27,0,0,0-.57-.59,10.59,10.59,0,0,0,3.53-1.63,3.16,3.16,0,0,0,1.53-3.08c-.23-1.32-1.32-2-2.84-1.72a13.58,13.58,0,0,0-4.54,1.94,5.11,5.11,0,0,0-1.1.83.4.4,0,0,1-.2.14c-.22,0-.65-.45-1.06-1.21A22.17,22.17,0,0,0,248.46,955.7Z"/><path class="cls-4" d="M263.19,947.26c.18,0,.27.06.29.16a1.43,1.43,0,0,1,0,.21,5.24,5.24,0,0,0,.1,1.19,17.31,17.31,0,0,0,.67,2.47c.28.77.54,1,1,1a6.61,6.61,0,0,0,2.13-1.29,5.74,5.74,0,0,0,.74-.65c.05,0,.06,0,.11,0s.94.78,1,1.06c0,.1-.06.19-.25.27a20.08,20.08,0,0,0-2.45,1.34c-2.77,1.73-4.06,3.39-3.8,4.88.21,1.26,1.35,1.62,3.77,1.2a24.16,24.16,0,0,0,3.89-1,.4.4,0,0,1,.13,0,.21.21,0,0,1,.23.1,3.49,3.49,0,0,1,.25.86c0,.19,0,.26-.21.33-.64.2-2.52.62-3.67.82a10.4,10.4,0,0,1-3.12.17,2.52,2.52,0,0,1-2.41-2.2,3.75,3.75,0,0,1,.66-2.76,8.3,8.3,0,0,1,2.16-2.23c-.82-.17-1.17-.92-2-4.17a9.41,9.41,0,0,0-.49-1.52A8.09,8.09,0,0,1,263.19,947.26Z"/><path class="cls-4" d="M274.5,947.33s0,0,0,.16a9.47,9.47,0,0,0,.24,2.76c.69,4,1.89,6.56,3,6.36.73-.12,1.3-1.32,1.56-3.19a2.86,2.86,0,0,0,.72.94c.1.09.12.12.13.18a2.57,2.57,0,0,1-.15.87c-.4,1.42-1.13,2.3-2,2.45-1.11.19-2.12-.59-3-2.3a22.62,22.62,0,0,1-1.54-5.53c-.06-.35-.14-.83-.22-1.41,0-.18-.06-.33-.07-.42a6.89,6.89,0,0,0-.29-1.17C274.1,947,274.46,947.11,274.5,947.33Zm8.27-.09c.31,0,1.39.86,2.18,1.87a11.2,11.2,0,0,1,1.6,2.69,5.74,5.74,0,0,1,.31.8c0,.1,0,.18-.18.29a4.82,4.82,0,0,1-.86.45c-.07,0-.11,0-.15-.12a9.83,9.83,0,0,0-3.7-5.37A2.59,2.59,0,0,1,282.77,947.24Z"/><path class="cls-4" d="M291.48,946.66a10.86,10.86,0,0,1,2.77-1c2.08-.35,3.56.75,3.94,3,.42,2.47-.41,4.44-2.6,6.26a7.7,7.7,0,0,1-1.72,1.07c-.17,0-.19,0-.47-.21a2.28,2.28,0,0,0-.75-.43c3.34-1.74,4.77-3.85,4.34-6.4-.29-1.69-1.23-2.47-2.7-2.22a9.64,9.64,0,0,0-4,2.18.47.47,0,0,1-.24.15c-.22,0-.6-.39-1.12-1.26A14.85,14.85,0,0,0,291.48,946.66Zm-.09-4.43a15,15,0,0,0,4.17.06c.13,0,.15,0,.21.33a3.64,3.64,0,0,1,.05.81.22.22,0,0,1-.17.11,18.44,18.44,0,0,1-4.49-.17c-.55-.1-.61-.12-.63-.22a3.37,3.37,0,0,1,.1-.66c.06-.24.09-.3.19-.32A2,2,0,0,1,291.39,942.23Z"/><path class="cls-4" d="M304.51,952.58a8.52,8.52,0,0,0,.41,1.81l-1.2.2a12.27,12.27,0,0,0-.21-1.84l-1.79-10.49c-.14-.78-.24-1.28-.38-1.78a14,14,0,0,0,1.7-.22l2.34-.4a13.12,13.12,0,0,0,1.64-.35c.05.48.12,1,.22,1.57l.34,2c.11.64.2,1.06.31,1.49-.53.06-1,.12-1.66.24l-3,.5Zm-1.73-10.12,3.63-.62-.22-1.3-3.64.62Zm.35,2.08,3.64-.62-.22-1.3-3.64.62Zm9.58,4.7c.11.66.2,1.08.3,1.48-.42,0-1,.13-1.68.24l-3.53.6.19,1.14-1,.17a13.08,13.08,0,0,0-.18-1.54l-.62-3.62c-.09-.55-.2-1.08-.31-1.51a13.09,13.09,0,0,0,1.62-.21l3-.5a13.75,13.75,0,0,0,1.61-.35c0,.45.1.87.21,1.53Zm-5.46-.87,4.23-.73-.25-1.45-4.23.72Zm.41,2.38,4.23-.72-.27-1.57-4.23.72Zm9,0c.19,1.06-.1,1.39-1.44,1.62l-1.62.23a4.23,4.23,0,0,0-.48-1c.76,0,1.48-.1,1.8-.15.68-.12.8-.21.74-.6l-1.27-7.44L311,944c-.69.12-1.09.2-1.63.33a15,15,0,0,0-.21-1.51l-.34-2c-.1-.57-.19-1-.32-1.55a13,13,0,0,0,1.67-.21l2.68-.46a12.07,12.07,0,0,0,1.69-.36c.05.62.12,1.1.24,1.81Zm-6.76-9.52,4-.68-.23-1.3-4,.68Zm.36,2.08,4-.68-.22-1.3-4,.68Z"/><path class="cls-4" d="M324.41,948.65a2.57,2.57,0,1,1-3-2.1A2.57,2.57,0,0,1,324.41,948.65Zm-4.11.71a1.6,1.6,0,1,0,1.31-1.85A1.6,1.6,0,0,0,320.3,949.36Z"/><path class="cls-3" d="M136.63,1354.94c-5.2-3.9-9.1-15.17,5.2-21.67,29.9-11.7,39-11.26,41.6-39.86S145.3,1254,99.8,1255.27s-65,24.7-66.3,49.4c0,0-1.74,38.14,48.1,37.7,36.83-3,37.26-3.9,50.26,15.6"/><path class="cls-4" d="M82.79,1286c-1.51,3.72-2.4,5-3.61,5.06-.94.09-1.64-.64-1.75-1.84a3.5,3.5,0,0,1,2.15-3.45,6.23,6.23,0,0,1,2.39-.68c.68-1.78,1-2.83,1.62-4.52a13.84,13.84,0,0,0-3.69.74.17.17,0,0,1-.11,0c-.12,0-.2,0-.26-.2a4.65,4.65,0,0,1-.31-1.12,11.93,11.93,0,0,0,1.2,0,15.34,15.34,0,0,0,3.63-.67c.13-.1.16-.12.25-.13s.37.1.63.39a1.23,1.23,0,0,1,.36.52c0,.09-.05.18-.2.31a1.48,1.48,0,0,0-.32.56c-.28.72-1.42,3.59-1.6,4.08a12.06,12.06,0,0,1,4.38.83,10,10,0,0,0,0-1.89c0-.37-.08-.63-.14-.93a6.26,6.26,0,0,1,1.27.16c.13,0,.18.09.19.16a.92.92,0,0,1-.07.38,3.46,3.46,0,0,0-.1.94,10.32,10.32,0,0,1-.12,1.61,6.39,6.39,0,0,1,2.54,1.58,1.87,1.87,0,0,1-.3.69c-.11.14-.19.22-.25.23a.56.56,0,0,1-.31-.13,14.91,14.91,0,0,0-1.92-1.23,7.75,7.75,0,0,1-2.26,3.76,6.64,6.64,0,0,1-1.78,1.26c-.11,0-.18,0-.31-.16a1.81,1.81,0,0,0-.77-.48,8.08,8.08,0,0,0,2.8-2.22,7.13,7.13,0,0,0,1.29-2.67A11.81,11.81,0,0,0,82.79,1286Zm-3,.77a2.44,2.44,0,0,0-1.38,2.27c.05.55.33.92.65.89s.69-.34,1.11-1.06a21.06,21.06,0,0,0,1.33-2.69A4.66,4.66,0,0,0,79.84,1286.76Z"/><path class="cls-4" d="M99.34,1277.92c0,.07,0,.1-.17.31a43.38,43.38,0,0,0-3.1,6.72c-.12.29-.22.5-.67,1.44,1.07-1.7,2.06-2.44,3.43-2.57a2,2,0,0,1,2.26,1.58,22.37,22.37,0,0,1,.48,2.33,2.71,2.71,0,0,0,.32,1.07,1.08,1.08,0,0,0,1.11.45,3.25,3.25,0,0,0,2.36-1.77,9.94,9.94,0,0,0,.77-1.73,2.05,2.05,0,0,0,.42,1,.69.69,0,0,1,.13.33,2.74,2.74,0,0,1-.54,1.25,4.06,4.06,0,0,1-3.11,2,2,2,0,0,1-2.25-1.09,8,8,0,0,1-.54-2.19,4.39,4.39,0,0,0-.5-1.71,1.09,1.09,0,0,0-1.1-.54c-1.5.14-3,1.89-3.87,4.43a13.07,13.07,0,0,0-.41,1.57c0,.18-.09.23-.17.24-.31,0-1.11-.3-1.13-.47l.24-.74a19.16,19.16,0,0,0,.68-2c.52-1.58,1.65-4.63,2.58-6.95a17.52,17.52,0,0,0,1.3-3.72C98.69,1277.39,99.33,1277.71,99.34,1277.92Z"/><path class="cls-4" d="M109.53,1280.19c-.09,0-.24,0-.41.07l-.55.07c-.24,0-.27,0-.32-.11a6.6,6.6,0,0,1-.24-1l1-.07a26.46,26.46,0,0,0,2.65-.43,9.81,9.81,0,0,0,.25-3.09,8.39,8.39,0,0,1,1.28.18c.25.06.28.1.29.18a.72.72,0,0,1-.08.27,8,8,0,0,0-.51,2.16,17.15,17.15,0,0,0,2.28-.72.36.36,0,0,1,.13,0c.12,0,.16.09.25.52a1.4,1.4,0,0,1,.06.25.49.49,0,0,1,0,.15c0,.14,0,.18-.34.27l-.15,0c-.58.17-1.81.51-2.5.67a34.56,34.56,0,0,1-2.17,6.21c-.46,1-.71,1.41-.88,1.43s-1-.45-1-.61a.55.55,0,0,1,.12-.32,9.92,9.92,0,0,0,.82-1.42,23.35,23.35,0,0,0,1.85-5C110.27,1280.09,110.14,1280.12,109.53,1280.19Zm8.25.84s0,.07,0,.23a3.81,3.81,0,0,0,0,1.1c.07.77.22,1.81.43,3a10.82,10.82,0,0,1,2.49,1.07c.62.35.8.49.81.61s-.36,1-.53,1-.12,0-.27-.15a9.17,9.17,0,0,0-2.36-1.31,3.26,3.26,0,0,1-.08,1.37,2.5,2.5,0,0,1-2.47,1.67c-1.66.15-2.85-.6-3-1.87s1-2.47,2.79-2.63a6,6,0,0,1,1.44.05c-.19-1.19-.33-2.13-.47-3.27a7.23,7.23,0,0,0-.18-1.08C117.49,1280.8,117.77,1280.86,117.78,1281Zm-2.16,5.11c-1.16.1-1.87.67-1.8,1.44s.72,1.08,1.76,1c1.24-.11,1.71-.74,1.6-2,0-.1,0-.24,0-.24A3.67,3.67,0,0,0,115.62,1286.14Zm2-7.28a1.51,1.51,0,0,1,.12-.2c.15-.28.19-.33.31-.34a9,9,0,0,1,2.39.9c.75.42,1,.62,1,.75a1.78,1.78,0,0,1-.27.74c-.09.16-.17.23-.26.24s-.07,0-.42-.25a8.91,8.91,0,0,0-2.82-1.37c-.13,0-.19-.09-.19-.17A.48.48,0,0,1,117.66,1278.86Z"/><path class="cls-4" d="M133.84,1275.21a14.77,14.77,0,0,0,1.83-.49l.12,0a.25.25,0,0,1,.23.12,4.32,4.32,0,0,1,.33,1c0,.16,0,.18-.34.2a6.44,6.44,0,0,0-2.86,1,6.61,6.61,0,0,0-2.92,5.88c.15,1.63,1.18,2.7,3,3.23a6.55,6.55,0,0,0,1.92.27c.12,0,.18.05.19.17a3.37,3.37,0,0,1-.1,1c0,.12-.09.18-.21.19a10,10,0,0,1-2-.34,4.75,4.75,0,0,1-4-4.44,6.6,6.6,0,0,1,1.16-4.33,8.36,8.36,0,0,1,1.86-1.91c-6.09,1.62-7,1.89-7.8,2.34a.59.59,0,0,1-.29.11c-.15,0-.21,0-.34-.23a4.11,4.11,0,0,1-.54-1.17,33.08,33.08,0,0,0,4.06-.87Zm.2,3.39a.53.53,0,0,0,.13-.11c.22-.19.3-.25.39-.24a3.15,3.15,0,0,1,1,.74,4.89,4.89,0,0,1,.85,1c0,.07,0,.13-.15.24a1.68,1.68,0,0,1-.5.42c-.07,0-.1,0-.18-.12a6.14,6.14,0,0,0-1.51-1.58c-.07-.05-.11-.1-.11-.15A.22.22,0,0,1,134,1278.6Zm3.65.23c0,.1,0,.14-.36.39s-.22.19-.29.2-.09,0-.15-.11a5.56,5.56,0,0,0-1.52-1.58c-.05,0-.07-.06-.08-.1a1.43,1.43,0,0,1,.61-.52A4.91,4.91,0,0,1,137.69,1278.83Z"/><path class="cls-4" d="M48.82,1314.32l.33,3.62a31.09,31.09,0,0,0,3.87-1.33l.07,1a57.67,57.67,0,0,1-6.22,2l-.59.19-.37-1.12a13.74,13.74,0,0,0,2.21-.46l-.69-7.69a12.36,12.36,0,0,0-.18-1.36,16.15,16.15,0,0,1-2.24,1.34,2.72,2.72,0,0,0-.68-.94,15.1,15.1,0,0,0,6.49-5.19l1.13-.1a12,12,0,0,0,3.2,2.28,18.39,18.39,0,0,0,4.37,1.63,3.38,3.38,0,0,0-.54,1.11,22,22,0,0,1-2.59-1,11.66,11.66,0,0,0,.06,1.21l.25,2.82a11.14,11.14,0,0,0,.18,1.32c-.38,0-.83,0-1.53.09l-3,.27a7.24,7.24,0,0,0,2.22,1.87,14,14,0,0,0,2.87-2.93l1,.54a29.6,29.6,0,0,1-3,2.84,12.63,12.63,0,0,0,4.59,1.16,4.84,4.84,0,0,0-.49,1.11,13.57,13.57,0,0,1-6.08-2.26,9.22,9.22,0,0,1-2.22-2.23Zm6-6c.6-.06.82-.08,1.24-.15a15.69,15.69,0,0,1-4.56-3,14.85,14.85,0,0,1-3.79,3.75c.39,0,.61,0,1.13-.09l2.42-.21,0-.55a6.13,6.13,0,0,0-.19-1.26l1.16-.1a5.61,5.61,0,0,0,0,1.27l0,.55Zm-6.26,2.82,7-.63-.12-1.37-7,.63Zm.21,2.36,7-.63-.13-1.49-7,.63Z"/><path class="cls-4" d="M65.14,1308.23c.48-.66.8-.9,1.31-.94a1.36,1.36,0,0,1,.93.2,10.32,10.32,0,0,1,1.53,1.26,30.17,30.17,0,0,0,4.35,3.16,18,18,0,0,0,2.63,1.28.24.24,0,0,1,.17.17,2.38,2.38,0,0,1-.38,1c-.12.18-.17.24-.23.24a12.87,12.87,0,0,1-2.86-1.51,35.41,35.41,0,0,1-5.08-3.92c-.48-.46-.68-.58-.91-.56s-.33.15-.59.52l-.33.48c-.05.07-.19.25-.36.5-.65.93-.82,1.17-1.62,2.28a8.89,8.89,0,0,0-.54.87c-.07.13-.15.21-.25.22s-.78-.42-1.28-1A21.62,21.62,0,0,0,65.14,1308.23Zm5.07-1.9a.45.45,0,0,0,.12-.12c.23-.19.31-.25.4-.24a4.41,4.41,0,0,1,1.3,1,3.37,3.37,0,0,1,.54.69,1.76,1.76,0,0,1-.65.65c-.07,0-.1,0-.18-.12a5.74,5.74,0,0,0-1.52-1.59c-.06-.06-.1-.1-.1-.15S70.14,1306.39,70.21,1306.33Zm1.88-1.48a5.2,5.2,0,0,1,1.79,1.7c0,.1,0,.14-.36.41s-.24.18-.29.18-.09,0-.15-.11a6.55,6.55,0,0,0-1.54-1.58c-.05,0-.07,0-.08-.08S72,1304.84,72.09,1304.85Z"/><path class="cls-4" d="M80,1303.4c.5-.05,2.25-.38,3.82-.73a3.64,3.64,0,0,0,1.39-.46.39.39,0,0,1,.24-.11c.16,0,.36.15.81.68a1,1,0,0,1,.24.44c0,.12,0,.14-.29.37a15.17,15.17,0,0,0-1.8,2.18c-.27.34-1,1.23-2,2.45-.53.67-.64.78-1.16,1.47a6,6,0,0,1,1.92-1.4,5.85,5.85,0,0,1,2.07-.58c2.41-.22,4.11,1.11,4.31,3.32a3.86,3.86,0,0,1-.88,2.9,6.09,6.09,0,0,1-4.17,1.93,3.53,3.53,0,0,1-2.61-.56,1.78,1.78,0,0,1-.63-1.2c-.1-1.1.79-1.95,2.13-2.07s2.46.57,3.22,2.1a3.43,3.43,0,0,0,1.45-1.49,3.06,3.06,0,0,0,.27-1.57c-.15-1.64-1.36-2.53-3.25-2.36a8.6,8.6,0,0,0-5.78,3.82c-.13.19-.19.25-.27.25a2.05,2.05,0,0,1-1-.85c0-.07,0-.14.13-.22a8.4,8.4,0,0,0,1.1-1.17,66.18,66.18,0,0,0,5.3-7c-3.39.77-4.49,1-4.84,1.17a.31.31,0,0,1-.17,0c-.19,0-.43-.54-.56-1.32C79.35,1303.42,79.77,1303.42,80,1303.4Zm3.44,9.61c-.72.07-1.15.45-1.1,1s.87,1,2,.94a4.67,4.67,0,0,0,1.31-.29C85.1,1313.45,84.38,1312.93,83.44,1313Z"/><path class="cls-4" d="M95.79,1301.13c.17,0,.27.08.28.18s0,.11,0,.21a5.13,5.13,0,0,0,0,1.19,19.3,19.3,0,0,0,.47,2.52c.23.79.46,1.07.89,1a6.54,6.54,0,0,0,2.22-1.12,5.74,5.74,0,0,0,.79-.58.31.31,0,0,1,.12,0c.19,0,.87.85.9,1.14,0,.11-.07.18-.27.25a18.75,18.75,0,0,0-2.56,1.15c-2.89,1.5-4.3,3-4.17,4.56.12,1.26,1.23,1.71,3.67,1.49a24.41,24.41,0,0,0,4-.68l.14,0a.2.2,0,0,1,.21.12,3.35,3.35,0,0,1,.19.88c0,.19,0,.26-.23.31-.66.15-2.57.42-3.73.53a10.57,10.57,0,0,1-3.13-.08,2.52,2.52,0,0,1-2.22-2.39,3.74,3.74,0,0,1,.87-2.7,8.63,8.63,0,0,1,2.33-2c-.79-.24-1.09-1-1.66-4.31a8.43,8.43,0,0,0-.37-1.55A6.71,6.71,0,0,1,95.79,1301.13Z"/><path class="cls-4" d="M108.6,1304.48a22.48,22.48,0,0,1-2.7.41c-.24,0-.33,0-.37-.1s-.11-.41-.22-.9c.27,0,.43,0,.6,0a20.9,20.9,0,0,0,2.6-.41,15.69,15.69,0,0,0-.49-3.3c.48,0,.86,0,1.18,0s.38.07.39.19,0,.1-.09.37a9,9,0,0,0,0,2.47,27.43,27.43,0,0,0,2.65-.88l.13,0c.07,0,.11,0,.16.21a4.06,4.06,0,0,1,.16.62.21.21,0,0,1-.15.24,24,24,0,0,1-2.85.88l.27,3.06a12.46,12.46,0,0,1,4.55-1.52,3,3,0,0,1,3.48,2.86c.19,2.14-1,3.52-3.25,3.72a5.28,5.28,0,0,1-1.61-.08c-.14,0-.2-.12-.25-.3a3,3,0,0,0-.35-.88,4.93,4.93,0,0,0,2,.25,2.27,2.27,0,0,0,2.26-2.64,1.94,1.94,0,0,0-2.33-1.92,11.3,11.3,0,0,0-4.42,1.58l.29,3.1c.09,1-.33,1.6-1.15,1.67a3.61,3.61,0,0,1-2.37-.81,1.66,1.66,0,0,1-.73-1.26c-.09-.94.73-1.85,2.88-3.2,0-.34,0-.34-.13-1.42ZM109,1309c-1.48,1-2,1.5-1.94,2s.94,1.08,1.73,1c.32,0,.46-.28.41-.77v-.14Zm9.26-4.54c-.07,0-.11,0-.37-.24a6.65,6.65,0,0,0-2.9-1.43c-.27-.06-.34-.09-.34-.16a2,2,0,0,1,.29-.59c.1-.18.15-.22.27-.23a6.7,6.7,0,0,1,2.3.72,3.4,3.4,0,0,1,1.41,1C118.92,1303.74,118.42,1304.44,118.25,1304.45Z"/><path class="cls-4" d="M122.63,1300.7s0,0,0,.16a9.88,9.88,0,0,0,0,2.77c.37,4.08,1.36,6.68,2.52,6.58.74-.07,1.41-1.22,1.81-3.06a2.78,2.78,0,0,0,.64,1c.09.1.12.13.12.2a3,3,0,0,1-.22.84c-.51,1.4-1.31,2.21-2.24,2.29-1.13.1-2.06-.76-2.76-2.52a23,23,0,0,1-1.09-5.64c0-.36-.07-.84-.11-1.42,0-.19,0-.35,0-.43a6.05,6.05,0,0,0-.19-1.19C122.26,1300.37,122.61,1300.48,122.63,1300.7Zm8.25.56c.31,0,1.31,1,2,2a11.3,11.3,0,0,1,1.37,2.81,4.74,4.74,0,0,1,.25.82c0,.1,0,.18-.2.28a4.64,4.64,0,0,1-.9.37c-.07,0-.11,0-.13-.12a9.86,9.86,0,0,0-3.26-5.65A2.88,2.88,0,0,1,130.88,1301.26Z"/><path class="cls-4" d="M139.2,1297.16c.26,0,.33.07.35.24a1.38,1.38,0,0,1,0,.26,7.71,7.71,0,0,0-.09,1.89c.06,1.63.33,6.36.43,7.5.17,1.9.82,2.55,2.43,2.41a6.23,6.23,0,0,0,3.25-1.31,9.09,9.09,0,0,0,2.49-3,3.08,3.08,0,0,0,.45,1,.48.48,0,0,1,.09.2,6.55,6.55,0,0,1-2,2.49,7.56,7.56,0,0,1-4.26,1.85c-2.24.2-3.39-.9-3.62-3.45,0-.43-.52-7.26-.58-8.29,0-.12,0-.34,0-.5a8.63,8.63,0,0,0-.21-1.32A8.45,8.45,0,0,1,139.2,1297.16Z"/><path class="cls-4" d="M152.25,1298s0,0,0,.16a9.89,9.89,0,0,0,0,2.77c.37,4.09,1.36,6.69,2.52,6.58.73-.06,1.41-1.21,1.81-3.06a2.83,2.83,0,0,0,.64,1c.09.09.12.12.12.19a3,3,0,0,1-.22.85c-.51,1.39-1.31,2.2-2.24,2.29-1.12.1-2.07-.77-2.76-2.53a23,23,0,0,1-1.09-5.64c0-.36-.08-.84-.11-1.42,0-.19,0-.34,0-.43a5.94,5.94,0,0,0-.19-1.18C151.88,1297.7,152.23,1297.81,152.25,1298Zm8.25.57c.31,0,1.31,1,2,2a10.74,10.74,0,0,1,1.37,2.8,5,5,0,0,1,.25.83c0,.1,0,.17-.2.27a4.4,4.4,0,0,1-.9.38c-.07,0-.11,0-.13-.13a9.85,9.85,0,0,0-3.27-5.65A2.7,2.7,0,0,1,160.5,1298.6Z"/><path class="cls-4" d="M170.92,1304.42l-1,.08-1.21-10.12,1.56-.14Zm.74,2.55a1,1,0,1,1-2,.17,1,1,0,0,1,2-.17Z"/><path class="cls-3" d="M673.2,2423.17s-7.37-16-20.8-13c-18.91,4.27-101.84,49-122.64-1.3-14.73-28.6,19.94-48.53,68.47-56.33s92.73-12.13,91.87,25.13c3.46,20.8-19.72,21.24-18.85,29.9s7.58,10,7.58,10"/><path class="cls-4" d="M567.76,2381.92a11,11,0,0,0,.17-4.33l.92.08a14.06,14.06,0,0,1-.16,4.53Zm3.56,7a14.33,14.33,0,0,0-.2-1.88l-1.88-11.15a10.37,10.37,0,0,0-.4-1.62l1.25-.21a15.23,15.23,0,0,0,.18,1.66l1.88,11.15a13.46,13.46,0,0,0,.44,1.84Zm.93-8.37a13.5,13.5,0,0,0-1.33-3.15l.68-.41a19.39,19.39,0,0,1,1.48,3.07Zm3.54-6a6.61,6.61,0,0,0-.31-1.29l1.22-.2a8.08,8.08,0,0,0,.14,1.33l.27,1.59,2.79-.47a10.26,10.26,0,0,0,1.69-.39l.2,1.17c-.46,0-1.11.1-1.72.2l-5.38.91,1.35,8c.08.47.26.6.82.61a18.78,18.78,0,0,0,2.34-.29,22,22,0,0,0,3.56-.85l.34,1.09c-1.08.29-2.24.54-3.88.82a10.25,10.25,0,0,1-3.08.24c-.71-.11-1-.41-1.12-1.22l-1.4-8.26a8.79,8.79,0,0,0-1.22.29l-.2-1.16a11.74,11.74,0,0,0,1.73-.19l2.13-.36Z"/><path class="cls-4" d="M587,2371.89c.26,0,.34.05.36.22a.75.75,0,0,1,0,.26,7.83,7.83,0,0,0,.05,1.89c.19,1.62.83,6.32,1,7.45.32,1.88,1,2.48,2.6,2.21a6.22,6.22,0,0,0,3.15-1.56,9,9,0,0,0,2.24-3.2,3.11,3.11,0,0,0,.53,1,.41.41,0,0,1,.1.2,6.54,6.54,0,0,1-1.78,2.63,7.55,7.55,0,0,1-4.11,2.17c-2.21.38-3.44-.63-3.87-3.16-.07-.42-1.08-7.19-1.21-8.21,0-.12-.06-.34-.09-.49a8.32,8.32,0,0,0-.31-1.31A10.08,10.08,0,0,1,587,2371.89Z"/><path class="cls-4" d="M600,2371.76a.62.62,0,0,1,0,.16,10.33,10.33,0,0,0,.24,2.76c.69,4,1.88,6.56,3,6.36.72-.12,1.31-1.31,1.56-3.19a2.66,2.66,0,0,0,.72.94c.1.09.12.12.14.19a3.14,3.14,0,0,1-.15.86c-.41,1.43-1.15,2.3-2.06,2.45-1.12.19-2.12-.59-3-2.3a23.37,23.37,0,0,1-1.53-5.54c-.06-.35-.14-.83-.22-1.4,0-.19,0-.34-.07-.43a6.1,6.1,0,0,0-.28-1.17C599.63,2371.46,600,2371.54,600,2371.76Zm8.27-.08c.3,0,1.38.87,2.18,1.88a10.84,10.84,0,0,1,1.58,2.69,4.65,4.65,0,0,1,.31.8c0,.1,0,.18-.17.29a4.73,4.73,0,0,1-.87.44c-.07,0-.11,0-.14-.11a9.9,9.9,0,0,0-3.69-5.38A2.59,2.59,0,0,1,608.3,2371.68Z"/><path class="cls-4" d="M615.72,2367.59c.22,0,.27.08.29.18s0,.07-.08.47a20.81,20.81,0,0,0,.21,6.17A25.89,25.89,0,0,0,617,2378c.32-1.27.32-1.27.68-2.55a1.32,1.32,0,0,0,.41.61.27.27,0,0,1,.1.17.76.76,0,0,1,0,.34,11.56,11.56,0,0,0-.46,2.95c0,.12,0,.17-.06.2a4.48,4.48,0,0,1-.75.2.2.2,0,0,1-.24-.14,21.5,21.5,0,0,1-1.47-4.95,34.59,34.59,0,0,1-.45-5.39,12.81,12.81,0,0,0-.13-1.95A4.79,4.79,0,0,1,615.72,2367.59Zm6.52-1.6.22,0c.3,0,1.14-.12,1.25-.12a.19.19,0,0,1,.18.14c0,.07,0,.07,0,.27a3.87,3.87,0,0,0,.07,1.05c0,.23.05.28.36,1.67a13.72,13.72,0,0,0,2.1-.82l.12,0c.08,0,.12,0,.15.1a4,4,0,0,1,.22.8c0,.1,0,.12-.1.17-.79.31-1.75.66-2.28.82.06.29.11.56.18,1a16,16,0,0,1,.33,4.22,6.91,6.91,0,0,1-2,4.53.74.74,0,0,1-.29.19c-.12,0-.14,0-.41-.12a2.92,2.92,0,0,0-.86-.24,6,6,0,0,0,2.13-3.06,10.66,10.66,0,0,0,0-4.9c-.07-.37-.16-.82-.26-1.31-.92.24-1.86.45-2.8.61s-1.06.16-1.12,0a3.38,3.38,0,0,1-.27-.91c.75-.08,1.18-.13,1.75-.23.76-.13,1.4-.27,2.24-.48A13.94,13.94,0,0,0,622.24,2366Z"/><path class="cls-4" d="M632.36,2364.4c.17,0,.27.06.28.16s0,.11,0,.21a5.11,5.11,0,0,0,.09,1.19,19.28,19.28,0,0,0,.66,2.48c.29.77.54,1,1,.95a6.41,6.41,0,0,0,2.13-1.29,5,5,0,0,0,.74-.64s.06-.05.11-.06.94.79,1,1.07c0,.1-.05.19-.25.27a21.68,21.68,0,0,0-2.45,1.34c-2.77,1.72-4.06,3.38-3.81,4.87.22,1.25,1.36,1.62,3.78,1.21a26.66,26.66,0,0,0,3.88-1,.43.43,0,0,1,.14,0,.2.2,0,0,1,.22.1,3.6,3.6,0,0,1,.25.87c0,.18,0,.26-.2.32-.65.2-2.53.62-3.68.82a10.34,10.34,0,0,1-3.12.16,2.53,2.53,0,0,1-2.41-2.2,3.79,3.79,0,0,1,.67-2.76,8.46,8.46,0,0,1,2.16-2.23c-.81-.18-1.16-.92-2-4.17a9.22,9.22,0,0,0-.48-1.52A7,7,0,0,1,632.36,2364.4Zm4.93.58a.52.52,0,0,0,.12-.13c.21-.19.27-.25.36-.27s.41.16.9.53a4.67,4.67,0,0,1,1.1,1c0,.09,0,.17-.23.37s-.33.34-.38.35-.09,0-.18-.11a6.45,6.45,0,0,0-1.64-1.49c-.07,0-.12-.08-.12-.11S637.24,2365.06,637.29,2365Zm1.76-1.62a3.91,3.91,0,0,1,1.34.92c.47.41.56.51.58.63s0,.16-.33.44-.22.2-.27.2-.11,0-.16-.09a5.84,5.84,0,0,0-1.66-1.46s-.07,0-.08-.08S638.9,2363.37,639.05,2363.36Z"/><path class="cls-4" d="M644.39,2372.71c.15-.24.19-.26.27-.27a7.77,7.77,0,0,1,2.2,1.08,9.26,9.26,0,0,1,1.91,1.7c0,.09,0,.16-.31.54s-.33.42-.42.44-.1,0-.19-.11a9.19,9.19,0,0,0-3.65-2.66.18.18,0,0,1-.14-.14C644,2373.22,644.05,2373.18,644.39,2372.71Z"/><path class="cls-4" d="M555.35,2402.79a14,14,0,0,1-2.24,3.67,3.29,3.29,0,0,0-.87-.73,10.26,10.26,0,0,0,2.6-4.58,5.21,5.21,0,0,0,.25-1.22l1.2.09c-.18.5-.18.5-.43,1.36,0,.08-.07.19-.13.37l8.09-1.36a13.36,13.36,0,0,0,2-.47l.2,1.17a19,19,0,0,0-2.06.24Zm.8,10.11c0,.4-.07.52-.16,1.09l-1.14.07a24.4,24.4,0,0,0,.51-5l-.91.15a9.89,9.89,0,0,0-1.54.35l-.19-1.11a8.69,8.69,0,0,0,1.62-.17l1-.17a23.83,23.83,0,0,0-.23-3.41,2.08,2.08,0,0,0-.08-.39.76.76,0,0,0,.17,0,8.67,8.67,0,0,0,1.08-.13l7-1.18a10.27,10.27,0,0,0,1.33-.3,12,12,0,0,0,.09,1.2c.13,1.08.19,1.61.28,2.59l.9-.16a8.85,8.85,0,0,0,1.49-.33l.19,1.09a9.84,9.84,0,0,0-1.54.18l-1,.16c.1,1.22.15,2.13.15,3l.51-.09a7.52,7.52,0,0,0,1.47-.34l.19,1.1a8.59,8.59,0,0,0-1.52.17l-.66.11c0,1.17-.09,1.55-.31,1.88s-.6.54-1.43.68c-.44.07-.89.13-1.63.19a2.76,2.76,0,0,0-.39-1.08,12.05,12.05,0,0,0,1.93-.14c.4-.07.61-.22.68-.5a3.17,3.17,0,0,0,.08-.85Zm3.36-1.52c.06-1.71.06-1.71,0-3l-3.14.53c0,1.19,0,1.91-.15,3Zm0-4c0-1,0-1-.17-2.8l-3.06.52c.08,1.31.11,1.81.12,2.8Zm4.47-.76c0-.14,0-.14,0-.36,0-.62-.08-.79-.29-2.41l-3.31.56c.13,1.59.14,1.69.17,2.8Zm-3.43,1.53c0,1.22,0,1.22,0,3l3.64-.62c0-.83,0-1.87-.14-3Z"/><path class="cls-4" d="M569.87,2400.29a13.13,13.13,0,0,0-.35-1.6,12.21,12.21,0,0,0,1.75-.21l7.3-1.23a11.88,11.88,0,0,0,1.68-.37,9.27,9.27,0,0,0,.17,1.52l1.75,10.41a10.78,10.78,0,0,0,.4,1.72l-1.2.21-.18-1.07-8.36,1.41.18,1.07-1.2.2a13.78,13.78,0,0,0-.19-1.74Zm1.78,3.82,8.36-1.41-.77-4.54-8.36,1.41Zm1,6,8.36-1.41-.84-5-8.36,1.41Z"/><path class="cls-4" d="M593,2401.1l-2.4.58a8.1,8.1,0,0,1-.34,4.42,8.37,8.37,0,0,1-3.68,3.88,3.15,3.15,0,0,0-.82-.89,6.76,6.76,0,0,0,3.62-3.67,7,7,0,0,0,.18-3.51l-2.83.6a5.41,5.41,0,0,0-1,.24l-.38-1.12a8.69,8.69,0,0,0,1.35-.15c.25,0,.54-.09,1.38-.26a16,16,0,0,0,1.68-3.56l-3.87.66a9,9,0,0,0-1.71.39l-.2-1.19a9.15,9.15,0,0,0,1.76-.17l4.69-.79-.13-.78a7.32,7.32,0,0,0-.36-1.35l1.27-.22a9.46,9.46,0,0,0,.13,1.39l.14.78,5-.84a10.11,10.11,0,0,0,1.74-.42l.2,1.19a8.33,8.33,0,0,0-1.79.2l-5.64.95a19.38,19.38,0,0,1-1.67,3.52c3.23-.67,4.19-.9,6.18-1.45a24.43,24.43,0,0,0-2.52-1.33l.72-.66a29.11,29.11,0,0,1,4.9,2.95l-.67.88a11.12,11.12,0,0,0-1.46-1.18c-1.43.4-1.43.4-2.42.65l1,5.74c.09.54.25.56,1.74.31s1.8-.36,2-.57.13-1-.11-2.6a3.35,3.35,0,0,0,1.1.2c.36,3.27.24,3.41-2.84,3.93-2.27.38-2.65.27-2.84-.83Z"/><path class="cls-4" d="M607.12,2392.47a5.24,5.24,0,0,0-.27-1l1.25-.21a5.05,5.05,0,0,0,.07,1l.1.61,4.77-.81c.7-.12,1.13-.21,1.63-.34a8.12,8.12,0,0,0,.12,1.11l.16.94a7.08,7.08,0,0,0,.26,1.13l-1.07.18-.37-2.22-11.44,1.93.38,2.22-1.07.18a7,7,0,0,0-.13-1.15l-.16-1a6.65,6.65,0,0,0-.25-1.08,15.84,15.84,0,0,0,1.65-.21l4.47-.76Zm2.84,8.67a7.76,7.76,0,0,0,2.47,1.67,11.92,11.92,0,0,0,4.75.9,4.49,4.49,0,0,0-.43,1.15,13.39,13.39,0,0,1-5.31-1.43,9.26,9.26,0,0,1-2.45-2,6.29,6.29,0,0,1-2,3.48,11.3,11.3,0,0,1-3.46,2.12,3.9,3.9,0,0,0-.76-.92,9.57,9.57,0,0,0,3.29-1.77,5.47,5.47,0,0,0,2-2.91l-4.11.7a10.13,10.13,0,0,0-1.53.36l-.18-1.08a10.43,10.43,0,0,0,1.52-.17l4.45-.75a11,11,0,0,0,0-1.6l-3,.5a10.78,10.78,0,0,0-1.39.3l-.17-1a8.32,8.32,0,0,0,1.42-.15l3-.52c-.07-.59-.08-.77-.18-1.46l-3.15.53a13.82,13.82,0,0,0-1.54.34l-.17-1a10.86,10.86,0,0,0,1.57-.18l3.14-.53a6,6,0,0,0-.3-1.3l1.2-.2a6.09,6.09,0,0,0,.12,1.32l3.4-.57a8.57,8.57,0,0,0,1.54-.35l.18,1a10.78,10.78,0,0,0-1.57.18l-3.41.58c.06.46.15,1,.18,1.46l3.22-.54a7.65,7.65,0,0,0,1.39-.32l.17,1a10.44,10.44,0,0,0-1.42.17l-3.28.55a12.57,12.57,0,0,1,0,1.6l5.55-.93a10.56,10.56,0,0,0,1.49-.34l.18,1.08a9.48,9.48,0,0,0-1.56.16Z"/><path class="cls-4" d="M620.62,2389.94c.26,0,.33,0,.36.22a.59.59,0,0,1,0,.26,8,8,0,0,0,.06,1.89c.19,1.62.83,6.31,1,7.45.31,1.88,1,2.47,2.6,2.2a6.17,6.17,0,0,0,3.14-1.55,9.13,9.13,0,0,0,2.25-3.2,3,3,0,0,0,.53,1,.35.35,0,0,1,.1.19,6.55,6.55,0,0,1-1.78,2.64,7.58,7.58,0,0,1-4.11,2.17c-2.21.37-3.45-.64-3.87-3.16-.07-.42-1.08-7.2-1.22-8.22,0-.12-.05-.34-.08-.49a8.47,8.47,0,0,0-.31-1.3A8.57,8.57,0,0,1,620.62,2389.94Z"/><path class="cls-4" d="M640.33,2387.64a18.48,18.48,0,0,0,1.79-.63.37.37,0,0,1,.11,0,.25.25,0,0,1,.25.1,5.84,5.84,0,0,1,.4.92c0,.15,0,.18-.33.23a6.28,6.28,0,0,0-2.77,1.22,6.6,6.6,0,0,0-2.45,6.09c.27,1.6,1.38,2.6,3.27,3a6.42,6.42,0,0,0,1.93.12c.12,0,.18,0,.2.16a3.24,3.24,0,0,1,0,1c0,.13-.08.19-.2.2a10.2,10.2,0,0,1-2-.17,4.76,4.76,0,0,1-4.3-4.13,6.64,6.64,0,0,1,.82-4.4,8.05,8.05,0,0,1,1.71-2.05c-6,2.08-6.87,2.43-7.6,2.94a.63.63,0,0,1-.27.13c-.16,0-.21,0-.37-.2a4.28,4.28,0,0,1-.62-1.13,30.65,30.65,0,0,0,4-1.18Z"/><path class="cls-4" d="M650,2384.45q1.49-.18,1.53.12a.63.63,0,0,1,0,.26,6.3,6.3,0,0,0,.1,2.13,17.35,17.35,0,0,0,2.71-1l.27-.12c.07,0,.11,0,.23.2a3.39,3.39,0,0,1,.28.65c0,.12,0,.12-.4.28-1,.37-1.84.66-2.94,1,.08.35.13.65.16.82s.14.87.29,1.66a15.36,15.36,0,0,0,3.44-1.4.15.15,0,0,1,.08,0c.07,0,.11,0,.23.19a2.64,2.64,0,0,1,.32.66c0,.08,0,.12-.3.27a19.21,19.21,0,0,1-3.54,1.35c.13.67.3,1.34.74,3a13.17,13.17,0,0,1,3.27.79c1,.38,1.4.62,1.43.79s0,.17-.14.47c-.22.46-.28.54-.38.55s-.12,0-.22-.06a10.66,10.66,0,0,0-2-1,9.9,9.9,0,0,0-1.66-.43,2.7,2.7,0,0,1-.07,1.84,3,3,0,0,1-2.44,1.42c-1.81.3-3-.25-3.26-1.49s.89-2.43,2.89-2.77a13.11,13.11,0,0,1,1.51-.13c-.34-1.37-.49-1.95-.66-2.74-.35.07-.7.15-1.12.22a13.07,13.07,0,0,1-3.17.22c-.16,0-.22,0-.24-.16a5.76,5.76,0,0,1,0-.93,15,15,0,0,0,3.49-.22,5,5,0,0,0,.82-.18c-.08-.4-.24-1.24-.47-2.49l-.89.17a16.18,16.18,0,0,1-2.82.23c-.09,0-.11,0-.15-.29a5.23,5.23,0,0,1-.06-.76,15,15,0,0,0,3-.22l.74-.14A23.88,23.88,0,0,0,650,2384.45Zm.54,11.22c-1.21.2-2,.83-1.83,1.52s.82.89,2,.69c1.37-.23,1.84-.76,1.64-1.91,0-.07-.08-.41-.08-.41A6.27,6.27,0,0,0,650.51,2395.67Z"/><path class="cls-4" d="M666,2385.69a34.74,34.74,0,0,0-6.34,1.76.81.81,0,0,1-.21.09c-.15,0-.34-.34-.59-1.21l.26,0c.44-.07.91-.19,1.82-.43,1.08-.29,3.48-.85,4.87-1.15a8.89,8.89,0,0,0-.6-2.62c1.21-.15,1.53-.15,1.56,0a.42.42,0,0,1,0,.23c-.09.29-.09.29.15,2.13l4.88-.89c.34-.06.42-.07.46,0s.1.14.13.36c.11.61.1.69,0,.71h-.05c-.26,0-1.69.2-2.58.35-1.1.18-2.22.39-2.69.49,0,.15.18,1.13.49,3.12a5.47,5.47,0,0,1,.69,1.92,5.08,5.08,0,0,1-1,4.13,6.55,6.55,0,0,1-2.11,1.85c-.12,0-.15,0-.43-.19a2.63,2.63,0,0,0-.77-.36,8.18,8.18,0,0,0,1.81-1.3,5.56,5.56,0,0,0,1.06-1.48,5.3,5.3,0,0,0,.42-1.51,1.7,1.7,0,0,1-1.36,1,2.29,2.29,0,0,1-2.68-2.17,2.37,2.37,0,0,1,1.88-3,1.58,1.58,0,0,1,1.27.21c-.08-.44-.11-.66-.15-.88l-.1-.6Zm-1.8,4.63c.17,1,.78,1.51,1.64,1.36s1.13-.75,1-1.76-.75-1.62-1.52-1.48S664.05,2389.32,664.22,2390.32Z"/></g></g></g></svg>