<svg xmlns="http://www.w3.org/2000/svg" width="1154" height="2800" viewBox="0 0 1154 2800"><defs><style>.cls-1{fill:#cee9e8;}.cls-2,.cls-4,.cls-5,.cls-6{fill:#fff;}.cls-2,.cls-5,.cls-6{stroke:#231815;stroke-miterlimit:10;}.cls-2{stroke-width:0.78px;}.cls-3{fill:#231815;}.cls-5{stroke-width:0.94px;}.cls-6{stroke-width:0.69px;}</style></defs><title>アセット 5</title><g id="レイヤー_2" data-name="レイヤー 2"><g id="base"><path class="cls-1" d="M1153,1V2799H1V1H1153m1-1H0V2800H1154V0Z"/></g><g id="レイヤー_1-2" data-name="レイヤー 1"><path class="cls-2" d="M925.49,2032.34s-11.7-10-24.26-3.47-89.7,39-105.74,15.6-24.26-58.5,50.7-71.5c57.2-10.4,75,8.24,71.07,29.9-1.73,13.44-5.2,19.94,8.23,23"/><path class="cls-3" d="M796.69,2007.68c-.14-.57-.26-1-.4-1.4a13.45,13.45,0,0,0,1.56-.3l9.88-2.32a9.89,9.89,0,0,0,1.43-.41,12.92,12.92,0,0,0,.28,1.49l2.6,11.07c.21.89-.16,1.24-1.67,1.6a14.54,14.54,0,0,1-1.72.3,3.68,3.68,0,0,0-.51-1,10.89,10.89,0,0,0,2.17-.3c.58-.13.73-.26.66-.56l-2.67-11.37L797.6,2007l2.64,11.24a9.57,9.57,0,0,0,.45,1.55l-1.2.28a10.14,10.14,0,0,0-.27-1.61Zm7.78,1.31a10.61,10.61,0,0,0,.78-3.34l1.06.14a13.77,13.77,0,0,1-.86,3l1.57-.37a7.58,7.58,0,0,0,1.42-.42l.25,1a9.08,9.08,0,0,0-1.46.26l-2.86.67,1,4.44,2.27-.53-.5-2.14a8.35,8.35,0,0,0-.37-1.25l1.07-.26a7.38,7.38,0,0,0,.23,1.34l.57,2.43a10.41,10.41,0,0,0,.39,1.37l-1,.23-.2-.84-5.3,1.25.34,1.45-1,.23a10.1,10.1,0,0,0-.28-1.59l-.67-2.85a9.11,9.11,0,0,0-.4-1.3l1.07-.25a7.81,7.81,0,0,0,.24,1.3l.49,2.12,2.09-.49-1-4.44-2.67.62a9.09,9.09,0,0,0-1.44.43l-.25-1a8.73,8.73,0,0,0,1.48-.26Zm-3.63-2.23a12.83,12.83,0,0,1,1.85,2l-.78.57a10.42,10.42,0,0,0-1.84-2Z"/><path class="cls-3" d="M818.1,2002.21a7.86,7.86,0,0,0-.46-1.46l1.34-.31a7.83,7.83,0,0,0,.23,1.51l2.42,10.33,4.75-1.12-1.73-7.33a7.79,7.79,0,0,0-.45-1.48l1.27-.3a13.18,13.18,0,0,0,.25,1.53l1.88,8a10.44,10.44,0,0,0,.52,1.66l-1.19.28-.31-1.34-10.28,2.41.32,1.34-1.17.28a12.58,12.58,0,0,0-.28-1.65l-1.88-8a12.07,12.07,0,0,0-.47-1.55l1.25-.29a10.74,10.74,0,0,0,.28,1.57l1.71,7.28,4.43-1Z"/><path class="cls-3" d="M833,2007.44a.46.46,0,0,1,.17.24,4.11,4.11,0,0,1-.06.81,14.06,14.06,0,0,0-.05,2.8c0,.24,0,.3-.12.36a4.29,4.29,0,0,1-.68.21c-.18.05-.2,0-.52-.56a16.06,16.06,0,0,1-1.5-4.09,29.61,29.61,0,0,1-.73-6,16.69,16.69,0,0,0-.18-2.19c.92,0,1.48,0,1.52.25s0,.09-.05.3c-.34,1.17-.1,5.15.48,7.61a16.57,16.57,0,0,0,.87,2.7c.09-.65.13-1.07.22-1.6.11-.89.11-.89.18-1.42A1.75,1.75,0,0,0,833,2007.44Zm2.65-5.38-.26.06-.89.19c-.17,0-.22,0-.27-.08a3.76,3.76,0,0,1-.27-.76l0-.17a14.8,14.8,0,0,0,1.49-.28,22,22,0,0,0,2.33-.67c-.14-.57-.21-.9-.3-1.25s-.1-.44-.14-.62a9.58,9.58,0,0,0-.42-1.42,5.69,5.69,0,0,1,1.28-.1q.21,0,.24.15a.31.31,0,0,1,0,.23,7.06,7.06,0,0,0,.36,2.65,22,22,0,0,0,2.24-1l.11,0a.11.11,0,0,1,.14.07,5.73,5.73,0,0,1,.28.78c0,.14,0,.18-.12.24a24.46,24.46,0,0,1-2.41,1c.3,1.26.73,2.88,1.31,4.81a12.9,12.9,0,0,1,3.31,1c.17.08.26.15.28.25a1,1,0,0,1-.14.53c-.2.47-.2.47-.29.49s-.06,0-.63-.28a10.58,10.58,0,0,0-2.23-.81,3.47,3.47,0,0,1,.1.34c.35,1.51-.48,2.62-2.25,3s-2.88-.19-3.18-1.46.62-2.46,2.34-2.86a6,6,0,0,1,1.56-.21c-.68-2.43-.77-2.81-1.19-4.44C837.08,2001.67,836.21,2001.92,835.64,2002.06Zm2.24,5c-1.2.29-1.8.89-1.63,1.6s.9,1,2,.73,1.58-.9,1.33-2c-.07-.34-.1-.45-.12-.45A4,4,0,0,0,837.88,2007Z"/><path class="cls-3" d="M844,1997c-.15-.62-.26-1-.4-1.49a12.7,12.7,0,0,0,1.33-.26l1.48-.35a12.31,12.31,0,0,0,1.34-.37c.05.34.14.8.3,1.48l2.09,8.91c.13.55.23.91.37,1.34l-1,.24-.19-.8-2.14.5.35,1.49-1,.24a16.86,16.86,0,0,0-.31-1.71Zm1.77,3.2,2.14-.5-.93-4-2.14.5Zm1.2,5.09,2.14-.5-1-4.23-2.15.51Zm8.18-4.72a9.56,9.56,0,0,0,2.53,2.58,9.88,9.88,0,0,0,3.24,1.42,3.46,3.46,0,0,0-.41,1.14,11.07,11.07,0,0,1-3.5-1.86,11.45,11.45,0,0,1-2.47-2.72,8.44,8.44,0,0,1-3.45,6.79,3.29,3.29,0,0,0-.89-.73,7.45,7.45,0,0,0,3.38-6.25l-2.32.54a14,14,0,0,0-1.48.42l-.24-1a5.72,5.72,0,0,0,.85-.14l-.87-3.7c-.12-.51-.22-.86-.34-1.24a8.58,8.58,0,0,0,1.24-.24l2.2-.51-.21-.89a8.69,8.69,0,0,0-.51-1.62l1.18-.28a13.23,13.23,0,0,0,.3,1.71l.2.85,2.46-.57a10.1,10.1,0,0,0,1.09-.31,7.38,7.38,0,0,0,.24,1.25l.87,3.72a6.41,6.41,0,0,0,1-.33l.25,1.07a14,14,0,0,0-1.67.31Zm-1.62-.57a28,28,0,0,0-.68-4l0-.13-2.4.56.94,4Zm3.73-.88-.95-4-2.52.6.05.2a27.57,27.57,0,0,1,.66,3.88Z"/><path class="cls-3" d="M870.23,1991.8a10.31,10.31,0,0,0,1.32-.38,9.71,9.71,0,0,0,.21,1.17l1.34,5.7a7.31,7.31,0,0,0,.33,1.11,11.67,11.67,0,0,0-1.4.26l-5.27,1.24a10.21,10.21,0,0,0-1.36.39,8.08,8.08,0,0,0-.21-1.15l-1.33-5.7a9.1,9.1,0,0,0-.34-1.13,11,11,0,0,0,1.35-.25l2.14-.5-.46-2-4.83,1.14a12.78,12.78,0,0,0-1.66.49l-.26-1.11a13.21,13.21,0,0,0,1.71-.3l10.8-2.54a9.86,9.86,0,0,0,1.67-.5l.26,1.12a12.89,12.89,0,0,0-1.71.3l-5,1.17.46,2Zm4.22-.59a11.64,11.64,0,0,0,.29,1.68l1.69,7.22A11,11,0,0,0,877,2002l-1.14.27-.21-.92L864.38,2004l.21.91-1.13.27a15.35,15.35,0,0,0-.36-2l-1.69-7.2a12.52,12.52,0,0,0-.49-1.63l1.2-.28a10.05,10.05,0,0,0,.28,1.56l1.74,7.43,11.3-2.65-1.75-7.45a10,10,0,0,0-.44-1.5Zm-9.71,2.8.57,2.44,2.48-.58-.58-2.44Zm.77,3.29.67,2.84,2.47-.58-.66-2.84Zm3.24-1.66,2.6-.61-.58-2.44-2.59.61Zm.87,3.69,2.59-.61-.66-2.84-2.6.61Z"/><path class="cls-3" d="M880.41,1985.9a8.49,8.49,0,0,0,3,1.95,3.52,3.52,0,0,0-.41,1,10.9,10.9,0,0,1-2.76-1.87,15.56,15.56,0,0,1-2.58,4.27,2.91,2.91,0,0,0-.77-.79,11,11,0,0,0,1.7-2.23,7.84,7.84,0,0,0,.91-2.06Zm5,13.49a11.21,11.21,0,0,0-1-1.16c-.78.51-2.16,1.31-4.09,2.38l-.44.25-.54-1a7.39,7.39,0,0,0,1.07-.44l-1.69-7.2a11.72,11.72,0,0,0-.4-1.48,11.42,11.42,0,0,0,1.22-.23l.87-.21-.14-.6a4.22,4.22,0,0,0-.32-1l1.06-.24a3.8,3.8,0,0,0,.14,1l.14.6.65-.16a8.57,8.57,0,0,0,1.32-.38c.07.45.14.8.27,1.37l.58,2.47c.15.63.25,1,.39,1.41a10.42,10.42,0,0,0-1.23.23l-2.73.64.77,3.28a27.31,27.31,0,0,0,2.45-1.42l-.35-.36a12,12,0,0,0-1-.91l.67-.59a30.66,30.66,0,0,1,3,2.94Zm-2.57-7.42-.31-1.3-3,.7.31,1.3Zm-2.47,2.94,3-.7-.34-1.47-3,.7Zm5.84-9.23a5.9,5.9,0,0,0-.35-1.1l1.17-.27a5.34,5.34,0,0,0,.18,1.14l.1.4,1.83-.43a17.15,17.15,0,0,0,1.79-.51,8.83,8.83,0,0,0,.2,1.08l.22.93a5.92,5.92,0,0,0,.28,1l-1,.24-.47-2-5.82,1.37.36,1.52c.31,0,.68-.12,1.23-.25l2.94-.69a9.84,9.84,0,0,0,1.44-.41,9.49,9.49,0,0,0,.22,1.25l.37,1.57a7.43,7.43,0,0,0,.34,1.17,10.22,10.22,0,0,0-1.41.26l-3.38.8.38,1.62,4.09-1a10.93,10.93,0,0,0,1.36-.39c.06.39.14.81.27,1.36l.53,2.27a11.45,11.45,0,0,0,.44,1.56l-1.06.24-.21-.88-4.41,1,.22.94-1,.25a8.72,8.72,0,0,0-.28-1.59l-1.78-7.55c-.13-.57-.17-.74-.27-1.08l-.87.2a5.83,5.83,0,0,0-.17-1l-.23-1a7.74,7.74,0,0,0-.28-1c.39-.06.79-.14,1.5-.3l1.68-.4Zm.05,6.16,3.73-.88-.52-2.19-3.72.88Zm1.37,5.83,4.41-1-.58-2.49-4.41,1Z"/><path class="cls-3" d="M897.5,1982.77c0-.13-.07-.27-.11-.4,1.08,0,1.63.08,1.69.29a.49.49,0,0,1-.06.3,7.47,7.47,0,0,0-.1,2.28,3,3,0,0,1,0,.54c.58-.1.58-.1,1.55-.33.45-.1.45-.1.54.26a1.57,1.57,0,0,1,.06.66c0,.08-.12.1-1,.3-.33.07-.55.11-1.13.19.06,1.78.07,2,.2,3.43a12.69,12.69,0,0,0,1.31-.22l1-.26.07,0c.18,0,.29.14.44.78.07.28,0,.29-.68.46a16.11,16.11,0,0,1-2,.35,12,12,0,0,0,.25,1.39c.38,1.62,1.4,2.19,3.15,1.78,1.92-.45,3-1.77,2.62-3.28a4,4,0,0,0-1.35-2.13,5.48,5.48,0,0,0-1.34-.83l.1,0a4.17,4.17,0,0,0,.73-.28,1.11,1.11,0,0,1,.27-.12c.18,0,.42.08,1,.47a4.46,4.46,0,0,1,1.82,2.64c.51,2.15-.85,4-3.44,4.56a4.14,4.14,0,0,1-3.1-.28,3.48,3.48,0,0,1-1.44-2.32c-.06-.27-.14-.76-.26-1.49-1.82.06-2.78-.42-3-1.49-.14-.57,0-1.28.3-1.34a.57.57,0,0,1,.35.06c.26.07.37.14.39.24a.25.25,0,0,1,0,.16,1,1,0,0,0-.09.61c.12.5.85.75,2,.68-.08-.69-.1-1-.26-3.41a8,8,0,0,1-3.08-.43c-.26-.09-.33-.15-.36-.26a2.65,2.65,0,0,1,.18-.91,7.41,7.41,0,0,0,3.18.5A19.32,19.32,0,0,0,897.5,1982.77Z"/><path class="cls-3" d="M834.46,2024.33a19.74,19.74,0,0,1,2.44,1,16.08,16.08,0,0,0,2.37-3.68l-4.35,1a17.41,17.41,0,0,1-3.84,4.27,2.6,2.6,0,0,0-.83-.65,14.8,14.8,0,0,0,4-4.38,6.41,6.41,0,0,0,.78-1.71h1.22c-.11.22-.14.26-.36.72l-.38.72,3-.71a10.9,10.9,0,0,0,1.49-.44l.67.48c-.71,1.49-.78,1.63-1,2.07a21.64,21.64,0,0,1-7.81,7.88,2.69,2.69,0,0,0-.77-.82,18.37,18.37,0,0,0,5.12-4,11.59,11.59,0,0,0-2.39-1Zm4.2,3.56a16.34,16.34,0,0,1-4.51,4.28,3.14,3.14,0,0,0-.8-.71,15.42,15.42,0,0,0,4.39-3.88,7.91,7.91,0,0,0,1.3-2.34l1.13.16c-.51,1-.51,1-.8,1.44l2.84-.67a11.37,11.37,0,0,0,1.48-.43l.72.5-.32.69a15,15,0,0,1-3.71,5.33,23.52,23.52,0,0,1-5.94,4,3,3,0,0,0-.82-.86,19.65,19.65,0,0,0,6.26-4,10,10,0,0,0-2.52-1l.7-.78a21.85,21.85,0,0,1,2.55,1,14.49,14.49,0,0,0,2.39-3.7Z"/><path class="cls-3" d="M848,2020.34a.75.75,0,0,1,0,.16,10.1,10.1,0,0,0,.41,2.75c.94,4,2.29,6.42,3.43,6.15.71-.16,1.22-1.39,1.36-3.28a2.84,2.84,0,0,0,.77.9c.11.08.13.11.15.17a2.86,2.86,0,0,1-.1.87c-.31,1.45-1,2.37-1.89,2.58-1.11.26-2.16-.46-3.09-2.11a22.55,22.55,0,0,1-1.88-5.43c-.08-.35-.19-.82-.3-1.39-.05-.19-.08-.34-.1-.42a7.15,7.15,0,0,0-.36-1.15C847.56,2020.07,847.92,2020.12,848,2020.34Zm8.25-.6c.3-.07,1.43.78,2.29,1.74a10.92,10.92,0,0,1,1.75,2.58,5.68,5.68,0,0,1,.36.78c0,.1,0,.18-.16.31a4.9,4.9,0,0,1-.83.49c-.07,0-.11,0-.15-.1a9.84,9.84,0,0,0-4-5.14A2.78,2.78,0,0,1,856.23,2019.74Z"/><path class="cls-3" d="M867.66,2017.46a18.74,18.74,0,0,0,4-1.61.72.72,0,0,1,.14,0c.09,0,.15,0,.27.23a3.67,3.67,0,0,1,.31.67c0,.12-.06.17-.71.48a21,21,0,0,1-3.77,1.35c.33,1.28.61,2.22,1.25,4.2a12.8,12.8,0,0,1,4.69,1c.8.32,1.06.47,1.08.55a1.82,1.82,0,0,1-.45,1.13.41.41,0,0,1-.21-.05,12.3,12.3,0,0,0-2-.88,10.67,10.67,0,0,0-2.72-.62c.05.22.09.37.12.51.4,1.68-.55,2.85-2.68,3.36-2,.46-3.26-.07-3.58-1.4-.35-1.51.84-2.75,3.11-3.29a13.42,13.42,0,0,1,1.54-.25c-.82-2.63-1.19-4-1.94-7.08-.18-.71-.32-1.21-.55-1.89a5.88,5.88,0,0,1,1.33-.1.24.24,0,0,1,.26.17.58.58,0,0,1,0,.27,6.93,6.93,0,0,0,.36,2.52Zm-1.09,6.64c-1.45.34-2.32,1.13-2.13,1.93s.94.93,2.14.64c1.53-.36,2.17-1.11,1.9-2.26-.13-.53-.13-.53-.14-.53A9.06,9.06,0,0,0,866.57,2024.1Z"/><path class="cls-3" d="M881.42,2020.74l-.94.22-2.61-9.86,1.52-.36Zm1.1,2.42a1,1,0,1,1-1.92.45,1,1,0,0,1,1.92-.45Z"/><path class="cls-4" d="M1086.81,384.07c-.26-.52-.59-.75-1-.68a2.46,2.46,0,0,1-1.17-.1,5.73,5.73,0,0,1-.2-1.36,1.85,1.85,0,0,1,.78-1.56,5,5,0,0,0,1.17-1.17,74.56,74.56,0,0,1,10-.1,33.23,33.23,0,0,0,9.83-.87c0-.78,0-1.55-.09-2.33s-.1-1.61-.1-2.52a5.94,5.94,0,0,1,.58-2.71,100.3,100.3,0,0,0-2.63-11.45,46.56,46.56,0,0,0-3.69-8.93,66.32,66.32,0,0,0-5.26-8.05,99.14,99.14,0,0,0-7.49-8.63,22.11,22.11,0,0,1-2.53-1.27,4.19,4.19,0,0,1-1.76-2,13.5,13.5,0,0,1-1.94-1,4.48,4.48,0,0,1-1.56-1.56q-10.12-3.5-20.92-7a69.62,69.62,0,0,0-21.51-3.49c-3.38,0-6.81.06-10.32.19s-6.94.33-10.31.59a18.78,18.78,0,0,0-4.77,1,13.24,13.24,0,0,1-4.38.78,21.14,21.14,0,0,0-8.37,2.33,68.23,68.23,0,0,0-10,5.72,71.82,71.82,0,0,0-9.05,7.28,23,23,0,0,0-5.45,7,28.41,28.41,0,0,0-2.44,6.31A42.21,42.21,0,0,1,970,355v1.55a11.76,11.76,0,0,1-.87,6.21,15.47,15.47,0,0,0-1.27,6.21,16.36,16.36,0,0,0,.3,3.1,17.12,17.12,0,0,1,.29,3.1,8.46,8.46,0,0,1-.2,1.85,2.28,2.28,0,0,1-1.17,1.46c-1.68,0-2.53-.78-2.53-2.34V366a28.9,28.9,0,0,1,.78-6.72A49.55,49.55,0,0,1,967.3,353q1.17-3,2.33-6.13a36.29,36.29,0,0,0,1.76-6.42c1.42-2,2.82-4,4.18-6a25.76,25.76,0,0,1,4.77-5.45A60.23,60.23,0,0,1,1000,317.89a68.46,68.46,0,0,1,22.19-3.7,53.72,53.72,0,0,0,7.1-.48,52.1,52.1,0,0,1,7.1-.49,69.5,69.5,0,0,1,11.59,1.36q7.49,1.37,15.28,3.6a107.87,107.87,0,0,1,14.3,5.16q6.53,2.93,8.86,6c.65-.12,1.07,0,1.26.3a1.16,1.16,0,0,0,1.08.48,49.47,49.47,0,0,1,7.88,8.18,103.29,103.29,0,0,1,6.32,9.34V349a16.7,16.7,0,0,1,2.53,4.48,46.07,46.07,0,0,1,1.66,5.26c.45,1.81.87,3.63,1.26,5.44a28.54,28.54,0,0,0,1.56,5.06v1.56a3.91,3.91,0,0,0,.58,3.12,7.18,7.18,0,0,1-.48,1.36,1.89,1.89,0,0,0-.1,1.36l1,1.56a13.55,13.55,0,0,0-.19,2.24,3.22,3.22,0,0,1-.78,2l-11.68.39A83.77,83.77,0,0,0,1086.81,384.07Zm-89.34-.39a39.43,39.43,0,0,0-5.65-.78c-1.94-.13-3.83-.19-5.64-.19-2.6,0-5.13.09-7.59.29s-5,.35-7.59.49a2.94,2.94,0,0,1-1.07-1.47,14.56,14.56,0,0,1-.49-1.84,2.73,2.73,0,0,1,.88-.88,3,3,0,0,0,.87-.87q3.31.18,6.43.29t6.42.09h9.73a62.73,62.73,0,0,1-2.34-6.71,25,25,0,0,1-1-6.91,16.4,16.4,0,0,1,1.07-6.62c.71-1.56,1.59-3.5,2.63-5.84q5.25-11.3,14.5-15.18a53.37,53.37,0,0,1,20.92-3.89c2.34,0,4.38.06,6.14.19a17.18,17.18,0,0,1,5.93,1.75,34.74,34.74,0,0,1,8,1.56,59.33,59.33,0,0,1,6.81,2.73c2.21,1,4.38,2.17,6.52,3.4a79.62,79.62,0,0,0,7.11,3.6,20.33,20.33,0,0,0,3.21,3.9,37.08,37.08,0,0,1,3.41,3.69,10.32,10.32,0,0,0,1.55,4.09q1.17,1.76,2.34,3.7a20.34,20.34,0,0,0,.87,4.47,15.21,15.21,0,0,1,.69,4.68,5.81,5.81,0,0,1-1.17,3.89h-.78a1.49,1.49,0,0,1-.88-.39,11.36,11.36,0,0,1-.87-.78l.19-2.14a18.44,18.44,0,0,0-.68-6.42,22.4,22.4,0,0,0-2.53-5.55,52.87,52.87,0,0,0-3.7-5.16q-2-2.53-4.18-4.86c-1.3-.52-2.57-1.11-3.8-1.75a11.31,11.31,0,0,1-3.21-2.53q-2.34-1-4.57-2.05c-1.49-.71-3-1.4-4.58-2l-.77.19a14.12,14.12,0,0,1-3.51-.68q-2.34-.69-5.25-1.36t-6.23-1.36a31.5,31.5,0,0,0-6.43-.69,31.13,31.13,0,0,0-7.3.78c-2.14.52-4.51,1.1-7.1,1.76a19.43,19.43,0,0,0-4.18,1.26A19.06,19.06,0,0,0,1008,343a27.35,27.35,0,0,0-2.34,1.75,24.77,24.77,0,0,1-3.11,2.14c0,1-.46,1.37-1.37,1q-1.54,2.72-2.72,4.57a27.94,27.94,0,0,0-2,3.6,22,22,0,0,0-1.26,3.8,24.58,24.58,0,0,0-.49,5.54,5.43,5.43,0,0,0-.39,2.34,13.21,13.21,0,0,0,.49,3.11,23.2,23.2,0,0,0,1.36,3.9,28,28,0,0,0,1.95,3.6,10.19,10.19,0,0,0,2,2.43A5.51,5.51,0,0,1,997.47,383.68Z"/><path class="cls-4" d="M970.8,514.67l-.78-.19a10.36,10.36,0,0,1-1.07-1.85,1.86,1.86,0,0,1,.3-2.05c-.78-.26-1.53-.52-2.24-.78s-1.07-.9-1.07-1.94a5,5,0,0,1,.58-2.43,5.44,5.44,0,0,0,.58-2.63,24.16,24.16,0,0,0-.48-4.87,24.05,24.05,0,0,1-.49-4.86,12,12,0,0,1,.39-3.41,6.08,6.08,0,0,1,2-2.63l2.14.78a2.83,2.83,0,0,1,.58,1.75,8.73,8.73,0,0,1-.48,2.92,8.48,8.48,0,0,0-.49,2.92,25.9,25.9,0,0,0,.49,5.16,26.6,26.6,0,0,1,.48,5.16A7.55,7.55,0,0,1,970,510q14.4-2.14,28.42-5.06t28.61-5.06l18.49-2.73q10.51-1.56,21.32-3.6t20.92-4.48a131.6,131.6,0,0,0,17.52-5.35v-3.31a27.84,27.84,0,0,0-.29-6.13,37.74,37.74,0,0,1-.49-6.13,6.92,6.92,0,0,1,.49-2.72,2.14,2.14,0,0,1,2.23-1.17c.65,0,1.1.49,1.37,1.46a16.17,16.17,0,0,1,.48,3.4,34.4,34.4,0,0,1,0,3.8c-.06,1.23-.09,2.11-.09,2.63a13.11,13.11,0,0,0,.87,4.77,11.84,11.84,0,0,1,.88,4.38c0,.9-.82,1.78-2.43,2.62a38.56,38.56,0,0,1-6.14,2.44q-3.69,1.17-8.27,2.23t-8.76,1.95q-4.19.87-7.49,1.46c-2.21.39-3.77.71-4.67,1q-15,3.5-30.17,5.74t-30.36,5c-2.47.39-5.62,1-9.44,1.85s-7.79,1.69-11.88,2.53-8,1.59-11.68,2.24A53.2,53.2,0,0,1,970.8,514.67Zm0-68.32a2.74,2.74,0,0,1-2.53-1.26,6.25,6.25,0,0,1-.87-2.92,20.62,20.62,0,0,1,.09-3.41,27.44,27.44,0,0,0,.2-2.92,12.4,12.4,0,0,0-.68-4.09,12.09,12.09,0,0,1-.68-4.08,1.72,1.72,0,0,1,1.94-1.95c1,0,1.79.75,2.24,2.24a26.21,26.21,0,0,1,1,5.16,56,56,0,0,1,.3,5.74,14.13,14.13,0,0,0,.39,4c.38,0,.58.26.58.78a2.87,2.87,0,0,1-.2,1.07,2.83,2.83,0,0,0-.19,1.07A2.11,2.11,0,0,1,970.8,446.35Zm135.47,16.94q-1.95-.59-8.56-2.73t-16.26-5.16q-9.63-3-21.31-6.62t-23.75-7.29q-12.06-3.71-23.74-7.11t-21.12-6q-9.45-2.62-15.86-4.19t-8.18-1.36a12.25,12.25,0,0,1-.39-1.86,4.23,4.23,0,0,1,.78-2.43l1.37-.18a25.4,25.4,0,0,1,3.69.77q3.12.78,7.5,1.95t9.34,2.53q5,1.37,9.34,2.72t7.4,2.34c2,.65,3.14,1,3.41,1.17a43.81,43.81,0,0,1,9.82,2.72q4.77,2,9.64,3.7a85.28,85.28,0,0,0,10,2.82q5,1.08,10,2.63,10.5,3.31,20.92,6.13t20.93,6.13q3.89,1.17,7.59,2.53a37.88,37.88,0,0,0,7.78,1.95,4,4,0,0,1,1,2.25A3,3,0,0,1,1106.27,463.29Zm-124.18,25.5h-.58a3.63,3.63,0,0,1-.39-2.25v-2.23a47.33,47.33,0,0,1,7.69-1.67,65.14,65.14,0,0,0,7.68-1.46,25.48,25.48,0,0,1-1.36-7.05c-.13-2.48-.19-4.92-.19-7.34s-.07-4.82-.2-7.23a19.49,19.49,0,0,0-1.55-6.75q-4.49-1.57-8.67-3.52a40,40,0,0,0-8.85-2.94,3.46,3.46,0,0,1-.58-1.86,3.73,3.73,0,0,1,1.36-2.62,27.19,27.19,0,0,1,4.57,1.37q3.21,1.17,6.72,2.55c2.33.91,4.54,1.82,6.61,2.73a21.07,21.07,0,0,1,4.09,2.15,14.92,14.92,0,0,0-.19,2.74,44.46,44.46,0,0,0,.38,5.86c.27,2,.46,3.91.59,5.87a20.12,20.12,0,0,1-.29,3.41,19.25,19.25,0,0,0-.3,3.42,11.42,11.42,0,0,0,1.37,5.48,10.41,10.41,0,0,1,1.36,4.88A2.61,2.61,0,0,1,999.9,485a9.87,9.87,0,0,1-3,.88,74.09,74.09,0,0,0-7.39,1.76A27.21,27.21,0,0,1,982.09,488.79ZM1022,473.6a18.94,18.94,0,0,0-1.94-.29,5,5,0,0,1-1.75-.49,24.81,24.81,0,0,1-.78-9.79,23.41,23.41,0,0,0-.78-9.52,3,3,0,0,1,3.11-2.68,29.71,29.71,0,0,1,5.16,1c2.66.64,5.77,1.43,9.34,2.39s7.37,2,11.39,3.26,7.85,2.4,11.48,3.55l9.73,3.08c2.86.9,4.8,1.55,5.84,1.94.26.52.52,1,.78,1.46a3.25,3.25,0,0,1,.39,1.65,1.85,1.85,0,0,1-.48,1.17,1.42,1.42,0,0,1-1.08.59,17.88,17.88,0,0,1-4-1.17c-2.15-.78-4.52-1.65-7.11-2.63s-5.09-1.85-7.5-2.63a19.7,19.7,0,0,0-5.35-1.16,14,14,0,0,0-5.06-2.4c-2.33-.7-4.8-1.34-7.39-1.92s-5.16-1.11-7.69-1.63a55.4,55.4,0,0,1-6.13-1.53,16.7,16.7,0,0,0-.78,5.37,32.33,32.33,0,0,0,.39,5.12,21.09,21.09,0,0,1,.19,5Zm-.78,8.37a2.76,2.76,0,0,1-1.94-1l-.2-.59a2.9,2.9,0,0,1,2.53-3.21l4.67-.87q10.32-1.75,20.64-2.73t20.63-2.53a2.62,2.62,0,0,1,1.75,2.53,2.23,2.23,0,0,1-1.17,2,6.08,6.08,0,0,1-2.72.77,23.2,23.2,0,0,1-3.12,0c-1-.06-1.88-.09-2.53-.09-.39,0-1.46.09-3.21.29s-3.89.48-6.42.87-5.23.78-8.08,1.17-5.55.75-8.08,1.07-4.67.65-6.42,1-2.76.48-3,.48c-.65.26-1.2.46-1.65.59A6.59,6.59,0,0,1,1021.21,482Z"/><path class="cls-4" d="M1002.14,632.62a32.65,32.65,0,0,1-20.24-6.79c-.52-1.43-1.07-2.17-1.66-2.24a5.81,5.81,0,0,1-2.43-1.26,15.64,15.64,0,0,1-3.5-4.66,10.38,10.38,0,0,0-3.9-4.27q-2.32-5-4.67-10.48a27.72,27.72,0,0,1-2.34-11.06c0-1,.07-3.17.2-6.41s.42-6.57.88-10a53.45,53.45,0,0,1,1.94-9.12c.85-2.65,2-4,3.41-4a1.39,1.39,0,0,1,1.36,1.08,2.86,2.86,0,0,0,1,1.45,42.55,42.55,0,0,0-4.38,14.21,141.53,141.53,0,0,0-.69,14.6c0,2.59.43,4.51,1.27,5.74a23.86,23.86,0,0,1,2.43,5,39.92,39.92,0,0,0,4.77,9,42.71,42.71,0,0,0,6.81,7.59A30.65,30.65,0,0,0,991,626.2a26.41,26.41,0,0,0,10,1.94q4.86,0,11.39-.49a30.88,30.88,0,0,0,11-2.62,13,13,0,0,0,3.79-2.63,12.87,12.87,0,0,1,3.8-2.63,7.37,7.37,0,0,1,2.24-.87,5.71,5.71,0,0,0,2.23-1.07,8.23,8.23,0,0,0,1.66-1.85,2.35,2.35,0,0,1,1.85-1.27,2.45,2.45,0,0,1,1.94.67c.39.45.85,1,1.36,1.64a8.54,8.54,0,0,1-5.06,4.52,31.51,31.51,0,0,0-6.22,3q-4.1,2.7-7.21,4.33a29.62,29.62,0,0,1-12.94,3.56Q1007.2,632.62,1002.14,632.62ZM972,558.46h-1.36a6.66,6.66,0,0,1-.39-1.82,4.72,4.72,0,0,1,1.17-3.43c2.59,0,5.19,0,7.78-.1s5.19-.1,7.79-.1c2.07,0,4.15.06,6.23.2a50.79,50.79,0,0,1,6.22.77,3.12,3.12,0,0,1,.78,2.24,4.26,4.26,0,0,1-.78,2.24q-4.27-.19-8.46-.58c-2.79-.26-5.62-.39-8.47-.39a23.15,23.15,0,0,0-5.25.58A17.65,17.65,0,0,1,972,558.46Zm38,45.74c-1,0-2.08,0-3.12-.1s-2.08-.16-3.11-.29h-.59a13.42,13.42,0,0,1-7.39-2.71,17.16,17.16,0,0,1-4.68-5.82,26.89,26.89,0,0,1-2.43-7.56,48.51,48.51,0,0,1-.68-8,16.85,16.85,0,0,1,1.75-6.3,51.39,51.39,0,0,1,4.28-7.75,37.39,37.39,0,0,1,5.55-6.59q3-2.8,5.74-2.81A3.63,3.63,0,0,1,1008,559c0,.52-.88,1.36-2.63,2.52a66.39,66.39,0,0,0-5.64,4.26,35.83,35.83,0,0,0-5.65,6,13.16,13.16,0,0,0-2.63,8.14,21.72,21.72,0,0,0,1.17,7.46q1.17,3.2,2.34,7.07a25.22,25.22,0,0,0,3.79,2.42c1.37.71,2.76,1.39,4.19,2a33.65,33.65,0,0,1,3.7.19,33.4,33.4,0,0,0,3.7.19,14,14,0,0,0,7.1-1.84c2.14-1.24,4.31-2.5,6.52-3.8a2.07,2.07,0,0,1,2,2.14,4.33,4.33,0,0,1-2,3.31,20.31,20.31,0,0,1-4.58,2.72,27,27,0,0,1-5.35,1.76A21.43,21.43,0,0,1,1009.93,604.2Zm96.73,14.21q-1,0-1.26-1.17a8.14,8.14,0,0,1-.3-1.94,3.18,3.18,0,0,1,.88-2.15,6.68,6.68,0,0,0,1.26-1.94,58.77,58.77,0,0,0,1.08-7.59c.19-2.6.29-5.19.29-7.79a39.38,39.38,0,0,0-2.73-14.79,36.61,36.61,0,0,0-7.59-11.88,34.35,34.35,0,0,0-11.58-7.88,38.1,38.1,0,0,0-14.89-2.82,27.25,27.25,0,0,0-10.51,1.66,22.79,22.79,0,0,0-6.72,4.28,64,64,0,0,0-5.64,6,47.69,47.69,0,0,1-7.3,6.91c-1.17,2.07-2.37,4.12-3.6,6.13s-2.5,4-3.8,5.94a3.05,3.05,0,0,1-.87,2.24,7.79,7.79,0,0,0-1.46,2,2.56,2.56,0,0,1-2-2.72,10,10,0,0,1,1.36-4.67,53.37,53.37,0,0,1,3.12-5.07c1.17-1.68,2.37-3.34,3.6-5a29.12,29.12,0,0,0,2.82-4.38,62.53,62.53,0,0,0,7.21-6.81,50.84,50.84,0,0,1,5.93-5.78,27.91,27.91,0,0,1,6.91-4.09A26.67,26.67,0,0,1,1071,553.6a46.44,46.44,0,0,1,5.06.3,49.17,49.17,0,0,1,5.45.91,28.15,28.15,0,0,1,5.26,1.72,19.72,19.72,0,0,1,4.48,2.71,16.36,16.36,0,0,1,7.39,4.38q3.51,3.4,6,6.32a22.7,22.7,0,0,1,3.41,5.84,45.63,45.63,0,0,1,2.34,7.4,69.58,69.58,0,0,1,1.65,14.4c0,.91-.07,2.53-.2,4.87a62.07,62.07,0,0,1-.77,7,30.79,30.79,0,0,1-1.66,6.23C1108.77,617.5,1107.83,618.41,1106.66,618.41ZM1086.42,620l-1.56-1v-.58a9.25,9.25,0,0,1,.39-3.7c.39-1.3.81-2.66,1.26-4.09s.91-2.88,1.37-4.37a16.52,16.52,0,0,0,.68-4.77c0-4.81-1.2-8.63-3.6-11.49s-6.2-4.28-11.39-4.28a13,13,0,0,0-7.2,2.14,28.49,28.49,0,0,0-6,5.26,54.36,54.36,0,0,0-5,6.61c-1.49,2.34-2.88,4.41-4.18,6.23a4.36,4.36,0,0,1-.78,2.63,11.6,11.6,0,0,1-2,2,3,3,0,0,1-1.94-2.72,6.68,6.68,0,0,1,.87-3.31,23.93,23.93,0,0,1,1.95-2.92c.71-.91,1.36-1.82,1.94-2.72a6.93,6.93,0,0,0,1.08-2.73q1.94-2.34,4.37-5a58.47,58.47,0,0,1,5.16-4.93,25.54,25.54,0,0,1,5.75-3.7,14.86,14.86,0,0,1,6.32-1.4q9.93,0,14.5,5.94t4.58,15.28a34.88,34.88,0,0,1-1.17,8.08,43.67,43.67,0,0,1-2.73,8.08,2.26,2.26,0,0,1-1.36.67A2.32,2.32,0,0,0,1086.42,620Zm7,1a3.09,3.09,0,0,1-.2-1.34,2.34,2.34,0,0,1,1.07-2.15,9.42,9.42,0,0,1,2.53-1,15.58,15.58,0,0,1,2.92-.47,20.81,20.81,0,0,0,2.43-.27,3.85,3.85,0,0,1,1.76,3.17,1.81,1.81,0,0,1-.39.93,2.29,2.29,0,0,1-.78.76,16.38,16.38,0,0,0-2.92-.39,25.37,25.37,0,0,0-3.21.2A23.36,23.36,0,0,0,1093.43,620.94Z"/><path class="cls-4" d="M969.63,739.67a3.51,3.51,0,0,1-3.6-2.14,11.34,11.34,0,0,1-.87-4.29,13.58,13.58,0,0,1,.78-4.67q-.59-3.89-1.56-8.37a15.13,15.13,0,0,1,.39-8.37,65.19,65.19,0,0,1-.59-13.23,56.14,56.14,0,0,0-.78-13.24,1.8,1.8,0,0,0,.78-1.07,4.22,4.22,0,0,0,.2-1.26h1a9.83,9.83,0,0,1,1.27.09,1.87,1.87,0,0,1,1.07.49A19.34,19.34,0,0,1,968,688c-.06,1.49-.1,3-.1,4.38q0,6-.09,12.07c-.07,4,0,8,.09,12.07a47.65,47.65,0,0,0,1.27,9,19.89,19.89,0,0,1,.1,8.95,5.54,5.54,0,0,0,1.26,1.85,2.84,2.84,0,0,1,.88,2l-.39,1.37Zm120.68-59.56q-23.36,0-46.42-1.27t-46.42-1.26q-7.59,0-15.28-.68a108.49,108.49,0,0,0-15.28-.3l-.78-1.55a3.89,3.89,0,0,1-.39-1.76,2.44,2.44,0,0,1,.59-1.65,1.94,1.94,0,0,1,1.55-.68,30.71,30.71,0,0,1,4.67.39,33.3,33.3,0,0,0,5.07.39q21.79,0,43.5,1.46t43.69,1.46c5.19,0,10.35.12,15.48.39s10.28.39,15.47.39a14,14,0,0,0,3.7-.49,12.18,12.18,0,0,1,3.31-.49,2.87,2.87,0,0,1,1.07.2,9,9,0,0,1,.87.39,16.27,16.27,0,0,1,.39,2.92l-.19.78a34,34,0,0,1-7.2,1.16C1095.24,680,1092.78,680.11,1090.31,680.11ZM994,751.74c-2.2-.27-4.47-.46-6.81-.59s-4.61-.19-6.81-.19c-1.3,0-2.53,0-3.7.09a27.32,27.32,0,0,0-3.7.49,8.38,8.38,0,0,1-6.42-4.26,1.63,1.63,0,0,1,2.14-1,10.92,10.92,0,0,0,2.53.39c3.12,0,6.23-.13,9.35-.39a56,56,0,0,1,9.34,0,2.4,2.4,0,0,0,.58-1.06,4.32,4.32,0,0,0,.2-1.08,8.37,8.37,0,0,0-.2-1.84,2.91,2.91,0,0,0-.78-1.47,26.47,26.47,0,0,0,.78-6.81,24.88,24.88,0,0,0-.78-6.42,15.32,15.32,0,0,0,.2-4.48c-.13-1.94-.2-3.57-.2-4.86,0-.39,0-1.24.1-2.53s.19-2.63.39-4A24.72,24.72,0,0,1,991,708c.32-1.11.74-1.66,1.26-1.66a1.22,1.22,0,0,1,1.27.88,2,2,0,0,0,1.26,1.26,63.9,63.9,0,0,0-1.17,12.13v9.19c0,3.12.13,6.19.39,9.19a11.18,11.18,0,0,0,.88,3.12,5.31,5.31,0,0,1,.29,3.33l1,1.76.2.58a2.88,2.88,0,0,1-.78,2.26A12,12,0,0,0,994,751.74Zm37.18-9.35a1.51,1.51,0,0,1-1.07-1.26,1.52,1.52,0,0,0-1.07-1.27c-.13-.39,0-.58.29-.58s.49-.13.49-.39q0-9.15-.49-18t-.1-18c-3,0-6-.07-9-.2s-6-.19-9-.19q-3.9,0-7.88.39c-2.67.26-5.29.39-7.89.39a5.29,5.29,0,0,1-3.5-1.12c0-.5,0-1.16-.1-2s.1-1.34.49-1.59h3.11q9.15.39,18.49.1t18.49-.88a1.94,1.94,0,0,1,1.08,1.5c.06.62.09,1.25.09,1.87q0,4.8-.39,9.48t-.39,9.53a72.85,72.85,0,0,0,.69,10,46.56,46.56,0,0,1,.28,10l-.19,1.36A20.13,20.13,0,0,1,1031.14,742.39Zm2.72,9a6.93,6.93,0,0,1-1-3.64v-.61a11.17,11.17,0,0,1,6.62-1.3c2.59.19,4.87.29,6.81.29h2a9.93,9.93,0,0,0,2-.2c.12-2.46.19-4.86.19-7.2v-7q0-4.49-.39-8.86t-.39-8.85a28.84,28.84,0,0,1,.29-4,9.23,9.23,0,0,1,1.27-3.61,3.44,3.44,0,0,1,1.56.3c.39.19.9.42,1.55.68q-.39,8.79-.39,17.4v17.4a7,7,0,0,0,.68,3.13,6.41,6.41,0,0,1,.69,2.93,4,4,0,0,1-.78,2.15,41.78,41.78,0,0,1-10.32.68A61,61,0,0,0,1033.86,751.35Zm52-8.76c-2.47.26-3.7-.85-3.7-3.31a15.19,15.19,0,0,1,.58-4.19,15.12,15.12,0,0,0,.58-4.18,44.26,44.26,0,0,0-.58-7.11c-.39-2.4-.78-4.76-1.17-7.1s-.71-4.71-1-7.1a34.26,34.26,0,0,1,0-7.3,57.29,57.29,0,0,1-9.93-.49,70.53,70.53,0,0,0-9.92-.68c-1.43,0-2.86.06-4.29.19a24.88,24.88,0,0,0-4.28.78,2.23,2.23,0,0,1-1.94-2.45,3.44,3.44,0,0,1,2.33-3.39q6,.19,12,.78t12,.58a9.59,9.59,0,0,0,3-.48,9.28,9.28,0,0,1,3-.49c.9,0,1.55.66,1.94,2a18.68,18.68,0,0,1,.68,4.67,47.33,47.33,0,0,1-.09,5.22c-.14,1.69-.2,2.86-.2,3.51a67.62,67.62,0,0,0,1.36,13.52,43,43,0,0,1,.59,13.53c.39.39.58.65.58.78a2.11,2.11,0,0,1-.58,1.56A7.15,7.15,0,0,0,1085.84,742.59Zm0,12.45c-1.17,0-1.76-.65-1.76-1.94a1.59,1.59,0,0,1,.39-1.17,1.19,1.19,0,0,0,.2-1.17,25.71,25.71,0,0,1,9.92-1.17,42.11,42.11,0,0,0,9.93-.39q-.19-9.35,0-18.68t.19-18.69a70,70,0,0,0-.48-8.17,69.7,69.7,0,0,1-.49-8.37c0-1.56,0-3.15-.1-4.77a12,12,0,0,0-1.07-4.57,6.78,6.78,0,0,1,1.37-2.05,2.7,2.7,0,0,1,1.94-1.07,3.08,3.08,0,0,1,1.85,3.51,40.39,40.39,0,0,0-.29,4.47q0,9,.49,17.91t.48,18.1c0,3.76.13,7.5.39,11.19s.39,7.43.39,11.19c0,.65,0,1.37-.1,2.15a18.18,18.18,0,0,1-.29,2.14,20.11,20.11,0,0,1-7.1.78c-2.8-.14-5.23-.2-7.3-.2a18.86,18.86,0,0,0-4.28.49A19.57,19.57,0,0,1,1085.84,755Z"/><path class="cls-4" d="M975.09,909.78c-.78,0-1.34-.55-1.66-1.65a16.06,16.06,0,0,1-.58-3.8c-.07-1.43-.1-2.82-.1-4.18v-3a27.31,27.31,0,0,1,.39-3.7c.26-1.68.9-2.53,2-2.53a1.22,1.22,0,0,1,1.26.88,7,7,0,0,1,.29,2.14,16.58,16.58,0,0,1-.19,2.53,13.79,13.79,0,0,0-.2,1.85c0,1.43,0,2.79.1,4.09a29.78,29.78,0,0,1-.1,4.08c.39.13.59.52.59,1.17l-1,2Zm116.58,14q-7.39,0-14.6-.39l-14.4-.78a54.23,54.23,0,0,1-7.49-.88q-3.6-.68-7.49-1.07a124.67,124.67,0,0,0-14.7-.29q-7.31.3-14.69.29c-3.51,0-7-.16-10.52-.48s-7-.49-10.51-.49a37.83,37.83,0,0,0-6.13.49,38.9,38.9,0,0,1-6.13.48,11.92,11.92,0,0,1-2.24-.29,16.47,16.47,0,0,1-2.92-.88,19.37,19.37,0,0,1-2.62-1.26c-.78-.46-1.17-.94-1.17-1.46a.84.84,0,0,1,.09-.49.38.38,0,0,0,.1-.29,2.42,2.42,0,0,1,1.76-.78,7.94,7.94,0,0,1,2.72.49,8.73,8.73,0,0,0,2.92.49,36.61,36.61,0,0,0,4.67-.3,38.52,38.52,0,0,1,4.67-.29q8.37,0,16.64.39t16.64.39q16.93,0,33.58,1.36t33.58,1.37c1.42,0,2.14.84,2.14,2.53l-1,1.94Zm-22.38-25.11a26,26,0,0,1-6.62-.49,25.87,25.87,0,0,0-6.61-.49q-3.9,0-7.69.2c-2.53.13-5.1.19-7.69.19q-7.2,0-14.41-.48t-14.4-.49q-7,0-15-.19a87,87,0,0,1-14.79-1.56,6.89,6.89,0,0,1-.19-2,1.43,1.43,0,0,1,.09-.58,1.28,1.28,0,0,0,.1-.59,3.22,3.22,0,0,1,2.34-.77,9.89,9.89,0,0,1,1.94.19,9.91,9.91,0,0,0,2,.19q11.67,1,23.45,1.08t23.65.48q8.76.39,17.81.2A90.21,90.21,0,0,1,1071,895a3.12,3.12,0,0,1,.39,1.36,3.58,3.58,0,0,1-.29,1.17,11.61,11.61,0,0,1-.49,1.17Zm1.36-8a4.73,4.73,0,0,1-2.92-3.51,20.74,20.74,0,0,1-.58-4.67q0-6.62.78-8.85a3.33,3.33,0,0,1,2.63-2.53,16,16,0,0,1,4.86.19,17.66,17.66,0,0,0,7.3-.68,3.92,3.92,0,0,1,.78,2.53l-.2,1a5.76,5.76,0,0,1-3.4,1h-3.6q-1.56,0-2.82.09a8.35,8.35,0,0,0-2.63.69,25.1,25.1,0,0,1-.2,3.11,25,25,0,0,0-.19,3.11,7.47,7.47,0,0,0,.68,3.22,7.07,7.07,0,0,1,.68,3A2.62,2.62,0,0,1,1070.65,890.71Zm30.56,3.31a17.18,17.18,0,0,1-5.35-5.45,22.14,22.14,0,0,0-5-5.65,2.64,2.64,0,0,0-.88-1.85,24.2,24.2,0,0,0-1.85-1.65,13.85,13.85,0,0,1-1.75-1.66,2.55,2.55,0,0,1-.78-1.65,3.69,3.69,0,0,1,.49-1.85,1.57,1.57,0,0,1,1.46-.87c.39,0,1.23.78,2.53,2.33s2.72,3.37,4.28,5.45,3,4,4.48,5.84a26.87,26.87,0,0,0,3.3,3.7v.78a5.73,5.73,0,0,1-.19,1.36A1.92,1.92,0,0,1,1101.21,894Zm-.78,24.52a4.3,4.3,0,0,1-1.36-.19,18.44,18.44,0,0,1-.1-5,40.42,40.42,0,0,0,.29-5,21.68,21.68,0,0,0-.48-4.57,20.35,20.35,0,0,1-.49-4.38,5.73,5.73,0,0,1,.68-2.92,3.19,3.19,0,0,1,2.63-1.37,19.39,19.39,0,0,1,.39,3.22q.19,2.63.39,5.74c.13,2.07.22,4.05.29,5.93s.1,3.15.1,3.8a18.89,18.89,0,0,1-.29,2.92A1.88,1.88,0,0,1,1100.43,918.54Z"/><path class="cls-5" d="M372.09,723.64s-6.53,1.3-5.66-8.28,12.36-20.11,21.12-31.79c7.84-10.45,32-74.91-58.58-57.49-76.65,14.81-117.59,21.78-111.49,51.39S224,748,343.78,716.23c11.32-5.66,15.24,3.92,22.21,8.71"/><path class="cls-3" d="M261.27,661a16.42,16.42,0,0,0-1.92.41l-.21-1.22a13.34,13.34,0,0,0,2-.22l10.11-1.72a13.15,13.15,0,0,0,1.93-.46l.21,1.22a15.1,15.1,0,0,0-1.9.24l-4.75.81.2,1.2,5.77-1a12.53,12.53,0,0,0,2.09-.47,14.82,14.82,0,0,0,.19,1.49l.2,1.16a8.79,8.79,0,0,0,.35,1.45l-1.24.21-.52-3-6.68,1.14.4,2.34a12.2,12.2,0,0,0,.43,1.89l-1.4.24a11.16,11.16,0,0,0-.2-1.93l-.4-2.34-6.32,1.08.53,3.05-1.26.21a8.16,8.16,0,0,0-.13-1.48l-.2-1.16a10.66,10.66,0,0,0-.33-1.46,12.48,12.48,0,0,0,2.14-.27l5.4-.92-.2-1.2Zm-.41,3.25a8.33,8.33,0,0,0,1.19-.15l1.8-.3a9.71,9.71,0,0,0,1.15-.26l.16.93a7.58,7.58,0,0,0-1.17.14l-1.8.3a8.31,8.31,0,0,0-1.17.27Zm2.31,9.62.19,1.1-1.32.23a10.76,10.76,0,0,0-.16-1.69l-.61-3.59c-.13-.71-.26-1.25-.38-1.73a14.58,14.58,0,0,0,1.7-.21l9.8-1.67a12.92,12.92,0,0,0,1.75-.39c0,.48.11,1,.24,1.76l.48,2.84a9.78,9.78,0,0,0,.3,1.39,16.73,16.73,0,0,0-1.8.22l-4.46.77.23,1.34c.08.46.47.46,3.21,0,2.32-.39,3.34-.67,3.62-1s.21-.83,0-2.38a5.19,5.19,0,0,0,1.29.32c.23,1.57.16,2.38-.27,2.81s-1.57.81-4.62,1.33c-3.59.61-4.13.54-4.32-.6l-.28-1.62Zm-2-7.76a7.37,7.37,0,0,0,1.19-.14l1.8-.31a8.75,8.75,0,0,0,1.15-.26l.16.94a9.17,9.17,0,0,0-1.17.13l-1.8.31a9.42,9.42,0,0,0-1.17.26Zm1.16,2.89.24,1.41,4.55-.78-.24-1.4Zm.4,2.34.27,1.56,4.55-.77-.27-1.57Zm10.56-2.76-.24-1.41-5,.85.24,1.41ZM268.45,663a10.71,10.71,0,0,0,1.19-.14l2.13-.37a8.35,8.35,0,0,0,1.12-.25l.16.93a9.71,9.71,0,0,0-1.14.13l-2.14.37a8.57,8.57,0,0,0-1.16.26Zm5.28,8.14-.27-1.57-5,.86.27,1.56Zm-5-6.23a8.87,8.87,0,0,0,1.19-.15l2.13-.36c.47-.08.79-.16,1.13-.25l.16.93a8.93,8.93,0,0,0-1.15.13l-2.13.36a9.12,9.12,0,0,0-1.17.27Z"/><path class="cls-3" d="M286,657.06a9.46,9.46,0,0,0-.46-1.84L287,655a10,10,0,0,0,.18,1.9l0,.24,5.87-1a10.65,10.65,0,0,0,2-.48l.23,1.35a16.78,16.78,0,0,0-2,.22l-5.86,1,.28,1.69,4-.68a13.58,13.58,0,0,0,2.2-.48,16.37,16.37,0,0,0,.27,2.06l.52,3.05a15.35,15.35,0,0,0,.43,2,16.41,16.41,0,0,0-2.25.28l-4,.68.3,1.73,6.07-1a9.76,9.76,0,0,0,2-.48l.24,1.37a14.45,14.45,0,0,0-2,.22l-6.07,1,.16.94a9.49,9.49,0,0,0,.51,2.12l-1.49.26a10.71,10.71,0,0,0-.22-2.18l-.16-.93-5.77,1a14.42,14.42,0,0,0-2,.46l-.24-1.37a10.27,10.27,0,0,0,2-.2l5.77-1-.3-1.72-3.61.61a15.52,15.52,0,0,0-2.26.49,15,15,0,0,0-.26-2.06l-.52-3a15.78,15.78,0,0,0-.44-2.08,13.62,13.62,0,0,0,2.19-.27l3.72-.63-.29-1.69-5.62,1a13.47,13.47,0,0,0-1.95.46l-.23-1.36a9.83,9.83,0,0,0,2-.2l5.6-1Zm-3.89,4.86.32,1.89L287,663l-.32-1.89Zm.5,2.93.33,1.91,4.58-.79-.32-1.91Zm10.5-2.86-.32-1.89-4.9.83.33,1.89Zm.5,2.94L293.3,663l-4.9.84.33,1.91Z"/><path class="cls-3" d="M298.93,653.33a25.09,25.09,0,0,1,3.72,2.91l-.85,1.07a18,18,0,0,0-3.62-3Zm.21,7.55a7.13,7.13,0,0,0,1.39-.14l.92-.16a8.47,8.47,0,0,0,1.46-.35,13.68,13.68,0,0,0,.25,2.09l.65,3.79a3.46,3.46,0,0,0,1.88,1.44c.93.34,2.24.3,4.92-.15a66.19,66.19,0,0,0,7.72-1.74,7.11,7.11,0,0,0-.2,1.51c-2.13.45-4.48.9-6.27,1.2-3.85.66-5,.72-6.38.28a5.22,5.22,0,0,1-2.18-1.38,18.3,18.3,0,0,1-1.1,1.63c-.24.31-.33.41-.62.79-.17.22-.22.29-.46.58l-.87-1.17a11,11,0,0,0,2.39-2.77l-.8-4.66-1.2.2a6.59,6.59,0,0,0-1.28.32Zm9.93-5.21a17.25,17.25,0,0,0-2.86-1.21l.76-.79a27.21,27.21,0,0,1,2.92,1.31,16,16,0,0,0,2.65-2.58l-7.19,1.23a13,13,0,0,0-2,.44l-.21-1.24a10.82,10.82,0,0,0,2.07-.23l6.8-1.16a13.43,13.43,0,0,0,2-.42l.6.62a5.16,5.16,0,0,0-.42.45,21.64,21.64,0,0,1-3.45,3.29l2.56-.44a12.67,12.67,0,0,0,2.11-.47,22.84,22.84,0,0,0,.33,2.41l1.1,6.42c.2,1.21-.05,1.55-1.45,1.79-.47.08-.79.14-1.35.19a3.61,3.61,0,0,0-.48-1.09,9.77,9.77,0,0,0,1.65-.14c.47-.08.54-.17.46-.64l-.32-1.88-4.09.69.21,1.22a11.14,11.14,0,0,0,.48,2.09l-1.35.23a15.29,15.29,0,0,0-.24-2.13l-.21-1.22-3.64.63.26,1.5a12.21,12.21,0,0,0,.47,2l-1.4.24a12.71,12.71,0,0,0-.22-2.08l-1.06-6.15a17.43,17.43,0,0,0-.45-2.17,16.88,16.88,0,0,0,2.12-.26Zm-3.51,1.6.32,1.91,3.64-.62-.33-1.91Zm.82,4.81,3.64-.62-.34-2-3.64.62Zm4.25-3.71,4.09-.7-.33-1.91-4.08.7Zm4.25.23-4.09.7.34,2,4.08-.7Z"/><path class="cls-3" d="M323,652.1a12.86,12.86,0,0,0-2.26-2.21l1.11-.56a18.52,18.52,0,0,1,2.46,2.54l2.85-.48a12.12,12.12,0,0,0-1.9-2.56l1.16-.56a21,21,0,0,1,2,2.9l2.13-.37a12.06,12.06,0,0,0,1.45-3.46l1.31.3a17.92,17.92,0,0,1-1.42,2.93l1.52-.26c1.11-.19,1.58-.29,2.24-.46a11.22,11.22,0,0,0,.19,1.59l.25,1.47a11.21,11.21,0,0,0,.33,1.36l-1.29.22-.57-3.31-13.72,2.35.56,3.31-1.29.22a11.64,11.64,0,0,0-.14-1.4l-.25-1.46a11.54,11.54,0,0,0-.35-1.57c.72-.06,1.19-.12,2.25-.3Zm7.42,12c.2,1.22-.1,1.5-1.95,1.82-.57.1-1.51.22-2.23.28a6.38,6.38,0,0,0-.6-1.2,18.31,18.31,0,0,0,2.57-.21c.88-.15,1-.23.94-.66l-.67-3.91-5.83,1a15.94,15.94,0,0,0-2,.47l-.23-1.34a14,14,0,0,0,2.05-.22l5.85-1-.06-.35c-.07-.38-.14-.68-.26-1.12l.82-.14a15.36,15.36,0,0,0,3.11-2.79l-7.1,1.21c-.67.12-1.35.28-1.83.42l-.22-1.28c.54,0,1.19-.1,1.89-.21l7-1.21a7.48,7.48,0,0,0,1.43-.33l.86.67-.57.66a20.74,20.74,0,0,1-4,3.65l.11.61,5.8-1a13.39,13.39,0,0,0,2.05-.48l.23,1.34a15.28,15.28,0,0,0-2.09.23l-5.81,1Z"/><path class="cls-3" d="M344.52,657.61a.49.49,0,0,1,.17.3,3.73,3.73,0,0,1-.13,1,17.22,17.22,0,0,0-.26,3.34c0,.29,0,.36-.18.43a4.46,4.46,0,0,1-.82.2c-.22,0-.24,0-.58-.71a19.34,19.34,0,0,1-1.5-5,36.29,36.29,0,0,1-.43-7.26,20.07,20.07,0,0,0-.06-2.64c1.12,0,1.77.17,1.81.42,0,.08,0,.1-.08.35-.5,1.38-.5,6.16,0,9.15a21.61,21.61,0,0,0,.84,3.3c.16-.78.24-1.28.38-1.91l.32-1.68A2,2,0,0,0,344.52,657.61Zm3.57-6.25-.33.06-1.08.16c-.2,0-.27,0-.31-.12a4.63,4.63,0,0,1-.27-.93s0-.12,0-.2c.78-.08,1.15-.12,1.8-.23a25.77,25.77,0,0,0,2.84-.63c-.12-.69-.19-1.1-.26-1.52s-.09-.53-.13-.75a12.29,12.29,0,0,0-.4-1.73,6.25,6.25,0,0,1,1.54,0c.17,0,.26.07.28.2a.34.34,0,0,1,0,.27,8.35,8.35,0,0,0,.23,3.2,25.57,25.57,0,0,0,2.77-1.05.33.33,0,0,1,.14,0c.08,0,.12,0,.16.1a6.56,6.56,0,0,1,.27.95c0,.17,0,.22-.17.28a26.46,26.46,0,0,1-2.95,1c.26,1.52.66,3.5,1.21,5.85a15.48,15.48,0,0,1,3.89,1.38c.21.12.31.2.33.33s0,.27-.21.62c-.28.55-.28.55-.38.56s-.08,0-.74-.37a13.07,13.07,0,0,0-2.61-1.14c.05.18.07.32.09.42.31,1.83-.77,3.1-2.92,3.46s-3.44-.43-3.7-2,.93-2.9,3-3.26a7.1,7.1,0,0,1,1.88-.13c-.64-3-.72-3.43-1.1-5.41C349.84,651,348.78,651.24,348.09,651.36Zm2.31,6.1c-1.46.25-2.22.92-2.07,1.8s1,1.22,2.28,1,2-1,1.74-2.27a1.77,1.77,0,0,0-.11-.54A4.74,4.74,0,0,0,350.4,657.46Z"/><path class="cls-3" d="M259,689.29c.21,0,.33.07.35.19a2.16,2.16,0,0,1,0,.26,5.79,5.79,0,0,0,.12,1.42,21.31,21.31,0,0,0,.8,3c.34.93.65,1.23,1.15,1.14s1-.4,2.56-1.54a6.63,6.63,0,0,0,.89-.78c.06,0,.07-.06.13-.07.23,0,1.13.94,1.18,1.29,0,.12-.06.22-.29.32a23.81,23.81,0,0,0-3,1.61c-3.32,2.07-4.86,4.07-4.55,5.85.25,1.51,1.62,1.94,4.53,1.44a30.12,30.12,0,0,0,4.66-1.19l.16-.05a.26.26,0,0,1,.27.12,4.46,4.46,0,0,1,.3,1c0,.22,0,.31-.24.4-.78.23-3,.74-4.41,1a12.42,12.42,0,0,1-3.75.2,3,3,0,0,1-2.89-2.64,4.5,4.5,0,0,1,.79-3.31,10,10,0,0,1,2.59-2.68c-1-.21-1.4-1.1-2.4-5a11,11,0,0,0-.58-1.82A8.5,8.5,0,0,1,259,689.29Z"/><path class="cls-3" d="M273.74,693.87a17.48,17.48,0,0,1,5.37-2,4.64,4.64,0,0,1,3.19.46,3.69,3.69,0,0,1,1.66,2.51,4.74,4.74,0,0,1-1.45,4.34,11.37,11.37,0,0,1-3.53,2.2,8.9,8.9,0,0,1-1.39.44c-.18,0-.18,0-.41-.33a2.62,2.62,0,0,0-.68-.69,13,13,0,0,0,4.24-2,3.81,3.81,0,0,0,1.83-3.7c-.27-1.58-1.58-2.38-3.4-2.07a16.39,16.39,0,0,0-5.45,2.33,5.79,5.79,0,0,0-1.32,1,.66.66,0,0,1-.24.17c-.26,0-.78-.54-1.27-1.46A23.88,23.88,0,0,0,273.74,693.87Z"/><path class="cls-3" d="M297.48,683.86a18.46,18.46,0,0,0,2.14-.76.34.34,0,0,1,.14-.05.3.3,0,0,1,.29.12,5,5,0,0,1,.48,1.11c0,.18,0,.21-.39.27a7.53,7.53,0,0,0-3.32,1.47,7.93,7.93,0,0,0-2.93,7.31c.33,1.93,1.66,3.12,3.93,3.57a7.75,7.75,0,0,0,2.33.14.21.21,0,0,1,.24.19,3.92,3.92,0,0,1,0,1.18c0,.15-.09.22-.23.25a12.73,12.73,0,0,1-2.46-.21c-3-.54-4.69-2.16-5.17-5a8,8,0,0,1,1-5.28,10,10,0,0,1,2-2.46c-7.13,2.51-8.23,2.93-9.11,3.54a.67.67,0,0,1-.32.16c-.19,0-.26,0-.44-.24a4.88,4.88,0,0,1-.75-1.35,40.58,40.58,0,0,0,4.77-1.42Z"/><path class="cls-3" d="M308.13,681a3.88,3.88,0,0,0-.11-.49c1.31.05,2,.21,2,.47a.57.57,0,0,1-.09.35,9.12,9.12,0,0,0-.29,2.73,4.9,4.9,0,0,1,0,.65c.7-.08.7-.08,1.87-.28.55-.09.55-.09.63.35a1.76,1.76,0,0,1,0,.79c-.05.09-.15.11-1.19.29-.4.07-.67.09-1.37.15-.05,2.14-.05,2.37,0,4.11a13.24,13.24,0,0,0,1.58-.16c.25,0,1-.2,1.17-.24l.09,0c.22,0,.34.19.47,1,.06.34,0,.34-.85.5a21.38,21.38,0,0,1-2.38.28c.06.68.13,1.23.21,1.68.33,2,1.51,2.72,3.64,2.36,2.33-.4,3.69-1.9,3.37-3.73a4.79,4.79,0,0,0-1.45-2.66,7.12,7.12,0,0,0-1.55-1.09l.12,0a4.39,4.39,0,0,0,.9-.28,1.68,1.68,0,0,1,.33-.12c.22,0,.5.12,1.11.63a5.35,5.35,0,0,1,2,3.29c.45,2.62-1.31,4.68-4.45,5.22a5,5,0,0,1-3.69-.56,4.21,4.21,0,0,1-1.56-2.89c-.06-.33-.12-.92-.2-1.81-2.19-.06-3.3-.71-3.52-2-.12-.69.13-1.53.46-1.58a.82.82,0,0,1,.41.1c.31.11.43.19.45.32a.26.26,0,0,1-.05.19,1.34,1.34,0,0,0-.15.72c.11.61,1,1,2.32,1,0-.83,0-1.21-.06-4.11a9.47,9.47,0,0,1-3.65-.73c-.32-.13-.39-.2-.42-.35a3.22,3.22,0,0,1,.28-1.07,9.11,9.11,0,0,0,3.78.84A22.63,22.63,0,0,0,308.13,681Z"/><path class="cls-3" d="M325.25,692.86a19,19,0,0,0,.5,2.27l-1.43.25A20.22,20.22,0,0,0,324,693l-1.11-6.45c-.18-1.1-.24-1.53-.34-2.39a13.09,13.09,0,0,1-1.26,3.12,3.73,3.73,0,0,0-1-.9,18,18,0,0,0,2.27-6.24,11.74,11.74,0,0,0,.3-2.91l1.36.16c-.08.37-.13.68-.19,1.17a25.46,25.46,0,0,1-.7,3.5ZM326.71,679a11,11,0,0,0-1.79.41l-.23-1.32a12.89,12.89,0,0,0,1.93-.2l8.67-1.48a13.46,13.46,0,0,0,1.93-.46l.22,1.32a13.9,13.9,0,0,0-1.84.21l-4.32.74.33,2,3.35-.57a10.38,10.38,0,0,0,1.71-.4,15.39,15.39,0,0,0,.26,2l.54,3.19a17.45,17.45,0,0,0,.42,2,9.73,9.73,0,0,0-1.62.18l-3.89.66a6.3,6.3,0,0,1-.63,2.95,12.77,12.77,0,0,0,4.05.83,17.08,17.08,0,0,0,4.2-.22,4.9,4.9,0,0,0-.28,1.39,17.42,17.42,0,0,1-8.6-.95,10.82,10.82,0,0,1-4.05,3.32,4.55,4.55,0,0,0-.84-1,9.44,9.44,0,0,0,3.82-2.83,6.56,6.56,0,0,1-.93-.53,5.59,5.59,0,0,1-.69-.42,7.31,7.31,0,0,0-.71-.45l.92-.88a6.39,6.39,0,0,0,2.07,1.23,5.3,5.3,0,0,0,.51-2.26l-3.05.52a8,8,0,0,0-1.42.35,16.32,16.32,0,0,0-.24-1.88l-.58-3.39a18.8,18.8,0,0,0-.4-1.9,12.83,12.83,0,0,0,1.78-.2l3.13-.53-.34-2Zm.24,3,.32,1.87,3.61-.62c-.09-.68-.16-1.23-.28-1.88Zm.49,2.88.36,2.07,3.41-.58a19.49,19.49,0,0,0-.19-2.1Zm4.34-3.71s.09.65.28,1.88l3.88-.67-.32-1.87Zm.41,2.9a19.85,19.85,0,0,1,.17,2.1l4.1-.7-.35-2.07Z"/><path class="cls-3" d="M344.55,676.46c-1.16.51-1.75.76-3.15,1.25a3.67,3.67,0,0,0-.76-1,27.35,27.35,0,0,0,5.94-2.52,4.9,4.9,0,0,0,1.18-.81l1.05.89c-.11.08-.45.27-1,.59s-1.31.7-2.12,1.09l.52,3.05,1.89-.32a10.57,10.57,0,0,0,1.69-.4l.22,1.3a9.51,9.51,0,0,0-1.74.2l-1.83.31a7.71,7.71,0,0,0,1.23,1.56,14.42,14.42,0,0,0,2.86,2.17A3.77,3.77,0,0,0,350,685a13.49,13.49,0,0,1-3.41-3.37c.25,1.09.51,2.4.66,3.28l.69,4a15.88,15.88,0,0,0,.51,2.36l-1.44.25a16.31,16.31,0,0,0-.27-2.4l-.65-3.8c-.19-1.11-.27-1.6-.46-3.32a16.86,16.86,0,0,1-2.62,6.53,4.19,4.19,0,0,0-1-1,13.26,13.26,0,0,0,2.1-3.72,18.18,18.18,0,0,0,1-3.51l-1.87.32a12.33,12.33,0,0,0-1.82.43l-.23-1.34a8.32,8.32,0,0,0,1.89-.19l2-.35Zm7.37-2.6a15.57,15.57,0,0,0,.28,2.25l1.28,7.49a15.35,15.35,0,0,0,.49,2.26l-1.44.25a13.9,13.9,0,0,0-.28-2.27L351,676.33a14.08,14.08,0,0,0-.5-2.22Zm4.62-1.91a21.39,21.39,0,0,0,.3,2.47L359,687.23c.24,1.38-.17,1.81-2,2.12-.59.1-1.34.21-2,.26a4.63,4.63,0,0,0-.62-1.21,22.09,22.09,0,0,0,2.56-.25c.78-.13.9-.26.82-.75l-2.19-12.76a18,18,0,0,0-.54-2.44Z"/><path class="cls-3" d="M368.48,684.8a3.09,3.09,0,1,1-3.57-2.52A3.09,3.09,0,0,1,368.48,684.8Zm-4.94.85a1.92,1.92,0,1,0,1.57-2.22A1.93,1.93,0,0,0,363.54,685.65Z"/><path class="cls-2" d="M806.38,1462s-2-13.65-13.65-11.7-48.1,4.55-52-9.1-28-66.3,32.5-77.35c42.9-7.8,73.45-.65,74.1,46.8.65,32.5-11.05,30.55-25.35,33.8s-13.65,6.5-11.05,16.25"/><path class="cls-3" d="M765.52,1386.33c-1.6,3.68-2.52,4.89-3.73,5-.95.07-1.63-.68-1.71-1.88a3.53,3.53,0,0,1,2.24-3.4,6.3,6.3,0,0,1,2.4-.62c.73-1.76,1.12-2.8,1.74-4.48a13.19,13.19,0,0,0-3.71.66.27.27,0,0,1-.12,0c-.12,0-.19,0-.25-.21a4,4,0,0,1-.28-1.13,8,8,0,0,0,1.2,0,14.37,14.37,0,0,0,3.64-.58.49.49,0,0,1,.25-.12c.17,0,.37.11.63.41s.34.42.34.52,0,.18-.2.31a1.44,1.44,0,0,0-.34.55c-.3.71-1.51,3.56-1.7,4a12.23,12.23,0,0,1,4.36.93,10.86,10.86,0,0,0,.09-1.88,8,8,0,0,0-.12-.94,6.77,6.77,0,0,1,1.27.2c.12,0,.18.09.18.16a1,1,0,0,1-.08.38,3.78,3.78,0,0,0-.12.94,11.55,11.55,0,0,1-.16,1.61c1.44.69,2.48,1.38,2.5,1.64a1.7,1.7,0,0,1-.32.67c-.11.15-.19.22-.26.23a.52.52,0,0,1-.3-.14,15.64,15.64,0,0,0-1.89-1.27,7.76,7.76,0,0,1-2.35,3.7,6.79,6.79,0,0,1-1.81,1.22c-.11,0-.18,0-.31-.17a1.84,1.84,0,0,0-.75-.5,8,8,0,0,0,2.85-2.15,7.25,7.25,0,0,0,1.36-2.63A11.68,11.68,0,0,0,765.52,1386.33Zm-3,.69a2.45,2.45,0,0,0-1.43,2.25c0,.55.3.92.63.9s.7-.32,1.13-1a19.63,19.63,0,0,0,1.39-2.65A4.8,4.8,0,0,0,762.55,1387Z"/><path class="cls-3" d="M782.27,1378.67c0,.07,0,.1-.19.3a45.13,45.13,0,0,0-3.26,6.65c-.12.28-.23.5-.7,1.42,1.11-1.67,2.11-2.39,3.48-2.48a2,2,0,0,1,2.22,1.63,18.25,18.25,0,0,1,.43,2.34,2.66,2.66,0,0,0,.3,1.08,1.1,1.1,0,0,0,1.1.48,3.22,3.22,0,0,0,2.39-1.72,9.36,9.36,0,0,0,.82-1.7,2,2,0,0,0,.39,1,.72.72,0,0,1,.13.34,2.83,2.83,0,0,1-.57,1.24,4.09,4.09,0,0,1-3.16,2,2,2,0,0,1-2.23-1.15,8,8,0,0,1-.48-2.2,4.42,4.42,0,0,0-.46-1.72,1.09,1.09,0,0,0-1.09-.57c-1.5.1-3.08,1.82-4,4.34a13.77,13.77,0,0,0-.45,1.56c0,.17-.08.22-.17.23-.31,0-1.1-.32-1.12-.49,0,0,.1-.3.27-.74s.16-.37.72-2,1.77-4.58,2.75-6.88a18.45,18.45,0,0,0,1.4-3.69C781.63,1378.13,782.25,1378.46,782.27,1378.67Z"/><path class="cls-3" d="M792.39,1381.19l-.41.06a3.71,3.71,0,0,1-.55,0c-.24,0-.27,0-.31-.11a4.4,4.4,0,0,1-.22-1l1,0c.6,0,1.76-.2,2.66-.37a10.12,10.12,0,0,0,.33-3.08,8.19,8.19,0,0,1,1.27.21c.24.07.28.1.29.19a.71.71,0,0,1-.09.26,8.14,8.14,0,0,0-.56,2.15,18.77,18.77,0,0,0,2.29-.66.39.39,0,0,1,.14-.05c.12,0,.16.1.24.52,0,.12,0,.21.05.26a.41.41,0,0,1,0,.15c0,.14,0,.17-.34.26l-.15,0c-.59.16-1.83.46-2.52.61a34.56,34.56,0,0,1-2.32,6.15c-.49,1-.75,1.39-.92,1.4a1.78,1.78,0,0,1-1-.62.56.56,0,0,1,.14-.32,10.11,10.11,0,0,0,.85-1.4,23.59,23.59,0,0,0,2-5C793.14,1381.11,793,1381.13,792.39,1381.19Zm8.24,1a.73.73,0,0,1,0,.22,3.62,3.62,0,0,0-.05,1.1c.05.77.17,1.82.35,3a10.48,10.48,0,0,1,2.46,1.13c.62.37.8.51.8.63s-.38,1-.55,1-.12,0-.27-.16a9,9,0,0,0-2.32-1.36,3.36,3.36,0,0,1-.12,1.37,2.49,2.49,0,0,1-2.51,1.6c-1.66.11-2.83-.67-2.91-1.94s1.09-2.44,2.86-2.56a6.17,6.17,0,0,1,1.43.08c-.16-1.19-.28-2.13-.39-3.28a8.43,8.43,0,0,0-.15-1.09C800.34,1382,800.61,1382.06,800.63,1382.24Zm-2.29,5c-1.16.07-1.88.62-1.83,1.39s.69,1.11,1.73,1c1.24-.08,1.73-.7,1.64-2a1.43,1.43,0,0,0,0-.24A3.46,3.46,0,0,0,798.34,1387.29Zm2.21-7.23a1.67,1.67,0,0,1,.13-.2c.15-.27.2-.32.32-.33a9,9,0,0,1,2.37,1c.73.43,1,.64,1,.78a1.74,1.74,0,0,1-.3.72c-.09.16-.17.24-.26.24s-.06,0-.41-.26a9,9,0,0,0-2.79-1.44c-.13,0-.18-.09-.19-.17A.58.58,0,0,1,800.55,1380.06Z"/><path class="cls-3" d="M816.81,1376.81a15.4,15.4,0,0,0,1.85-.45.27.27,0,0,1,.12,0,.25.25,0,0,1,.23.12,4.75,4.75,0,0,1,.3,1c0,.16,0,.18-.34.2a6.2,6.2,0,0,0-2.88.92,6.63,6.63,0,0,0-3.07,5.81c.11,1.63,1.11,2.73,3,3.3a6.36,6.36,0,0,0,1.91.32.17.17,0,0,1,.18.18,3.31,3.31,0,0,1-.12,1c-.05.12-.1.18-.22.18a9.91,9.91,0,0,1-2-.38,4.76,4.76,0,0,1-3.85-4.55,6.63,6.63,0,0,1,1.27-4.29,8,8,0,0,1,1.9-1.86c-6.13,1.46-7.07,1.71-7.85,2.14a.76.76,0,0,1-.29.11c-.15,0-.21,0-.34-.24A4.26,4.26,0,0,1,806,1379a30.13,30.13,0,0,0,4.08-.76Zm.12,3.4a.42.42,0,0,0,.13-.11c.23-.19.32-.25.4-.24a3.32,3.32,0,0,1,1,.77,4.66,4.66,0,0,1,.82,1c0,.07,0,.13-.16.24a1.59,1.59,0,0,1-.5.41c-.07,0-.11,0-.18-.13a6.51,6.51,0,0,0-1.47-1.62c-.07,0-.11-.1-.11-.15A.23.23,0,0,1,816.93,1380.21Zm3.65.31c0,.1,0,.14-.37.39s-.23.18-.29.19-.09,0-.15-.11a5.57,5.57,0,0,0-1.48-1.63c-.06,0-.07-.06-.08-.09s.49-.5.62-.51A5.08,5.08,0,0,1,820.58,1380.52Z"/><path class="cls-3" d="M753.78,1404a7.41,7.41,0,0,0-.22-1.46l1.25-.08a6.92,6.92,0,0,0,0,1.46l.18,2.72h.22a6.9,6.9,0,0,0,1.18-.15l.07,1.08a8,8,0,0,0-1.19,0H755l.53,8a14.9,14.9,0,0,0,.21,1.76l-1.25.08a10.39,10.39,0,0,0,0-1.78l-.53-8-.41,0a10,10,0,0,0-1.36.16l-.07-1.1a7.63,7.63,0,0,0,1.37,0l.41,0Zm6.19,6a9.77,9.77,0,0,0,1.38-.16,5.86,5.86,0,0,0,0,.93,21.6,21.6,0,0,1-.27,5.07c-.22.58-.56.74-1.62.81-.24,0-.55,0-.82,0a3.57,3.57,0,0,0-.28-1,5.07,5.07,0,0,0,1.25.09c.39,0,.56-.16.62-.47a21.32,21.32,0,0,0,.13-4.38l-1.46.1a9.59,9.59,0,0,1-2.08,6.1,3.18,3.18,0,0,0-.75-.79c1.22-1.32,1.73-2.71,1.91-5.25l-.77.05a8.48,8.48,0,0,0-1,.11l-.06-1a5.68,5.68,0,0,0,1,0l.81,0c0-.35,0-.64,0-1a5.39,5.39,0,0,0-.08-.75l1.07-.07a8.63,8.63,0,0,0,0,1.09c0,.27,0,.32,0,.62Zm4.55-6.64a9.8,9.8,0,0,0,1.3-.16c0,.31,0,.31,0,.71a9.75,9.75,0,0,1-.3,2.75,1.14,1.14,0,0,1-.66.7,3.67,3.67,0,0,1-1.05.17c-.41,0-1,0-1.63,0a4.14,4.14,0,0,0-.29-1,11.09,11.09,0,0,0,2,.06c.45,0,.63-.15.71-.5a7.46,7.46,0,0,0,.17-1.85l-3.61.24c-.59,1.77-1.64,2.87-3.77,4a3,3,0,0,0-.69-.85c1.89-.78,2.88-1.67,3.41-3l-1.66.1a8.83,8.83,0,0,0-1.59.2l-.07-1.08a10.55,10.55,0,0,0,1.65,0l1.92-.12a5.25,5.25,0,0,0,.1-1.37c0-.12,0-.15,0-.29h1.2a6.85,6.85,0,0,0-.13.89c0,.22-.06.38-.11.69Zm1.22,6.26a10,10,0,0,0,1.36-.16c0,.26,0,.59,0,1,.06,2.83,0,4.35-.31,5-.19.5-.63.71-1.58.78a10.49,10.49,0,0,1-1.09,0,2.87,2.87,0,0,0-.29-1,7.27,7.27,0,0,0,1.5.06c.41,0,.56-.12.63-.4a20.83,20.83,0,0,0,.16-4.43l-1.78.11a9.7,9.7,0,0,1-2.06,6.09,3.46,3.46,0,0,0-.79-.74c1.18-1.16,1.76-2.78,1.91-5.28l-.45,0a7,7,0,0,0-1,.12l-.07-1a4.64,4.64,0,0,0,1.07,0l.46,0a8.85,8.85,0,0,0,0-1.06,5,5,0,0,0-.08-.65l1.08-.07a8.78,8.78,0,0,0,0,1.34,2.86,2.86,0,0,0,0,.38Z"/><path class="cls-3" d="M780.28,1404.28a14.91,14.91,0,0,0,1.93-.21,12.81,12.81,0,0,0,0,2.16,55.33,55.33,0,0,1-.11,7c-.22,1.46-.68,1.94-2,2a22,22,0,0,1-2.95-.06,5.11,5.11,0,0,0-.35-1.23,13.72,13.72,0,0,0,3.14.22c.88-.06,1.07-.48,1.2-2.5.08-1.57.06-3.77-.08-6.41l-5.08.33a14.7,14.7,0,0,1-1.23,5.91,11.26,11.26,0,0,1-4.3,4.55,2.85,2.85,0,0,0-.93-.87,9.78,9.78,0,0,0,2.64-2c1.79-1.85,2.59-4.07,2.72-7.57l-3.2.21a13,13,0,0,0-2,.24l-.08-1.22a13.08,13.08,0,0,0,2,0l3.29-.21c0-1,0-1.19-.07-1.91a12.67,12.67,0,0,0-.19-1.62l1.3-.08a5.71,5.71,0,0,0,0,1.32c0,.29,0,1,.06,2.21Z"/><path class="cls-3" d="M791.88,1404.19a35.26,35.26,0,0,0-6.48,1.11.75.75,0,0,1-.22.07c-.15,0-.3-.38-.46-1.26l.26,0c.44,0,.92-.09,1.86-.24,1.1-.17,3.54-.49,5-.65a9.19,9.19,0,0,0-.33-2.66c1.22,0,1.53,0,1.54.19s0,.1-.07.23-.12.28-.07,2.13c.43,0,4.07-.33,5-.38.34,0,.43,0,.46,0s.08.15.1.37c0,.62,0,.7-.08.71h0c-.26,0-1.7,0-2.61.09-1.11.07-2.24.16-2.72.21,0,.15.06,1.15.17,3.15a5.71,5.71,0,0,1,.49,2,5.07,5.07,0,0,1-1.37,4,6.38,6.38,0,0,1-2.28,1.63c-.12,0-.16,0-.41-.23a2.37,2.37,0,0,0-.74-.43,8.61,8.61,0,0,0,1.94-1.11,5.61,5.61,0,0,0,1.2-1.37,5,5,0,0,0,.58-1.46,1.68,1.68,0,0,1-1.46.9,2.29,2.29,0,0,1-2.44-2.44,2.35,2.35,0,0,1,2.17-2.8,1.55,1.55,0,0,1,1.24.33c0-.45,0-.67,0-.89l0-.6Zm-2.26,4.43c.07,1,.62,1.58,1.5,1.52s1.19-.63,1.13-1.66-.58-1.68-1.37-1.63S789.56,1407.61,789.62,1408.62Z"/><path class="cls-3" d="M804.88,1409.4c.09,1.4.26,3.3.38,4.06,0,0,0,.06,0,.07,0,.21-.09.25-.73.29-.44,0-.46,0-.49-.4,0-.06,0-.58,0-1.06s0-.74-.2-3.32c0-.43,0-.72,0-1a28.1,28.1,0,0,0-2.06,3.16c-.11.2-.17.26-.26.26s-.21-.05-.48-.31-.39-.39-.4-.49,0-.11.85-1.23a28.6,28.6,0,0,0,2.25-3.46c0-.07,0-.62-.07-1.65a15.1,15.1,0,0,0-2.37.64.53.53,0,0,1-.17,0c-.1,0-.16-.06-.26-.34a4.71,4.71,0,0,1-.21-.86h.36a21.22,21.22,0,0,0,2.62-.45c-.06-1.42-.06-1.42-.08-1.68,0-.54,0-.54-.13-1.57.87,0,1.48.08,1.49.3a.52.52,0,0,1-.06.28,8.41,8.41,0,0,0-.14,2.38l.18-.1a.21.21,0,0,1,.15,0,1.17,1.17,0,0,1,.68.59s0,.09-.09.19a16,16,0,0,0-.9,1.53c0,.06,0,.54,0,.66a16.27,16.27,0,0,1,1.67-1.76,19.65,19.65,0,0,1,2-1.57,3.55,3.55,0,0,1,1.6-.54c1.29-.08,1.95.67,2.06,2.26,0,.2,0,1.34,0,3.37,0,1.08,0,2.15,0,2.47,0,.81.28,1.08.86,1a3.4,3.4,0,0,0,2.31-1.53,2.18,2.18,0,0,0,.22,1,.61.61,0,0,1,.06.22c0,.18-.18.41-.57.69a3.92,3.92,0,0,1-2.06.81c-1.2.08-1.86-.55-1.95-1.87,0-.48,0-1.53-.05-3.16s0-2.34,0-2.76c-.07-1-.34-1.45-.94-1.41-.78.06-1.68.6-3.16,1.91a19.72,19.72,0,0,0-1.58,1.59,4.57,4.57,0,0,1-.45.49Z"/><path class="cls-3" d="M820.23,1408.52a.46.46,0,0,1,.12.26,3.63,3.63,0,0,1-.19.79,14.12,14.12,0,0,0-.51,2.75c0,.24,0,.3-.18.34a5.09,5.09,0,0,1-.7.1c-.19,0-.21,0-.42-.65a16.42,16.42,0,0,1-.82-4.28,29.92,29.92,0,0,1,.28-6,17.05,17.05,0,0,0,.18-2.2c.92.11,1.45.3,1.46.51s0,.08-.1.28c-.53,1.1-.94,5.07-.78,7.58a19.06,19.06,0,0,0,.41,2.81c.2-.63.31-1,.48-1.54l.41-1.37A1.72,1.72,0,0,0,820.23,1408.52Zm3.5-4.87h-.28c-.44,0-.75,0-.91,0s-.22,0-.25-.13a3.61,3.61,0,0,1-.13-.8.76.76,0,0,1,0-.17,14.6,14.6,0,0,0,1.51,0,19.61,19.61,0,0,0,2.4-.28c0-.58-.06-.92-.08-1.28s0-.44,0-.63a10.37,10.37,0,0,0-.18-1.47,5.69,5.69,0,0,1,1.28.11c.14,0,.21.09.22.19a.42.42,0,0,1-.06.23,7,7,0,0,0-.08,2.67,22.82,22.82,0,0,0,2.38-.64l.12,0c.07,0,.1,0,.13.09a5.23,5.23,0,0,1,.13.82c0,.13,0,.17-.15.21a24.89,24.89,0,0,1-2.54.62c.08,1.28.24,3,.49,5a12.92,12.92,0,0,1,3.11,1.48c.16.11.23.19.24.3s0,.22-.22.49c-.29.43-.29.43-.37.44s-.07,0-.58-.38a10.91,10.91,0,0,0-2.07-1.17,1.94,1.94,0,0,1,0,.36c.1,1.54-.9,2.5-2.72,2.62s-2.81-.66-2.89-2,1-2.32,2.78-2.43a5.63,5.63,0,0,1,1.57,0c-.27-2.51-.29-2.91-.44-4.58C825.21,1403.5,824.31,1403.61,823.73,1403.65Zm1.39,5.25c-1.23.08-1.93.57-1.88,1.31s.73,1.11,1.81,1,1.71-.63,1.64-1.73c0-.34,0-.46-.05-.46A3.81,3.81,0,0,0,825.12,1408.9Zm3.44-10.78c.14,0,.49.34.92.94a3.5,3.5,0,0,1,.59.92c0,.12-.48.5-.67.51s-.16,0-.23-.19a6.56,6.56,0,0,0-1.16-1.61.45.45,0,0,1-.1-.15C827.92,1398.42,828.39,1398.11,828.56,1398.12Zm2.06,1.31a5.82,5.82,0,0,0-1.19-1.66.16.16,0,0,1-.06-.08c0-.07.06-.14.28-.26a1.19,1.19,0,0,1,.35-.18c.12,0,.3.17.68.63a5.38,5.38,0,0,1,.82,1.23c0,.14-.45.48-.66.49S830.68,1399.56,830.62,1399.43Z"/><path class="cls-3" d="M766.8,1426.34a10.23,10.23,0,0,0-.18-1.33l1.19-.08a8.78,8.78,0,0,0,0,1.36l.07,1,1.59-.11a8.66,8.66,0,0,0,1.6-.19l.07,1.08a13.76,13.76,0,0,0-1.54.05l-4.51.29a8,8,0,0,0-1.58.21l-.08-1.15a7.77,7.77,0,0,0,1.62,0l1.81-.12Zm-.18,3a12.23,12.23,0,0,1-2.24,4,3.63,3.63,0,0,0-.87-.65,9.53,9.53,0,0,0,1.4-1.86,7.12,7.12,0,0,0,.74-1.82Zm-.41,3c.93.76,1.24,1.06,1.86,1.65a9.73,9.73,0,0,0,.68-2.52l1,.4a24.4,24.4,0,0,1-1,2.88c.61.63,1,1,1.89,2.16l-.68.86c-.79-1-1.09-1.38-1.68-2a14.06,14.06,0,0,1-3.72,4.4,3.6,3.6,0,0,0-.83-.79,10.78,10.78,0,0,0,2.2-1.95,11.11,11.11,0,0,0,1.64-2.44,22.36,22.36,0,0,0-2.1-1.93Zm3.15-3.61a11.44,11.44,0,0,0,2.47,3,3,3,0,0,0-.73.77,16.57,16.57,0,0,1-2.55-3.26Zm6.93-.59a9.38,9.38,0,0,0,1.45-.16,17.69,17.69,0,0,0,0,2,46.37,46.37,0,0,1-.13,7.46c-.21,1.32-.53,1.65-1.71,1.73a16.4,16.4,0,0,1-1.71,0,4,4,0,0,0-.26-1.09,8.18,8.18,0,0,0,1.85.12c.67,0,.77-.3.93-2.4a55.39,55.39,0,0,0-.06-6.75l-2.32.15a26.13,26.13,0,0,1-.17,3.18,12.11,12.11,0,0,1-1.9,5.44,10.88,10.88,0,0,1-1.69,2,2.91,2.91,0,0,0-.89-.75,9.19,9.19,0,0,0,2.72-3.67,16.35,16.35,0,0,0,.89-6.08l-.43,0a10.83,10.83,0,0,0-1.57.17l-.07-1.11a7.34,7.34,0,0,0,1.58,0l.48,0c0-.7,0-1.26-.09-1.85a9.11,9.11,0,0,0-.22-1.75l1.24-.08a28.13,28.13,0,0,0,.08,3.12c0,.15,0,.19,0,.5Z"/><path class="cls-3" d="M784.08,1431.83l.89,0,.48,0c.74-.76,1-1.09,1.57-1.71a13.21,13.21,0,0,0-2.61-2l.59-.71c.4.26.52.36.8.55a7.62,7.62,0,0,0,1-1.75l-4.66.3a14.25,14.25,0,0,0-1.62.19l-.07-1.15a12.16,12.16,0,0,0,1.72,0l4.84-.32,0-.34a5.36,5.36,0,0,0-.18-1.11l1.24-.08a4.65,4.65,0,0,0,0,1.12l0,.34,5.22-.34a11.66,11.66,0,0,0,1.71-.21l.07,1.14a15.21,15.21,0,0,0-1.63,0l-5.55.37a11.22,11.22,0,0,1-1.41,2.33,12,12,0,0,1,1.13,1,17.1,17.1,0,0,0,1.68-2.48l.82.52a17.54,17.54,0,0,1-1.78,2.4l-.18.2c-1,1.09-1,1.13-1.44,1.59a30.79,30.79,0,0,0,3.23-.54,10.71,10.71,0,0,0-1.12-1.08l.69-.44a17.19,17.19,0,0,1,2.52,2.69l-.85.52a10.48,10.48,0,0,0-.72-1,44.54,44.54,0,0,1-5.21,1c-.39.06-.68.12-.89.16Zm-3.27.56a11.79,11.79,0,0,0,3.72-2.34l.46.78a18.47,18.47,0,0,1-2.11,1.59,9.22,9.22,0,0,1-.86.54l-.65.41Zm8,5a8.31,8.31,0,0,0,.21,1.43l-1.3.09a8.8,8.8,0,0,0,0-1.45l-.16-2.48-5,.32a12.89,12.89,0,0,0-1.69.22l-.07-1.19a11,11,0,0,0,1.65,0l5-.33v-.28a6.4,6.4,0,0,0-.14-1l1.2-.07a6.16,6.16,0,0,0,0,1.06v.26l5.4-.35a11.06,11.06,0,0,0,1.62-.23l.07,1.18a12.28,12.28,0,0,0-1.71,0l-5.31.35Zm-6.89-10.25a17.34,17.34,0,0,1,2.43,2l-.71.75a11.34,11.34,0,0,0-2.42-2.06Zm12-.23a15.05,15.05,0,0,1-2.54,2.5l-.71-.62a11.11,11.11,0,0,0,2.44-2.45Zm-2.08,2.73a18.23,18.23,0,0,1,3.27,2.13l-.65.85a15,15,0,0,0-3.21-2.3Z"/><path class="cls-3" d="M799.83,1425.56a11.12,11.12,0,0,0,.54-2.53l1.18.15c-.25.94-.43,1.55-.69,2.31l1.06-.07c.89-.07,1.37-.12,1.45-.14,0,.43,0,.87,0,1.44l.54,8.39a14.65,14.65,0,0,0,.18,1.67l-1.08.07-.06-1-3.19.2.09,1.44-1.11.08a14.35,14.35,0,0,0,0-2l-.55-8.34a11.2,11.2,0,0,0-.17-1.57,8,8,0,0,0,1,0l.5,0Zm-.42,4.62,3.22-.21-.24-3.67-3.22.21Zm.32,4.93,3.22-.21-.26-4-3.22.21Zm6.38-9a15.24,15.24,0,0,1-1.69,3.12,3,3,0,0,0-.83-.68,12.06,12.06,0,0,0,2.14-4.32,7.82,7.82,0,0,0,.32-1.62l1.15.15a8.58,8.58,0,0,0-.27.91c-.15.56-.2.68-.44,1.44l4-.26a11.35,11.35,0,0,0,1.44-.16,4.78,4.78,0,0,0,0,1c.2,5.29.21,7,0,8.65-.22,1.94-.69,2.54-2.06,2.63a18.31,18.31,0,0,1-2.12,0,3.16,3.16,0,0,0-.35-1.14,11.73,11.73,0,0,0,2.37.13c.59,0,.81-.2,1-.75a18,18,0,0,0,.32-4.57c0-1.35-.06-2.48-.2-4.88Zm2.26,6.67a17.5,17.5,0,0,0-2.77-4l.8-.55a18.34,18.34,0,0,1,2.87,3.9Z"/><path class="cls-3" d="M819.6,1432.56l-1,.06-.95-10.15,1.55-.1Zm.68,2.56a1,1,0,1,1-1-.91A1,1,0,0,1,820.28,1435.12Z"/><path class="cls-6" d="M680.16,2482.33s-5.45,1.9-5.83-6.5,8.26-18.84,14.41-30c5.51-10,18.7-68.55-57.09-42.91-64.12,21.76-84.94,33.61-76.22,58.53s29.46,46.8,99.54,17.75c9.07-6.22,13.56,1.61,20.11,4.95"/><path class="cls-3" d="M592.81,2444.56a12.89,12.89,0,0,0,4.52,3.86,11.45,11.45,0,0,0,5.35,1.26,4.69,4.69,0,0,0-.25,1.29,12.74,12.74,0,0,1-9.5-4.87,10.4,10.4,0,0,1-.72,6.71,13.17,13.17,0,0,1-2.43,3.44,3.7,3.7,0,0,0-1-.67,10.54,10.54,0,0,0,2.91-4.32,10.16,10.16,0,0,0-.09-6.19l-4.14,1.72a9.64,9.64,0,0,0-1.64.8l-.49-1.18a10.7,10.7,0,0,0,1.76-.6l4.2-1.74c-.28-.81-.42-1.2-.74-2a10.3,10.3,0,0,0-.74-1.49l1.25-.52a11.83,11.83,0,0,0,.54,1.63c.32.76.49,1.23.72,1.91l4.62-1.91a9.74,9.74,0,0,0,1.63-.81l.49,1.19a10.76,10.76,0,0,0-1.71.58Z"/><path class="cls-3" d="M603.7,2437.41a10.58,10.58,0,0,0-2.24-1.38l.8-.67a16.64,16.64,0,0,1,2.47,1.62l2.22-.92a10.08,10.08,0,0,0-2-1.73l.84-.66a15.8,15.8,0,0,1,2.17,2l1.67-.69a10,10,0,0,0,.54-3.09h1.12a15,15,0,0,1-.62,2.65l1.19-.49c.88-.36,1.23-.53,1.74-.79a8.55,8.55,0,0,0,.45,1.26l.47,1.14a8.53,8.53,0,0,0,.52,1.05l-1,.42-1.07-2.59L602.23,2439l1.07,2.59-1,.42a8.5,8.5,0,0,0-.37-1.11l-.47-1.15a11.78,11.78,0,0,0-.58-1.21,17.36,17.36,0,0,0,1.77-.65Zm8.25,8.38c.39.95.2,1.23-1.25,1.83-.44.18-1.18.46-1.76.64a4.64,4.64,0,0,0-.71-.86,16,16,0,0,0,2.06-.65c.68-.28.77-.37.63-.71l-1.27-3.06-4.55,1.89a12,12,0,0,0-1.56.76l-.43-1.05a11.29,11.29,0,0,0,1.62-.56l4.57-1.89-.11-.27c-.13-.3-.24-.53-.42-.87l.64-.26a12.64,12.64,0,0,0,2-2.84l-5.54,2.29a14.55,14.55,0,0,0-1.41.68l-.42-1a14.22,14.22,0,0,0,1.49-.52l5.51-2.28a7.67,7.67,0,0,0,1.1-.53l.82.38-.34.65a17.5,17.5,0,0,1-2.56,3.69l.2.48,4.53-1.88a10.64,10.64,0,0,0,1.58-.77l.43,1.05a11.53,11.53,0,0,0-1.65.58l-4.54,1.87Z"/><path class="cls-3" d="M619.94,2432.65a16.6,16.6,0,0,1-.74,4.13,2.72,2.72,0,0,0-1.14-.27,13.75,13.75,0,0,0,.8-5.83,5.34,5.34,0,0,0-.26-1.56l1.25-.17c0,.26,0,.5,0,1,0,.09,0,.66.07,1.68l3.19-1.32-.67-1.6a10.94,10.94,0,0,0-.78-1.57l1.24-.51a10,10,0,0,0,.55,1.65l.67,1.61,3.76-1.55a17,17,0,0,0,1.69-.81l.45,1.09a14.39,14.39,0,0,0-1.75.62l-3.78,1.56,1.36,3.28,3.1-1.28a9.15,9.15,0,0,0,1.57-.77l.45,1.08a12,12,0,0,0-1.66.58l-3.09,1.28,1.64,4,4.25-1.76a12.53,12.53,0,0,0,1.75-.85l.46,1.12a12.45,12.45,0,0,0-1.82.63l-9.76,4a12.9,12.9,0,0,0-1.78.87l-.47-1.13a12,12,0,0,0,1.86-.63l4.5-1.87-1.64-4-2.78,1.15a11.09,11.09,0,0,0-1.57.76l-.45-1.08a8.31,8.31,0,0,0,1.65-.57l2.78-1.15-1.36-3.28Z"/><path class="cls-3" d="M632.31,2422.92a21.11,21.11,0,0,1,3.45.95l-.26,1.07a16.62,16.62,0,0,0-3.53-1Zm.92,4.11a17.28,17.28,0,0,1,3.51.59l-.17,1.11A13,13,0,0,0,633,2428Zm6.92-5.09a32.09,32.09,0,0,1-3.34,1.81,3.54,3.54,0,0,0-.78-.76,30.83,30.83,0,0,0,6.09-3.52,7.35,7.35,0,0,0,1.48-1.34l1.08.62-.44.34c-.75.61-1.83,1.37-3.2,2.28l1.09,2.63,3-1.24a10.58,10.58,0,0,0,1.5-.73l.45,1.08a10.24,10.24,0,0,0-1.58.54l-3,1.23,1.08,2.61,2.44-1a7.93,7.93,0,0,0,1.15-.55,9.21,9.21,0,0,0,.5,1.41l1.21,2.9a11.36,11.36,0,0,0,.68,1.44l-1,.43-.36-.87-5.91,2.45.36.87-1,.43a10.67,10.67,0,0,0-.54-1.53l-1.21-2.93a10.8,10.8,0,0,0-.62-1.31,7.36,7.36,0,0,0,1.14-.39l2.25-.93-1.08-2.6-2.9,1.2a11.71,11.71,0,0,0-1.5.73l-.44-1.08a10.17,10.17,0,0,0,1.57-.54l2.91-1.2Zm-1.95,8.79a28.34,28.34,0,0,1-.64,5.58l-1.18-.42a3.94,3.94,0,0,0,.26-.72,16.94,16.94,0,0,0,.55-4.72Zm3.69,2.06,5.92-2.45-1.28-3.07-5.91,2.44Z"/><path class="cls-3" d="M653.92,2424.78a.45.45,0,0,1,.2.22,4.34,4.34,0,0,1,.07.8,13.77,13.77,0,0,0,.41,2.77c0,.23,0,.3-.07.38a4,4,0,0,1-.63.32c-.17.07-.2.06-.61-.48a16.57,16.57,0,0,1-2.14-3.79,30.31,30.31,0,0,1-1.69-5.82,16.72,16.72,0,0,0-.53-2.14c.9-.19,1.47-.18,1.55,0s0,.08,0,.3c-.15,1.21.74,5.1,1.7,7.43a19.5,19.5,0,0,0,1.29,2.53c0-.66,0-1.08,0-1.62,0-.89,0-.89,0-1.42A1.76,1.76,0,0,0,653.92,2424.78Zm1.74-5.74-.25.11c-.42.15-.7.27-.85.33s-.21.07-.27,0a4.39,4.39,0,0,1-.39-.72l-.06-.15c.62-.21.91-.31,1.42-.52a23,23,0,0,0,2.19-1c-.23-.54-.36-.85-.49-1.19s-.18-.41-.25-.58a9.71,9.71,0,0,0-.64-1.33,5.56,5.56,0,0,1,1.24-.31c.14,0,.23,0,.27.11s0,.09,0,.23a7.17,7.17,0,0,0,.78,2.56,23,23,0,0,0,2.06-1.37.3.3,0,0,1,.1-.07.13.13,0,0,1,.15,0,6,6,0,0,1,.39.73c.06.13,0,.17-.08.26a22.21,22.21,0,0,1-2.2,1.39c.49,1.19,1.18,2.73,2.06,4.54a12.43,12.43,0,0,1,3.42.4c.19,0,.28.11.32.2s0,.23-.05.54c-.13.5-.13.5-.21.53s-.06,0-.66-.17a11.32,11.32,0,0,0-2.34-.44q.1.21.15.33c.59,1.42,0,2.66-1.73,3.35s-2.87.28-3.37-.92.22-2.53,1.85-3.2a5.59,5.59,0,0,1,1.5-.46c-1.06-2.29-1.21-2.65-1.89-4.19C657,2418.42,656.2,2418.82,655.66,2419Zm3,4.53c-1.14.48-1.63,1.16-1.35,1.85s1,.81,2,.39,1.42-1.14,1-2.16a2.73,2.73,0,0,0-.19-.42A4.12,4.12,0,0,0,658.67,2423.57Z"/><path class="cls-3" d="M599.9,2462.53a17.53,17.53,0,0,1,3.12,1.16l-.4,1a12.41,12.41,0,0,0-3.13-1.19Zm4.54,3.37a23.59,23.59,0,0,1-2.14,2.82,6.25,6.25,0,0,0-.41.5l-.8-.78a14.86,14.86,0,0,0,2.75-3.3Zm5.52,2.32a14.45,14.45,0,0,0,7.49.59,4.26,4.26,0,0,0-.24,1.2,14.66,14.66,0,0,1-7.54-1.07c.44.93.51,1.06.66,1.43l.35.82a9.18,9.18,0,0,0,.75,1.56l-1.12.47a12.56,12.56,0,0,0-.57-1.64l-.34-.82c-.11-.26-.42-1.09-.56-1.48-.79,2.17-1.81,3.57-4.31,5.95a3.59,3.59,0,0,0-1-.62,14.26,14.26,0,0,0,4.65-5.64l-3.82,1.59a12.14,12.14,0,0,0-1.66.79l-.42-1a10,10,0,0,0,1.74-.61l4.25-1.76-.05-.11a6.67,6.67,0,0,0-.49-1l1.08-.45a7,7,0,0,0,.36,1.06l0,.11,4.39-1.82a10,10,0,0,0,1.69-.81l.42,1a13.89,13.89,0,0,0-1.77.62Zm-5.08-7.07a8.23,8.23,0,0,0-.13-1.84l1.07-.24c0,.72,0,1,0,1.7l1.51-.62a8.1,8.1,0,0,0,1.1-.52,8.45,8.45,0,0,0,.44,1.19l1.34,3.24a7.94,7.94,0,0,0,.53,1.15c-.34.11-.7.24-1.09.4l-3,1.24c-.43.18-.8.35-1.12.52a10.44,10.44,0,0,0-.44-1.19l-1.35-3.25a10.79,10.79,0,0,0-.52-1.14c.41-.13.64-.21,1.18-.43Zm.21,2.65,3.4-1.42-.64-1.55-3.41,1.41Zm1,2.37,3.41-1.41-.66-1.6-3.41,1.41Zm6.15-8.11a17,17,0,0,1-1.64,3.53l-.89-.39a12.18,12.18,0,0,0,1.54-3.48Zm-1.71,4.34a39.8,39.8,0,0,1,4.33.5l-.25,1a22.24,22.24,0,0,0-4.29-.58Z"/><path class="cls-3" d="M617.59,2454.92c.26-.05.34,0,.4.13a.77.77,0,0,1,.06.26,7.82,7.82,0,0,0,.47,1.82c.55,1.54,2.22,6,2.66,7,.73,1.76,1.54,2.19,3,1.57a6.32,6.32,0,0,0,2.72-2.22,9.12,9.12,0,0,0,1.47-3.62,3.07,3.07,0,0,0,.73.83c.09.07.12.1.14.16a6.45,6.45,0,0,1-1.15,3,7.45,7.45,0,0,1-3.51,3c-2.08.86-3.51.15-4.48-2.21-.17-.4-2.66-6.77-3-7.74-.05-.11-.13-.32-.19-.46a7.91,7.91,0,0,0-.6-1.2A9.13,9.13,0,0,1,617.59,2454.92Z"/><path class="cls-3" d="M630.31,2451.86a.54.54,0,0,1,0,.17,10,10,0,0,0,.85,2.63c1.57,3.79,3.29,6,4.37,5.53.68-.28,1-1.57.82-3.46a3,3,0,0,0,.9.76c.12.06.15.09.18.15a3.08,3.08,0,0,1,0,.87c-.07,1.48-.6,2.5-1.45,2.85-1,.44-2.2-.11-3.39-1.58a23,23,0,0,1-2.73-5.06c-.13-.33-.32-.78-.53-1.32l-.16-.4a6.38,6.38,0,0,0-.54-1.08C629.85,2451.66,630.22,2451.66,630.31,2451.86Zm8-1.92a5.48,5.48,0,0,1,2.55,1.35,10.8,10.8,0,0,1,2.14,2.26,4,4,0,0,1,.48.72c0,.09,0,.17-.1.32a4.49,4.49,0,0,1-.75.62c-.06,0-.11,0-.16-.08a10,10,0,0,0-4.8-4.42A2.83,2.83,0,0,1,638.35,2449.94Z"/><path class="cls-3" d="M649.27,2445.85a18.85,18.85,0,0,0,3.71-2.24l.14-.08c.08,0,.15,0,.3.19a4.54,4.54,0,0,1,.42.61c0,.11,0,.18-.63.59a21.37,21.37,0,0,1-3.5,1.94c.53,1.21.95,2.09,1.91,3.94a12.92,12.92,0,0,1,4.79.23c.84.19,1.13.29,1.16.37a1.84,1.84,0,0,1-.27,1.19.33.33,0,0,1-.21,0,13.73,13.73,0,0,0-2.16-.54,10.7,10.7,0,0,0-2.78-.17l.2.48c.66,1.6-.08,2.91-2.11,3.75-1.85.77-3.22.46-3.75-.81-.59-1.42.38-2.85,2.54-3.74a12.72,12.72,0,0,1,1.48-.5c-1.24-2.46-1.81-3.71-3.06-6.67-.3-.67-.51-1.14-.85-1.78a5.76,5.76,0,0,1,1.3-.31.23.23,0,0,1,.28.12.64.64,0,0,1,0,.27,6.94,6.94,0,0,0,.76,2.43Zm0,6.72c-1.38.57-2.12,1.49-1.8,2.25s1.08.76,2.22.29c1.46-.6,2-1.44,1.51-2.54-.21-.5-.21-.5-.22-.5A9.12,9.12,0,0,0,649.27,2452.57Z"/><path class="cls-3" d="M663.38,2446.86l-.89.37-4.17-9.31,1.44-.59Zm1.47,2.21a1,1,0,1,1-1.82.76,1,1,0,0,1,1.82-.76Z"/></g></g></svg>