<svg xmlns="http://www.w3.org/2000/svg" width="600" height="5463" viewBox="0 0 600 5463"><defs><style>.cls-1{fill:#cee9e8;}.cls-2,.cls-4,.cls-5{fill:#fff;stroke:#231815;stroke-miterlimit:10;}.cls-2{stroke-width:1.01px;}.cls-3{fill:#231815;}.cls-4{stroke-width:1.22px;}.cls-5{stroke-width:0.9px;}</style></defs><title>アセット 4</title><g id="レイヤー_2" data-name="レイヤー 2"><g id="レイヤー_1-2" data-name="レイヤー 1"><path class="cls-1" d="M599,1V5462H1V1H599m1-1H0V5463H600V0Z"/><path class="cls-2" d="M334,4295s-15.21-12.95-31.55-4.5-116.61,50.7-137.45,20.28-31.55-76,65.91-92.95c74.36-13.52,97.46,10.7,92.39,38.87-2.26,17.46-6.76,25.91,10.7,29.85"/><path class="cls-3" d="M166.55,4263a15.66,15.66,0,0,0-.52-1.83,15.3,15.3,0,0,0,2-.39l12.84-3a13.93,13.93,0,0,0,1.86-.53,17.87,17.87,0,0,0,.36,1.93l3.39,14.4c.27,1.15-.22,1.61-2.17,2.07a19.07,19.07,0,0,1-2.25.39,4.68,4.68,0,0,0-.66-1.27,14.47,14.47,0,0,0,2.82-.38c.76-.18,1-.34.86-.73l-3.48-14.79-13.9,3.26,3.43,14.62a11.87,11.87,0,0,0,.59,2l-1.56.37a13.72,13.72,0,0,0-.35-2.09Zm10.12,1.7a13.79,13.79,0,0,0,1-4.34l1.37.18a18.26,18.26,0,0,1-1.11,3.86l2-.48a10,10,0,0,0,1.84-.55l.32,1.37a12.17,12.17,0,0,0-1.89.33l-3.72.87,1.36,5.78,3-.69-.66-2.78a10.62,10.62,0,0,0-.47-1.63l1.39-.33a10.67,10.67,0,0,0,.29,1.74l.74,3.15a14.66,14.66,0,0,0,.51,1.78l-1.28.3-.25-1.08-6.89,1.62.44,1.88-1.3.31a12.36,12.36,0,0,0-.37-2.07l-.87-3.71a10.93,10.93,0,0,0-.51-1.69l1.39-.33a11.6,11.6,0,0,0,.3,1.7l.65,2.75,2.72-.63-1.36-5.78-3.48.82a11.81,11.81,0,0,0-1.86.55l-.32-1.37a11.09,11.09,0,0,0,1.91-.34Zm-4.72-2.9a16.15,16.15,0,0,1,2.4,2.62l-1,.74a13.26,13.26,0,0,0-2.4-2.58Z"/><path class="cls-3" d="M194.39,4255.91a9.9,9.9,0,0,0-.6-1.9l1.74-.41a10,10,0,0,0,.3,2L199,4269l6.17-1.45-2.24-9.53a10.73,10.73,0,0,0-.59-1.93l1.65-.38a16.35,16.35,0,0,0,.33,2l2.44,10.4a14.46,14.46,0,0,0,.67,2.16l-1.54.36-.41-1.73L192.1,4272l.41,1.74-1.52.36a15.89,15.89,0,0,0-.36-2.14l-2.45-10.4a13.85,13.85,0,0,0-.61-2l1.63-.39a13.25,13.25,0,0,0,.37,2.05l2.22,9.47,5.76-1.35Z"/><path class="cls-3" d="M213.75,4262.7a.55.55,0,0,1,.21.32,4.38,4.38,0,0,1-.07,1,18.77,18.77,0,0,0-.07,3.63c0,.32,0,.39-.16.48a4.53,4.53,0,0,1-.87.27c-.24.06-.27,0-.68-.73a21.28,21.28,0,0,1-2-5.32,39,39,0,0,1-.94-7.82,22.37,22.37,0,0,0-.24-2.85c1.2-.06,1.92.07,2,.33,0,.09,0,.11-.07.39-.44,1.52-.12,6.69.63,9.88a24.22,24.22,0,0,0,1.12,3.52c.12-.85.18-1.39.29-2.08.14-1.16.14-1.16.24-1.84A2.11,2.11,0,0,0,213.75,4262.7Zm3.44-7-.34.08c-.57.11-1,.2-1.16.25s-.29,0-.34-.11a4.42,4.42,0,0,1-.35-1l-.05-.22c.84-.13,1.23-.2,1.93-.36,1.08-.26,2-.51,3-.87-.17-.74-.27-1.17-.38-1.63-.07-.31-.13-.57-.19-.8a13.16,13.16,0,0,0-.54-1.85,7,7,0,0,1,1.66-.13c.18,0,.29.06.32.19a.49.49,0,0,1,0,.31,9.13,9.13,0,0,0,.47,3.44,28.68,28.68,0,0,0,2.91-1.33l.15-.06a.16.16,0,0,1,.18.1,6.61,6.61,0,0,1,.36,1c0,.17,0,.22-.16.31a33.33,33.33,0,0,1-3.12,1.33c.38,1.63.94,3.74,1.69,6.24a16.71,16.71,0,0,1,4.3,1.24c.23.11.35.2.38.33a1.45,1.45,0,0,1-.18.68c-.27.61-.27.61-.38.64s-.09,0-.82-.36a14.74,14.74,0,0,0-2.91-1.06,2.78,2.78,0,0,1,.13.45c.46,2-.62,3.4-2.92,3.94s-3.75-.24-4.14-1.89.81-3.19,3.05-3.72a7.6,7.6,0,0,1,2-.26c-.88-3.17-1-3.67-1.54-5.78C219.07,4255.2,217.93,4255.53,217.19,4255.71Zm2.91,6.44c-1.56.37-2.34,1.15-2.12,2.08s1.17,1.26,2.54.94,2.06-1.17,1.73-2.56c-.1-.44-.14-.59-.16-.58A5,5,0,0,0,220.1,4262.15Z"/><path class="cls-3" d="M228.08,4249.18c-.18-.8-.33-1.32-.52-1.93.42-.06.9-.15,1.73-.34l1.93-.46c.89-.21,1.32-.33,1.75-.47a17.76,17.76,0,0,0,.38,1.92l2.72,11.58a17.51,17.51,0,0,0,.48,1.74l-1.33.31-.24-1-2.78.65.45,1.93-1.34.32a22.38,22.38,0,0,0-.41-2.22Zm2.31,4.16,2.78-.65-1.21-5.17-2.79.65Zm1.55,6.62,2.79-.65-1.3-5.49-2.78.65Zm10.64-6.14a12.52,12.52,0,0,0,3.28,3.36,12.91,12.91,0,0,0,4.22,1.85,4.47,4.47,0,0,0-.53,1.47,14.28,14.28,0,0,1-4.55-2.41,14.6,14.6,0,0,1-3.21-3.53c-.1,3.67-1.39,6.19-4.48,8.82a4.23,4.23,0,0,0-1.16-.94c3-2.21,4.37-4.81,4.39-8.14l-3,.71a18.33,18.33,0,0,0-1.92.54l-.31-1.34a8,8,0,0,0,1.1-.19l-1.13-4.8a15.71,15.71,0,0,0-.44-1.62,16.37,16.37,0,0,0,1.62-.31l2.84-.67-.27-1.15a11.7,11.7,0,0,0-.65-2.11l1.54-.36a14.92,14.92,0,0,0,.38,2.22l.26,1.11,3.2-.75a13.07,13.07,0,0,0,1.41-.4,12.62,12.62,0,0,0,.31,1.62l1.14,4.84a8.69,8.69,0,0,0,1.32-.42l.33,1.39a18.66,18.66,0,0,0-2.18.39Zm-2.1-.74a39.48,39.48,0,0,0-.88-5.13l0-.18-3.13.74,1.23,5.23Zm4.84-1.14-1.23-5.23-3.28.77.06.26a34.91,34.91,0,0,1,.87,5Z"/><path class="cls-3" d="M262.16,4242.37a13.12,13.12,0,0,0,1.72-.49,10.3,10.3,0,0,0,.26,1.52l1.74,7.4a11.58,11.58,0,0,0,.43,1.46,15,15,0,0,0-1.82.33l-6.84,1.61a14.44,14.44,0,0,0-1.78.51,9.47,9.47,0,0,0-.26-1.5l-1.74-7.4a9.77,9.77,0,0,0-.44-1.48,15.22,15.22,0,0,0,1.76-.32l2.78-.65-.6-2.55-6.27,1.48a17,17,0,0,0-2.16.64l-.35-1.45a15.76,15.76,0,0,0,2.23-.38l14.05-3.3a13.35,13.35,0,0,0,2.16-.65l.34,1.45a16.56,16.56,0,0,0-2.22.39l-6.52,1.53.6,2.54Zm5.48-.76a15.44,15.44,0,0,0,.38,2.18l2.2,9.39a15.21,15.21,0,0,0,.72,2.48l-1.47.35-.28-1.2-14.64,3.44.28,1.2-1.48.34a18,18,0,0,0-.46-2.57l-2.2-9.36a15.65,15.65,0,0,0-.64-2.12l1.56-.36a12.32,12.32,0,0,0,.37,2l2.26,9.66,14.69-3.44-2.28-9.69a12.39,12.39,0,0,0-.57-2ZM255,4245.24l.75,3.17,3.21-.75-.74-3.18Zm1,4.28.87,3.69,3.22-.75-.87-3.7Zm4.22-2.16,3.37-.79-.75-3.17-3.37.79Zm1.13,4.8,3.36-.79-.86-3.69-3.37.79Z"/><path class="cls-3" d="M275.39,4234.71a11.36,11.36,0,0,0,3.85,2.53,4.34,4.34,0,0,0-.53,1.25,14.4,14.4,0,0,1-3.6-2.44,20.25,20.25,0,0,1-3.34,5.56,3.79,3.79,0,0,0-1-1,15,15,0,0,0,2.21-2.9,10.26,10.26,0,0,0,1.17-2.68Zm6.43,17.52a16.51,16.51,0,0,0-1.27-1.51c-1,.68-2.8,1.72-5.32,3.11-.18.09-.24.13-.56.32l-.71-1.26a9.61,9.61,0,0,0,1.4-.58l-2.2-9.36c-.26-1.08-.37-1.47-.52-1.92a14.46,14.46,0,0,0,1.58-.3l1.13-.26-.19-.79a5.22,5.22,0,0,0-.4-1.23l1.37-.32a4.59,4.59,0,0,0,.19,1.28l.18.79.85-.2a11.64,11.64,0,0,0,1.71-.5c.09.58.18,1,.35,1.78l.76,3.21a18.49,18.49,0,0,0,.5,1.83,14.6,14.6,0,0,0-1.61.31l-3.54.83,1,4.26a33.88,33.88,0,0,0,3.19-1.85l-.45-.47c-.52-.52-.64-.65-1.24-1.18l.87-.77a39,39,0,0,1,3.9,3.83Zm-3.34-9.64-.39-1.69-3.89.91.4,1.7Zm-3.2,3.83,3.89-.92-.45-1.91-3.89.92Zm7.58-12a7.26,7.26,0,0,0-.45-1.43l1.52-.36a6.57,6.57,0,0,0,.24,1.48l.12.52,2.39-.56a19.34,19.34,0,0,0,2.32-.66,11.32,11.32,0,0,0,.26,1.4l.29,1.22a9,9,0,0,0,.36,1.25l-1.31.3L288,4235l-7.56,1.78.46,2c.4-.07.88-.16,1.6-.33l3.82-.9a11.94,11.94,0,0,0,1.87-.53,11.57,11.57,0,0,0,.29,1.63l.48,2a9.17,9.17,0,0,0,.45,1.52,13,13,0,0,0-1.85.34l-4.38,1,.49,2.11,5.32-1.25a11.5,11.5,0,0,0,1.76-.51c.08.51.18,1.06.35,1.78l.69,2.95a16.78,16.78,0,0,0,.57,2l-1.37.32-.27-1.15-5.73,1.35.28,1.21-1.36.32a13.42,13.42,0,0,0-.37-2.06l-2.31-9.82c-.17-.74-.22-.95-.35-1.4l-1.13.26c0-.33-.12-.77-.22-1.23l-.31-1.3a9.74,9.74,0,0,0-.36-1.27,19.19,19.19,0,0,0,1.94-.39l2.2-.51Zm.07,8,4.85-1.14-.67-2.84-4.84,1.13Zm1.78,7.58,5.74-1.35-.76-3.23-5.74,1.34Z"/><path class="cls-3" d="M297.6,4230.63a4.84,4.84,0,0,0-.14-.51c1.41,0,2.13.09,2.2.37a.58.58,0,0,1-.07.39,9.7,9.7,0,0,0-.13,3,5.14,5.14,0,0,1,0,.7,18.82,18.82,0,0,0,2-.42c.59-.14.59-.14.7.34a2,2,0,0,1,.09.85c0,.1-.16.13-1.26.39-.44.1-.73.14-1.48.25.09,2.32.1,2.57.27,4.45a15.93,15.93,0,0,0,1.7-.28c.26-.06,1.08-.28,1.24-.34l.09,0c.24-.05.39.18.58,1,.09.37.07.37-.89.6a22.16,22.16,0,0,1-2.55.46c.11.73.22,1.32.33,1.8.5,2.11,1.82,2.85,4.1,2.32,2.5-.59,3.86-2.31,3.4-4.26a5.28,5.28,0,0,0-1.75-2.78,7.77,7.77,0,0,0-1.75-1.08l.13,0a3.48,3.48,0,0,0,.95-.36,2.06,2.06,0,0,1,.35-.15c.24-.05.56.1,1.25.6a5.9,5.9,0,0,1,2.36,3.44c.66,2.8-1.11,5.14-4.47,5.93a5.42,5.42,0,0,1-4-.36,4.59,4.59,0,0,1-1.88-3c-.08-.35-.18-1-.34-1.94-2.36.08-3.61-.55-3.94-1.94-.17-.74.05-1.66.4-1.74a.8.8,0,0,1,.45.08c.35.1.48.18.51.31a.38.38,0,0,1,0,.22,1.3,1.3,0,0,0-.11.78c.15.65,1.1,1,2.56.89-.09-.9-.12-1.3-.33-4.44a10.49,10.49,0,0,1-4-.55c-.35-.12-.44-.19-.47-.35a3.32,3.32,0,0,1,.23-1.17,9.82,9.82,0,0,0,4.14.65A25.26,25.26,0,0,0,297.6,4230.63Z"/><path class="cls-3" d="M215.65,4284.66a26.85,26.85,0,0,1,3.18,1.24,20.48,20.48,0,0,0,3.07-4.77l-5.64,1.32a22.62,22.62,0,0,1-5,5.55,3.19,3.19,0,0,0-1.07-.84,19.27,19.27,0,0,0,5.19-5.69,9.13,9.13,0,0,0,1-2.23H218c-.14.29-.17.34-.47.94l-.49.94,4-.93a14.76,14.76,0,0,0,1.92-.57l.88.62c-.92,1.93-1,2.12-1.33,2.7a28.34,28.34,0,0,1-10.16,10.24,3.58,3.58,0,0,0-1-1.07,24.43,24.43,0,0,0,6.66-5.2,14.67,14.67,0,0,0-3.11-1.25Zm5.47,4.63a21.32,21.32,0,0,1-5.87,5.57,3.61,3.61,0,0,0-1-.93,20.07,20.07,0,0,0,5.71-5.05,10.29,10.29,0,0,0,1.69-3l1.47.2a19.09,19.09,0,0,1-1.05,1.88l3.7-.87a15.79,15.79,0,0,0,1.92-.57l.94.65c-.17.36-.17.36-.41.9a19.5,19.5,0,0,1-4.83,6.93,30.62,30.62,0,0,1-7.71,5.14,4.41,4.41,0,0,0-1.07-1.13,25.36,25.36,0,0,0,8.13-5.18,13,13,0,0,0-3.27-1.35l.91-1a31.34,31.34,0,0,1,3.31,1.33,18.66,18.66,0,0,0,3.11-4.81Z"/><path class="cls-3" d="M233.23,4279.48s0,0,0,.21a12.65,12.65,0,0,0,.54,3.56c1.22,5.19,3,8.35,4.44,8,.94-.22,1.59-1.82,1.77-4.27a3.73,3.73,0,0,0,1,1.16c.14.11.17.15.19.23a3.79,3.79,0,0,1-.12,1.13c-.41,1.88-1.3,3.08-2.47,3.35-1.43.34-2.8-.6-4-2.74a29.45,29.45,0,0,1-2.44-7.06c-.11-.46-.25-1.06-.4-1.81-.06-.24-.1-.43-.13-.54a8.34,8.34,0,0,0-.47-1.5C232.68,4279.12,233.16,4279.19,233.23,4279.48Zm10.72-.78c.39-.09,1.86,1,3,2.26a14,14,0,0,1,2.28,3.36,6.52,6.52,0,0,1,.47,1c0,.13,0,.23-.21.39a5.47,5.47,0,0,1-1.08.64c-.09,0-.15,0-.2-.13-1.4-3.36-2.74-5-5.23-6.68A3.68,3.68,0,0,1,244,4278.7Z"/><path class="cls-3" d="M258.81,4275.73a24.2,24.2,0,0,0,5.24-2.1l.19-.06c.11,0,.2,0,.35.31a5.68,5.68,0,0,1,.41.86c0,.15-.09.23-.93.63a27.81,27.81,0,0,1-4.91,1.75c.44,1.66.79,2.88,1.63,5.46a16.62,16.62,0,0,1,6.1,1.3c1,.41,1.38.61,1.41.72a2.38,2.38,0,0,1-.6,1.47.54.54,0,0,1-.27-.08,18,18,0,0,0-2.65-1.14,13.74,13.74,0,0,0-3.53-.8c.07.29.11.48.15.66.52,2.19-.71,3.71-3.48,4.37-2.55.59-4.24-.09-4.65-1.82-.46-2,1.09-3.58,4-4.27a17.41,17.41,0,0,1,2-.34c-1.08-3.41-1.55-5.13-2.53-9.19-.24-.93-.41-1.58-.72-2.47a8.6,8.6,0,0,1,1.74-.13.3.3,0,0,1,.32.22.65.65,0,0,1,0,.35,9.32,9.32,0,0,0,.47,3.28Zm-1.41,8.63c-1.89.45-3,1.47-2.78,2.51s1.23,1.2,2.79.84q3-.71,2.47-2.94c-.16-.7-.16-.7-.18-.69A11.74,11.74,0,0,0,257.4,4284.36Z"/><path class="cls-3" d="M276.7,4280l-1.21.29-3.4-12.82,2-.46Zm1.43,3.15a1.28,1.28,0,1,1-2.5.58,1.28,1.28,0,0,1,2.5-.58Z"/><path class="cls-4" d="M418.55,1221.73s-8.5,1.69-7.36-10.76,16.07-26.15,27.46-41.33c10.19-13.59,41.61-97.38-76.15-74.74-99.65,19.25-152.87,28.31-144.94,66.81s8.49,91.72,164.19,50.39c14.72-7.36,19.81,5.1,28.87,11.32"/><path class="cls-3" d="M274.56,1140.46a22.93,22.93,0,0,0-2.49.53l-.27-1.58a18.49,18.49,0,0,0,2.62-.29l13.14-2.24a16.94,16.94,0,0,0,2.5-.59l.27,1.58a22.65,22.65,0,0,0-2.47.31l-6.17,1.06.26,1.56,7.5-1.28a18.81,18.81,0,0,0,2.72-.6c.05.61.11,1.12.25,1.93l.26,1.51a11.5,11.5,0,0,0,.45,1.88l-1.61.27-.67-4-8.68,1.48.51,3a15.48,15.48,0,0,0,.56,2.46l-1.82.31a14.39,14.39,0,0,0-.27-2.51l-.51-3-8.21,1.4.67,4-1.63.28a10.66,10.66,0,0,0-.17-1.93l-.25-1.5a14.33,14.33,0,0,0-.44-1.91,17.94,17.94,0,0,0,2.79-.34l7-1.2-.26-1.56Zm-.52,4.22a15.32,15.32,0,0,0,1.54-.18l2.35-.41a11.46,11.46,0,0,0,1.49-.33l.2,1.21a11.62,11.62,0,0,0-1.51.18l-2.35.4a11.6,11.6,0,0,0-1.52.34Zm3,12.52.25,1.42-1.72.3a12.81,12.81,0,0,0-.21-2.2l-.8-4.67c-.16-.92-.33-1.62-.49-2.25a16.4,16.4,0,0,0,2.21-.26l12.74-2.18a17.15,17.15,0,0,0,2.28-.5c.05.61.14,1.3.31,2.28l.63,3.7a12,12,0,0,0,.39,1.8,20.85,20.85,0,0,0-2.34.29l-5.81,1,.3,1.75c.11.6.62.6,4.18,0,3-.52,4.34-.88,4.7-1.29s.28-1.08,0-3.09a7.22,7.22,0,0,0,1.67.42c.3,2,.21,3.09-.35,3.64s-2.05,1.06-6,1.74c-4.67.79-5.36.7-5.61-.78l-.37-2.12Zm-2.59-10.1a11.77,11.77,0,0,0,1.54-.18l2.35-.4a12.07,12.07,0,0,0,1.49-.34l.21,1.21a12.37,12.37,0,0,0-1.52.18l-2.35.4a11.89,11.89,0,0,0-1.51.34Zm1.51,3.76.31,1.83,5.91-1-.31-1.83Zm.52,3,.35,2,5.91-1-.35-2Zm13.73-3.6-.32-1.82-6.49,1.11.31,1.82ZM283.9,1143a11.77,11.77,0,0,0,1.54-.18l2.77-.47a11.85,11.85,0,0,0,1.47-.33l.21,1.21a10.9,10.9,0,0,0-1.5.17l-2.77.47a13.61,13.61,0,0,0-1.51.34Zm6.86,10.59-.35-2-6.49,1.1.35,2Zm-6.44-8.11a11.89,11.89,0,0,0,1.55-.18l2.77-.47a13,13,0,0,0,1.46-.33l.21,1.21a10,10,0,0,0-1.49.17l-2.77.47a11.43,11.43,0,0,0-1.52.35Z"/><path class="cls-3" d="M306.73,1135.29a12.5,12.5,0,0,0-.6-2.4l1.93-.33a12.92,12.92,0,0,0,.23,2.46l0,.32L316,1134a12.55,12.55,0,0,0,2.55-.62l.3,1.76a18.36,18.36,0,0,0-2.61.29l-7.63,1.3L309,1139l5.17-.88a18.35,18.35,0,0,0,2.86-.63,22.14,22.14,0,0,0,.34,2.69l.68,3.95a23.28,23.28,0,0,0,.56,2.65,20.15,20.15,0,0,0-2.92.36l-5.15.88.39,2.25,7.89-1.35a12.25,12.25,0,0,0,2.58-.63l.3,1.79a18.49,18.49,0,0,0-2.64.29l-7.89,1.35.21,1.21a13.41,13.41,0,0,0,.66,2.77l-1.92.33a14.26,14.26,0,0,0-.3-2.83l-.2-1.22-7.5,1.28a17,17,0,0,0-2.56.61l-.3-1.8a13.3,13.3,0,0,0,2.61-.25l7.5-1.28-.39-2.25-4.69.8a19.31,19.31,0,0,0-2.93.64A25.6,25.6,0,0,0,301,1147l-.67-3.91a23.24,23.24,0,0,0-.57-2.7,17.35,17.35,0,0,0,2.84-.35l4.83-.82L307,1137l-7.31,1.25a17.6,17.6,0,0,0-2.53.6l-.31-1.76a13.61,13.61,0,0,0,2.62-.26l7.29-1.25Zm-5.06,6.32.42,2.45,6-1-.42-2.45Zm.65,3.8.43,2.48,6-1-.42-2.48Zm13.65-3.72-.42-2.46-6.36,1.09.42,2.46Zm.66,3.83-.43-2.49-6.36,1.09.43,2.48Z"/><path class="cls-3" d="M323.53,1130.43a32.63,32.63,0,0,1,4.83,3.79l-1.1,1.39a22.94,22.94,0,0,0-4.71-3.92Zm.26,9.81a8.07,8.07,0,0,0,1.82-.17l1.19-.2a11.77,11.77,0,0,0,1.9-.46,18.38,18.38,0,0,0,.33,2.71l.84,4.93a4.48,4.48,0,0,0,2.44,1.87c1.22.44,2.92.4,6.4-.2a83.59,83.59,0,0,0,10-2.26,8.39,8.39,0,0,0-.26,2c-2.77.59-5.83,1.16-8.15,1.56-5,.86-6.55.93-8.3.36a6.83,6.83,0,0,1-2.84-1.8,24.26,24.26,0,0,1-1.42,2.12l-.81,1c-.22.29-.28.38-.6.76l-1.13-1.52a14.28,14.28,0,0,0,3.11-3.6l-1-6.07-1.56.27a8,8,0,0,0-1.66.42Zm12.91-6.77a22.85,22.85,0,0,0-3.71-1.56l1-1a34.7,34.7,0,0,1,3.79,1.72,21.75,21.75,0,0,0,3.45-3.36l-9.34,1.59a17.2,17.2,0,0,0-2.54.57l-.27-1.61a13.55,13.55,0,0,0,2.69-.29l8.84-1.51a18.62,18.62,0,0,0,2.57-.55l.79.81a5.67,5.67,0,0,0-.56.59,28.08,28.08,0,0,1-4.48,4.27l3.33-.57a17.12,17.12,0,0,0,2.74-.61,27.5,27.5,0,0,0,.43,3.13l1.42,8.34c.27,1.59-.06,2-1.88,2.33-.6.11-1,.18-1.75.25a5.4,5.4,0,0,0-.62-1.42,13.16,13.16,0,0,0,2.14-.17c.61-.11.7-.23.59-.84l-.42-2.45-5.3.91.27,1.58a14.58,14.58,0,0,0,.63,2.72l-1.77.3a17.52,17.52,0,0,0-.31-2.77l-.27-1.58-4.73.8.34,2a15,15,0,0,0,.61,2.64l-1.82.31a16.32,16.32,0,0,0-.29-2.69l-1.37-8a25.89,25.89,0,0,0-.59-2.84,18.47,18.47,0,0,0,2.76-.33Zm-4.56,2.09.43,2.48,4.72-.81-.42-2.48Zm1.07,6.25,4.73-.81-.44-2.55-4.73.8Zm5.53-4.83,5.31-.9-.43-2.49-5.3.91Zm5.52.31-5.31.91.44,2.56,5.3-.91Z"/><path class="cls-3" d="M354.81,1128.83a17.37,17.37,0,0,0-2.93-2.86l1.45-.74a25.14,25.14,0,0,1,3.2,3.31l3.69-.63a15.1,15.1,0,0,0-2.47-3.33l1.51-.72a26.37,26.37,0,0,1,2.62,3.76l2.77-.47a15.52,15.52,0,0,0,1.9-4.51l1.69.39a22.93,22.93,0,0,1-1.84,3.82l2-.34a26.36,26.36,0,0,0,2.91-.6,14.32,14.32,0,0,0,.24,2.07l.33,1.9a14,14,0,0,0,.43,1.78l-1.68.28-.74-4.3-17.84,3,.74,4.3-1.69.29a13.18,13.18,0,0,0-.18-1.82l-.32-1.89a13.84,13.84,0,0,0-.46-2,28.55,28.55,0,0,0,2.92-.4Zm9.65,15.6c.27,1.58-.13,2-2.53,2.36-.74.13-2,.28-2.9.36a8,8,0,0,0-.78-1.55,27.13,27.13,0,0,0,3.35-.27c1.13-.2,1.3-.31,1.21-.86l-.87-5.1-7.58,1.3a18.54,18.54,0,0,0-2.63.61l-.3-1.74a19.52,19.52,0,0,0,2.66-.29l7.6-1.3-.07-.45a14.31,14.31,0,0,0-.34-1.46l1.06-.18a20.19,20.19,0,0,0,4.05-3.63l-9.23,1.58a21,21,0,0,0-2.38.54l-.29-1.66a23,23,0,0,0,2.45-.28l9.16-1.57a10.64,10.64,0,0,0,1.86-.43l1.12.87-.75.86a26.75,26.75,0,0,1-5.16,4.74l.13.79,7.55-1.29a17.7,17.7,0,0,0,2.66-.62l.3,1.75a18.4,18.4,0,0,0-2.72.3l-7.54,1.29Z"/><path class="cls-3" d="M382.79,1136a.65.65,0,0,1,.23.39,5.2,5.2,0,0,1-.17,1.26,21.82,21.82,0,0,0-.34,4.35c0,.37,0,.46-.23.55a6.59,6.59,0,0,1-1.07.27c-.29,0-.32,0-.76-.94a25.64,25.64,0,0,1-1.95-6.5,47.13,47.13,0,0,1-.56-9.44,25.25,25.25,0,0,0-.07-3.44c1.45,0,2.3.23,2.35.55,0,.11,0,.13-.11.45-.65,1.8-.64,8,0,11.89a28.85,28.85,0,0,0,1.09,4.3c.21-1,.31-1.66.5-2.48.25-1.37.25-1.37.41-2.18A2.65,2.65,0,0,0,382.79,1136Zm4.64-8.13-.42.08c-.69.09-1.17.17-1.41.21s-.35,0-.4-.15a5.67,5.67,0,0,1-.35-1.22s0-.16,0-.26c1-.09,1.49-.15,2.34-.29a36.31,36.31,0,0,0,3.69-.82c-.16-.9-.25-1.43-.34-2-.06-.37-.12-.69-.17-1a14.23,14.23,0,0,0-.52-2.24,8.67,8.67,0,0,1,2,0c.23,0,.35.11.38.27a.62.62,0,0,1-.05.35c-.19.64-.11,1.74.3,4.16a33.39,33.39,0,0,0,3.6-1.37.43.43,0,0,1,.18-.06c.1,0,.16,0,.21.13a8.24,8.24,0,0,1,.35,1.24c0,.21,0,.27-.21.36a40,40,0,0,1-3.84,1.37c.33,2,.86,4.55,1.57,7.6a20.14,20.14,0,0,1,5.06,1.8c.27.14.4.26.42.42a1.68,1.68,0,0,1-.27.8c-.36.72-.36.72-.5.74s-.1,0-.95-.49a17.22,17.22,0,0,0-3.4-1.48c.06.23.1.42.12.55.4,2.37-1,4-3.79,4.5-2.62.45-4.47-.56-4.82-2.57s1.21-3.76,3.93-4.23a9.38,9.38,0,0,1,2.44-.17c-.82-3.85-.93-4.46-1.42-7C389.71,1127.4,388.33,1127.72,387.43,1127.87Zm3,7.94c-1.9.32-2.89,1.2-2.7,2.33s1.31,1.6,3,1.31c1.85-.31,2.56-1.25,2.27-2.94a2.57,2.57,0,0,0-.15-.71A6.2,6.2,0,0,0,390.44,1135.81Z"/><path class="cls-3" d="M271.57,1177.19c.27,0,.42.09.45.25s0,.16,0,.32a7.56,7.56,0,0,0,.15,1.85,28.3,28.3,0,0,0,1,3.87c.45,1.2.84,1.59,1.5,1.48s1.3-.52,3.33-2a7.93,7.93,0,0,0,1.16-1c.07,0,.09-.07.17-.08.29,0,1.46,1.21,1.54,1.66,0,.16-.09.29-.39.42a31.61,31.61,0,0,0-3.83,2.1c-4.32,2.69-6.32,5.28-5.92,7.61.33,1.95,2.11,2.51,5.88,1.87a40.12,40.12,0,0,0,6.07-1.55,1.19,1.19,0,0,1,.2-.07.35.35,0,0,1,.36.16,6.3,6.3,0,0,1,.39,1.35c.05.29,0,.41-.32.51-1,.31-3.93,1-5.73,1.28a15.89,15.89,0,0,1-4.87.26A3.92,3.92,0,0,1,269,1194a5.83,5.83,0,0,1,1-4.3,12.91,12.91,0,0,1,3.37-3.48c-1.27-.28-1.82-1.43-3.12-6.5a15.15,15.15,0,0,0-.76-2.37A9.91,9.91,0,0,1,271.57,1177.19Z"/><path class="cls-3" d="M290.78,1183.14a22.4,22.4,0,0,1,7-2.55,6.14,6.14,0,0,1,4.15.59,4.9,4.9,0,0,1,2.16,3.27,6.21,6.21,0,0,1-1.89,5.65,14.87,14.87,0,0,1-4.59,2.85,12.1,12.1,0,0,1-1.8.58c-.24,0-.24,0-.54-.43a3.48,3.48,0,0,0-.89-.91,16.68,16.68,0,0,0,5.52-2.54c1.83-1.35,2.68-3,2.38-4.81-.35-2.06-2.05-3.1-4.43-2.69a21.22,21.22,0,0,0-7.08,3,7.38,7.38,0,0,0-1.71,1.3c-.14.13-.23.2-.31.21-.35.06-1-.69-1.66-1.89A31.78,31.78,0,0,0,290.78,1183.14Z"/><path class="cls-3" d="M321.64,1170.12a23,23,0,0,0,2.79-1,.48.48,0,0,1,.18-.06.39.39,0,0,1,.37.16,7,7,0,0,1,.63,1.44c0,.23,0,.27-.51.35a9.81,9.81,0,0,0-4.32,1.91,10.33,10.33,0,0,0-3.8,9.51c.43,2.5,2.16,4,5.11,4.63a10,10,0,0,0,3,.19c.19,0,.28.07.31.25a5.28,5.28,0,0,1,0,1.53c0,.2-.11.29-.29.32a16.5,16.5,0,0,1-3.2-.27c-3.87-.7-6.1-2.81-6.72-6.43a10.4,10.4,0,0,1,1.27-6.87,12.91,12.91,0,0,1,2.66-3.2c-9.28,3.27-10.7,3.82-11.84,4.61a1.08,1.08,0,0,1-.43.21c-.24,0-.33,0-.57-.31a6.76,6.76,0,0,1-1-1.76,51.53,51.53,0,0,0,6.2-1.85Z"/><path class="cls-3" d="M335.48,1166.45a4.7,4.7,0,0,0-.13-.63c1.69.07,2.54.28,2.6.62a.67.67,0,0,1-.11.45,11.52,11.52,0,0,0-.37,3.54,6.89,6.89,0,0,1,0,.85c.9-.1.9-.1,2.44-.36.71-.13.71-.13.81.45a2.42,2.42,0,0,1,0,1c-.06.12-.2.14-1.54.37-.53.09-.88.12-1.79.2-.07,2.78-.07,3.08,0,5.35a18.4,18.4,0,0,0,2.06-.22c.31,0,1.31-.25,1.52-.31l.1,0c.29,0,.45.25.63,1.25.07.45.05.46-1.12.65a23.86,23.86,0,0,1-3.08.37c.07.88.16,1.6.26,2.18.44,2.56,2,3.55,4.74,3.07,3-.51,4.79-2.47,4.38-4.84A6.34,6.34,0,0,0,345,1177a9,9,0,0,0-2-1.42l.16,0a4.85,4.85,0,0,0,1.16-.37,1.78,1.78,0,0,1,.43-.15c.29,0,.66.16,1.45.81a7.07,7.07,0,0,1,2.58,4.28c.58,3.41-1.71,6.08-5.8,6.78a6.44,6.44,0,0,1-4.8-.73,5.43,5.43,0,0,1-2-3.75c-.07-.42-.15-1.2-.27-2.35-2.84-.08-4.28-.92-4.57-2.61-.16-.9.17-2,.6-2.06a1,1,0,0,1,.53.13c.41.15.56.26.59.41a.35.35,0,0,1-.06.26,1.63,1.63,0,0,0-.2.93c.14.79,1.25,1.25,3,1.25,0-1.08,0-1.57-.07-5.34a12.46,12.46,0,0,1-4.75-1c-.41-.18-.51-.27-.54-.45a4.2,4.2,0,0,1,.36-1.4,11.65,11.65,0,0,0,4.91,1.09A29.75,29.75,0,0,0,335.48,1166.45Z"/><path class="cls-3" d="M357.75,1181.82a23.11,23.11,0,0,0,.64,3l-1.85.32a24.94,24.94,0,0,0-.37-3.15l-1.44-8.38c-.24-1.43-.31-2-.45-3.11a16.87,16.87,0,0,1-1.64,4.06,4.35,4.35,0,0,0-1.26-1.17,23.25,23.25,0,0,0,3-8.11,16,16,0,0,0,.39-3.78l1.77.21a13.73,13.73,0,0,0-.26,1.51,34.47,34.47,0,0,1-.9,4.55Zm1.89-18a14.2,14.2,0,0,0-2.33.53l-.29-1.71a16.74,16.74,0,0,0,2.51-.27l11.26-1.92a18.84,18.84,0,0,0,2.51-.59l.29,1.71a17.26,17.26,0,0,0-2.39.27l-5.62,1,.43,2.56,4.36-.74a15.18,15.18,0,0,0,2.22-.51,22.45,22.45,0,0,0,.33,2.6l.71,4.14a21.32,21.32,0,0,0,.55,2.57,11.81,11.81,0,0,0-2.11.22l-5.06.87a8.14,8.14,0,0,1-.82,3.83,16.65,16.65,0,0,0,5.27,1.08,22.45,22.45,0,0,0,5.46-.28,6.18,6.18,0,0,0-.37,1.8,22.7,22.7,0,0,1-11.18-1.24,14,14,0,0,1-5.27,4.32,5.88,5.88,0,0,0-1.08-1.28,12.16,12.16,0,0,0,5-3.67,8.89,8.89,0,0,1-1.2-.69,7.58,7.58,0,0,1-.91-.55,8,8,0,0,0-.91-.58l1.18-1.15a8.35,8.35,0,0,0,2.7,1.6,6.82,6.82,0,0,0,.66-2.94l-4,.68a11.39,11.39,0,0,0-1.85.45,20,20,0,0,0-.31-2.44l-.75-4.41a22.17,22.17,0,0,0-.53-2.46,19,19,0,0,0,2.32-.26l4.06-.69-.44-2.57Zm.31,3.91.42,2.43,4.7-.8c-.13-.88-.22-1.6-.37-2.44Zm.64,3.74.46,2.7,4.44-.76a24.08,24.08,0,0,0-.25-2.73Zm5.64-4.82s.12.85.37,2.44l5-.86-.42-2.43Zm.54,3.77c.15,1.39.2,1.95.22,2.73l5.33-.91-.46-2.69Z"/><path class="cls-3" d="M382.84,1160.51c-1.52.66-2.28,1-4.1,1.62a4.8,4.8,0,0,0-1-1.33,35.7,35.7,0,0,0,7.73-3.27,7.28,7.28,0,0,0,1.53-1l1.36,1.15c-.14.11-.59.35-1.33.77s-1.69.92-2.75,1.42l.68,4,2.45-.42a13.34,13.34,0,0,0,2.2-.51l.29,1.69a13.34,13.34,0,0,0-2.27.25l-2.37.41a9.88,9.88,0,0,0,1.59,2,19,19,0,0,0,3.72,2.81,5.22,5.22,0,0,0-.72,1.51,17.43,17.43,0,0,1-4.44-4.37c.32,1.41.66,3.12.86,4.25l.9,5.25a21.81,21.81,0,0,0,.66,3.07l-1.88.32a19.33,19.33,0,0,0-.34-3.12l-.84-4.94c-.25-1.45-.36-2.08-.61-4.32a21.77,21.77,0,0,1-3.41,8.49,5.32,5.32,0,0,0-1.3-1.27,18.21,18.21,0,0,0,2.73-4.84,24.31,24.31,0,0,0,1.26-4.56l-2.43.41a15.21,15.21,0,0,0-2.38.57l-.29-1.74a11.38,11.38,0,0,0,2.45-.26l2.64-.45Zm9.58-3.38a20.36,20.36,0,0,0,.36,2.92l1.66,9.74a18.54,18.54,0,0,0,.64,2.93l-1.87.32a18.79,18.79,0,0,0-.37-3l-1.67-9.76a19.61,19.61,0,0,0-.65-2.87Zm6-2.49a24.86,24.86,0,0,0,.38,3.22l2.85,16.65c.31,1.79-.22,2.34-2.6,2.75-.76.13-1.75.27-2.63.34a6.18,6.18,0,0,0-.81-1.57,28.37,28.37,0,0,0,3.34-.33c1-.17,1.16-.33,1.05-1l-2.83-16.6a25.25,25.25,0,0,0-.71-3.16Z"/><path class="cls-3" d="M413.94,1171.35a4,4,0,1,1-4.64-3.28A4,4,0,0,1,413.94,1171.35Zm-6.41,1.1a2.49,2.49,0,1,0,2-2.88A2.5,2.5,0,0,0,407.53,1172.45Z"/><path class="cls-2" d="M339.12,2790.57s-2.54-17.75-17.75-15.21-62.53,5.91-67.6-11.83S217.44,2677.34,296,2663c55.77-10.14,95.49-.84,96.33,60.84.85,42.25-14.36,39.72-33,43.94s-17.75,8.45-14.37,21.13"/><path class="cls-3" d="M286.06,2692.29c-2.08,4.79-3.27,6.36-4.85,6.47-1.23.08-2.12-.89-2.22-2.45a4.58,4.58,0,0,1,2.91-4.42,8,8,0,0,1,3.12-.81c1-2.29,1.46-3.64,2.26-5.82-3.22.37-3.88.48-4.82.85a.31.31,0,0,1-.15,0c-.16,0-.25-.07-.33-.27a6.14,6.14,0,0,1-.37-1.47,13.69,13.69,0,0,0,1.57,0,18.84,18.84,0,0,0,4.73-.76c.17-.12.22-.15.33-.15s.48.14.81.52a1.62,1.62,0,0,1,.45.69c0,.11-.07.23-.26.4a2,2,0,0,0-.45.72c-.38.92-2,4.62-2.2,5.24a15.82,15.82,0,0,1,5.66,1.22,12.68,12.68,0,0,0,.11-2.45,10,10,0,0,0-.14-1.22,9.49,9.49,0,0,1,1.64.25c.16.06.24.12.24.21a1.37,1.37,0,0,1-.1.5,4.76,4.76,0,0,0-.17,1.22,12.56,12.56,0,0,1-.2,2.09c1.87.91,3.23,1.8,3.25,2.14a2.4,2.4,0,0,1-.41.87c-.14.19-.25.29-.34.29a.61.61,0,0,1-.39-.17,18.88,18.88,0,0,0-2.46-1.65,10,10,0,0,1-3.06,4.8,8.52,8.52,0,0,1-2.35,1.59c-.14,0-.23,0-.4-.22a2.43,2.43,0,0,0-1-.66,10.37,10.37,0,0,0,3.71-2.79,9.13,9.13,0,0,0,1.76-3.42A15.17,15.17,0,0,0,286.06,2692.29Zm-3.85.9a3.18,3.18,0,0,0-1.87,2.92c.05.71.39,1.2.82,1.17s.91-.41,1.48-1.34a28.73,28.73,0,0,0,1.8-3.45A6.16,6.16,0,0,0,282.21,2693.19Z"/><path class="cls-3" d="M307.84,2682.33c0,.09,0,.14-.25.4-.58.66-2,3.55-4.24,8.63-.15.37-.29.65-.91,1.85,1.45-2.17,2.75-3.11,4.53-3.22a2.61,2.61,0,0,1,2.89,2.11,27.37,27.37,0,0,1,.56,3.05,3.58,3.58,0,0,0,.38,1.41,1.44,1.44,0,0,0,1.43.62,4.22,4.22,0,0,0,3.11-2.24,12,12,0,0,0,1.07-2.21,2.6,2.6,0,0,0,.51,1.3,1,1,0,0,1,.16.44,3.56,3.56,0,0,1-.75,1.61,5.28,5.28,0,0,1-4.1,2.55c-1.49.1-2.42-.38-2.89-1.49a10.18,10.18,0,0,1-.63-2.86,5.69,5.69,0,0,0-.6-2.24,1.41,1.41,0,0,0-1.41-.74c-2,.13-4,2.37-5.18,5.64a17.67,17.67,0,0,0-.58,2c-.05.22-.11.29-.23.3-.4,0-1.43-.42-1.45-.64,0,0,.14-.39.34-1a25.35,25.35,0,0,0,.95-2.63c.72-2,2.29-6,3.57-9a23.91,23.91,0,0,0,1.82-4.79C307,2681.63,307.82,2682.06,307.84,2682.33Z"/><path class="cls-3" d="M321,2685.61c-.11,0-.31,0-.53.08l-.71.07c-.31,0-.36,0-.41-.16a6.91,6.91,0,0,1-.28-1.25c.4,0,1,0,1.24-.06.78-.05,2.29-.26,3.46-.47a12.84,12.84,0,0,0,.43-4,12.35,12.35,0,0,1,1.65.27c.32.09.37.14.38.25a1,1,0,0,1-.12.34,10.78,10.78,0,0,0-.73,2.8,22.22,22.22,0,0,0,3-.87.46.46,0,0,1,.18-.06c.16,0,.21.13.31.68,0,.15.06.26.07.33a.75.75,0,0,1,0,.2c0,.17-.05.22-.44.34l-.2.06c-.77.2-2.38.6-3.28.79a45.24,45.24,0,0,1-3,8c-.63,1.27-1,1.81-1.2,1.82a2.3,2.3,0,0,1-1.24-.81.7.7,0,0,1,.17-.41,13.17,13.17,0,0,0,1.12-1.82,31.16,31.16,0,0,0,2.55-6.45C322,2685.5,321.79,2685.53,321,2685.61ZM331.7,2687c0,.06,0,.08-.05.29a4.8,4.8,0,0,0-.06,1.44c.07,1,.22,2.35.46,3.9a13.75,13.75,0,0,1,3.2,1.47c.79.48,1,.67,1,.82,0,.34-.5,1.27-.72,1.28-.07,0-.16,0-.35-.2a11.49,11.49,0,0,0-3-1.77A4.37,4.37,0,0,1,332,2696c-.38,1.25-1.52,2-3.26,2.09-2.16.14-3.68-.88-3.78-2.53-.12-1.8,1.42-3.18,3.71-3.33a7.4,7.4,0,0,1,1.87.11c-.22-1.56-.36-2.78-.51-4.26a9.78,9.78,0,0,0-.2-1.42C331.32,2686.66,331.69,2686.74,331.7,2687Zm-3,6.56c-1.51.1-2.45.81-2.38,1.81s.89,1.44,2.25,1.35c1.61-.1,2.25-.9,2.14-2.6a2.75,2.75,0,0,0-.05-.31A4.75,4.75,0,0,0,328.73,2693.53Zm2.88-9.4.16-.25c.2-.35.26-.42.42-.43a11.61,11.61,0,0,1,3.07,1.25c1,.56,1.31.83,1.32,1a2.27,2.27,0,0,1-.38.94c-.12.21-.23.31-.34.31s-.09,0-.54-.34a11.47,11.47,0,0,0-3.63-1.87c-.16-.05-.23-.12-.24-.23A.69.69,0,0,1,331.61,2684.13Z"/><path class="cls-3" d="M352.75,2679.92a19.38,19.38,0,0,0,2.4-.59l.15,0a.3.3,0,0,1,.3.16,6.64,6.64,0,0,1,.4,1.25c0,.2-.06.22-.46.25a8.07,8.07,0,0,0-3.74,1.21,8.57,8.57,0,0,0-4,7.54c.14,2.12,1.44,3.55,3.84,4.29a8.1,8.1,0,0,0,2.48.42c.16,0,.23.08.24.23a4.32,4.32,0,0,1-.16,1.26c-.06.17-.12.24-.28.25a14,14,0,0,1-2.62-.5c-3.15-.92-4.82-2.86-5-5.91a8.65,8.65,0,0,1,1.65-5.59,10.79,10.79,0,0,1,2.48-2.42c-8,1.91-9.2,2.24-10.21,2.79a1,1,0,0,1-.37.14c-.2,0-.28-.05-.45-.31a5.8,5.8,0,0,1-.66-1.54,42,42,0,0,0,5.3-1Zm.15,4.41a.5.5,0,0,0,.17-.14c.3-.25.41-.32.52-.31a4.43,4.43,0,0,1,1.27,1,6.22,6.22,0,0,1,1.07,1.28c0,.08-.06.16-.21.3a2.11,2.11,0,0,1-.66.53c-.08,0-.13,0-.23-.16a8.17,8.17,0,0,0-1.9-2.11c-.1-.06-.15-.13-.15-.19A.3.3,0,0,1,352.9,2684.33Zm4.75.41c0,.13-.06.18-.49.5-.23.19-.29.24-.38.25s-.11,0-.19-.15a7.41,7.41,0,0,0-1.93-2.11c-.07-.06-.09-.08-.09-.12s.62-.65.8-.66A6.58,6.58,0,0,1,357.65,2684.74Z"/><path class="cls-3" d="M270.8,2715.28a9.74,9.74,0,0,0-.28-1.91l1.62-.1a9,9,0,0,0,0,1.9l.23,3.54.29,0a8.73,8.73,0,0,0,1.53-.19l.09,1.4a11.41,11.41,0,0,0-1.54,0l-.29,0,.68,10.44a18.8,18.8,0,0,0,.29,2.29l-1.63.1a13.62,13.62,0,0,0,0-2.32l-.68-10.42-.54,0a15.16,15.16,0,0,0-1.77.21l-.1-1.43a8.69,8.69,0,0,0,1.79,0l.54,0Zm8,7.86a14.49,14.49,0,0,0,1.8-.21,9.93,9.93,0,0,0,0,1.21,27.31,27.31,0,0,1-.35,6.59c-.29.76-.72,1-2.1,1.05-.31,0-.71,0-1.07,0a4.28,4.28,0,0,0-.36-1.34,6.25,6.25,0,0,0,1.62.12c.51,0,.73-.21.81-.61a28.31,28.31,0,0,0,.17-5.69l-1.9.12a12.43,12.43,0,0,1-2.7,7.93,4.23,4.23,0,0,0-1-1c1.59-1.71,2.25-3.52,2.48-6.82l-1,.06a10.11,10.11,0,0,0-1.27.15l-.08-1.33a6.41,6.41,0,0,0,1.34,0l1.05-.07c0-.45,0-.82-.06-1.22a6.65,6.65,0,0,0-.11-1l1.4-.09a9.78,9.78,0,0,0,0,1.41c0,.36,0,.42,0,.8Zm5.92-8.64a11.55,11.55,0,0,0,1.69-.2c0,.41,0,.41,0,.92a13,13,0,0,1-.39,3.58,1.5,1.5,0,0,1-.86.9,4.58,4.58,0,0,1-1.37.23c-.54,0-1.34,0-2.12,0a5,5,0,0,0-.38-1.32,14.15,14.15,0,0,0,2.62.07c.58,0,.81-.18.92-.64a9.71,9.71,0,0,0,.22-2.4l-4.69.3c-.77,2.31-2.13,3.74-4.9,5.15a3.85,3.85,0,0,0-.9-1.1c2.46-1,3.75-2.17,4.44-4l-2.16.14a13,13,0,0,0-2.06.25l-.1-1.4a14.49,14.49,0,0,0,2.15,0l2.49-.17a7.18,7.18,0,0,0,.13-1.77,1.81,1.81,0,0,0,0-.38H281a8.93,8.93,0,0,0-.17,1.15c-.05.3-.08.5-.14.91Zm1.59,8.15a15.16,15.16,0,0,0,1.77-.21c0,.34,0,.76,0,1.3.08,3.68,0,5.65-.4,6.55-.25.64-.81.92-2.06,1a11.43,11.43,0,0,1-1.41,0,3.87,3.87,0,0,0-.37-1.32,9,9,0,0,0,2,.08c.53,0,.72-.16.81-.52a26.25,26.25,0,0,0,.21-5.76l-2.32.15c-.23,3.61-.94,5.76-2.68,7.91a4,4,0,0,0-1-1c1.53-1.51,2.29-3.62,2.48-6.87l-.58,0a7.91,7.91,0,0,0-1.29.15l-.08-1.34a6.84,6.84,0,0,0,1.38,0l.6,0a11.73,11.73,0,0,0,0-1.38,5.17,5.17,0,0,0-.1-.85l1.4-.09a12.79,12.79,0,0,0,0,1.75,2.73,2.73,0,0,0,0,.49Z"/><path class="cls-3" d="M305.25,2715.62a17,17,0,0,0,2.51-.27,16.84,16.84,0,0,0,.07,2.81,73.85,73.85,0,0,1-.15,9.06c-.28,1.9-.89,2.52-2.6,2.63a29,29,0,0,1-3.83-.08,6.43,6.43,0,0,0-.46-1.6,18.63,18.63,0,0,0,4.09.29c1.13-.08,1.39-.63,1.55-3.26.11-2,.08-4.9-.1-8.33l-6.61.43a18.83,18.83,0,0,1-1.6,7.69,14.52,14.52,0,0,1-5.58,5.9,3.9,3.9,0,0,0-1.21-1.13,12.76,12.76,0,0,0,3.43-2.52c2.32-2.41,3.37-5.3,3.54-9.84l-4.16.27a19.08,19.08,0,0,0-2.64.3l-.11-1.58a17.53,17.53,0,0,0,2.66,0l4.27-.28c0-1.29,0-1.54-.09-2.47a15.57,15.57,0,0,0-.25-2.11l1.69-.11a9.69,9.69,0,0,0,0,1.72c0,.38.05,1.34.08,2.88Z"/><path class="cls-3" d="M320.33,2715.51a45.06,45.06,0,0,0-8.42,1.44.76.76,0,0,1-.29.09c-.2,0-.39-.49-.6-1.64l.34,0c.58,0,1.2-.12,2.41-.31,1.44-.23,4.61-.64,6.45-.85a12.23,12.23,0,0,0-.42-3.46c1.58,0,2,0,2,.25,0,.07,0,.13-.09.3-.15.36-.15.36-.09,2.77.56,0,5.3-.43,6.43-.5.45,0,.56,0,.6,0s.11.2.13.48c.05.81,0,.92-.1.93h-.07c-.33,0-2.21,0-3.39.11-1.45.1-2.91.21-3.53.28,0,.2.07,1.49.22,4.1a7.54,7.54,0,0,1,.64,2.57,6.61,6.61,0,0,1-1.79,5.21,8.1,8.1,0,0,1-3,2.12c-.15,0-.2,0-.53-.3a3.18,3.18,0,0,0-.95-.56,11.68,11.68,0,0,0,2.52-1.44,7.8,7.8,0,0,0,1.56-1.78,7.23,7.23,0,0,0,.75-1.91,2.21,2.21,0,0,1-1.9,1.18c-1.8.12-3-1.12-3.18-3.17s1-3.53,2.83-3.65a2,2,0,0,1,1.61.43c0-.58-.05-.87-.07-1.16l-.05-.77Zm-2.93,5.76c.08,1.31.8,2.05,1.94,2s1.55-.81,1.47-2.15-.75-2.19-1.77-2.12S317.31,2720,317.4,2721.27Z"/><path class="cls-3" d="M337.23,2722.28c.11,1.82.34,4.29.5,5.28v.09c0,.27-.11.32-.93.38-.58,0-.61,0-.64-.52,0-.09-.05-.76-.07-1.38s0-1-.26-4.32c0-.56-.06-.94-.06-1.36a35.88,35.88,0,0,0-2.69,4.11c-.14.25-.22.33-.33.33s-.28-.07-.63-.4-.51-.51-.51-.64,0-.13,1.1-1.59a37.57,37.57,0,0,0,2.92-4.51c0-.09,0-.8-.09-2.14a19.65,19.65,0,0,0-3.08.83.79.79,0,0,1-.22.06c-.13,0-.2-.08-.34-.45a7.37,7.37,0,0,1-.27-1.12,3.57,3.57,0,0,0,.47,0,27.21,27.21,0,0,0,3.4-.58c-.08-1.85-.08-1.85-.1-2.18,0-.72,0-.72-.18-2,1.14-.05,1.93.1,1.95.39a.72.72,0,0,1-.09.36,11.6,11.6,0,0,0-.17,3.1l.23-.13a.39.39,0,0,1,.2-.06,1.59,1.59,0,0,1,.88.77c0,.07,0,.12-.12.26a19.75,19.75,0,0,0-1.17,2c0,.09,0,.72,0,.87a21.43,21.43,0,0,1,2.17-2.28,25.1,25.1,0,0,1,2.62-2.05,4.6,4.6,0,0,1,2.08-.7c1.67-.11,2.54.86,2.67,2.93,0,.27,0,1.75,0,4.39,0,1.4,0,2.79.05,3.21.07,1.05.36,1.41,1.12,1.36a4.43,4.43,0,0,0,3-2,2.81,2.81,0,0,0,.28,1.27.85.85,0,0,1,.09.29c0,.22-.23.53-.75.9a5.08,5.08,0,0,1-2.68,1c-1.56.11-2.41-.71-2.53-2.43,0-.62-.06-2-.06-4.1,0-2,0-3-.06-3.6-.09-1.36-.43-1.87-1.21-1.82-1,.07-2.19.77-4.11,2.48a25,25,0,0,0-2.06,2.06c-.35.4-.54.61-.58.64Z"/><path class="cls-3" d="M357.18,2721.13a.59.59,0,0,1,.16.35,4.2,4.2,0,0,1-.25,1,18,18,0,0,0-.66,3.58c0,.31-.06.38-.24.44a5.78,5.78,0,0,1-.91.12c-.24,0-.27,0-.54-.83a21.52,21.52,0,0,1-1.06-5.57,39.79,39.79,0,0,1,.36-7.87,24.84,24.84,0,0,0,.24-2.85c1.19.14,1.88.39,1.9.66,0,.08,0,.11-.14.36-.69,1.43-1.22,6.59-1,9.86a24.16,24.16,0,0,0,.53,3.65c.26-.82.41-1.34.63-2,.33-1.12.33-1.12.53-1.78A2.21,2.21,0,0,0,357.18,2721.13Zm4.55-6.33-.35,0-1.19.06c-.22,0-.29,0-.32-.16a5.23,5.23,0,0,1-.18-1v-.22c.85,0,1.25,0,2,0a30.3,30.3,0,0,0,3.13-.36c0-.76-.08-1.2-.11-1.67,0-.31,0-.58-.05-.83a14.46,14.46,0,0,0-.24-1.9,7.63,7.63,0,0,1,1.66.13c.18,0,.28.12.29.25a.5.5,0,0,1-.07.3,9.28,9.28,0,0,0-.11,3.47,27,27,0,0,0,3.1-.83l.15,0a.15.15,0,0,1,.17.12,8,8,0,0,1,.18,1.06c0,.18,0,.23-.21.29a29.67,29.67,0,0,1-3.3.79c.11,1.67.32,3.85.65,6.45a16.63,16.63,0,0,1,4,1.92c.21.14.31.25.32.38s-.07.3-.29.65c-.37.56-.37.56-.48.57s-.09,0-.75-.49a13.43,13.43,0,0,0-2.69-1.52c0,.19,0,.35.05.46.13,2-1.17,3.25-3.53,3.41s-3.66-.86-3.77-2.55,1.33-3,3.62-3.17a8.25,8.25,0,0,1,2,.07c-.35-3.26-.38-3.77-.57-5.95C363.66,2714.6,362.49,2714.75,361.73,2714.8Zm1.81,6.83c-1.6.11-2.5.75-2.44,1.7s.95,1.44,2.35,1.35c1.56-.1,2.23-.82,2.13-2.24a2.41,2.41,0,0,0-.06-.6A5.14,5.14,0,0,0,363.54,2721.63Zm4.47-14c.18,0,.64.46,1.2,1.22a5.14,5.14,0,0,1,.77,1.2c0,.16-.63.65-.87.67s-.21-.06-.31-.25a8.42,8.42,0,0,0-1.5-2.1c-.09-.1-.12-.15-.12-.19S367.79,2707.61,368,2707.61Zm2.69,1.71a7.88,7.88,0,0,0-1.55-2.16s-.08-.08-.08-.11.08-.18.36-.33a1.74,1.74,0,0,1,.45-.23c.16,0,.4.22.89.81a7,7,0,0,1,1.06,1.61c0,.18-.58.62-.85.63S370.77,2709.49,370.7,2709.32Z"/><path class="cls-3" d="M287.72,2744.3a12.28,12.28,0,0,0-.22-1.73l1.54-.1a13,13,0,0,0,0,1.77l.09,1.33,2.07-.13a12.68,12.68,0,0,0,2.08-.25l.09,1.4a18.51,18.51,0,0,0-2,.07l-5.86.38a10.33,10.33,0,0,0-2.06.27l-.1-1.5a9.58,9.58,0,0,0,2.1,0l2.36-.15Zm-.23,3.91a15.86,15.86,0,0,1-2.91,5.17,4.8,4.8,0,0,0-1.12-.84,13.45,13.45,0,0,0,1.81-2.42,9.38,9.38,0,0,0,1-2.37Zm-.53,3.92c1.21,1,1.61,1.37,2.42,2.14a12.12,12.12,0,0,0,.88-3.27l1.36.51a29.07,29.07,0,0,1-1.26,3.75c.79.82,1.25,1.35,2.47,2.81l-.89,1.11c-1-1.32-1.42-1.78-2.19-2.65a18.13,18.13,0,0,1-4.83,5.73,4.52,4.52,0,0,0-1.08-1,14.23,14.23,0,0,0,2.86-2.53,14.91,14.91,0,0,0,2.14-3.18,31.34,31.34,0,0,0-2.74-2.51Zm4.1-4.69a14.77,14.77,0,0,0,3.2,3.85,4.39,4.39,0,0,0-.94,1,21.48,21.48,0,0,1-3.32-4.23Zm9-.77a13.05,13.05,0,0,0,1.89-.21,24.45,24.45,0,0,0,0,2.63,58.13,58.13,0,0,1-.18,9.69c-.26,1.72-.68,2.15-2.22,2.25a20.49,20.49,0,0,1-2.21,0,5.67,5.67,0,0,0-.34-1.41,11,11,0,0,0,2.4.15c.87-.05,1-.4,1.21-3.11a71,71,0,0,0-.08-8.78l-3,.19a33.87,33.87,0,0,1-.22,4.13,15.91,15.91,0,0,1-2.47,7.07,13.8,13.8,0,0,1-2.2,2.53,3.91,3.91,0,0,0-1.16-1,11.82,11.82,0,0,0,3.53-4.77,20.92,20.92,0,0,0,1.16-7.9l-.55,0a13.34,13.34,0,0,0-2,.22l-.09-1.45a9.16,9.16,0,0,0,2.06,0l.62,0c0-.91-.06-1.65-.11-2.41a12.7,12.7,0,0,0-.29-2.28l1.61-.1a35.33,35.33,0,0,0,.11,4.06c0,.2,0,.24,0,.64Z"/><path class="cls-3" d="M310.19,2751.44c.31,0,.8,0,1.16,0l.62,0c1-1,1.36-1.41,2-2.21a17.71,17.71,0,0,0-3.39-2.67l.76-.92c.52.35.68.47,1,.72a9.57,9.57,0,0,0,1.31-2.28l-6.06.4a16.62,16.62,0,0,0-2.1.25l-.1-1.5a15.1,15.1,0,0,0,2.23,0l6.3-.41,0-.44a7,7,0,0,0-.22-1.44l1.6-.11a5.92,5.92,0,0,0,0,1.46l0,.44,6.79-.44a14.57,14.57,0,0,0,2.22-.28l.09,1.49c-.6,0-1.3,0-2.12,0l-7.21.47a13.94,13.94,0,0,1-1.84,3,17.18,17.18,0,0,1,1.47,1.31,22,22,0,0,0,2.18-3.23l1.08.67a24.18,24.18,0,0,1-2.33,3.13l-.22.25c-1.25,1.43-1.27,1.47-1.88,2.07a38.12,38.12,0,0,0,4.2-.7,14.29,14.29,0,0,0-1.46-1.4l.91-.57a22.06,22.06,0,0,1,3.26,3.5l-1.09.67c-.43-.66-.55-.86-.94-1.37a57.14,57.14,0,0,1-6.78,1.29c-.51.08-.88.15-1.15.21Zm-4.25.73a15.31,15.31,0,0,0,4.83-3.05l.61,1a23.68,23.68,0,0,1-2.75,2.08,12.18,12.18,0,0,1-1.12.7l-.84.53Zm10.37,6.47a9.72,9.72,0,0,0,.28,1.86l-1.69.11a9.84,9.84,0,0,0,0-1.88l-.21-3.23-6.47.43a16.54,16.54,0,0,0-2.2.27l-.1-1.53a15.15,15.15,0,0,0,2.15,0l6.54-.42,0-.36a8.37,8.37,0,0,0-.18-1.35l1.56-.1a7.84,7.84,0,0,0,0,1.38l0,.34,7-.46a15.38,15.38,0,0,0,2.11-.29l.1,1.53a16.8,16.8,0,0,0-2.24,0l-6.9.45Zm-9-13.32a22.1,22.1,0,0,1,3.17,2.57l-.92,1a15.27,15.27,0,0,0-3.15-2.67ZM323,2745a18.84,18.84,0,0,1-3.3,3.25l-.92-.81a14.06,14.06,0,0,0,3.17-3.18Zm-2.7,3.55a23.7,23.7,0,0,1,4.25,2.76l-.84,1.11a19.93,19.93,0,0,0-4.18-3Z"/><path class="cls-3" d="M330.67,2743.29a14.67,14.67,0,0,0,.7-3.29l1.54.19c-.33,1.23-.57,2-.9,3l1.38-.09c1.15-.1,1.77-.16,1.88-.19,0,.56,0,1.14.06,1.87l.71,10.91a19.25,19.25,0,0,0,.23,2.18l-1.4.09-.09-1.36-4.14.27.12,1.87-1.44.09a18.86,18.86,0,0,0-.06-2.59l-.71-10.84a14.37,14.37,0,0,0-.22-2c.34,0,.92,0,1.27,0l.65-.05Zm-.55,6,4.19-.27-.31-4.77-4.19.28Zm.42,6.41,4.19-.27-.35-5.26-4.18.28Zm8.29-11.72a20,20,0,0,1-2.19,4.06,3.65,3.65,0,0,0-1.09-.89,15.66,15.66,0,0,0,2.79-5.62,11,11,0,0,0,.42-2.1l1.49.19c-.06.16-.08.21-.35,1.19-.2.72-.26.88-.57,1.87l5.18-.34a13.87,13.87,0,0,0,1.87-.21,6.37,6.37,0,0,0,0,1.36c.27,6.87.28,9.15,0,11.24-.29,2.53-.91,3.31-2.69,3.42a24.62,24.62,0,0,1-2.75,0,4.17,4.17,0,0,0-.45-1.49,15.64,15.64,0,0,0,3.07.18c.78-.05,1.06-.27,1.26-1a23.54,23.54,0,0,0,.41-6c0-1.74-.07-3.21-.25-6.33Zm2.94,8.66a22.27,22.27,0,0,0-3.61-5.19l1-.72a24,24,0,0,1,3.73,5.08Z"/><path class="cls-3" d="M356.37,2752.38l-1.25.09-1.24-13.2,2-.14Zm.89,3.34a1.28,1.28,0,1,1-2.56.17,1.28,1.28,0,0,1,2.56-.17Z"/><path class="cls-5" d="M177.05,5052s-7.1,2.47-7.59-8.44,10.73-24.5,18.73-39c7.16-12.95,24.31-89.12-74.21-55.78-83.35,28.29-110.43,43.69-99.09,76.08s38.3,60.84,129.4,23.08c11.79-8.09,17.63,2.1,26.14,6.43"/><path class="cls-3" d="M63.53,5003a16.81,16.81,0,0,0,5.87,5,15,15,0,0,0,7,1.63,5.83,5.83,0,0,0-.32,1.68c-5.42-.49-9.05-2.36-12.35-6.33a13.55,13.55,0,0,1-.93,8.71,17,17,0,0,1-3.17,4.48,4.59,4.59,0,0,0-1.35-.87,13.73,13.73,0,0,0,3.78-5.62,13.09,13.09,0,0,0-.12-8l-5.38,2.23a12.9,12.9,0,0,0-2.12,1.05l-.64-1.55a13.08,13.08,0,0,0,2.28-.77l5.46-2.27c-.36-1.05-.55-1.56-1-2.55a13.21,13.21,0,0,0-1-1.93l1.63-.68a15,15,0,0,0,.71,2.12c.41,1,.64,1.6.93,2.49l6-2.49a12.81,12.81,0,0,0,2.13-1l.64,1.54a13.5,13.5,0,0,0-2.23.75Z"/><path class="cls-3" d="M77.69,4993.68a13.88,13.88,0,0,0-2.91-1.78l1-.87a21.56,21.56,0,0,1,3.21,2.1l2.89-1.2a13.48,13.48,0,0,0-2.62-2.24l1.09-.87a22,22,0,0,1,2.83,2.58l2.16-.9a12.91,12.91,0,0,0,.7-4h1.45a18.64,18.64,0,0,1-.79,3.45l1.55-.64a24.48,24.48,0,0,0,2.25-1,12.3,12.3,0,0,0,.58,1.64l.62,1.48a10.15,10.15,0,0,0,.68,1.36l-1.32.55-1.39-3.36-13.93,5.77,1.39,3.36-1.32.54a10.57,10.57,0,0,0-.48-1.44l-.61-1.48a12.66,12.66,0,0,0-.75-1.58,21.12,21.12,0,0,0,2.3-.86Zm10.72,10.9c.51,1.23.26,1.61-1.62,2.38-.58.24-1.54.59-2.29.83a6.48,6.48,0,0,0-.92-1.12,19.51,19.51,0,0,0,2.67-.84c.89-.36,1-.49.83-.92l-1.65-4-5.92,2.45a16.14,16.14,0,0,0-2,1l-.56-1.36a15.35,15.35,0,0,0,2.11-.73l5.94-2.46-.15-.35c-.16-.39-.31-.69-.54-1.13l.83-.34a16.91,16.91,0,0,0,2.62-3.69l-7.21,3c-.68.29-1.37.62-1.84.88l-.53-1.29a18.54,18.54,0,0,0,1.93-.69l7.16-3a9.19,9.19,0,0,0,1.43-.69l1.07.5-.45.84a22.38,22.38,0,0,1-3.32,4.8l.25.62,5.9-2.44a16.65,16.65,0,0,0,2-1l.56,1.36a15.42,15.42,0,0,0-2.15.74l-5.89,2.44Z"/><path class="cls-3" d="M98.79,4987.5a21,21,0,0,1-1,5.38,3.22,3.22,0,0,0-1.47-.36,17.93,17.93,0,0,0,1-7.58,7,7,0,0,0-.34-2l1.63-.22a10.06,10.06,0,0,0,0,1.24c0,.12,0,.85.08,2.18l4.15-1.71-.87-2.08a14.49,14.49,0,0,0-1-2l1.61-.66a12.82,12.82,0,0,0,.72,2.14l.87,2.1,4.88-2a19.06,19.06,0,0,0,2.2-1.06l.59,1.43a17.47,17.47,0,0,0-2.28.8l-4.91,2,1.77,4.26,4-1.66a11.51,11.51,0,0,0,2-1l.58,1.41a15,15,0,0,0-2.15.74l-4,1.67,2.13,5.15,5.52-2.29a15.06,15.06,0,0,0,2.27-1.11l.61,1.47a15.91,15.91,0,0,0-2.37.81l-12.69,5.26a16.71,16.71,0,0,0-2.31,1.12l-.61-1.46a16.18,16.18,0,0,0,2.41-.83l5.85-2.42L105.7,4991l-3.61,1.5a14.75,14.75,0,0,0-2,1l-.58-1.4a11.89,11.89,0,0,0,2.15-.75l3.61-1.49-1.77-4.27Z"/><path class="cls-3" d="M114.88,4974.85a27.8,27.8,0,0,1,4.49,1.23l-.34,1.4a21.74,21.74,0,0,0-4.59-1.36Zm1.2,5.35a22.51,22.51,0,0,1,4.56.76l-.22,1.45a16.67,16.67,0,0,0-4.64-.95Zm9-6.62a43.07,43.07,0,0,1-4.34,2.35,4.51,4.51,0,0,0-1-1,40.62,40.62,0,0,0,7.91-4.58,10.4,10.4,0,0,0,1.93-1.74l1.4.8-.57.45c-1,.79-2.37,1.78-4.16,2.95l1.42,3.42,3.87-1.6a14.3,14.3,0,0,0,1.95-.95l.58,1.4a15.64,15.64,0,0,0-2.05.7l-3.87,1.61,1.4,3.38,3.17-1.32a9.69,9.69,0,0,0,1.49-.71,13.69,13.69,0,0,0,.66,1.83l1.57,3.77a15.56,15.56,0,0,0,.89,1.87l-1.34.56-.47-1.14-7.68,3.19.46,1.13-1.34.55a13.21,13.21,0,0,0-.69-2l-1.58-3.81a18.52,18.52,0,0,0-.8-1.7,8.68,8.68,0,0,0,1.47-.51l2.93-1.21-1.4-3.38-3.77,1.56a16.22,16.22,0,0,0-1.95.95l-.58-1.4a13.34,13.34,0,0,0,2.05-.71l3.77-1.56ZM122.54,4985a37.3,37.3,0,0,1-.84,7.25l-1.53-.55a5.76,5.76,0,0,0,.34-.93,21.9,21.9,0,0,0,.71-6.14Zm4.8,2.67,7.68-3.18-1.65-4-7.69,3.18Z"/><path class="cls-3" d="M143,4977.27a.56.56,0,0,1,.26.28,4.14,4.14,0,0,1,.1,1.05,18.37,18.37,0,0,0,.52,3.6c.08.3.06.38-.08.49a5.17,5.17,0,0,1-.82.41c-.23.1-.26.08-.79-.61a21.2,21.2,0,0,1-2.79-4.93,39.2,39.2,0,0,1-2.19-7.57,22,22,0,0,0-.7-2.78c1.18-.25,1.91-.24,2,0,0,.08,0,.11,0,.39-.2,1.58.95,6.63,2.21,9.66a23.24,23.24,0,0,0,1.68,3.29c0-.86,0-1.4,0-2.1-.05-1.17-.05-1.17-.07-1.86A2.14,2.14,0,0,0,143,4977.27Zm2.27-7.46-.33.14c-.54.2-.91.35-1.1.43s-.28.09-.36-.05a5.27,5.27,0,0,1-.5-.92l-.09-.21a18.43,18.43,0,0,0,1.85-.67,28.38,28.38,0,0,0,2.85-1.34l-.64-1.55c-.12-.29-.22-.54-.32-.76a12.69,12.69,0,0,0-.84-1.73,7.08,7.08,0,0,1,1.62-.41c.19,0,.3,0,.35.15a.38.38,0,0,1,0,.3,9.06,9.06,0,0,0,1,3.32,26.24,26.24,0,0,0,2.66-1.78l.14-.08a.14.14,0,0,1,.19.07,6.6,6.6,0,0,1,.52.94c.06.17,0,.23-.11.34a31.51,31.51,0,0,1-2.87,1.81c.64,1.55,1.54,3.54,2.69,5.89a16.62,16.62,0,0,1,4.44.53c.24.07.37.14.42.26a1.4,1.4,0,0,1-.07.71c-.17.64-.17.64-.27.69s-.08,0-.86-.23a14.16,14.16,0,0,0-3-.57c.09.17.15.32.2.42.77,1.86-.07,3.46-2.25,4.36s-3.74.37-4.39-1.2.28-3.28,2.41-4.16a7.53,7.53,0,0,1,1.95-.59c-1.38-3-1.57-3.45-2.45-5.46C147,4969,145.94,4969.52,145.24,4969.81Zm3.91,5.89c-1.48.62-2.12,1.51-1.76,2.4s1.36,1,2.66.52,1.84-1.49,1.3-2.81c-.18-.42-.23-.56-.26-.55A5.1,5.1,0,0,0,149.15,4975.7Z"/><path class="cls-3" d="M72.74,5026.34a22.18,22.18,0,0,1,4.06,1.51l-.51,1.27a17,17,0,0,0-4.07-1.55Zm5.9,4.39a30,30,0,0,1-2.78,3.66c-.3.37-.36.42-.52.65l-1-1a19,19,0,0,0,3.58-4.29Zm7.19,3a18.72,18.72,0,0,0,9.74.77,5.35,5.35,0,0,0-.32,1.56c-4.31.26-6.83-.1-9.81-1.4.58,1.21.68,1.39.87,1.87l.45,1.07a12.52,12.52,0,0,0,1,2l-1.46.6a16.69,16.69,0,0,0-.74-2.13L85.1,5037c-.14-.33-.54-1.42-.73-1.92-1,2.81-2.35,4.64-5.61,7.73a4.46,4.46,0,0,0-1.34-.8c3.06-2.45,5.08-4.88,6-7.33l-5,2.06a14.06,14.06,0,0,0-2.15,1l-.55-1.32a13.21,13.21,0,0,0,2.26-.79l5.52-2.29-.06-.14a9.56,9.56,0,0,0-.63-1.31l1.4-.58a7.75,7.75,0,0,0,.47,1.38l.06.14,5.71-2.36a12.45,12.45,0,0,0,2.19-1.06l.55,1.32a15.61,15.61,0,0,0-2.3.81Zm-6.61-9.19a10.21,10.21,0,0,0-.17-2.39l1.4-.31c0,.94,0,1.33,0,2.21l2-.81a12.92,12.92,0,0,0,1.43-.67,11.34,11.34,0,0,0,.57,1.55l1.75,4.2a10.49,10.49,0,0,0,.69,1.5c-.45.14-.91.31-1.43.52L81.5,5032a15.88,15.88,0,0,0-1.46.68,14.62,14.62,0,0,0-.57-1.55l-1.75-4.23a12.91,12.91,0,0,0-.69-1.47c.54-.18.83-.27,1.53-.56Zm.27,3.44,4.43-1.83-.84-2L78.65,5026Zm1.28,3.09,4.43-1.83-.86-2.09L79.91,5029Zm8-10.55a22.24,22.24,0,0,1-2.13,4.6l-1.15-.51a16,16,0,0,0,2-4.52Zm-2.22,5.65a53.64,53.64,0,0,1,5.62.64l-.32,1.32a29.15,29.15,0,0,0-5.58-.76Z"/><path class="cls-3" d="M95.74,5016.45c.34-.06.45,0,.53.17a1.18,1.18,0,0,1,.07.34,9.62,9.62,0,0,0,.62,2.37c.71,2,2.88,7.77,3.45,9.15,1,2.29,2,2.84,3.93,2a8,8,0,0,0,3.54-2.89,11.65,11.65,0,0,0,1.91-4.71,4,4,0,0,0,1,1.08c.11.1.15.13.18.21.18.44-.59,2.42-1.49,3.86a9.77,9.77,0,0,1-4.57,3.94c-2.7,1.12-4.56.2-5.83-2.87-.21-.52-3.45-8.81-3.92-10.06-.06-.15-.18-.41-.25-.6a12.55,12.55,0,0,0-.77-1.56A13.36,13.36,0,0,1,95.74,5016.45Z"/><path class="cls-3" d="M112.28,5012.48a.72.72,0,0,1,0,.21,12.91,12.91,0,0,0,1.11,3.43c2,4.92,4.28,7.76,5.68,7.18.89-.36,1.27-2.05,1.06-4.49a3.71,3.71,0,0,0,1.18,1c.15.08.19.12.23.2a3.92,3.92,0,0,1,0,1.13c-.09,1.93-.78,3.25-1.89,3.71-1.36.56-2.86-.14-4.4-2.06a29.66,29.66,0,0,1-3.55-6.58c-.18-.43-.41-1-.68-1.72-.1-.22-.18-.41-.22-.51a8.28,8.28,0,0,0-.7-1.4C111.69,5012.22,112.17,5012.21,112.28,5012.48Zm10.46-2.5c.37-.15,2,.69,3.3,1.75a13.87,13.87,0,0,1,2.79,3,6.89,6.89,0,0,1,.63.92c0,.12,0,.23-.14.42a6.18,6.18,0,0,1-1,.81c-.08,0-.15,0-.21-.1-1.93-3.09-3.52-4.53-6.24-5.75A3.34,3.34,0,0,1,122.74,5010Z"/><path class="cls-3" d="M136.93,5004.66a24.51,24.51,0,0,0,4.83-2.92s.09-.06.17-.1.2,0,.4.25a6.26,6.26,0,0,1,.54.79c.06.15-.05.24-.82.77a26.88,26.88,0,0,1-4.56,2.52c.7,1.57,1.25,2.72,2.49,5.13a16.75,16.75,0,0,1,6.23.29c1.09.25,1.46.38,1.51.49a2.38,2.38,0,0,1-.35,1.54c-.06,0-.14,0-.28,0a17.81,17.81,0,0,0-2.8-.69,13.63,13.63,0,0,0-3.62-.22l.26.62c.86,2.08-.1,3.78-2.74,4.87-2.41,1-4.19.6-4.87-1.05-.77-1.85.49-3.7,3.29-4.86a16.06,16.06,0,0,1,1.93-.65c-1.61-3.2-2.36-4.82-4-8.67-.38-.88-.66-1.49-1.1-2.32a9.34,9.34,0,0,1,1.69-.41.32.32,0,0,1,.36.17.69.69,0,0,1,0,.35,9.28,9.28,0,0,0,1,3.16Zm0,8.74c-1.8.74-2.75,1.94-2.34,2.93s1.4,1,2.88.37q2.85-1.17,2-3.3c-.28-.66-.28-.66-.3-.65A10.91,10.91,0,0,0,136.93,5013.4Z"/><path class="cls-3" d="M155.27,5006l-1.16.48-5.42-12.09,1.88-.78Zm1.91,2.88a1.28,1.28,0,1,1-1.68-.68A1.26,1.26,0,0,1,157.18,5008.85Z"/></g></g></svg>